<svg width="70" height="70" viewBox="0 0 70 70" fill="none" xmlns="http://www.w3.org/2000/svg">
<g clip-path="url(#clip0_0_6003)">
<path d="M47.8307 34.2856V36.1172C40.4284 42.3994 29.5664 42.3994 22.1641 36.1172V34.2856C22.1636 29.931 24.9802 26.0764 29.1291 24.7539C32.547 27.5227 37.4361 27.5227 40.8541 24.7539H40.8657C45.0167 26.0736 47.8346 29.9299 47.8307 34.2856Z" fill="#EF314C"/>
<path d="M40.8683 24.7539H40.8567C40.4165 25.107 39.9452 25.4194 39.4485 25.6872C42.4824 27.4882 44.3396 30.7574 44.3333 34.2856V36.1172C41.2113 38.7779 37.3367 40.3979 33.25 40.7512C33.8263 40.8014 34.4097 40.8306 35 40.8306C39.7029 40.8396 44.2542 39.168 47.8333 36.1172V34.2856C47.8372 29.9299 45.0193 26.0736 40.8683 24.7539Z" fill="#BB193B"/>
<path d="M44.333 17.4984C44.3359 20.3171 43.0618 22.9853 40.868 24.7551H40.8563C37.4636 27.4873 32.6315 27.507 29.2166 24.8026C25.8017 22.0983 24.7137 17.3902 26.5958 13.4617C28.4779 9.53321 32.8288 7.43086 37.0763 8.39752C41.3237 9.36418 44.3363 13.1423 44.333 17.4984Z" fill="#FFE0B2"/>
<path d="M35 8.16406C34.4127 8.16565 33.8268 8.22228 33.25 8.33323C36.8175 9.01608 39.6647 11.7066 40.5483 15.2297C41.4319 18.7528 40.1913 22.4685 37.3683 24.7541H37.3567C36.1657 25.7184 34.7551 26.3736 33.25 26.6616C35.9429 27.1823 38.7281 26.4839 40.8567 24.7541H40.8683C43.9428 22.2673 45.1165 18.1129 43.7978 14.3849C42.4791 10.657 38.9543 8.16459 35 8.16406Z" fill="#DFC49C"/>
<path d="M54.8318 20.9971C54.8383 26.8186 52.2771 32.3466 47.8318 36.1054V34.2854C47.8356 29.9298 45.0177 26.0734 40.8668 24.7538C43.9421 22.2672 45.1163 18.1123 43.7976 14.3838C42.4788 10.6553 38.9533 8.16276 34.9984 8.16276C31.0436 8.16276 27.5181 10.6553 26.1993 14.3838C24.8805 18.1123 26.0548 22.2672 29.1301 24.7538C24.9812 26.0763 22.1646 29.9309 22.1651 34.2854V36.1054C15.1662 30.1657 13.1579 20.1994 17.31 12.0126C21.4622 3.82576 30.6898 -0.441993 39.617 1.69561C48.5441 3.83322 54.838 11.8175 54.8318 20.9971Z" fill="#02A9F4"/>
<path d="M25.6609 17.497C25.6627 13.0185 28.8452 9.17252 33.2443 8.33281C29.0423 7.53427 24.8353 9.69412 23.0352 13.5741C21.2352 17.454 22.3028 22.0609 25.6259 24.7536C22.1184 25.8757 19.5103 28.8333 18.8359 32.4536C19.788 33.8045 20.9049 35.0312 22.1609 36.1053V34.2853C22.1604 29.9307 24.9771 26.0762 29.1259 24.7536C26.9321 22.9839 25.658 20.3156 25.6609 17.497Z" fill="#0377BC"/>
<path d="M35 1.16406C34.4097 1.16406 33.8333 1.2014 33.25 1.25273C40.3257 1.86341 46.5313 6.21984 49.5095 12.6673C52.4878 19.1147 51.7817 26.6638 47.6595 32.4471C47.7732 33.0534 47.8314 33.6688 47.8333 34.2857V36.1057C54.1753 30.7261 56.4854 21.96 53.6182 14.1535C50.7511 6.34708 43.3163 1.16002 35 1.16406Z" fill="#0377BC"/>
<path d="M20.1919 52.2157L20.2852 52.2974V52.3091L21.3352 58.3874C21.3995 58.7418 21.2562 59.1019 20.966 59.3153C20.6757 59.5286 20.2893 59.5579 19.9702 59.3907L13.4135 55.9724L6.85686 59.3907C6.53778 59.5579 6.15132 59.5286 5.86107 59.3153C5.57082 59.1019 5.42753 58.7418 5.49186 58.3874L6.74019 51.1774L1.45519 46.0907C1.18975 45.8447 1.09045 45.4674 1.20039 45.1226C1.31032 44.7778 1.60968 44.5277 1.96852 44.4807L9.28352 43.4307L12.5735 36.8507C12.7295 36.5287 13.0558 36.3242 13.4135 36.3242C13.7713 36.3242 14.0976 36.5287 14.2535 36.8507L17.5319 43.4307L24.8585 44.4807C25.2174 44.5277 25.5167 44.7778 25.6267 45.1226C25.7366 45.4674 25.6373 45.8447 25.3719 46.0907L21.1252 50.1741L20.8335 50.2207C20.3927 50.2847 20.0268 50.5941 19.8904 51.0181C19.754 51.4421 19.871 51.9068 20.1919 52.2157Z" fill="#FEC108"/>
<path d="M49.8268 52.2163L49.7101 52.3329L43.2701 58.5279L44.8218 67.4646C44.8965 67.8998 44.7191 68.3398 44.3636 68.6016C44.008 68.8633 43.5351 68.9019 43.1418 68.7013L35.0101 64.4663L26.8784 68.7013C26.484 68.9027 26.0097 68.8649 25.6521 68.6035C25.2945 68.342 25.1146 67.9016 25.1868 67.4646L26.7384 58.5279L20.2868 52.3096V52.2979L20.1934 52.2163C19.8726 51.9073 19.7556 51.4426 19.892 51.0186C20.0284 50.5946 20.3943 50.2852 20.8351 50.2213L21.1268 50.1746L29.8884 48.9263L33.9601 40.7713C34.1575 40.3753 34.5618 40.125 35.0043 40.125C35.4467 40.125 35.8511 40.3753 36.0484 40.7713L40.1084 48.9263L48.8701 50.1746L49.1851 50.2213C49.6259 50.2852 49.9918 50.5946 50.1282 51.0186C50.2646 51.4426 50.1476 51.9073 49.8268 52.2163Z" fill="#FFDC00"/>
<path d="M49.1867 50.2213L48.8717 50.1746L40.11 48.9263L36.05 40.7713C35.8526 40.3753 35.4483 40.125 35.0058 40.125C34.5634 40.125 34.159 40.3753 33.9617 40.7713L33.25 42.1864L36.61 48.9263L45.3717 50.1746L45.6867 50.2213C46.1275 50.2852 46.4934 50.5946 46.6298 51.0186C46.7661 51.4426 46.6492 51.9073 46.3283 52.2163L46.2117 52.3329L39.7717 58.5279L41.3233 67.4646C41.3382 67.5615 41.3409 67.6599 41.3315 67.7574L43.1433 68.7013C43.5366 68.9019 44.0095 68.8633 44.3651 68.6016C44.7207 68.3398 44.898 67.8998 44.8233 67.4646L43.2717 58.5279L49.7117 52.3329L49.8283 52.2163C50.1492 51.9073 50.2661 51.4426 50.1298 51.0186C49.9934 50.5946 49.6275 50.2852 49.1867 50.2213Z" fill="#FEC108"/>
<path d="M68.5437 46.0907L63.2587 51.1774L64.5071 58.3874C64.5714 58.7418 64.4281 59.1019 64.1379 59.3153C63.8476 59.5286 63.4611 59.5579 63.1421 59.3907L56.5854 55.9724L50.0287 59.3907C49.7097 59.5579 49.3232 59.5286 49.0329 59.3153C48.7427 59.1019 48.5994 58.7418 48.6637 58.3874L49.7137 52.3324L49.8304 52.2157C50.1513 51.9068 50.2682 51.4421 50.1318 51.0181C49.9955 50.5941 49.6295 50.2847 49.1887 50.2207L48.8737 50.1741L44.6271 46.0907C44.3616 45.8447 44.2623 45.4674 44.3723 45.1226C44.4822 44.7778 44.7816 44.5277 45.1404 44.4807L52.4554 43.4307L55.7454 36.8507C55.9013 36.5287 56.2276 36.3242 56.5854 36.3242C56.9432 36.3242 57.2695 36.5287 57.4254 36.8507L60.7037 43.4307L68.0304 44.4807C68.3892 44.5277 68.6886 44.7778 68.7985 45.1226C68.9085 45.4674 68.8092 45.8447 68.5437 46.0907Z" fill="#FEC108"/>
<path d="M41.111 38.6497C40.7173 38.7868 40.4267 39.1235 40.3486 39.533C40.2705 39.9425 40.4168 40.3626 40.7324 40.6349C41.048 40.9073 41.485 40.9906 41.8786 40.8535C51.5685 37.4952 57.417 27.631 55.7142 17.5181C54.0115 7.40515 45.2553 0 35 0C24.7447 0 15.9885 7.40515 14.2857 17.5181C12.583 27.631 18.4315 37.4952 28.1213 40.8535C28.7302 41.0651 29.3954 40.7431 29.6071 40.1342C29.8187 39.5253 29.4967 38.8601 28.8878 38.6485C26.8707 37.9445 24.9898 36.8987 23.3275 35.5568V34.2863C23.3227 30.6469 25.5636 27.3818 28.9613 26.0776C32.5756 28.6383 37.4126 28.6383 41.027 26.0776C44.4246 27.3818 46.6656 30.6469 46.6608 34.2863V35.5615C45.0014 36.9011 43.1241 37.9457 41.111 38.6497ZM26.8275 17.498C26.8275 12.9877 30.4838 9.33131 34.9941 9.33131C39.5045 9.33131 43.1608 12.9877 43.1608 17.498C43.1608 22.0083 39.5045 25.6646 34.9941 25.6646C30.4859 25.6595 26.8326 22.0062 26.8275 17.498ZM42.9275 24.3498C46.5955 20.1134 46.2904 13.7432 42.2343 9.87668C38.1782 6.01019 31.8007 6.01019 27.7446 9.87668C23.6885 13.7432 23.3834 20.1134 27.0515 24.3498C23.6162 26.1062 21.3375 29.5185 21.0315 33.3646C14.3808 25.8692 14.8347 14.4599 22.0598 7.51647C29.2849 0.573088 40.7033 0.573088 47.9284 7.51647C55.1536 14.4599 55.6075 25.8692 48.9568 33.3646C48.6498 29.5162 46.367 26.1031 42.9275 24.3498Z" fill="black"/>
<path d="M24.9682 69.5444C25.6816 70.0708 26.6329 70.1437 27.4182 69.7322L35.0097 65.7877L42.6001 69.7334C43.3872 70.1426 44.3383 70.07 45.0543 69.5461C45.7702 69.0222 46.1271 68.1376 45.9752 67.2635L44.5332 58.9429L50.6349 53.0617C51.2759 52.4437 51.5093 51.5148 51.2366 50.6672C50.9639 49.8196 50.2326 49.2011 49.3516 49.0729L40.8816 47.856L37.1016 40.2575C36.7091 39.4619 35.8969 38.96 35.0097 38.9649C34.1251 38.9617 33.3157 39.4616 32.9226 40.254L29.1216 47.856L20.6702 49.0717C19.7886 49.1996 19.0568 49.8184 18.784 50.6664C18.5112 51.5145 18.7452 52.4438 19.3869 53.0617L25.4909 58.9429L24.0477 67.2635C23.8935 68.1372 24.2508 69.0224 24.9682 69.5444ZM21.0016 51.3817L30.0572 50.0785C30.4356 50.0242 30.7634 49.788 30.9346 49.4462L35.0086 41.2982L39.0651 49.4439C39.2359 49.7869 39.5643 50.0241 39.9436 50.0785L49.0179 51.3817L42.4682 57.6922C42.1896 57.9609 42.0624 58.3503 42.1287 58.7317L43.6769 67.6649L35.5487 63.4404C35.2116 63.2652 34.8102 63.2652 34.4731 63.4404L26.3437 67.6649L27.8919 58.734C27.9582 58.3527 27.831 57.9633 27.5524 57.6945L21.0016 51.3817Z" fill="black"/>
<path d="M5.48158 51.5895L4.34175 58.18C4.23173 58.7945 4.3992 59.4261 4.79919 59.9053C5.19918 60.3846 5.7907 60.6623 6.41491 60.6639C6.75573 60.6633 7.09142 60.5809 7.39375 60.4235L13.4149 57.2899L19.4326 60.4305C19.8023 60.6231 20.2467 60.6038 20.5983 60.3799C20.9499 60.156 21.1554 59.7615 21.1373 59.3451C21.1192 58.9286 20.8803 58.5534 20.5106 58.3609L13.9539 54.9425C13.6161 54.7666 13.2137 54.7666 12.8759 54.9425L6.71941 58.1497L7.88608 51.383C7.95236 51.0017 7.82518 50.6123 7.54658 50.3435L2.59175 45.5602L9.44825 44.5755C9.82686 44.521 10.1547 44.2843 10.3256 43.942L13.4149 37.7657L16.4926 43.9409C16.6636 44.2842 16.9925 44.5214 17.3722 44.5755L24.6977 45.6255C25.3356 45.7167 25.9267 45.2735 26.0178 44.6356C26.109 43.9977 25.6658 43.4067 25.0279 43.3155L18.3079 42.353L15.3014 36.319C14.9453 35.6012 14.2116 35.1486 13.4102 35.1524H13.4032C12.6106 35.1508 11.8863 35.6008 11.5366 36.312L8.51491 42.353L1.81474 43.3144C1.01262 43.4213 0.343304 43.9796 0.0942154 44.7495C-0.154873 45.5195 0.060589 46.364 0.648078 46.9205L5.48158 51.5895Z" fill="black"/>
<path d="M69.8893 44.7478C69.6457 43.9819 68.9824 43.4249 68.1859 43.3175L61.4776 42.355L58.4629 36.3151C58.1143 35.6019 57.3901 35.1493 56.5963 35.1485H56.5893C55.7875 35.1442 55.0533 35.5969 54.6969 36.3151L51.6916 42.348L44.9704 43.3105C44.5578 43.3694 44.2079 43.6441 44.0527 44.0309C43.8975 44.4178 43.9604 44.8581 44.2178 45.1859C44.4752 45.5138 44.8879 45.6794 45.3006 45.6205L52.6272 44.5705C53.007 44.5164 53.3359 44.2791 53.5069 43.9358L56.5776 37.7676L59.6611 43.944C59.832 44.2862 60.1598 44.5229 60.5384 44.5775L67.3914 45.561L62.4366 50.3443C62.158 50.613 62.0308 51.0024 62.0971 51.3838L63.2696 58.1505L57.1131 54.9398C56.7753 54.7638 56.3729 54.7638 56.0351 54.9398L49.4784 58.3581C49.1087 58.5507 48.8698 58.9259 48.8517 59.3423C48.8336 59.7588 49.0391 60.1533 49.3907 60.3772C49.7423 60.6011 50.1867 60.6204 50.5564 60.4278L56.5776 57.2918L62.5976 60.4325C63.3101 60.8027 64.1711 60.7362 64.8184 60.261C65.4656 59.7859 65.787 58.9844 65.6473 58.1936L64.5109 51.5915L69.3479 46.9248C69.9333 46.3644 70.144 45.5171 69.8893 44.7478Z" fill="black"/>
<path d="M28.585 54.994C28.6412 54.9937 28.6974 54.9894 28.753 54.9812L33.1408 54.35C33.5192 54.2957 33.847 54.0594 34.0182 53.7176L36.0482 49.6588C36.3381 49.0821 36.1057 48.3796 35.529 48.0897C34.9523 47.7997 34.2498 48.0321 33.9598 48.6088L32.2098 52.1216L28.424 52.6665C27.8176 52.7529 27.3813 53.2935 27.4249 53.9045C27.4685 54.5155 27.9771 54.9887 28.5897 54.9882L28.585 54.994Z" fill="black"/>
</g>
<defs>
<clipPath id="clip0_0_6003">
<rect width="70" height="70" fill="white"/>
</clipPath>
</defs>
</svg>
