<svg width="70" height="70" viewBox="0 0 70 70" fill="none" xmlns="http://www.w3.org/2000/svg">
<path d="M49.3311 14.9024H47.8067L10.7969 62.1702V63.4963C10.7941 64.0619 10.9029 64.6224 11.1173 65.1458C11.3317 65.6691 11.6473 66.145 12.046 66.546C12.4448 66.9471 12.9188 67.2654 13.441 67.4827C13.9631 67.7001 14.523 67.8122 15.0885 67.8125H49.3311C49.8949 67.8114 50.4529 67.6986 50.9728 67.4805C51.4928 67.2625 51.9644 66.9436 52.3603 66.5423C52.7563 66.141 53.0689 65.6652 53.2799 65.1423C53.491 64.6195 53.5963 64.0601 53.5899 63.4963V19.1871C53.5956 18.6251 53.4895 18.0674 53.2779 17.5467C53.0662 17.026 52.7531 16.5525 52.3569 16.1538C51.9606 15.7552 51.489 15.4392 50.9696 15.2244C50.4502 15.0095 49.8932 14.9001 49.3311 14.9024Z" fill="#A9B6D8"/>
<path d="M38.4193 2.1875H8.16211C7.01554 2.18684 5.91548 2.64081 5.10307 3.44989C4.29066 4.25897 3.83218 5.35715 3.82812 6.50371V58.5389C3.83102 59.6891 4.288 60.7916 5.09965 61.6066C5.9113 62.4215 7.01194 62.883 8.16211 62.8906H44.0535C45.2049 62.8837 46.307 62.4227 47.1205 61.6079C47.9341 60.7931 48.3933 59.6903 48.3984 58.5389V11.792L38.4193 2.1875Z" fill="#D2E0F7"/>
<path d="M48.36 11.7701V11.792H38.4219V2.1875L48.36 11.7701Z" fill="#A9B6D8"/>
<path d="M62.3378 32.7969C61.3181 32.8018 60.3419 33.2101 59.6223 33.9325C58.9026 34.6549 58.4981 35.6327 58.4971 36.6523L58.4844 40.4682H58.4926L66.1563 40.4477L66.1734 36.6318V36.6264C66.1711 35.6104 65.7661 34.6367 65.0471 33.9189C64.3281 33.201 63.3538 32.7976 62.3378 32.7969Z" fill="#53D8D8"/>
<path d="M66.148 40.4195L66.1043 60.1549L62.2734 60.1508V60.1494L62.324 40.4141L66.148 40.4195Z" fill="#C16378"/>
<path d="M58.4375 60.1445L62.2588 67.8131L66.1006 60.1541L58.4375 60.1445Z" fill="#C79A83"/>
<path d="M62.3203 40.4143L62.2697 60.1496V60.151L58.4375 60.1455L58.4813 40.4102H58.4895L62.3203 40.4143Z" fill="#E87187"/>
<path d="M24.0719 11.9649C26.6761 11.967 29.2132 12.7903 31.3226 14.3174C33.432 15.8446 35.0061 17.998 35.8212 20.4713C36.6363 22.9446 36.6507 25.612 35.8626 28.094C35.0744 30.576 33.5238 32.7464 31.4311 34.2964C29.3385 35.8464 26.8104 36.6971 24.2064 36.7276C21.6024 36.7581 19.0551 35.9668 16.9268 34.4662C14.7984 32.9656 13.1974 30.8322 12.3513 28.3693C11.5053 25.9064 11.4573 23.2394 12.2143 20.7477L12.243 20.6629L14.6766 21.475L24.1088 24.6182L20.8713 14.9057L20.1071 12.6143C21.3842 12.1823 22.7236 11.9629 24.0719 11.9649Z" fill="#4CA987"/>
<path d="M20.8758 14.9047L24.1133 24.6172L14.6811 21.474L12.2475 20.6619L10.0312 19.9236C10.0315 17.434 11.0205 15.0463 12.7809 13.2857C14.5412 11.5252 16.9287 10.5358 19.4184 10.5352L20.1115 12.6133L20.8758 14.9047Z" fill="#F3CE7D"/>
<path d="M7.92969 58.5389V6.50371C7.93374 5.35715 8.39222 4.25897 9.20463 3.44989C10.017 2.64081 11.1171 2.18684 12.2637 2.1875H8.16211C7.01554 2.18684 5.91548 2.64081 5.10307 3.44989C4.29066 4.25897 3.83218 5.35715 3.82812 6.50371V58.5389C3.83102 59.6891 4.288 60.7916 5.09965 61.6066C5.9113 62.4215 7.01194 62.883 8.16211 62.8906H12.2637C11.1135 62.883 10.0129 62.4215 9.20121 61.6066C8.38956 60.7916 7.93258 59.6891 7.92969 58.5389Z" fill="#ACB9CC"/>
<path d="M62.3265 31.9922H62.3204C61.0892 31.9918 59.908 32.4798 59.036 33.349C58.164 34.2183 57.6724 35.3979 57.6689 36.6291L57.6172 60.1456C57.6172 60.2725 57.6469 60.3976 57.704 60.5109L61.5254 68.1795C61.5935 68.3155 61.698 68.43 61.8274 68.51C61.9568 68.5901 62.1058 68.6326 62.258 68.6328H62.2591C62.4112 68.6328 62.5604 68.5905 62.6899 68.5106C62.8194 68.4306 62.9241 68.3163 62.9923 68.1803L66.8341 60.5213C66.8914 60.4079 66.9214 60.2826 66.9217 60.1556L66.9729 36.6423C66.9733 35.4095 66.484 34.227 65.6127 33.355C64.7413 32.4829 63.5592 31.9927 62.3265 31.9922ZM59.2994 41.2297L61.4977 41.2326L61.4508 59.3271L59.2597 59.3242L59.2994 41.2297ZM62.2614 65.978L59.7637 60.9655L64.7721 60.9721L62.2614 65.978ZM65.2819 59.3321L63.0914 59.3292L63.1383 41.2348L65.3213 41.2377L65.2819 59.3321ZM65.3248 39.5989L59.3029 39.5901L59.3095 36.6324C59.3117 35.8356 59.63 35.0722 60.1945 34.5098C60.759 33.9474 61.5236 33.632 62.3204 33.6328H62.3243C62.7191 33.6316 63.1103 33.7083 63.4754 33.8587C63.8405 34.0091 64.1723 34.2301 64.4517 34.5091C64.7311 34.7881 64.9526 35.1195 65.1036 35.4844C65.2545 35.8492 65.3319 36.2403 65.3313 36.6352L65.3248 39.5989Z" fill="#284268"/>
<path d="M49.3348 14.082H49.2188V11.7701C49.215 11.6586 49.1891 11.549 49.1425 11.4476C49.096 11.3463 49.0297 11.2552 48.9476 11.1796L38.9992 1.59701C38.8423 1.44936 38.635 1.36716 38.4196 1.36719H8.16211C6.79852 1.36815 5.4908 1.90903 4.52491 2.87154C3.55902 3.83404 3.01356 5.13986 3.00781 6.50344V58.5386C3.01218 59.9059 3.55605 61.2163 4.52121 62.1848C5.48637 63.1533 6.79481 63.7018 8.16211 63.7109H9.9601C10.0116 65.0361 10.5753 66.2897 11.5324 67.2077C12.4896 68.1257 13.7655 68.6366 15.0917 68.6328H49.3348C50.0061 68.6309 50.6704 68.4963 51.2895 68.2368C51.9086 67.9773 52.4703 67.598 52.9423 67.1207C53.4143 66.6434 53.7874 66.0775 54.0399 65.4555C54.2925 64.8336 54.4197 64.1678 54.4141 63.4966V19.1872C54.4191 18.5176 54.2913 17.8536 54.0382 17.2336C53.785 16.6137 53.4115 16.05 52.9392 15.5753C52.4669 15.1006 51.9051 14.7242 51.2865 14.4679C50.6678 14.2116 50.0045 14.0804 49.3348 14.082ZM39.2383 4.11797L46.3483 10.9375H39.2383V4.11797ZM8.16211 62.0703C7.22975 62.0617 6.33829 61.6862 5.68069 61.0252C5.02308 60.3642 4.65224 59.4708 4.64844 58.5385V6.50344C4.65364 5.57482 5.02607 4.68598 5.6844 4.03103C6.34273 3.37608 7.23348 3.00823 8.16211 3.00781H37.5977V11.7924C37.5986 11.8984 37.6207 12.0032 37.6628 12.1005C37.7049 12.1978 37.766 12.2856 37.8427 12.3589C37.9193 12.4321 38.0098 12.4893 38.1089 12.5269C38.208 12.5646 38.3137 12.582 38.4196 12.5781H47.5781V58.5385C47.5693 59.4732 47.1938 60.3671 46.5324 61.0276C45.871 61.6882 44.9766 62.0626 44.0419 62.0703H8.16211ZM52.7734 63.4966C52.7793 63.9524 52.6948 64.405 52.5247 64.828C52.3547 65.251 52.1026 65.6362 51.7828 65.9612C51.4631 66.2862 51.0822 66.5447 50.662 66.7216C50.2418 66.8986 49.7907 66.9905 49.3348 66.9922H15.0917C14.2029 66.9874 13.349 66.6463 12.7014 66.0376C12.0538 65.4289 11.6605 64.5977 11.6007 63.7109H44.0419C45.4116 63.7028 46.723 63.1553 47.6919 62.1872C48.6609 61.2191 49.2094 59.9082 49.2188 58.5385V15.7227H49.3348C49.7891 15.7208 50.2392 15.8094 50.6589 15.9831C51.0786 16.1569 51.4596 16.4125 51.7796 16.7349C52.0996 17.0573 52.3523 17.4402 52.5229 17.8612C52.6935 18.2822 52.7787 18.733 52.7734 19.1872V63.4966Z" fill="#284268"/>
<path d="M12.6719 42.6562C12.4543 42.6562 12.2457 42.7427 12.0918 42.8965C11.938 43.0504 11.8516 43.259 11.8516 43.4766C11.8516 43.6941 11.938 43.9028 12.0918 44.0566C12.2457 44.2105 12.4543 44.2969 12.6719 44.2969H29.7558C29.9734 44.2969 30.182 44.2105 30.3359 44.0566C30.4897 43.9028 30.5762 43.6941 30.5762 43.4766C30.5762 43.259 30.4897 43.0504 30.3359 42.8965C30.182 42.7427 29.9734 42.6562 29.7558 42.6562H12.6719Z" fill="#284268"/>
<path d="M39.5471 47.8516H12.6719C12.4543 47.8516 12.2457 47.938 12.0918 48.0918C11.938 48.2457 11.8516 48.4543 11.8516 48.6719C11.8516 48.8894 11.938 49.0981 12.0918 49.2519C12.2457 49.4058 12.4543 49.4922 12.6719 49.4922H39.5471C39.7647 49.4922 39.9733 49.4058 40.1271 49.2519C40.281 49.0981 40.3674 48.8894 40.3674 48.6719C40.3674 48.4543 40.281 48.2457 40.1271 48.0918C39.9733 47.938 39.7647 47.8516 39.5471 47.8516Z" fill="#284268"/>
<path d="M35.6903 52.9102H12.6719C12.4543 52.9102 12.2457 52.9966 12.0918 53.1504C11.938 53.3043 11.8516 53.5129 11.8516 53.7305C11.8516 53.948 11.938 54.1567 12.0918 54.3105C12.2457 54.4644 12.4543 54.5508 12.6719 54.5508H35.6903C35.9078 54.5508 36.1165 54.4644 36.2703 54.3105C36.4241 54.1567 36.5106 53.948 36.5106 53.7305C36.5106 53.5129 36.4241 53.3043 36.2703 53.1504C36.1165 52.9966 35.9078 52.9102 35.6903 52.9102Z" fill="#284268"/>
<path d="M24.0768 37.5705C25.9586 37.5707 27.8188 37.169 29.5328 36.3922C31.2468 35.6154 32.7751 34.4815 34.0155 33.0663C35.2558 31.651 36.1796 29.9872 36.7249 28.1862C37.2703 26.3851 37.4246 24.4883 37.1776 22.6227C36.9306 20.7572 36.288 18.9659 35.2928 17.3688C34.2975 15.7717 32.9726 14.4056 31.4067 13.3619C29.8408 12.3183 28.0701 11.6211 26.213 11.3171C24.3559 11.0131 22.4552 11.1093 20.6383 11.5992L20.1971 10.2754C20.1426 10.1121 20.0381 9.9701 19.8984 9.8695C19.7587 9.7689 19.5909 9.71479 19.4188 9.71484C16.7114 9.71524 14.115 10.791 12.2007 12.7056C10.2864 14.6201 9.21097 17.2166 9.21094 19.924C9.21089 20.0962 9.26499 20.264 9.3656 20.4037C9.4662 20.5434 9.6082 20.6479 9.77148 20.7024L11.2471 21.1946C10.7674 23.1407 10.7367 25.1704 11.1573 27.1301C11.578 29.0899 12.439 30.9282 13.6751 32.506C14.9112 34.0838 16.4901 35.3597 18.2922 36.2371C20.0943 37.1146 22.0724 37.5705 24.0768 37.5705ZM24.0768 12.7842C26.4785 12.7848 28.8205 13.5328 30.7779 14.9245C32.7353 16.3161 34.2111 18.2825 35.0006 20.5507C35.7901 22.8189 35.8542 25.2766 35.1839 27.5829C34.5136 29.8892 33.1423 31.9297 31.26 33.4214C29.3778 34.9132 27.078 35.7822 24.6796 35.908C22.2812 36.0337 19.9031 35.41 17.8751 34.1232C15.8472 32.8365 14.27 30.9506 13.3622 28.727C12.4544 26.5035 12.2611 24.0526 12.8091 21.7142L23.8539 25.3951C23.9985 25.4433 24.1535 25.4503 24.3018 25.4152C24.4501 25.3802 24.5857 25.3046 24.6934 25.1969C24.8011 25.0892 24.8767 24.9536 24.9117 24.8053C24.9467 24.657 24.9397 24.5019 24.8915 24.3574L21.158 13.1582C22.111 12.9098 23.0919 12.7841 24.0768 12.7845V12.7842ZM10.8706 19.3393C11.0123 17.2739 11.8968 15.3296 13.3606 13.8656C14.8245 12.4017 16.7688 11.517 18.8342 11.3752L22.8162 23.3205L10.8706 19.3393Z" fill="#284268"/>
<path d="M7.38281 5.54688C7.16525 5.54688 6.9566 5.6333 6.80276 5.78714C6.64893 5.94098 6.5625 6.14963 6.5625 6.36719V6.95508C6.5625 7.17264 6.64893 7.38129 6.80276 7.53513C6.9566 7.68897 7.16525 7.77539 7.38281 7.77539C7.60037 7.77539 7.80902 7.68897 7.96286 7.53513C8.1167 7.38129 8.20312 7.17264 8.20312 6.95508V6.36719C8.20312 6.14963 8.1167 5.94098 7.96286 5.78714C7.80902 5.6333 7.60037 5.54688 7.38281 5.54688Z" fill="#284268"/>
<path d="M7.38281 9.00781C7.16525 9.00781 6.9566 9.09424 6.80276 9.24808C6.64893 9.40192 6.5625 9.61056 6.5625 9.82812V19.6719C6.5625 19.8894 6.64893 20.0981 6.80276 20.2519C6.9566 20.4058 7.16525 20.4922 7.38281 20.4922C7.60037 20.4922 7.80902 20.4058 7.96286 20.2519C8.1167 20.0981 8.20312 19.8894 8.20312 19.6719V9.82812C8.20312 9.61056 8.1167 9.40192 7.96286 9.24808C7.80902 9.09424 7.60037 9.00781 7.38281 9.00781Z" fill="#284268"/>
</svg>
