<svg width="70" height="70" viewBox="0 0 70 70" fill="none" xmlns="http://www.w3.org/2000/svg">
<path d="M25.0924 38.9292C24.9204 38.9292 24.7459 38.9106 24.5711 38.8717C13.3496 36.3779 8.54918 29.2419 6.49807 23.6945C4.31434 17.7883 4.7562 12.4849 4.77616 12.2619C4.88621 11.028 5.92018 10.082 7.15922 10.082H18.9932C20.4228 10.082 21.5776 11.2533 21.4576 12.678C21.3543 13.9041 20.3264 14.867 19.0735 14.867H10.5641C10.0049 14.867 9.56825 15.3477 9.6202 15.9045C9.78084 17.6266 10.1651 19.8679 11.0443 22.1905C13.4501 28.5469 18.3505 32.5876 25.6093 34.2006C26.8992 34.4873 27.7125 35.7653 27.4258 37.0552C27.1779 38.1701 26.1891 38.929 25.0924 38.9292Z" fill="#FE9738"/>
<path d="M44.8987 38.9292C45.0707 38.9292 45.2452 38.9106 45.42 38.8717C56.6416 36.3781 61.4421 29.2419 63.493 23.6945C65.6768 17.7883 65.2349 12.4849 65.2149 12.2619C65.1049 11.028 64.0709 10.082 62.8319 10.082H50.9979C49.5683 10.082 48.4135 11.2533 48.5335 12.678C48.6368 13.9041 49.6647 14.867 50.9176 14.867H59.427C59.9862 14.867 60.4229 15.3477 60.3709 15.9045C60.2103 17.6266 59.826 19.8679 58.9468 22.1905C56.541 28.5469 51.6406 32.5876 44.3818 34.2006C43.0919 34.4873 42.2786 35.7653 42.5653 37.0552C42.8133 38.1701 43.8022 38.929 44.8987 38.9292Z" fill="#FE9738"/>
<path d="M50.6673 68.9763H19.322C18.8336 68.9763 18.4375 68.5802 18.4375 68.0917V63.2752C18.4375 62.7867 18.8336 62.3906 19.322 62.3906H50.6673C51.1558 62.3906 51.5519 62.7867 51.5519 63.2752V68.0917C51.5519 68.5802 51.1558 68.9763 50.6673 68.9763Z" fill="#5A5A5A"/>
<path d="M51.5563 63.2713V68.0877C51.5563 68.5771 51.1598 68.9722 50.6718 68.9722H47.9375C48.4256 68.9722 48.822 68.5771 48.822 68.0877V63.2713C48.822 62.7832 48.4256 62.3867 47.9375 62.3867H50.6718C51.1598 62.3867 51.5563 62.7832 51.5563 63.2713Z" fill="#444444"/>
<path d="M45.9172 62.3903H24.0859V59.2171C24.0859 57.3325 25.6137 55.8047 27.4983 55.8047H42.5048C44.3894 55.8047 45.9172 57.3325 45.9172 59.2171V62.3903Z" fill="#9C9C9C"/>
<path d="M45.914 59.2171V62.3902H43.2249V59.2171C43.2249 57.3331 41.6964 55.8047 39.8125 55.8047H42.5017C44.3869 55.8047 45.914 57.3331 45.914 59.2171Z" fill="#838383"/>
<path d="M39.4387 43.0995L40.9661 40.5781H29.0312L30.5586 43.0995C31.6247 44.8593 32.1979 46.9704 32.1979 49.136C32.1979 50.4588 31.9839 51.7695 31.5673 52.9971L30.6145 55.805H39.3825L38.4298 52.9971C38.0132 51.7695 37.7991 50.4588 37.7991 49.136C37.7994 46.9704 38.3726 44.8593 39.4387 43.0995Z" fill="#FE9738"/>
<path d="M38.2161 45.9621C37.9399 46.9806 37.7964 48.0497 37.7964 49.1325C37.7964 50.4559 38.0097 51.7656 38.4266 52.9933L39.3795 55.8014H36.5988L35.6459 52.9933C35.2303 51.7656 35.0156 50.4559 35.0156 49.1325C35.0156 48.0497 35.1592 46.9806 35.4353 45.9621C35.7129 44.9436 36.1216 43.977 36.6548 43.0966L38.1833 40.5742H40.9627L39.4356 43.0966C38.9024 43.977 38.4923 44.9436 38.2161 45.9621Z" fill="#FE860A"/>
<path d="M35.0014 42.6709C25.0767 42.6709 17.0312 34.6254 17.0312 24.7007V6.73047H52.9716V24.7007C52.9716 34.6253 44.9262 42.6709 35.0014 42.6709Z" fill="#FAC600"/>
<path d="M52.9651 6.72656V24.6976C52.9651 34.6216 44.9195 42.6672 34.9955 42.6672C34.4841 42.6672 33.9769 42.6453 33.4766 42.6043C42.6911 41.8333 49.9287 34.1103 49.9287 24.6976V6.72656H52.9651Z" fill="#E8B800"/>
<path d="M54.1623 6.727H15.827C15.1286 6.727 14.5625 6.16086 14.5625 5.46253V2.2879C14.5625 1.58957 15.1286 1.02344 15.827 1.02344H54.1623C54.8606 1.02344 55.4268 1.58957 55.4268 2.2879V5.46253C55.4269 6.16086 54.8608 6.727 54.1623 6.727Z" fill="#FE9738"/>
<path d="M55.4289 2.28804V5.46253C55.4289 6.16114 54.863 6.72713 54.1643 6.72713H51.2578C51.9564 6.72713 52.5224 6.16114 52.5224 5.46253V2.28804C52.5224 1.5908 51.9564 1.02344 51.2578 1.02344H54.1643C54.863 1.02344 55.4289 1.5908 55.4289 2.28804Z" fill="#FE860A"/>
<path d="M36.2704 17.0602L37.5853 19.7245C37.7919 20.1431 38.1914 20.4333 38.6534 20.5004L41.5937 20.9277C42.7571 21.0968 43.2216 22.5264 42.3798 23.3471L40.2522 25.421C39.9179 25.747 39.7654 26.2164 39.8443 26.6765L40.3465 29.6049C40.5453 30.7637 39.3291 31.6473 38.2885 31.1001L35.6586 29.7175C35.2454 29.5003 34.7518 29.5003 34.3385 29.7175L31.7087 31.1001C30.668 31.6473 29.4518 30.7635 29.6506 29.6049L30.1529 26.6765C30.2318 26.2163 30.0792 25.7468 29.745 25.421L27.6174 23.3471C26.7755 22.5265 27.2401 21.0968 28.4035 20.9277L31.3438 20.5004C31.8058 20.4333 32.2053 20.1432 32.4118 19.7245L33.7267 17.0602C34.2468 16.006 35.7501 16.006 36.2704 17.0602Z" fill="#F9F7F8"/>
<path d="M40.2497 25.424C39.9147 25.7494 39.763 26.2197 39.8409 26.6791L40.344 29.6075C40.5422 30.7668 39.3268 31.65 38.2851 31.1031L37.2037 30.5344C37.4361 30.1981 37.5482 29.7702 37.4689 29.3053L36.8756 25.8451C36.7826 25.3024 36.9631 24.7473 37.3582 24.3618L39.8723 21.9119C40.2114 21.581 40.3713 21.1654 40.3795 20.7539L41.5908 20.9303C42.7543 21.0998 43.2191 22.5298 42.3769 23.3501L40.2497 25.424Z" fill="#EFEDEF"/>
<path d="M66.2402 12.1716C66.0819 10.3963 64.6183 9.05742 62.8359 9.05742H53.9932V7.75426H54.1654C55.428 7.75426 56.4553 6.727 56.4553 5.46445V2.28982C56.4553 1.02727 55.428 0 54.1654 0H28.1392C27.5729 0 27.1138 0.458948 27.1138 1.02535C27.1138 1.59176 27.5729 2.0507 28.1392 2.0507H54.1654C54.2973 2.0507 54.4046 2.15789 54.4046 2.28982V5.46445C54.4046 5.59637 54.2973 5.70356 54.1654 5.70356H15.83C15.6981 5.70356 15.5908 5.59637 15.5908 5.46445V2.28982C15.5908 2.15789 15.6981 2.0507 15.83 2.0507H23.3316C23.8979 2.0507 24.357 1.59176 24.357 1.02535C24.357 0.458948 23.8979 0 23.3316 0H15.83C14.5673 0 13.5401 1.02727 13.5401 2.28982V5.46445C13.5401 6.727 14.5673 7.75426 15.83 7.75426H16.0021V9.05742H7.1595C5.37703 9.05742 3.91351 10.3963 3.75519 12.1716C3.73441 12.4038 3.27369 17.9301 5.53671 24.0508C7.60724 29.6509 12.3575 36.8013 23.2413 39.6075C24.9934 40.9918 26.9941 42.0751 29.1647 42.7772L29.6808 43.629C30.6562 45.2394 31.1718 47.1431 31.1718 49.1343C31.1718 50.3507 30.9779 51.539 30.5956 52.6659L29.879 54.7779H27.4946C25.0477 54.7779 23.0568 56.7687 23.0568 59.2157V61.3637H19.3251C18.272 61.3637 17.4152 62.2206 17.4152 63.2737V68.0901C17.4152 69.1432 18.272 70 19.3251 70H50.6704C51.7235 70 52.5803 69.1432 52.5803 68.0901V63.2737C52.5803 62.2206 51.7235 61.3637 50.6704 61.3637H46.9387V59.2157C46.9387 56.7687 44.9478 54.7779 42.5009 54.7779H40.1165L39.3999 52.6659C39.0175 51.5391 38.8236 50.3508 38.8236 49.1343C38.8236 47.1432 39.3392 45.2395 40.3146 43.629L40.8307 42.7772C43.0013 42.0751 45.0018 40.992 46.7541 39.6075C57.6379 36.8013 62.3881 29.6509 64.4587 24.0508C66.7217 17.9301 66.261 12.4039 66.2402 12.1716ZM16.3818 28.4848C14.47 26.695 13.0054 24.4746 12.0037 21.8283C11.3077 19.9895 10.8521 17.993 10.6494 15.8931H16.0021V24.6991C16.0021 25.9951 16.1332 27.2611 16.3818 28.4848ZM7.46027 23.3398C5.35556 17.6473 5.77883 12.5673 5.79783 12.3539C5.86113 11.6438 6.44654 11.1083 7.1595 11.1083H16.0021V13.8425H10.5645C10.0105 13.8425 9.47898 14.0773 9.10603 14.4866C8.73266 14.8965 8.5481 15.4482 8.59964 16.0006C8.81551 18.3142 9.31547 20.5192 10.0857 22.5543C11.6069 26.5734 14.0693 29.7117 17.4398 31.9459C18.103 33.5465 18.9789 35.0375 20.0325 36.3835C12.6037 33.3043 9.10507 27.7881 7.46027 23.3398ZM50.5296 63.4144V67.9493H19.4658V63.4144H50.5296ZM42.5009 56.8286C43.8171 56.8286 44.888 57.8995 44.888 59.2157V61.3637H25.1075V59.2157C25.1075 57.8995 26.1784 56.8286 27.4946 56.8286H42.5009ZM37.458 53.3249L37.951 54.7779H32.0443L32.5374 53.3248C32.9918 51.9851 33.2223 50.5753 33.2223 49.1343C33.2223 47.1174 32.7716 45.1702 31.9144 43.4431C32.9183 43.6077 33.9479 43.6946 34.9977 43.6946C36.0474 43.6946 37.0771 43.6077 38.0809 43.4431C37.2237 45.1702 36.7729 47.1174 36.7729 49.1343C36.773 50.5754 37.0034 51.9852 37.458 53.3249ZM34.9977 41.6438C25.6543 41.6438 18.0528 34.0424 18.0528 24.6991V7.75426H51.9425V24.6991C51.9425 34.0425 44.3411 41.6438 34.9977 41.6438ZM62.5352 23.3398C60.8904 27.7883 57.3917 33.305 49.9625 36.3842C51.0179 35.0357 51.8952 33.5419 52.559 31.938C55.4531 30.0162 57.6819 27.4279 59.2166 24.187C59.459 23.6753 59.2406 23.0637 58.7289 22.8215C58.2173 22.5792 57.6059 22.7974 57.3634 23.3093C56.4132 25.3158 55.1601 27.0446 53.6128 28.4911C53.8621 27.2655 53.9935 25.9975 53.9935 24.6992V15.8932H59.3463C59.2443 16.9483 59.0747 17.9945 58.8422 19.0046C58.7152 19.5565 59.0596 20.1069 59.6115 20.2338C60.1628 20.3615 60.7137 20.0165 60.8407 19.4646C61.0996 18.3396 61.2864 17.1741 61.396 16.0006C61.4475 15.4482 61.263 14.8965 60.8896 14.4866C60.5167 14.0773 59.9851 13.8425 59.4312 13.8425H53.9935V11.1083H62.8361C63.5491 11.1083 64.1345 11.6438 64.1978 12.354C64.2165 12.5673 64.6398 17.6473 62.5352 23.3398Z" fill="black"/>
<path d="M41.7432 19.9149L38.803 19.4876C38.6749 19.4689 38.5643 19.3885 38.507 19.2726L37.1921 16.6083C36.7775 15.7681 35.9378 15.2461 35.0007 15.2461C34.0637 15.2461 33.224 15.7681 32.8093 16.6083L31.4944 19.2726C31.4371 19.3887 31.3265 19.469 31.1984 19.4876L28.2583 19.9149C27.3309 20.0495 26.5751 20.6868 26.2855 21.578C25.9959 22.4692 26.2329 23.4291 26.9039 24.0833L29.0314 26.1569C29.1241 26.2473 29.1663 26.3773 29.1445 26.505L28.6422 29.4334C28.4837 30.3569 28.8563 31.2726 29.6143 31.8234C30.3723 32.374 31.3585 32.4455 32.1881 32.0095L34.8178 30.6269C34.9324 30.5666 35.0691 30.5666 35.1836 30.6269L37.8135 32.0095C38.1743 32.1991 38.5646 32.2928 38.9528 32.2928C39.4574 32.2928 39.9588 32.1346 40.3871 31.8233C41.1452 31.2725 41.5177 30.3566 41.3593 29.4333L40.857 26.5049C40.8351 26.3772 40.8774 26.2472 40.9701 26.1569L43.0977 24.083C43.7687 23.429 44.0056 22.4689 43.7161 21.5778C43.4265 20.6868 42.6704 20.0495 41.7432 19.9149ZM41.6662 22.6147L39.5385 24.6886C38.9625 25.2501 38.6998 26.0586 38.8357 26.8516L39.338 29.78C39.3739 29.9896 39.2554 30.1108 39.1816 30.1646C39.1079 30.2183 38.9558 30.2938 38.7676 30.1945L36.1378 28.8119C35.7818 28.6248 35.3912 28.5311 35.0006 28.5311C34.61 28.5311 34.2194 28.6248 33.8634 28.8119L31.2337 30.1945C31.0456 30.2936 30.8936 30.2182 30.8196 30.1646C30.7458 30.1108 30.6274 29.9897 30.6632 29.78L31.1655 26.8516C31.3015 26.0586 31.0388 25.2501 30.4626 24.6885L28.3351 22.6148C28.1828 22.4664 28.2073 22.2986 28.2356 22.2118C28.2637 22.125 28.3425 21.9749 28.5529 21.9442L31.4931 21.517C32.2893 21.4012 32.9771 20.9015 33.3331 20.1802L34.648 17.516C34.7421 17.3252 34.9093 17.2968 35.0004 17.2968C35.0916 17.2968 35.2588 17.3252 35.3529 17.516L36.6678 20.1802C37.0238 20.9015 37.7116 21.4014 38.5078 21.517L41.4481 21.9442C41.6585 21.9749 41.7373 22.125 41.7655 22.2118C41.7939 22.2986 41.8184 22.4664 41.6662 22.6147Z" fill="black"/>
</svg>
