<svg width="24" height="24" viewBox="0 0 24 24" fill="none" xmlns="http://www.w3.org/2000/svg">
<g clip-path="url(#clip0_0_7694)">
<path d="M12.0006 1.71484C6.32879 1.71484 1.71484 6.32879 1.71484 12.0006C1.71484 17.6723 6.32879 22.2863 12.0006 22.2863C17.6723 22.2863 22.2863 17.6723 22.2863 12.0006C22.2863 6.32879 17.6723 1.71484 12.0006 1.71484Z" fill="#CAFAAA"/>
<path d="M17.2131 9.82275L11.6416 15.3941C11.4745 15.5612 11.2551 15.6454 11.0356 15.6454C10.8162 15.6454 10.5968 15.5612 10.4297 15.3941L7.64401 12.6084C7.30877 12.2733 7.30877 11.7315 7.64401 11.3965C7.97909 11.0612 8.52072 11.0612 8.85596 11.3965L11.0356 13.5762L16.0012 8.6108C16.3362 8.27557 16.8779 8.27557 17.2131 8.6108C17.5482 8.94589 17.5482 9.48751 17.2131 9.82275Z" fill="#0C0D0F"/>
</g>
<defs>
<clipPath id="clip0_0_7694">
<rect width="20.5714" height="20.5714" fill="white" transform="translate(1.71484 1.71484)"/>
</clipPath>
</defs>
</svg>
