<svg width="57" height="57" viewBox="0 0 57 57" fill="none" xmlns="http://www.w3.org/2000/svg">
<g clip-path="url(#clip0_0_1675)">
<path d="M38.5723 33.8702C38.4501 33.4895 38.5852 33.0748 38.9087 32.8385L46.1394 27.5515C47.2906 26.7098 47.7495 25.2916 47.3081 23.9384C46.867 22.585 45.6594 21.7063 44.2317 21.6998L35.2638 21.6584C34.8626 21.6565 34.5086 21.4003 34.3831 21.0208L31.5723 12.5332C31.1248 11.1819 29.9133 10.309 28.4856 10.3088C27.0579 10.3088 25.8462 11.1819 25.3987 12.533L24.1317 16.3572C23.931 16.963 24.261 17.6166 24.8691 17.8165C25.4771 18.0169 26.1325 17.6876 26.3335 17.0816L27.6004 13.2574C27.7964 12.6657 28.3273 12.6196 28.4856 12.6196C28.6436 12.6196 29.1746 12.6657 29.3705 13.2574L32.1813 21.7452C32.6199 23.0691 33.8542 23.9628 35.2529 23.9694L44.2209 24.0108C44.8461 24.0137 45.0542 24.5028 45.1029 24.6526C45.1518 24.8024 45.272 25.3199 44.7679 25.6884L37.537 30.9754C36.4092 31.8001 35.9377 33.2463 36.3638 34.5743L39.0965 43.09C39.287 43.6837 38.8845 44.032 38.7566 44.1245C38.6287 44.2171 38.1721 44.4911 37.6645 44.127L30.3846 38.9057C29.2488 38.0913 27.7227 38.0913 26.587 38.9057L19.3057 44.1279C18.7981 44.4919 18.3413 44.2181 18.2136 44.1256C18.0857 44.033 17.6832 43.6848 17.8735 43.0913L20.6055 34.5743C21.0315 33.2465 20.5599 31.8003 19.4322 30.9756L12.2017 25.6886C11.6976 25.3201 11.8178 24.8024 11.8667 24.6528C11.9156 24.503 12.1237 24.0139 12.7488 24.011L21.7173 23.9696C22.3574 23.9665 22.8741 23.447 22.8712 22.8088C22.8681 22.1725 22.3497 21.6588 21.7119 21.6588C21.7101 21.6588 21.7082 21.6588 21.7064 21.6588L12.7379 21.7002C11.3102 21.7067 10.1026 22.5854 9.66148 23.9388C9.22035 25.2921 9.67906 26.7104 10.8301 27.5521L18.0606 32.8391C18.3838 33.0755 18.5191 33.4901 18.397 33.8708L15.6652 42.3879C15.2305 43.7432 15.6959 45.1593 16.851 45.9955C17.4307 46.4151 18.0957 46.625 18.7612 46.625C19.4218 46.625 20.0828 46.4179 20.6603 46.0039L27.9415 40.7817C28.267 40.5481 28.7047 40.5481 29.0303 40.7817L36.3102 46.003C37.4692 46.8341 38.9643 46.831 40.1196 45.9945C41.2748 45.1582 41.7401 43.742 41.3052 42.3866L38.5723 33.8702Z" fill="#FB4A5E"/>
<path d="M28.4847 0.0771484C12.7782 0.0771484 0 12.8122 0 28.4657C0 44.1191 12.7782 56.8542 28.4847 56.8542C29.1249 56.8542 29.6441 56.3367 29.6441 55.6988C29.6441 55.0608 29.1249 54.5433 28.4847 54.5433C14.0568 54.5435 2.31864 42.8451 2.31864 28.4657C2.31864 14.0862 14.0568 2.38796 28.4847 2.38796C42.9127 2.38796 54.6508 14.0864 54.6508 28.4657C54.6508 37.4162 50.1256 45.6392 42.5456 50.4623C42.0059 50.8056 41.8477 51.52 42.1922 52.0579C42.5367 52.5957 43.2533 52.7534 43.7932 52.4101C52.0437 47.1603 56.9695 38.2092 56.9695 28.4658C56.9697 12.8122 44.1914 0.0771484 28.4847 0.0771484Z" fill="black"/>
</g>
<defs>
<clipPath id="clip0_0_1675">
<rect width="57" height="57" fill="white"/>
</clipPath>
</defs>
</svg>
