<svg width="58" height="57" viewBox="0 0 58 57" fill="none" xmlns="http://www.w3.org/2000/svg">
<path d="M53.045 3.67027C51.7892 1.40541 49.4023 0 46.8124 0H11.1874C8.59746 0 6.21059 1.40541 4.95481 3.67027C3.70081 5.93512 3.77206 8.70452 5.14629 10.8995L10.3141 19.1689C11.1197 18.2538 11.9805 17.3912 12.9112 16.6012L8.16596 9.01045C7.48062 7.91454 7.4441 6.53006 8.07021 5.39941C8.6981 4.2652 9.89332 3.5625 11.1874 3.5625H46.8124C48.1065 3.5625 49.3017 4.2652 49.9278 5.39585C50.5557 6.53006 50.5192 7.91454 49.8321 9.01045L45.0868 16.6017C46.0175 17.3912 46.8801 18.2542 47.6857 19.1694L52.8535 10.8999C54.2277 8.70452 54.2994 5.93512 53.045 3.67027Z" fill="#F44336"/>
<path d="M29 24.9375C34.8933 24.9375 39.6875 29.7317 39.6875 35.625C39.6875 41.5183 34.8933 46.3125 29 46.3125C23.1067 46.3125 18.3125 41.5183 18.3125 35.625C18.3125 29.7317 23.1067 24.9375 29 24.9375ZM29 21.375C21.1304 21.375 14.75 27.7554 14.75 35.625C14.75 43.4946 21.1304 49.875 29 49.875C36.8696 49.875 43.25 43.4946 43.25 35.625C43.25 27.7554 36.8696 21.375 29 21.375Z" fill="#FFC107"/>
<path d="M29 17.8125C38.8214 17.8125 46.8125 25.8036 46.8125 35.625C46.8125 45.4464 38.8214 53.4375 29 53.4375C19.1786 53.4375 11.1875 45.4464 11.1875 35.625C11.1875 25.8036 19.1786 17.8125 29 17.8125ZM29 14.25C17.1957 14.25 7.625 23.8207 7.625 35.625C7.625 47.4293 17.1957 57 29 57C40.8043 57 50.375 47.4293 50.375 35.625C50.375 23.8207 40.8043 14.25 29 14.25Z" fill="#FFA726"/>
</svg>
