<svg width="70" height="70" viewBox="0 0 70 70" fill="none" xmlns="http://www.w3.org/2000/svg">
<path d="M34.9999 15.5498C35.9136 15.5498 36.8069 15.2789 37.5666 14.7712C38.3264 14.2636 38.9185 13.542 39.2682 12.6978C39.6179 11.8536 39.7094 10.9247 39.5311 10.0285C39.3528 9.13231 38.9128 8.3091 38.2667 7.66298C37.6206 7.01686 36.7974 6.57685 35.9012 6.39859C35.005 6.22032 34.0761 6.31182 33.2319 6.66149C32.3877 7.01117 31.6661 7.60333 31.1585 8.36308C30.6508 9.12284 30.3799 10.0161 30.3799 10.9298C30.3825 12.1543 30.8701 13.3279 31.7359 14.1938C32.6018 15.0596 33.7754 15.5472 34.9999 15.5498Z" fill="#231F20"/>
<path d="M35.0003 7.69995C35.6371 7.69995 36.2597 7.8888 36.7892 8.24262C37.3187 8.59644 37.7315 9.09933 37.9752 9.68771C38.2189 10.2761 38.2826 10.9235 38.1584 11.5481C38.0342 12.1728 37.7275 12.7465 37.2772 13.1968C36.8268 13.6472 36.2531 13.9538 35.6285 14.0781C35.0038 14.2023 34.3564 14.1386 33.768 13.8948C33.1797 13.6511 32.6768 13.2384 32.3229 12.7089C31.9691 12.1794 31.7803 11.5568 31.7803 10.92C31.7825 10.0666 32.1225 9.2489 32.7258 8.64552C33.3292 8.04213 34.147 7.70217 35.0003 7.69995Z" fill="#00A1D3"/>
<path d="M32.5118 30.38H37.4874C38.5464 30.3789 39.5617 29.9577 40.3105 29.2089C41.0593 28.4601 41.4805 27.4448 41.4816 26.3858V23.2022C41.4816 21.4831 40.7987 19.8344 39.583 18.6187C38.3674 17.4031 36.7187 16.7202 34.9996 16.7202C33.2804 16.7202 31.6317 17.4031 30.4161 18.6187C29.2005 19.8344 28.5176 21.4831 28.5176 23.2022V26.3914C28.5202 27.4494 28.942 28.4633 29.6907 29.2109C30.4393 29.9585 31.4538 30.3789 32.5118 30.38Z" fill="#231F20"/>
<path d="M29.918 23.2021C29.918 21.8543 30.4534 20.5617 31.4065 19.6086C32.3595 18.6555 33.6521 18.1201 35 18.1201C36.3478 18.1201 37.6404 18.6555 38.5935 19.6086C39.5465 20.5617 40.082 21.8543 40.082 23.2021V26.3913C40.0797 27.0781 39.8055 27.7361 39.3194 28.2213C38.8332 28.7064 38.1746 28.9792 37.4878 28.9799H32.5122C31.8244 28.9792 31.165 28.7056 30.6786 28.2193C30.1923 27.7329 29.9187 27.0735 29.918 26.3857V23.2021Z" fill="#00A1D3"/>
<path d="M34.9996 63.7C38.4225 63.7 41.1974 60.9252 41.1974 57.5022C41.1974 54.0793 38.4225 51.3044 34.9996 51.3044C31.5766 51.3044 28.8018 54.0793 28.8018 57.5022C28.8018 60.9252 31.5766 63.7 34.9996 63.7Z" fill="#231F20"/>
<path d="M34.9999 62.2999C37.6497 62.2999 39.7977 60.1519 39.7977 57.5021C39.7977 54.8524 37.6497 52.7043 34.9999 52.7043C32.3502 52.7043 30.2021 54.8524 30.2021 57.5021C30.2021 60.1519 32.3502 62.2999 34.9999 62.2999Z" fill="#FFBA50"/>
<path d="M57.5025 63.7C60.9254 63.7 63.7003 60.9252 63.7003 57.5022C63.7003 54.0793 60.9254 51.3044 57.5025 51.3044C54.0795 51.3044 51.3047 54.0793 51.3047 57.5022C51.3047 60.9252 54.0795 63.7 57.5025 63.7Z" fill="#231F20"/>
<path d="M57.5019 62.2999C60.1517 62.2999 62.2997 60.1519 62.2997 57.5021C62.2997 54.8524 60.1517 52.7043 57.5019 52.7043C54.8522 52.7043 52.7041 54.8524 52.7041 57.5021C52.7041 60.1519 54.8522 62.2999 57.5019 62.2999Z" fill="#7CC05B"/>
<path d="M12.4976 63.7C15.9206 63.7 18.6954 60.9252 18.6954 57.5022C18.6954 54.0793 15.9206 51.3044 12.4976 51.3044C9.07465 51.3044 6.2998 54.0793 6.2998 57.5022C6.2998 60.9252 9.07465 63.7 12.4976 63.7Z" fill="#231F20"/>
<path d="M12.498 62.2999C15.1477 62.2999 17.2958 60.1519 17.2958 57.5021C17.2958 54.8524 15.1477 52.7043 12.498 52.7043C9.84824 52.7043 7.7002 54.8524 7.7002 57.5021C7.7002 60.1519 9.84824 62.2999 12.498 62.2999Z" fill="#D12200"/>
<path d="M12.4979 50.2879C12.6835 50.2879 12.8616 50.2142 12.9928 50.0829C13.1241 49.9516 13.1979 49.7736 13.1979 49.5879V45.3599C13.1993 44.1574 13.6777 43.0045 14.5281 42.1541C15.3784 41.3038 16.5313 40.8254 17.7339 40.8239H34.3001V49.5879C34.3001 49.7736 34.3738 49.9516 34.5051 50.0829C34.6364 50.2142 34.8144 50.2879 35.0001 50.2879C35.1857 50.2879 35.3638 50.2142 35.495 50.0829C35.6263 49.9516 35.7001 49.7736 35.7001 49.5879V40.8183H52.2663C53.4688 40.8198 54.6217 41.2982 55.472 42.1485C56.3224 42.9989 56.8008 44.1518 56.8023 45.3543V49.5879C56.8023 49.7736 56.876 49.9516 57.0073 50.0829C57.1386 50.2142 57.3166 50.2879 57.5023 50.2879C57.6879 50.2879 57.8659 50.2142 57.9972 50.0829C58.1285 49.9516 58.2023 49.7736 58.2023 49.5879V45.3599C58.2004 43.7862 57.5744 42.2774 56.4616 41.1646C55.3488 40.0518 53.84 39.4258 52.2663 39.4239H35.7001V31.7715C35.7001 31.5859 35.6263 31.4078 35.495 31.2766C35.3638 31.1453 35.1857 31.0715 35.0001 31.0715C34.8144 31.0715 34.6364 31.1453 34.5051 31.2766C34.3738 31.4078 34.3001 31.5859 34.3001 31.7715V39.4183H17.7339C16.1601 39.4202 14.6513 40.0462 13.5385 41.159C12.4257 42.2718 11.7997 43.7806 11.7979 45.3543V49.5879C11.7979 49.7736 11.8716 49.9516 12.0029 50.0829C12.1342 50.2142 12.3122 50.2879 12.4979 50.2879Z" fill="#231F20"/>
</svg>
