<svg width="13" height="25" viewBox="0 0 13 25" fill="none" xmlns="http://www.w3.org/2000/svg">
<path d="M8.20052 8.35636V5.90871C8.20052 4.80374 8.43804 4.24483 10.107 4.24483H12.2009V0.133301H8.70682C4.42514 0.133301 3.01249 2.15052 3.01249 5.6132V8.35636H0.199707V12.4679H3.01249V24.8025H8.20052V12.4679H11.7259L12.2009 8.35636H8.20052ZM10.8383 11.44H8.26928H7.20042V12.4358V23.7746H4.01259V12.4358V11.44H3.08125H1.19981V9.38424H3.08125H4.01259V8.32424V5.6132C4.01259 4.03925 4.35013 2.9664 4.98144 2.28543C5.68151 1.51452 6.92539 1.16118 8.70682 1.16118H11.2008V3.21695H10.107C9.35689 3.21695 8.38804 3.28761 7.78798 3.96859C7.28168 4.54677 7.20042 5.25986 7.20042 5.90229V8.31781V9.38424H8.26928H11.0758L10.8383 11.44Z" fill="white"/>
</svg>
