<svg width="66" height="66" viewBox="0 0 66 66" fill="none" xmlns="http://www.w3.org/2000/svg">
<path d="M10.3125 47.4375H6.1875C4.82048 47.4359 3.50992 46.8921 2.54329 45.9255C1.57666 44.9588 1.03289 43.6483 1.03125 42.2812V31.9688C1.03289 30.6017 1.57666 29.2912 2.54329 28.3245C3.50992 27.3579 4.82048 26.8141 6.1875 26.8125H10.3125C10.586 26.8125 10.8483 26.9211 11.0417 27.1145C11.2351 27.3079 11.3438 27.5702 11.3438 27.8438C11.3438 28.1173 11.2351 28.3796 11.0417 28.573C10.8483 28.7664 10.586 28.875 10.3125 28.875H6.1875C5.36699 28.875 4.58008 29.2009 3.99989 29.7811C3.4197 30.3613 3.09375 31.1482 3.09375 31.9688V42.2812C3.09375 43.1018 3.4197 43.8887 3.99989 44.4689C4.58008 45.0491 5.36699 45.375 6.1875 45.375H10.3125C10.586 45.375 10.8483 45.4836 11.0417 45.677C11.2351 45.8704 11.3438 46.1327 11.3438 46.4062C11.3438 46.6798 11.2351 46.9421 11.0417 47.1355C10.8483 47.3289 10.586 47.4375 10.3125 47.4375Z" fill="#363636"/>
<path d="M10.3125 43.3125H6.1875C5.914 43.3125 5.65169 43.2039 5.4583 43.0105C5.2649 42.8171 5.15625 42.5548 5.15625 42.2812V31.9688C5.15625 31.6952 5.2649 31.4329 5.4583 31.2395C5.65169 31.0461 5.914 30.9375 6.1875 30.9375H10.3125C10.586 30.9375 10.8483 31.0461 11.0417 31.2395C11.2351 31.4329 11.3438 31.6952 11.3438 31.9688C11.3438 32.2423 11.2351 32.5046 11.0417 32.698C10.8483 32.8914 10.586 33 10.3125 33H7.21875V41.25H10.3125C10.586 41.25 10.8483 41.3586 11.0417 41.552C11.2351 41.7454 11.3438 42.0077 11.3438 42.2812C11.3438 42.5548 11.2351 42.8171 11.0417 43.0105C10.8483 43.2039 10.586 43.3125 10.3125 43.3125Z" fill="#363636"/>
<path d="M30.9375 29.9062C30.664 29.9062 30.4017 29.7976 30.2083 29.6042C30.0149 29.4108 29.9062 29.1485 29.9062 28.875V25.7812C29.9062 25.5077 30.0149 25.2454 30.2083 25.052C30.4017 24.8586 30.664 24.75 30.9375 24.75C31.211 24.75 31.4733 24.8586 31.6667 25.052C31.8601 25.2454 31.9688 25.5077 31.9688 25.7812V28.875C31.9688 29.1485 31.8601 29.4108 31.6667 29.6042C31.4733 29.7976 31.211 29.9062 30.9375 29.9062Z" fill="#363636"/>
<path d="M10.3125 29.9062C10.039 29.9062 9.77669 29.7976 9.5833 29.6042C9.3899 29.4108 9.28125 29.1485 9.28125 28.875V25.7812C9.28125 25.5077 9.3899 25.2454 9.5833 25.052C9.77669 24.8586 10.039 24.75 10.3125 24.75C10.586 24.75 10.8483 24.8586 11.0417 25.052C11.2351 25.2454 11.3438 25.5077 11.3438 25.7812V28.875C11.3438 29.1485 11.2351 29.4108 11.0417 29.6042C10.8483 29.7976 10.586 29.9062 10.3125 29.9062Z" fill="#363636"/>
<path d="M26.8125 28.875C26.8125 29.422 26.5952 29.9466 26.2084 30.3334C25.8216 30.7202 25.297 30.9375 24.75 30.9375C24.203 30.9375 23.6784 30.7202 23.2916 30.3334C22.9048 29.9466 22.6875 29.422 22.6875 28.875H9.28125V50.5312C9.28125 51.3518 9.6072 52.1387 10.1874 52.7189C10.7676 53.2991 11.5545 53.625 12.375 53.625H28.875C29.6955 53.625 30.4824 53.2991 31.0626 52.7189C31.6428 52.1387 31.9688 51.3518 31.9688 50.5312V28.875H26.8125Z" fill="#FFBD4A"/>
<path d="M26.8125 48.4688C26.539 48.4688 26.2767 48.3601 26.0833 48.1667C25.8899 47.9733 25.7812 47.711 25.7812 47.4375V35.0625C25.7812 34.789 25.8899 34.5267 26.0833 34.3333C26.2767 34.1399 26.539 34.0312 26.8125 34.0312C27.086 34.0312 27.3483 34.1399 27.5417 34.3333C27.7351 34.5267 27.8438 34.789 27.8438 35.0625V47.4375C27.8438 47.711 27.7351 47.9733 27.5417 48.1667C27.3483 48.3601 27.086 48.4688 26.8125 48.4688Z" fill="#363636"/>
<path d="M20.625 48.4688C20.3515 48.4688 20.0892 48.3601 19.8958 48.1667C19.7024 47.9733 19.5938 47.711 19.5938 47.4375V35.0625C19.5938 34.789 19.7024 34.5267 19.8958 34.3333C20.0892 34.1399 20.3515 34.0312 20.625 34.0312C20.8985 34.0312 21.1608 34.1399 21.3542 34.3333C21.5476 34.5267 21.6562 34.789 21.6562 35.0625V47.4375C21.6562 47.711 21.5476 47.9733 21.3542 48.1667C21.1608 48.3601 20.8985 48.4688 20.625 48.4688Z" fill="#363636"/>
<path d="M14.4375 48.4688C14.164 48.4688 13.9017 48.3601 13.7083 48.1667C13.5149 47.9733 13.4062 47.711 13.4062 47.4375V35.0625C13.4062 34.789 13.5149 34.5267 13.7083 34.3333C13.9017 34.1399 14.164 34.0312 14.4375 34.0312C14.711 34.0312 14.9733 34.1399 15.1667 34.3333C15.3601 34.5267 15.4688 34.789 15.4688 35.0625V47.4375C15.4688 47.711 15.3601 47.9733 15.1667 48.1667C14.9733 48.3601 14.711 48.4688 14.4375 48.4688Z" fill="#363636"/>
<path d="M59.8125 53.625H55.6875C55.414 53.625 55.1517 53.5164 54.9583 53.323C54.7649 53.1296 54.6562 52.8673 54.6562 52.5938C54.6562 52.3202 54.7649 52.0579 54.9583 51.8645C55.1517 51.6711 55.414 51.5625 55.6875 51.5625H59.8125C60.633 51.5625 61.4199 51.2366 62.0001 50.6564C62.5803 50.0762 62.9062 49.2893 62.9062 48.4688V38.1562C62.9062 37.3357 62.5803 36.5488 62.0001 35.9686C61.4199 35.3884 60.633 35.0625 59.8125 35.0625H55.6875C55.414 35.0625 55.1517 34.9539 54.9583 34.7605C54.7649 34.5671 54.6562 34.3048 54.6562 34.0312C54.6562 33.7577 54.7649 33.4954 54.9583 33.302C55.1517 33.1086 55.414 33 55.6875 33H59.8125C61.1795 33.0016 62.4901 33.5454 63.4567 34.512C64.4233 35.4787 64.9671 36.7892 64.9688 38.1562V48.4688C64.9671 49.8358 64.4233 51.1463 63.4567 52.113C62.4901 53.0796 61.1795 53.6234 59.8125 53.625Z" fill="#363636"/>
<path d="M59.8125 49.5H55.6875C55.414 49.5 55.1517 49.3914 54.9583 49.198C54.7649 49.0046 54.6562 48.7423 54.6562 48.4688C54.6562 48.1952 54.7649 47.9329 54.9583 47.7395C55.1517 47.5461 55.414 47.4375 55.6875 47.4375H58.7812V39.1875H55.6875C55.414 39.1875 55.1517 39.0789 54.9583 38.8855C54.7649 38.6921 54.6562 38.4298 54.6562 38.1562C54.6562 37.8827 54.7649 37.6204 54.9583 37.427C55.1517 37.2336 55.414 37.125 55.6875 37.125H59.8125C60.086 37.125 60.3483 37.2336 60.5417 37.427C60.7351 37.6204 60.8438 37.8827 60.8438 38.1562V48.4688C60.8438 48.7423 60.7351 49.0046 60.5417 49.198C60.3483 49.3914 60.086 49.5 59.8125 49.5Z" fill="#363636"/>
<path d="M55.6875 36.0938C55.414 36.0938 55.1517 35.9851 54.9583 35.7917C54.7649 35.5983 54.6562 35.336 54.6562 35.0625V31.9688C54.6562 31.6952 54.7649 31.4329 54.9583 31.2395C55.1517 31.0461 55.414 30.9375 55.6875 30.9375C55.961 30.9375 56.2233 31.0461 56.4167 31.2395C56.6101 31.4329 56.7188 31.6952 56.7188 31.9688V35.0625C56.7188 35.336 56.6101 35.5983 56.4167 35.7917C56.2233 35.9851 55.961 36.0938 55.6875 36.0938Z" fill="#363636"/>
<path d="M35.0625 36.0938C34.789 36.0938 34.5267 35.9851 34.3333 35.7917C34.1399 35.5983 34.0312 35.336 34.0312 35.0625V31.9688C34.0312 31.6952 34.1399 31.4329 34.3333 31.2395C34.5267 31.0461 34.789 30.9375 35.0625 30.9375C35.336 30.9375 35.5983 31.0461 35.7917 31.2395C35.9851 31.4329 36.0938 31.6952 36.0938 31.9688V35.0625C36.0938 35.336 35.9851 35.5983 35.7917 35.7917C35.5983 35.9851 35.336 36.0938 35.0625 36.0938Z" fill="#363636"/>
<path d="M51.5625 35.0625C51.5625 35.6095 51.3452 36.1341 50.9584 36.5209C50.5716 36.9077 50.047 37.125 49.5 37.125C48.953 37.125 48.4284 36.9077 48.0416 36.5209C47.6548 36.1341 47.4375 35.6095 47.4375 35.0625H34.0312V56.7188C34.0312 57.5393 34.3572 58.3262 34.9374 58.9064C35.5176 59.4866 36.3045 59.8125 37.125 59.8125H53.625C54.4455 59.8125 55.2324 59.4866 55.8126 58.9064C56.3928 58.3262 56.7188 57.5393 56.7188 56.7188V35.0625H51.5625Z" fill="#FFBD4A"/>
<path d="M49.5 38.1562C48.6795 38.1562 47.8926 37.8303 47.3124 37.2501C46.7322 36.6699 46.4062 35.883 46.4062 35.0625V31.9688C46.4062 31.6952 46.2976 31.4329 46.1042 31.2395C45.9108 31.0461 45.6485 30.9375 45.375 30.9375H37.125C36.8515 30.9375 36.5892 31.0461 36.3958 31.2395C36.2024 31.4329 36.0938 31.6952 36.0938 31.9688C36.0938 32.2423 35.9851 32.5046 35.7917 32.698C35.5983 32.8914 35.336 33 35.0625 33C34.789 33 34.5267 32.8914 34.3333 32.698C34.1399 32.5046 34.0312 32.2423 34.0312 31.9688C34.0312 31.1482 34.3572 30.3613 34.9374 29.7811C35.5176 29.2009 36.3045 28.875 37.125 28.875H45.375C46.1955 28.875 46.9824 29.2009 47.5626 29.7811C48.1428 30.3613 48.4688 31.1482 48.4688 31.9688V35.0625C48.4688 35.336 48.5774 35.5983 48.7708 35.7917C48.9642 35.9851 49.2265 36.0938 49.5 36.0938C49.7735 36.0938 50.0358 35.9851 50.2292 35.7917C50.4226 35.5983 50.5312 35.336 50.5312 35.0625V31.9688C50.5312 31.1482 50.8572 30.3613 51.4374 29.7811C52.0176 29.2009 52.8045 28.875 53.625 28.875C54.4455 28.875 55.2324 29.2009 55.8126 29.7811C56.3928 30.3613 56.7188 31.1482 56.7188 31.9688C56.7188 32.2423 56.6101 32.5046 56.4167 32.698C56.2233 32.8914 55.961 33 55.6875 33C55.414 33 55.1517 32.8914 54.9583 32.698C54.7649 32.5046 54.6562 32.2423 54.6562 31.9688C54.6562 31.6952 54.5476 31.4329 54.3542 31.2395C54.1608 31.0461 53.8985 30.9375 53.625 30.9375C53.3515 30.9375 53.0892 31.0461 52.8958 31.2395C52.7024 31.4329 52.5938 31.6952 52.5938 31.9688V35.0625C52.5938 35.883 52.2678 36.6699 51.6876 37.2501C51.1074 37.8303 50.3205 38.1562 49.5 38.1562Z" fill="#363636"/>
<path d="M28.875 20.6251C28.6744 20.625 28.4783 20.5664 28.3105 20.4565C28.1427 20.3466 28.0106 20.1901 27.9304 20.0063C27.8129 19.7351 27.6414 19.4907 27.4264 19.288C27.2114 19.0852 26.9574 18.9283 26.6798 18.8269C26.4022 18.7255 26.1069 18.6817 25.8118 18.6981C25.5167 18.7146 25.2281 18.7909 24.9635 18.9225C24.826 18.9896 24.6754 19.0253 24.5224 19.0269C24.3695 19.0286 24.218 18.9962 24.0792 18.9322C23.9403 18.8681 23.8174 18.7739 23.7194 18.6565C23.6213 18.5391 23.5507 18.4013 23.5125 18.2532C23.3754 17.7101 23.0804 17.2198 22.6648 16.8443C22.2492 16.4688 21.7316 16.2249 21.1774 16.1433C20.6233 16.0618 20.0574 16.1463 19.5512 16.3862C19.045 16.626 18.6213 17.0105 18.3336 17.4911C18.2603 17.6121 18.163 17.7167 18.0477 17.7985C17.9323 17.8802 17.8013 17.9374 17.6629 17.9664C17.5245 17.9954 17.3816 17.9957 17.2431 17.9671C17.1046 17.9386 16.9735 17.8819 16.8578 17.8005C16.4913 17.5405 16.0532 17.4007 15.6038 17.4004C15.0216 17.4001 14.4631 17.631 14.0511 18.0423C13.639 18.4536 13.4071 19.0116 13.4063 19.5938C13.4063 19.8673 13.2976 20.1296 13.1042 20.323C12.9108 20.5164 12.6485 20.6251 12.375 20.6251C12.1015 20.6251 11.8392 20.5164 11.6458 20.323C11.4524 20.1296 11.3438 19.8673 11.3438 19.5938C11.3433 18.9006 11.5122 18.2177 11.8359 17.6046C12.1596 16.9916 12.6282 16.4669 13.201 16.0763C13.7738 15.6857 14.4333 15.441 15.1222 15.3636C15.8112 15.2861 16.5086 15.3782 17.1538 15.6318C17.6874 15.0503 18.3537 14.6065 19.0958 14.3381C19.8379 14.0697 20.6339 13.9846 21.416 14.0901C22.1981 14.1957 22.9431 14.4887 23.5875 14.9442C24.2319 15.3997 24.7567 16.0043 25.1171 16.7063C26.0652 16.5289 27.0453 16.6768 27.8988 17.126C28.7523 17.5752 29.4291 18.2994 29.8196 19.1813C29.9293 19.4319 29.9349 19.7157 29.8353 19.9704C29.7357 20.2251 29.539 20.4298 29.2885 20.5395C29.1582 20.5968 29.0173 20.6259 28.875 20.6251Z" fill="#363636"/>
<path d="M24.75 31.9688C23.9295 31.9688 23.1426 31.6428 22.5624 31.0626C21.9822 30.4824 21.6562 29.6955 21.6562 28.875V25.7812C21.6562 25.5077 21.5476 25.2454 21.3542 25.052C21.1608 24.8586 20.8985 24.75 20.625 24.75H12.375C12.1015 24.75 11.8392 24.8586 11.6458 25.052C11.4524 25.2454 11.3438 25.5077 11.3438 25.7812C11.3438 26.0548 11.2351 26.3171 11.0417 26.5105C10.8483 26.7039 10.586 26.8125 10.3125 26.8125C10.039 26.8125 9.77669 26.7039 9.5833 26.5105C9.3899 26.3171 9.28125 26.0548 9.28125 25.7812C9.28125 24.9607 9.6072 24.1738 10.1874 23.5936C10.7676 23.0134 11.5545 22.6875 12.375 22.6875H20.625C21.4455 22.6875 22.2324 23.0134 22.8126 23.5936C23.3928 24.1738 23.7188 24.9607 23.7188 25.7812V28.875C23.7188 29.1485 23.8274 29.4108 24.0208 29.6042C24.2142 29.7976 24.4765 29.9062 24.75 29.9062C25.0235 29.9062 25.2858 29.7976 25.4792 29.6042C25.6726 29.4108 25.7812 29.1485 25.7812 28.875V25.7812C25.7812 24.9607 26.1072 24.1738 26.6874 23.5936C27.2676 23.0134 28.0545 22.6875 28.875 22.6875C29.6955 22.6875 30.4824 23.0134 31.0626 23.5936C31.6428 24.1738 31.9688 24.9607 31.9688 25.7812C31.9688 26.0548 31.8601 26.3171 31.6667 26.5105C31.4733 26.7039 31.211 26.8125 30.9375 26.8125C30.664 26.8125 30.4017 26.7039 30.2083 26.5105C30.0149 26.3171 29.9062 26.0548 29.9062 25.7812C29.9062 25.5077 29.7976 25.2454 29.6042 25.052C29.4108 24.8586 29.1485 24.75 28.875 24.75C28.6015 24.75 28.3392 24.8586 28.1458 25.052C27.9524 25.2454 27.8438 25.5077 27.8438 25.7812V28.875C27.8438 29.6955 27.5178 30.4824 26.9376 31.0626C26.3574 31.6428 25.5705 31.9688 24.75 31.9688Z" fill="#363636"/>
<path d="M37.1248 26.8126C36.9828 26.8129 36.8423 26.7834 36.7123 26.7259C36.4618 26.6162 36.2651 26.4115 36.1655 26.1568C36.0659 25.9021 36.0716 25.6183 36.1813 25.3678C36.5713 24.4855 37.2481 23.761 38.1017 23.3117C38.9553 22.8625 39.9357 22.7148 40.8838 22.8928C41.2441 22.1906 41.7688 21.586 42.4132 21.1304C43.0575 20.6747 43.8025 20.3816 44.5846 20.276C45.3667 20.1704 46.1627 20.2553 46.9049 20.5237C47.6471 20.792 48.3134 21.2358 48.8471 21.8172C49.4924 21.5637 50.1899 21.4718 50.8788 21.5495C51.5678 21.6272 52.2273 21.8721 52.8 22.2629C53.3727 22.6537 53.8412 23.1786 54.1646 23.7918C54.4881 24.405 54.6569 25.088 54.6561 25.7813C54.6561 26.0548 54.5475 26.3171 54.3541 26.5105C54.1607 26.7039 53.8984 26.8126 53.6248 26.8126C53.3513 26.8126 53.089 26.7039 52.8956 26.5105C52.7022 26.3171 52.5936 26.0548 52.5936 25.7813C52.5931 25.1995 52.3617 24.6416 51.9502 24.2302C51.5388 23.8187 50.981 23.5874 50.3991 23.5868C49.9498 23.5872 49.5116 23.727 49.1451 23.9869C49.0295 24.0685 48.8983 24.1253 48.7597 24.1537C48.621 24.1821 48.4781 24.1815 48.3397 24.1519C48.2013 24.1227 48.0703 24.0654 47.955 23.9834C47.8397 23.9015 47.7425 23.7966 47.6694 23.6755C47.3818 23.1939 46.9577 22.8086 46.4509 22.5682C45.9441 22.3278 45.3774 22.2432 44.8225 22.3252C44.2676 22.4071 43.7495 22.6519 43.3338 23.0285C42.9181 23.4051 42.6235 23.8966 42.4873 24.4407C42.4498 24.5896 42.3794 24.7282 42.2814 24.8464C42.1834 24.9646 42.0602 25.0595 41.9208 25.124C41.7815 25.1885 41.6295 25.2211 41.4759 25.2194C41.3224 25.2177 41.1712 25.1817 41.0333 25.1141C40.7691 24.9829 40.4809 24.9067 40.1864 24.8903C39.8919 24.8738 39.597 24.9174 39.3199 25.0184C39.0427 25.1194 38.7889 25.2756 38.574 25.4777C38.359 25.6798 38.1874 25.9234 38.0695 26.1938C37.9892 26.3776 37.8572 26.5341 37.6894 26.644C37.5216 26.7539 37.3254 26.8125 37.1248 26.8126Z" fill="#363636"/>
<path d="M49.5 38.1562C48.6795 38.1562 47.8926 37.8303 47.3124 37.2501C46.7322 36.6699 46.4062 35.883 46.4062 35.0625V31.9688C46.4062 31.6952 46.2976 31.4329 46.1042 31.2395C45.9108 31.0461 45.6485 30.9375 45.375 30.9375H37.125C36.8515 30.9375 36.5892 31.0461 36.3958 31.2395C36.2024 31.4329 36.0938 31.6952 36.0938 31.9688C36.0938 32.2423 35.9851 32.5046 35.7917 32.698C35.5983 32.8914 35.336 33 35.0625 33C34.789 33 34.5267 32.8914 34.3333 32.698C34.1399 32.5046 34.0312 32.2423 34.0312 31.9688C34.0312 31.1482 34.3572 30.3613 34.9374 29.7811C35.5176 29.2009 36.3045 28.875 37.125 28.875H45.375C46.1955 28.875 46.9824 29.2009 47.5626 29.7811C48.1428 30.3613 48.4688 31.1482 48.4688 31.9688V35.0625C48.4688 35.336 48.5774 35.5983 48.7708 35.7917C48.9642 35.9851 49.2265 36.0938 49.5 36.0938C49.7735 36.0938 50.0358 35.9851 50.2292 35.7917C50.4226 35.5983 50.5312 35.336 50.5312 35.0625V31.9688C50.5312 31.1482 50.8572 30.3613 51.4374 29.7811C52.0176 29.2009 52.8045 28.875 53.625 28.875C54.4455 28.875 55.2324 29.2009 55.8126 29.7811C56.3928 30.3613 56.7188 31.1482 56.7188 31.9688C56.7188 32.2423 56.6101 32.5046 56.4167 32.698C56.2233 32.8914 55.961 33 55.6875 33C55.414 33 55.1517 32.8914 54.9583 32.698C54.7649 32.5046 54.6562 32.2423 54.6562 31.9688C54.6562 31.6952 54.5476 31.4329 54.3542 31.2395C54.1608 31.0461 53.8985 30.9375 53.625 30.9375C53.3515 30.9375 53.0892 31.0461 52.8958 31.2395C52.7024 31.4329 52.5938 31.6952 52.5938 31.9688V35.0625C52.5938 35.883 52.2678 36.6699 51.6876 37.2501C51.1074 37.8303 50.3205 38.1562 49.5 38.1562Z" fill="#363636"/>
<path d="M51.5625 54.6562C51.289 54.6562 51.0267 54.5476 50.8333 54.3542C50.6399 54.1608 50.5312 53.8985 50.5312 53.625V41.25C50.5312 40.9765 50.6399 40.7142 50.8333 40.5208C51.0267 40.3274 51.289 40.2188 51.5625 40.2188C51.836 40.2188 52.0983 40.3274 52.2917 40.5208C52.4851 40.7142 52.5938 40.9765 52.5938 41.25V53.625C52.5938 53.8985 52.4851 54.1608 52.2917 54.3542C52.0983 54.5476 51.836 54.6562 51.5625 54.6562Z" fill="#363636"/>
<path d="M45.375 54.6562C45.1015 54.6562 44.8392 54.5476 44.6458 54.3542C44.4524 54.1608 44.3438 53.8985 44.3438 53.625V41.25C44.3438 40.9765 44.4524 40.7142 44.6458 40.5208C44.8392 40.3274 45.1015 40.2188 45.375 40.2188C45.6485 40.2188 45.9108 40.3274 46.1042 40.5208C46.2976 40.7142 46.4062 40.9765 46.4062 41.25V53.625C46.4062 53.8985 46.2976 54.1608 46.1042 54.3542C45.9108 54.5476 45.6485 54.6562 45.375 54.6562Z" fill="#363636"/>
<path d="M39.1875 54.6562C38.914 54.6562 38.6517 54.5476 38.4583 54.3542C38.2649 54.1608 38.1562 53.8985 38.1562 53.625V41.25C38.1562 40.9765 38.2649 40.7142 38.4583 40.5208C38.6517 40.3274 38.914 40.2188 39.1875 40.2188C39.461 40.2188 39.7233 40.3274 39.9167 40.5208C40.1101 40.7142 40.2188 40.9765 40.2188 41.25V53.625C40.2188 53.8985 40.1101 54.1608 39.9167 54.3542C39.7233 54.5476 39.461 54.6562 39.1875 54.6562Z" fill="#363636"/>
<path d="M37.125 18.5625C36.5131 18.5625 35.915 18.3811 35.4062 18.0411C34.8974 17.7012 34.5009 17.218 34.2668 16.6527C34.0326 16.0874 33.9713 15.4653 34.0907 14.8652C34.2101 14.2651 34.5047 13.7138 34.9374 13.2811C35.3701 12.8485 35.9213 12.5538 36.5214 12.4344C37.1216 12.3151 37.7436 12.3763 38.3089 12.6105C38.8742 12.8447 39.3574 13.2412 39.6974 13.75C40.0373 14.2587 40.2188 14.8569 40.2188 15.4688C40.2188 16.2893 39.8928 17.0762 39.3126 17.6564C38.7324 18.2366 37.9455 18.5625 37.125 18.5625ZM37.125 14.4375C36.921 14.4375 36.7217 14.498 36.5521 14.6113C36.3825 14.7246 36.2503 14.8857 36.1723 15.0741C36.0942 15.2625 36.0738 15.4699 36.1136 15.6699C36.1534 15.87 36.2516 16.0537 36.3958 16.198C36.54 16.3422 36.7238 16.4404 36.9238 16.4802C37.1239 16.52 37.3312 16.4996 37.5196 16.4215C37.7081 16.3434 37.8691 16.2113 37.9825 16.0417C38.0958 15.8721 38.1563 15.6727 38.1563 15.4688C38.1563 15.1952 38.0476 14.9329 37.8542 14.7395C37.6608 14.5462 37.3985 14.4375 37.125 14.4375Z" fill="#363636"/>
<path d="M43.3125 8.25C42.7006 8.25 42.1025 8.06856 41.5937 7.72861C41.0849 7.38866 40.6884 6.90549 40.4543 6.34018C40.2201 5.77487 40.1588 5.15282 40.2782 4.55269C40.3976 3.95256 40.6922 3.40131 41.1249 2.96864C41.5576 2.53597 42.1088 2.24132 42.7089 2.12195C43.3091 2.00257 43.9311 2.06384 44.4964 2.298C45.0617 2.53216 45.5449 2.92869 45.8849 3.43746C46.2248 3.94622 46.4063 4.54437 46.4063 5.15625C46.4063 5.97676 46.0803 6.76367 45.5001 7.34386C44.9199 7.92405 44.133 8.25 43.3125 8.25ZM43.3125 4.125C43.1085 4.125 42.9092 4.18548 42.7396 4.2988C42.57 4.41211 42.4378 4.57317 42.3598 4.76161C42.2817 4.95005 42.2613 5.1574 42.3011 5.35744C42.3409 5.55748 42.4391 5.74123 42.5833 5.88546C42.7275 6.02968 42.9113 6.1279 43.1113 6.16769C43.3114 6.20748 43.5187 6.18706 43.7071 6.109C43.8956 6.03095 44.0566 5.89877 44.17 5.72918C44.2833 5.55959 44.3438 5.36021 44.3438 5.15625C44.3438 4.88275 44.2351 4.62044 44.0417 4.42705C43.8483 4.23365 43.586 4.125 43.3125 4.125Z" fill="#363636"/>
<path d="M28.3594 11.3438C27.6455 11.3438 26.9477 11.1321 26.3541 10.7355C25.7606 10.3389 25.2979 9.77515 25.0247 9.11562C24.7516 8.4561 24.6801 7.73037 24.8194 7.03022C24.9586 6.33007 25.3024 5.68694 25.8072 5.18216C26.3119 4.67738 26.9551 4.33362 27.6552 4.19435C28.3554 4.05509 29.0811 4.12656 29.7406 4.39975C30.4002 4.67293 30.9639 5.13556 31.3605 5.72912C31.7571 6.32267 31.9688 7.02051 31.9688 7.73438C31.9688 8.69164 31.5885 9.6097 30.9116 10.2866C30.2347 10.9635 29.3166 11.3438 28.3594 11.3438ZM28.3594 6.1875C28.0534 6.1875 27.7544 6.27822 27.5 6.4482C27.2456 6.61817 27.0473 6.85976 26.9303 7.14241C26.8132 7.42507 26.7825 7.73609 26.8422 8.03616C26.9019 8.33622 27.0492 8.61185 27.2656 8.82818C27.4819 9.04452 27.7575 9.19184 28.0576 9.25153C28.3577 9.31122 28.6687 9.28058 28.9513 9.1635C29.234 9.04642 29.4756 8.84816 29.6456 8.59377C29.8155 8.33939 29.9063 8.04032 29.9063 7.73438C29.9063 7.32412 29.7433 6.93067 29.4532 6.64057C29.1631 6.35048 28.7696 6.1875 28.3594 6.1875Z" fill="#363636"/>
</svg>
