<svg width="72" height="73" viewBox="0 0 72 73" fill="none" xmlns="http://www.w3.org/2000/svg">
<path d="M34.8828 19.198C35.003 22.8088 35.3271 54.35 34.961 56.5438C34.6313 58.5197 33.3681 62.0886 30.9562 62.463C28.5444 62.8375 26.9793 61.0238 26.2555 60.7862C25.5317 60.5487 23.5306 61.7728 21.9488 60.6912C20.367 59.6096 20.7136 56.7786 20.272 56.2979C19.8304 55.8172 17.3823 56.3845 16.2085 54.7636C15.0347 53.1427 16.0548 51.4099 15.6831 50.9404C15.3114 50.4709 11.695 50.0461 11.1836 46.2593C10.6023 41.9135 14.0873 41.0639 14.0677 40.3876C14.0482 39.7112 11.178 36.0138 12.6312 31.4696C14.0845 26.9254 17.9077 26.4391 18.1312 26.0311C18.3548 25.6231 16.6053 23.119 18.9082 19.5082C21.211 15.8974 24.5339 16.8728 25.0063 16.5514C25.4786 16.23 24.9252 14.8075 26.5266 12.7925C28.005 10.9312 30.8332 10.4729 32.8762 11.6495C34.7291 12.7282 34.7626 15.5872 34.8828 19.198Z" fill="#191919"/>
<path d="M30.2936 64.7519C28.1752 64.7519 26.6381 63.6983 25.7578 63.0946L25.7354 63.0807L25.632 63.103C24.5505 63.3517 22.5355 63.8129 20.6882 62.5441C19.0281 61.4094 18.6061 59.537 18.4077 58.2067C17.2311 58.0558 15.5487 57.6617 14.4056 56.0827C13.6315 54.991 13.2809 53.655 13.4191 52.3238C9.50649 50.4178 9.12082 47.6426 8.97549 46.5611C8.47803 42.9056 10.1549 40.9074 11.3901 39.8398C10.5517 38.0176 9.26614 34.6584 10.5014 30.7905C10.8897 29.4908 11.5421 28.2854 12.4178 27.2495C13.2935 26.2137 14.3737 25.3698 15.5906 24.7707C15.3307 23.2755 15.3111 20.9894 17.0215 18.3065C18.9778 15.2574 21.5964 14.6063 23.2397 14.4581C23.521 13.3423 24.0448 12.3021 24.774 11.4119C26.912 8.72338 30.9587 7.97998 33.9966 9.73506C36.864 11.3756 36.9842 14.9752 37.1071 18.7872V19.1281C37.1966 21.8055 37.5878 54.3416 37.1574 56.9155C36.6181 60.1602 34.7568 64.1399 31.2885 64.6792C30.9592 64.7287 30.6266 64.753 30.2936 64.7519ZM26.04 58.5364C26.3383 58.5343 26.6352 58.5776 26.9204 58.665C27.4104 58.8402 27.8704 59.09 28.2842 59.4056C29.1226 59.9841 29.7878 60.3838 30.615 60.244C31.3724 60.1266 32.4344 58.1061 32.7585 56.1665C33.0716 53.8804 32.7837 23.2978 32.6496 19.2623V18.9185C32.5769 16.7275 32.4903 13.9998 31.772 13.5862C30.6541 12.9406 29.0555 13.2145 28.287 14.1815C27.8221 14.7255 27.5405 15.4022 27.4821 16.1154C27.4011 16.6911 27.253 17.7615 26.2357 18.4294C25.5901 18.8542 24.9277 18.8654 24.3436 18.8766C23.2705 18.8962 21.9346 18.9241 20.7944 20.7099C19.5842 22.6075 19.9559 23.9211 20.1907 24.7902C20.35 25.3631 20.5903 26.2295 20.0817 27.1322C19.6541 27.8896 18.9862 28.1662 18.4049 28.4094C17.3541 28.8454 15.6102 29.5748 14.7717 32.1515C13.9333 34.8149 15.0512 37.1317 15.7247 38.5151C16.0573 39.197 16.2977 39.6917 16.3144 40.3261C16.3508 41.6535 15.3922 42.3886 14.8192 42.8413C13.9808 43.4953 13.1648 44.1101 13.4219 45.9854C13.6259 47.4973 14.6013 48.0143 15.8561 48.5341C16.4318 48.7717 17.0243 49.0176 17.477 49.6017C18.1841 50.5184 18.036 51.5357 17.9521 52.2092C17.8683 52.8827 17.8403 53.1985 18.0444 53.4808C18.2148 53.7156 18.9582 53.791 19.4417 53.8385C20.2326 53.9168 21.2192 54.0146 21.957 54.8334C22.5606 55.507 22.6696 56.3063 22.7954 57.1531C22.8513 57.5667 22.9994 58.6622 23.2397 58.8746C23.4689 59.0311 24.1816 58.8746 24.6539 58.7572C25.1062 58.632 25.5712 58.5579 26.04 58.5364Z" fill="#191919"/>
<path d="M37.3449 18.4575C37.1577 22.0906 36.8195 53.7883 37.1493 55.9989C37.4456 57.9888 37.9877 60.219 40.9473 61.6555C43.1831 62.7398 45.3127 60.9763 46.0142 60.7472C46.7156 60.518 48.3925 60.8226 50.0162 59.7606C51.6399 58.6986 52.347 56.3231 52.7886 56.0744C53.2301 55.8257 55.3681 56.0409 56.5894 54.4283C57.8107 52.8158 56.813 51.1333 56.9527 50.6079C57.0924 50.0825 60.284 49.4621 60.8821 46.0162C61.6199 41.7766 58.1656 40.6336 58.0706 40.0607C57.9756 39.4877 60.6641 37.4783 59.8285 33.4791C58.9146 29.111 56.0863 28.5911 55.8711 28.0518C55.6559 27.5124 57.3132 26.1318 56.4524 23.6361C55.5917 21.1404 53.3783 21.1963 53.0541 20.6569C52.7299 20.1175 53.5208 18.7593 52.1653 17.0825C50.754 15.3358 47.8894 16.2189 47.4143 15.9646C46.9392 15.7103 46.9504 13.9664 45.3099 12.2281C44.0243 10.867 41.2212 10.1628 39.3599 11.7446C37.7083 13.1419 37.5434 14.8299 37.3449 18.4575Z" fill="#191919"/>
<path d="M42.445 64.2406C41.5854 64.2419 40.7371 64.0449 39.9661 63.6649C35.7209 61.5968 35.1899 58.0364 34.9356 56.326C34.5555 53.7856 34.9356 21.5038 35.1089 18.3374C35.2877 14.8719 35.4303 12.1359 37.9036 10.0315C40.6983 7.66156 44.8233 8.45526 46.9277 10.6827C47.7566 11.5612 48.4042 12.5944 48.8337 13.7233C50.2479 13.687 52.4194 13.8463 53.8978 15.6796C54.7416 16.6866 55.2115 17.9543 55.228 19.268C56.0091 19.6035 56.71 20.1007 57.2848 20.727C57.8595 21.3533 58.2949 22.0943 58.5621 22.9012C59.0673 24.2992 59.0604 25.8312 58.5426 27.2246C59.7275 28.1161 61.3373 29.7734 62.0108 33.0153C62.5082 35.2756 62.1126 37.6408 60.9069 39.6164C62.1282 40.7678 63.7016 42.8778 63.0784 46.3964C62.5586 49.3755 60.6302 50.8931 59.3642 51.6728C59.4826 52.3883 59.4549 53.1204 59.283 53.825C59.1111 54.5296 58.7984 55.1921 58.3637 55.7726C57.0698 57.483 55.2364 57.9078 54.1269 58.0839C53.6015 59.062 52.7296 60.6438 51.2316 61.6248C49.6107 62.684 48.0009 62.793 47.0395 62.8573L46.693 62.8824L46.4722 62.9998C45.7092 63.4302 44.2224 64.2406 42.445 64.2406ZM41.9112 13.0693C41.5055 13.0547 41.1083 13.1878 40.7933 13.4438C39.9353 14.1705 39.7537 14.939 39.5636 18.5721C39.3736 22.2053 39.0746 53.4418 39.3596 55.6776C39.614 57.3908 39.9493 58.6847 41.9252 59.6461C42.6015 59.9759 43.4176 59.5874 44.337 59.0872C44.6498 58.9031 44.9792 58.7487 45.3208 58.6261C45.7839 58.4939 46.2618 58.4207 46.7433 58.4081C47.4336 58.3606 48.1406 58.313 48.789 57.8938C49.3675 57.5165 49.8818 56.5552 50.2255 55.9208C50.6251 55.1774 50.9689 54.5234 51.6927 54.1294C52.1408 53.9026 52.6287 53.7649 53.1292 53.7241C53.8838 53.6179 54.4874 53.5033 54.806 53.0841C55.0212 52.8047 55.0045 52.5252 54.848 51.7958C54.6831 51.2207 54.6648 50.6134 54.7949 50.0295C55.0743 48.9815 55.8904 48.5231 56.5444 48.157C57.6119 47.5562 58.4476 46.9888 58.6823 45.6418C59.0093 43.7554 58.1234 43.0595 57.257 42.3887C56.74 41.9863 56.0329 41.4329 55.8597 40.4324C55.6864 39.4319 56.209 38.6326 56.6254 38.0206C57.2263 37.1403 58.0507 35.9329 57.6343 33.9431C57.1424 31.5872 56.0469 30.9052 55.2504 30.4078C54.7418 30.092 54.1102 29.6979 53.7888 28.8791C53.3584 27.7919 53.8139 26.8501 54.085 26.2856C54.3812 25.6707 54.616 25.1845 54.3337 24.3684C54.085 23.6474 53.6854 23.4545 52.9364 23.1527C52.3774 22.9263 51.6061 22.6133 51.1226 21.8028C50.7843 21.1757 50.6504 20.4585 50.7397 19.7515C50.7705 19.2149 50.7844 18.9466 50.4183 18.4939C50.1389 18.1334 49.021 18.1949 48.4229 18.2144C47.7075 18.2535 47.0255 18.2927 46.338 17.9154C45.4018 17.4067 45.0944 16.5404 44.8485 15.8417C44.6247 15.0685 44.2292 14.3558 43.6914 13.7568C43.204 13.3163 42.571 13.0714 41.914 13.0693H41.9112Z" fill="#191919"/>
<path d="M34.8818 19.1982C35.002 22.809 35.3262 54.3502 34.9601 56.5441C34.6303 58.5199 33.3671 62.0888 30.9552 62.4633C28.5434 62.8378 26.9783 61.024 26.2545 60.7865C25.5307 60.5489 23.5297 61.773 21.9479 60.6914C20.366 59.6099 20.7126 56.7788 20.271 56.2981C19.8295 55.8174 17.3813 56.3848 16.2075 54.7638C15.0337 53.1429 16.0538 51.4102 15.6821 50.9407C15.3104 50.4711 11.694 50.0464 11.1826 46.2595C10.6013 41.9137 14.0863 41.0641 14.0667 40.3878C14.0472 39.7115 11.177 36.0141 12.6303 31.4699C14.0835 26.9256 17.9067 26.4394 18.1303 26.0313C18.3538 25.6233 16.6044 23.1192 18.9072 19.5085C21.21 15.8977 24.533 16.873 25.0053 16.5516C25.4776 16.2303 24.9242 14.8077 26.5256 12.7928C28.004 10.9315 30.8323 10.4731 32.8752 11.6497C34.7281 12.7285 34.7616 15.5875 34.8818 19.1982Z" fill="white"/>
<path d="M37.344 18.4575C37.1567 22.0906 36.8186 53.7883 37.1483 55.9989C37.4446 57.9888 37.9868 60.219 40.9464 61.6555C43.1821 62.7398 45.3117 60.9763 46.0132 60.7472C46.7147 60.518 48.3915 60.8226 50.0152 59.7606C51.639 58.6986 52.346 56.3231 52.7876 56.0744C53.2292 55.8257 55.3671 56.0409 56.5884 54.4283C57.8097 52.8158 56.812 51.1333 56.9517 50.6079C57.0915 50.0825 60.283 49.4621 60.8811 46.0162C61.6189 41.7766 58.1646 40.6336 58.0696 40.0607C57.9746 39.4877 60.6631 37.4783 59.8275 33.4791C58.9136 29.111 56.0854 28.5911 55.8702 28.0518C55.655 27.5124 57.3122 26.1318 56.4515 23.6361C55.5907 21.1404 53.3773 21.1963 53.0531 20.6569C52.7289 20.1175 53.5198 18.7593 52.1644 17.0825C50.753 15.3358 47.8885 16.2189 47.4133 15.9646C46.9382 15.7103 46.9494 13.9664 45.3089 12.2281C44.0234 10.867 41.2203 10.1628 39.359 11.7446C37.7073 13.1419 37.5424 14.8299 37.344 18.4575Z" fill="white"/>
<path d="M42.8972 21.8613C41.6396 20.981 28.429 34.3928 28.8538 35.4911C29.2786 36.5895 33.5852 36.5252 34.1637 37.1931C34.7422 37.8611 29.4854 49.6212 30.4607 50.3842C31.193 50.9431 44.3868 38.0232 44.1912 36.8634C43.9956 35.7035 40.4574 35.9215 39.6833 35.1865C38.9092 34.4515 43.7971 22.4957 42.8972 21.8613Z" fill="#E83A2A"/>
<path d="M3.48934 41.7515C4.0958 41.7515 7.81836 40.7594 8.42761 40.3849C9.03686 40.0104 8.31582 37.8948 7.84911 37.7998C7.38239 37.7048 3.44742 38.8422 2.91084 39.1664C2.37425 39.4906 2.88848 41.7599 3.48934 41.7515Z" fill="#191919"/>
<path d="M2.70897 27.9929C2.23387 27.5066 2.87106 25.6342 3.5949 25.6258C4.31873 25.6174 7.773 26.7688 8.1978 27.1713C8.62259 27.5737 8.12234 29.4545 7.31187 29.5384C6.5014 29.6222 3.23158 28.5267 2.70897 27.9929Z" fill="#191919"/>
<path d="M10.015 19.4076C9.71039 18.7984 10.8926 17.2138 11.5828 17.4262C12.2731 17.6386 13.7879 18.7872 14.0394 19.2931C14.2909 19.7989 13.2681 21.4422 12.4716 21.2745C11.6751 21.1068 10.3504 20.0728 10.015 19.4076Z" fill="#191919"/>
<path d="M7.08026 55.5407C6.40114 55.5071 5.59626 53.7017 6.11888 53.2015C6.64149 52.7012 8.35465 51.9522 8.94993 51.9718C9.5452 51.9914 10.4479 53.6962 9.91131 54.311C9.37472 54.9258 7.81527 55.5742 7.08026 55.5407Z" fill="#191919"/>
<path d="M67.9264 29.7955C67.4681 29.748 64.9137 30.3181 64.4274 30.6339C63.9412 30.9497 64.6734 33.0542 65.0171 33.1883C65.3609 33.3225 68.0913 32.6294 68.5161 32.3499C68.9409 32.0704 68.3848 29.843 67.9264 29.7955Z" fill="#191919"/>
<path d="M61.8174 25.341C61.1383 25.3158 60.3139 23.5188 60.8337 23.013C61.3535 22.5071 64.6513 20.9673 65.2326 20.984C65.8139 21.0008 66.7892 22.6133 66.2582 23.2198C65.7272 23.8263 62.5636 25.3661 61.8174 25.341Z" fill="#191919"/>
<path d="M70.2411 40.3067C70.8168 40.6672 70.6352 42.6375 69.9337 42.8219C69.2322 43.0064 65.6047 42.6906 65.1072 42.3859C64.6097 42.0813 64.6461 40.1502 65.4146 39.8707C66.1832 39.5912 69.6095 39.907 70.2411 40.3067Z" fill="#191919"/>
<path d="M66.9211 50.264C67.4017 50.7447 66.7757 52.6228 66.0519 52.6367C65.3281 52.6507 63.6708 52.0275 63.2572 51.6195C62.8436 51.2114 63.3159 49.3362 64.1263 49.2468C64.9368 49.1573 66.3929 49.7358 66.9211 50.264Z" fill="#191919"/>
</svg>
