<svg width="42" height="54" viewBox="0 0 42 54" fill="none" xmlns="http://www.w3.org/2000/svg">
<path d="M32.7954 35.9758L36.8289 48.3413L30.5181 46.3658L26.5944 51.6797L22.8262 40.1007" fill="#FF8B63"/>
<path d="M26.5944 53.5085H26.3017C25.9698 53.4541 25.6593 53.3092 25.4043 53.0897C25.1494 52.8703 24.9599 52.5848 24.8566 52.2646L21.0793 40.6673C20.9289 40.2004 20.9702 39.6928 21.194 39.2563C21.4178 38.8198 21.8059 38.49 22.2729 38.3396C22.7398 38.1892 23.2474 38.2305 23.6839 38.4543C24.1204 38.6782 24.4502 39.0663 24.6006 39.5332L27.2712 47.7647L29.1004 45.3044C29.3268 44.9977 29.6432 44.7694 30.0056 44.6514C30.368 44.5333 30.7582 44.5314 31.1217 44.6459L34.0394 45.5605L31.1034 36.5607C30.9736 36.1056 31.0251 35.6178 31.2473 35.2C31.4695 34.7821 31.845 34.4666 32.295 34.3197C32.7449 34.1729 33.2343 34.2062 33.6602 34.4126C34.0861 34.619 34.4154 34.9825 34.579 35.4266L38.6124 47.8013C38.7169 48.1208 38.7314 48.4628 38.6542 48.79C38.5771 49.1171 38.4113 49.4167 38.175 49.6558C37.9387 49.8948 37.6412 50.0642 37.315 50.1453C36.9888 50.2263 36.6466 50.2159 36.3259 50.1153L31.2589 48.533L28.0669 52.7951C27.8937 53.0201 27.6705 53.2018 27.4149 53.3256C27.1593 53.4494 26.8784 53.512 26.5944 53.5085Z" fill="#404040"/>
<path d="M9.1159 35.4175L5.14648 48.341L11.4573 46.3654L15.381 51.6793L18.9663 39.954" fill="#FF8B63"/>
<path d="M15.3798 53.509C15.0958 53.5126 14.8149 53.4499 14.5593 53.3261C14.3037 53.2023 14.0805 53.0207 13.9073 52.7956L10.7519 48.5335L5.69406 50.0518C5.37568 50.1518 5.036 50.1629 4.7118 50.0837C4.38759 50.0046 4.09121 49.8382 3.85476 49.6027C3.61831 49.3672 3.45079 49.0715 3.37034 48.7476C3.2899 48.4237 3.2996 48.084 3.39838 47.7652L7.3678 34.8418C7.51577 34.376 7.84268 33.9882 8.27663 33.7635C8.71059 33.5388 9.21603 33.4957 9.68177 33.6436C10.1475 33.7916 10.5354 34.1185 10.7601 34.5525C10.9848 34.9864 11.0279 35.4919 10.8799 35.9576L7.93485 45.561L10.9256 44.6464C11.2892 44.5319 11.6794 44.5338 12.0418 44.6519C12.4042 44.77 12.7206 44.9983 12.9469 45.3049L14.7213 47.7012L17.2456 39.4697C17.3875 39.0052 17.7081 38.6161 18.1369 38.3879C18.5657 38.1598 19.0676 38.1114 19.5321 38.2533C19.9967 38.3952 20.3858 38.7158 20.6139 39.1446C20.842 39.5734 20.8905 40.0753 20.7486 40.5398L17.1267 52.2194C17.0285 52.5434 16.8422 52.8339 16.5887 53.0583C16.3352 53.2828 16.0243 53.4325 15.6908 53.4907L15.3798 53.509Z" fill="#404040"/>
<path d="M22.542 3.91808L23.9779 3.10407C24.3464 2.89627 24.7529 2.76447 25.1732 2.71647C25.5936 2.66848 26.0193 2.70526 26.4252 2.82464C26.831 2.94401 27.2089 3.14357 27.5363 3.4115C27.8637 3.67943 28.1341 4.01029 28.3314 4.38453L29.0997 5.84791C29.3539 6.32989 29.7283 6.73807 30.1866 7.0329C30.6449 7.32773 31.1715 7.49923 31.7155 7.53079L33.371 7.62225C33.7934 7.64639 34.2068 7.75501 34.5865 7.94169C34.9663 8.12837 35.3047 8.38932 35.5819 8.70909C35.859 9.02887 36.0692 9.40099 36.2 9.80342C36.3308 10.2059 36.3796 10.6304 36.3434 11.052L36.1971 12.6984C36.1493 13.242 36.243 13.7888 36.4689 14.2856C36.6949 14.7825 37.0455 15.2124 37.4867 15.5336L38.8312 16.5031C39.1735 16.7516 39.4626 17.0662 39.6813 17.4283C39.9 17.7904 40.0438 18.1927 40.1044 18.6114C40.1649 19.03 40.1409 19.4566 40.0337 19.8658C39.9266 20.275 39.7385 20.6586 39.4806 20.9939L38.4653 22.3018C38.1327 22.7341 37.9175 23.2451 37.8406 23.7852C37.7637 24.3252 37.8276 24.876 38.0263 25.384L38.63 26.9297C38.7829 27.3238 38.8554 27.7445 38.8431 28.167C38.8309 28.5895 38.734 29.0053 38.5584 29.3898C38.3828 29.7743 38.1319 30.1197 37.8206 30.4056C37.5093 30.6916 37.1439 30.9122 36.7459 31.0546L35.1819 31.6125C34.6682 31.7954 34.2105 32.1079 33.8532 32.5198C33.4958 32.9316 33.251 33.4288 33.1423 33.9631L32.8313 35.5819C32.7469 35.996 32.5805 36.389 32.3418 36.7376C32.1031 37.0863 31.7969 37.3836 31.4415 37.6121C31.086 37.8406 30.6884 37.9955 30.272 38.0678C29.8557 38.1401 29.4291 38.1283 29.0174 38.0331L27.4077 37.6581C26.8727 37.5384 26.3157 37.5598 25.7914 37.7201C25.2671 37.8805 24.7935 38.1743 24.4169 38.5727L23.2645 39.7617C22.9691 40.0705 22.6142 40.3162 22.2212 40.4841C21.8282 40.652 21.4053 40.7385 20.978 40.7385C20.5506 40.7385 20.1277 40.652 19.7347 40.4841C19.3418 40.3162 18.9869 40.0705 18.6914 39.7617L17.539 38.5727C17.1624 38.1743 16.6888 37.8805 16.1645 37.7201C15.6402 37.5598 15.0833 37.5384 14.5482 37.6581L12.9385 38.0331C12.5268 38.1283 12.1002 38.1401 11.6839 38.0678C11.2676 37.9955 10.8699 37.8406 10.5145 37.6121C10.159 37.3836 9.85286 37.0863 9.61415 36.7376C9.37544 36.389 9.20898 35.996 9.12459 35.5819L8.79533 33.9631C8.68667 33.4288 8.44179 32.9316 8.08445 32.5198C7.7271 32.1079 7.26941 31.7954 6.75574 31.6125L5.19176 31.0546C4.79376 30.9122 4.42832 30.6916 4.11701 30.4056C3.8057 30.1197 3.55483 29.7743 3.3792 29.3898C3.20358 29.0053 3.10677 28.5895 3.09448 28.167C3.0822 27.7445 3.15468 27.3238 3.30766 26.9297L3.93874 25.3566C4.13743 24.8486 4.20141 24.2978 4.12449 23.7577C4.04757 23.2177 3.83235 22.7067 3.49973 22.2743L2.48451 20.9664C2.22657 20.6312 2.03846 20.2476 1.93132 19.8384C1.82417 19.4291 1.80016 19.0026 1.8607 18.5839C1.92124 18.1653 2.0651 17.763 2.28379 17.4009C2.50247 17.0388 2.79153 16.7242 3.13388 16.4757L4.47836 15.5336C4.91957 15.2124 5.27018 14.7825 5.49615 14.2856C5.72212 13.7888 5.81576 13.242 5.76797 12.6984L5.62163 11.052C5.58547 10.6304 5.63424 10.2059 5.76505 9.80342C5.89586 9.40099 6.10605 9.02887 6.38319 8.70909C6.66033 8.38932 6.99879 8.12837 7.37855 7.94169C7.7583 7.75501 8.17164 7.64639 8.59412 7.62225L10.2496 7.53079C10.7936 7.49923 11.3202 7.32773 11.7785 7.0329C12.2368 6.73807 12.6111 6.32989 12.8654 5.84791L13.6336 4.38453C13.831 4.01029 14.1013 3.67943 14.4288 3.4115C14.7562 3.14357 15.134 2.94401 15.5399 2.82464C15.9458 2.70526 16.3715 2.66848 16.7919 2.71647C17.2122 2.76447 17.6187 2.89627 17.9872 3.10407L19.4231 3.91808C19.8987 4.18741 20.436 4.32897 20.9825 4.32897C21.5291 4.32897 22.0664 4.18741 22.542 3.91808Z" fill="#FFE17D"/>
<path d="M20.9877 42.5147C20.3185 42.5172 19.6557 42.384 19.0395 42.123C18.4232 41.8621 17.8663 41.4788 17.4025 40.9964L16.25 39.8074C16.0891 39.6428 15.8882 39.5226 15.6671 39.4585C15.4459 39.3944 15.2119 39.3886 14.9879 39.4416L13.3782 39.8166C12.7278 39.9695 12.0533 39.99 11.3948 39.8771C10.7363 39.7641 10.1072 39.5199 9.54492 39.159C8.98266 38.7981 8.49869 38.3279 8.12178 37.7762C7.74486 37.2246 7.4827 36.6028 7.35087 35.9478L7.02161 34.3198C6.97438 34.0955 6.8706 33.887 6.72013 33.7141C6.56966 33.5412 6.37749 33.4097 6.16187 33.332L4.60703 32.7832C3.9787 32.5585 3.40179 32.2101 2.91037 31.7586C2.41895 31.3072 2.02299 30.7618 1.74589 30.1548C1.46879 29.5477 1.31617 28.8913 1.29705 28.2242C1.27792 27.5572 1.39268 26.8931 1.63454 26.2712L2.23819 24.7255C2.32113 24.5114 2.34785 24.2796 2.31583 24.0523C2.28381 23.8249 2.19411 23.6096 2.05526 23.4267L1.04004 22.1188C0.632243 21.5903 0.334553 20.9854 0.164579 20.3398C-0.00539625 19.6942 -0.0442007 19.0211 0.0504475 18.3603C0.145096 17.6994 0.371276 17.0643 0.715626 16.4924C1.05998 15.9205 1.5155 15.4234 2.05526 15.0306L3.39974 14.0611C3.58395 13.9257 3.73031 13.7452 3.82479 13.5371C3.91928 13.3289 3.95873 13.0999 3.93937 12.8721L3.79303 11.2258C3.73567 10.5602 3.81244 9.88987 4.0188 9.25449C4.22516 8.6191 4.55691 8.03157 4.99441 7.5267C5.43191 7.02182 5.96627 6.60987 6.56584 6.31521C7.16541 6.02056 7.818 5.84921 8.48499 5.8113L10.1404 5.71984C10.3699 5.7076 10.5923 5.63634 10.7862 5.51297C10.9801 5.3896 11.1388 5.21828 11.2471 5.01559L12.0154 3.55221C12.3258 2.96086 12.7519 2.43793 13.2683 2.01445C13.7848 1.59098 14.381 1.27561 15.0217 1.08707C15.6624 0.898528 16.3345 0.840663 16.998 0.916909C17.6615 0.993155 18.3029 1.20196 18.8841 1.53092L20.3201 2.34492C20.5198 2.45709 20.745 2.51601 20.974 2.51601C21.2031 2.51601 21.4283 2.45709 21.628 2.34492L23.073 1.53092C23.655 1.20177 24.2971 0.992822 24.9613 0.916466C25.6254 0.840109 26.2982 0.897897 26.9396 1.0864C27.5811 1.27491 28.1781 1.5903 28.6954 2.01386C29.2127 2.43743 29.6396 2.96055 29.9509 3.55221L30.7192 5.01559C30.8275 5.21828 30.9862 5.3896 31.1801 5.51297C31.374 5.63634 31.5964 5.7076 31.8259 5.71984L33.4813 5.8113C34.1483 5.84921 34.8009 6.02056 35.4005 6.31521C36.0001 6.60987 36.5344 7.02182 36.9719 7.5267C37.4094 8.03157 37.7412 8.6191 37.9475 9.25449C38.1539 9.88987 38.2306 10.5602 38.1733 11.2258L38.027 12.8721C38.0086 13.1007 38.0495 13.3302 38.1456 13.5385C38.2417 13.7467 38.3898 13.9267 38.5757 14.0611L39.9111 15.0306C40.4508 15.4234 40.9063 15.9205 41.2507 16.4924C41.595 17.0643 41.8212 17.6994 41.9159 18.3603C42.0105 19.0211 41.9717 19.6942 41.8017 20.3398C41.6318 20.9854 41.3341 21.5903 40.9263 22.1188L39.9111 23.4267C39.7714 23.6092 39.6812 23.8246 39.6492 24.0521C39.6171 24.2796 39.6443 24.5115 39.7281 24.7255L40.3318 26.2712C40.5747 26.8902 40.6916 27.5516 40.6755 28.2164C40.6595 28.8813 40.5107 29.5362 40.2381 30.1428C39.9655 30.7494 39.5744 31.2954 39.0879 31.7488C38.6014 32.2022 38.0293 32.5539 37.405 32.7832L35.841 33.3411C35.625 33.4181 35.4324 33.5494 35.2818 33.7224C35.1312 33.8954 35.0277 34.1043 34.9813 34.3289L34.6612 35.9478C34.5294 36.6028 34.2672 37.2246 33.8903 37.7762C33.5134 38.3279 33.0294 38.7981 32.4671 39.159C31.9049 39.5199 31.2758 39.7641 30.6173 39.8771C29.9588 39.99 29.2843 39.9695 28.6339 39.8166L26.9784 39.4416C26.7543 39.3895 26.5206 39.3957 26.2996 39.4598C26.0786 39.5238 25.8778 39.6435 25.7163 39.8074L24.6005 40.9964C24.1334 41.4822 23.572 41.8674 22.9508 42.1284C22.3296 42.3895 21.6616 42.521 20.9877 42.5147ZM15.2897 35.7466C15.9585 35.7446 16.621 35.8762 17.2383 36.1338C17.8555 36.3914 18.4151 36.7697 18.8841 37.2465L20.0274 38.4538C20.2823 38.7046 20.6256 38.8452 20.9832 38.8452C21.3408 38.8452 21.684 38.7046 21.9389 38.4538L23.0913 37.2465C23.693 36.6302 24.4434 36.1793 25.27 35.9374C26.0967 35.6955 26.9717 35.6707 27.8107 35.8655L29.4205 36.2404C29.7648 36.314 30.1242 36.2486 30.4205 36.0585C30.7169 35.8683 30.9261 35.5689 31.0027 35.2252L31.332 33.6064C31.5128 32.7666 31.9063 31.9875 32.4749 31.3436C33.0435 30.6998 33.768 30.2129 34.5789 29.9296L36.1429 29.3717C36.3105 29.3117 36.4645 29.2187 36.5957 29.0983C36.7269 28.9778 36.8327 28.8324 36.9068 28.6705C36.981 28.5085 37.022 28.3334 37.0274 28.1554C37.0329 27.9774 37.0027 27.8001 36.9386 27.6339L36.3349 26.0882C36.0244 25.285 35.9261 24.4154 36.0495 23.5631C36.1728 22.7108 36.5137 21.9047 37.0392 21.2225L38.0452 19.8689C38.1538 19.7274 38.2329 19.5657 38.278 19.3932C38.323 19.2206 38.333 19.0408 38.3074 18.8644C38.2819 18.6879 38.2212 18.5184 38.1291 18.3657C38.0369 18.2131 37.9151 18.0805 37.7709 17.9756L36.4355 17.0061C35.7418 16.5007 35.1893 15.8259 34.8306 15.0461C34.4719 14.2663 34.3191 13.4076 34.3868 12.552L34.5331 10.9057C34.5494 10.7278 34.5295 10.5485 34.4748 10.3784C34.42 10.2084 34.3314 10.0512 34.2144 9.91626C34.0974 9.7813 33.9543 9.67138 33.7938 9.59308C33.6332 9.51478 33.4585 9.46972 33.2801 9.4606L31.6247 9.36914C30.7659 9.31897 29.9345 9.0486 29.2105 8.58407C28.4864 8.11954 27.8942 7.47648 27.4906 6.71677L26.7224 5.23509C26.6399 5.07737 26.5266 4.93785 26.3892 4.82484C26.2517 4.71183 26.0929 4.62764 25.9222 4.57729C25.7515 4.52694 25.5724 4.51145 25.3956 4.53176C25.2189 4.55206 25.048 4.60774 24.8931 4.69547L23.448 5.50948C22.6982 5.93093 21.8525 6.15231 20.9923 6.15231C20.1321 6.15231 19.2864 5.93093 18.5366 5.50948L17.0915 4.69547C16.9364 4.60901 16.7655 4.55436 16.589 4.53472C16.4125 4.51508 16.2339 4.53084 16.0635 4.58109C15.8932 4.63134 15.7346 4.71507 15.597 4.82736C15.4594 4.93966 15.3456 5.07828 15.2623 5.23509L14.494 6.69847C14.0916 7.45989 13.4999 8.10479 12.7757 8.57098C12.0516 9.03716 11.2196 9.3089 10.3599 9.35999L8.7045 9.45146C8.5261 9.46057 8.35139 9.50563 8.19084 9.58393C8.03029 9.66223 7.88721 9.77216 7.77019 9.90711C7.65317 10.0421 7.56462 10.1993 7.50985 10.3693C7.45509 10.5393 7.43523 10.7187 7.45148 10.8965L7.58867 12.552C7.66058 13.4098 7.51076 14.2717 7.15359 15.0549C6.79642 15.8381 6.2439 16.5163 5.54908 17.0244L4.2046 17.9848C4.06167 18.0896 3.94103 18.2217 3.8497 18.3736C3.75836 18.5255 3.69818 18.694 3.67264 18.8693C3.6471 19.0447 3.65672 19.2234 3.70095 19.395C3.74517 19.5666 3.82311 19.7277 3.93022 19.8689L4.94544 21.1768C5.47014 21.8594 5.81049 22.6655 5.93382 23.5176C6.05715 24.3696 5.95931 25.2391 5.64969 26.0425L5.04605 27.5882C4.98195 27.7544 4.95174 27.9317 4.95719 28.1097C4.96264 28.2877 5.00365 28.4628 5.07779 28.6247C5.15194 28.7867 5.25772 28.9321 5.38892 29.0525C5.52012 29.173 5.67409 29.2659 5.84176 29.326L7.3966 29.8839C8.20533 30.1743 8.92602 30.6673 9.4897 31.3159C10.0534 31.9644 10.4412 32.7468 10.616 33.5881L10.9453 35.2161C10.981 35.3908 11.0513 35.5565 11.1521 35.7036C11.2529 35.8507 11.3821 35.9761 11.5321 36.0724C11.6822 36.1687 11.85 36.234 12.0257 36.2645C12.2013 36.2949 12.3813 36.2898 12.555 36.2496L14.1647 35.8746C14.5339 35.7917 14.9114 35.7518 15.2897 35.7557V35.7466Z" fill="#404040"/>
<path d="M20.9882 29.5911C25.3525 29.5911 28.8904 26.0532 28.8904 21.6889C28.8904 17.3246 25.3525 13.7866 20.9882 13.7866C16.6239 13.7866 13.0859 17.3246 13.0859 21.6889C13.0859 26.0532 16.6239 29.5911 20.9882 29.5911Z" fill="white"/>
<path d="M20.9873 31.4203C19.0622 31.4203 17.1804 30.8494 15.5799 29.7796C13.9793 28.7099 12.732 27.1895 11.9958 25.4108C11.2595 23.6321 11.0673 21.6749 11.4435 19.787C11.8198 17.899 12.7475 16.165 14.1094 14.8044C15.4713 13.4438 17.2061 12.5177 19.0944 12.1433C20.9828 11.7688 22.9397 11.9628 24.7177 12.7008C26.4958 13.4387 28.015 14.6875 29.0832 16.289C30.1514 17.8905 30.7206 19.7729 30.7188 21.698C30.714 24.2766 29.6868 26.7481 27.8626 28.5706C26.0384 30.3931 23.566 31.4179 20.9873 31.4203ZM20.9873 15.6158C19.7866 15.6158 18.6128 15.9718 17.6143 16.6387C16.6158 17.3056 15.8374 18.2535 15.3775 19.3627C14.9176 20.4719 14.7968 21.6925 15.0303 22.8703C15.2639 24.0481 15.8414 25.1302 16.6898 25.9799C17.5382 26.8296 18.6195 27.4087 19.7969 27.6441C20.9744 27.8794 22.1952 27.7605 23.305 27.3022C24.4149 26.844 25.364 26.067 26.0324 25.0695C26.7008 24.072 27.0585 22.8987 27.0604 21.698C27.0604 20.0865 26.4208 18.5409 25.2822 17.4005C24.1435 16.2601 22.5988 15.6183 20.9873 15.6158Z" fill="#404040"/>
</svg>
