<svg width="39" height="52" viewBox="0 0 39 52" fill="none" xmlns="http://www.w3.org/2000/svg">
<path d="M19.4991 0.611328C23.1541 0.611328 26.4638 2.09352 28.8598 4.48945C31.2556 6.88406 32.7364 10.1938 32.7364 13.8499V18.6631H27.9233V13.8499C27.9233 11.5244 26.9803 9.41813 25.4556 7.8933C23.9311 6.36875 21.8259 5.42565 19.499 5.42565C14.8466 5.42565 11.0746 9.19753 11.0746 13.8499V18.6631H6.26172V13.8499C6.26172 6.53875 12.1878 0.611328 19.4991 0.611328Z" fill="#415A6B"/>
<path d="M7.465 15.2257C7.465 7.91442 13.3911 1.987 20.7024 1.987C24.3472 1.987 27.6488 3.46135 30.0431 5.8456C29.6792 5.36708 29.2841 4.91366 28.8598 4.48945C26.4638 2.09352 23.154 0.611328 19.4991 0.611328C12.1878 0.611328 6.26172 6.53875 6.26172 13.8501V18.6632H7.46513L7.465 15.2257Z" fill="#344D5B"/>
<path d="M0.244273 45.1394V22.7552C0.244273 20.4946 2.07576 18.6631 4.33636 18.6631H6.26214H11.0751H27.9237H32.7369H34.6626C36.9232 18.6631 38.7547 20.4946 38.7547 22.7552V23.4775V47.0652C38.7547 49.3243 36.9232 51.1571 34.6626 51.1571H4.33623C2.07563 51.1571 0.244141 49.3243 0.244141 47.0652L0.244273 45.1394ZM26.7204 31.663C26.7204 29.8009 25.1041 28.2908 23.1066 28.2908C21.3017 28.2908 20.3999 29.1343 19.4966 30.8195C18.5948 29.1343 17.693 28.2908 15.8881 28.2908C13.8959 28.2908 12.2783 29.8009 12.2783 31.663C12.2783 35.0338 15.8881 36.9543 19.4966 40.3251C23.1066 36.9543 26.7204 35.0338 26.7204 31.663ZM13.4816 24.6809V22.2744H11.075V24.6809H13.4816ZM9.87185 24.6809V22.2744H7.46529V24.6809H9.87185ZM6.26201 24.6809V22.2744H3.85412V24.6809H6.26201Z" fill="#FFECB2"/>
<path d="M1.70521 48.7253V46.7995V24.4153C1.70521 22.1547 3.53669 20.3232 5.7973 20.3232H7.72308H12.5361H29.3847H34.1978H36.1236C36.9461 20.3232 37.7113 20.5667 38.3527 20.9842C37.6926 19.6108 36.2887 18.6631 34.6626 18.6631H32.7369H27.9237H11.0751H6.26201H4.33623C2.07563 18.6631 0.244141 20.4946 0.244141 22.7552V45.1394V47.0652C0.244141 48.5022 0.985898 49.7659 2.1071 50.496C1.84958 49.9601 1.70521 49.3596 1.70521 48.7253Z" fill="#EFD99E"/>
<path d="M23.1057 28.2908C25.1032 28.2908 26.7195 29.8008 26.7195 31.663C26.7195 35.0338 23.1057 36.9543 19.4957 40.325C15.8872 36.9543 12.2773 35.0338 12.2773 31.663C12.2773 29.8008 13.895 28.2908 15.8872 28.2908C17.6921 28.2908 18.5939 29.1343 19.4957 30.8195C20.399 29.1343 21.3008 28.2908 23.1057 28.2908Z" fill="#EF3E5C"/>
<path d="M14.684 32.2653C14.684 30.4947 16.1471 29.0433 18.0036 28.9049C17.4449 28.4962 16.7758 28.2908 15.8872 28.2908C13.895 28.2908 12.2773 29.8008 12.2773 31.663C12.2773 35.0338 15.8872 36.9543 19.4957 40.325C19.7816 40.0581 20.0673 39.8012 20.3514 39.551C17.3277 36.9729 14.684 35.1497 14.684 32.2653Z" fill="#E42A53"/>
<path d="M13.4808 22.2744H11.0742V24.681H13.4808V22.2744Z" fill="#415A6B"/>
<path d="M9.87141 22.2744H7.46484V24.681H9.87141V22.2744Z" fill="#415A6B"/>
<path d="M6.26141 22.2744H3.85352V24.681H6.26141V22.2744Z" fill="#415A6B"/>
<path d="M32.4631 45.8034H1.17383C0.807133 45.8034 0.509766 45.5062 0.509766 45.1394C0.509766 44.7725 0.807133 44.4753 1.17383 44.4753H32.4631C32.83 44.4753 33.1272 44.7725 33.1272 45.1394C33.1272 45.5062 32.83 45.8034 32.4631 45.8034Z" fill="#EFD99E"/>
</svg>
