<svg width="51" height="51" viewBox="0 0 51 51" fill="none" xmlns="http://www.w3.org/2000/svg">
<g clip-path="url(#clip0_0_7306)">
<path d="M49.7426 21.5558C49.7426 29.4973 45.1762 36.3724 38.5236 39.7005C37.9729 39.0443 37.1994 38.5638 36.301 38.3724L34.1564 37.6771C41.1448 35.6457 46.2504 29.1964 46.2504 21.5557C46.2504 12.2783 38.7308 4.76245 29.4572 4.76245C22.5509 4.76245 16.6211 8.93042 14.0469 14.8915L13.5352 11.0946C13.5156 10.5243 13.3827 9.9813 13.1523 9.49302C16.8477 4.50854 22.7735 1.27417 29.4572 1.27417C40.6565 1.27427 49.7426 10.3486 49.7426 21.5558Z" fill="#FC8A8A"/>
<path d="M49.7428 21.5557C49.7428 21.8526 49.735 22.1495 49.7232 22.4424C49.2779 11.6297 40.3716 3.01245 29.4573 3.01245C22.9846 3.01245 17.2267 6.0438 13.5117 10.7625C13.4609 10.3133 13.3359 9.88364 13.1523 9.49302C16.8477 4.50854 22.7735 1.27417 29.4572 1.27417C40.6567 1.27417 49.7428 10.3485 49.7428 21.5557Z" fill="#FCB0B0"/>
<path d="M49.7424 21.5558C49.7424 29.4973 45.176 36.3724 38.5234 39.7005C38.1915 39.306 37.7773 38.9739 37.3047 38.7317C43.5 35.3724 49.4103 28.0362 49.7228 20.7041C49.7346 20.9854 49.7424 21.2706 49.7424 21.5558Z" fill="#F96364"/>
<path d="M28.1626 50.0028C13.708 44.8632 3.10708 32.1617 0.635498 17.0209C-0.255615 11.5585 4.2939 6.73889 9.80288 7.23548C9.8478 7.23958 9.89282 7.24358 9.93784 7.24768C11.9434 7.42844 13.4727 9.08274 13.5344 11.0941L14.3225 16.9457C14.7938 18.9064 13.7704 20.9138 11.8823 21.6218L11.8051 21.6505C9.57124 22.4925 8.58804 25.0965 9.69351 27.2116C12.1484 31.8979 15.5845 36.015 19.7563 39.2684C21.6396 40.7342 24.3775 40.2325 25.6053 38.1853L25.6474 38.1146C26.6816 36.3835 28.8396 35.7356 30.6844 36.5499L36.3007 38.3718C38.2685 38.7922 39.6226 40.5927 39.4419 42.5983L39.4297 42.7332C38.9332 48.2421 33.3777 51.8564 28.1626 50.0028Z" fill="#7BDE9E"/>
<path d="M2.80186 19.6159C3.95186 26.6276 6.8379 33.1151 11.0445 38.5736C5.66026 32.6284 1.96651 25.1805 0.63321 17.0175C-0.256145 11.5577 4.28946 6.74134 9.8045 7.23851L9.93692 7.25042C11.6318 7.40316 12.9851 8.60648 13.3968 10.1854C12.9993 10.0028 12.5696 9.88392 12.1062 9.84212L11.967 9.82962C6.4587 9.33304 1.91241 14.156 2.80186 19.6159Z" fill="#A7EABF"/>
<path d="M39.4415 42.5968L39.429 42.7358C38.9324 48.2442 33.3741 51.8547 28.1614 50.0032C20.401 47.2413 13.7513 42.3034 8.875 35.977C13.483 41.0578 19.3251 45.0351 25.9929 47.4049C31.2055 49.2563 36.7638 45.6459 37.2603 40.1375L37.2729 39.9984C37.3146 39.535 37.2751 39.0843 37.1599 38.6601C38.6457 39.3547 39.5942 40.9019 39.4415 42.5968Z" fill="#51D27F"/>
<path d="M50.1328 21.556C50.1328 10.1575 40.8576 0.883789 29.4565 0.883789C23.135 0.883789 17.1091 3.83789 13.2035 8.80137C12.4955 7.72588 11.3282 6.98076 9.97376 6.85879L9.83753 6.84658C7.07073 6.596 4.39964 7.62178 2.50598 9.65615C0.630692 11.6711 -0.191769 14.3784 0.249539 17.0839C2.75198 32.4127 13.3975 45.1677 28.0317 50.3711C28.9976 50.7145 29.9951 50.8838 30.9869 50.8838C32.6471 50.8838 34.2916 50.4089 35.7428 49.4792C38.0835 47.98 39.569 45.534 39.8185 42.7683L39.8307 42.6332C39.9227 41.6129 39.645 40.6363 39.1063 39.8354C45.9186 36.2402 50.1328 29.2807 50.1328 21.556ZM39.0525 42.563L39.0403 42.698C38.8129 45.2215 37.4572 47.4531 35.3212 48.8215C33.2086 50.1745 30.6466 50.4714 28.2933 49.6348C13.9273 44.5269 3.47718 32.0057 1.02083 16.958C0.618387 14.4929 1.36839 12.0255 3.07815 10.1884C4.80589 8.33213 7.24466 7.396 9.76966 7.6249L9.90237 7.63711C11.6946 7.79844 13.0877 9.28965 13.1434 11.1059C13.1442 11.1196 13.1449 11.1329 13.1468 11.1463L13.9349 16.9981C13.9368 17.0111 13.9391 17.0245 13.9421 17.037C14.3694 18.8124 13.4244 20.6263 11.7459 21.2558L11.6669 21.2852C10.5011 21.7242 9.57835 22.6432 9.1347 23.8063C8.68909 24.9748 8.76653 26.2817 9.3472 27.393C11.8119 32.098 15.328 36.3107 19.5158 39.5766C20.5046 40.3464 21.7769 40.6573 23.006 40.4269C24.2297 40.1983 25.2991 39.4545 25.941 38.3841L25.9823 38.3146C26.9024 36.775 28.8563 36.17 30.526 36.9074C30.5382 36.9128 30.5508 36.9174 30.5634 36.9216L36.1799 38.7435C36.1929 38.7477 36.2059 38.7511 36.2188 38.7537C37.9958 39.1336 39.2143 40.7712 39.0525 42.563ZM30.8234 36.1844C28.7966 35.2997 26.4299 36.0421 25.3111 37.9155L25.2702 37.9842C24.7442 38.8608 23.8668 39.4712 22.8627 39.6589C21.8545 39.8462 20.8088 39.5929 19.9963 38.9604C15.8958 35.7629 12.4531 31.6376 10.0398 27.031C9.56253 26.1181 9.49886 25.0442 9.86468 24.0849C10.229 23.1308 10.9863 22.3767 11.9407 22.0169L12.0193 21.9879C14.0613 21.2219 15.2141 19.0265 14.7068 16.8746L14.4479 14.9521C17.0642 8.99668 22.9432 5.15342 29.4565 5.15342C38.5009 5.15342 45.8591 12.5117 45.8591 21.5561C45.8591 28.7655 41.0538 35.2077 34.1597 37.2667L30.8234 36.1844ZM38.6038 39.2176C38.0222 38.6222 37.2689 38.1835 36.4024 37.994L35.4034 37.67C42.0747 35.2061 46.6404 28.7475 46.6404 21.5559C46.6404 12.0808 38.9315 4.37187 29.4564 4.37187C23.0375 4.37187 17.2104 7.93691 14.2594 13.5532L13.9239 11.0614C13.9051 10.5308 13.7905 10.0241 13.5997 9.55664C17.3491 4.61328 23.2573 1.66494 29.4565 1.66494C40.4266 1.66484 49.3516 10.5879 49.3516 21.5558C49.3516 29.0406 45.2401 35.7801 38.6038 39.2176Z" fill="#333333"/>
<path d="M20.4472 21.9881C20.4472 21.5841 20.3507 21.2664 20.1572 21.0344C19.9639 20.8021 19.6609 20.6862 19.2485 20.6862C18.3979 20.6862 17.947 21.2665 17.8954 22.4261H16.1296C16.1811 21.3523 16.5076 20.5382 17.1092 19.9839C17.7104 19.4296 18.4707 19.1527 19.3904 19.1527C20.327 19.1527 21.0464 19.3957 21.5492 19.8809C22.0517 20.3666 22.303 21.0131 22.303 21.8204C22.303 22.4567 22.1161 23.0945 21.7427 23.7346C21.3688 24.3748 20.8938 24.9633 20.3183 25.5001C19.7426 26.0372 19.1368 26.4988 18.5013 26.8856H22.4835V28.3676H16.0781V27.0145C18.9906 24.9953 20.4472 23.3199 20.4472 21.9881Z" fill="#FEDD8E"/>
<path d="M22.4835 28.6605H16.0781C15.9164 28.6605 15.7852 28.5292 15.7852 28.3675V27.0144C15.7852 26.9183 15.832 26.8283 15.911 26.7737C18.7267 24.8216 20.1542 23.2119 20.1542 21.988C20.1542 21.6561 20.0794 21.3987 19.9322 21.222C19.796 21.0584 19.5725 20.9791 19.2486 20.9791C18.8214 20.9791 18.2465 21.1305 18.1881 22.4389C18.1813 22.5958 18.0522 22.7189 17.8955 22.7189H16.1297C16.0496 22.7189 15.9729 22.6861 15.9176 22.6281C15.8623 22.5701 15.8333 22.4918 15.8371 22.4118C15.8921 21.2635 16.2533 20.374 16.9109 19.7681C17.5647 19.1654 18.3991 18.8594 19.3905 18.8594C20.4007 18.8594 21.1957 19.1322 21.7526 19.6697C22.3123 20.2106 22.5961 20.9342 22.5961 21.8201C22.5961 22.5056 22.3943 23.1991 21.9956 23.882C21.6092 24.5438 21.1121 25.1603 20.5182 25.7142C20.1786 26.0308 19.8254 26.3246 19.4622 26.5923H22.4835C22.6452 26.5923 22.7765 26.7236 22.7765 26.8853V28.3673C22.7765 28.5292 22.6452 28.6605 22.4835 28.6605ZM16.3711 28.0746H22.1905V27.1785H18.5013C18.37 27.1785 18.2545 27.0911 18.2193 26.9645C18.1839 26.8382 18.2369 26.7036 18.349 26.6353C18.9655 26.2599 19.5609 25.806 20.1183 25.2856C20.6706 24.7709 21.1318 24.1992 21.4896 23.5869C21.8349 22.9948 22.01 22.4004 22.01 21.8203C22.01 21.089 21.7925 20.5236 21.3454 20.0915C20.9014 19.663 20.2437 19.4457 19.3903 19.4457C18.5389 19.4457 17.8579 19.692 17.3078 20.1995C16.8249 20.6443 16.5354 21.2939 16.4457 22.1332H17.6237C17.7771 20.7038 18.5801 20.3932 19.2484 20.3932C19.7501 20.3932 20.1315 20.5459 20.3822 20.8471C20.6195 21.1317 20.74 21.5155 20.74 21.9881C20.74 23.4153 19.3106 25.1101 16.371 27.1674L16.3711 28.0746Z" fill="#333333"/>
<path d="M23.8047 26.615V25.107L28.1607 19.2425H30.107V25.0424H31.2927V26.6149H30.107V28.4449H28.2768V26.6149L23.8047 26.615ZM28.4186 21.3693L25.6604 25.0425H28.4186V21.3693Z" fill="#FEDD8E"/>
<path d="M30.107 28.7378H28.2768C28.115 28.7378 27.9838 28.6066 27.9838 28.4449V26.9079H23.8047C23.643 26.9079 23.5117 26.7766 23.5117 26.6149V25.1069C23.5117 25.0439 23.5319 24.9826 23.5693 24.9322L27.9254 19.0677C27.9807 18.9933 28.0681 18.9495 28.1607 18.9495H30.107C30.2687 18.9495 30.4 19.0807 30.4 19.2424V24.7494H31.2927C31.4544 24.7494 31.5856 24.8806 31.5856 25.0423V26.6148C31.5856 26.7765 31.4544 26.9078 31.2927 26.9078H30.4V28.4448C30.4 28.6066 30.2687 28.7378 30.107 28.7378ZM28.5696 28.1519H29.814V26.6149C29.814 26.4532 29.9452 26.3219 30.1069 26.3219H30.9996V25.3354H30.1069C29.9452 25.3354 29.814 25.2042 29.814 25.0424V19.5355H28.3079L24.0976 25.2039V26.3219H28.2767C28.4384 26.3219 28.5696 26.4532 28.5696 26.6149V28.1519ZM28.4186 25.3354H25.6604C25.5494 25.3354 25.4479 25.2728 25.3983 25.1733C25.3487 25.0741 25.3595 24.9555 25.4262 24.8666L28.1843 21.1933C28.2602 21.0926 28.3922 21.0522 28.5112 21.0911C28.6311 21.1311 28.7115 21.2433 28.7115 21.3692V25.0424C28.7115 25.2042 28.5804 25.3354 28.4186 25.3354ZM26.2469 24.7495H28.1257V22.2474L26.2469 24.7495Z" fill="#333333"/>
<path d="M37.0132 16.24L33.5204 30.7776H31.7676L35.2604 16.24H37.0132Z" fill="#FEDD8E"/>
<path d="M33.5206 31.0707H31.7677C31.6781 31.0707 31.593 31.0294 31.5377 30.9588C31.482 30.8886 31.4618 30.7963 31.4827 30.7093L34.9754 16.1717C35.0071 16.0397 35.125 15.947 35.2604 15.947H37.0132C37.1029 15.947 37.1879 15.9882 37.2432 16.0588C37.2989 16.1291 37.3191 16.2213 37.2982 16.3083L33.8054 30.8459C33.7739 30.9779 33.656 31.0707 33.5206 31.0707ZM32.1392 30.4847H33.2897L36.6418 16.5331H35.4913L32.1392 30.4847Z" fill="#333333"/>
<path d="M43.948 20.6217L40.6228 28.445H38.7409L42.1048 20.8281H37.8906V19.2687H43.948V20.6217Z" fill="#FEDD8E"/>
<path d="M40.6228 28.7379H38.7409C38.6417 28.7379 38.5494 28.6879 38.4956 28.6048C38.4414 28.522 38.433 28.4171 38.4728 28.3267L41.655 21.121H37.8906C37.7289 21.121 37.5977 20.9897 37.5977 20.828V19.2686C37.5977 19.1068 37.7289 18.9756 37.8906 18.9756H43.948C44.1098 18.9756 44.241 19.1068 44.241 19.2686V20.6217C44.241 20.6609 44.233 20.6999 44.2178 20.7361L40.8925 28.5595C40.8463 28.6677 40.7402 28.7379 40.6228 28.7379ZM39.1907 28.152H40.429L43.6552 20.5621V19.5615H38.1837V20.5351H42.1049C42.2041 20.5351 42.2964 20.5851 42.3502 20.6682C42.4044 20.751 42.4128 20.8559 42.373 20.9463L39.1907 28.152Z" fill="#333333"/>
</g>
<defs>
<clipPath id="clip0_0_7306">
<rect width="50" height="50" fill="white" transform="translate(0.132812 0.883789)"/>
</clipPath>
</defs>
</svg>
