<svg width="20" height="20" viewBox="0 0 20 20" fill="none" xmlns="http://www.w3.org/2000/svg">
<path d="M9.98301 14.4133C12.1679 14.4133 13.9392 12.6421 13.9392 10.4571C13.9392 8.27221 12.1679 6.50098 9.98301 6.50098C7.79809 6.50098 6.02686 8.27221 6.02686 10.4571C6.02686 12.6421 7.79809 14.4133 9.98301 14.4133Z" stroke="white" stroke-width="0.791232" stroke-linecap="round" stroke-linejoin="round"/>
<path d="M14.3347 1.35742H5.63118C3.00927 1.35742 0.883789 3.4829 0.883789 6.10481V14.8084C0.883789 17.4303 3.00927 19.5558 5.63118 19.5558H14.3347C16.9566 19.5558 19.0821 17.4303 19.0821 14.8084V6.10481C19.0821 3.4829 16.9566 1.35742 14.3347 1.35742Z" stroke="white" stroke-width="0.791232" stroke-linecap="round" stroke-linejoin="round"/>
<path d="M15.1262 6.10541C15.5632 6.10541 15.9174 5.75117 15.9174 5.31418C15.9174 4.8772 15.5632 4.52295 15.1262 4.52295C14.6892 4.52295 14.335 4.8772 14.335 5.31418C14.335 5.75117 14.6892 6.10541 15.1262 6.10541Z" fill="white"/>
</svg>
