<svg width="22" height="27" viewBox="0 0 22 27" fill="none" xmlns="http://www.w3.org/2000/svg">
<path d="M18.7801 3.6176C16.7168 1.55422 13.9182 0.39502 11.0001 0.39502C8.08207 0.39502 5.28352 1.55422 3.22014 3.6176C1.15676 5.68099 -0.00244138 8.47954 -0.00244141 11.3976C-0.00244143 14.3157 1.15676 17.1142 3.22014 19.1776L7.32014 23.2776C7.41338 23.3708 7.52407 23.4448 7.64589 23.4953C7.76771 23.5457 7.89828 23.5717 8.03014 23.5717C8.162 23.5717 8.29257 23.5457 8.41439 23.4953C8.53621 23.4448 8.6469 23.3708 8.74014 23.2776C8.83338 23.1844 8.90734 23.0737 8.9578 22.9519C9.00826 22.83 9.03423 22.6995 9.03423 22.5676C9.03423 22.4357 9.00826 22.3052 8.9578 22.1834C8.90734 22.0615 8.83338 21.9508 8.74014 21.8576L4.64014 17.7576C3.38035 16.4994 2.52207 14.8957 2.17389 13.1496C1.82572 11.4035 2.00329 9.5933 2.68415 7.94812C3.36501 6.30293 4.51856 4.89666 5.99884 3.90723C7.47913 2.9178 9.21963 2.38968 11.0001 2.38968C12.7806 2.38968 14.5212 2.9178 16.0014 3.90723C17.4817 4.89666 18.6353 6.30293 19.3161 7.94812C19.997 9.5933 20.1746 11.4035 19.8264 13.1496C19.4782 14.8957 18.6199 16.4994 17.3601 17.7576L10.2901 24.8276C10.1964 24.9206 10.122 25.0312 10.0712 25.153C10.0205 25.2749 9.99434 25.4056 9.99434 25.5376C9.99434 25.6696 10.0205 25.8003 10.0712 25.9222C10.122 26.044 10.1964 26.1546 10.2901 26.2476C10.3831 26.3413 10.4937 26.4157 10.6156 26.4665C10.7374 26.5173 10.8681 26.5434 11.0001 26.5434C11.1322 26.5434 11.2629 26.5173 11.3847 26.4665C11.5066 26.4157 11.6172 26.3413 11.7101 26.2476L18.7801 19.1776C19.8021 18.1561 20.6128 16.9432 21.166 15.6083C21.7191 14.2734 22.0038 12.8426 22.0038 11.3976C22.0038 9.95263 21.7191 8.52181 21.166 7.18689C20.6128 5.85197 19.8021 4.63911 18.7801 3.6176Z" fill="white"/>
<path d="M16 11.4678C16 10.4789 15.7068 9.51217 15.1574 8.68992C14.6079 7.86768 13.8271 7.22682 12.9134 6.84838C11.9998 6.46994 10.9945 6.37092 10.0246 6.56385C9.05465 6.75678 8.16373 7.23298 7.46447 7.93224C6.76521 8.6315 6.289 9.52242 6.09608 10.4923C5.90315 11.4622 6.00217 12.4676 6.3806 13.3812C6.75904 14.2948 7.39991 15.0757 8.22215 15.6251C9.0444 16.1745 10.0111 16.4678 11 16.4678C12.3261 16.4678 13.5979 15.941 14.5355 15.0033C15.4732 14.0656 16 12.7939 16 11.4678ZM8 11.4678C8 10.8744 8.17595 10.2944 8.50559 9.80107C8.83524 9.30772 9.30377 8.9232 9.85195 8.69614C10.4001 8.46907 11.0033 8.40966 11.5853 8.52542C12.1672 8.64118 12.7018 8.9269 13.1213 9.34646C13.5409 9.76601 13.8266 10.3006 13.9424 10.8825C14.0581 11.4644 13.9987 12.0676 13.7716 12.6158C13.5446 13.164 13.1601 13.6325 12.6667 13.9622C12.1734 14.2918 11.5933 14.4678 11 14.4678C10.2044 14.4678 9.44129 14.1517 8.87868 13.5891C8.31607 13.0265 8 12.2634 8 11.4678Z" fill="white"/>
</svg>
