<svg width="23" height="23" viewBox="0 0 23 23" fill="none" xmlns="http://www.w3.org/2000/svg">
<path d="M14.4717 2.33789C16.0085 2.75033 17.4098 3.55974 18.5349 4.68488C19.66 5.81001 20.4694 7.2113 20.8819 8.7481" stroke="white" stroke-width="1.35905" stroke-linecap="round" stroke-linejoin="round"/>
<path d="M13.5317 5.8374C14.456 6.08288 15.299 6.56833 15.9752 7.24456C16.6515 7.92079 17.1369 8.76376 17.3824 9.68806" stroke="white" stroke-width="1.35905" stroke-linecap="round" stroke-linejoin="round"/>
<path d="M6.89508 11.9417C7.82742 13.8671 9.38428 15.42 11.312 16.3473C11.4542 16.4147 11.6115 16.4438 11.7684 16.4319C11.9253 16.42 12.0763 16.3674 12.2067 16.2794L15.0381 14.388C15.1632 14.3032 15.3077 14.2514 15.4582 14.2376C15.6088 14.2237 15.7603 14.2482 15.8988 14.3088L21.1991 16.5852C21.3803 16.6606 21.5316 16.7934 21.6299 16.9633C21.7281 17.1331 21.7678 17.3306 21.7428 17.5252C21.5748 18.8364 20.9348 20.0414 19.9425 20.9149C18.9503 21.7883 17.6737 22.2703 16.3518 22.2706C12.2668 22.2706 8.34909 20.6478 5.46054 17.7592C2.57199 14.8707 0.949219 10.953 0.949219 6.86794C0.949517 5.54602 1.43147 4.26952 2.3049 3.27726C3.17834 2.28501 4.38339 1.64501 5.69458 1.47702C5.8892 1.45202 6.08664 1.49169 6.25649 1.58992C6.42635 1.68815 6.5592 1.83949 6.6346 2.02064L8.91101 7.33228C8.97021 7.46858 8.99498 7.61734 8.98313 7.76547C8.97128 7.9136 8.92317 8.05653 8.84306 8.18169L6.95171 11.0584C6.86751 11.1885 6.81809 11.338 6.80817 11.4927C6.79826 11.6473 6.82818 11.8019 6.89508 11.9417Z" stroke="white" stroke-width="1.35905" stroke-linecap="round" stroke-linejoin="round"/>
</svg>
