<svg width="44" height="39" viewBox="0 0 44 39" fill="none" xmlns="http://www.w3.org/2000/svg">
<path d="M20.6568 23.7035V11.2814H9.78116C9.52768 11.2781 9.27606 11.3251 9.04091 11.4198C8.80576 11.5145 8.59176 11.6549 8.41133 11.833C8.23091 12.011 8.08765 12.2232 7.98988 12.4571C7.89211 12.691 7.84177 12.9419 7.8418 13.1954V23.7035H20.6568Z" fill="white"/>
<path d="M7.8418 25.6045V36.5689C7.8418 37.0765 8.04345 37.5633 8.4024 37.9223C8.76134 38.2812 9.24818 38.4829 9.75581 38.4829H20.6315V25.6045H7.8418Z" fill="white"/>
<path d="M36.1207 23.7033V13.1953C36.1174 12.6887 35.9147 12.2037 35.5564 11.8455C35.1982 11.4873 34.7133 11.2846 34.2067 11.2812H23.3184V23.7033H36.1207Z" fill="white"/>
<path d="M23.3184 25.6045V38.4829H34.2067C34.7133 38.4796 35.1982 38.2768 35.5564 37.9186C35.9147 37.5604 36.1174 37.0755 36.1207 36.5689V25.6045H23.3184Z" fill="white"/>
<path d="M21.265 8.40338C20.279 6.09219 18.7943 4.02752 16.9172 2.35713C16.0115 1.42092 14.8216 0.810397 13.5329 0.620567C12.7691 0.592148 12.0172 0.816478 11.3939 1.25878C10.7705 1.70107 10.3105 2.33664 10.0851 3.06696C9.88647 3.63945 9.82429 4.25043 9.90352 4.8512C9.98274 5.45198 10.2012 6.02595 10.5414 6.52739C11.49 7.49971 12.7831 8.05974 14.1413 8.08649C16.6764 8.36535 19.0467 8.65689 21.4931 9.12588C21.4537 8.87498 21.3768 8.63142 21.265 8.40338ZM12.1132 4.29649C12.0407 4.16131 12.0057 4.00926 12.0116 3.85601C12.0175 3.70276 12.0642 3.55387 12.1469 3.42469C12.2296 3.29552 12.3452 3.19074 12.4819 3.12117C12.6186 3.0516 12.7713 3.01976 12.9244 3.02893C14.192 2.96555 15.13 4.20776 16.0426 4.89224C16.9352 5.52971 17.7823 6.22855 18.5777 6.98371C18.1705 6.83345 17.7434 6.74376 17.3102 6.71752C16.6003 6.56541 15.9032 6.37528 15.206 6.17247C14.1742 6.00049 13.2046 5.56375 12.392 4.90491C12.2585 4.72331 12.1635 4.51624 12.1132 4.29649Z" fill="white"/>
<path d="M22.7607 9.08854C25.2198 8.61955 27.6282 8.32801 30.1253 8.04915C31.4822 8.01702 32.7734 7.45782 33.7251 6.49004C34.0617 5.98699 34.278 5.41318 34.3571 4.81309C34.4363 4.21299 34.3762 3.60273 34.1814 3.02962C33.9517 2.29942 33.4888 1.66472 32.8638 1.22284C32.2387 0.78095 31.486 0.556264 30.721 0.583227C29.4331 0.77579 28.2441 1.38588 27.3366 2.31978C25.4862 3.99998 24.0241 6.06328 23.0523 8.36604C22.9185 8.59041 22.8201 8.83412 22.7607 9.08854ZM31.7858 4.88025C30.976 5.54364 30.0052 5.98096 28.9718 6.14781C28.2746 6.35062 27.5775 6.54075 26.8676 6.69286C26.4344 6.7191 26.0073 6.80879 25.6001 6.95905C26.3982 6.20692 27.2451 5.50824 28.1352 4.86757C29.0478 4.18309 29.9985 2.94088 31.2534 3.00426C31.4062 2.99672 31.5583 3.02941 31.6946 3.09906C31.8308 3.16871 31.9464 3.27288 32.0298 3.40116C32.1132 3.52945 32.1614 3.67737 32.1698 3.83015C32.1781 3.98293 32.1462 4.13522 32.0773 4.27182C32.0221 4.4922 31.9229 4.69916 31.7858 4.88025Z" fill="white"/>
<path d="M20.0608 9.75991C18.2852 10.0175 16.4849 10.0601 14.6991 9.88666C12.8948 9.56809 11.1337 9.04062 9.45137 8.31489C8.16757 7.95104 6.81234 7.91952 5.51301 8.22328C4.21368 8.52705 3.0129 9.15615 2.02348 10.0515C1.26658 10.9086 0.701003 11.9171 0.364413 13.01C0.0278233 14.1028 -0.0720538 15.2548 0.0714346 16.3892C0.401 19.9131 3.32906 22.8791 0.831972 26.3015C0.831972 26.3903 0.831973 26.5931 0.946053 26.5551C1.60928 26.3808 2.22637 26.0636 2.75407 25.6256C3.28177 25.1877 3.70731 24.6397 4.00087 24.02C4.00603 25.1502 3.75921 26.2674 3.27836 27.2902C3.26479 27.3111 3.25704 27.3352 3.25591 27.36C3.25479 27.3849 3.26034 27.4096 3.27198 27.4316C3.28362 27.4536 3.30092 27.472 3.3221 27.4851C3.34328 27.4981 3.36757 27.5052 3.39244 27.5057C5.3318 27.7466 6.00361 25.034 6.01629 23.5636C5.94705 22.3387 5.58636 21.148 4.96421 20.0905C3.96411 18.5603 3.60877 16.6971 3.97552 14.9062C4.14553 14.014 4.50954 13.17 5.04181 12.434C5.57407 11.6981 6.26158 11.0881 7.05568 10.6472C8.6021 9.81062 10.4654 10.2036 12.1259 10.4951C14.806 11.1254 17.6053 11.0335 20.2383 10.2289C20.1616 10.0798 20.1021 9.92245 20.0608 9.75991Z" fill="white"/>
<path d="M23.9646 9.76037C25.736 10.0182 27.5321 10.0607 29.3137 9.88712C31.118 9.56855 32.8791 9.04108 34.5614 8.31535C35.8451 7.95029 37.2006 7.91815 38.5002 8.22197C39.7997 8.5258 41.0005 9.15557 41.9893 10.0519C42.7462 10.909 43.3118 11.9176 43.6483 13.0104C43.9849 14.1033 44.0848 15.2553 43.9413 16.3897C43.6118 19.9135 40.6837 22.8796 43.1808 26.302C43.2442 26.3907 43.1808 26.5936 43.0667 26.5555C42.4042 26.3797 41.7878 26.0619 41.2604 25.6241C40.7329 25.1864 40.3069 24.6392 40.0119 24.0204C40.0067 25.1507 40.2536 26.2678 40.7344 27.2907C40.7344 27.3794 40.7344 27.4935 40.633 27.5062C38.681 27.747 38.0092 25.0345 37.9965 23.5641C38.0719 22.3402 38.4321 21.1509 39.0486 20.091C40.0487 18.5608 40.404 16.6975 40.0372 14.9067C39.8785 14.0071 39.5236 13.1535 38.9978 12.4065C38.4721 11.6595 37.7883 11.0374 36.9951 10.5843C35.4487 9.7477 33.5727 10.1406 31.9249 10.4322C29.2447 11.0618 26.4456 10.97 23.8125 10.166C23.8707 10.0337 23.9215 9.89831 23.9646 9.76037Z" fill="white"/>
<path d="M22.9258 10.7105C22.9258 10.9592 22.827 11.1978 22.6511 11.3737C22.4752 11.5496 22.2366 11.6485 21.9878 11.6485C21.7412 11.6451 21.5059 11.5448 21.3327 11.3693C21.1596 11.1937 21.0625 10.9571 21.0625 10.7105C21.0625 10.4651 21.16 10.2297 21.3335 10.0562C21.507 9.88264 21.7424 9.78516 21.9878 9.78516C22.2344 9.78513 22.4711 9.88221 22.6466 10.0554C22.8222 10.2286 22.9225 10.4639 22.9258 10.7105Z" fill="white"/>
</svg>
