<svg width="50" height="38" viewBox="0 0 50 38" fill="none" xmlns="http://www.w3.org/2000/svg">
<path d="M49.244 17.6406C49.244 17.6406 49.244 17.6406 49.244 17.5449L46.2247 4.38862V4.29299L36.88 0.344727H36.5932L8.17661 20.045C8.17661 20.045 8.17661 20.045 8.1083 20.127L0.662623 30.346C0.642975 30.3889 0.632812 30.4355 0.632812 30.4827C0.632812 30.5298 0.642975 30.5764 0.662623 30.6193C0.675163 30.665 0.699402 30.7067 0.732937 30.7402C0.766472 30.7738 0.808149 30.798 0.853887 30.8105L20.6498 37.6414H20.7591C20.8124 37.6592 20.8699 37.6592 20.9231 37.6414L49.2986 17.9685C49.2986 17.9685 49.2986 17.9684 49.3669 17.9001L49.244 17.6406ZM8.54549 20.3729L16.8382 23.9523C13.8037 23.4958 10.9432 22.247 8.54549 20.3319V20.3729ZM20.7318 36.8491L17.8628 24.3212L30.8962 15.2771C30.2711 16.6662 29.7371 18.0946 29.2978 19.5532C28.6147 21.4522 27.9316 23.3649 27.2485 25.2365C26.0326 28.3104 24.9396 31.4663 23.9423 34.6222L20.7318 36.8491ZM24.3522 34.3489C25.5817 31.4117 26.4424 28.3378 27.631 25.3868C28.9972 21.944 30.0901 18.3783 31.4836 14.9355C31.4823 14.9128 31.4823 14.89 31.4836 14.8672L42.8503 6.98436C42.0856 9.09316 41.4334 11.2411 40.8966 13.4191C40.5551 14.676 40.2408 15.9328 39.913 17.1897L39.831 17.5449C39.7217 18.187 39.6261 18.8291 39.5304 19.4712C39.6221 19.244 39.6997 19.0113 39.7627 18.7745C40.1042 17.5313 40.4731 16.3017 40.842 15.0585C41.6617 12.3261 42.4677 9.59376 43.3967 6.8614C43.4246 6.82914 43.44 6.78792 43.44 6.74528C43.44 6.70263 43.4246 6.66142 43.3967 6.62915L45.7875 4.96241L48.6702 17.4903L24.3522 34.3489Z" fill="#FF5858"/>
<path d="M27.3848 29.7177C27.3848 29.7177 27.699 29.3215 27.8493 29.1165C28.5733 27.3405 29.1198 25.4825 29.8439 23.6518C30.2128 22.7228 30.6089 21.7938 30.9915 20.9195C31.1144 20.4959 31.2374 20.0724 31.3467 19.6626C31.456 19.2527 31.579 18.597 31.6882 18.0641C30.9232 19.8948 30.1991 21.7255 29.475 23.5289C28.7509 25.3322 28.1908 27.7367 27.3848 29.7177Z" fill="#FF5858"/>
<path d="M43.2605 9.17145C42.8595 11.2654 42.2977 13.3253 41.5801 15.3329C41.5801 15.351 41.5873 15.3684 41.6001 15.3812C41.6129 15.394 41.6303 15.4012 41.6484 15.4012C41.6665 15.4012 41.6839 15.394 41.6967 15.3812C41.7095 15.3684 41.7167 15.351 41.7167 15.3329C42.1136 14.3797 42.4378 13.3978 42.6867 12.3956C43.073 11.3238 43.3522 10.2164 43.5201 9.08948C43.5337 8.98019 43.2741 9.03483 43.2605 9.17145Z" fill="#FF5858"/>
</svg>
