<svg width="44" height="38" viewBox="0 0 44 38" fill="none" xmlns="http://www.w3.org/2000/svg">
<path d="M20.649 23.1713V10.7492H9.77335C9.51987 10.7458 9.26825 10.7929 9.0331 10.8875C8.79795 10.9822 8.58395 11.1227 8.40352 11.3008C8.22309 11.4788 8.07984 11.691 7.98207 11.9248C7.8843 12.1587 7.83396 12.4097 7.83398 12.6632V23.1713H20.649Z" fill="#FF9837"/>
<path d="M7.83398 25.0723V36.0366C7.83398 36.5443 8.03564 37.0311 8.39459 37.3901C8.75353 37.749 9.24037 37.9506 9.74799 37.9506H20.6236V25.0723H7.83398Z" fill="#FF9837"/>
<path d="M36.1139 23.1711V12.663C36.1105 12.1564 35.9078 11.6715 35.5496 11.3133C35.1914 10.9551 34.7064 10.7523 34.1998 10.749H23.3115V23.1711H36.1139Z" fill="#FF9837"/>
<path d="M23.3115 25.0723V37.9506H34.1998C34.7064 37.9473 35.1914 37.7446 35.5496 37.3864C35.9078 37.0282 36.1105 36.5432 36.1139 36.0366V25.0723H23.3115Z" fill="#FF9837"/>
<path d="M21.2581 7.87115C20.2722 5.55996 18.7875 3.4953 16.9104 1.8249C16.0046 0.888698 14.8148 0.278171 13.526 0.0883402C12.7622 0.0599217 12.0104 0.284251 11.3871 0.726549C10.7637 1.16885 10.3037 1.80441 10.0783 2.53473C9.87964 3.10723 9.81746 3.7182 9.89668 4.31897C9.9759 4.91975 10.1943 5.49373 10.5346 5.99517C11.4832 6.96748 12.7763 7.52751 14.1344 7.55426C16.6696 7.83312 19.0399 8.12466 21.4863 8.59366C21.4469 8.34275 21.3699 8.0992 21.2581 7.87115ZM12.1063 3.76426C12.0339 3.62909 11.9988 3.47703 12.0048 3.32378C12.0107 3.17053 12.0574 3.02164 12.1401 2.89247C12.2227 2.76329 12.3384 2.65851 12.4751 2.58894C12.6117 2.51937 12.7645 2.48754 12.9176 2.4967C14.1851 2.43333 15.1231 3.67553 16.0358 4.36002C16.9283 4.99749 17.7754 5.69633 18.5709 6.45148C18.1637 6.30122 17.7366 6.21154 17.3033 6.18529C16.5935 6.03319 15.8964 5.84305 15.1992 5.64024C14.1673 5.46827 13.1978 5.03152 12.3852 4.37268C12.2516 4.19109 12.1567 3.98401 12.1063 3.76426Z" fill="#FF9837"/>
<path d="M22.7539 8.55632C25.213 8.08732 27.6213 7.79578 30.1184 7.51692C31.4754 7.48479 32.7665 6.92559 33.7183 5.95782C34.0549 5.45477 34.2712 4.88096 34.3503 4.28086C34.4294 3.68076 34.3693 3.07051 34.1746 2.49739C33.9449 1.7672 33.482 1.1325 32.857 0.690611C32.2319 0.248724 31.4792 0.024037 30.7142 0.0510002C29.4263 0.243564 28.2373 0.853655 27.3298 1.78755C25.4793 3.46775 24.0173 5.53105 23.0454 7.83381C22.9116 8.05818 22.8133 8.3019 22.7539 8.55632ZM31.7789 4.34802C30.9692 5.01142 29.9983 5.44874 28.9649 5.61558C28.2678 5.81839 27.5706 6.00853 26.8608 6.16063C26.4275 6.18687 26.0005 6.27656 25.5932 6.42682C26.3914 5.67469 27.2383 4.97602 28.1284 4.33534C29.041 3.65086 29.9917 2.40865 31.2465 2.47203C31.3994 2.4645 31.5515 2.49719 31.6877 2.56683C31.824 2.63648 31.9395 2.74065 32.0229 2.86894C32.1063 2.99722 32.1546 3.14514 32.1629 3.29792C32.1713 3.4507 32.1394 3.60299 32.0705 3.73959C32.0153 3.95997 31.9161 4.16693 31.7789 4.34802Z" fill="#FF9837"/>
<path d="M20.054 9.22768C18.2783 9.48528 16.4781 9.52783 14.6922 9.35444C12.8879 9.03586 11.1269 8.50839 9.44453 7.78267C8.16073 7.41881 6.80551 7.38729 5.50618 7.69106C4.20685 7.99483 3.00606 8.62392 2.01664 9.51923C1.25975 10.3764 0.694167 11.3849 0.357577 12.4777C0.0209873 13.5706 -0.0788897 14.7226 0.0645987 15.857C0.394164 19.3808 3.32223 22.3469 0.825136 25.7693C0.825136 25.858 0.825137 26.0609 0.939217 26.0228C1.60245 25.8486 2.21954 25.5313 2.74724 25.0934C3.27494 24.6555 3.70048 24.1075 3.99403 23.4877C3.99919 24.618 3.75237 25.7351 3.27152 26.758C3.25795 26.7789 3.2502 26.803 3.24908 26.8278C3.24796 26.8527 3.2535 26.8774 3.26514 26.8993C3.27678 26.9213 3.29408 26.9398 3.31526 26.9528C3.33645 26.9659 3.36074 26.973 3.3856 26.9735C5.32497 27.2144 5.99677 24.5018 6.00945 23.0314C5.94021 21.8065 5.57952 20.6157 4.95737 19.5583C3.95727 18.0281 3.60193 16.1648 3.96868 14.374C4.13869 13.4818 4.50271 12.6378 5.03497 11.9018C5.56724 11.1658 6.25475 10.5559 7.04885 10.115C8.59527 9.27839 10.4586 9.67133 12.1191 9.96287C14.7992 10.5931 17.5985 10.5013 20.2314 9.69668C20.1548 9.54756 20.0952 9.39022 20.054 9.22768Z" fill="#FF9837"/>
<path d="M23.9578 9.22814C25.7292 9.48595 27.5252 9.52851 29.3069 9.3549C31.1112 9.03632 32.8722 8.50885 34.5546 7.78313C35.8383 7.41806 37.1938 7.38593 38.4933 7.68975C39.7929 7.99357 40.9937 8.62334 41.9825 9.51969C42.7393 10.3768 43.3049 11.3854 43.6415 12.4782C43.9781 13.571 44.078 14.723 43.9345 15.8575C43.6049 19.3813 40.6769 22.3474 43.174 25.7698C43.2373 25.8585 43.174 26.0613 43.0599 26.0233C42.3974 25.8474 41.781 25.5296 41.2535 25.0919C40.726 24.6541 40.3 24.1069 40.0051 23.4882C39.9999 24.6184 40.2467 25.7356 40.7276 26.7585C40.7276 26.8472 40.7276 26.9613 40.6262 26.974C38.6741 27.2148 38.0023 24.5022 37.9896 23.0319C38.065 21.808 38.4253 20.6187 39.0417 19.5587C40.0418 18.0285 40.3972 16.1653 40.0304 14.3744C39.8716 13.4749 39.5167 12.6213 38.991 11.8743C38.4652 11.1272 37.7815 10.5051 36.9883 10.0521C35.4419 9.21547 33.5659 9.60841 31.918 9.89995C29.2379 10.5296 26.4388 10.4378 23.8057 9.63376C23.8639 9.50151 23.9147 9.36609 23.9578 9.22814Z" fill="#FF9837"/>
<path d="M22.918 10.1782C22.918 10.427 22.8192 10.6656 22.6433 10.8415C22.4674 11.0174 22.2288 11.1162 21.98 11.1162C21.7334 11.1129 21.4981 11.0126 21.3249 10.8371C21.1517 10.6615 21.0547 10.4248 21.0547 10.1782C21.0547 9.93283 21.1522 9.69747 21.3257 9.52394C21.4992 9.35041 21.7346 9.25293 21.98 9.25293C22.2266 9.25291 22.4633 9.34998 22.6388 9.52316C22.8144 9.69633 22.9147 9.93167 22.918 10.1782Z" fill="#FF9837"/>
</svg>
