<svg width="50" height="39" viewBox="0 0 50 39" fill="none" xmlns="http://www.w3.org/2000/svg">
<path d="M49.2196 18.165C49.2196 18.165 49.2196 18.165 49.2196 18.0693L46.2003 4.91303V4.8174L36.8556 0.869141H36.5687L8.1522 20.5695C8.1522 20.5695 8.15219 20.5695 8.08389 20.6514L0.638209 30.8705C0.618561 30.9133 0.608398 30.9599 0.608398 31.0071C0.608398 31.0542 0.618561 31.1008 0.638209 31.1437C0.650749 31.1894 0.674988 31.2311 0.708523 31.2646C0.742058 31.2982 0.783735 31.3224 0.829473 31.335L20.6254 38.1659H20.7347C20.7879 38.1836 20.8454 38.1836 20.8987 38.1659L49.2742 18.4929C49.2742 18.4929 49.2742 18.4929 49.3425 18.4246L49.2196 18.165ZM8.52107 20.8973L16.8138 24.4767C13.7792 24.0203 10.9188 22.7715 8.52107 20.8564V20.8973ZM20.7074 37.3735L17.8384 24.8456L30.8718 15.8015C30.2467 17.1906 29.7127 18.619 29.2733 20.0776C28.5903 21.9766 27.9072 23.8893 27.2241 25.7609C26.0082 28.8348 24.9152 31.9907 23.9179 35.1466L20.7074 37.3735ZM24.3278 34.8734C25.5573 31.9361 26.418 28.8622 27.6066 25.9112C28.9728 22.4684 30.0657 18.9027 31.4592 15.4599C31.4579 15.4372 31.4579 15.4144 31.4592 15.3916L42.8259 7.50878C42.0612 9.61758 41.409 11.7655 40.8722 13.9435C40.5307 15.2004 40.2164 16.4573 39.8886 17.7141L39.8066 18.0693C39.6973 18.7114 39.6017 19.3536 39.506 19.9957C39.5977 19.7684 39.6753 19.5357 39.7383 19.2989C40.0798 18.0557 40.4487 16.8261 40.8176 15.5829C41.6373 12.8505 42.4433 10.1182 43.3723 7.38581C43.4002 7.35355 43.4156 7.31233 43.4156 7.26969C43.4156 7.22705 43.4002 7.18583 43.3723 7.15357L45.7631 5.48683L48.6458 18.0147L24.3278 34.8734Z" fill="white"/>
<path d="M27.3604 30.2421C27.3604 30.2421 27.6746 29.8459 27.8248 29.641C28.5489 27.865 29.0954 26.007 29.8195 24.1763C30.1883 23.2473 30.5845 22.3183 30.9671 21.4439C31.09 21.0204 31.213 20.5969 31.3223 20.1871C31.4316 19.7772 31.5545 19.1214 31.6638 18.5886C30.8988 20.4193 30.1747 22.25 29.4506 24.0533C28.7265 25.8567 28.1664 28.2612 27.3604 30.2421Z" fill="white"/>
<path d="M43.2361 9.69577C42.8351 11.7897 42.2733 13.8497 41.5557 15.8572C41.5557 15.8754 41.5629 15.8927 41.5757 15.9056C41.5885 15.9184 41.6059 15.9256 41.624 15.9256C41.6421 15.9256 41.6595 15.9184 41.6723 15.9056C41.6851 15.8927 41.6923 15.8754 41.6923 15.8572C42.0892 14.904 42.4134 13.9221 42.6623 12.92C43.0486 11.8482 43.3278 10.7407 43.4956 9.61381C43.5093 9.50451 43.2497 9.55916 43.2361 9.69577Z" fill="white"/>
</svg>
