<svg width="50" height="48" viewBox="0 0 50 48" fill="none" xmlns="http://www.w3.org/2000/svg">
<path d="M20.1277 12.1047C20.9875 12.7383 21.8324 13.3719 22.6621 14.0206L25.0306 15.8158C25.9357 15.1973 26.8559 14.6089 27.7611 14.0055C28.6662 13.4021 29.6921 12.7081 30.6726 12.0896L33.6898 10.2189C34.6855 9.61551 35.6661 8.9819 36.707 8.39355H14.9834C15.8584 8.99699 16.7032 9.61551 17.5782 10.234L20.1277 12.1047Z" fill="#B177FF"/>
<path d="M14.7871 21.0501C17.9401 19.5415 21.1081 18.033 24.2761 16.5244H18.7999C16.8539 16.5244 15.0436 16.5244 13.4294 16.4339C13.6557 17.0825 13.8971 17.7162 14.1083 18.3648C14.2289 18.742 14.3496 19.104 14.4552 19.4812C14.5608 19.8583 14.6815 20.2355 14.7871 20.6126C14.591 20.2657 14.4251 19.9187 14.244 19.5717C14.063 19.2247 13.9121 18.8627 13.7462 18.5157C13.4244 17.8218 13.1226 17.1278 12.841 16.4339H12.7053L8.39072 16.3283L12.7053 16.0416H12.826C13.1277 14.8951 13.4294 13.7486 13.7764 12.6171C14.1233 11.4857 14.5307 10.2939 14.9832 9.14741C14.8022 10.3694 14.5457 11.5611 14.2742 12.7529C14.0027 13.9447 13.716 14.9404 13.3992 16.0265L18.7999 15.9511H24.2007L22.3451 14.4425L19.871 12.4663L17.412 10.4599C16.5974 9.78101 15.7828 9.10215 14.9832 8.4082L5.52441 16.1774L5.99207 16.9317L10.5178 18.9984L14.7871 21.0501Z" fill="#B177FF"/>
<path d="M30.9285 12.467C29.9781 13.1459 29.0126 13.7795 28.0622 14.4432L25.9502 15.9518H32.769L37.4909 16.0273C37.2797 14.921 37.0986 13.8197 36.9478 12.7234C36.7969 11.6272 36.6762 10.4354 36.5857 9.14811C36.9176 10.3147 37.2042 11.4764 37.4456 12.6329C37.6719 13.7644 37.868 14.8958 38.049 16.0273H38.8637L43.1782 16.1329L38.8637 16.2385H38.0339C37.7322 16.9324 37.4305 17.6113 37.1137 18.3052C36.9478 18.6522 36.7969 19.0142 36.6159 19.3612C36.4348 19.7082 36.2689 20.0552 36.0728 20.4021C36.1633 20.025 36.284 19.6478 36.4047 19.2707C36.5254 18.8936 36.631 18.5315 36.7516 18.1544C36.9628 17.5207 37.2042 16.8721 37.4456 16.2385H32.769H26.0407L28.0924 17.0983L30.8078 18.3052C32.5729 19.0897 34.3228 19.9194 36.0728 20.7491C37.7473 19.9194 39.4369 19.0897 41.1265 18.3203C42.8162 17.5509 44.3096 16.8117 45.9238 16.163L46.0596 15.9518L36.5857 8.18262C35.6655 8.89165 34.7151 9.55543 33.7797 10.2494L30.9285 12.467Z" fill="#B177FF"/>
<path d="M45.8638 16.4648C44.3552 17.3097 42.8466 18.1243 41.3381 18.9238C39.8295 19.7234 37.9287 20.6738 36.2089 21.5337H36.0882H35.9826C35.9826 21.6695 35.8468 21.8505 35.7563 22.0919C35.53 22.6048 35.2283 23.344 34.821 24.234C34.4137 25.1241 33.9762 26.1499 33.4783 27.2512C32.9805 28.3525 32.4072 29.5141 31.8491 30.6757L30.2047 34.1454C29.6616 35.2165 29.1185 36.2122 28.6961 37.0721C28.2737 37.932 27.8513 38.5807 27.5798 39.1238L27.1423 39.8931L27.4742 39.0785C27.7005 38.5656 28.0022 37.8113 28.3944 36.9363C28.7867 36.0613 29.2392 35.0204 29.7521 33.9191C30.2651 32.8179 30.8232 31.6563 31.3814 30.4947C31.9396 29.3331 32.5128 28.1865 33.0559 27.1154C33.599 26.0443 34.1421 25.0336 34.5645 24.1888C34.9869 23.344 35.4093 22.6802 35.6809 22.122L35.9826 21.6091C34.2025 20.7492 32.4223 19.8893 30.6573 18.9993L28.0173 17.6415L25.9354 16.5252H25.8298C25.8298 18.8585 25.7997 21.1968 25.7393 23.5401L25.679 30.7511L25.513 38.0376L25.332 41.6884L25.2113 45.324V41.6884V38.0376V30.736V23.4496C25.2113 21.1716 25.2113 18.9238 25.2113 16.6006C21.7717 18.2299 18.3322 19.8742 14.8775 21.4583L15.2094 22.0768C15.4809 22.5897 15.8732 23.2987 16.3107 24.1888C16.7482 25.0789 17.2762 26.0896 17.8192 27.206C18.3623 28.3223 18.9205 29.499 19.4636 30.6908C20.0067 31.8826 20.5649 33.0743 21.0627 34.1907C21.5605 35.307 21.998 36.3781 22.3903 37.2079C22.7825 38.0376 23.0691 38.8824 23.2954 39.4104L23.6122 40.2401L23.1898 39.4556C22.9183 38.9427 22.526 38.2186 22.0885 37.3436C21.6511 36.4687 21.123 35.4428 20.58 34.3265C20.0369 33.2101 19.4938 32.0485 18.9356 30.8567C18.3774 29.6649 17.8343 28.4732 17.3365 27.3417C16.8387 26.2103 16.4012 25.1694 16.0089 24.3246C15.6167 23.4798 15.3301 22.65 15.1038 22.122C14.8775 21.594 14.9077 21.6091 14.8624 21.4733H14.7719L10.4121 19.2256C8.90352 18.4713 7.51562 17.717 6.06738 16.9325L25.3018 47.7227L45.8638 16.4648Z" fill="#B177FF"/>
<path d="M46.8745 5.13498L49.4843 4.33543L46.8292 3.53588L47.5232 2.2385L46.2409 2.93245L45.4263 0.277344L44.6267 2.97771L43.3293 2.32902L44.1138 3.59623L41.3682 4.51646L44.144 5.18024L43.5104 6.43236L44.7172 5.70824L45.6073 8.39352L46.2711 5.67807L47.5232 6.34185L46.8745 5.13498Z" fill="#B177FF"/>
<path d="M6.02195 30.0119L8.6318 29.2124L5.97669 28.4128L6.67064 27.1155L5.38835 27.8094L4.57371 25.1543L3.75908 27.8547L2.47678 27.206L3.24616 28.4732L0.515625 29.3934L3.27633 30.0572L2.65781 31.3093L3.84959 30.5852L4.75474 33.2705L5.41852 30.555L6.67064 31.2188L6.02195 30.0119Z" fill="#B177FF"/>
</svg>
