<svg width="50" height="49" viewBox="0 0 50 49" fill="none" xmlns="http://www.w3.org/2000/svg">
<path d="M20.073 12.6379C20.9329 13.2715 21.7777 13.9051 22.6074 14.5538L24.9759 16.349C25.881 15.7305 26.8012 15.1421 27.7064 14.5387C28.6115 13.9353 29.6374 13.2413 30.618 12.6228L33.6351 10.7521C34.6308 10.1487 35.6114 9.51511 36.6523 8.92676H14.9287C15.8037 9.53019 16.6485 10.1487 17.5235 10.7672L20.073 12.6379Z" fill="white"/>
<path d="M14.7324 21.5833C17.8854 20.0747 21.0534 18.5662 24.2214 17.0576H18.7453C16.7992 17.0576 14.9889 17.0576 13.3747 16.9671C13.601 17.6158 13.8424 18.2494 14.0536 18.8981C14.1743 19.2752 14.2949 19.6373 14.4005 20.0144C14.5061 20.3915 14.6268 20.7687 14.7324 21.1458C14.5363 20.7989 14.3704 20.4519 14.1893 20.1049C14.0083 19.7579 13.8574 19.3959 13.6915 19.0489C13.3697 18.355 13.068 17.661 12.7864 16.9671H12.6506L8.33604 16.8615L12.6506 16.5748H12.7713C13.073 15.4283 13.3747 14.2818 13.7217 13.1504C14.0687 12.0189 14.476 10.8271 14.9285 9.68061C14.7475 10.9026 14.4911 12.0943 14.2195 13.2861C13.948 14.4779 13.6613 15.4736 13.3445 16.5597L18.7453 16.4843H24.146L22.2904 14.9757L19.8164 12.9995L17.3574 10.9931C16.5427 10.3142 15.7281 9.63535 14.9285 8.94141L5.46973 16.7106L5.93738 17.4649L10.4631 19.5317L14.7324 21.5833Z" fill="white"/>
<path d="M30.8738 13.0002C29.9234 13.6791 28.9579 14.3127 28.0075 14.9764L25.8955 16.485H32.7143L37.4362 16.5605C37.225 15.4542 37.0439 14.3529 36.8931 13.2567C36.7422 12.1604 36.6215 10.9686 36.531 9.68131C36.8629 10.848 37.1495 12.0096 37.3909 13.1661C37.6172 14.2976 37.8133 15.429 37.9943 16.5605H38.809L43.1235 16.6661L38.809 16.7717H37.9793C37.6775 17.4656 37.3758 18.1445 37.059 18.8384C36.8931 19.1854 36.7422 19.5474 36.5612 19.8944C36.3802 20.2414 36.2142 20.5884 36.0181 20.9353C36.1086 20.5582 36.2293 20.181 36.35 19.8039C36.4707 19.4268 36.5763 19.0647 36.697 18.6876C36.9082 18.054 37.1495 17.4053 37.3909 16.7717H32.7143H25.986L28.0377 17.6315L30.7531 18.8384C32.5182 19.6229 34.2681 20.4526 36.0181 21.2823C37.6926 20.4526 39.3822 19.6229 41.0719 18.8535C42.7615 18.0841 44.255 17.3449 45.8691 16.6962L46.0049 16.485L36.531 8.71582C35.6108 9.42485 34.6604 10.0886 33.7251 10.7826L30.8738 13.0002Z" fill="white"/>
<path d="M45.8091 16.998C44.3005 17.8429 42.792 18.6575 41.2834 19.457C39.7748 20.2566 37.874 21.207 36.1542 22.0669H36.0335H35.9279C35.9279 22.2027 35.7921 22.3837 35.7016 22.6251C35.4753 23.138 35.1736 23.8772 34.7663 24.7673C34.359 25.6573 33.9215 26.6832 33.4237 27.7844C32.9258 28.8857 32.3526 30.0473 31.7944 31.2089L30.15 34.6786C29.6069 35.7497 29.0639 36.7454 28.6414 37.6053C28.219 38.4652 27.7966 39.1139 27.5251 39.657L27.0876 40.4263L27.4195 39.6117C27.6458 39.0988 27.9475 38.3445 28.3397 37.4695C28.732 36.5945 29.1845 35.5536 29.6975 34.4524C30.2104 33.3511 30.7685 32.1895 31.3267 31.0279C31.8849 29.8663 32.4582 28.7197 33.0013 27.6486C33.5443 26.5776 34.0874 25.5668 34.5098 24.722C34.9322 23.8772 35.3546 23.2134 35.6262 22.6552L35.9279 22.1423C34.1478 21.2824 32.3677 20.4225 30.6026 19.5325L27.9626 18.1747L25.8807 17.0584H25.7751C25.7751 19.3917 25.745 21.73 25.6846 24.0733L25.6243 31.2843L25.4583 38.5708L25.2773 42.2216L25.1566 45.8572V42.2216V38.5708V31.2692V23.9828C25.1566 21.7048 25.1566 19.457 25.1566 17.1338C21.7171 18.7631 18.2775 20.4074 14.8228 21.9915L15.1547 22.61C15.4263 23.1229 15.8185 23.8319 16.256 24.722C16.6935 25.6121 17.2215 26.6228 17.7646 27.7392C18.3077 28.8555 18.8658 30.0322 19.4089 31.224C19.952 32.4158 20.5102 33.6075 21.008 34.7239C21.5059 35.8402 21.9433 36.9113 22.3356 37.7411C22.7278 38.5708 23.0144 39.4156 23.2407 39.9436L23.5575 40.7733L23.1351 39.9888C22.8636 39.4759 22.4713 38.7518 22.0339 37.8768C21.5964 37.0019 21.0684 35.976 20.5253 34.8597C19.9822 33.7433 19.4391 32.5817 18.8809 31.3899C18.3227 30.1982 17.7796 29.0064 17.2818 27.8749C16.784 26.7435 16.3465 25.7026 15.9543 24.8578C15.562 24.013 15.2754 23.1832 15.0491 22.6552C14.8228 22.1272 14.853 22.1423 14.8077 22.0065H14.7172L10.3574 19.7588C8.84883 19.0045 7.46094 18.2502 6.0127 17.4657L25.2471 48.2559L45.8091 16.998Z" fill="white"/>
<path d="M46.8198 5.66818L49.4297 4.86863L46.7745 4.06909L47.4685 2.7717L46.1862 3.46565L45.3716 0.810547L44.572 3.51091L43.2746 2.86222L44.0591 4.12943L41.3135 5.04966L44.0893 5.71344L43.4557 6.96556L44.6625 6.24144L45.5526 8.92672L46.2164 6.21127L47.4685 6.87505L46.8198 5.66818Z" fill="white"/>
<path d="M5.96726 30.5451L8.57711 29.7456L5.92201 28.946L6.61596 27.6487L5.33366 28.3426L4.51903 25.6875L3.70439 28.3879L2.4221 27.7392L3.19147 29.0064L0.460938 29.9266L3.22164 30.5904L2.60313 31.8425L3.79491 31.1184L4.70006 33.8037L5.36383 31.0882L6.61596 31.752L5.96726 30.5451Z" fill="white"/>
</svg>
