<svg width="121" height="106" viewBox="0 0 121 106" fill="none" xmlns="http://www.w3.org/2000/svg">
<path d="M59.35 105.256C61.5117 99.8955 62.747 94.05 62.747 87.8956C62.747 62.3073 42.0117 41.572 16.4235 41.572C10.6441 41.572 5.10731 42.675 0.0117188 44.6161V105.256H59.35Z" fill="#FEBECC"/>
<path d="M97.9083 9.91748H8.50391V77.6601H97.9083V9.91748Z" fill="white"/>
<path d="M103.931 5.92478C103.931 7.02772 103.489 8.02036 102.761 8.74831C102.033 9.47625 101.041 9.91742 99.9379 9.91742H6.45261C4.24673 9.91742 2.45996 8.13066 2.45996 5.92478C2.45996 4.82183 2.90114 3.82919 3.62908 3.10125C4.35702 2.37331 5.34967 1.93213 6.45261 1.93213H99.9379C102.144 1.93213 103.931 3.71889 103.931 5.92478Z" fill="#9BEAF9"/>
<path d="M32.9457 18.0576C23.0192 18.0576 14.9678 26.1091 14.9678 36.0356C14.9678 45.962 23.0192 54.0135 32.9457 54.0135C42.8722 54.0135 50.9237 45.962 50.9237 36.0356H32.9457V18.0576Z" fill="#FF9D9C"/>
<path d="M32.9453 18.0576V36.0356H50.9233C50.9012 26.1091 42.8718 18.0576 32.9453 18.0576Z" fill="#FDE4A1"/>
<path d="M99.938 0.255859H6.45272C4.97478 0.255859 3.5189 0.873506 2.48213 1.91027C1.42331 2.96909 0.805664 4.42498 0.805664 5.90292C0.805664 9.01321 3.34243 11.55 6.47478 11.55H6.84978V77.6603C6.84978 78.5647 7.59978 79.3147 8.50419 79.3147H51.541V93.2779L41.3057 102.146C40.6218 102.741 40.5336 103.778 41.1292 104.484C41.4601 104.859 41.9233 105.057 42.3865 105.057C42.7615 105.057 43.1586 104.925 43.4674 104.66L51.541 97.6676V103.403C51.541 104.307 52.291 105.057 53.1954 105.057C54.0998 105.057 54.8498 104.307 54.8498 103.403V97.6676L62.9233 104.66C63.2321 104.925 63.6292 105.057 64.0042 105.057C64.4674 105.057 64.9307 104.859 65.2615 104.484C65.8571 103.8 65.791 102.741 65.0851 102.146L54.8498 93.2779V79.3147H97.8865C98.791 79.3147 99.541 78.5647 99.541 77.6603V11.55H99.938C101.416 11.55 102.872 10.9544 103.909 9.89556C104.967 8.8588 105.585 7.40292 105.563 5.90292C105.585 2.79262 103.048 0.255859 99.938 0.255859ZM101.592 7.55733C101.129 8.02057 100.578 8.24115 99.938 8.24115H26.813C25.9086 8.24115 25.1586 8.99115 25.1586 9.89556C25.1586 10.822 25.9086 11.55 26.813 11.55H96.2542V76.0059H10.1586V11.55H17.9895C18.8939 11.55 19.6439 10.822 19.6439 9.89556C19.6439 8.99115 18.8939 8.24115 17.9895 8.24115H6.47478C5.17331 8.24115 4.13655 7.20439 4.11449 5.90292C4.13655 5.26321 4.35713 4.71174 4.82037 4.24851C5.28361 3.80733 5.83508 3.56468 6.47478 3.56468H99.938C101.239 3.56468 102.276 4.62351 102.276 5.90292C102.276 6.54262 102.056 7.09409 101.592 7.55733Z" fill="#505050"/>
<path d="M22.4015 11.55C23.3152 11.55 24.0559 10.8093 24.0559 9.89562C24.0559 8.98192 23.3152 8.24121 22.4015 8.24121C21.4878 8.24121 20.7471 8.98192 20.7471 9.89562C20.7471 10.8093 21.4878 11.55 22.4015 11.55Z" fill="#505050"/>
<path d="M13.3135 36.0357C13.3135 46.8666 22.1149 55.668 32.9458 55.668C43.7767 55.668 52.5782 46.8666 52.5782 36.0357C52.5782 25.2048 43.7767 16.4033 32.9458 16.4033C22.1149 16.4033 13.3135 25.2048 13.3135 36.0357ZM49.1811 34.3813H34.6002V19.8004C42.2767 20.5724 48.4091 26.7048 49.1811 34.3813ZM31.2914 19.8004V36.0357C31.2914 36.9401 32.0414 37.6901 32.9458 37.6901H49.1811C48.3429 45.918 41.3944 52.3592 32.9458 52.3592C23.9458 52.3592 16.6223 45.0357 16.6223 36.0357C16.6223 27.5871 23.0635 20.6166 31.2914 19.8004Z" fill="#505050"/>
<path d="M47.813 58.4692H20.8351C19.9307 58.4692 19.1807 59.2192 19.1807 60.1237C19.1807 61.0281 19.9307 61.7781 20.8351 61.7781H47.791C48.6954 61.7781 49.4454 61.0281 49.4454 60.1237C49.4454 59.2192 48.7174 58.4692 47.813 58.4692Z" fill="#505050"/>
<path d="M47.813 64.2927H20.8351C19.9307 64.2927 19.1807 65.0427 19.1807 65.9471C19.1807 66.8515 19.9307 67.6015 20.8351 67.6015H47.791C48.6954 67.6015 49.4454 66.8515 49.4454 65.9471C49.4454 65.0427 48.7174 64.2927 47.813 64.2927Z" fill="#505050"/>
<path d="M47.813 70.094H20.8351C19.9307 70.094 19.1807 70.844 19.1807 71.7484C19.1807 72.6528 19.9307 73.4028 20.8351 73.4028H47.791C48.6954 73.4028 49.4454 72.6528 49.4454 71.7484C49.4454 70.844 48.7174 70.094 47.813 70.094Z" fill="#505050"/>
<path d="M80.4157 44.5058C77.7907 44.5058 75.6731 42.3661 75.6731 39.7631C75.6731 38.8587 74.9231 38.1087 74.0187 38.1087C73.1143 38.1087 72.3643 38.8587 72.3643 39.7631C72.3643 43.6455 75.1216 46.8881 78.7613 47.6381V49.447C78.7613 50.3514 79.5113 51.1014 80.4157 51.1014C81.3201 51.1014 82.0701 50.3514 82.0701 49.447V47.6381C85.7098 46.8661 88.4672 43.6234 88.4672 39.7631C88.4672 35.3293 84.8496 31.7117 80.4157 31.7117C77.7907 31.7117 75.6731 29.572 75.6731 26.969C75.6731 24.3661 77.8128 22.2264 80.4157 22.2264C83.0187 22.2264 85.1584 24.3661 85.1584 26.969C85.1584 27.8734 85.9084 28.6234 86.8128 28.6234C87.7172 28.6234 88.4672 27.8734 88.4672 26.969C88.4672 23.0867 85.7098 19.844 82.0701 19.094V17.2411C82.0701 16.3367 81.3201 15.5867 80.4157 15.5867C79.5113 15.5867 78.7613 16.3367 78.7613 17.2411V19.0499C75.0996 19.822 72.3643 23.0646 72.3643 26.9249C72.3643 31.3587 75.9819 34.9764 80.4157 34.9764C83.0407 34.9764 85.1584 37.1161 85.1584 39.719C85.1584 42.322 83.0407 44.5058 80.4157 44.5058Z" fill="#505050"/>
<circle cx="96.4197" cy="73.4139" r="24.0535" fill="#FF6565"/>
<path d="M95.1152 73.1501V74.7771C95.1152 75.5564 95.0378 76.2218 94.8828 76.7732C94.7324 77.3201 94.5137 77.7644 94.2266 78.1062C93.9395 78.448 93.5954 78.6986 93.1944 78.8582C92.7979 79.0177 92.3535 79.0974 91.8613 79.0974C91.4694 79.0974 91.1048 79.0473 90.7676 78.947C90.4349 78.8468 90.1341 78.6895 89.8652 78.4753C89.5964 78.2611 89.3662 77.9854 89.1748 77.6482C88.988 77.3064 88.8421 76.8985 88.7373 76.4246C88.6371 75.9506 88.5869 75.4014 88.5869 74.7771V73.1501C88.5869 72.3663 88.6644 71.7055 88.8194 71.1677C88.9743 70.6254 89.1953 70.1856 89.4824 69.8484C89.7695 69.5066 90.1113 69.2582 90.5078 69.1033C90.9089 68.9483 91.3555 68.8708 91.8477 68.8708C92.2442 68.8708 92.6087 68.921 92.9414 69.0212C93.2787 69.1169 93.5794 69.2696 93.8438 69.4792C94.1126 69.6889 94.3405 69.9623 94.5274 70.2996C94.7188 70.6322 94.8646 71.0356 94.9649 71.5095C95.0651 71.9789 95.1152 72.5258 95.1152 73.1501ZM93.4678 75.0095V72.9041C93.4678 72.5076 93.445 72.1589 93.3994 71.8582C93.3539 71.5528 93.2855 71.2953 93.1944 71.0857C93.1078 70.8715 92.9984 70.6983 92.8662 70.5662C92.7341 70.4294 92.5837 70.3315 92.4151 70.2722C92.2464 70.2084 92.0573 70.1765 91.8477 70.1765C91.5925 70.1765 91.3646 70.2266 91.1641 70.3269C90.9636 70.4226 90.7949 70.5776 90.6582 70.7917C90.5215 71.0059 90.4167 71.2885 90.3438 71.6394C90.2754 71.9858 90.2412 72.4073 90.2412 72.9041V75.0095C90.2412 75.4106 90.264 75.7638 90.3096 76.0691C90.3552 76.3744 90.4235 76.6365 90.5147 76.8552C90.6058 77.0694 90.7152 77.2472 90.8428 77.3884C90.9749 77.5251 91.1253 77.6254 91.294 77.6892C91.4671 77.753 91.6563 77.7849 91.8613 77.7849C92.1211 77.7849 92.3513 77.7348 92.5518 77.6345C92.7523 77.5343 92.9209 77.3748 93.0576 77.156C93.1944 76.9327 93.2969 76.6433 93.3652 76.2878C93.4336 75.9324 93.4678 75.5063 93.4678 75.0095ZM103.257 77.6482V78.9607H96.585V77.8328L99.8252 74.2986C100.181 73.8975 100.461 73.5512 100.666 73.2595C100.871 72.9679 101.015 72.7058 101.097 72.4734C101.183 72.2364 101.227 72.0063 101.227 71.783C101.227 71.4685 101.167 71.1928 101.049 70.9558C100.935 70.7143 100.766 70.5251 100.543 70.3884C100.32 70.2472 100.049 70.1765 99.7295 70.1765C99.3604 70.1765 99.0505 70.2563 98.7998 70.4158C98.5492 70.5753 98.36 70.7963 98.2324 71.0789C98.1048 71.3569 98.041 71.6759 98.041 72.0359H96.3936C96.3936 71.4571 96.5257 70.9285 96.7901 70.45C97.0544 69.9669 97.4372 69.5841 97.9385 69.3015C98.4398 69.0144 99.0436 68.8708 99.75 68.8708C100.415 68.8708 100.98 68.9825 101.445 69.2058C101.91 69.4291 102.263 69.7458 102.505 70.156C102.751 70.5662 102.874 71.0515 102.874 71.6121C102.874 71.922 102.824 72.2296 102.724 72.5349C102.623 72.8403 102.48 73.1456 102.293 73.4509C102.111 73.7517 101.894 74.0548 101.644 74.3601C101.393 74.6609 101.117 74.9662 100.816 75.2761L98.6631 77.6482H103.257Z" fill="white"/>
</svg>
