<svg width="79" height="78" viewBox="0 0 79 78" fill="none" xmlns="http://www.w3.org/2000/svg">
<path d="M40.7613 60.6759C41.1936 60.6759 41.544 60.3254 41.544 59.8931C41.544 59.4608 41.1936 59.1104 40.7613 59.1104C40.329 59.1104 39.9785 59.4608 39.9785 59.8931C39.9785 60.3254 40.329 60.6759 40.7613 60.6759Z" fill="#231F20"/>
<path d="M44.723 59.1104C44.5688 59.1104 44.4181 59.1561 44.2899 59.2417C44.1616 59.3274 44.0617 59.4492 44.0027 59.5916C43.9437 59.7341 43.9283 59.8909 43.9583 60.0421C43.9884 60.1933 44.0627 60.3322 44.1717 60.4413C44.2807 60.5503 44.4197 60.6246 44.5709 60.6546C44.7221 60.6847 44.8789 60.6693 45.0213 60.6103C45.1638 60.5513 45.2856 60.4513 45.3712 60.3231C45.4569 60.1949 45.5026 60.0442 45.5026 59.89C45.5026 59.6832 45.4205 59.4849 45.2743 59.3387C45.1281 59.1925 44.9298 59.1104 44.723 59.1104Z" fill="#231F20"/>
<path d="M48.6119 60.6759C49.0442 60.6759 49.3946 60.3254 49.3946 59.8931C49.3946 59.4608 49.0442 59.1104 48.6119 59.1104C48.1796 59.1104 47.8291 59.4608 47.8291 59.8931C47.8291 60.3254 48.1796 60.6759 48.6119 60.6759Z" fill="#231F20"/>
<path d="M32.3376 54.4063C31.388 54.4082 30.4552 54.657 29.6307 55.1282V49.6707C29.6307 49.464 29.5486 49.2657 29.4024 49.1195C29.2561 48.9733 29.0578 48.8911 28.8511 48.8911H21.8016C21.6449 48.8913 21.4919 48.9387 21.3625 49.0271C21.2332 49.1155 21.1335 49.2409 21.0764 49.3868C21.0193 49.5328 21.0076 49.6925 21.0426 49.8453C21.0777 49.998 21.158 50.1366 21.273 50.243C21.6782 50.61 22.002 51.0578 22.2236 51.5576C22.4452 52.0574 22.5596 52.5981 22.5594 53.1448C22.5594 54.1944 22.1425 55.201 21.4003 55.9431C20.6581 56.6853 19.6516 57.1022 18.602 57.1022C17.5524 57.1022 16.5458 56.6853 15.8036 55.9431C15.0615 55.201 14.6445 54.1944 14.6445 53.1448C14.6444 52.5981 14.7588 52.0574 14.9804 51.5576C15.2019 51.0578 15.5257 50.61 15.9309 50.243C16.046 50.1366 16.1262 49.998 16.1613 49.8453C16.1964 49.6925 16.1846 49.5328 16.1276 49.3868C16.0705 49.2409 15.9708 49.1155 15.8414 49.0271C15.7121 48.9387 15.559 48.8913 15.4023 48.8911H8.35288C8.14611 48.8911 7.9478 48.9733 7.80159 49.1195C7.65538 49.2657 7.57324 49.464 7.57324 49.6707V67.0488C7.57324 68.0827 7.98394 69.0742 8.71499 69.8053C9.44604 70.5363 10.4376 70.947 11.4714 70.947H28.8511C29.0578 70.947 29.2561 70.8649 29.4024 70.7187C29.5486 70.5725 29.6307 70.3742 29.6307 70.1674V64.7099C30.3651 65.1247 31.1849 65.3654 32.027 65.4135C32.869 65.4617 33.7109 65.3159 34.4877 64.9875C35.2646 64.659 35.9557 64.1567 36.5079 63.5192C37.0601 62.8816 37.4586 62.1258 37.6728 61.3101C37.8869 60.4943 37.911 59.6402 37.7432 58.8136C37.5753 57.9871 37.2201 57.21 36.7047 56.5424C36.1893 55.8747 35.5276 55.3342 34.7705 54.9626C34.0134 54.5909 33.181 54.3979 32.3376 54.3985V54.4063Z" fill="#231F20"/>
<path d="M32.3379 63.88C31.7889 63.8802 31.246 63.7646 30.7446 63.5408C30.2433 63.317 29.7948 62.99 29.4283 62.5811C29.3216 62.4661 29.183 62.3856 29.0302 62.3498C28.8774 62.3139 28.7174 62.3245 28.5707 62.38C28.4239 62.4366 28.2977 62.5363 28.2087 62.666C28.1196 62.7957 28.0719 62.9493 28.0717 63.1066V69.3874H11.4717C10.8514 69.3874 10.2565 69.141 9.81786 68.7023C9.37923 68.2637 9.13281 67.6688 9.13281 67.0485V50.4531H13.7935C13.3265 51.2741 13.0825 52.203 13.0856 53.1475C13.0856 54.6107 13.6668 56.0139 14.7014 57.0484C15.736 58.083 17.1392 58.6643 18.6023 58.6643C20.0654 58.6643 21.4686 58.083 22.5032 57.0484C23.5378 56.0139 24.119 54.6107 24.119 53.1475C24.1221 52.203 23.878 51.2741 23.4111 50.4531H28.0717V56.737C28.0716 56.8946 28.1192 57.0485 28.2082 57.1785C28.2973 57.3085 28.4237 57.4084 28.5707 57.4652C28.7174 57.5207 28.8774 57.5313 29.0302 57.4954C29.183 57.4596 29.3216 57.379 29.4283 57.264C29.7948 56.8552 30.2433 56.5282 30.7446 56.3044C31.246 56.0806 31.7889 55.965 32.3379 55.9652C32.8576 55.9652 33.3722 56.0675 33.8524 56.2664C34.3325 56.4653 34.7688 56.7568 35.1362 57.1243C35.5037 57.4917 35.7952 57.928 35.9941 58.4081C36.193 58.8883 36.2953 59.4029 36.2953 59.9226C36.2953 60.4423 36.193 60.9569 35.9941 61.437C35.7952 61.9172 35.5037 62.3534 35.1362 62.7209C34.7688 63.0884 34.3325 63.3799 33.8524 63.5788C33.3722 63.7777 32.8576 63.88 32.3379 63.88Z" fill="#00A1D3"/>
<path d="M70.7241 48.894H65.276C65.7476 48.07 65.9944 47.1365 65.9917 46.1871C65.9917 44.724 65.4105 43.3208 64.3759 42.2862C63.3413 41.2516 61.9381 40.6704 60.475 40.6704C59.0119 40.6704 57.6087 41.2516 56.5741 42.2862C55.5395 43.3208 54.9583 44.724 54.9583 46.1871C54.9557 47.1365 55.2025 48.07 55.674 48.894H50.2259C50.0192 48.894 49.8208 48.9762 49.6746 49.1224C49.5284 49.2686 49.4463 49.4669 49.4463 49.6736V56.7231C49.4465 56.8798 49.4939 57.0328 49.5823 57.1622C49.6707 57.2915 49.7961 57.3913 49.942 57.4483C50.088 57.5054 50.2477 57.5172 50.4004 57.4821C50.5531 57.447 50.6918 57.3667 50.7982 57.2517C51.165 56.8466 51.6125 56.5229 52.112 56.3013C52.6116 56.0797 53.152 55.9653 53.6984 55.9653C54.748 55.9653 55.7546 56.3823 56.4968 57.1244C57.2389 57.8666 57.6559 58.8732 57.6559 59.9227C57.6559 60.9723 57.2389 61.9789 56.4968 62.7211C55.7546 63.4632 54.748 63.8802 53.6984 63.8802C53.152 63.8802 52.6116 63.7657 52.112 63.5442C51.6125 63.3226 51.165 62.9989 50.7982 62.5938C50.6918 62.4788 50.5531 62.3985 50.4004 62.3634C50.2477 62.3283 50.088 62.3401 49.942 62.3972C49.7961 62.4542 49.6707 62.5539 49.5823 62.6833C49.4939 62.8127 49.4465 62.9657 49.4463 63.1224V70.1672C49.4463 70.3739 49.5284 70.5722 49.6746 70.7185C49.8208 70.8647 50.0192 70.9468 50.2259 70.9468H67.6056C68.6394 70.9468 69.631 70.5361 70.362 69.8051C71.0931 69.074 71.5038 68.0825 71.5038 67.0486V49.6736C71.5038 49.4669 71.4216 49.2686 71.2754 49.1224C71.1292 48.9762 70.9309 48.894 70.7241 48.894Z" fill="#231F20"/>
<path d="M69.9448 67.0489C69.9448 67.6692 69.6984 68.2642 69.2597 68.7028C68.8211 69.1414 68.2262 69.3878 67.6059 69.3878H51.0059V64.7256C51.8263 65.1929 52.7546 65.4374 53.6987 65.4351C54.4232 65.4351 55.1406 65.2924 55.8099 65.0151C56.4792 64.7379 57.0874 64.3315 57.5996 63.8193C58.1119 63.307 58.5183 62.6988 58.7955 62.0295C59.0727 61.3602 59.2154 60.6428 59.2154 59.9184C59.2154 59.1939 59.0727 58.4765 58.7955 57.8072C58.5183 57.1379 58.1119 56.5297 57.5996 56.0175C57.0874 55.5052 56.4792 55.0988 55.8099 54.8216C55.1406 54.5444 54.4232 54.4017 53.6987 54.4017C52.7548 54.3995 51.8267 54.6435 51.0059 55.1096V50.4536H57.2897C57.447 50.4538 57.6006 50.4064 57.7304 50.3177C57.8603 50.229 57.9603 50.1031 58.0173 49.9566C58.0743 49.81 58.0856 49.6497 58.0498 49.4965C58.0141 49.3434 57.9328 49.2047 57.8168 49.0986C57.4079 48.7318 57.0809 48.283 56.8571 47.7814C56.6333 47.2798 56.5177 46.7367 56.5179 46.1874C56.5179 45.1378 56.9348 44.1312 57.677 43.3891C58.4192 42.6469 59.4257 42.23 60.4753 42.23C61.5249 42.23 62.5315 42.6469 63.2736 43.3891C64.0158 44.1312 64.4328 45.1378 64.4328 46.1874C64.4329 46.7367 64.3173 47.2798 64.0935 47.7814C63.8697 48.283 63.5428 48.7318 63.1339 49.0986C63.0179 49.2046 62.9367 49.3432 62.9009 49.4961C62.8651 49.6491 62.8763 49.8094 62.9331 49.9558C62.9899 50.1023 63.0896 50.2282 63.2192 50.317C63.3488 50.4059 63.5022 50.4535 63.6594 50.4536H69.9448V67.0489Z" fill="#D12200"/>
<path d="M45.634 37.0356C45.6935 35.626 46.2748 34.2889 47.265 33.284C48.2676 32.2255 49.0416 30.972 49.5389 29.6016C50.0362 28.2311 50.2462 26.773 50.1558 25.3179C50.0654 23.8628 49.6766 22.4418 49.0135 21.1435C48.3504 19.8451 47.4272 18.6971 46.3014 17.7708C45.0769 16.7654 43.6443 16.0448 42.1072 15.6611C40.5701 15.2774 38.9669 15.2401 37.4135 15.5519C35.5549 15.9302 33.8313 16.7988 32.4214 18.0676C31.0115 19.3364 29.9667 20.9593 29.3953 22.768C28.8239 24.5766 28.7467 26.5052 29.1718 28.3537C29.5968 30.2023 30.5086 31.9034 31.8126 33.2808C32.8033 34.287 33.3856 35.6249 33.4468 37.0356C32.9725 37.0907 32.5348 37.3171 32.2157 37.6723C31.8967 38.0275 31.7184 38.487 31.7144 38.9644V40.413C31.7152 40.9379 31.9241 41.4411 32.2953 41.8123C32.6665 42.1835 33.1697 42.3924 33.6947 42.3932H33.8506C33.9755 43.8182 34.6298 45.1447 35.6845 46.1111C36.7392 47.0774 38.1177 47.6134 39.5482 47.6134C40.9787 47.6134 42.3572 47.0774 43.4119 46.1111C44.4666 45.1447 45.1209 43.8182 45.2458 42.3932H45.4017C45.9267 42.3924 46.4299 42.1835 46.8011 41.8123C47.1723 41.4411 47.3812 40.9379 47.382 40.413V38.9644C47.3775 38.4846 47.197 38.0231 46.8748 37.6676C46.5526 37.312 46.1111 37.0871 45.634 37.0356Z" fill="#231F20"/>
<path d="M30.6039 24.3416C30.9202 22.5572 31.7674 20.9098 33.0348 19.6146C34.3022 18.3193 35.9309 17.4366 37.7079 17.0816C39.0358 16.8153 40.4061 16.8468 41.7203 17.1739C43.0344 17.501 44.2597 18.1154 45.3078 18.973C46.2687 19.7633 47.0567 20.7429 47.6227 21.8509C48.1888 22.9588 48.5207 24.1714 48.5979 25.4131C48.6752 26.6549 48.496 27.8992 48.0716 29.0688C47.6472 30.2383 46.9867 31.308 46.1311 32.2112C44.8793 33.4931 44.1476 35.1938 44.0776 36.9842H42.4512V30.2341H43.0173C43.5823 30.2349 44.1246 30.0114 44.5248 29.6125C44.9251 29.2137 45.1507 28.6723 45.1519 28.1072V27.9108C45.1519 27.3467 44.9278 26.8057 44.529 26.4069C44.1301 26.008 43.5891 25.7839 43.0251 25.7839C42.461 25.7839 41.92 26.008 41.5212 26.4069C41.1223 26.8057 40.8982 27.3467 40.8982 27.9108V28.6764H38.1851V27.9108C38.1851 27.3467 37.961 26.8057 37.5621 26.4069C37.1633 26.008 36.6223 25.7839 36.0582 25.7839C35.4942 25.7839 34.9532 26.008 34.5543 26.4069C34.1555 26.8057 33.9314 27.3467 33.9314 27.9108V28.1088C33.9326 28.6728 34.1573 29.2133 34.5562 29.6119C34.9552 30.0105 35.4958 30.2348 36.0598 30.2356H36.6258V36.9857H34.9979C34.9269 35.1944 34.1947 33.4929 32.9428 32.2097C31.9606 31.1752 31.2368 29.9233 30.8304 28.556C30.4239 27.1886 30.3463 25.7446 30.6039 24.3416Z" fill="#FFBA50"/>
<path d="M36.6264 28.6749H36.0603C35.9857 28.6751 35.9117 28.6606 35.8427 28.6321C35.7736 28.6037 35.7109 28.5619 35.658 28.5092C35.6051 28.4565 35.5632 28.3938 35.5346 28.3249C35.5059 28.2559 35.4912 28.182 35.4912 28.1073V27.9108C35.4912 27.7603 35.551 27.6159 35.6574 27.5095C35.7639 27.4031 35.9083 27.3433 36.0588 27.3433C36.2093 27.3433 36.3537 27.4031 36.4601 27.5095C36.5666 27.6159 36.6264 27.7603 36.6264 27.9108V28.6749Z" fill="#FFBA50"/>
<path d="M40.8924 30.2339H38.1855V36.9855H40.8924V30.2339Z" fill="#FFBA50"/>
<path d="M42.4512 28.6749V27.9108C42.4512 27.7603 42.511 27.6159 42.6174 27.5095C42.7239 27.4031 42.8682 27.3433 43.0187 27.3433C43.1693 27.3433 43.3136 27.4031 43.4201 27.5095C43.5265 27.6159 43.5863 27.7603 43.5863 27.9108V28.1089C43.5863 28.1835 43.5716 28.2575 43.543 28.3264C43.5143 28.3954 43.4724 28.458 43.4195 28.5108C43.3667 28.5635 43.3039 28.6053 43.2349 28.6337C43.1658 28.6621 43.0919 28.6766 43.0172 28.6764L42.4512 28.6749Z" fill="#FFBA50"/>
<path d="M39.5387 46.0563C38.5215 46.0532 37.5403 45.6796 36.7787 45.0055C36.017 44.3314 35.527 43.4028 35.4004 42.3936H43.677C43.5504 43.4028 43.0604 44.3314 42.2987 45.0055C41.5371 45.6796 40.5559 46.0532 39.5387 46.0563Z" fill="#8D7F89"/>
<path d="M45.3845 38.5435H33.6915C33.459 38.5435 33.2705 38.7319 33.2705 38.9645V40.4115C33.2705 40.644 33.459 40.8325 33.6915 40.8325H45.3845C45.617 40.8325 45.8055 40.644 45.8055 40.4115V38.9645C45.8055 38.7319 45.617 38.5435 45.3845 38.5435Z" fill="#8D7F89"/>
<path d="M39.5384 14.0661C39.7452 14.0661 39.9435 13.9839 40.0897 13.8377C40.2359 13.6915 40.3181 13.4932 40.3181 13.2864V7.79624C40.3181 7.58947 40.2359 7.39116 40.0897 7.24495C39.9435 7.09874 39.7452 7.0166 39.5384 7.0166C39.3317 7.0166 39.1333 7.09874 38.9871 7.24495C38.8409 7.39116 38.7588 7.58947 38.7588 7.79624V13.2864C38.7588 13.4932 38.8409 13.6915 38.9871 13.8377C39.1333 13.9839 39.3317 14.0661 39.5384 14.0661Z" fill="#231F20"/>
<path d="M52.0303 26.5575C52.0303 26.7642 52.1124 26.9625 52.2586 27.1088C52.4048 27.255 52.6031 27.3371 52.8099 27.3371H58.3048C58.5116 27.3371 58.7099 27.255 58.8561 27.1088C59.0023 26.9625 59.0844 26.7642 59.0844 26.5575C59.0844 26.3507 59.0023 26.1524 58.8561 26.0062C58.7099 25.86 58.5116 25.7778 58.3048 25.7778H52.8099C52.6031 25.7778 52.4048 25.86 52.2586 26.0062C52.1124 26.1524 52.0303 26.3507 52.0303 26.5575Z" fill="#231F20"/>
<path d="M20.7728 27.3371H26.2677C26.4744 27.3371 26.6728 27.255 26.819 27.1088C26.9652 26.9625 27.0473 26.7642 27.0473 26.5575C27.0473 26.3507 26.9652 26.1524 26.819 26.0062C26.6728 25.86 26.4744 25.7778 26.2677 25.7778H20.7728C20.566 25.7778 20.3677 25.86 20.2215 26.0062C20.0753 26.1524 19.9932 26.3507 19.9932 26.5575C19.9932 26.7642 20.0753 26.9625 20.2215 27.1088C20.3677 27.255 20.566 27.3371 20.7728 27.3371Z" fill="#231F20"/>
<path d="M32.2285 15.4539C32.3319 15.6325 32.5019 15.7629 32.7012 15.8163C32.9006 15.8698 33.113 15.8421 33.2919 15.7392C33.471 15.6358 33.6016 15.4655 33.6552 15.2658C33.7087 15.0661 33.6807 14.8533 33.5773 14.6742L30.8298 9.91533C30.7811 9.82216 30.714 9.73981 30.6326 9.67323C30.5512 9.60666 30.4572 9.55724 30.3562 9.52794C30.2552 9.49865 30.1494 9.49008 30.045 9.50276C29.9406 9.51544 29.8399 9.5491 29.7488 9.60172C29.6578 9.65434 29.5784 9.72484 29.5153 9.80896C29.4522 9.89308 29.4068 9.98909 29.3818 10.0912C29.3567 10.1934 29.3526 10.2995 29.3697 10.4032C29.3868 10.507 29.4247 10.6062 29.4811 10.695L32.2285 15.4539Z" fill="#231F20"/>
<path d="M51.0325 20.7027C51.1694 20.7027 51.3038 20.6666 51.4223 20.5982L56.1813 17.8508C56.27 17.7996 56.3478 17.7314 56.4102 17.6501C56.4727 17.5689 56.5185 17.4761 56.545 17.3771C56.5716 17.2782 56.5784 17.175 56.5651 17.0734C56.5518 16.9718 56.5186 16.8738 56.4674 16.785C56.4162 16.6962 56.348 16.6184 56.2667 16.556C56.1855 16.4936 56.0927 16.4478 55.9938 16.4212C55.8948 16.3946 55.7916 16.3878 55.69 16.4012C55.5884 16.4145 55.4904 16.4477 55.4016 16.4989L50.6427 19.2479C50.4941 19.3337 50.3779 19.4662 50.3123 19.6247C50.2466 19.7833 50.2351 19.9591 50.2795 20.1248C50.3239 20.2906 50.4218 20.4371 50.5579 20.5416C50.6941 20.646 50.8609 20.7027 51.0325 20.7027Z" fill="#231F20"/>
<path d="M27.6552 32.5172L22.8963 35.2646C22.7171 35.368 22.5862 35.5384 22.5325 35.7383C22.4789 35.9381 22.5068 36.1511 22.6102 36.3304C22.7136 36.5097 22.884 36.6405 23.0838 36.6942C23.2837 36.7479 23.4967 36.7199 23.676 36.6165L28.4349 33.8675C28.5243 33.8167 28.6027 33.7487 28.6657 33.6675C28.7287 33.5862 28.775 33.4933 28.8019 33.3941C28.8289 33.2948 28.8359 33.1913 28.8227 33.0893C28.8094 32.9873 28.7761 32.889 28.7247 32.8C28.6733 32.7109 28.6048 32.6329 28.5231 32.5705C28.4414 32.508 28.3482 32.4623 28.2488 32.4361C28.1494 32.4098 28.0458 32.4034 27.9439 32.4173C27.842 32.4313 27.7439 32.4652 27.6552 32.5172Z" fill="#231F20"/>
<path d="M22.8963 17.8508L27.6552 20.5982C27.7439 20.6502 27.842 20.6842 27.9439 20.6981C28.0458 20.712 28.1494 20.7056 28.2488 20.6794C28.3482 20.6531 28.4414 20.6074 28.5231 20.545C28.6048 20.4825 28.6733 20.4045 28.7247 20.3155C28.7761 20.2264 28.8094 20.1281 28.8227 20.0261C28.8359 19.9242 28.8289 19.8206 28.8019 19.7214C28.775 19.6221 28.7287 19.5292 28.6657 19.448C28.6027 19.3667 28.5243 19.2987 28.4349 19.2479L23.676 16.4989C23.4967 16.3955 23.2837 16.3676 23.0838 16.4212C22.884 16.4749 22.7136 16.6057 22.6102 16.785C22.5068 16.9643 22.4789 17.1773 22.5325 17.3771C22.5862 17.577 22.7171 17.7474 22.8963 17.8508Z" fill="#231F20"/>
<path d="M50.6423 33.8675L55.4012 36.6165C55.5198 36.685 55.6542 36.721 55.7911 36.721C55.9632 36.7216 56.1307 36.6652 56.2674 36.5607C56.4041 36.4561 56.5024 36.3092 56.5469 36.143C56.5914 35.9767 56.5796 35.8004 56.5134 35.6415C56.4472 35.4826 56.3303 35.3501 56.1809 35.2646L51.422 32.5172C51.3333 32.4652 51.2352 32.4313 51.1333 32.4173C51.0314 32.4034 50.9278 32.4098 50.8284 32.4361C50.729 32.4623 50.6358 32.508 50.5541 32.5705C50.4724 32.6329 50.4039 32.7109 50.3525 32.8C50.3011 32.889 50.2678 32.9873 50.2546 33.0893C50.2413 33.1913 50.2483 33.2948 50.2753 33.3941C50.3022 33.4933 50.3485 33.5862 50.4115 33.6675C50.4745 33.7487 50.553 33.8167 50.6423 33.8675Z" fill="#231F20"/>
<path d="M45.7853 15.7392C45.9642 15.8421 46.1767 15.8698 46.376 15.8163C46.5753 15.7629 46.7453 15.6325 46.8487 15.4539L49.5962 10.695C49.6526 10.6062 49.6905 10.507 49.7075 10.4032C49.7246 10.2995 49.7205 10.1934 49.6955 10.0912C49.6705 9.98909 49.625 9.89308 49.562 9.80896C49.4989 9.72484 49.4194 9.65434 49.3284 9.60172C49.2374 9.5491 49.1366 9.51544 49.0322 9.50276C48.9278 9.49008 48.822 9.49865 48.721 9.52794C48.62 9.55724 48.526 9.60666 48.4446 9.67323C48.3632 9.73981 48.2961 9.82216 48.2474 9.91533L45.5 14.6742C45.3966 14.8533 45.3686 15.0661 45.4221 15.2658C45.4756 15.4655 45.6062 15.6358 45.7853 15.7392Z" fill="#231F20"/>
</svg>
