<svg width="86" height="86" viewBox="0 0 86 86" fill="none" xmlns="http://www.w3.org/2000/svg">
<path d="M63.0574 41.5972C72.6084 41.5972 80.3511 33.8545 80.3511 24.3035C80.3511 14.7524 72.6084 7.00977 63.0574 7.00977C53.5063 7.00977 45.7637 14.7524 45.7637 24.3035C45.7637 33.8545 53.5063 41.5972 63.0574 41.5972Z" fill="#A3CEF1"/>
<path d="M75.0301 22.0953C74.7108 20.3793 74.0457 18.7829 73.0879 17.3861C72.2498 17.5325 71.3585 17.2797 70.72 16.6412C70.0814 16.0026 69.8287 15.1113 69.975 14.2733C68.5915 13.3155 66.9952 12.6503 65.2658 12.3311C64.7736 13.0228 63.9754 13.4751 63.0575 13.4751C62.1396 13.4751 61.3415 13.0228 60.8492 12.3311C59.1332 12.6503 57.5368 13.3155 56.14 14.2733C56.2864 15.1113 56.0336 16.0026 55.3951 16.6412C54.7565 17.2797 53.8653 17.5325 53.0272 17.3861C52.0694 18.7696 51.4042 20.366 51.085 22.0953C51.7767 22.5875 52.229 23.3857 52.229 24.3036C52.229 25.2215 51.7767 26.0197 51.085 26.5119C51.4042 28.228 52.0694 29.8243 53.0272 31.2211C53.8653 31.0748 54.7565 31.3275 55.3951 31.966C56.0469 32.6179 56.2864 33.4959 56.14 34.334C57.5235 35.2918 59.1199 35.9569 60.8492 36.2762C61.3415 35.5844 62.1396 35.1321 63.0575 35.1321C63.9754 35.1321 64.7736 35.5844 65.2658 36.2762C66.9819 35.9569 68.5782 35.2918 69.975 34.334C69.8287 33.4959 70.0814 32.6046 70.72 31.966C71.3718 31.3142 72.2498 31.0748 73.0879 31.2211C74.0457 29.8376 74.7108 28.2413 75.0301 26.5119C74.3383 26.0197 73.886 25.2215 73.886 24.3036C73.886 23.3857 74.3383 22.5875 75.0301 22.0953Z" fill="#274C77"/>
<path d="M63.0577 30.9552C66.7311 30.9552 69.7091 27.9772 69.7091 24.3038C69.7091 20.6303 66.7311 17.6523 63.0577 17.6523C59.3842 17.6523 56.4062 20.6303 56.4062 24.3038C56.4062 27.9772 59.3842 30.9552 63.0577 30.9552Z" fill="#F5DD90"/>
<path d="M35.8933 50.9621L31.9025 52.6781C30.5589 53.2502 29.0424 53.2502 27.7121 52.6781L23.7212 50.9621C21.7657 50.124 20.502 48.1951 20.502 46.0666V38.9363C20.502 34.5331 24.0804 30.9546 28.4837 30.9546H31.1442C35.5475 30.9546 39.1259 34.5331 39.1259 38.9363V46.0666C39.1259 48.1951 37.8622 50.124 35.9066 50.9621H35.8933Z" fill="#DDA15E"/>
<path d="M47.2811 58.8912C44.86 56.4302 41.4943 54.9004 37.7829 54.9004H33.792C33.792 57.1087 32.0094 58.8912 29.8011 58.8912C27.5929 58.8912 25.8103 57.1087 25.8103 54.9004H21.8194C14.4763 54.9004 8.5166 60.8601 8.5166 68.2032V77.5152H37.7829L43.104 58.8912H47.2811Z" fill="#274C77"/>
<path d="M23.1494 72.1938H25.81C27.2733 72.1938 28.4706 73.3911 28.4706 74.8544V77.515H23.1494V72.1938Z" fill="#DDA15E"/>
<path d="M16.4977 41.2378C16.1119 41.464 15.6463 41.597 15.1674 41.597C13.7041 41.597 12.5068 40.3998 12.5068 38.9364C12.5068 37.4731 13.7041 36.2759 15.1674 36.2759C15.7261 36.2759 16.2449 36.4488 16.6839 36.7548" fill="#274C77"/>
<path d="M43.1032 41.2378C43.489 41.464 43.9546 41.597 44.4335 41.597C45.8968 41.597 47.0941 40.3998 47.0941 38.9364C47.0941 37.4731 45.8968 36.2759 44.4335 36.2759C43.8748 36.2759 43.356 36.4488 42.917 36.7548" fill="#274C77"/>
<path d="M25.8096 51.8535L27.6986 52.665C29.0422 53.2503 30.5587 53.2503 31.9023 52.665L33.7913 51.8535V54.8999C33.7913 57.1081 32.0087 58.8907 29.8004 58.8907C27.5922 58.8907 25.8096 57.1081 25.8096 54.8999V51.8535Z" fill="#BC6C25"/>
<path d="M37.7822 77.5151L43.1034 58.8911H72.3696L67.0485 77.5151" fill="#8B8C89"/>
<path d="M38.3008 35.4509C37.5425 35.145 36.6645 34.9454 35.5604 34.9454C29.8003 34.9454 29.8003 40.2666 24.0268 40.2666C22.5236 40.2666 21.4062 39.9074 20.4883 39.3753V38.9363C20.4883 34.5331 24.0667 30.9546 28.47 30.9546H31.1306C34.2833 30.9546 37.0104 32.7904 38.3008 35.4509Z" fill="#274C77"/>
<path d="M39.1129 45.0559V38.9366C39.1129 34.5334 35.5344 30.9549 31.1312 30.9549H28.4706C24.0674 30.9549 20.4889 34.5334 20.4889 38.9366V44.2578H17.8283C17.0967 44.2578 16.498 43.6591 16.498 42.9275V38.9366C16.498 31.5935 22.4577 25.6338 29.8009 25.6338C33.4725 25.6338 36.7982 27.1237 39.206 29.5315C41.6138 31.9393 43.1037 35.265 43.1037 38.9366V43.1669C43.1037 43.8055 42.6514 44.3509 42.0395 44.4706L39.1129 45.0559Z" fill="#E7ECEF"/>
<path d="M55.0762 66.8726C55.8078 66.8726 56.4065 67.4712 56.4065 68.2028C56.4065 68.9345 55.8078 69.5331 55.0762 69.5331V66.8726Z" fill="#A3CEF1"/>
<path d="M59.094 41.1445C59.0807 41.2909 59.0674 41.4505 59.0674 41.5968C59.0674 43.8051 60.85 45.5877 63.0582 45.5877C65.2665 45.5877 67.0491 43.8051 67.0491 41.5968C67.0491 41.4505 67.0358 41.2909 67.0225 41.1445C65.7454 41.4372 64.4284 41.5968 63.0582 41.5968C61.688 41.5968 60.3711 41.4372 59.094 41.1445Z" fill="#6096BA"/>
<path d="M57.7367 52.2396C59.2061 52.2396 60.3973 51.0484 60.3973 49.579C60.3973 48.1096 59.2061 46.9185 57.7367 46.9185C56.2673 46.9185 55.0762 48.1096 55.0762 49.579C55.0762 51.0484 56.2673 52.2396 57.7367 52.2396Z" fill="#6096BA"/>
<path d="M51.0854 57.5604C52.5548 57.5604 53.7459 56.3692 53.7459 54.8998C53.7459 53.4304 52.5548 52.2393 51.0854 52.2393C49.616 52.2393 48.4248 53.4304 48.4248 54.8998C48.4248 56.3692 49.616 57.5604 51.0854 57.5604Z" fill="#6096BA"/>
<path d="M29.8011 46.9185C29.6548 46.2001 30.1204 45.4951 30.8387 45.3487L41.7737 43.1671V39.3625C41.7737 32.9904 36.9713 27.4165 30.6259 26.9908C23.6552 26.5252 17.8285 32.0592 17.8285 38.9368V42.9276H20.4891V45.5882H17.8285C16.3652 45.5882 15.168 44.3909 15.168 42.9276V39.3625C15.168 31.7532 20.8084 25.0752 28.391 24.3702C37.0911 23.5454 44.4342 30.3963 44.4342 38.9368V43.1671C44.4342 44.4308 43.5429 45.5217 42.2925 45.7744L31.3575 47.9561C30.6392 48.1024 29.9341 47.6368 29.7878 46.9185H29.8011Z" fill="#6096BA"/>
<path d="M29.8011 77.5147H27.1405V74.8541C27.1405 74.1225 26.5419 73.5239 25.8102 73.5239H16.4983C15.7666 73.5239 15.168 72.9252 15.168 72.1936V66.8724C15.168 66.5133 15.3143 66.1807 15.5538 65.9279L17.2698 64.2119C17.7886 63.6931 18.6267 63.6931 19.1455 64.2119C19.6643 64.7307 19.6643 65.5688 19.1455 66.0876L17.8152 67.4178V70.8633H25.7969C28.0052 70.8633 29.7878 72.6459 29.7878 74.8541V77.5147H29.8011Z" fill="#6096BA"/>
<path d="M72.3697 76.1846H5.85547V78.8451H72.3697V76.1846Z" fill="#A3CEF1"/>
</svg>
