<svg width="63" height="63" viewBox="0 0 63 63" fill="none" xmlns="http://www.w3.org/2000/svg">
<g clip-path="url(#clip0_0_6608)">
<path d="M22.2066 55.4294V61.4191C22.2066 61.4596 22.1734 61.4928 22.1329 61.4928H12.3873L8.70508 35.7172L11.8472 34.3916L16.0695 35.7172L18.1807 40.6268L17.4724 45.5365L18.4151 52.1313C18.6757 53.9652 20.2475 55.3557 22.1329 55.3557C22.1734 55.3557 22.2066 55.3889 22.2066 55.4294Z" fill="#4E5F7E"/>
<path d="M24.6612 39.0816V40.9338C24.6612 43.4757 22.6004 45.5365 20.0584 45.5365H17.4723L16.0693 35.7173L20.6353 35.9628L24.6612 39.0816Z" fill="#3E4665"/>
<path d="M16.0697 17.3062L17.4935 26.5117L16.0697 35.7173C14.7768 35.7173 6.77492 35.7173 5.02304 35.7173C2.98923 35.7173 1.34082 34.0689 1.34082 32.035V20.9884C1.34082 18.9546 2.98923 17.3062 5.02304 17.3062H16.0697Z" fill="#FF6378"/>
<path d="M60.0448 23.0406C61.9618 24.9575 61.9644 28.0632 60.0448 29.9828C59.1562 30.8714 57.9288 31.4213 56.5737 31.4213L55.5264 26.8145L56.5737 21.6021C57.9288 21.6021 59.1562 22.1519 60.0448 23.0406Z" fill="#4E5F7E"/>
<path d="M16.0693 17.3062L50.546 3.80469C50.546 3.80469 51.4344 13.6239 51.4023 24.1306C51.3654 36.2197 50.4147 49.2188 50.546 49.2188C49.2824 48.7239 17.8622 36.4194 16.0693 35.7173V17.3062Z" fill="#ECE6F2"/>
<path d="M43.0729 23.4431C44.574 23.4431 45.7597 24.7895 45.4896 26.3385C45.2773 27.5561 44.164 28.419 42.9317 28.349C42.9243 28.349 42.9182 28.3478 42.9121 28.3478C42.5716 28.3251 42.269 28.9901 42.6482 29.3665L42.6519 29.3702C43.6105 30.3276 43.6105 31.8827 42.6519 32.8413C41.6933 33.7999 40.1381 33.7999 39.1807 32.8413C38.5749 32.4558 38.1632 32.831 38.1632 33.2513V33.2623C38.1632 34.7205 36.8929 35.8804 35.3991 35.6987C34.1778 35.549 33.2438 34.4811 33.2536 33.2402C33.1137 32.5406 32.5133 32.5624 32.241 32.8364L32.2361 32.8413C31.2787 33.7999 29.7236 33.7999 28.765 32.8413C27.8064 31.8827 27.8064 30.3276 28.765 29.3702C29.1156 28.8693 28.953 28.4744 28.344 28.3527C26.8428 28.3527 25.6572 27.0062 25.9272 25.4572C26.131 24.2863 27.1693 23.4431 28.3452 23.4431C28.4348 23.4431 28.49 23.448 28.5048 23.448C28.8546 23.4677 29.1418 22.8023 28.765 22.4255C27.8069 21.4674 27.8051 19.9143 28.765 18.9544C29.7162 18.0032 31.2689 17.9872 32.2398 18.9581C32.6166 19.3361 33.2548 19.0772 33.2536 18.542V18.5334C33.2536 17.0323 34.5988 15.8466 36.1491 16.1167C37.3666 16.329 38.2295 17.4423 38.1595 18.6746C38.1595 18.6819 38.1583 18.6881 38.1583 18.6942C38.1354 19.038 38.7999 19.3353 39.1771 18.9581L39.1807 18.9544C40.2805 17.8534 42.1204 18.0425 42.9734 19.3521C43.5945 20.3033 43.4865 21.5909 42.6519 22.4255L42.6482 22.4292C42.3565 22.7178 42.3552 23.2996 43.0729 23.4431Z" fill="#F4D944"/>
<path d="M35.7077 28.353C37.0635 28.353 38.1626 27.2539 38.1626 25.8982C38.1626 24.5424 37.0635 23.4434 35.7077 23.4434C34.352 23.4434 33.2529 24.5424 33.2529 25.8982C33.2529 27.2539 34.352 28.353 35.7077 28.353Z" fill="#ECB43E"/>
<path d="M56.5737 48.6593C56.5737 50.3249 55.2248 51.6738 53.5592 51.6738C51.8948 51.6738 50.5459 50.3249 50.5459 48.6593V4.36461C50.5459 2.69902 51.8948 1.3501 53.5592 1.3501C55.2251 1.3501 56.5737 2.70025 56.5737 4.36461C56.5737 5.61534 56.5737 47.4002 56.5737 48.6593Z" fill="#D9D4DD"/>
<path d="M62.7111 26.5118C62.7111 23.5481 60.5993 21.0685 57.8014 20.4983V4.36399C57.8014 2.02529 55.8988 0.122559 53.56 0.122559C51.7512 0.122559 50.2041 1.2611 49.5955 2.85882L15.8378 16.0789H5.02291C2.31574 16.0789 0.113281 18.2813 0.113281 20.9885V32.0352C0.113281 34.7423 2.31574 36.9448 5.02291 36.9448H7.6406L11.1722 61.6665C11.2586 62.2712 11.7765 62.7203 12.3874 62.7203H22.1328C22.8503 62.7203 23.434 62.1366 23.434 61.4192V55.4295C23.434 54.7121 22.8504 54.1284 22.1328 54.1284C20.8826 54.1284 19.8065 53.195 19.6297 51.9574L18.8877 46.764H20.0587C23.2734 46.764 25.8888 44.1486 25.8888 40.9339V40.881L49.5955 50.1648C50.2041 51.7625 51.7512 52.9011 53.56 52.9011C55.8988 52.9011 57.8014 50.9983 57.8014 48.6596V32.5254C60.5993 31.9551 62.7111 29.4755 62.7111 26.5118ZM2.5681 32.0352V20.9885C2.5681 19.6349 3.66933 18.5337 5.02291 18.5337H14.8422V34.49C11.7149 34.49 6.80093 34.49 5.02291 34.49C3.66933 34.49 2.5681 33.3887 2.5681 32.0352ZM20.9792 56.4463V60.2655H13.4519L10.1203 36.9448H15.005L17.1997 52.3048C17.4921 54.3525 19.034 55.9775 20.9792 56.4463ZM23.434 40.9339C23.434 42.795 21.9199 44.3092 20.0587 44.3092H18.537L17.5825 37.628L23.434 39.9195V40.9339ZM49.2498 47.3931C45.8943 46.079 22.3533 36.86 17.297 34.8799V18.1437L49.3094 5.60735C49.2722 13.0112 49.1455 40.0804 49.2498 47.3931ZM55.3466 48.6596C55.3466 49.6448 54.5451 50.4463 53.56 50.4463C52.5749 50.4463 51.7734 49.6449 51.7734 48.6596V4.36399C51.7734 3.37887 52.5749 2.57737 53.56 2.57737C54.5451 2.57737 55.3466 3.37875 55.3466 4.36399C55.3466 6.00209 55.3466 46.5294 55.3466 48.6596ZM57.8014 29.9837V23.04C59.2303 23.5465 60.2562 24.9116 60.2562 26.5118C60.2562 28.112 59.2303 29.4771 57.8014 29.9837Z" fill="black"/>
<path d="M35.7076 22.2158C33.6772 22.2158 32.0254 23.8677 32.0254 25.898C32.0254 27.9284 33.6772 29.5803 35.7076 29.5803C37.738 29.5803 39.3898 27.9284 39.3898 25.898C39.3898 23.8677 37.738 22.2158 35.7076 22.2158ZM35.7076 27.1255C35.0308 27.1255 34.4802 26.5748 34.4802 25.898C34.4802 25.2213 35.0308 24.6706 35.7076 24.6706C36.3844 24.6706 36.935 25.2213 36.935 25.898C36.935 26.5748 36.3844 27.1255 35.7076 27.1255Z" fill="black"/>
<path d="M44.182 22.3865C44.7771 21.2335 44.7368 19.8095 44.0018 18.6823C42.9476 17.0634 40.8615 16.5669 39.2199 17.4212C38.818 16.145 37.7395 15.1485 36.3594 14.9082C34.4967 14.5833 32.7449 15.6882 32.1979 17.4218C30.8402 16.7141 29.0821 16.901 27.8968 18.0872C26.7179 19.2662 26.519 21.0192 27.2294 22.3859C25.9474 22.7881 24.9575 23.8692 24.7177 25.2465C24.392 27.1158 25.5048 28.8629 27.2303 29.4089C26.5198 30.7738 26.7173 32.5304 27.8964 33.7087C29.0861 34.8992 30.8443 35.0791 32.1969 34.3763C33.0081 36.9443 36.1788 37.7631 38.1479 36.0204C38.6511 35.575 39.0173 35.0052 39.2169 34.3747C40.5803 35.0853 42.3376 34.8911 43.5182 33.7095C44.7037 32.5251 44.8925 30.7681 44.1853 29.41C46.7234 28.6103 47.5536 25.5057 45.8914 23.5294C45.4352 22.9866 44.8414 22.5944 44.182 22.3865ZM44.2794 26.1286C44.176 26.7215 43.6157 27.1579 43.0005 27.1234C41.4336 27.0273 40.653 29.1074 41.7833 30.2384C42.2633 30.7179 42.2625 31.4941 41.7826 31.9737C41.3034 32.4533 40.5272 32.4533 40.0481 31.9737C38.9076 30.8389 36.9352 31.6007 36.9353 33.2627C36.9353 33.9823 36.3112 34.5733 35.5475 34.4802C34.9441 34.4063 34.4754 33.8662 34.4804 33.2504C34.4952 31.6399 32.5261 30.8154 31.3785 31.963C30.8126 32.499 30.0691 32.4101 29.6322 31.9729C29.1527 31.4938 29.1528 30.7174 29.6322 30.2384C30.7582 29.118 30.0202 27.1489 28.3747 27.126C27.4997 27.106 27.0097 26.3936 27.1362 25.6677C27.2355 25.0979 27.7682 24.6398 28.4178 24.6731C29.9683 24.7569 30.7695 22.6952 29.6322 21.558C29.1527 21.0788 29.1527 20.303 29.633 19.8227C30.1115 19.3438 30.8871 19.3423 31.3692 19.8244C32.5161 20.9765 34.4859 20.1718 34.4805 18.5338C34.4805 17.7983 35.1337 17.1873 35.9383 17.3265C36.5312 17.4299 36.9682 17.9915 36.9331 18.6052C36.8458 20.1768 38.9207 20.9497 40.048 19.8226C40.5984 19.2715 41.5186 19.3676 41.9446 20.0217C41.9448 20.022 41.9451 20.0224 41.9453 20.0228C42.2597 20.5045 42.1915 21.1501 41.7827 21.5586C40.6543 22.6788 41.4021 24.6443 43.0376 24.6705C43.9334 24.6982 44.4038 25.4139 44.2794 26.1286Z" fill="black"/>
</g>
<defs>
<clipPath id="clip0_0_6608">
<rect width="62.8433" height="62.8433" fill="white" transform="translate(-0.00976562)"/>
</clipPath>
</defs>
</svg>
