<svg width="105" height="105" viewBox="0 0 105 105" fill="none" xmlns="http://www.w3.org/2000/svg">
<g clip-path="url(#clip0_0_844)">
<path d="M92.7979 61.7695L84.4717 58.1191C82.1543 71.4082 71.7363 81.9082 58.5088 84.3896L54.3457 92.8799L58.3447 100.796C80.5957 98.1299 98.2324 80.4522 100.837 58.1807L92.7979 61.7695Z" fill="#E84A3C" stroke="#2C3E50" stroke-width="1.89062" stroke-miterlimit="10" stroke-linecap="round" stroke-linejoin="round"/>
<path d="M56.6631 4.01953L60.5391 12.3047L56.7451 20.3232C71.2031 22.21 82.667 33.6328 84.6357 48.0498L92.7773 51.6592L100.939 48.0498C98.8477 24.6299 80.124 6.00879 56.6631 4.01953Z" fill="#009E83" stroke="#2C3E50" stroke-width="1.89062" stroke-miterlimit="10" stroke-linecap="round" stroke-linejoin="round"/>
<path d="M12.2227 45.9375L20.2002 49.7109C21.4512 35.0889 32.4023 23.2148 46.6143 20.6104L50.4492 12.3252L46.6143 4.2041C23.3789 6.99316 5.20898 26.168 3.91699 49.8135L12.2227 45.9375Z" fill="#F8B41E" stroke="#2C3E50" stroke-width="1.89062" stroke-miterlimit="10" stroke-linecap="round" stroke-linejoin="round"/>
<path d="M20.9385 60.0059L12.2227 56.0273L4.38867 59.7803C7.71094 81.8467 25.8193 99.0527 48.2959 100.98L44.2559 92.9004L48.3369 84.6768C34.8838 82.9336 24.0146 72.9873 20.9385 60.0059Z" fill="#3D95D2" stroke="#2C3E50" stroke-width="1.89062" stroke-miterlimit="10" stroke-linecap="round" stroke-linejoin="round"/>
<g filter="url(#filter0_d_0_844)">
<circle cx="53.1526" cy="52.5" r="24.4602" fill="#6D94D9"/>
</g>
<path d="M51.8384 52.127V53.7539C51.8384 54.5332 51.7609 55.1986 51.606 55.75C51.4556 56.2969 51.2369 56.7412 50.9498 57.083C50.6626 57.4248 50.3186 57.6755 49.9175 57.835C49.521 57.9945 49.0767 58.0742 48.5845 58.0742C48.1926 58.0742 47.828 58.0241 47.4908 57.9238C47.1581 57.8236 46.8573 57.6663 46.5884 57.4521C46.3195 57.238 46.0894 56.9622 45.898 56.625C45.7111 56.2832 45.5653 55.8753 45.4605 55.4014C45.3602 54.9274 45.3101 54.3783 45.3101 53.7539V52.127C45.3101 51.3431 45.3876 50.6823 45.5425 50.1445C45.6975 49.6022 45.9185 49.1624 46.2056 48.8252C46.4927 48.4834 46.8345 48.235 47.231 48.0801C47.632 47.9251 48.0787 47.8477 48.5708 47.8477C48.9673 47.8477 49.3319 47.8978 49.6646 47.998C50.0018 48.0938 50.3026 48.2464 50.5669 48.4561C50.8358 48.6657 51.0637 48.9391 51.2505 49.2764C51.4419 49.609 51.5878 50.0124 51.688 50.4863C51.7883 50.9557 51.8384 51.5026 51.8384 52.127ZM50.191 53.9863V51.8809C50.191 51.4844 50.1682 51.1357 50.1226 50.835C50.077 50.5296 50.0087 50.2721 49.9175 50.0625C49.8309 49.8483 49.7216 49.6751 49.5894 49.543C49.4572 49.4062 49.3068 49.3083 49.1382 49.249C48.9696 49.1852 48.7805 49.1533 48.5708 49.1533C48.3156 49.1533 48.0878 49.2035 47.8873 49.3037C47.6867 49.3994 47.5181 49.5544 47.3814 49.7686C47.2447 49.9827 47.1399 50.2653 47.0669 50.6162C46.9986 50.9626 46.9644 51.3841 46.9644 51.8809V53.9863C46.9644 54.3874 46.9872 54.7406 47.0328 55.0459C47.0783 55.3512 47.1467 55.6133 47.2378 55.832C47.329 56.0462 47.4384 56.224 47.566 56.3652C47.6981 56.502 47.8485 56.6022 48.0171 56.666C48.1903 56.7298 48.3794 56.7617 48.5845 56.7617C48.8443 56.7617 49.0744 56.7116 49.2749 56.6113C49.4755 56.5111 49.6441 56.3516 49.7808 56.1328C49.9175 55.9095 50.0201 55.6201 50.0884 55.2646C50.1568 54.9092 50.191 54.4831 50.191 53.9863ZM57.8062 47.9502V57.9375H56.1587V49.9053L53.7183 50.7324V49.3721L57.608 47.9502H57.8062Z" fill="white"/>
</g>
<defs>
<filter id="filter0_d_0_844" x="11.6924" y="28.0398" width="82.9209" height="90.9204" filterUnits="userSpaceOnUse" color-interpolation-filters="sRGB">
<feFlood flood-opacity="0" result="BackgroundImageFix"/>
<feColorMatrix in="SourceAlpha" type="matrix" values="0 0 0 0 0 0 0 0 0 0 0 0 0 0 0 0 0 0 127 0" result="hardAlpha"/>
<feMorphology radius="3" operator="dilate" in="SourceAlpha" result="effect1_dropShadow_0_844"/>
<feOffset dy="25"/>
<feGaussianBlur stdDeviation="7"/>
<feComposite in2="hardAlpha" operator="out"/>
<feColorMatrix type="matrix" values="0 0 0 0 0.0786806 0 0 0 0 0.260933 0 0 0 0 0.429167 0 0 0 0.09 0"/>
<feBlend mode="normal" in2="BackgroundImageFix" result="effect1_dropShadow_0_844"/>
<feBlend mode="normal" in="SourceGraphic" in2="effect1_dropShadow_0_844" result="shape"/>
</filter>
<clipPath id="clip0_0_844">
<rect width="105" height="105" fill="white"/>
</clipPath>
</defs>
</svg>
