<svg width="81" height="81" viewBox="0 0 81 81" fill="none" xmlns="http://www.w3.org/2000/svg">
<path d="M11.375 7.30127H69.4482C70.4784 7.30127 71.4665 7.71055 72.1951 8.43908C72.9236 9.1676 73.3329 10.1557 73.3329 11.186V36.158C73.3329 37.1887 72.9234 38.1772 72.1946 38.9061C71.4658 39.6349 70.4773 40.0443 69.4466 40.0443H11.375C10.8648 40.0443 10.3596 39.9438 9.88833 39.7486C9.41702 39.5534 8.98877 39.2673 8.62804 38.9065C8.26731 38.5458 7.98117 38.1175 7.78594 37.6462C7.59072 37.1749 7.49023 36.6698 7.49023 36.1596V11.186C7.49023 10.1557 7.89952 9.1676 8.62804 8.43908C9.35657 7.71055 10.3447 7.30127 11.375 7.30127Z" fill="#231F20"/>
<path d="M11.3771 8.90723H69.4487C70.0531 8.90723 70.6327 9.14731 71.06 9.57467C71.4874 10.002 71.7275 10.5816 71.7275 11.186V36.1597C71.7275 36.764 71.4874 37.3437 71.06 37.771C70.6327 38.1984 70.0531 38.4385 69.4487 38.4385H11.3755C10.7711 38.4385 10.1915 38.1984 9.76412 37.771C9.33677 37.3437 9.09668 36.764 9.09668 36.1597V11.1876C9.09668 10.5828 9.33694 10.0028 9.76459 9.57514C10.1923 9.14748 10.7723 8.90723 11.3771 8.90723Z" fill="white"/>
<path d="M63.0551 32.3216H61.0076V15.8127C61.0076 15.5998 60.923 15.3955 60.7724 15.2449C60.6218 15.0944 60.4176 15.0098 60.2046 15.0098C59.9916 15.0098 59.7874 15.0944 59.6368 15.2449C59.4862 15.3955 59.4016 15.5998 59.4016 15.8127V32.3216H55.5474V19.1306C55.5474 18.9176 55.4628 18.7134 55.3123 18.5628C55.1617 18.4122 54.9574 18.3276 54.7445 18.3276C54.5315 18.3276 54.3273 18.4122 54.1767 18.5628C54.0261 18.7134 53.9415 18.9176 53.9415 19.1306V32.3216H50.0873V22.8788C50.0873 22.6658 50.0027 22.4616 49.8521 22.311C49.7015 22.1604 49.4973 22.0758 49.2844 22.0758C49.0714 22.0758 48.8672 22.1604 48.7166 22.311C48.566 22.4616 48.4814 22.6658 48.4814 22.8788V32.3216H44.6272V26.741C44.6272 26.528 44.5426 26.3238 44.392 26.1732C44.2414 26.0226 44.0372 25.938 43.8242 25.938C43.6113 25.938 43.407 26.0226 43.2565 26.1732C43.1059 26.3238 43.0213 26.528 43.0213 26.741V32.3216H40.9641C40.7511 32.3216 40.5469 32.4062 40.3963 32.5567C40.2457 32.7073 40.1611 32.9116 40.1611 33.1245C40.1611 33.3375 40.2457 33.5417 40.3963 33.6923C40.5469 33.8429 40.7511 33.9275 40.9641 33.9275H63.0551C63.2681 33.9275 63.4723 33.8429 63.6229 33.6923C63.7735 33.5417 63.8581 33.3375 63.8581 33.1245C63.8581 32.9116 63.7735 32.7073 63.6229 32.5567C63.4723 32.4062 63.2681 32.3216 63.0551 32.3216Z" fill="#231F20"/>
<path d="M27.155 13.4185C25.1392 13.4188 23.1687 14.0168 21.4927 15.137C19.8167 16.2572 18.5105 17.8492 17.7393 19.7117C16.9681 21.5742 16.7664 23.6236 17.1599 25.6007C17.5534 27.5778 18.5243 29.3938 19.9498 30.8192C21.3754 32.2445 23.1916 33.2151 25.1687 33.6082C27.1459 34.0014 29.1952 33.7995 31.0576 33.028C32.92 32.2564 34.5118 30.95 35.6317 29.2738C36.7516 27.5977 37.3494 25.6271 37.3494 23.6112C37.3464 20.9086 36.2714 18.3175 34.3601 16.4066C32.4489 14.4957 29.8577 13.421 27.155 13.4185Z" fill="#231F20"/>
<path d="M35.6615 22.808H27.9531V15.0996C29.9346 15.2858 31.7889 16.1577 33.1962 17.565C34.6035 18.9722 35.4754 20.8266 35.6615 22.808Z" fill="#D12200"/>
<path d="M26.3522 15.1045V22.0629L20.6592 18.061C22.0992 16.3714 24.1418 15.3106 26.3522 15.1045Z" fill="#00A1D3"/>
<path d="M27.1549 32.193C24.8799 32.1892 22.699 31.2839 21.0902 29.6753C19.4813 28.0667 18.5755 25.8861 18.5713 23.611C18.5809 22.1187 18.9836 20.6553 19.7388 19.3682L26.6956 24.2678C26.8318 24.3616 26.9928 24.4125 27.1581 24.414H35.6695C35.4729 26.5377 34.4913 28.5117 32.9167 29.9503C31.3422 31.3888 29.2877 32.1885 27.1549 32.193Z" fill="#7CC05B"/>
<path d="M71.03 65.4213H64.4457V62.4776C64.417 60.5244 63.6209 58.6608 62.2295 57.2897C60.8381 55.9185 58.963 55.1499 57.0095 55.1499C55.056 55.1499 53.181 55.9185 51.7895 57.2897C50.3981 58.6608 49.602 60.5244 49.5733 62.4776V65.4213H31.2466V62.4776C31.2179 60.5244 30.4218 58.6608 29.0304 57.2897C27.6389 55.9185 25.7639 55.1499 23.8104 55.1499C21.8569 55.1499 19.9818 55.9185 18.5904 57.2897C17.199 58.6608 16.4029 60.5244 16.3742 62.4776V65.4213H9.78991C9.18024 65.423 8.59605 65.666 8.1651 66.0973C7.73415 66.5285 7.49151 67.1129 7.49023 67.7226V70.8413C7.49151 71.4516 7.73454 72.0366 8.16614 72.4682C8.59774 72.8998 9.18275 73.1429 9.79312 73.1441H71.03C71.6404 73.1429 72.2254 72.8998 72.657 72.4682C73.0886 72.0366 73.3316 71.4516 73.3329 70.8413V67.7226C73.3316 67.1123 73.0885 66.5275 72.6569 66.0961C72.2252 65.6648 71.6402 65.4221 71.03 65.4213Z" fill="#231F20"/>
<path d="M51.1826 62.4775C51.208 60.948 51.8334 59.4897 52.9241 58.417C54.0147 57.3443 55.4832 56.7432 57.0129 56.7432C58.5426 56.7432 60.0111 57.3443 61.1018 58.417C62.1924 59.4897 62.8178 60.948 62.8432 62.4775V65.4211H51.1826V62.4775Z" fill="#FFBA50"/>
<path d="M17.9805 62.4775C18.0059 60.948 18.6313 59.4897 19.7219 58.417C20.8125 57.3443 22.281 56.7432 23.8108 56.7432C25.3405 56.7432 26.809 57.3443 27.8996 58.417C28.9902 59.4897 29.6157 60.948 29.641 62.4775V65.4211H17.9805V62.4775Z" fill="#00A1D3"/>
<path d="M9.79365 67.0269H71.0305C71.2154 67.0269 71.3926 67.1003 71.5233 67.231C71.6541 67.3617 71.7275 67.539 71.7275 67.7238V70.8425C71.7275 71.0269 71.6542 71.2038 71.5238 71.3342C71.3934 71.4646 71.2165 71.5379 71.0321 71.5379H9.79365C9.6088 71.5379 9.43152 71.4644 9.30082 71.3337C9.17011 71.203 9.09668 71.0258 9.09668 70.8409V67.7238C9.09668 67.539 9.17011 67.3617 9.30082 67.231C9.43152 67.1003 9.6088 67.0269 9.79365 67.0269Z" fill="#FF8E5A"/>
<path d="M23.8099 53.7013C26.7403 53.7013 29.1158 51.3257 29.1158 48.3953C29.1158 45.4649 26.7403 43.0894 23.8099 43.0894C20.8795 43.0894 18.5039 45.4649 18.5039 48.3953C18.5039 51.3257 20.8795 53.7013 23.8099 53.7013Z" fill="#231F20"/>
<path d="M23.8094 52.0949C25.8529 52.0949 27.5094 50.4383 27.5094 48.3949C27.5094 46.3514 25.8529 44.6948 23.8094 44.6948C21.7659 44.6948 20.1094 46.3514 20.1094 48.3949C20.1094 50.4383 21.7659 52.0949 23.8094 52.0949Z" fill="#00A1D3"/>
<path d="M57.014 53.7013C59.9444 53.7013 62.3199 51.3257 62.3199 48.3953C62.3199 45.4649 59.9444 43.0894 57.014 43.0894C54.0836 43.0894 51.708 45.4649 51.708 48.3953C51.708 51.3257 54.0836 53.7013 57.014 53.7013Z" fill="#231F20"/>
<path d="M57.0135 52.0949C59.057 52.0949 60.7135 50.4383 60.7135 48.3949C60.7135 46.3514 59.057 44.6948 57.0135 44.6948C54.97 44.6948 53.3135 46.3514 53.3135 48.3949C53.3135 50.4383 54.97 52.0949 57.0135 52.0949Z" fill="#FFBA50"/>
</svg>
