<svg width="115" height="108" viewBox="0 0 115 108" fill="none" xmlns="http://www.w3.org/2000/svg">
<path d="M70.7695 94.7048C92.7849 94.7048 110.632 76.8579 110.632 54.8425C110.632 32.8272 92.7849 14.9802 70.7695 14.9802C48.7542 14.9802 30.9072 32.8272 30.9072 54.8425C30.9072 76.8579 48.7542 94.7048 70.7695 94.7048Z" fill="#DBEFFC"/>
<path d="M107.85 18.6883C110.41 18.6883 112.485 16.613 112.485 14.0531C112.485 11.4932 110.41 9.41797 107.85 9.41797C105.29 9.41797 103.215 11.4932 103.215 14.0531C103.215 16.613 105.29 18.6883 107.85 18.6883Z" stroke="#4C241D" stroke-width="3.29614" stroke-linecap="round" stroke-linejoin="round"/>
<path d="M111.805 32.5937C111.805 33.0089 111.681 33.4149 111.451 33.7601C111.22 34.1054 110.892 34.3745 110.508 34.5334C110.125 34.6923 109.703 34.7339 109.295 34.6529C108.888 34.5719 108.514 34.3719 108.22 34.0783C107.927 33.7847 107.727 33.4106 107.646 33.0033C107.565 32.596 107.606 32.1739 107.765 31.7902C107.924 31.4066 108.193 31.0787 108.539 30.848C108.884 30.6173 109.29 30.4941 109.705 30.4941C110.262 30.4941 110.796 30.7153 111.19 31.1091C111.583 31.5028 111.805 32.0368 111.805 32.5937Z" fill="#4C241D"/>
<path d="M89.5555 15.9072C89.5555 16.3224 89.4324 16.7283 89.2017 17.0736C88.971 17.4189 88.6431 17.688 88.2594 17.8469C87.8758 18.0058 87.4537 18.0474 87.0464 17.9664C86.6391 17.8853 86.265 17.6854 85.9714 17.3918C85.6778 17.0981 85.4778 16.724 85.3968 16.3168C85.3158 15.9095 85.3574 15.4873 85.5163 15.1037C85.6752 14.7201 85.9443 14.3922 86.2895 14.1615C86.6348 13.9308 87.0407 13.8076 87.456 13.8076C87.7317 13.8076 88.0047 13.8619 88.2594 13.9674C88.5142 14.0729 88.7456 14.2276 88.9406 14.4226C89.1355 14.6175 89.2902 14.849 89.3957 15.1037C89.5012 15.3584 89.5555 15.6314 89.5555 15.9072Z" fill="#4C241D"/>
<path d="M63.5995 8.4909C63.5995 8.90615 63.4763 9.31207 63.2456 9.65734C63.0149 10.0026 62.687 10.2717 62.3034 10.4306C61.9198 10.5895 61.4976 10.6311 61.0903 10.5501C60.6831 10.4691 60.309 10.2691 60.0153 9.97549C59.7217 9.68187 59.5217 9.30777 59.4407 8.9005C59.3597 8.49322 59.4013 8.07108 59.5602 7.68744C59.7191 7.3038 59.9882 6.97589 60.3335 6.74519C60.6788 6.51449 61.0847 6.39136 61.4999 6.39136C62.0568 6.39136 62.5908 6.61256 62.9845 7.0063C63.3783 7.40004 63.5995 7.93406 63.5995 8.4909Z" fill="#4C241D"/>
<path d="M74.7225 2.92864C74.7225 3.34389 74.5994 3.74981 74.3687 4.09508C74.138 4.44035 73.8101 4.70945 73.4264 4.86836C73.0428 5.02727 72.6206 5.06885 72.2134 4.98784C71.8061 4.90683 71.432 4.70686 71.1384 4.41324C70.8448 4.11961 70.6448 3.74551 70.5638 3.33824C70.4828 2.93097 70.5243 2.50882 70.6833 2.12518C70.8422 1.74154 71.1113 1.41364 71.4565 1.18294C71.8018 0.952237 72.2077 0.829102 72.623 0.829102C73.1798 0.829102 73.7138 1.0503 74.1076 1.44404C74.5013 1.83778 74.7225 2.37181 74.7225 2.92864Z" fill="#4C241D"/>
<path d="M32.079 23.3234C32.079 23.7387 31.9558 24.1446 31.7251 24.4899C31.4944 24.8351 31.1665 25.1042 30.7829 25.2631C30.3992 25.422 29.9771 25.4636 29.5698 25.3826C29.1626 25.3016 28.7885 25.1016 28.4948 24.808C28.2012 24.5144 28.0012 24.1403 27.9202 23.733C27.8392 23.3257 27.8808 22.9036 28.0397 22.52C28.1986 22.1363 28.4677 21.8084 28.813 21.5777C29.1582 21.347 29.5642 21.2239 29.9794 21.2239C30.5363 21.2239 31.0703 21.4451 31.464 21.8388C31.8578 22.2326 32.079 22.7666 32.079 23.3234Z" fill="#4C241D"/>
<path d="M77.2569 52.0615H27.1973V105.829H77.2569V52.0615Z" fill="#C1DBDC" stroke="#4C241D" stroke-width="3.29614" stroke-linecap="round" stroke-linejoin="round"/>
<path d="M103.216 52.0615H77.2588V105.829H103.216V52.0615Z" fill="#9DC1E4" stroke="#4C241D" stroke-width="3.29614" stroke-linecap="round" stroke-linejoin="round"/>
<path d="M16.0742 66.894H67.9879L77.2582 52.0615H27.1986L16.0742 66.894Z" fill="#9DC1E4" stroke="#4C241D" stroke-width="3.29614" stroke-linecap="round" stroke-linejoin="round"/>
<path d="M112.486 66.894H86.5291L77.2588 52.0615H103.216L112.486 66.894Z" fill="#9DC1E4" stroke="#4C241D" stroke-width="3.29614" stroke-linecap="round" stroke-linejoin="round"/>
<path d="M59.6449 89.1426H42.9584C40.3985 89.1426 38.3232 91.2178 38.3232 93.7777C38.3232 96.3377 40.3985 98.4129 42.9584 98.4129H59.6449C62.2049 98.4129 64.2801 96.3377 64.2801 93.7777C64.2801 91.2178 62.2049 89.1426 59.6449 89.1426Z" fill="#FC8C29" stroke="#4C241D" stroke-width="3.29614" stroke-linecap="round" stroke-linejoin="round"/>
<path d="M38.3232 83.5803H51.3017" stroke="#4C241D" stroke-width="3.29614" stroke-linecap="round" stroke-linejoin="round"/>
<path d="M38.3232 78.0186H43.8854" stroke="#4C241D" stroke-width="3.29614" stroke-linecap="round" stroke-linejoin="round"/>
<path d="M92.2168 43.2731C92.2168 43.2731 92.2333 35.1099 103.144 33.1208" stroke="#4C241D" stroke-width="3.29614" stroke-linecap="round" stroke-linejoin="round"/>
<path d="M45.2656 8.46973C46.9303 9.51884 48.2655 11.016 49.1179 12.7894C49.9704 14.5628 50.3057 16.5406 50.0853 18.4959" stroke="#4C241D" stroke-width="3.29614" stroke-linecap="round" stroke-linejoin="round"/>
<path d="M36.4688 24.2507C36.4688 24.2507 45.7391 26.1048 45.7391 33.521" stroke="#4C241D" stroke-width="3.29614" stroke-linecap="round" stroke-linejoin="round"/>
<path d="M67.0612 40.937C73.717 40.937 79.1126 35.5414 79.1126 28.8856C79.1126 22.2298 73.717 16.8342 67.0612 16.8342C60.4054 16.8342 55.0098 22.2298 55.0098 28.8856C55.0098 35.5414 60.4054 40.937 67.0612 40.937Z" fill="#A9BA5A" stroke="#4C241D" stroke-width="3.29614" stroke-linecap="round" stroke-linejoin="round"/>
<path d="M71.7537 24.1943L62.4834 33.4646" stroke="#4C241D" stroke-width="3.29614" stroke-linecap="round" stroke-linejoin="round"/>
<path d="M63.4089 27.2214C64.5684 27.2214 65.5083 26.2815 65.5083 25.1221C65.5083 23.9626 64.5684 23.0227 63.4089 23.0227C62.2495 23.0227 61.3096 23.9626 61.3096 25.1221C61.3096 26.2815 62.2495 27.2214 63.4089 27.2214Z" fill="#4C241D"/>
<path d="M70.824 34.6377C71.9834 34.6377 72.9233 33.6978 72.9233 32.5383C72.9233 31.3789 71.9834 30.439 70.824 30.439C69.6645 30.439 68.7246 31.3789 68.7246 32.5383C68.7246 33.6978 69.6645 34.6377 70.824 34.6377Z" fill="#4C241D"/>
<path d="M21.6357 35.375C21.6357 35.375 36.4682 33.5209 42.0304 42.7912" stroke="#4C241D" stroke-width="3.29614" stroke-linecap="round" stroke-linejoin="round"/>
<path d="M84.6748 37.229C84.6748 37.229 86.5289 27.9587 97.6532 20.5425" stroke="#4C241D" stroke-width="3.29614" stroke-linecap="round" stroke-linejoin="round"/>
<ellipse cx="21.0397" cy="68.3089" rx="20.6861" ry="20.6861" fill="#FFD27A"/>
<path d="M19.8178 66.9392V68.5662C19.8178 69.3455 19.7403 70.0108 19.5853 70.5623C19.4349 71.1091 19.2162 71.5535 18.9291 71.8953C18.642 72.2371 18.2979 72.4877 17.8969 72.6472C17.5004 72.8067 17.056 72.8865 16.5639 72.8865C16.1719 72.8865 15.8073 72.8363 15.4701 72.7361C15.1374 72.6358 14.8366 72.4786 14.5678 72.2644C14.2989 72.0502 14.0687 71.7745 13.8773 71.4373C13.6905 71.0955 13.5446 70.6876 13.4398 70.2136C13.3396 69.7397 13.2894 69.1905 13.2894 68.5662V66.9392C13.2894 66.1554 13.3669 65.4945 13.5219 64.9568C13.6768 64.4145 13.8978 63.9747 14.1849 63.6375C14.4721 63.2957 14.8139 63.0473 15.2103 62.8923C15.6114 62.7374 16.058 62.6599 16.5502 62.6599C16.9467 62.6599 17.3112 62.71 17.6439 62.8103C17.9812 62.906 18.282 63.0587 18.5463 63.2683C18.8152 63.4779 19.043 63.7514 19.2299 64.0886C19.4213 64.4213 19.5671 64.8246 19.6674 65.2986C19.7676 65.768 19.8178 66.3149 19.8178 66.9392ZM18.1703 68.7986V66.6931C18.1703 66.2966 18.1475 65.948 18.1019 65.6472C18.0564 65.3419 17.988 65.0844 17.8969 64.8748C17.8103 64.6606 17.7009 64.4874 17.5687 64.3552C17.4366 64.2185 17.2862 64.1205 17.1176 64.0613C16.9489 63.9975 16.7598 63.9656 16.5502 63.9656C16.295 63.9656 16.0671 64.0157 15.8666 64.116C15.6661 64.2117 15.4974 64.3666 15.3607 64.5808C15.224 64.795 15.1192 65.0776 15.0463 65.4285C14.9779 65.7748 14.9437 66.1964 14.9437 66.6931V68.7986C14.9437 69.1996 14.9665 69.5528 15.0121 69.8582C15.0577 70.1635 15.126 70.4255 15.2172 70.6443C15.3083 70.8585 15.4177 71.0362 15.5453 71.1775C15.6775 71.3142 15.8278 71.4145 15.9965 71.4783C16.1696 71.5421 16.3588 71.574 16.5639 71.574C16.8236 71.574 17.0538 71.5238 17.2543 71.4236C17.4548 71.3233 17.6234 71.1638 17.7601 70.9451C17.8969 70.7218 17.9994 70.4324 18.0678 70.0769C18.1361 69.7214 18.1703 69.2953 18.1703 68.7986ZM23.2221 67.0281H24.2064C24.5892 67.0281 24.906 66.962 25.1566 66.8298C25.4118 66.6977 25.601 66.5154 25.724 66.283C25.8471 66.0505 25.9086 65.7839 25.9086 65.4832C25.9086 65.1687 25.8516 64.8998 25.7377 64.6765C25.6283 64.4486 25.4597 64.2732 25.2318 64.1501C25.0085 64.0271 24.7237 63.9656 24.3773 63.9656C24.0857 63.9656 23.8213 64.0248 23.5844 64.1433C23.3519 64.2572 23.1674 64.4213 23.0306 64.6355C22.8939 64.8451 22.8256 65.0958 22.8256 65.3875H21.1713C21.1713 64.8588 21.3103 64.3894 21.5883 63.9792C21.8663 63.5691 22.2445 63.2478 22.723 63.0154C23.2061 62.7784 23.7484 62.6599 24.35 62.6599C24.9926 62.6599 25.5531 62.767 26.0316 62.9812C26.5147 63.1908 26.8907 63.5053 27.1596 63.9246C27.4284 64.3438 27.5629 64.8634 27.5629 65.4832C27.5629 65.7657 27.4968 66.0528 27.3646 66.3445C27.2325 66.6361 27.0365 66.9028 26.7767 67.1443C26.517 67.3813 26.1934 67.575 25.806 67.7253C25.4187 67.8712 24.9698 67.9441 24.4594 67.9441H23.2221V67.0281ZM23.2221 68.3132V67.4109H24.4594C25.0427 67.4109 25.5394 67.4792 25.9496 67.616C26.3643 67.7527 26.7015 67.9418 26.9613 68.1833C27.2211 68.4203 27.4102 68.6915 27.5287 68.9968C27.6517 69.3022 27.7133 69.6257 27.7133 69.9675C27.7133 70.4324 27.629 70.8471 27.4603 71.2117C27.2963 71.5717 27.0616 71.877 26.7562 72.1277C26.4509 72.3783 26.0931 72.5675 25.683 72.6951C25.2774 72.8227 24.8353 72.8865 24.3568 72.8865C23.9284 72.8865 23.5183 72.8272 23.1264 72.7087C22.7344 72.5903 22.3835 72.4148 22.0736 72.1824C21.7637 71.9454 21.5176 71.6514 21.3353 71.3005C21.1576 70.9451 21.0687 70.5349 21.0687 70.0701H22.7162C22.7162 70.3663 22.7846 70.6283 22.9213 70.8562C23.0626 71.0795 23.2585 71.255 23.5092 71.3826C23.7644 71.5102 24.056 71.574 24.3842 71.574C24.7305 71.574 25.029 71.5125 25.2797 71.3894C25.5303 71.2664 25.7217 71.0841 25.8539 70.8425C25.9906 70.601 26.059 70.3093 26.059 69.9675C26.059 69.5802 25.9838 69.2657 25.8334 69.0242C25.683 68.7826 25.4688 68.6049 25.1908 68.491C24.9128 68.3725 24.5847 68.3132 24.2064 68.3132H23.2221Z" fill="white"/>
</svg>
