<svg width="77" height="40" viewBox="0 0 77 40" fill="none" xmlns="http://www.w3.org/2000/svg">
<g opacity="0.1">
<path d="M45.3785 37.5498C46.3322 33.8355 47.5508 29.8028 49.0342 25.4518C50.5177 21.2069 52.1071 16.962 53.8025 12.7171C55.4979 8.36609 57.2463 4.22731 59.0477 0.300782H76.0547C74.9951 4.54568 73.9884 9.00283 73.0348 13.6722C72.0811 18.2355 71.1804 22.7457 70.3327 27.2028C69.485 31.66 68.7963 35.6926 68.2664 39.3008H46.4911L45.3785 37.5498Z" fill="#113565"/>
<path d="M0.0546907 37.5498C1.00835 33.8355 2.22692 29.8028 3.7104 25.4518C5.19387 21.2069 6.78331 16.962 8.47871 12.7171C10.1741 8.36609 11.9225 4.22731 13.7239 0.300782H30.7309C29.6712 4.54568 28.6646 9.00283 27.7109 13.6722C26.7573 18.2355 25.8566 22.7457 25.0089 27.2028C24.1612 31.66 23.4724 35.6926 22.9426 39.3008H1.16729L0.0546907 37.5498Z" fill="#113565"/>
</g>
</svg>
