<svg width="24" height="20" viewBox="0 0 24 20" fill="none" xmlns="http://www.w3.org/2000/svg">
<path d="M16.7383 1.43633C17.8351 1.43633 18.8925 1.89373 19.6401 2.6954L19.9401 3.01509L20.368 2.93148C20.5893 2.88721 20.8057 2.83803 21.0221 2.77901C20.9729 2.84787 20.7417 3.07902 20.4811 3.31018C20.2598 3.50691 19.6056 4.12169 19.6056 4.12169C19.6056 4.12169 20.245 4.32334 20.6434 4.3676C21.0418 4.41187 21.4991 4.33809 21.5729 4.32826C21.4352 4.44138 21.1893 4.61351 21.0418 4.7168L20.6975 4.96763L20.7171 5.3906C20.727 5.57749 20.7319 5.77422 20.7319 5.97095C20.7319 7.45626 20.4417 9.01042 19.8958 10.4711C19.3204 12.0056 18.4941 13.3926 17.4367 14.5926C16.3055 15.8763 14.9677 16.8796 13.448 17.5829C11.7856 18.3551 9.94129 18.7436 7.96416 18.7436C6.54279 18.7436 5.14109 18.5075 3.80825 18.0452C4.29515 17.9518 4.77222 17.819 5.23945 17.6567C6.30671 17.2829 7.3002 16.737 8.19531 16.0337L9.93145 14.6713L7.72316 14.632C6.4395 14.6074 5.2788 13.9729 4.56074 12.9647C4.91977 12.9401 5.27388 12.8762 5.61816 12.7827L8.60353 11.7892L5.56898 11.2531C4.11318 10.963 2.97215 9.88095 2.5541 8.50876C2.93772 8.60712 3.3115 8.64647 3.72955 8.67106C3.72955 8.67106 5.29355 8.73992 6.47393 8.66614C5.83456 8.36121 4.19187 7.23002 4.19187 7.23002C3.08526 6.48736 2.4213 5.25288 2.4213 3.91512C2.4213 3.60036 2.46065 3.28559 2.5295 2.98066C3.6066 4.08234 4.84108 5.00205 6.2231 5.71028C8.04285 6.64966 10.0052 7.17592 12.0561 7.2792L13.0988 7.3333L12.8627 6.31522C12.7939 6.02505 12.7594 5.72012 12.7594 5.40535C12.7594 3.22165 14.5448 1.43633 16.7383 1.43633ZM16.7383 0.649414C14.107 0.649414 11.9774 2.78393 11.9774 5.41519C11.9774 5.78897 12.0168 6.15292 12.1004 6.50212C8.14121 6.30539 4.62959 4.40695 2.28359 1.51994C1.87538 2.22325 1.6393 3.0446 1.6393 3.91512C1.6393 5.56765 2.48032 7.02837 3.75906 7.88414C2.97706 7.86447 2.23933 7.64807 1.59996 7.28904C1.59996 7.30871 1.59996 7.32838 1.59996 7.34805C1.59996 9.65963 3.24265 11.5827 5.42143 12.0204C5.02305 12.1286 4.60008 12.1876 4.16728 12.1876C3.86235 12.1876 3.56233 12.1581 3.27216 12.0991C3.8771 13.9926 5.63783 15.3697 7.72316 15.409C6.09523 16.6878 4.0394 17.4501 1.80652 17.4501C1.4229 17.4501 1.0442 17.4255 0.67041 17.3813C2.77542 18.7485 5.2788 19.5354 7.96416 19.5354C16.7285 19.5354 21.5188 12.2712 21.5188 5.97095C21.5188 5.76438 21.5139 5.55782 21.5041 5.35617C22.4336 4.68237 23.2402 3.84627 23.8796 2.88721C23.0238 3.26592 22.109 3.52167 21.145 3.6397C22.1287 3.04951 22.8861 2.11505 23.2402 1.00353C22.3205 1.54945 21.3024 1.94783 20.2155 2.15931C19.345 1.22977 18.1056 0.649414 16.7383 0.649414Z" fill="white"/>
</svg>
