<svg width="23" height="17" viewBox="0 0 23 17" fill="none" xmlns="http://www.w3.org/2000/svg">
<path d="M11.6342 16.2406C11.6342 16.2406 11.6321 16.2406 11.6306 16.2406C11.4074 16.2384 6.14985 16.1872 4.47701 16.0225C4.37156 16.0037 4.28271 15.9929 4.18304 15.9806C3.62398 15.9112 2.68861 15.7957 1.93742 14.986C1.24041 14.2608 1.02083 12.7151 1.01216 12.6493C1.00277 12.5706 0.799805 10.8559 0.799805 9.1101V7.47338C0.799805 5.72687 1.00277 4.01214 1.01144 3.93991C1.02155 3.8684 1.24041 2.32269 1.94175 1.59245C2.74928 0.72208 3.64854 0.632515 4.13175 0.584121L4.25816 0.570398C7.18562 0.352264 11.5858 0.350098 11.6299 0.350098C11.6826 0.350098 16.0829 0.352265 18.9937 0.568953L19.1367 0.584121C19.6199 0.631793 20.5192 0.721358 21.3303 1.59678C22.0274 2.32269 22.2477 3.8684 22.2563 3.93341C22.2657 4.01214 22.4687 5.72687 22.4687 7.47338V9.1101C22.4687 10.8566 22.2657 12.5713 22.257 12.6436C22.2469 12.7151 22.0274 14.2608 21.3253 14.991C20.5192 15.8614 19.6207 15.9517 19.1374 16.0001L19.0103 16.0138C16.0829 16.2319 11.679 16.2406 11.6342 16.2406ZM11.6386 1.07239C11.5866 1.07239 7.21235 1.07456 4.32822 1.28908L4.20326 1.30281C3.78794 1.34398 3.09309 1.41332 2.46759 2.08794C2.01471 2.56032 1.77996 3.65099 1.72795 4.03236C1.72651 4.0432 1.5221 5.77165 1.5221 7.47338V9.1101C1.5221 10.8133 1.72651 12.5403 1.72868 12.5569C1.78068 12.9325 2.01615 14.0246 2.46253 14.4898C3.0382 15.1102 3.75111 15.1983 4.27188 15.2633C4.39034 15.2785 4.49507 15.2915 4.58102 15.3081C6.1773 15.4641 11.5086 15.5169 11.6357 15.5183C11.7513 15.5183 16.08 15.5075 18.9403 15.2944L19.0659 15.2807C19.4813 15.2388 20.1761 15.1694 20.8009 14.4948C21.2538 14.0232 21.4885 12.9318 21.5412 12.5511C21.542 12.5396 21.7464 10.8118 21.7464 9.1101V7.47338C21.7464 5.77165 21.542 4.0432 21.5398 4.02586C21.4878 3.65027 21.2516 2.55816 20.8045 2.09228C20.1754 1.41332 19.4805 1.34398 19.0652 1.30281L18.9229 1.28764C16.0561 1.07456 11.6819 1.07239 11.6386 1.07239Z" fill="white"/>
<path d="M9.10632 11.1848C9.0377 11.1848 8.96908 11.1653 8.90985 11.1263C8.80657 11.0598 8.74517 10.9457 8.74517 10.8236V6.51227C8.74517 6.31291 8.90697 6.15112 9.10632 6.15112C9.30567 6.15112 9.46747 6.31291 9.46747 6.51227V10.2675L14.7178 7.93447L8.95969 5.37537C8.77767 5.29448 8.69533 5.08068 8.77623 4.89866C8.85713 4.71664 9.07093 4.6343 9.25294 4.71519L15.7536 7.60438C15.8843 7.66288 15.9681 7.79145 15.9681 7.93447C15.9681 8.07748 15.8843 8.20605 15.7536 8.26456L9.25294 11.1537C9.206 11.1747 9.15616 11.1848 9.10632 11.1848Z" fill="white"/>
</svg>
