<svg width="139" height="94" viewBox="0 0 139 94" fill="none" xmlns="http://www.w3.org/2000/svg">
<path d="M137.306 45.6271L137.465 45.4671C138.185 44.6946 138.158 43.6558 138.504 42.8034C138.693 42.3952 138.718 41.9304 138.574 41.5043C138.43 41.0782 138.129 40.7232 137.732 40.5125C137.364 40.3002 137.081 39.965 136.935 39.5656C136.789 39.1663 136.788 38.7284 136.933 38.3284C136.933 37.9821 137.092 37.6624 137.146 37.3161C137.186 37.171 137.194 37.0182 137.166 36.87C137.139 36.7217 137.077 36.5819 136.987 36.4609C136.897 36.34 136.781 36.2413 136.647 36.1725C136.512 36.1037 136.364 36.0668 136.213 36.0642C135.041 35.8511 135.041 35.8245 135.521 34.7057C135.521 34.5192 135.707 34.3592 135.787 34.1727C136.24 32.9474 135.974 32.5211 134.695 32.4145C133.954 32.5178 133.199 32.3577 132.564 31.9619C131.818 31.3226 131.072 31.6422 130.407 31.9619C129.772 32.4401 129.167 32.9559 128.595 33.5068C128.062 33.6399 127.822 34.1194 127.423 34.439C126.437 34.439 125.478 34.0929 124.466 34.2527C124.253 34.2527 124.013 34.2528 124.013 34.013C124.013 32.9742 123.454 33.4537 123.054 33.6934C122.516 33.9492 122.036 34.3115 121.643 34.7587C121.308 35.2227 120.878 35.61 120.382 35.8948C119.886 36.1796 119.335 36.3553 118.765 36.4102C118.654 36.4145 118.545 36.446 118.448 36.5016C118.351 36.5572 118.269 36.6353 118.208 36.7295C118.148 36.8238 118.112 36.9312 118.102 37.0427C118.092 37.1541 118.11 37.2663 118.153 37.3694C118.499 38.5682 117.86 39.1807 116.901 39.5536C115.942 39.9265 115.915 40.5926 115.063 40.3795C114.85 40.3795 114.69 40.5394 114.637 40.7259C114.317 42.0311 112.772 42.324 112.346 43.5493C110.801 44.2152 110.614 45.4939 110.827 46.959L110.454 47.172C109.469 46.9323 109.469 46.9322 109.363 47.8113C108.619 49.3593 107.727 50.8314 106.699 52.2066C106.51 52.694 106.22 53.1358 105.848 53.5031C105.476 53.8704 105.031 54.155 104.541 54.3378C104.451 54.3868 104.377 54.4607 104.328 54.5508C103.662 56.0158 102.277 57.2145 102.064 58.8394C101.711 59.2018 101.487 59.6695 101.424 60.1713C100.679 60.491 100.971 61.1305 100.945 61.6899C100.918 62.2493 100.332 62.7021 100.599 63.3414C101.107 63.3019 101.591 63.1063 101.984 62.7818C102.543 63.1281 103.129 62.7818 103.715 62.7818C104.301 62.7818 104.621 62.7819 104.301 63.5277C103.982 64.2736 104.088 64.1139 104.568 64.3003C105.047 64.4868 105.5 65.2592 106.299 65.2592C106.619 65.2592 106.565 65.6589 106.565 65.9785C106.565 67.0174 106.566 67.0172 107.711 66.7241C108.777 66.4045 109.895 66.1381 110.961 65.7385C112.026 65.339 112.959 65.7388 113.625 64.9929C115.478 64.7339 117.277 64.1762 118.952 63.3414C120.912 62.5672 122.824 61.6777 124.679 60.6776C125.127 60.4961 125.524 60.2105 125.84 59.8445C126.155 59.4785 126.378 59.0426 126.491 58.5731C126.791 58.5888 127.089 58.5099 127.342 58.3474C127.595 58.185 127.791 57.9472 127.902 57.6675C128.063 57.2791 128.313 56.9343 128.633 56.6611C128.952 56.388 129.332 56.194 129.741 56.0956C130.087 56.0956 130.46 55.8293 130.513 55.4564C131.318 53.7816 132.29 52.1932 133.416 50.7151C134.998 49.7292 136.185 48.2213 136.773 46.4527C136.773 46.4527 136.773 46.4529 136.959 46.2931C137.154 46.019 137.299 45.7123 137.386 45.3875C137.337 45.4582 137.309 45.5413 137.306 45.6271Z" fill="#342E60"/>
<path d="M105.632 14.9128C106.116 13.0085 106.296 11.0398 106.165 9.07927C106.12 8.7882 106.02 8.508 105.872 8.25334C105.872 7.74722 105.872 7.26761 105.872 6.78813C105.883 6.44423 105.811 6.10292 105.662 5.79246C105.514 5.48199 105.294 5.21157 105.02 5.0036C105.033 4.90637 105.033 4.80768 105.02 4.71046C104.984 3.86989 104.654 3.06874 104.088 2.4463C103.635 1.78035 102.835 1.70046 102.249 1.30089C101.228 0.610901 100.054 0.180002 98.8286 0.0454098C97.6034 -0.0891824 96.3638 0.0764765 95.217 0.528287L94.631 0.794763C93.9226 0.645699 93.1841 0.759295 92.5532 1.1144C92.179 1.06142 91.7981 1.0886 91.4353 1.19423C91.0724 1.29987 90.7363 1.48148 90.449 1.72702L86.613 3.53838C85.8786 3.6499 85.1728 3.90331 84.5352 4.28432C83.8135 4.80064 83.0128 5.19648 82.1643 5.45639C80.2997 5.69614 79.3408 7.0813 78.222 8.28C75.9045 9.42543 73.9601 11.1834 71.7225 12.462C71.0832 13.2079 70.124 13.6342 69.4847 14.3002C68.3925 15.3923 67.0075 16.005 65.9153 16.964C64.688 17.8622 63.6927 19.0404 63.0119 20.4004L62.2126 21.0397C61.3868 21.0397 61.0138 22.1052 60.1614 22.0252C58.8828 22.0252 58.3236 22.638 58.0039 23.7301C57.631 24.3428 56.6189 24.2893 56.459 25.1417C55.7132 25.5945 54.9671 26.1007 54.1946 26.5002C53.4221 26.8998 53.5554 27.4059 52.9693 27.5125C51.6641 27.7256 50.9715 28.7379 50.3055 29.617C50.0965 29.8872 49.8445 30.1212 49.5596 30.3096C48.0418 31.0532 46.6346 32.0032 45.3776 33.133C43.3265 35.3973 40.4761 36.9424 39.2241 39.9258C39.2241 40.1389 38.8779 40.2719 38.6915 40.4051C38.505 40.5383 38.4517 40.9114 38.3451 41.2044C38.0255 40.9913 37.7325 40.6185 37.3329 41.0181C37.2394 41.0846 37.1634 41.1724 37.1108 41.2743C37.0582 41.3763 37.0305 41.4893 37.0305 41.604C37.0305 41.7187 37.0582 41.8318 37.1108 41.9338C37.1634 42.0357 37.2394 42.1235 37.3329 42.19C36.555 42.9186 35.8501 43.7217 35.2284 44.5875C34.005 45.9571 32.6781 47.2304 31.2594 48.3965C31.0438 48.4637 30.8471 48.5809 30.6851 48.7383C30.5232 48.8956 30.4005 49.0889 30.3271 49.3024L29.5015 49.9684C29.3147 49.964 29.1295 50.0054 28.9624 50.089C28.7952 50.1726 28.6509 50.2956 28.5423 50.4477C25.8785 53.1115 23.5876 55.7754 21.2435 58.6257C21.0871 58.4345 20.9858 58.2042 20.9505 57.9597C20.7907 56.841 20.7375 56.7875 19.7253 57.4001C18.7131 58.0128 17.5942 58.1194 16.6352 58.812C17.2212 57.5867 18.3934 56.9474 19.0327 55.8286C20.2274 54.9628 21.3179 53.9617 22.2824 52.8451C22.6562 52.3886 23.107 52.0012 23.6143 51.6999C24.4884 51.1404 25.2702 50.4484 25.9318 49.6487C26.0916 49.4623 26.2248 49.2226 25.9318 49.0094C25.6388 48.7963 25.4523 49.0094 25.2659 49.0094L24.8399 49.4354C24.1826 50.2218 23.41 50.9043 22.5487 51.4599C21.6696 51.9071 20.9321 52.5894 20.4179 53.4311C20.1249 53.4311 19.8051 53.4312 19.9649 52.8985C20.1248 52.3657 20.3647 52.3658 20.1249 51.9396C19.086 52.7121 18.3668 53.6711 17.4611 54.3104C16.311 55.1011 15.2794 56.0517 14.3977 57.1338C13.9449 57.6666 13.4653 58.1462 12.9858 58.6524C11.2283 60.1511 9.75711 61.9561 8.64384 63.9799C8.04005 64.8133 7.52251 65.7058 7.09896 66.6437C6.29982 67.9223 6.24663 69.4938 5.52741 70.7991C4.80819 72.1043 3.79595 74.0224 2.86362 75.5674C1.94624 76.9874 1.46465 78.6451 1.4784 80.3356C1.4784 81.1081 1.79781 82.0138 0.892119 82.5998C0.892119 82.5998 0.892119 83.0527 0.892119 83.2924C0.899955 83.5146 0.861521 83.7357 0.77896 83.9421C0.696399 84.1485 0.57171 84.3355 0.412819 84.491C0.189688 84.7312 0.0488944 85.0361 0.0105843 85.3618C-0.0277258 85.6874 0.0385512 86.017 0.199833 86.3025C0.652677 86.9418 0.519215 87.7143 0.918783 88.327L1.79804 88.9663L2.65031 89.3393C3.20367 89.4217 3.72523 89.6501 4.16072 90.0013C4.59622 90.3525 4.93001 90.8138 5.12778 91.3371C5.11223 91.6141 5.20265 91.8866 5.38076 92.0993C5.55887 92.312 5.81127 92.4489 6.0867 92.4823C7.87144 92.9086 9.62954 94.1074 11.4143 92.9353C11.4143 92.9353 11.6007 92.9353 11.7073 92.9353C12.9202 92.7502 14.0814 92.3149 15.117 91.6567C15.8628 91.2838 16.1823 90.3513 16.8749 90.1649C18.26 89.8452 19.5388 88.9662 20.7109 88.5933C21.1658 88.4822 21.5905 88.2716 21.9543 87.9768C22.3182 87.682 22.6123 87.3104 22.8154 86.8885C23.6145 86.6487 24.5201 86.6754 25.0529 85.9029C25.4518 85.4872 25.899 85.1204 26.3848 84.8106C26.6409 84.7721 26.8856 84.6781 27.1018 84.5355C27.318 84.3929 27.5004 84.2053 27.6367 83.985C28.1439 83.4494 28.7623 83.031 29.4482 82.7595C30.1374 82.4918 30.7632 82.0837 31.286 81.5609C31.8762 80.9809 32.5387 80.4794 33.2572 80.069C34.8022 79.1367 36.3472 78.2045 37.8922 77.2189C38.2681 77.0072 38.6327 76.776 38.9844 76.5263C39.5705 76.1001 39.3306 75.2211 39.8634 74.9281C40.3961 74.635 41.1154 74.9279 41.5949 74.3951C41.7913 74.42 41.9898 74.3714 42.1522 74.2582C42.3146 74.145 42.4295 73.9754 42.4742 73.7825C42.6372 73.7277 42.8148 73.7357 42.9723 73.8046C43.1299 73.8735 43.256 73.9986 43.3264 74.1555C43.9201 74.8926 44.731 75.4241 45.6439 75.674C46.4034 75.8627 47.0952 76.2591 47.6417 76.8193C47.8815 77.1123 48.2279 77.2188 48.4143 76.8193C48.6008 76.4197 49.1335 76.1799 49.6929 76.4729C50.2252 76.7198 50.7189 77.0428 51.1581 77.4319C51.3808 77.6672 51.6563 77.8459 51.9623 77.9525C52.2682 78.0591 52.5953 78.0905 52.916 78.0445C52.9815 77.8617 53.035 77.675 53.076 77.4852C53.076 76.9791 53.0758 76.6061 53.8749 77.1389C54.5797 77.5651 55.3966 77.7693 56.2191 77.7249C56.0592 77.938 55.8195 78.1777 56.2191 78.3908C56.2962 78.4457 56.385 78.482 56.4786 78.4968C56.5721 78.5116 56.6679 78.5047 56.7582 78.4763C56.8485 78.4479 56.9312 78.3989 56.9995 78.3332C57.0677 78.2676 57.1198 78.187 57.1517 78.0978H57.7109C58.6697 78.5202 59.7499 78.5772 60.7477 78.2578C61.9805 77.9315 63.2637 77.8412 64.5301 77.9915H66.4216C67.8287 77.7883 69.2179 77.4764 70.5769 77.0589H70.8166C71.1362 77.3253 71.4293 77.6717 71.8555 77.5119C73.1598 77.2451 74.4423 76.8799 75.6915 76.4196C76.8323 75.8011 78.1269 75.5239 79.4209 75.6207C80.0069 75.6207 80.6461 75.6204 80.9924 75.0344C82.9257 74.2785 84.8038 73.3884 86.613 72.3706C88.2379 71.3584 89.863 70.373 91.4346 69.2808C92.2071 69.0677 92.8463 68.6947 92.9262 67.789C93.2525 67.6615 93.5649 67.501 93.8584 67.3097C94.2047 67.0433 94.5245 66.6702 94.3381 66.1908C94.1516 65.7113 93.6454 65.8712 93.2991 65.9511C92.4734 66.1109 91.7809 65.9509 91.4079 65.0985C91.3461 64.9338 91.2374 64.7906 91.0955 64.6865C90.9535 64.5825 90.7844 64.522 90.6087 64.5126C89.7829 64.5126 89.3834 63.7667 88.7175 63.4736C88.0515 63.1806 88.7175 63.1009 89.0371 62.9943C89.783 62.8345 89.996 62.4083 89.6498 61.6891C89.4815 61.1144 89.2492 60.5604 88.9571 60.0376C88.5309 59.5581 87.6786 60.0374 87.0126 60.2239C86.5685 60.2504 86.1381 60.3879 85.7607 60.6235C85.7607 60.6235 85.4944 60.4371 85.4411 60.3306C85.0948 59.3716 85.0681 59.3181 84.3488 59.7709C83.65 60.0968 82.9288 60.3729 82.191 60.5969C81.4942 60.5695 80.8007 60.7065 80.1665 60.9965C79.9641 61.0815 79.7468 61.1253 79.5272 61.1253C79.3077 61.1253 79.0904 61.0815 78.8879 60.9965C78.3171 60.7403 77.6886 60.6396 77.0663 60.7051C76.444 60.7707 75.8502 61 75.3452 61.3695C75.3452 60.8367 74.999 60.4902 74.4396 60.4902C74.6585 59.1366 75.2696 57.877 76.1975 56.8675C76.2298 56.5482 76.3683 56.2489 76.5903 56.0172C76.8123 55.7855 77.1054 55.6348 77.423 55.5889C77.7599 55.5312 78.0633 55.3507 78.2753 55.0826C78.9569 54.3741 79.5972 53.6271 80.1932 52.8451C81.232 51.1403 82.8569 49.7817 83.8425 48.1035C83.8425 48.1035 84.0823 47.8372 84.1889 47.8639C84.988 47.8639 85.0947 47.3044 85.3878 46.825C85.7007 46.3176 86.1074 45.8747 86.5863 45.5197C86.906 45.7861 86.5864 46.3189 87.0393 46.5586C87.9983 46.1058 87.3589 45.3865 87.3323 44.7738C87.749 44.8078 88.1673 44.7325 88.5458 44.555C88.9243 44.3774 89.2496 44.1037 89.4898 43.7615C89.9426 43.2288 90.3158 42.6694 90.7153 42.11C91.4494 40.9848 92.278 39.9244 93.1925 38.9402C93.965 38.1677 95.0305 37.715 95.51 36.6761C95.7706 36.1411 96.1325 35.6616 96.5755 35.2642C97.9744 33.7331 99.2733 32.1136 100.465 30.4159C100.731 30.1229 101.051 29.7502 100.705 29.2973C100.172 29.5104 100.252 30.1498 99.6923 30.3096C99.6923 29.0576 100.758 28.5781 101.291 27.6458C101.921 27.3356 102.471 26.8828 102.896 26.3233C103.322 25.7639 103.611 25.113 103.741 24.4224C103.928 23.8097 104.061 23.1972 104.274 22.6112C104.363 22.4506 104.417 22.273 104.433 22.09C104.449 21.907 104.426 21.7227 104.365 21.5492C104.305 21.3757 104.209 21.217 104.083 21.0832C103.957 20.9495 103.804 20.8437 103.635 20.773C103.625 19.8933 103.937 19.0406 104.514 18.3759C104.78 18.5623 104.674 19.0416 105.1 19.1215C106.299 17.7363 106.378 17.4434 105.792 15.8717C105.703 15.7306 105.643 15.5731 105.616 15.4084C105.588 15.2437 105.594 15.0752 105.632 14.9128Z" fill="#FB9C27"/>
</svg>
