<svg width="107" height="99" viewBox="0 0 107 99" fill="none" xmlns="http://www.w3.org/2000/svg">
<path d="M82.9361 15.1068C82.4045 12.6593 80.8117 10.6559 80.098 8.2752C80.0786 8.16134 80.0331 8.05354 79.965 7.96029C79.8968 7.86705 79.808 7.7909 79.7054 7.73785C79.6028 7.68481 79.4896 7.65597 79.3741 7.65428C79.2586 7.65258 79.1441 7.67805 79.04 7.72806L77.4237 7.0931C76.9312 6.84381 76.4863 6.50986 76.1101 6.10594C75.9743 5.51269 75.8973 4.90946 75.2723 4.63991L75.0683 4.36008C75.048 4.15767 74.9623 3.96742 74.8238 3.81837C74.6854 3.66931 74.5018 3.56974 74.3015 3.53461L74.066 3.21169C73.5665 3.11434 73.0847 2.90527 72.5757 3.1115L71.9083 3.59806C71.6795 3.50352 71.4411 3.43399 71.1973 3.39109C70.1964 3.32958 69.9795 3.61972 70.4741 4.47891C70.7523 4.99936 70.9222 5.57072 70.9735 6.15863C70.4466 6.1142 69.8962 6.21874 69.498 5.71783C69.4235 5.61316 69.3137 5.53899 69.1888 5.5089C69.0639 5.47881 68.9324 5.49469 68.8184 5.55396C68.5171 5.77366 68.6252 6.05749 68.6588 6.32968C68.6924 6.60186 68.7531 6.82131 68.8141 7.04059C69.0328 8.19974 69.0328 8.19991 67.7656 8.13479C67.4642 8.35449 67.4218 8.74801 67.1146 9.00492C66.9828 8.50763 67.186 8.06281 66.9623 7.66551C67.1359 7.04447 67.1643 6.49614 66.4002 6.26201C65.6362 6.02788 65.5444 6.12774 65.6278 7.05595C65.391 7.22857 65.305 7.29133 65.0189 7.17024C64.2881 6.84598 63.9851 7.56137 63.5331 7.89092C63.0811 8.22046 63.4224 8.59785 63.6636 8.8835C63.9048 9.16916 63.6761 9.53372 63.5707 9.84132C63.2409 10.659 62.9989 11.5095 62.849 12.3784C62.8535 14.0305 62.6595 15.6773 62.2711 17.2831C62.2114 17.5305 62.1972 17.7865 62.229 18.039C62.2549 18.9733 62.1847 19.9082 62.0203 20.8283C61.8462 21.6233 61.8378 22.4453 61.9947 23.2439C62.1516 24.0425 62.4704 24.8007 62.9324 25.4707C63.0113 25.9407 63.0843 26.4478 63.1789 26.9393C63.2735 27.4308 63.3305 27.5542 63.6655 27.6067C65.0327 27.7637 66.3083 28.383 67.6225 28.5127C67.7795 28.728 67.7666 29.2977 68.242 28.8192C68.4142 28.6937 68.3824 28.2884 68.7586 28.4426C68.9263 28.4893 69.0736 28.5911 69.1762 28.7317C69.2787 28.8724 69.3305 29.0437 69.3236 29.2176C69.3482 30.1557 69.3353 31.0881 69.3442 32.0046C69.3531 32.9212 69.3476 33.3207 70.2072 33.1885C71.9919 32.7561 73.8006 32.4283 75.6235 32.2067C75.8311 32.2202 76.011 31.9243 76.2047 31.783C76.5789 31.7553 76.9432 31.6487 77.2734 31.4705C77.6036 31.2922 77.8924 31.0462 78.1209 30.7486C78.9655 29.7053 79.6051 28.5121 80.0065 27.2313C80.5894 25.3645 81.3825 23.5695 82.3703 21.8816C82.9401 20.8572 83.285 19.7234 83.3826 18.5553C83.4802 17.3871 83.328 16.2116 82.9361 15.1068Z" fill="#342E60"/>
<path d="M66.8672 5.95474C66.8672 5.95474 66.9966 5.86046 67.0396 5.82907L66.8827 5.61388L66.775 5.69242C66.775 5.69242 66.7928 5.94307 66.8672 5.95474Z" fill="#342E60"/>
<path d="M64.7226 62.4717C64.1695 60.0399 62.5982 58.0207 61.8845 55.6401C61.8604 55.5288 61.8124 55.424 61.7432 55.3336C61.674 55.2432 61.5857 55.1692 61.4846 55.1169C61.3835 55.0646 61.272 55.0355 61.1582 55.0313C61.0445 55.0271 60.9311 55.0481 60.8264 55.0928L59.1887 54.4737C58.702 54.2185 58.2642 53.879 57.8965 53.4707C57.7392 52.8931 57.6837 52.2742 57.0372 52.0203L56.8018 51.6976C56.8046 51.4958 56.7419 51.2985 56.6231 51.1355C56.5042 50.9725 56.3356 50.8526 56.1428 50.7935L55.9073 50.4706C55.4293 50.3576 54.9475 50.1485 54.4385 50.3547L53.7496 50.857C53.5244 50.7524 53.2847 50.6825 53.0386 50.65C52.0592 50.5728 51.8208 50.8786 52.3369 51.7221C52.5967 52.254 52.7581 52.8287 52.8143 53.4179C52.3089 53.3578 51.7218 53.4561 51.3393 52.9768C51.2717 52.8702 51.1667 52.7928 51.045 52.7596C50.9232 52.7264 50.7931 52.74 50.6807 52.7976C50.3578 53.033 50.466 53.3168 50.5211 53.5733L50.6554 54.2995C50.8957 55.443 50.8955 55.443 49.6068 55.3936C49.3054 55.6133 49.263 56.0068 48.9558 56.2637C48.8456 55.7507 49.0273 55.3217 48.8251 54.9087C48.9987 54.2877 49.0271 53.7394 48.2631 53.5052C47.5205 53.2554 47.4073 53.371 47.5121 54.2835C47.2538 54.4718 47.1678 54.5346 46.8818 54.4135C46.1509 54.0892 45.848 54.8046 45.4175 55.1184C44.987 55.4323 45.3067 55.8254 45.5264 56.1267C45.7461 56.4281 45.5605 56.7612 45.4551 57.0688C45.1107 57.8886 44.8612 58.7451 44.7118 59.6216C44.7163 61.2737 44.5223 62.9204 44.1338 64.5262C44.071 64.7683 44.0636 65.0217 44.1128 65.2669C44.1212 66.2068 44.0444 67.1455 43.8831 68.0715C43.7127 68.8655 43.7077 69.6861 43.8683 70.4821C44.0289 71.2781 44.3518 72.0325 44.8168 72.6983C44.8741 73.1839 44.9687 73.6753 45.0633 74.1668C45.1579 74.6583 45.1933 74.7973 45.5497 74.8341C46.9169 74.9911 48.1926 75.6105 49.5069 75.7402C49.6638 75.9555 49.651 76.5252 50.1264 76.0468C50.2986 75.9212 50.2452 75.5316 50.6214 75.6859C50.7891 75.7325 50.9358 75.8346 51.0384 75.9752C51.1409 76.1159 51.1933 76.2869 51.1864 76.4609C51.211 77.3989 51.1981 78.3313 51.1854 79.2635C51.1728 80.1958 51.2104 80.5639 52.0485 80.4474C53.8262 80.0202 55.6277 79.6976 57.4432 79.4814C57.5724 79.3872 57.8307 79.1989 58.0244 79.0577C58.3976 79.0252 58.7596 78.9144 59.0871 78.7324C59.4146 78.5505 59.7002 78.3014 59.9249 78.0017C60.7827 76.9728 61.4286 75.7849 61.8261 74.5058C62.4213 72.6436 63.214 70.8502 64.19 69.1563C64.7446 68.1424 65.0785 67.023 65.1703 65.871C65.2621 64.719 65.1096 63.5606 64.7226 62.4717Z" fill="#FB9C27"/>
<path d="M48.5739 53.3448C48.5739 53.3448 48.7027 53.2509 48.7673 53.2038L48.6104 52.9886C48.5769 53.041 48.556 53.1006 48.5496 53.1625C48.5432 53.2244 48.5518 53.2866 48.5739 53.3448Z" fill="#FB9C27"/>
<path d="M25.9881 46.7347C25.7728 46.8916 25.9986 47.1556 25.9636 47.3789L24.997 46.7321C24.8087 46.4738 24.6012 46.4602 24.39 46.713C23.7277 46.4377 23.1365 46.8028 22.5119 46.8956C21.8805 46.3386 21.3138 45.7123 20.8218 45.0289C20.7078 44.8127 20.5275 44.6386 20.3075 44.5321C20.0875 44.4256 19.8394 44.3922 19.5991 44.4369C18.4575 44.6048 17.2941 44.5455 16.1755 44.2627C15.587 44.1469 14.9763 44.2586 14.4668 44.575C13.9573 44.8914 13.5869 45.3888 13.4298 45.9676C13.193 46.1402 13.2051 46.4282 13.1055 46.6986C13.0236 47.0475 12.8658 47.3745 12.6438 47.6559C12.4218 47.9374 12.1409 48.1664 11.8207 48.3274C11.3008 48.1205 10.7258 48.0976 10.1912 48.2627C9.35238 48.5951 8.61174 49.1351 8.0387 49.832C7.75887 50.036 7.65144 50.4769 7.26357 50.3971C7.18996 50.3882 7.11589 50.4075 7.05598 50.4512C6.99606 50.4949 6.95495 50.5595 6.94091 50.6323L6.65392 51.3691C6.26647 51.6516 6.36474 52.2392 6.26337 52.6427C6.162 53.0463 6.12161 53.6691 5.70098 54.0417C5.36559 54.3611 5.14508 54.7821 5.07337 55.2397C5.00167 55.6972 5.08292 56.1657 5.30452 56.5723C5.58993 57.0616 5.81521 57.5838 5.97591 58.1269C6.14741 58.7 6.44547 59.2272 6.848 59.6698C7.25053 60.1123 7.74751 60.4587 8.30186 60.6837C8.60002 61.0926 8.67864 61.5627 8.91806 61.9815C8.36649 62.1601 7.77167 62.154 7.22394 61.9639C6.74095 62.6127 7.22954 63.1467 7.25371 63.7224C7.24826 63.9056 7.3036 64.0856 7.41156 64.2337C7.51952 64.3818 7.67397 64.4896 7.85004 64.5404C8.17333 64.6673 8.40858 64.9902 8.83547 64.9427C8.92059 64.9637 8.99551 65.0143 9.04716 65.0851C9.09882 65.156 9.12391 65.2426 9.11793 65.3301C9.22639 65.9763 9.82418 66.2988 10.1851 66.7939C10.3458 67.0337 10.5565 67.2357 10.8028 67.3862C11.0491 67.5367 11.3251 67.632 11.6118 67.6657C11.5553 67.4324 11.4085 67.2311 11.2038 67.106C11.0779 67.0266 10.987 66.9022 10.9494 66.7582C10.9118 66.6142 10.9304 66.4614 11.0014 66.3306C11.9085 66.6253 12.5945 67.4766 13.6501 67.4323C13.8001 67.4702 13.9292 67.5658 14.009 67.6983C14.1387 67.9499 14.337 68.1594 14.5813 68.3023C14.8256 68.4452 15.1058 68.5157 15.3886 68.5055C15.8751 69.1728 16.4718 68.7707 17.0319 68.725C17.0126 68.9698 16.6014 69.0388 16.7821 69.4675C16.9628 69.8961 17.3152 69.4745 17.5309 69.6799C17.7466 69.8853 18.1166 69.7144 18.2278 69.3696C18.2645 69.4333 18.3142 69.4884 18.3743 69.5308C18.4344 69.5731 18.5033 69.6017 18.5756 69.6148C18.6479 69.628 18.7223 69.6252 18.7934 69.6067C18.8646 69.5882 18.9309 69.5544 18.9877 69.5077L19.9338 69.6751C20.8427 69.4597 21.731 69.1651 22.5885 68.7946C22.9118 68.3939 23.3346 68.0856 23.815 67.9004C24.1214 67.7888 24.3902 67.5929 24.5902 67.3353C24.9095 67.1206 25.2858 67.0071 25.6707 67.0092C26.1282 66.9722 26.5794 66.8758 27.0123 66.7232C27.0123 66.7232 27.0123 66.7232 27.1064 66.8524C27.2006 66.9815 27.6328 66.8972 27.8539 66.703C28.1552 66.4833 28.5 66.232 28.6641 65.9145C28.8283 65.5971 29.3067 64.4901 29.3234 63.6538C29.3929 62.7851 29.396 61.9123 29.3323 61.0431C29.2082 60.3754 29.1268 59.6766 29.0398 59.0147C29.0085 58.2738 28.8453 57.5443 28.5577 56.8608C28.5628 56.0303 28.4483 55.2034 28.2178 54.4054C28.1905 54.3185 28.1919 54.225 28.2215 54.1389C28.4539 53.508 28.1474 52.9073 28.1506 52.2786C28.1538 51.6499 27.8212 51.8264 27.8365 51.4857C27.5496 50.6399 27.7287 49.6193 26.9346 48.8466C26.7934 48.6529 26.834 48.3926 26.8533 48.1478L26.6493 47.8679C26.5394 47.7172 26.4454 47.588 26.4804 47.3647C26.5154 47.1414 26.2679 46.5307 25.9881 46.7347Z" fill="#3D58D1"/>
<path d="M17.1927 69.6297C17.0205 69.7552 16.9131 69.8335 17.0857 70.0702C17.2583 70.307 17.1952 70.2212 17.3831 70.1172C17.571 70.0132 17.6632 69.9129 17.6023 69.6936C17.5413 69.4744 17.1927 69.6297 17.1927 69.6297Z" fill="#3D58D1"/>
</svg>
