<svg width="199" height="57" viewBox="0 0 199 57" fill="none" xmlns="http://www.w3.org/2000/svg">
<g clip-path="url(#clip0_0_801)">
<path d="M195.754 23.7824C196.91 25.008 197.491 26.6697 197.491 28.775V39.8506H193.205V30.0307C193.205 28.79 192.855 27.8126 192.154 27.0983C191.454 26.384 190.507 26.023 189.307 26.023C187.891 26.0456 186.765 26.5343 185.938 27.4817C185.11 28.4291 184.693 29.6472 184.693 31.1285V39.8506H180.437V15.2407H184.693V25.4892C185.893 23.1658 188.002 21.9853 191.014 21.9402C193.011 21.9402 194.599 22.5492 195.754 23.7824ZM170.971 25.7524C169.554 25.7524 168.399 26.2411 167.52 27.211C166.64 28.1885 166.193 29.4442 166.193 30.9931C166.193 32.5872 166.64 33.8654 167.52 34.8429C168.407 35.8128 169.554 36.3016 170.978 36.3016C173.073 36.3016 174.645 35.6023 175.696 34.2113L178.35 36.4369C177.567 37.5873 176.494 38.5046 175.242 39.0911C173.952 39.7077 172.461 40.016 170.754 40.016C169.033 40.016 167.497 39.64 166.155 38.8881C164.836 38.1588 163.748 37.0535 163.032 35.7226C162.287 34.3617 161.914 32.7977 161.914 31.0307C161.914 29.2412 162.294 27.6547 163.047 26.2862C163.77 24.9403 164.866 23.8425 166.193 23.1056C167.534 22.3537 169.077 21.9778 170.829 21.9778C172.424 21.9778 173.848 22.256 175.1 22.8199C176.352 23.3839 177.373 24.1884 178.163 25.226L175.577 27.7148C174.377 26.4065 172.849 25.7524 170.971 25.7524ZM159.194 22.1056V39.8506H154.938V37.0309C154.334 37.9783 153.492 38.7528 152.5 39.2716C151.509 39.7904 150.368 40.0536 149.079 40.0536C147.417 40.0536 145.963 39.6701 144.704 38.9107C143.451 38.1513 142.467 37.076 141.774 35.6925C141.081 34.309 140.731 32.7225 140.731 30.933C140.731 29.166 141.081 27.602 141.782 26.2411C142.475 24.8801 143.459 23.8275 144.711 23.0756C145.963 22.3237 147.409 21.9477 149.049 21.9477C150.339 21.9477 151.486 22.2109 152.485 22.7297C153.484 23.2485 154.334 24.0155 154.938 24.9704V22.1207L159.194 22.1056ZM153.395 35.1211C154.289 34.2489 154.803 33.0909 154.938 31.6548V30.3991C154.803 28.9555 154.297 27.8051 153.402 26.9328C152.508 26.0606 151.375 25.6245 149.996 25.6245C148.535 25.6245 147.342 26.1283 146.425 27.1359C145.509 28.1434 145.039 29.4442 145.017 31.0307C145.039 32.6248 145.509 33.918 146.425 34.9256C147.342 35.9331 148.535 36.4369 149.996 36.4369C151.367 36.4369 152.5 36.0008 153.395 35.1211ZM136.445 24.3914C137.854 26.008 138.554 28.2712 138.554 31.1886C138.554 31.7601 138.539 32.1962 138.524 32.4819H125.592C125.875 33.7451 126.457 34.7301 127.344 35.4519C128.223 36.1737 129.312 36.5271 130.601 36.5271C131.481 36.5271 132.36 36.3542 133.173 36.0083C133.985 35.6775 134.716 35.1737 135.319 34.5346L137.608 36.9557C136.721 37.9407 135.632 38.7077 134.41 39.2114C133.158 39.7453 131.764 40.0085 130.236 40.0085C128.447 40.0085 126.867 39.6325 125.503 38.8806C124.168 38.1588 123.065 37.0535 122.342 35.7151C121.597 34.3541 121.232 32.7902 121.232 31.0232C121.232 29.2562 121.604 27.6847 122.365 26.3163C123.095 24.9704 124.191 23.8576 125.525 23.1132C126.882 22.3462 128.417 21.9703 130.139 21.9703C132.934 21.9703 135.036 22.7823 136.445 24.3914ZM134.663 29.6021C134.619 28.2938 134.194 27.2562 133.389 26.4817C132.584 25.7072 131.51 25.3162 130.176 25.3162C128.931 25.3162 127.888 25.6997 127.046 26.4591C126.203 27.2186 125.689 28.2637 125.488 29.5946H134.663V29.6021ZM116.603 22.8876C117.617 22.2786 118.802 21.9628 120.158 21.9402V26.1208C118.347 26.008 116.901 26.4366 115.82 27.399C114.739 28.3615 114.195 29.6623 114.195 31.2939V39.8506H109.939V22.1056H114.195V25.5193C114.792 24.3688 115.589 23.4891 116.603 22.8876ZM106.749 38.7528C105.355 39.6175 103.887 40.0461 102.359 40.0461C100.853 40.0461 99.6158 39.5949 98.6617 38.7001C97.7001 37.8054 97.2231 36.482 97.2231 34.7376V17.9551L101.449 17.4438V22.8274H106.458V25.9779H101.449V33.9782C101.449 34.7978 101.598 35.3767 101.904 35.7151C102.21 36.061 102.664 36.2264 103.276 36.2264C103.931 36.2264 104.759 35.9858 105.765 35.497L106.749 38.7528ZM89.337 22.1056H93.5633V32.0533C93.5633 37.858 89.5606 40.016 85.4983 40.016C81.436 40.016 77.4408 37.858 77.4408 32.0533V22.1056H81.6671V32.2037C81.6671 34.4293 83.3069 36.2339 85.5058 36.2339C87.7046 36.2339 89.3445 34.4293 89.3445 32.2037L89.337 22.1056ZM68.6827 17.895C70.5088 18.895 72.0294 20.3762 73.0878 22.1733C74.1612 23.9854 74.6904 26.0005 74.6904 28.2111C74.6904 30.4217 74.1537 32.4368 73.0878 34.2639C72.0294 36.076 70.5088 37.5723 68.6827 38.5949C66.8118 39.6551 64.7471 40.1889 62.4737 40.1889C60.2003 40.1889 58.1356 39.6551 56.2721 38.5949C54.446 37.5723 52.9254 36.076 51.867 34.2639C50.8011 32.4368 50.2644 30.4217 50.2644 28.2111C50.2644 26.0005 50.8011 23.9854 51.867 22.1733C52.9254 20.3687 54.446 18.895 56.2721 17.895C58.1356 16.8573 60.2077 16.3385 62.4737 16.3385C64.7471 16.331 66.8192 16.8498 68.6827 17.895ZM58.6499 21.3612C57.4647 22.0379 56.4808 23.0229 55.8026 24.2109C55.1019 25.4215 54.7516 26.7524 54.7516 28.2111C54.7516 29.6698 55.1094 31.0082 55.8175 32.2262C56.5032 33.4218 57.4871 34.4143 58.6648 35.1136C59.8574 35.8204 61.1469 36.1737 62.5482 36.1737C63.8973 36.1813 65.2241 35.8128 66.3794 35.1136C67.5497 34.4143 68.5112 33.4218 69.1821 32.2262C69.8753 31.0006 70.2256 29.6171 70.2107 28.2111C70.2107 26.7524 69.8678 25.4215 69.1821 24.2109C68.5187 23.0305 67.5497 22.0455 66.3794 21.3612C65.2167 20.6695 63.8973 20.3086 62.5482 20.3161C61.1767 20.3086 59.835 20.6695 58.6499 21.3612ZM18.1909 6.3833C24.221 6.3833 33.3295 8.25554 37.5632 12.5489C38.6365 13.6392 40.0453 15.7671 40.0453 18.895C40.0453 24.444 35.6252 32.9631 30.7505 37.9106C28.2311 40.4671 24.221 43.8056 18.8245 43.8056C13.5472 43.8056 9.52216 40.1814 8.35937 38.9934C3.88712 34.4669 0.689453 27.5945 0.689453 21.1958C0.689453 17.1506 1.82988 13.6166 4.72939 10.6767C7.41274 7.9623 12.0415 6.3833 18.1909 6.3833ZM25.6521 28.5269C27.687 26.4667 28.2386 23.9252 28.2386 22.5267C28.2386 21.5116 27.9777 20.0304 26.7254 18.7596C24.8098 16.8122 22.678 16.2633 20.3674 16.2633C17.4381 16.2633 15.4703 17.2032 14.1584 18.5266C13.1298 19.5792 12.2428 21.1733 12.2428 23.4515C12.2428 25.7223 13.4428 27.9178 14.7398 29.2412C15.9473 30.4593 17.8406 31.3616 19.7413 31.3616C21.6494 31.3616 23.6172 30.5871 25.6521 28.5269Z" fill="#5952FF"/>
</g>
<defs>
<clipPath id="clip0_0_801">
<rect width="197.636" height="56.1334" fill="white" transform="translate(0.689453)"/>
</clipPath>
</defs>
</svg>
