<svg width="144" height="57" viewBox="0 0 144 57" fill="none" xmlns="http://www.w3.org/2000/svg">
<g clip-path="url(#clip0_0_799)">
<path d="M45.3379 24.8371H31.699C30.9174 24.8371 30.3312 25.6382 30.6048 26.3807L33.8875 34.8806C34.0438 35.2518 33.7312 35.6622 33.3404 35.6426L29.1198 35.3691C28.9439 35.3495 28.7485 35.4472 28.6313 35.6036L25.3681 40.2345C25.1923 40.4885 24.8405 40.5862 24.567 40.4104L19.7602 37.1277C19.5843 36.9909 19.3107 36.9909 19.1349 37.1277L12.4522 41.6609C12.0224 41.954 11.4557 41.5437 11.5925 41.0552L13.4488 34.3921C13.5269 34.1185 13.3902 33.8254 13.1166 33.7277L9.57989 32.2818C9.22817 32.1255 9.11093 31.7151 9.36495 31.4025L12.5109 27.5336C12.6672 27.3382 12.6867 27.0646 12.5304 26.8692L9.85344 23.059C9.61897 22.7072 9.8339 22.2187 10.2833 22.1797L14.3672 21.867C14.6603 21.8475 14.9143 21.5935 14.8947 21.2808L14.5821 15.5556C14.5626 15.1453 14.9729 14.8522 15.3637 15.0085L20.4245 17.0993C20.6395 17.197 20.913 17.1384 21.0498 16.943L24.5474 13.0545C24.821 12.7419 25.329 12.8396 25.4853 13.2109L27.5761 18.6039C27.8497 19.2682 28.6899 19.5222 29.2761 19.0728L37.4828 12.9568C38.4207 12.2729 37.815 10.7879 36.6622 10.9442L31.2692 11.6672C31.0151 11.7063 30.7611 11.55 30.683 11.3155L27.8497 4.02711C27.537 3.26506 26.5405 3.0892 25.9934 3.69494L19.8188 10.3971C19.6429 10.573 19.4084 10.6121 19.1935 10.5339L11.0454 7.09488C10.3224 6.80178 9.52127 7.29027 9.48219 8.09141L9.18909 16.474C9.16955 16.7671 8.95461 17.0016 8.66151 17.0211L1.23636 17.5096C0.357063 17.5683 -0.0923547 18.5452 0.376602 19.2487L5.32019 26.5175C5.47651 26.7129 5.45697 27.006 5.28111 27.2014L0.278903 32.9657C-0.229134 33.5323 -0.0141952 34.4312 0.68924 34.7243L6.4535 37.2058C6.70752 37.3231 6.8443 37.5966 6.76614 37.8506L3.09265 52.2125C2.83863 53.2285 3.99148 54.0101 4.8317 53.4044L18.6464 43.4977C18.8222 43.3609 19.0958 43.3414 19.2912 43.4977L25.583 47.9137C26.1106 48.2849 26.8141 48.1286 27.1658 47.6206L31.0933 41.5828C31.2105 41.4069 31.4255 41.3092 31.6404 41.3483L41.0586 42.4816C41.8207 42.5988 42.5827 41.954 42.3092 41.2506L38.4012 31.1094C38.284 30.8358 38.4012 30.5427 38.7334 30.3669L45.885 26.9865C46.9206 26.4589 46.5493 24.8371 45.3379 24.8371Z" fill="#8039E9"/>
<path d="M143.214 24.8564H132.623C132.428 24.8564 132.233 25.0323 132.233 25.2472V29.9368C132.233 30.1322 132.408 30.3276 132.623 30.3276H137.157C137.372 30.3276 137.547 30.5035 137.547 30.7184C137.508 33.1218 137 37.4792 132.623 37.4792C129.048 37.4792 127.602 33.1609 127.602 28.0805C127.602 22.0622 129.087 18.3497 132.408 18.3497C134.831 18.3497 135.613 20.4013 135.847 21.1439C135.906 21.3197 136.043 21.4174 136.219 21.4174H141.729C141.944 21.4174 142.139 21.222 142.12 21.0071C141.905 17.9979 139.326 12.7222 132.526 12.7222C127.777 12.7222 123.322 15.6141 121.896 22.7657V13.5624C121.896 13.4451 121.798 13.367 121.701 13.367H115.878C115.76 13.367 115.682 13.4647 115.682 13.5624V30.015C115.682 30.2104 115.409 30.269 115.311 30.0931L107.671 13.4842C107.632 13.4061 107.573 13.367 107.495 13.367H102.337C102.219 13.367 102.141 13.4647 102.141 13.5624V22.7852C100.226 16.9428 95.0287 12.7417 88.2679 12.7417C80.7255 12.7417 75.1371 17.9589 73.867 24.876H63.3154C63.1982 24.876 63.1396 24.9737 63.1396 25.0714V30.1517C63.1396 30.269 63.2373 30.3471 63.3154 30.3471H68.2395C68.3567 30.3471 68.4153 30.4448 68.4153 30.523C68.3958 32.8873 67.9855 37.4597 63.4717 37.4597C59.896 37.4597 58.4695 33.1413 58.4695 28.061C58.4695 22.0427 59.9546 18.3301 63.2763 18.3301C65.8361 18.3301 66.5786 20.6554 66.7545 21.2611C66.774 21.3588 66.8521 21.4174 66.9303 21.4174H72.7923C72.9095 21.4174 72.9877 21.3197 72.9681 21.222C72.8509 18.252 70.3107 12.7417 63.3545 12.7417C57.5902 12.7417 52.2559 17.0209 52.2559 28.0219C52.2559 35.6034 55.2259 43.0676 63.4522 43.0676C69.5487 43.0676 73.4371 38.3585 74.2968 32.6919C76.1336 38.7297 81.3898 43.0676 88.2679 43.0676C94.9114 43.0676 100.207 38.847 102.141 32.9655V42.286C102.141 42.4032 102.239 42.4814 102.337 42.4814H108.159C108.277 42.4814 108.355 42.3837 108.355 42.286V26.107C108.355 25.9116 108.628 25.853 108.726 26.0288L116.366 42.3837C116.405 42.4619 116.464 42.5009 116.542 42.5009H121.701C121.818 42.5009 121.896 42.4032 121.896 42.3251V33.0827C123.029 38.632 126.234 43.1262 132.604 43.1262C139.54 43.1262 143.624 37.0102 143.624 30.3276V25.3254C143.605 25.0128 143.429 24.8564 143.214 24.8564ZM88.2483 36.9907C83.3438 36.9907 79.9439 33.2195 79.9439 27.9047C79.9439 22.5703 83.3438 18.8186 88.2483 18.8186C93.1333 18.8186 96.5528 22.5898 96.5528 27.9047C96.5528 33.2195 93.1333 36.9907 88.2483 36.9907Z" fill="#3E0075"/>
</g>
<defs>
<clipPath id="clip0_0_799">
<rect width="143.842" height="56.1334" fill="white"/>
</clipPath>
</defs>
</svg>
