<svg width="177" height="57" viewBox="0 0 177 57" fill="none" xmlns="http://www.w3.org/2000/svg">
<g clip-path="url(#clip0_0_798)">
<path d="M104.249 24.4697C106.955 24.4697 109.517 26.1249 110.058 29.7013H98.0079C98.5122 26.563 100.858 24.4697 104.249 24.4697ZM109.673 34.9924C108.752 36.4269 106.974 37.5304 104.538 37.5304C101.183 37.5304 98.6204 35.6909 98.0079 32.4434H113.126C113.198 31.978 113.235 31.5076 113.236 31.0365C113.236 25.9859 109.705 21.5113 104.251 21.5113C98.6237 21.5113 94.799 25.6604 94.799 31.0012C94.799 36.4082 98.6612 40.491 104.468 40.491C108.076 40.491 110.818 38.8667 112.405 36.4082L109.673 34.9924Z" fill="#006BFF"/>
<path d="M93.3135 13.6821H90.1752V40.0209H93.3135V13.6821Z" fill="#006BFF"/>
<path d="M130.699 28.9443V40.0199H127.559V29.1242C127.559 26.1658 125.864 24.5061 123.086 24.5061C120.199 24.5061 117.854 26.2022 117.854 30.4594V40.0199H114.715V21.9825H117.854V24.5801C119.189 22.4515 121.173 21.5135 123.703 21.5135C127.923 21.5135 130.702 24.3274 130.702 28.9465" fill="#006BFF"/>
<path d="M148.006 31C148.006 27.32 145.228 24.5414 141.584 24.5414C137.976 24.5414 135.198 27.32 135.198 31C135.198 34.6801 137.976 37.4587 141.584 37.4587C145.226 37.4587 148.006 34.6801 148.006 31ZM151.145 13.6821V40.0209H148.006V36.9169C146.563 39.1238 144.255 40.4899 141.187 40.4899C136.172 40.4899 132.059 36.3398 132.059 31C132.059 25.6603 136.172 21.5102 141.187 21.5102C144.253 21.5102 146.563 22.8807 148.006 25.0821V13.6821H151.145Z" fill="#006BFF"/>
<path d="M156.814 13.6821H153.676V40.0209H156.814V13.6821Z" fill="#006BFF"/>
<path d="M84.5808 31.0001C84.5808 27.32 81.8034 24.5415 78.1586 24.5415C74.5514 24.5415 71.7728 27.32 71.7728 31.0001C71.7728 34.6802 74.5514 37.4587 78.1586 37.4587C81.8001 37.4587 84.5808 34.6802 84.5808 31.0001ZM87.7202 21.9825V40.0199H84.5808V36.9169C83.1375 39.1239 80.829 40.49 77.7625 40.49C72.7472 40.49 68.6334 36.3398 68.6334 31.0001C68.6334 25.6604 72.7472 21.5102 77.7625 21.5102C80.829 21.5102 83.1375 22.8807 84.5808 25.0822V21.9825H87.7202Z" fill="#006BFF"/>
<path d="M63.9779 36.5483C62.3711 37.1412 60.6367 37.3013 58.9486 37.0125C57.2605 36.7237 55.6779 35.9962 54.3596 34.9028C53.0413 33.8095 52.0336 32.3888 51.4376 30.7832C50.8415 29.1776 50.6781 27.4435 50.9636 25.7548C51.2491 24.0661 51.9735 22.4822 53.0643 21.1617C54.155 19.8413 55.5737 18.8309 57.1781 18.2317C58.7826 17.6325 60.5163 17.4656 62.2056 17.7478C63.8949 18.03 65.4802 18.7514 66.8028 19.8395C67.3543 20.2945 67.8532 20.8098 68.2903 21.3756L71.0059 19.3893C69.4238 17.321 67.2633 15.7691 64.7982 14.9301C62.3331 14.0911 59.6744 14.0028 57.159 14.6765C54.6437 15.3502 52.385 16.7555 50.6693 18.7143C48.9535 20.6731 47.858 23.0972 47.5214 25.6794C47.1849 28.2615 47.6225 30.8854 48.7789 33.2186C49.9353 35.5517 51.7583 37.489 54.0169 38.7849C56.2755 40.0808 58.868 40.677 61.4659 40.4978C64.0637 40.3187 66.5498 39.3723 68.6092 37.7787L66.8017 34.9207C65.9573 35.6162 65.003 36.1662 63.9779 36.5483Z" fill="#006BFF"/>
<path d="M171.965 21.9824V32.2205C171.965 35.5309 170.039 37.6275 167.1 37.6275C164.16 37.6275 162.031 35.5309 162.031 32.2205V21.9824H158.856V31.9137C158.856 37.1177 162.099 40.4965 167.1 40.4965C171.425 40.4965 172.101 37.7599 172.101 37.6915V41.3749C172.101 45.0241 170.513 47.0853 167.201 47.0853C166.018 47.0912 164.874 46.6668 163.98 45.8913C163.087 45.1158 162.506 44.0421 162.346 42.8701L159.507 43.8632C159.913 45.5995 160.895 47.147 162.294 48.2537C163.692 49.3604 165.424 49.961 167.207 49.9577C172.342 49.9577 175.152 46.5777 175.152 41.3749V21.9824H171.965Z" fill="#006BFF"/>
<path d="M26.248 32.4912C25.0419 33.5616 23.5357 34.8935 20.8046 34.8935H19.1714C17.1951 34.8935 15.3976 34.1751 14.1109 32.873C12.8541 31.6007 12.1622 29.8594 12.1622 27.9692V25.7346C12.1622 23.8444 12.8541 22.1031 14.1109 20.8308C15.3976 19.5287 17.1951 18.8115 19.1714 18.8115H20.8046C23.539 18.8115 25.0419 20.1422 26.248 21.2126C27.5005 22.3161 28.5808 23.2805 31.4619 23.2805C31.9014 23.2804 32.3401 23.2454 32.774 23.1757L32.764 23.1503C32.5914 22.7217 32.389 22.3058 32.1582 21.9056L30.2327 18.5698C29.3643 17.066 28.1155 15.8173 26.6116 14.9491C25.1077 14.081 23.4018 13.624 21.6653 13.624H17.8131C16.0766 13.624 14.3707 14.081 12.8668 14.9491C11.3629 15.8173 10.114 17.066 9.2457 18.5698L7.32014 21.9056C6.45209 23.4095 5.99512 25.1154 5.99512 26.8519C5.99512 28.5884 6.45209 30.2943 7.32014 31.7982L9.2457 35.134C10.114 36.6378 11.3629 37.8865 12.8668 38.7547C14.3707 39.6229 16.0766 40.0799 17.8131 40.0798H21.6653C23.4018 40.0799 25.1077 39.6229 26.6116 38.7547C28.1155 37.8865 29.3643 36.6378 30.2327 35.134L32.1582 31.8037C32.389 31.4035 32.5914 30.9876 32.764 30.559L32.774 30.5348C32.3403 30.4627 31.9015 30.4258 31.4619 30.4244C28.5808 30.4244 27.5005 31.3833 26.248 32.4923" fill="#006BFF"/>
<path d="M20.8041 20.8364H19.1709C16.1628 20.8364 14.1865 22.9849 14.1865 25.7347V27.9693C14.1865 30.7191 16.1628 32.8676 19.1709 32.8676H20.8041C25.1871 32.8676 24.8428 28.3985 31.4614 28.3985C32.0885 28.3978 32.7143 28.4555 33.3307 28.5707C33.5315 27.4337 33.5315 26.2703 33.3307 25.1334C32.7142 25.248 32.0885 25.3056 31.4614 25.3055C24.8406 25.3055 25.1871 20.8364 20.8041 20.8364Z" fill="#006BFF"/>
<path d="M37.1328 30.2034C36.0057 29.3779 34.7058 28.8191 33.3313 28.5691C33.3313 28.5813 33.3313 28.5912 33.3313 28.6022C33.213 29.2611 33.0281 29.9062 32.7796 30.5278C33.915 30.7036 34.9923 31.1473 35.9223 31.8222C35.9223 31.831 35.9167 31.842 35.9134 31.8519C34.7165 35.7276 32.1692 39.0453 28.7342 41.2025C25.2991 43.3596 21.2043 44.2131 17.1934 43.6079C13.1826 43.0027 9.52195 40.9789 6.87639 37.9042C4.23083 34.8294 2.7759 30.9078 2.7759 26.8516C2.7759 22.7953 4.23083 18.8737 6.87639 15.7989C9.52195 12.7242 13.1826 10.7004 17.1934 10.0952C21.2043 9.48999 25.2991 10.3435 28.7342 12.5007C32.1692 14.6578 34.7165 17.9756 35.9134 21.8512C35.9134 21.8611 35.919 21.8721 35.9223 21.881C34.9925 22.5559 33.9151 22.9993 32.7796 23.1742C33.0278 23.7966 33.2127 24.4425 33.3313 25.102C33.3307 25.1123 33.3307 25.1226 33.3313 25.1329C34.7058 24.8834 36.0056 24.3249 37.1328 23.4998C38.2164 22.6975 38.0067 21.7916 37.8423 21.2553C36.5026 16.9099 33.6484 13.1894 29.7984 10.7698C25.9484 8.35015 21.3581 7.392 16.8616 8.06943C12.3652 8.74687 8.26096 11.0149 5.29477 14.4615C2.32858 17.908 0.697266 22.3044 0.697266 26.8516C0.697266 31.3988 2.32858 35.7951 5.29477 39.2416C8.26096 42.6882 12.3652 44.9562 16.8616 45.6337C21.3581 46.3111 25.9484 45.353 29.7984 42.9333C33.6484 40.5137 36.5026 36.7932 37.8423 32.4478C38.0067 31.9115 38.2164 31.0056 37.1328 30.2034Z" fill="#006BFF"/>
<path d="M32.7739 23.1743C32.3402 23.2463 31.9015 23.2832 31.4619 23.2846C28.5807 23.2846 27.5004 22.3257 26.2491 21.2167C25.0419 20.1463 23.5389 18.8145 20.8045 18.8145H19.1714C17.1939 18.8145 15.3975 19.5328 14.1108 20.8349C12.854 22.1072 12.1621 23.8485 12.1621 25.7387V27.9733C12.1621 29.8635 12.854 31.6048 14.1108 32.8771C15.3975 34.1792 17.1939 34.8965 19.1714 34.8965H20.8045C23.5389 34.8965 25.0419 33.5657 26.2491 32.4953C27.5004 31.3918 28.5807 30.4274 31.4619 30.4274C31.9013 30.4275 32.34 30.4626 32.7739 30.5322C33.023 29.9109 33.2078 29.2657 33.3256 28.6067C33.3262 28.5957 33.3262 28.5846 33.3256 28.5736C32.7091 28.4593 32.0834 28.402 31.4563 28.4025C24.8355 28.4025 25.182 32.8727 20.799 32.8727H19.1659C16.1578 32.8727 14.1815 30.7231 14.1815 27.9733V25.7343C14.1815 22.9845 16.1578 20.836 19.1659 20.836H20.799C25.182 20.836 24.8377 25.304 31.4563 25.304C32.0834 25.305 32.7092 25.2478 33.3256 25.1329C33.3256 25.123 33.3256 25.1131 33.3256 25.102C33.207 24.4425 33.0222 23.7967 32.7739 23.1743Z" fill="#0AE8F0"/>
<path d="M32.7739 23.1743C32.3402 23.2463 31.9015 23.2832 31.4619 23.2846C28.5807 23.2846 27.5004 22.3257 26.2491 21.2167C25.0419 20.1463 23.5389 18.8145 20.8045 18.8145H19.1714C17.1939 18.8145 15.3975 19.5328 14.1108 20.8349C12.854 22.1072 12.1621 23.8485 12.1621 25.7387V27.9733C12.1621 29.8635 12.854 31.6048 14.1108 32.8771C15.3975 34.1792 17.1939 34.8965 19.1714 34.8965H20.8045C23.5389 34.8965 25.0419 33.5657 26.2491 32.4953C27.5004 31.3918 28.5807 30.4274 31.4619 30.4274C31.9013 30.4275 32.34 30.4626 32.7739 30.5322C33.023 29.9109 33.2078 29.2657 33.3256 28.6067C33.3262 28.5957 33.3262 28.5846 33.3256 28.5736C32.7091 28.4593 32.0834 28.402 31.4563 28.4025C24.8355 28.4025 25.182 32.8727 20.799 32.8727H19.1659C16.1578 32.8727 14.1815 30.7231 14.1815 27.9733V25.7343C14.1815 22.9845 16.1578 20.836 19.1659 20.836H20.799C25.182 20.836 24.8377 25.304 31.4563 25.304C32.0834 25.305 32.7092 25.2478 33.3256 25.1329C33.3256 25.123 33.3256 25.1131 33.3256 25.102C33.207 24.4425 33.0222 23.7967 32.7739 23.1743Z" fill="#0AE8F0"/>
</g>
<defs>
<clipPath id="clip0_0_798">
<rect width="175.417" height="56.1334" fill="white" transform="translate(0.697266)"/>
</clipPath>
</defs>
</svg>
