<svg width="143" height="57" viewBox="0 0 143 57" fill="none" xmlns="http://www.w3.org/2000/svg">
<g clip-path="url(#clip0_0_803)">
<path d="M45.0807 37.9205L46.7975 33.9076C48.6774 35.2997 51.1293 36.0365 53.5818 36.0365C55.3802 36.0365 56.5244 35.3408 56.5244 34.2763C56.4834 31.3279 45.6938 33.6209 45.6117 26.2083C45.5707 22.441 48.9224 19.5336 53.6639 19.5336C56.4834 19.5336 59.304 20.23 61.3064 21.8273L59.702 25.9257C57.8597 24.7411 55.5842 23.9152 53.4183 23.9152C51.947 23.9152 50.9658 24.611 50.9658 25.5125C51.0068 28.4199 61.879 26.8226 62.0016 33.9076C62.0016 37.7569 58.7313 40.4598 54.0719 40.4598C50.6393 40.4598 47.4922 39.6409 45.0801 37.9205H45.0807ZM113.444 32.4545C113.011 33.2245 112.38 33.8654 111.618 34.3114C110.855 34.7574 109.987 34.9925 109.104 34.9926C106.35 34.9926 104.118 32.7558 104.118 29.9967C104.118 27.2376 106.35 25.0008 109.104 25.0008C109.987 25.0008 110.855 25.2359 111.618 25.682C112.38 26.128 113.011 26.7689 113.444 27.5389L118.217 24.8894C116.43 21.6942 113.019 19.5336 109.104 19.5336C103.336 19.5336 98.6611 24.2177 98.6611 29.9967C98.6611 35.7751 103.336 40.4598 109.104 40.4598C113.019 40.4598 116.43 38.2992 118.217 35.104L113.444 32.4545ZM65.0989 40.05H71.0661V10.8237H65.0995L65.0989 40.05ZM121.231 10.8237V40.05H127.198V31.2939L134.269 40.05H141.896L132.904 29.6479L141.242 19.9416H133.942L127.198 28.0113V10.8237H121.231ZM89.45 19.9427V22.3185C88.4694 20.6801 86.0579 19.5336 83.5239 19.5336C78.2923 19.5336 74.1645 24.1614 74.1645 29.9762C74.1645 35.7909 78.2923 40.4598 83.5239 40.4598C86.0579 40.4598 88.4694 39.3132 89.45 37.6749V40.05H95.4172V19.9427H89.45ZM89.45 32.4949C88.5919 33.9281 86.7935 34.992 84.7912 34.992C82.0368 34.992 79.8046 32.7558 79.8046 29.9967C79.8046 27.2376 82.0368 25.0008 84.7912 25.0008C86.7935 25.0008 88.5919 26.1063 89.45 27.5799V32.4949Z" fill="black"/>
<path d="M13.5677 10.1782C11.634 10.1782 10.0666 11.7492 10.0666 13.6864C10.0661 14.1467 10.1563 14.6025 10.332 15.0279C10.5077 15.4533 10.7655 15.8399 11.0906 16.1657C11.4157 16.4914 11.8018 16.75 12.2268 16.9265C12.6518 17.1031 13.1075 17.1942 13.5677 17.1946H17.0695V13.6864C17.0703 12.7569 16.7018 11.8651 16.0451 11.2072C15.3884 10.5493 14.4973 10.1792 13.5677 10.1782ZM13.5677 19.5335H4.23067C2.2969 19.5335 0.729492 21.1044 0.729492 23.0423C0.729492 24.9795 2.2969 26.5505 4.23067 26.5505H13.5683C15.5015 26.5505 17.0695 24.9795 17.0695 23.0423C17.0695 21.1044 15.5015 19.5335 13.5677 19.5335Z" fill="#36C5F0"/>
<path d="M35.7443 23.0422C35.7443 21.1044 34.1763 19.5335 32.2425 19.5335C30.3088 19.5335 28.7414 21.1044 28.7414 23.0422V26.5505H32.2425C33.1721 26.5495 34.0632 26.1794 34.7199 25.5215C35.3766 24.8636 35.7451 23.9718 35.7443 23.0422ZM26.4072 23.0422V13.6864C26.408 12.7569 26.0395 11.8651 25.3828 11.2072C24.7262 10.5493 23.835 10.1792 22.9055 10.1782C20.9717 10.1782 19.4043 11.7492 19.4043 13.6864V23.0417C19.4043 24.9801 20.9717 26.551 22.9055 26.551C23.835 26.5501 24.7262 26.18 25.3828 25.5221C26.0395 24.8642 26.408 23.9724 26.4072 23.0428" fill="#2EB67D"/>
<path d="M22.9055 45.2619C23.835 45.261 24.7262 44.8908 25.3828 44.2329C26.0395 43.575 26.408 42.6832 26.4072 41.7537C26.408 40.8241 26.0395 39.9323 25.3828 39.2744C24.7262 38.6165 23.835 38.2464 22.9055 38.2455H19.4043V41.7537C19.4043 43.691 20.9717 45.2619 22.9055 45.2619ZM22.9055 35.9067H32.2431C34.1763 35.9067 35.7443 34.3357 35.7443 32.3979C35.7451 31.4683 35.3766 30.5765 34.7199 29.9186C34.0632 29.2607 33.1721 28.8906 32.2425 28.8896H22.9055C20.9717 28.8896 19.4043 30.4606 19.4043 32.3979C19.4038 32.8581 19.494 33.3139 19.6697 33.7393C19.8454 34.1647 20.1032 34.5513 20.4283 34.8771C20.7534 35.2029 21.1395 35.4614 21.5646 35.6379C21.9896 35.8145 22.4452 35.9056 22.9055 35.9061" fill="#ECB22E"/>
<path d="M0.729494 32.3979C0.729032 32.8581 0.819226 33.3139 0.994927 33.7393C1.17063 34.1647 1.42839 34.5513 1.75351 34.8771C2.07862 35.2029 2.46472 35.4614 2.88975 35.6379C3.31478 35.8145 3.77043 35.9056 4.23067 35.9061C5.16023 35.9051 6.05135 35.535 6.70804 34.8771C7.36473 34.2192 7.73321 33.3274 7.73244 32.3979V28.8896H4.23067C2.29691 28.8896 0.729494 30.4606 0.729494 32.3979ZM10.0666 32.3979V41.7531C10.0666 43.691 11.634 45.2619 13.5677 45.2619C14.4973 45.261 15.3884 44.8908 16.0451 44.2329C16.7018 43.575 17.0703 42.6832 17.0695 41.7537V32.3979C17.07 31.9376 16.9797 31.4817 16.804 31.0563C16.6283 30.6308 16.3705 30.2442 16.0453 29.9184C15.7201 29.5927 15.3339 29.3341 14.9088 29.1576C14.4837 28.9811 14.028 28.89 13.5677 28.8896C11.634 28.8896 10.0666 30.4606 10.0666 32.3979Z" fill="#E01E5A"/>
</g>
<defs>
<clipPath id="clip0_0_803">
<rect width="141.503" height="56.1334" fill="white" transform="translate(0.729492)"/>
</clipPath>
</defs>
</svg>
