<svg width="164" height="57" viewBox="0 0 164 57" fill="none" xmlns="http://www.w3.org/2000/svg">
<g clip-path="url(#clip0_0_805)">
<path d="M24.842 4.16504C11.2788 4.16504 0.283203 15.1604 0.283203 28.7236C0.283203 42.2873 11.2788 53.2818 24.842 53.2818C38.4067 53.2818 49.4011 42.2873 49.4011 28.7236C49.4011 15.1613 38.4067 4.16621 24.8417 4.16621L24.842 4.16504ZM36.1045 39.5855C35.6646 40.3069 34.7203 40.5356 33.9989 40.0928C28.2327 36.5707 20.9739 35.773 12.4252 37.7262C11.6014 37.9139 10.7803 37.3977 10.5926 36.5736C10.404 35.7496 10.9181 34.9284 11.744 34.7407C21.0991 32.6034 29.1237 33.5237 35.5972 37.4798C36.3186 37.9227 36.5474 38.864 36.1045 39.5855ZM39.1105 32.8985C38.5562 33.7994 37.3773 34.0838 36.477 33.5296C29.8756 29.472 19.8128 28.2969 12.0047 30.667C10.992 30.9729 9.9225 30.4022 9.61516 29.3913C9.31017 28.3787 9.88115 27.3112 10.892 27.0033C19.8111 24.297 30.8991 25.6079 38.48 30.2664C39.3803 30.8207 39.6648 31.9996 39.1105 32.8988V32.8985ZM39.3686 25.9352C31.4534 21.2339 18.3943 20.8016 10.8372 23.0952C9.62367 23.4633 8.34034 22.7782 7.97259 21.5647C7.60484 20.3506 8.28931 19.0681 9.50372 18.6992C18.1788 16.0657 32.6 16.5745 41.7129 21.9843C42.8068 22.6322 43.1646 24.0419 42.5165 25.132C41.8713 26.2235 40.4577 26.5833 39.3697 25.9352H39.3686ZM67.0996 26.8361C62.859 25.8249 62.1053 25.1152 62.1053 23.624C62.1053 22.2151 63.4309 21.267 65.4046 21.267C67.3166 21.267 69.2111 21.987 71.1995 23.4691C71.2581 23.514 71.3344 23.5319 71.4077 23.5202C71.4839 23.509 71.5484 23.4683 71.5924 23.407L73.6629 20.4884C73.7479 20.3682 73.7245 20.2025 73.6101 20.1107C71.2434 18.2124 68.5806 17.2895 65.4661 17.2895C60.8883 17.2895 57.6888 20.0371 57.6888 23.9683C57.6888 28.1839 60.4484 29.6767 65.2169 30.8289C69.2727 31.7635 69.9589 32.5465 69.9589 33.946C69.9589 35.4974 68.5747 36.4622 66.3459 36.4622C63.8708 36.4622 61.8502 35.6264 59.5921 33.6733C59.5363 33.6234 59.4601 33.6029 59.3897 33.6058C59.3135 33.6117 59.246 33.6469 59.1991 33.7026L56.8764 36.4651C56.7797 36.5824 56.7914 36.7525 56.9028 36.8522C59.5305 39.1984 62.7622 40.4359 66.2521 40.4359C71.1848 40.4359 74.3726 37.7408 74.3726 33.5677C74.3814 30.0465 72.2728 28.0963 67.1084 26.8399L67.0996 26.8361ZM85.5342 22.6542C83.3963 22.6542 81.6426 23.4964 80.1939 25.2223V23.2797C80.1939 23.1263 80.0707 23.0014 79.9182 23.0014H76.1204C75.9679 23.0014 75.8448 23.1263 75.8448 23.2797V44.8642C75.8448 45.0167 75.9679 45.1428 76.1204 45.1428H79.9182C80.0707 45.1428 80.1939 45.0167 80.1939 44.8642V38.0517C81.6426 39.6734 83.3963 40.4682 85.5342 40.4682C89.5079 40.4682 93.5315 37.4094 93.5315 31.5621C93.5374 25.7135 89.5138 22.6539 85.5371 22.6539L85.5342 22.6542ZM89.115 31.5621C89.115 34.5384 87.2821 36.6176 84.6544 36.6176C82.059 36.6176 80.1 34.4445 80.1 31.5621C80.1 28.6793 82.059 26.5068 84.6544 26.5068C87.2381 26.5065 89.115 28.6321 89.115 31.5618V31.5621ZM103.84 22.6542C98.7223 22.6542 94.7134 26.5945 94.7134 31.6257C94.7134 36.603 98.6959 40.5005 103.778 40.5005C108.913 40.5005 112.934 36.5736 112.934 31.5621C112.934 26.5675 108.94 22.6547 103.84 22.6547V22.6542ZM103.84 36.647C101.118 36.647 99.0654 34.4592 99.0654 31.5606C99.0654 28.6488 101.048 26.5358 103.778 26.5358C106.517 26.5358 108.582 28.7227 108.582 31.6242C108.582 34.5355 106.588 36.647 103.84 36.647ZM123.861 23.0014H119.682V18.7297C119.682 18.5766 119.559 18.4517 119.406 18.4517H115.608C115.456 18.4517 115.33 18.5766 115.33 18.7297V23.0014H113.506C113.353 23.0014 113.23 23.1263 113.23 23.2797V26.5428C113.23 26.6959 113.353 26.8212 113.506 26.8212H115.33V35.2657C115.33 38.6763 117.028 40.4066 120.38 40.4066C121.741 40.4066 122.87 40.1251 123.934 39.5209C124.022 39.474 124.075 39.3802 124.075 39.2805V36.1719C124.075 36.078 124.025 35.9871 123.943 35.9373C123.861 35.8845 123.758 35.8815 123.673 35.9255C122.943 36.2921 122.236 36.4622 121.444 36.4622C120.227 36.4622 119.682 35.9079 119.682 34.6704V26.8226H123.861C124.013 26.8226 124.137 26.6977 124.137 26.5443V23.2815C124.142 23.1281 124.019 23.0031 123.864 23.0031L123.861 23.0014ZM138.419 23.0181V22.4935C138.419 20.95 139.011 20.2617 140.336 20.2617C141.128 20.2617 141.765 20.4189 142.477 20.6564C142.565 20.684 142.656 20.6702 142.727 20.6177C142.8 20.5652 142.841 20.4811 142.841 20.3919V17.1924C142.841 17.0701 142.765 16.9619 142.644 16.9258C141.894 16.7021 140.932 16.4724 139.489 16.4724C135.984 16.4724 134.128 18.4473 134.128 22.1814V22.985H132.304C132.151 22.985 132.025 23.1099 132.025 23.263V26.5428C132.025 26.6959 132.151 26.8212 132.304 26.8212H134.128V39.8435C134.128 39.999 134.254 40.1221 134.407 40.1221H138.202C138.357 40.1221 138.48 39.999 138.48 39.8435V26.822H142.026L147.457 39.8435C146.841 41.2101 146.234 41.4829 145.407 41.4829C144.738 41.4829 144.032 41.2835 143.313 40.8876C143.246 40.8524 143.164 40.8465 143.093 40.867C143.02 40.8934 142.958 40.9462 142.929 41.0166L141.642 43.8407C141.58 43.9756 141.633 44.1311 141.762 44.2014C143.105 44.9287 144.316 45.2396 145.815 45.2396C148.618 45.2396 150.17 43.9316 151.533 40.4183L158.12 23.3982C158.155 23.3125 158.143 23.2158 158.091 23.1398C158.041 23.0644 157.956 23.019 157.865 23.019H153.912C153.791 23.019 153.686 23.0944 153.648 23.2055L149.598 34.7701L145.164 23.1979C145.123 23.0902 145.02 23.019 144.906 23.019H138.419V23.0181ZM129.978 23.0014H126.181C126.028 23.0014 125.902 23.1263 125.902 23.2797V39.8435C125.902 39.999 126.028 40.1221 126.181 40.1221H129.978C130.131 40.1221 130.257 39.999 130.257 39.8435V23.2809C130.257 23.1275 130.134 23.0026 129.978 23.0026V23.0014ZM128.102 15.4589C126.597 15.4589 125.377 16.6766 125.377 18.1807C125.377 19.6857 126.597 20.9048 128.102 20.9048C129.606 20.9048 130.823 19.6857 130.823 18.1807C130.823 16.6769 129.603 15.4589 128.102 15.4589ZM161.364 28.3274C159.862 28.3274 158.692 27.1206 158.692 25.6551C158.692 24.1897 159.877 22.9691 161.378 22.9691C162.88 22.9691 164.05 24.1756 164.05 25.6399C164.05 27.1053 162.865 28.3274 161.364 28.3274ZM161.378 23.2348C160.009 23.2348 158.973 24.3228 158.973 25.6551C158.973 26.9868 160.003 28.0602 161.364 28.0602C162.733 28.0602 163.768 26.9731 163.768 25.6399C163.768 24.3082 162.739 23.2348 161.378 23.2348ZM161.971 25.9147L162.727 26.9728H162.088L161.408 26.0021H160.824V26.9728H160.29V24.168H161.539C162.193 24.168 162.622 24.5014 162.622 25.0627C162.625 25.5226 162.358 25.8035 161.974 25.9147H161.971ZM161.519 24.6492H160.824V25.5364H161.519C161.865 25.5364 162.073 25.3666 162.073 25.0924C162.073 24.8038 161.865 24.6492 161.519 24.6492Z" fill="#1ED760"/>
</g>
<defs>
<clipPath id="clip0_0_805">
<rect width="163.722" height="56.1334" fill="white" transform="translate(0.199219 0.563965)"/>
</clipPath>
</defs>
</svg>
