<svg width="174" height="57" viewBox="0 0 174 57" fill="none" xmlns="http://www.w3.org/2000/svg">
<path d="M102.409 17.5424C98.8652 17.5424 95.4009 20.7516 95.0024 25.3885V17.9246H89.9132V40.4301H95.0648V29.5365C95.0648 26.485 97.2277 22.1805 102.409 22.1805V17.5424Z" fill="black"/>
<path d="M156.447 36.8272V21.4083H159.431C163.41 21.4083 166.643 23.8952 166.643 28.9934C166.643 34.0915 163.41 36.8272 159.431 36.8272H156.447ZM151.348 40.4333H160.053C165.4 40.4333 171.99 36.9516 171.99 28.9934C171.99 21.1596 165.4 17.9266 160.053 17.9266H151.348V40.4333Z" fill="black"/>
<path d="M131.841 29.2423C131.841 25.1389 133.955 21.7816 137.437 21.7816C140.794 21.7816 142.659 25.1389 142.659 29.2423C142.659 33.3458 140.794 36.7031 137.437 36.7031C133.955 36.7031 131.841 33.3458 131.841 29.2423ZM126.619 29.491C126.619 36.2057 130.1 40.9309 135.571 40.9309C139.55 40.9309 141.913 38.3196 143.157 34.0918V40.4335H148.254V17.9268H143.157V23.8955C142.038 19.9164 139.675 17.5538 135.945 17.5538C130.349 17.5538 126.619 22.652 126.619 29.491Z" fill="black"/>
<path d="M10.5232 40.9309C4.18155 40.9309 0.451172 35.8327 0.451172 29.491C0.451172 22.9007 4.5546 17.5538 12.3884 17.5538C20.4709 17.5538 23.2066 23.025 23.3308 26.1337H17.4866C17.3622 24.3928 15.8701 21.7816 12.264 21.7816C8.40932 21.7816 5.92241 25.1389 5.92241 29.2423C5.92241 33.3458 8.40932 36.7031 12.264 36.7031C15.7457 36.7031 17.2379 33.9675 17.8596 31.2319H12.264V28.9936H24.0055V40.4335H18.8544V33.2214C18.4814 35.8327 16.8649 40.9309 10.5232 40.9309Z" fill="black"/>
<path d="M34.4495 40.9306C29.6 40.9306 26.6157 37.6976 26.6157 31.2316V17.9266H31.8382V31.2316C31.8382 34.5889 33.4547 36.2054 36.1903 36.2054C41.5372 36.2054 43.5268 29.6151 43.5268 25.0143V17.9266H48.7493V40.4333H43.651V32.102C42.6563 36.7028 39.9207 40.9306 34.4495 40.9306Z" fill="black"/>
<path d="M79.9577 17.542C75.5019 17.542 72.6911 21.8462 71.7736 25.826C71.6167 20.4926 68.994 17.542 64.7974 17.542C61.1718 17.542 57.8081 20.7753 56.9345 25.8904V17.9249H51.8434V40.432H56.9997V32.3633C56.9997 30.3629 57.8337 22.154 63.0244 22.154C66.387 22.154 66.7375 25.1871 66.7375 29.3332V40.432H71.8915V32.3633C71.8915 30.3629 72.7599 22.154 77.9506 22.154C81.3105 22.154 81.6575 25.1871 81.6575 29.3332V40.432H86.8185V27.1192C86.8419 20.7324 84.5869 17.542 79.9577 17.542Z" fill="black"/>
<path d="M113.472 17.542C106.796 17.542 102.273 22.7761 102.273 29.2364C102.273 36.3548 106.575 40.9307 113.472 40.9307C120.147 40.9307 124.75 35.6968 124.75 29.2364C124.75 22.1181 120.365 17.542 113.472 17.542ZM113.472 36.9469C109.586 36.9469 107.069 33.657 107.069 29.2364C107.069 24.8159 109.594 21.5258 113.472 21.5258C117.348 21.5258 119.773 24.8159 119.773 29.2364C119.773 33.657 117.346 36.9469 113.472 36.9469Z" fill="black"/>
</svg>
