<svg width="244" height="57" viewBox="0 0 244 57" fill="none" xmlns="http://www.w3.org/2000/svg">
<g clip-path="url(#clip0_0_797)">
<path fill-rule="evenodd" clip-rule="evenodd" d="M42.688 28.0666C42.688 39.6926 33.2639 49.1167 21.6379 49.1167C10.0124 49.1167 0.587891 39.6926 0.587891 28.0666C0.587891 16.4411 10.0124 7.0166 21.6379 7.0166C33.2639 7.0166 42.688 16.4411 42.688 28.0666Z" fill="#ECB360"/>
<path fill-rule="evenodd" clip-rule="evenodd" d="M37.0746 25.9616C37.0746 36.4246 28.9063 44.9067 18.8313 44.9067C8.7558 44.9067 0.587891 36.4246 0.587891 25.9616C0.587891 15.4987 8.7558 7.0166 18.8313 7.0166C28.9063 7.0166 37.0746 15.4987 37.0746 25.9616Z" fill="#D76835"/>
<path fill-rule="evenodd" clip-rule="evenodd" d="M38.4779 23.8564C38.4779 33.1571 31.2525 40.6966 22.3389 40.6966C13.4266 40.6966 6.20117 33.1571 6.20117 23.8564C6.20117 14.5562 13.4266 7.0166 22.3389 7.0166C31.2525 7.0166 38.4779 14.5562 38.4779 23.8564Z" fill="#D33A41"/>
<path fill-rule="evenodd" clip-rule="evenodd" d="M37.0736 25.2601C37.0736 33.7852 30.4763 40.6966 22.3383 40.6966C14.2004 40.6966 7.60352 33.7852 7.60352 25.2601C7.60352 16.7343 14.2004 9.82324 22.3383 9.82324C30.4763 9.82324 37.0736 16.7343 37.0736 25.2601Z" fill="#B6CB46"/>
<path fill-rule="evenodd" clip-rule="evenodd" d="M35.6702 26.6625C35.6702 34.413 29.3871 40.6961 21.6367 40.6961C13.8866 40.6961 7.60352 34.413 7.60352 26.6625C7.60352 18.9121 13.8866 12.6294 21.6367 12.6294C29.3871 12.6294 35.6702 18.9121 35.6702 26.6625Z" fill="#66AD4A"/>
<path fill-rule="evenodd" clip-rule="evenodd" d="M30.0569 23.8561C30.0569 30.0564 25.0305 35.0828 18.8302 35.0828C12.6295 35.0828 7.60352 30.0564 7.60352 23.8561C7.60352 17.6558 12.6295 12.6294 18.8302 12.6294C25.0305 12.6294 30.0569 17.6558 30.0569 23.8561Z" fill="#AED7DC"/>
<path fill-rule="evenodd" clip-rule="evenodd" d="M31.4602 22.4527C31.4602 27.8779 27.0622 32.2761 21.6366 32.2761C16.211 32.2761 11.8135 27.8779 11.8135 22.4527C11.8135 17.0272 16.211 12.6294 21.6366 12.6294C27.0622 12.6294 31.4602 17.0272 31.4602 22.4527Z" fill="#5BB1CF"/>
<path fill-rule="evenodd" clip-rule="evenodd" d="M31.4621 23.1542C31.4621 28.192 27.6924 32.2761 23.0421 32.2761C18.3917 32.2761 14.6221 28.192 14.6221 23.1542C14.6221 18.1168 18.3917 14.0327 23.0421 14.0327C27.6924 14.0327 31.4621 18.1168 31.4621 23.1542Z" fill="#25A8C3"/>
<path fill-rule="evenodd" clip-rule="evenodd" d="M21.6386 32.276C17.7637 32.276 14.6221 28.8203 14.6221 24.5575C14.6221 20.2947 17.7637 16.8394 21.6386 16.8394C25.5138 16.8394 28.6554 20.2947 28.6554 24.5575C28.6554 28.8203 25.5138 32.276 21.6386 32.276Z" fill="#1B1A18"/>
<path fill-rule="evenodd" clip-rule="evenodd" d="M25.4663 22.3331C24.7988 23.4498 23.4863 24.0956 22.5344 23.7746C21.5825 23.454 21.3521 22.2882 22.0191 21.1711C22.6866 20.054 23.9991 19.4086 24.951 19.7292C25.9029 20.0498 26.1333 21.2156 25.4663 22.3331Z" fill="#FFFFFE"/>
<path fill-rule="evenodd" clip-rule="evenodd" d="M214.478 35.9573C214.142 35.0161 213.975 33.8233 213.975 32.2229C213.975 30.6225 214.142 29.4302 214.478 28.4885C215.417 25.7898 217.9 24.315 221.153 24.315C223.568 24.315 225.48 25.2247 226.755 26.6685C226.856 26.7941 226.889 26.9826 226.721 27.1081L224.608 28.8335C224.441 28.9591 224.273 28.9281 224.139 28.771C223.334 27.9238 222.495 27.4532 221.153 27.4532C219.711 27.4532 218.604 28.1124 218.134 29.4302C217.866 30.1834 217.799 31.0621 217.799 32.2229C217.799 33.3842 217.866 34.2944 218.134 35.0476C218.604 36.3339 219.711 36.993 221.153 36.993C222.495 36.993 223.334 36.5224 224.139 35.6752C224.273 35.5182 224.441 35.5182 224.608 35.6437L226.721 37.3696C226.889 37.4952 226.856 37.6522 226.755 37.8087C225.48 39.2211 223.568 40.1313 221.153 40.1313C217.9 40.1313 215.417 38.6565 214.478 35.9573Z" fill="black"/>
<path fill-rule="evenodd" clip-rule="evenodd" d="M239.852 39.7859C239.618 39.7859 239.45 39.6919 239.316 39.4718L235.223 33.1327L233.043 35.4863V39.4718C233.043 39.6603 232.909 39.7859 232.708 39.7859H229.621C229.42 39.7859 229.286 39.6603 229.286 39.4718V18.7597C229.286 18.5717 229.42 18.4462 229.621 18.4462H232.708C232.909 18.4462 233.043 18.5717 233.043 18.7597V31.0617L238.578 24.9738C238.779 24.7537 238.947 24.6597 239.215 24.6597H242.637C242.838 24.6597 242.905 24.8477 242.771 24.9738L237.638 30.4966L243.542 39.4718C243.643 39.5973 243.576 39.7859 243.375 39.7859H239.852Z" fill="black"/>
<path fill-rule="evenodd" clip-rule="evenodd" d="M59.9942 36.5221H64.7577C66.9717 36.5221 68.2127 35.3293 68.2127 33.5409C68.2127 31.7834 66.9717 30.5912 64.7577 30.5912H59.9942C59.8604 30.5912 59.793 30.6537 59.793 30.7792V36.3335C59.793 36.4591 59.8604 36.5221 59.9942 36.5221ZM64.5565 27.3274C66.5692 27.3274 67.8103 26.1976 67.8103 24.5342C67.8103 22.8398 66.5692 21.71 64.5565 21.71H59.9942C59.8604 21.71 59.793 21.7725 59.793 21.898V27.1388C59.793 27.2643 59.8604 27.3274 59.9942 27.3274H64.5565ZM55.835 18.7597C55.835 18.5717 55.9693 18.4462 56.17 18.4462H64.6571C69.4875 18.4462 71.7683 20.7057 71.7683 24.1261C71.7683 26.5427 70.561 27.9235 69.1182 28.6452V28.7082C70.5273 29.2098 72.1708 30.9047 72.1708 33.5094C72.1708 37.7459 69.3194 39.7859 64.3216 39.7859H56.17C55.9693 39.7859 55.835 39.6604 55.835 39.4718V18.7597Z" fill="black"/>
<path fill-rule="evenodd" clip-rule="evenodd" d="M74.9544 39.7862C74.7526 39.7862 74.6183 39.6607 74.6183 39.4721V24.9741C74.6183 24.7855 74.7526 24.66 74.9544 24.66H78.0401C78.2413 24.66 78.3757 24.7855 78.3757 24.9741V26.2604H78.4094C79.1806 25.0996 80.5559 24.3149 82.6024 24.3149C83.8766 24.3149 85.1514 24.7855 85.9899 25.5702C86.158 25.7268 86.1917 25.8528 86.0569 26.0093L84.279 28.1124C84.1452 28.2689 83.9772 28.3004 83.8097 28.1749C83.0717 27.7353 82.3 27.4532 81.4282 27.4532C79.3149 27.4532 78.3757 28.865 78.3757 31.2816V39.4721C78.3757 39.6607 78.2413 39.7862 78.0401 39.7862H74.9544Z" fill="black"/>
<path fill-rule="evenodd" clip-rule="evenodd" d="M96.3693 35.0161C96.6379 34.2314 96.7048 33.5097 96.7048 32.2229C96.7048 30.9366 96.6379 30.2459 96.3693 29.4302C95.8994 28.1749 94.8601 27.4532 93.3505 27.4532C91.8408 27.4532 90.7672 28.1749 90.2979 29.4302C90.0298 30.2459 89.9624 30.9366 89.9624 32.2229C89.9624 33.5097 90.0298 34.2314 90.2979 35.0161C90.7672 36.2714 91.8408 36.993 93.3505 36.993C94.8601 36.993 95.8994 36.2714 96.3693 35.0161ZM86.6754 35.9573C86.3061 34.8905 86.1386 33.8863 86.1386 32.2229C86.1386 30.56 86.3061 29.5557 86.6754 28.4885C87.5809 25.8528 90.063 24.315 93.3505 24.315C96.6042 24.315 99.0863 25.8528 99.9923 28.4885C100.361 29.5557 100.529 30.56 100.529 32.2229C100.529 33.8863 100.361 34.8905 99.9923 35.9573C99.0863 38.5934 96.6042 40.1313 93.3505 40.1313C90.063 40.1313 87.5809 38.5934 86.6754 35.9573Z" fill="black"/>
<path fill-rule="evenodd" clip-rule="evenodd" d="M116.802 39.7861C116.6 39.7861 116.466 39.6605 116.399 39.472L113.279 29.8066H113.212L110.059 39.472C109.992 39.6605 109.858 39.7861 109.656 39.7861H106.906C106.704 39.7861 106.57 39.6605 106.504 39.472L101.405 24.9739C101.337 24.7854 101.438 24.6599 101.639 24.6599H104.86C105.094 24.6599 105.229 24.7539 105.296 24.9739L108.415 34.9534H108.483L111.568 24.9739C111.636 24.7854 111.803 24.6599 112.004 24.6599H114.42C114.621 24.6599 114.789 24.7854 114.856 24.9739L118.143 34.9534H118.21L121.162 24.9739C121.229 24.7539 121.363 24.6599 121.598 24.6599H124.818C125.02 24.6599 125.12 24.7854 125.053 24.9739L119.954 39.472C119.887 39.6605 119.753 39.7861 119.552 39.7861H116.802Z" fill="black"/>
<path fill-rule="evenodd" clip-rule="evenodd" d="M125.714 37.7462C125.58 37.6207 125.58 37.4326 125.714 37.3071L127.626 35.4241C127.76 35.2986 127.961 35.2986 128.096 35.4241C129.27 36.4284 131.148 37.1501 132.825 37.1501C134.804 37.1501 135.811 36.3969 135.811 35.3611C135.811 34.4509 135.241 33.8863 133.127 33.6977L131.383 33.5412C128.096 33.2271 126.418 31.6582 126.418 29.0846C126.418 26.1664 128.666 24.3149 132.691 24.3149C135.207 24.3149 137.32 25.0996 138.763 26.1664C138.931 26.2919 138.931 26.48 138.83 26.6055L137.186 28.4574C137.052 28.614 136.884 28.614 136.717 28.52C135.71 27.8608 134.1 27.2646 132.49 27.2646C130.88 27.2646 130.041 27.9238 130.041 28.8335C130.041 29.7128 130.612 30.2459 132.691 30.4344L134.435 30.5915C137.823 30.905 139.434 32.5369 139.434 35.016C139.434 38.0288 137.085 40.1313 132.657 40.1313C129.337 40.1313 127.056 38.9075 125.714 37.7462Z" fill="black"/>
<path fill-rule="evenodd" clip-rule="evenodd" d="M151.768 29.2416C151.332 28.0179 150.124 27.2962 148.615 27.2962C147.072 27.2962 145.865 28.0179 145.429 29.2416C145.294 29.6182 145.227 29.9948 145.227 30.5285C145.227 30.654 145.294 30.717 145.429 30.717H151.768C151.903 30.717 151.97 30.654 151.97 30.5285C151.97 29.9948 151.903 29.6182 151.768 29.2416ZM142.007 35.9258C141.672 34.9536 141.437 33.7923 141.437 32.2229C141.437 30.654 141.638 29.4617 141.973 28.4885C142.879 25.8528 145.361 24.315 148.582 24.315C151.903 24.315 154.318 25.9153 155.223 28.4885C155.593 29.5557 155.76 30.5915 155.76 33.0391C155.76 33.2271 155.626 33.3527 155.392 33.3527H145.429C145.294 33.3527 145.227 33.4157 145.227 33.5412C145.227 33.9803 145.328 34.3569 145.462 34.702C145.999 36.1774 147.274 36.993 149.085 36.993C150.896 36.993 152.071 36.3654 152.875 35.5497C153.043 35.3927 153.211 35.3611 153.378 35.4867L155.358 37.1186C155.525 37.2441 155.525 37.4012 155.392 37.5582C154.016 39.064 151.735 40.1313 148.75 40.1313C145.328 40.1313 142.913 38.5624 142.007 35.9258Z" fill="black"/>
<path fill-rule="evenodd" clip-rule="evenodd" d="M158.542 39.7862C158.341 39.7862 158.207 39.6607 158.207 39.4721V24.9741C158.207 24.7856 158.341 24.66 158.542 24.66H161.628C161.83 24.66 161.964 24.7856 161.964 24.9741V26.2604H161.998C162.769 25.0996 164.144 24.315 166.191 24.315C167.465 24.315 168.74 24.7856 169.578 25.5703C169.746 25.7268 169.78 25.8528 169.646 26.0094L167.868 28.1124C167.734 28.2689 167.566 28.3004 167.398 28.1749C166.661 27.7353 165.889 27.4532 165.017 27.4532C162.904 27.4532 161.964 28.8651 161.964 31.2817V39.4721C161.964 39.6607 161.83 39.7862 161.628 39.7862H158.542Z" fill="black"/>
<path fill-rule="evenodd" clip-rule="evenodd" d="M170.223 37.3068C170.089 37.1812 170.022 36.9927 170.156 36.8356L172.236 34.5761C172.37 34.4196 172.571 34.4196 172.705 34.5451C174.182 35.6434 176.362 36.8041 178.911 36.8041C181.628 36.8041 183.205 35.5178 183.205 33.7294C183.205 32.1915 182.198 31.1873 179.045 30.7792L177.837 30.6221C173.444 30.0575 170.961 28.08 170.961 24.5341C170.961 20.6742 173.98 18.1011 178.676 18.1011C181.527 18.1011 184.244 18.9483 186.056 20.2346C186.224 20.3606 186.258 20.4862 186.123 20.6742L184.513 22.9963C184.379 23.1533 184.211 23.1848 184.043 23.0908C182.198 21.961 180.487 21.4274 178.576 21.4274C176.261 21.4274 174.987 22.6202 174.987 24.2831C174.987 25.7579 176.093 26.7622 179.18 27.1703L180.387 27.3273C184.781 27.892 187.196 29.8374 187.196 33.5093C187.196 37.3068 184.278 40.131 178.609 40.131C175.255 40.131 172.001 38.8756 170.223 37.3068Z" fill="black"/>
<path fill-rule="evenodd" clip-rule="evenodd" d="M194.147 40.0524C190.893 40.0524 189.652 38.5776 189.652 35.6274V27.6569C189.652 27.5314 189.585 27.4684 189.451 27.4684H188.377C188.176 27.4684 188.042 27.3428 188.042 27.1543V25.0518C188.042 24.8637 188.176 24.7382 188.377 24.7382H189.451C189.585 24.7382 189.652 24.6752 189.652 24.5496V20.4071C189.652 20.2191 189.787 20.0936 189.987 20.0936H193.074C193.275 20.0936 193.409 20.2191 193.409 20.4071V24.5496C193.409 24.6752 193.476 24.7382 193.611 24.7382H195.758C195.958 24.7382 196.093 24.8637 196.093 25.0518V27.1543C196.093 27.3428 195.958 27.4684 195.758 27.4684H193.611C193.476 27.4684 193.409 27.5314 193.409 27.6569V35.5023C193.409 36.5691 193.879 36.9142 194.919 36.9142H195.758C195.958 36.9142 196.093 37.0397 196.093 37.2283V39.7384C196.093 39.9269 195.958 40.0524 195.758 40.0524H194.147Z" fill="black"/>
<path fill-rule="evenodd" clip-rule="evenodd" d="M207.972 34.702V33.5412C207.972 33.4157 207.905 33.3527 207.771 33.3527H205.087C202.672 33.3527 201.599 33.9803 201.599 35.3927C201.599 36.648 202.571 37.2756 204.382 37.2756C206.698 37.2756 207.972 36.4284 207.972 34.702ZM208.374 39.7862C208.173 39.7862 208.039 39.6607 208.039 39.4721V38.3739H208.006C207.234 39.4096 205.724 40.1313 203.444 40.1313C200.492 40.1313 198.009 38.688 198.009 35.5182C198.009 32.2229 200.492 30.717 204.483 30.717H207.771C207.905 30.717 207.972 30.654 207.972 30.5285V29.8068C207.972 28.0804 207.1 27.2962 204.382 27.2962C202.571 27.2962 201.464 27.7668 200.693 28.3319C200.525 28.4575 200.324 28.426 200.223 28.2689L198.982 26.1979C198.882 26.0409 198.915 25.8838 199.049 25.7898C200.358 24.9111 202.135 24.315 204.785 24.315C209.716 24.315 211.528 25.8838 211.528 29.5872V39.4721C211.528 39.6607 211.393 39.7862 211.192 39.7862H208.374Z" fill="black"/>
</g>
<defs>
<clipPath id="clip0_0_797">
<rect width="243.245" height="56.1334" fill="white" transform="translate(0.587891)"/>
</clipPath>
</defs>
</svg>
