<svg width="228" height="57" viewBox="0 0 228 57" fill="none" xmlns="http://www.w3.org/2000/svg">
<g clip-path="url(#clip0_0_796)">
<path d="M21.566 15.0394C21.4354 14.8589 21.2869 14.7637 21.1213 14.7637C20.985 14.7637 20.8611 14.8272 20.7806 14.8817C19.5259 15.9154 17.8094 20.2911 16.4023 26.0585L17.6476 26.0734C20.1078 26.1022 22.6476 26.1329 25.1589 26.1736C24.4975 23.5319 23.8711 21.2682 23.2976 19.4399C22.4593 16.7685 21.8934 15.5721 21.566 15.0394Z" fill="#10069F"/>
<path d="M24.3593 3.91992C11.3466 3.91992 0.797852 14.9787 0.797852 28.6206C0.797852 42.2625 11.3466 53.3213 24.3593 53.3213C37.3721 53.3213 47.9208 42.2625 47.9208 28.6206C47.9208 14.9787 37.3721 3.91992 24.3593 3.91992ZM41.3019 29.069C41.3 29.071 41.2981 29.0719 41.2962 29.0739C41.2706 29.0958 41.2451 29.1156 41.2176 29.1354C41.2091 29.1414 41.2006 29.1483 41.1912 29.1543C41.1732 29.1662 41.1542 29.1781 41.1363 29.189C41.1192 29.1999 41.1022 29.2098 41.0852 29.2198C41.0842 29.2207 41.0833 29.2207 41.0823 29.2217C40.9092 29.317 40.7114 29.3715 40.5023 29.3715C40.4853 29.3715 29.3413 29.3715 29.3413 29.3715C29.4303 29.7594 29.5277 30.1998 29.6337 30.679C30.245 33.4476 31.8706 40.8033 33.5966 40.8033L33.6307 40.8043L33.6496 40.8013H33.6827C35.0311 40.8013 35.719 38.7578 37.2273 34.2799L37.2453 34.2254C37.4876 33.5062 37.761 32.6947 38.0572 31.8366L38.1329 31.6174H38.1338C38.2105 31.4031 38.4073 31.2504 38.6391 31.2504C38.9372 31.2504 39.1794 31.5043 39.1794 31.8168C39.1794 31.8733 39.1709 31.9279 39.1567 31.9795L39.0943 32.1997C38.9372 32.7324 38.7697 33.4585 38.5767 34.2988C37.6777 38.2043 36.3199 44.1046 32.8358 44.1046H32.8103C30.5591 44.0858 29.2117 40.3132 28.6364 38.7022C27.5605 35.6895 26.7467 32.4794 25.9613 29.3705H15.687L13.5542 36.5268L13.523 36.501C13.328 36.8224 12.9855 37.0287 12.6079 37.0287C12.0127 37.0287 11.5254 36.5208 11.5226 35.8969L11.5245 35.8582L11.6532 35.0487C11.9475 33.2096 12.3004 31.301 12.7035 29.3715H8.36592L8.34983 29.3547C7.56256 29.2356 6.95791 28.5075 6.95791 27.6584C6.95791 26.8261 7.51997 26.1168 8.294 25.973C8.36497 25.963 8.5088 25.9501 8.80119 25.9501C8.86364 25.9501 8.93366 25.9501 9.0122 25.9521C10.3871 25.9769 11.8462 25.9997 13.4463 26.0216C15.7107 16.3754 18.3337 11.4789 21.2434 11.465C24.365 11.465 26.6814 18.9169 28.5351 26.2071L28.5427 26.2358C32.3513 26.3162 36.4107 26.4322 40.3575 26.7289L40.5231 26.7447C40.5865 26.7457 40.649 26.7527 40.7095 26.7626L40.7322 26.7646C40.7388 26.7656 40.7455 26.7675 40.7521 26.7695C40.7559 26.7705 40.7587 26.7715 40.7625 26.7715C41.3369 26.8925 41.7627 27.4203 41.7627 28.0552C41.7627 28.4619 41.5829 28.8279 41.3019 29.069Z" fill="#10069F"/>
<path d="M60.9948 34.8007L59.1269 39.6397H53.7002L64.0256 14.3726H68.8183L79.1078 39.6407H73.7161L71.8482 34.8017H60.9948V34.8007ZM66.3865 20.763L62.8627 29.9618H69.9803L66.3865 20.763Z" fill="#10069F"/>
<path d="M109.694 29.9252V39.6408H104.796V30.3687C104.796 27.5613 103.492 26.0465 101.202 26.0465C100.18 26.0465 99.0521 26.5267 98.0302 28.0047C98.1012 28.6327 98.1712 29.2606 98.1712 29.9252V39.6408H93.2734V30.3687C93.2734 27.5613 91.9695 26.0465 89.6436 26.0465C88.6926 26.0465 87.6347 26.6378 86.6487 28.0414V39.6408H81.751V21.9456H86.6487V23.017C87.7057 21.9823 88.8336 21.3911 90.8065 21.3911C92.9564 21.3911 94.8584 22.278 96.1982 23.9028C97.9952 22.1669 99.6871 21.3911 102.33 21.3911C106.452 21.3911 109.694 24.753 109.694 29.9252Z" fill="#10069F"/>
<path d="M131.224 30.8107C131.224 35.9452 127.489 40.0084 122.837 40.0084C120.934 40.0084 119.348 39.4916 118.045 38.6048V48.1725H113.147V21.9442H118.045V22.9789C119.349 22.092 120.935 21.5752 122.837 21.5752C127.488 21.5762 131.224 25.6027 131.224 30.8107ZM126.396 30.8107C126.396 28.1878 124.564 25.8973 122.026 25.8973C120.581 25.8973 119.136 26.4141 118.044 27.9656V33.618C119.136 35.1328 120.581 35.6496 122.026 35.6496C124.563 35.6506 126.396 33.3968 126.396 30.8107Z" fill="#10069F"/>
<path d="M138.869 39.6395H133.972V13.4121H138.869V39.6395Z" fill="#10069F"/>
<path d="M143.275 15.7029C143.275 13.9669 144.579 12.6733 146.235 12.6733C147.856 12.6733 149.16 13.9659 149.16 15.7029C149.16 17.4022 147.856 18.658 146.235 18.658C144.579 18.658 143.275 17.4022 143.275 15.7029ZM148.702 21.9455V39.6407H143.804V21.9455H148.702Z" fill="#10069F"/>
<path d="M166.496 39.3817C164.452 40.0463 163.536 40.1941 161.95 40.1941C157.863 40.1941 155.185 37.1646 155.185 32.5845V26.2675H151.626V21.9454H155.185V15.6284H160.047V21.9454H166.143V26.2675H160.047V32.5478C160.047 34.5427 161.21 35.4663 163.007 35.4663C163.923 35.4663 164.91 35.2451 165.861 34.9862L166.496 39.3817Z" fill="#10069F"/>
<path d="M186.156 39.64H181.259V38.3841C179.885 39.5289 178.334 40.1945 176.431 40.1945C171.991 40.1945 169.031 36.8327 169.031 31.6981V21.9458H173.929V31.218C173.929 34.0253 175.268 35.5401 177.559 35.5401C178.792 35.5401 180.131 34.7644 181.259 33.324V21.9458H186.156V39.64Z" fill="#10069F"/>
<path d="M206.948 39.6395H202.05V38.6048C200.746 39.4916 199.16 40.0085 197.257 40.0085C192.606 40.0085 188.836 35.982 188.836 30.773C188.836 25.6384 192.607 21.5742 197.257 21.5742C199.16 21.5742 200.746 22.0911 202.05 22.9779V13.4121H206.948V39.6395ZM202.049 33.619V27.9667C200.957 26.4519 199.512 25.935 198.067 25.935C195.496 25.935 193.698 28.1889 193.698 30.774C193.698 33.3968 195.495 35.6873 198.067 35.6873C199.512 35.6873 200.957 35.1705 202.049 33.619Z" fill="#10069F"/>
<path d="M226.821 32.1046H214.382C214.77 34.173 216.074 35.7988 218.752 35.7988C220.126 35.7988 221.078 35.3554 221.606 34.4686H226.716C225.8 37.8671 222.628 40.1944 218.646 40.1944C213.22 40.1944 209.555 36.0945 209.555 30.8111C209.555 25.3442 213.184 21.3911 218.505 21.3911C223.333 21.3911 226.927 24.9742 226.927 30.4421C226.927 31.1811 226.892 31.5868 226.821 32.1046ZM214.417 29.0751H222.064C221.782 26.859 220.513 25.6398 218.54 25.6398C216.179 25.6398 214.875 27.0802 214.417 29.0751Z" fill="#10069F"/>
</g>
<defs>
<clipPath id="clip0_0_796">
<rect width="226.873" height="56.1334" fill="white" transform="translate(0.230469)"/>
</clipPath>
</defs>
</svg>
