<svg width="188" height="57" viewBox="0 0 188 57" fill="none" xmlns="http://www.w3.org/2000/svg">
<g clip-path="url(#clip0_0_791)">
<path d="M46.107 11.4849C41.4098 11.4849 39.7611 14.7511 39.7611 17.7997V19.6661H38.7656C38.0502 19.6661 37.4902 20.2261 37.4902 20.9415C37.4902 21.657 38.0502 22.2169 38.7656 22.2169H39.7611V35.0954C39.7611 35.842 40.3521 36.4641 41.1298 36.4641C41.8764 36.4641 42.4985 35.8731 42.4985 35.0954V22.2169H45.516C46.2314 22.2169 46.7914 21.657 46.7914 20.9415C46.7914 20.2261 46.2314 19.6661 45.516 19.6661H42.4985V17.7997C42.4985 16.0888 43.1207 14.0668 46.1381 14.0668C46.8536 14.0668 47.4135 13.5068 47.4135 12.7914C47.3824 12.0448 46.8225 11.4849 46.107 11.4849Z" fill="#4D4D4D"/>
<path d="M56.6847 19.2305C54.6627 19.2305 52.9518 20.0704 51.9875 21.4391V20.7236C51.9875 19.977 51.3964 19.3549 50.6187 19.3549C49.8722 19.3549 49.25 19.9459 49.25 20.7236V35.0953C49.25 35.8418 49.841 36.464 50.6187 36.464C51.3653 36.464 51.9875 35.873 51.9875 35.0953V27.1629C51.9875 23.8344 53.7606 21.8435 56.6847 21.8435C57.4002 21.8435 57.9912 21.2524 57.9912 20.537C58.0223 19.8215 57.4313 19.2305 56.6847 19.2305Z" fill="#4D4D4D"/>
<path d="M73.327 26.2911C73.327 25.5134 73.2026 23.4914 72.0205 21.8116C70.8073 20.0696 68.9097 19.1675 66.3278 19.1675C61.5373 19.1675 58.7998 22.3404 58.7998 27.8776C58.7998 33.6013 61.5373 36.6499 66.67 36.6499C70.1229 36.6499 72.0205 34.939 72.3626 34.5968C72.5804 34.379 72.8293 34.0991 72.8293 33.6324C72.8293 32.9481 72.2693 32.3881 71.585 32.3881C71.2428 32.3881 71.025 32.4815 70.8073 32.637C69.8118 33.3836 68.6609 34.1302 66.7011 34.1302C63.6215 34.1302 61.6617 32.1082 61.5684 28.8108H71.6783C73.327 28.7797 73.327 27.2865 73.327 26.2911ZM66.3278 21.6561C69.1275 21.6561 70.5895 23.2426 70.6517 26.3533H61.5995C61.8483 23.3359 63.5281 21.6561 66.3278 21.6561Z" fill="#4D4D4D"/>
<path d="M82.4727 26.51C80.4507 25.8256 78.7086 25.2034 78.7086 23.7103C78.7086 22.0616 80.544 21.8127 81.6327 21.8127C83.5925 21.8127 84.5568 22.4971 85.3345 23.2437C85.5834 23.4925 85.8945 23.617 86.2366 23.617C86.921 23.617 87.4809 23.057 87.4809 22.3727C87.4809 21.9994 87.3254 21.7505 87.201 21.5639C86.05 20.0396 84.0902 19.1997 81.6327 19.1997C78.1487 19.1997 76.0023 20.9417 76.0023 23.7103C76.0023 27.101 78.9886 28.1275 81.6016 28.9986C83.5925 29.6829 85.3034 30.2429 85.3034 31.7049C85.3034 33.6958 83.0948 34.0069 81.7572 34.0069C79.9529 34.0069 78.5531 33.4469 77.4021 32.3271C77.0599 31.9849 76.6867 31.9227 76.4689 31.9227C75.7845 31.9227 75.2246 32.4826 75.2246 33.1669C75.2246 33.4469 75.3179 33.6647 75.5357 33.9757C76.5622 35.2823 78.8953 36.6199 81.7572 36.6199C85.6767 36.6199 88.0098 34.7845 88.0098 31.736C88.0098 28.4386 85.0857 27.4121 82.4727 26.51Z" fill="#4D4D4D"/>
<path d="M98.6173 19.1679C96.7509 19.1679 95.0711 19.9145 94.1379 21.0965V11.8887C94.1379 11.1422 93.5468 10.52 92.7691 10.52C92.0225 10.52 91.4004 11.1111 91.4004 11.8887V35.126C91.4004 35.8726 91.9914 36.4947 92.7691 36.4947C93.5157 36.4947 94.1379 35.9037 94.1379 35.126V26.3848C94.1379 23.243 95.6621 21.6565 98.6173 21.6565C101.479 21.6565 102.661 22.963 102.661 26.1359V35.126C102.661 35.8726 103.252 36.4947 104.03 36.4947C104.777 36.4947 105.399 35.9037 105.399 35.126V25.6693C105.337 21.3454 103.066 19.1679 98.6173 19.1679Z" fill="#4D4D4D"/>
<path d="M128.014 19.3862C127.423 19.3862 126.956 19.7284 126.739 20.2883L122.85 31.3626L119.677 20.2883C119.553 19.8528 119.086 19.3862 118.402 19.3862C117.717 19.3862 117.251 19.8528 117.126 20.2883L113.953 31.3315L110.065 20.2572C109.847 19.6973 109.381 19.3862 108.79 19.3862C108.043 19.3862 107.421 19.9773 107.421 20.755C107.421 20.9416 107.452 21.1282 107.545 21.3149L112.74 35.5932C112.958 36.1531 113.425 36.4642 114.016 36.4642C114.638 36.4642 115.167 36.0598 115.322 35.4999L118.371 25.0167L121.419 35.4999C121.575 36.0598 122.135 36.4642 122.726 36.4642C123.317 36.4642 123.783 36.122 124.001 35.5621L129.196 21.2838C129.289 21.0971 129.321 20.8794 129.321 20.6927C129.352 19.9773 128.761 19.3862 128.014 19.3862Z" fill="#4D4D4D"/>
<path d="M137.905 19.1675C132.959 19.1675 130.253 22.2782 130.253 27.8776C130.253 33.5391 132.959 36.6499 137.905 36.6499C142.851 36.6499 145.558 33.5391 145.558 27.8776C145.558 22.2471 142.82 19.1675 137.905 19.1675ZM137.905 34.1613C134.608 34.1613 132.99 32.1082 132.99 27.9087C132.99 23.7714 134.639 21.6872 137.905 21.6872C141.172 21.6872 142.82 23.7714 142.82 27.9087C142.82 32.1082 141.203 34.1613 137.905 34.1613Z" fill="#4D4D4D"/>
<path d="M156.073 19.2305C154.051 19.2305 152.34 20.0704 151.376 21.4391V20.7236C151.376 19.977 150.785 19.3549 150.007 19.3549C149.261 19.3549 148.639 19.9459 148.639 20.7236V35.0953C148.639 35.8418 149.23 36.464 150.007 36.464C150.754 36.464 151.376 35.873 151.376 35.0953V27.1629C151.376 23.8344 153.149 21.8435 156.073 21.8435C156.789 21.8435 157.38 21.2524 157.38 20.537C157.38 19.8215 156.789 19.2305 156.073 19.2305Z" fill="#4D4D4D"/>
<path d="M166.401 26.3226L172.032 21.812C172.498 21.4387 172.56 20.9721 172.56 20.7233C172.56 19.9767 171.969 19.3545 171.192 19.3545C170.974 19.3545 170.601 19.3856 170.258 19.6967L162.264 26.2293V11.8887C162.264 11.1422 161.673 10.52 160.895 10.52C160.149 10.52 159.526 11.1111 159.526 11.8887V35.126C159.526 35.8726 160.117 36.4947 160.895 36.4947C161.642 36.4947 162.264 35.9037 162.264 35.126V29.5267L164.161 28.0024L170.29 35.8726C170.632 36.277 171.005 36.4947 171.441 36.4947C172.187 36.4947 172.809 35.9037 172.809 35.126C172.809 34.9083 172.778 34.5972 172.529 34.2861L166.401 26.3226Z" fill="#4D4D4D"/>
<path d="M181.737 26.51C179.715 25.8256 177.973 25.2034 177.973 23.7103C177.973 22.0616 179.809 21.8127 180.897 21.8127C182.857 21.8127 183.821 22.4971 184.599 23.2437C184.848 23.4925 185.159 23.617 185.501 23.617C186.186 23.617 186.746 23.057 186.746 22.3727C186.746 21.9683 186.528 21.6883 186.466 21.5639C185.315 20.0396 183.355 19.1997 180.897 19.1997C177.413 19.1997 175.267 20.9417 175.267 23.7103C175.267 27.101 178.253 28.1275 180.866 28.9986C182.857 29.6829 184.568 30.2429 184.568 31.7049C184.568 33.6958 182.359 34.0069 181.022 34.0069C179.218 34.0069 177.818 33.4469 176.667 32.3271C176.325 31.9849 175.982 31.9227 175.734 31.9227C175.049 31.9227 174.489 32.4826 174.489 33.1669C174.489 33.4469 174.583 33.6647 174.8 33.9757C175.827 35.2823 178.16 36.6199 181.022 36.6199C184.941 36.6199 187.274 34.7845 187.274 31.736C187.274 28.4386 184.35 27.4121 181.737 26.51Z" fill="#4D4D4D"/>
<path d="M0.81543 34.348C1.34426 37.801 2.96184 40.9117 5.2949 43.2448L10.7387 37.801C10.7387 32.2949 13.6006 26.9445 18.7022 23.9893L0.81543 34.348Z" fill="#9B65C3"/>
<path d="M10.7387 37.8019C8.03236 37.8019 5.2949 37.1175 2.7752 35.6555C2.09083 35.2511 1.43758 34.8156 0.81543 34.3179C1.34426 37.7708 2.96184 40.8815 5.2949 43.2146L10.7387 37.8019Z" fill="#9B65C3"/>
<path d="M10.7387 37.8014L5.29492 43.2452C7.65909 45.6094 10.7387 47.227 14.1917 47.7247L24.5193 29.8379C21.5952 34.9395 16.2447 37.8014 10.7387 37.8014Z" fill="#BE63C5"/>
<path d="M12.8851 45.7951C11.4231 43.2753 10.7387 40.5379 10.7387 37.8315L5.29492 43.2753C7.65909 45.6395 10.7387 47.2571 14.1917 47.7548C13.725 47.1327 13.2895 46.4794 12.8851 45.7951Z" fill="#BF63C6"/>
<path d="M31.021 16.8965L18.7336 24.0201C13.632 26.9753 7.56601 26.7575 2.80657 24.0201C1.43784 26.3531 0.660156 29.0906 0.660156 31.9836C0.660156 32.7924 0.722371 33.5701 0.8468 34.3478C1.46895 34.8455 2.12221 35.281 2.80657 35.6854C5.32627 37.1474 8.06373 37.8318 10.7701 37.8318L31.3632 17.2387C31.2388 17.1142 31.1455 16.9898 31.021 16.8965Z" fill="#3278B1"/>
<path d="M2.77506 35.6863C5.29476 37.1483 8.03221 37.8327 10.7386 37.8327C10.7386 32.3267 13.6004 26.9762 18.7021 24.021L0.78418 34.3487C1.43744 34.8153 2.09069 35.2819 2.77506 35.6863Z" fill="#3278B2"/>
<path d="M2.77532 24.021C1.40659 26.3541 0.628906 29.0915 0.628906 31.9845C0.628906 32.7933 0.691121 33.571 0.815551 34.3487L18.7334 24.021C13.6007 26.9451 7.53476 26.7585 2.77532 24.021Z" fill="#45A4EC"/>
<path d="M31.3631 17.208C31.2698 17.1146 31.1454 16.9902 31.021 16.8969C30.8654 16.7725 30.7099 16.648 30.5232 16.5547C29.9322 16.2125 29.2478 16.0259 28.5324 16.0259H16.5871C10.6767 16.0259 5.54395 19.2299 2.77539 23.9894C7.53483 26.7268 13.6008 26.9446 18.7024 23.9894C13.6008 26.9446 10.7389 32.2951 10.7389 37.8011C16.2449 37.8011 21.5954 34.9392 24.5506 29.8376L31.6431 17.5502C31.5498 17.4257 31.4565 17.3013 31.3631 17.208Z" fill="#19BB7D"/>
<path d="M18.7335 24.0206L31.021 16.9281C30.8654 16.8037 30.7099 16.6793 30.5232 16.5859L2.77539 24.0206C7.53483 26.7581 13.6008 26.9447 18.7335 24.0206Z" fill="#08C7FB"/>
<path d="M28.5324 16.0259H16.5871C10.6767 16.0259 5.54395 19.2299 2.77539 23.9894L30.5232 16.5547C29.9322 16.2436 29.2789 16.0259 28.5324 16.0259Z" fill="#59F2F6"/>
<path d="M24.551 29.8371L31.6435 17.5497C31.5501 17.4253 31.4568 17.3319 31.3324 17.2075L10.7393 37.8006C10.7393 40.507 11.4236 43.2444 12.8857 45.7642C13.2901 46.4485 13.7256 47.1018 14.2233 47.7239C15.001 47.8484 15.7787 47.9106 16.5875 47.9106C19.4805 47.9106 22.2179 47.1329 24.551 45.7642C21.8135 41.0047 21.5958 34.9388 24.551 29.8371Z" fill="#DA3757"/>
<path d="M10.7393 37.8014C10.7393 40.5077 11.4236 43.2452 12.8857 45.7649C13.2901 46.4493 13.7256 47.1025 14.2233 47.7247L24.551 29.8379C21.5958 34.9395 16.2453 37.8014 10.7393 37.8014Z" fill="#D33C4E"/>
<path d="M24.5503 29.8379L14.2227 47.7558C15.0003 47.8802 15.778 47.9424 16.5868 47.9424C19.4798 47.9424 22.2173 47.1647 24.5503 45.796C21.8129 41.0055 21.5951 34.9395 24.5503 29.8379Z" fill="#EE5A24"/>
<path d="M31.9858 18.0475C31.8925 17.8608 31.768 17.7053 31.6436 17.5497C31.5503 17.4253 31.457 17.332 31.3325 17.2076C31.2392 17.1142 31.1148 16.9898 30.9903 16.8965L18.734 24.0201C13.6324 26.9753 10.7705 32.3258 10.7705 37.8318C16.2765 37.8318 21.627 34.9699 24.5822 29.8683C21.627 34.9699 21.8448 41.0359 24.5822 45.7953C29.3417 43.0267 32.5457 37.894 32.5457 31.9836V20.0383C32.5146 19.2918 32.328 18.6074 31.9858 18.0475Z" fill="#8BDF55"/>
<path d="M31.0215 16.8965L18.734 24.0201C13.6324 26.9753 10.7705 32.3258 10.7705 37.8318L31.3636 17.2387C31.2392 17.1142 31.1459 16.9898 31.0215 16.8965Z" fill="#25C16F"/>
<path d="M10.7393 37.8006C16.2453 37.8006 21.5958 34.9388 24.551 29.8371L31.6435 17.5497C31.5501 17.4253 31.4568 17.3319 31.3324 17.2075L10.7393 37.8006Z" fill="#8BDF55"/>
<path d="M31.6431 17.5508L24.5506 29.8382C21.5954 34.9398 21.8131 41.0058 24.5506 45.7652L31.9852 18.0174C31.8919 17.8619 31.7675 17.7063 31.6431 17.5508Z" fill="#FFBB00"/>
<path d="M24.5498 45.7957C29.3092 43.0271 32.5133 37.8944 32.5133 31.984V20.0387C32.5133 19.3233 32.3267 18.6389 31.9845 18.0479L24.5498 45.7957Z" fill="#FFA800"/>
</g>
<defs>
<clipPath id="clip0_0_791">
<rect width="187.111" height="56.1334" fill="white" transform="translate(0.628906 0.563965)"/>
</clipPath>
</defs>
</svg>
