<svg width="145" height="57" viewBox="0 0 145 57" fill="none" xmlns="http://www.w3.org/2000/svg">
<g clip-path="url(#clip0_0_800)">
<path d="M61.8213 21.4434H67.2817L59.5222 40.9859H54.6366L46.7334 21.4434H52.3375L57.0794 34.5196L61.8213 21.4434ZM69.006 40.8422H74.3227V21.4434H69.006V40.8422ZM76.7655 34.5196H82.0822C82.2259 35.8129 83.0881 37.1061 85.3872 37.1061C87.3989 37.1061 88.4048 36.3877 88.4048 35.3818C88.4048 32.0768 77.6277 35.2381 77.6277 27.4786C77.6277 23.8862 80.6453 21.0123 85.3872 21.0123C91.2787 21.0123 93.2904 24.7484 93.4341 27.6223H88.4048C88.2611 26.329 87.3989 25.3232 85.5309 25.3232C83.8066 25.3232 82.8007 26.1853 82.8007 27.1912C82.8007 30.4962 93.5778 27.1912 93.5778 35.2381C93.5778 38.6868 90.5602 41.417 85.3872 41.417C79.2083 41.2733 77.0529 38.2557 76.7655 34.5196ZM96.1643 40.8422H101.481V21.4434H96.1643V40.8422ZM113.982 36.675C116.713 36.675 118.868 34.6633 118.868 31.071C118.868 27.6223 116.713 25.4669 113.982 25.4669C111.252 25.4669 109.097 27.4786 109.097 31.071C109.097 34.6633 111.252 36.675 113.982 36.675ZM103.78 31.071C103.78 25.4669 107.804 20.8687 113.982 20.8687C120.161 20.8687 124.185 25.4669 124.185 31.071C124.185 36.675 120.161 41.2733 113.982 41.2733C107.804 41.2733 103.78 36.675 103.78 31.071ZM131.513 23.7425C132.375 22.0182 134.387 20.8687 137.261 20.8687C142.003 20.8687 144.446 24.0299 144.446 28.6282V40.8422H139.129V29.2029C139.129 26.9038 138.123 25.3232 135.824 25.3232C133.237 25.3232 131.8 26.9038 131.8 29.634V40.8422H126.484V21.4434H131.513V23.7425Z" fill="#FF3366"/>
<path d="M0.750977 52.6253H49.7508V3.62549H0.750977V52.6253Z" fill="#FF3366"/>
<path d="M17.9943 19.0007C19.5749 19.0007 20.8682 17.8512 20.8682 16.1268C20.8682 14.5462 19.5749 13.2529 17.9943 13.2529C16.4137 13.2529 15.1204 14.4025 15.1204 16.1268C15.1204 17.8512 16.4137 19.0007 17.9943 19.0007ZM11.9591 34.2323C11.8154 34.9508 11.6717 35.6693 11.6717 36.3877C11.6717 38.8305 12.965 40.5549 15.8389 40.5549C18.2817 40.5549 20.1497 39.1179 21.5867 36.8188L20.7245 40.2675H25.4664L28.1966 29.4904C28.9151 26.7602 30.2083 25.3233 32.22 25.3233C33.8007 25.3233 34.8065 26.3291 34.8065 27.9098C34.8065 28.3408 34.8065 28.9156 34.6628 29.4904L33.2259 34.5197C33.0822 35.2382 32.9385 35.9567 32.9385 36.6751C32.9385 38.9742 34.3755 40.6986 37.2493 40.6986C39.6921 40.6986 41.7039 39.1179 42.8534 35.2382L40.9854 34.5197C40.1232 37.1062 39.2611 37.5373 38.6863 37.5373C38.1115 37.5373 37.6804 37.1062 37.6804 36.244C37.6804 35.813 37.8241 35.3819 37.8241 34.9508L39.1174 30.0652C39.4048 28.9156 39.5485 27.9098 39.5485 27.0476C39.5485 23.4552 37.393 21.5872 34.6628 21.5872C32.22 21.5872 29.6335 23.8863 28.3403 26.1854L29.2025 22.0183H22.0177L21.0119 25.7543H24.3168L22.3051 33.6575C20.7245 37.2499 17.7069 37.3936 17.2758 37.2499C16.701 37.1062 16.27 36.8188 16.27 36.1003C16.27 35.6693 16.4137 34.9508 16.5573 34.2323L19.7186 21.7309H11.8154L10.8096 25.467H14.1145L11.9591 34.2323Z" fill="white"/>
</g>
<defs>
<clipPath id="clip0_0_800">
<rect width="143.842" height="56.1334" fill="white" transform="translate(0.750977)"/>
</clipPath>
</defs>
</svg>
