<svg width="190" height="57" viewBox="0 0 190 57" fill="none" xmlns="http://www.w3.org/2000/svg">
<g clip-path="url(#clip0_0_790)">
<path d="M70.7402 16.0419V20.2639H59.4086V24.8772H69.8408V29.1292H59.4086V38.0021H53.9601V16.0419H70.7402Z" fill="#0073FF"/>
<path d="M75.192 16.0119H79.8985V19.7371H75.192V16.0119ZM75.192 21.7314H79.8985V37.9946H75.192V21.7314Z" fill="#0073FF"/>
<path d="M83.2708 21.7615H88.292C90.2781 28.9787 90.6153 30.4538 91.1399 33.5544C91.7919 29.9496 91.8894 29.5507 92.8487 25.7201L93.838 21.7465H98.7318L93.4857 37.9795H88.5094L83.2708 21.7615Z" fill="#0073FF"/>
<path d="M116.794 33.8554C116.241 34.7417 115.585 35.5579 114.838 36.2862C113.165 37.7978 110.987 38.6202 108.737 38.589C103.933 38.589 100.561 35.4809 100.561 30.1903C100.561 26.2694 102.479 21.2272 108.857 21.2272C109.935 21.1941 111.008 21.3842 112.01 21.7856C113.012 22.1869 113.921 22.791 114.68 23.5602C116.794 25.8179 116.928 29.0088 116.973 30.8375H105.432C105.432 32.862 106.541 34.8789 109.134 34.8789C111.727 34.8789 112.634 33.163 113.226 32.0191L116.794 33.8554ZM112.05 27.8348C112.011 26.9886 111.694 26.1791 111.15 25.5319C110.52 24.9429 109.688 24.6219 108.827 24.6363C108.374 24.6335 107.925 24.7257 107.51 24.9072C107.094 25.0886 106.721 25.3552 106.414 25.6899C105.899 26.2995 105.566 27.0431 105.454 27.8348H112.05Z" fill="#0073FF"/>
<path d="M121.695 17.0654H126.439V22.1378H129.564V25.0578H126.409V32.4029C126.409 33.3963 126.409 34.2617 127.646 34.2617L129.354 34.2016V37.9268C128.525 38.0769 127.686 38.1599 126.844 38.1751C125.195 38.1751 123.404 38.0848 122.347 36.5872C121.695 35.6239 121.665 34.4725 121.665 32.9222V25.0277H119.312V22.1002H121.665L121.695 17.0654Z" fill="#0073FF"/>
<path d="M138.138 23.4398C139.437 22.2977 141.089 21.6411 142.814 21.5809V25.8254L141.24 26.0738C138.947 26.4726 138.243 26.8263 138.243 28.8733V37.9945H133.499V21.7314H138.145L138.138 23.4398Z" fill="#0073FF"/>
<path d="M146.262 26.3823C146.252 25.6901 146.402 25.005 146.698 24.38C146.994 23.7549 147.43 23.2066 147.97 22.7775C149.469 21.6035 151.373 21.3551 153.269 21.3551C155.165 21.3551 160.067 21.8142 160.067 26.0135V35.4132C160.067 37.1592 160.156 37.4075 160.531 37.9644H155.885V36.4593C154.648 37.3624 153.314 38.3934 150.938 38.3934C147.236 38.3934 145.647 35.7142 145.647 33.4264C145.647 30.815 147.723 29.3249 149.05 28.768C151.132 28.0969 153.265 27.5935 155.427 27.2628V26.3898C155.368 25.6373 155.308 24.3955 153.576 24.3955C151.47 24.3955 151.186 25.705 151.066 26.2995L146.262 26.3823ZM152.302 31.274C151.5 31.5826 150.256 32.0266 150.256 33.2909C150.282 33.7501 150.486 34.1808 150.826 34.4894C151.165 34.798 151.612 34.9596 152.07 34.9391C152.655 34.921 153.224 34.7385 153.711 34.4123C155.285 33.4189 155.352 31.9288 155.39 30.243L152.302 31.274Z" fill="#0073FF"/>
<path d="M170.289 23.2214C170.728 22.6824 171.281 22.2479 171.908 21.9496C172.839 21.5572 173.836 21.3477 174.846 21.3325C175.846 21.308 176.837 21.5302 177.731 21.9797C179.432 22.8828 179.867 24.3428 179.867 26.8639V37.9945H175.131V28.8507C175.212 28.0364 175.139 27.2139 174.913 26.4274C174.725 26.0267 174.42 25.6931 174.039 25.4712C173.657 25.2493 173.217 25.1496 172.777 25.1856C170.267 25.1856 170.267 27.2101 170.267 29.227V37.9945H165.515V21.7916H170.319L170.289 23.2214Z" fill="#0073FF"/>
<path d="M24.8741 26.8489H29.9029C30.1017 26.8489 30.2923 26.7696 30.4328 26.6285C30.5734 26.4873 30.6523 26.2959 30.6523 26.0963C30.6519 25.993 30.6316 25.8908 30.5924 25.7953L21.9438 2.15693C21.8904 2.01785 21.7971 1.89783 21.6756 1.81208C21.5542 1.72633 21.4102 1.67873 21.2618 1.67529H16.218C16.0192 1.67529 15.8286 1.75457 15.6881 1.8957C15.5475 2.03684 15.4686 2.22827 15.4686 2.42787C15.4687 2.51513 15.4839 2.60171 15.5135 2.68374L24.1696 26.3823C24.2268 26.5221 24.3246 26.6414 24.4502 26.7246C24.5759 26.8079 24.7236 26.8512 24.8741 26.8489Z" fill="#0073FF"/>
<path d="M23.9821 51.9698H29.0109C29.2097 51.9698 29.4003 51.8905 29.5408 51.7494C29.6814 51.6082 29.7603 51.4168 29.7603 51.2172C29.7602 51.13 29.745 51.0434 29.7154 50.9613L11.886 2.17195C11.8322 2.03169 11.7377 1.91088 11.6148 1.82503C11.4919 1.73919 11.3462 1.69226 11.1966 1.69031H6.17526C5.9765 1.69031 5.78588 1.76959 5.64533 1.91072C5.50479 2.05186 5.42582 2.24329 5.42582 2.44288C5.42592 2.53015 5.44113 2.61673 5.47078 2.69876L23.3001 51.4957C23.3547 51.6333 23.4485 51.7518 23.5698 51.8361C23.6911 51.9205 23.8346 51.967 23.9821 51.9698Z" fill="#0073FF"/>
<path d="M14.0746 51.9698H19.0959C19.2847 51.9704 19.4668 51.8995 19.6057 51.7711C19.7446 51.6428 19.8302 51.4665 19.8453 51.2775C19.845 51.1779 19.8299 51.079 19.8003 50.984L11.1218 27.323C11.0684 27.1839 10.9751 27.0639 10.8537 26.9781C10.7322 26.8924 10.5882 26.8448 10.4398 26.8414H5.38852C5.19765 26.8529 5.01837 26.9372 4.88741 27.0771C4.75644 27.217 4.68369 27.4019 4.68404 27.5939C4.6838 27.6763 4.69906 27.758 4.729 27.8348L13.3701 51.5032C13.4273 51.6431 13.5251 51.7624 13.6507 51.8456C13.7764 51.9288 13.9241 51.9721 14.0746 51.9698Z" fill="#0073FF"/>
<path d="M25.4811 2.70632L29.5356 13.7767C29.589 13.9158 29.6824 14.0358 29.8038 14.1215C29.9252 14.2073 30.0692 14.2549 30.2176 14.2583H35.2239C35.4227 14.2583 35.6133 14.179 35.7539 14.0379C35.8944 13.8968 35.9734 13.7054 35.9734 13.5058C35.9733 13.4185 35.9581 13.3319 35.9284 13.2499L31.8739 2.17197C31.8205 2.03289 31.7272 1.91287 31.6058 1.82713C31.4844 1.74138 31.3403 1.69377 31.1919 1.69034H26.1631C25.9644 1.69034 25.7737 1.76961 25.6332 1.91075C25.4926 2.05188 25.4137 2.24332 25.4137 2.44291C25.42 2.5341 25.4429 2.62336 25.4811 2.70632Z" fill="#0073FF"/>
<path d="M4.80392 51.9698H9.82522C10.024 51.9698 10.2146 51.8905 10.3551 51.7494C10.4957 51.6083 10.5747 51.4168 10.5747 51.2173C10.5746 51.13 10.5593 51.0434 10.5297 50.9614L6.45271 39.8609C6.39883 39.7206 6.3044 39.5998 6.18151 39.514C6.05862 39.4282 5.91292 39.3812 5.76324 39.3793H0.749445C0.55068 39.3793 0.360067 39.4585 0.219518 39.5997C0.0789701 39.7408 0 39.9323 0 40.1319C0.000274239 40.2216 0.0154706 40.3106 0.0449649 40.3952L4.09944 51.4957C4.15545 51.6369 4.25277 51.7578 4.37852 51.8425C4.50427 51.9271 4.65255 51.9715 4.80392 51.9698Z" fill="#0073FF"/>
</g>
<defs>
<clipPath id="clip0_0_790">
<rect width="189.45" height="56.1334" fill="white"/>
</clipPath>
</defs>
</svg>
