<svg width="115" height="57" viewBox="0 0 115 57" fill="none" xmlns="http://www.w3.org/2000/svg">
<g clip-path="url(#clip0_0_794)">
<path d="M101.088 16.2416C94.071 16.2416 88.3606 21.9832 88.3606 29.0415C88.3606 36.0998 94.071 41.8414 101.088 41.8414C108.104 41.8414 113.813 36.0998 113.813 29.0415C113.813 21.9832 108.104 16.2416 101.088 16.2416ZM101.088 35.7752C97.3978 35.7752 94.392 32.7511 94.392 29.0415C94.392 25.3302 97.3978 22.3078 101.088 22.3078C104.776 22.3078 107.783 25.3302 107.783 29.0415C107.783 32.7528 104.777 35.7752 101.087 35.7752H101.088ZM63.6095 26.4492L61.3839 25.3319C60.4177 24.8507 59.8119 24.4782 59.5683 24.203C59.336 23.9591 59.2038 23.6368 59.1979 23.2999C59.1979 22.8681 59.3921 22.5039 59.774 22.2205C60.1526 21.9238 60.6909 21.7887 61.374 21.7887C62.6235 21.7887 64.0078 22.5435 65.5321 24.0646L69.2886 20.2857C68.3656 19.0274 67.1585 18.0053 65.7659 17.3029C64.3915 16.6106 62.873 16.2537 61.3345 16.2614C59.0415 16.2614 57.1484 16.9387 55.6735 18.3032C54.2002 19.6678 53.4595 21.3075 53.4595 23.2307C53.4595 26.2136 55.4101 28.6987 59.3246 30.6714L61.374 31.7013C63.1403 32.5962 64.0194 33.5075 64.0194 34.4502C64.0194 34.9611 63.7741 35.4027 63.2868 35.7949C62.7996 36.1888 62.1543 36.375 61.3543 36.375C60.6135 36.375 59.7641 36.1196 58.8077 35.6005C57.8548 35.0897 57.0069 34.4031 56.3089 33.5767L52.5722 37.6703C54.6793 40.439 57.4892 41.8332 61.0218 41.8332C63.677 41.8332 65.7955 41.1064 67.3659 39.6628C68.9462 38.2208 69.7363 36.4146 69.7363 34.2541C69.7363 32.6341 69.2985 31.2119 68.4293 30.0039C67.5519 28.7959 65.942 27.6193 63.6095 26.4509V26.4492ZM25.8211 39.053V16.7508H19.7798V18.2439C17.7442 16.934 15.3748 16.2389 12.955 16.2416C5.93922 16.2416 0.230469 21.9832 0.230469 29.0415C0.230469 36.0998 5.93922 41.8414 12.9566 41.8414C15.3474 41.845 17.6899 41.1677 19.7107 39.8885C19.7107 40.0846 19.7008 40.261 19.7008 40.3796C19.7008 44.0892 16.695 47.1133 13.006 47.1133C11.7517 47.1104 10.5237 46.7528 9.46357 46.0817L6.47586 51.3437C8.44596 52.5468 10.7082 53.1852 13.0159 53.1894C20.0333 53.1894 25.8211 47.4462 25.8211 40.3879C25.8211 40.1143 25.8392 39.3084 25.8211 39.053ZM12.9566 35.7735C9.26933 35.7735 6.26186 32.7511 6.26186 29.0415C6.26186 25.3302 9.26768 22.3078 12.9566 22.3078C16.6456 22.3078 19.6514 25.3302 19.6514 29.0415C19.6514 32.7511 16.6456 35.7752 12.9566 35.7752V35.7735ZM49.8858 16.7426H43.8149V28.9113C43.8247 30.64 43.8247 33.6245 42.5572 34.9001C41.9514 35.5082 41.2881 36.0586 39.8921 36.0586C38.4864 36.0586 37.823 35.5082 37.2188 34.9001C35.9497 33.6229 35.9596 30.6302 35.9678 28.9113V16.7426H29.8985V28.875C29.8788 31.3767 29.8492 36.0207 32.8945 39.1024C34.6805 40.9086 36.809 41.8315 39.8823 41.8315C42.9572 41.8315 45.084 40.9185 46.8701 39.1024C49.9154 36.0207 49.8858 31.3668 49.866 28.875L49.8858 16.7409V16.7426ZM84.2881 34.6858C83.8008 35.0583 82.6189 35.8839 81.2823 35.6977C80.1892 35.5494 79.302 34.7452 79.1653 32.0557V21.965H86.2996V16.7228H79.1653V9.91992H73.1142V11.2548H73.1043V31.2613C73.1043 34.4419 73.9043 41.8315 81.2724 41.8315C85.0008 41.7738 87.2643 39.7419 88.2124 38.9475L88.3392 38.8487L84.7078 34.353C84.698 34.3612 84.4445 34.5672 84.2881 34.6858Z" fill="#F45D48"/>
</g>
<defs>
<clipPath id="clip0_0_794">
<rect width="114.606" height="56.1334" fill="white" transform="translate(0.230469 0.563965)"/>
</clipPath>
</defs>
</svg>
