<svg width="155" height="60" viewBox="0 0 155 60" fill="none" xmlns="http://www.w3.org/2000/svg">
<path d="M66.6449 21.9388C67.4794 21.9315 68.3123 22.0122 69.1298 22.1798C69.8173 22.315 70.4721 22.582 71.058 22.966C71.5953 23.3351 72.025 23.8401 72.3033 24.4294C72.6177 25.1346 72.7688 25.9016 72.7452 26.6733C72.7769 27.5245 72.5487 28.3652 72.091 29.0836C71.5961 29.7726 70.9266 30.3173 70.1513 30.6617C71.2131 30.9222 72.1472 31.553 72.7854 32.4407C73.2939 33.2704 73.5884 34.2133 73.6425 35.1849C73.6966 36.1565 73.5085 37.1264 73.0953 38.0073C72.7319 38.6918 72.213 39.2815 71.5802 39.729C70.922 40.1851 70.1874 40.5194 69.411 40.716C68.5943 40.9304 67.7533 41.0384 66.9089 41.0373H57.6523V21.9331L66.6449 21.9388ZM66.1112 29.6689C66.767 29.696 67.4137 29.5086 67.9534 29.1352C68.2035 28.9276 68.3999 28.6626 68.5258 28.3629C68.6517 28.0632 68.7034 27.7375 68.6765 27.4136C68.6915 27.0336 68.6085 26.6561 68.4354 26.3175C68.2849 26.0404 68.063 25.8085 67.7927 25.6461C67.5079 25.479 67.1946 25.3662 66.8687 25.3132C66.5126 25.2501 66.1515 25.2194 65.7898 25.2214H61.8531V29.6862L66.1112 29.6689ZM66.3522 37.7778C66.7379 37.7769 67.1225 37.7365 67.5 37.6572C67.8512 37.5861 68.186 37.4499 68.4871 37.2555C68.7785 37.0662 69.0141 36.8028 69.17 36.4923C69.3537 36.1099 69.4405 35.6881 69.4225 35.2642C69.4613 34.8736 69.4066 34.4794 69.2629 34.1142C69.1192 33.749 68.8906 33.4232 68.5961 33.1638C67.955 32.7173 67.1843 32.4954 66.4039 32.5326H61.8129V37.7778H66.3522Z" fill="#231F20"/>
<path d="M85.4559 41.0607V39.1325H85.3755C84.94 39.8842 84.2852 40.4848 83.4989 40.8542C82.7638 41.2046 81.9605 41.3888 81.1461 41.3936C80.2941 41.4197 79.4449 41.2834 78.644 40.9919C78.0364 40.7564 77.5047 40.3595 77.106 39.8441C76.7134 39.3129 76.443 38.7015 76.314 38.0536C76.1584 37.283 76.0835 36.4984 76.0903 35.7123V27.2017H79.8893V35.0178C79.8309 35.9018 80.0154 36.785 80.423 37.5716C80.6372 37.8671 80.9258 38.1007 81.2593 38.2488C81.5929 38.397 81.9597 38.4544 82.3225 38.4152C82.7441 38.4523 83.1683 38.3878 83.5597 38.227C83.9512 38.0663 84.2983 37.814 84.5721 37.4913C85.0312 36.8772 85.2665 35.8672 85.2665 34.4554V27.2017H89.0656V41.0607H85.4559Z" fill="#231F20"/>
<path d="M95.1547 37.6173C95.3158 37.9043 95.5394 38.1514 95.8089 38.3404C96.0899 38.5318 96.4028 38.6717 96.7328 38.7536C97.087 38.8447 97.4517 38.8891 97.8174 38.8856C98.0992 38.8847 98.38 38.854 98.6553 38.7938C98.9361 38.7364 99.2068 38.6378 99.4587 38.5011C99.686 38.3639 99.8816 38.18 100.033 37.9617C100.202 37.7158 100.286 37.4218 100.274 37.1238C100.274 36.5499 99.8948 36.1253 99.1258 35.8383C98.0927 35.4746 97.0339 35.1888 95.9581 34.9833C95.3842 34.857 94.8619 34.7078 94.334 34.5414C93.8386 34.3831 93.3674 34.1571 92.9338 33.8699C92.5289 33.6003 92.1897 33.2435 91.941 32.8255C91.6802 32.3559 91.5513 31.8244 91.5679 31.2875C91.5355 30.5225 91.7163 29.7636 92.0902 29.0953C92.4249 28.5327 92.8993 28.0662 93.4674 27.741C94.0657 27.401 94.7179 27.1661 95.3956 27.0465C96.1187 26.9125 96.8525 26.8452 97.5879 26.8457C98.3199 26.8461 99.0502 26.9172 99.7686 27.058C100.435 27.1872 101.074 27.4319 101.657 27.7811C102.211 28.1241 102.682 28.5869 103.034 29.1355C103.423 29.7807 103.648 30.5119 103.688 31.2646H100.09C100.1 30.9652 100.028 30.6687 99.8826 30.4069C99.737 30.1451 99.5231 29.9278 99.2636 29.7782C98.7144 29.5078 98.108 29.374 97.496 29.388C97.264 29.3882 97.0322 29.4016 96.8017 29.4281C96.567 29.4528 96.337 29.5108 96.1187 29.6003C95.9176 29.6897 95.7392 29.823 95.5965 29.9905C95.4458 30.1851 95.3704 30.4277 95.3842 30.6735C95.3799 30.8305 95.4112 30.9864 95.4758 31.1295C95.5404 31.2727 95.6366 31.3992 95.7572 31.4998C96.0445 31.7369 96.3762 31.9145 96.7328 32.0221C97.1835 32.1727 97.6436 32.2935 98.1101 32.3836C98.6323 32.4926 99.1546 32.6074 99.694 32.7337C100.233 32.8599 100.784 33.0091 101.312 33.187C101.813 33.3515 102.285 33.5914 102.713 33.8986C103.119 34.1878 103.458 34.5618 103.705 34.9948C103.968 35.4927 104.097 36.0504 104.078 36.6131C104.097 37.4159 103.899 38.2089 103.504 38.9086C103.151 39.5094 102.659 40.017 102.07 40.3891C101.453 40.7792 100.767 41.0479 100.05 41.1811C99.2939 41.3316 98.5251 41.4085 97.7543 41.4106C96.9638 41.4121 96.1752 41.3313 95.4014 41.1696C94.6763 41.0253 93.9826 40.7533 93.3527 40.3662C92.7033 39.9693 92.1683 39.4104 91.8001 38.7444C91.4319 38.0784 91.2431 37.3282 91.2523 36.5672H94.9251C94.907 36.9314 94.9863 37.2939 95.1547 37.6173Z" fill="#231F20"/>
<path d="M110.896 21.9395L118.873 34.754H118.924V21.9395H122.861V41.0609H118.66L110.712 28.2692H110.66V41.0609H106.724V21.9566L110.896 21.9395Z" fill="#231F20"/>
<path d="M130.218 37.7266C130.845 38.2154 131.606 38.5015 132.399 38.5467C133.193 38.5918 133.981 38.3938 134.659 37.9792C135.126 37.7008 135.485 37.2717 135.675 36.7626H139.021C138.64 38.1991 137.769 39.4574 136.559 40.3205C135.353 41.0617 133.957 41.4346 132.542 41.3937C131.537 41.4054 130.538 41.2283 129.598 40.8715C128.758 40.5441 128 40.0367 127.377 39.3851C126.76 38.7221 126.284 37.9413 125.977 37.0896C125.636 36.146 125.469 35.1487 125.483 34.1457C125.475 33.1664 125.646 32.194 125.988 31.2763C126.304 30.4156 126.794 29.6291 127.427 28.9657C128.059 28.3023 128.822 27.7761 129.667 27.4199C130.574 27.0341 131.55 26.8387 132.536 26.846C133.603 26.8215 134.661 27.0558 135.618 27.5289C136.467 27.9646 137.204 28.5912 137.77 29.3596C138.339 30.1483 138.752 31.0385 138.987 31.9822C139.24 32.9886 139.331 34.0289 139.256 35.0639H129.277C129.238 36.0392 129.575 36.992 130.218 37.7266ZM134.51 30.4499C134.238 30.1843 133.913 29.9799 133.556 29.8502C133.198 29.7206 132.818 29.6687 132.439 29.6981C131.916 29.6797 131.397 29.786 130.924 30.008C130.55 30.1884 130.221 30.449 129.959 30.7713C129.728 31.0535 129.557 31.3795 129.454 31.7297C129.365 32.0268 129.307 32.3327 129.282 32.6421H135.463C135.357 31.8385 135.032 31.0798 134.522 30.4499H134.51Z" fill="#231F20"/>
<path d="M140.49 27.207H144.851L147.29 30.8225L149.694 27.207H153.895L149.35 33.6861L154.458 41.0431H150.125L147.256 36.6817L144.386 41.0431H140.134L145.109 33.7664L140.49 27.207Z" fill="#231F20"/>
<path d="M0.568087 24.5158C-0.213072 28.0636 -0.188309 31.7415 0.640451 35.2785C1.46921 38.8156 3.08086 42.1216 5.35677 44.9531C7.63268 47.7847 10.5149 50.0696 13.7909 51.6395C17.067 53.2094 20.6536 54.0244 24.2864 54.0244C27.786 54.0253 31.244 53.2655 34.4209 51.7977L47.6201 59.7804L42.5815 45.6975C44.7491 43.2229 46.3899 40.3327 47.4039 37.2032C48.4179 34.0737 48.7837 30.7704 48.4793 27.4949C48.1748 24.2193 47.2063 21.0401 45.6329 18.151C44.0595 15.262 41.9141 12.7238 39.3276 10.6911C38.1924 12.2397 36.9043 13.6701 35.4827 14.9608C37.5855 16.5461 39.3259 18.5618 40.5877 20.8733C41.8495 23.1848 42.6036 25.739 42.7997 28.3652C42.9958 30.9914 42.6294 33.6291 41.7248 36.1024C40.8203 38.5757 39.3985 40.8276 37.5543 42.7076L39.649 48.5497L40.4352 50.7476L38.3864 49.508L33.1297 46.323L32.8887 46.1738C30.3981 47.4638 27.6472 48.1719 24.8432 48.2448C22.0393 48.3177 19.2553 47.7535 16.701 46.5947C14.1466 45.4359 11.8884 43.7126 10.0965 41.5547C8.30456 39.3968 7.02558 36.8605 6.3558 34.1367C5.68602 31.413 5.64287 28.5728 6.2297 25.8299C6.81654 23.0871 8.01807 20.5131 9.7437 18.3018C11.4693 16.0905 13.6741 14.2996 16.1922 13.0638C18.7102 11.828 21.4757 11.1797 24.2806 11.1675C25.3076 11.166 26.3328 11.2523 27.3451 11.4257C29.0735 9.99904 30.6837 8.4349 32.1599 6.74858C29.6252 5.87337 26.9622 5.42731 24.2806 5.42871C18.801 5.43514 13.4841 7.29179 9.19169 10.6978C4.89925 14.1039 1.88279 18.8596 0.631204 24.1944" fill="#231F20"/>
<path d="M7.52832 23.385C7.52832 23.385 25.439 18.1342 34.8677 5.22772C33.7593 4.54153 32.7495 3.70744 31.8664 2.74854L41.8804 0.30957L42.8331 10.5992L39.6137 8.0856C39.6137 8.0856 31.7229 23.4596 7.52832 23.385Z" fill="#10B084"/>
<path d="M12.3604 30.3058V36.188C13.5032 38.7803 15.4593 40.9298 17.9327 42.3113V30.3058C17.9327 30.1536 17.8722 30.0076 17.7646 29.9C17.657 29.7924 17.511 29.7319 17.3588 29.7319H12.9285C12.7773 29.7334 12.6328 29.7946 12.5264 29.902C12.42 30.0095 12.3603 30.1546 12.3604 30.3058Z" fill="#231F20"/>
<path d="M20.8945 24.6422V43.5227C21.9972 43.8164 23.1335 43.965 24.2747 43.9646C25.0095 43.9658 25.743 43.9023 26.4668 43.7752V24.6422C26.4668 24.49 26.4064 24.344 26.2988 24.2364C26.1912 24.1288 26.0452 24.0684 25.893 24.0684H21.4684C21.3162 24.0684 21.1702 24.1288 21.0626 24.2364C20.955 24.344 20.8945 24.49 20.8945 24.6422Z" fill="#231F20"/>
<path d="M31.5522 18.9663H30.0143C29.8621 18.9663 29.7161 19.0267 29.6085 19.1344C29.5009 19.242 29.4404 19.388 29.4404 19.5402V42.9026C31.6932 41.9276 33.6247 40.3362 35.0127 38.3116V19.5402C35.0127 19.388 34.9523 19.242 34.8447 19.1344C34.7371 19.0267 34.5911 18.9663 34.4389 18.9663H31.5522Z" fill="#231F20"/>
</svg>
