<svg width="70" height="70" viewBox="0 0 70 70" fill="none" xmlns="http://www.w3.org/2000/svg">
<g clip-path="url(#clip0_0_3625)">
<path d="M1.03711 44.707H68.9729V68.9682H1.02344L1.03711 44.707Z" fill="#5ED8F6"/>
<path d="M1.02344 55.5392C5.16972 49.8913 13.1342 47.3855 19.7717 49.6402C27.6106 52.303 33.2185 60.6576 41.4881 61.0655C45.3212 61.2546 48.9751 59.6387 52.5978 58.3725C56.2202 57.1065 62.8852 54.9485 68.9515 60.0396V68.9692H1.02344V55.5392Z" fill="#FFD686"/>
<path d="M14.3039 49.6431C22.1427 52.3058 27.7507 60.6604 36.0203 61.0683C37.1797 61.1255 38.3227 61.0168 39.4536 60.8033C32.2588 59.293 26.9506 52.0816 19.7716 49.6431C17.2523 48.7872 14.5421 48.6188 11.9219 49.0461C12.7285 49.1821 13.5255 49.3786 14.3039 49.6431Z" fill="#F7CA6D"/>
<path d="M57.3594 57.0668C57.3796 57.0706 57.3997 57.0746 57.4199 57.0785C60.9541 57.7758 63.4832 60.9067 63.4832 64.509V68.9705H68.9509V60.0409C65.0063 56.7307 60.8091 56.4854 57.3594 57.0668Z" fill="#F7CA6D"/>
<path d="M48.2514 30.5505C47.8269 27.9694 45.3905 26.2211 42.8095 26.6454C40.2284 27.0698 38.4801 29.5062 38.9044 32.0873C38.4799 29.5062 36.0435 27.7579 33.4624 28.1822C30.8812 28.6065 29.1329 31.043 29.5572 33.6242C29.1328 31.043 26.6964 29.2947 24.1154 29.719C21.5343 30.1433 19.7859 32.5798 20.2102 35.161C19.7858 32.5798 17.3494 30.8316 14.7682 31.2558C12.1871 31.6803 10.4388 34.1167 10.8631 36.6978C10.4386 34.1167 8.00225 32.3684 5.42109 32.7927C2.83994 33.2171 1.09164 35.6535 1.51594 38.2347L1.35737 38.2608C-0.771058 25.3134 7.9991 13.0918 20.9464 10.963C33.8938 8.83411 46.1154 17.6044 48.2441 30.5517L48.2514 30.5505Z" fill="#FE75A7"/>
<path d="M48.2566 30.5499C48.2396 30.4471 48.2184 30.3462 48.1953 30.2461C48.2134 30.3477 48.2326 30.4488 48.2495 30.551L48.2566 30.5499Z" fill="#FE5995"/>
<path d="M22.0938 10.8026C31.1504 11.8567 38.9565 18.0915 41.8775 26.8974C42.1737 26.7838 42.4856 26.6981 42.8108 26.6446C45.2892 26.2372 47.633 27.8334 48.1914 30.2461C45.9897 17.8473 34.507 9.36799 22.0938 10.8026Z" fill="#FE5995"/>
<path d="M20.9528 10.9615C20.9506 10.962 20.9483 10.9622 20.9461 10.9625C13.3655 12.2101 8.84555 23.2862 10.6564 35.9006C10.7456 36.1559 10.8153 36.4217 10.8607 36.6977C10.4362 34.1165 12.1847 31.8168 14.7658 31.3924C17.347 30.9679 19.7834 32.5797 20.2077 35.1608C19.7832 32.5797 21.5317 30.1433 24.1128 29.7188C26.694 29.2944 29.1304 31.0428 29.5547 33.624C29.1302 31.0428 30.8787 28.7431 33.4598 28.3187C35.7286 27.9457 37.885 29.1151 38.662 31.1894C36.3155 18.7154 28.5116 9.72366 20.9528 10.9615Z" fill="#E1F3FF"/>
<path d="M21.0798 10.9426C21.0658 10.9448 21.0519 10.9467 21.038 10.9489C18.5061 11.4111 18.122 21.955 20.1537 34.6494C20.0214 32.2654 21.7046 30.1153 24.1143 29.7191C26.6955 29.2946 29.1319 31.0431 29.5562 33.6242C29.5295 33.4617 29.5115 33.2997 29.5017 33.1388C27.3652 20.4638 23.6279 10.5924 21.0798 10.9426Z" fill="#FE75A7"/>
<path d="M48.2487 30.5497C48.2318 30.4469 48.2106 30.346 48.1875 30.2461C48.2055 30.3477 48.2248 30.4488 48.2416 30.551L48.2487 30.5497Z" fill="#5ED8F6"/>
<path d="M58.6367 16.0234C61.2061 16.0234 63.289 13.9405 63.289 11.3711C63.289 8.80166 61.2061 6.71875 58.6367 6.71875C56.0673 6.71875 53.9844 8.80166 53.9844 11.3711C53.9844 13.9405 56.0673 16.0234 58.6367 16.0234Z" fill="#FFD500"/>
<path d="M58.6401 6.71875C57.6182 6.71875 56.6738 7.04913 55.9062 7.60766C57.0685 8.45351 57.8247 9.82357 57.8247 11.3711C57.8247 12.9186 57.0685 14.2886 55.9062 15.1345C56.6738 15.693 57.6182 16.0234 58.6401 16.0234C61.2095 16.0234 63.2924 13.9405 63.2924 11.3711C63.2924 8.80166 61.2095 6.71875 58.6401 6.71875Z" fill="#FFC400"/>
<path d="M68.9747 43.6813H27.3646L25.2297 30.6965C26.8685 30.8505 28.2659 32.0909 28.5452 33.7892C28.7748 35.1848 30.7714 34.674 30.5682 33.4555C29.7493 28.478 37.1273 27.5992 37.8922 32.2525C38.0934 33.4754 40.145 33.3206 39.9155 31.9198C39.1633 27.3456 46.1089 25.972 47.184 30.4453C47.267 32.0923 49.5582 31.6611 49.1994 30.0565C48.062 23.6605 44.538 18.0645 39.2496 14.2695C33.9116 10.439 27.41 8.90081 20.9265 9.92777C20.9205 9.92859 20.9146 9.92955 20.9111 9.9301L20.8787 9.93502C20.8777 9.93515 20.8766 9.93543 20.8757 9.93557C20.8526 9.93926 20.8295 9.94226 20.8064 9.94609C20.8051 9.94623 20.8039 9.94636 20.8028 9.94664C20.796 9.94759 20.7882 9.94882 20.7819 9.94978C20.7818 9.94978 20.7815 9.94978 20.7814 9.94992C20.7808 9.95005 20.7804 9.95005 20.7799 9.95019C7.29519 12.1671 -1.87152 24.9412 0.345628 38.4257C0.561465 39.7383 2.75236 39.4341 2.52737 38.0669C2.1989 36.0689 3.58919 34.1314 5.58722 33.803C7.53604 33.4823 9.53393 34.9323 9.85119 36.8628C10.0632 38.1514 12.1039 37.9253 11.8745 36.5301C11.1316 32.0116 17.9076 30.5027 19.1169 34.9517C19.5163 36.4228 21.3957 36.5703 21.1957 34.8068C21.0304 33.3557 21.9387 31.7195 23.2145 31.0762L25.2869 43.6811H1.03893C0.472751 43.6811 0.0137394 44.1402 0.0137394 44.7063C0.0137394 45.2725 0.472751 45.7315 1.03893 45.7315H25.6238L26.6845 52.1828C24.6261 50.7611 22.4695 49.4716 20.1034 48.6678C16.6883 47.5077 12.8009 47.5002 9.15762 48.6468C5.51395 49.7932 2.33231 52.025 0.19882 54.9309C-0.136212 55.3873 -0.0377935 56.0289 0.418485 56.364C0.875036 56.699 1.51653 56.6006 1.85156 56.1443C3.72876 53.5872 6.54202 51.6191 9.77287 50.6025C13.0036 49.586 16.4382 49.5883 19.4438 50.6092C22.6278 51.6909 25.5291 53.8318 28.3347 55.9022C32.2893 58.8205 36.3787 61.8382 41.4394 62.0877C41.6638 62.0988 41.8869 62.1041 42.1094 62.1041C44.9198 62.1041 47.569 61.2558 49.8563 60.447C50.3901 60.2582 50.6698 59.6725 50.481 59.1387C50.2922 58.6048 49.7064 58.325 49.1727 58.514C46.8889 59.3217 44.228 60.1721 41.5404 60.0399C37.098 59.8208 33.4328 57.1159 29.5522 54.2524C29.3746 54.1213 29.1965 53.9899 29.0182 53.8587C29.0201 53.7936 29.0162 53.7273 29.0053 53.6606L27.7017 45.7315H68.9747C69.5409 45.7315 69.9999 45.2725 69.9999 44.7063C69.9999 44.1402 69.5409 43.6813 68.9747 43.6813ZM27.7065 29.3728C25.3902 28.0667 22.4014 28.5357 20.602 30.5296C20.0462 26.0851 19.799 21.9386 19.8987 18.5737C20.0469 13.5735 20.9233 12.0893 21.2181 11.9581C21.2184 11.9581 21.2185 11.9581 21.2188 11.9579C21.5508 11.9905 22.8561 13.121 24.5964 17.81C25.772 20.9774 26.8681 25.0005 27.7659 29.4053C27.7462 29.3941 27.7261 29.3838 27.7065 29.3728ZM29.8092 29.1669C28.8543 24.4439 27.6749 20.1432 26.4041 16.7914C25.6439 14.7868 24.8806 13.2015 24.1331 12.0733C26.4806 12.5976 28.8402 14.1423 30.9917 16.6064C33.4981 19.4769 35.4952 23.3252 36.7723 27.6842C35.7027 27.1555 34.4683 26.9763 33.2954 27.1692C31.8764 27.4026 30.6645 28.1401 29.8092 29.1669ZM45.9599 26.0736C43.5276 24.9643 40.5626 25.7236 38.9579 27.8827C37.0137 20.7085 33.3 15.003 28.9595 12.0443C32.2005 12.6449 35.2967 13.9566 38.0542 15.9354C41.6641 18.526 44.3777 22.0316 45.9599 26.0736ZM6.19249 31.7028C4.72319 31.7028 3.11091 32.3751 2.08654 33.4179C2.42786 25.5078 6.9089 18.3741 13.6988 14.5659C12.5796 16.0468 11.6319 17.8413 10.903 19.9057C10.4618 21.1557 12.3952 21.8383 12.8365 20.5884C14.1221 16.9473 16.1215 14.278 18.5158 12.91C18.158 14.2155 17.9425 15.9592 17.8607 18.1726C17.7275 21.7687 17.9887 26.2443 18.6015 31.0505C16.2754 29.5844 13.1909 29.9836 11.3187 32.0041C11.2167 29.7198 11.331 27.4937 11.6615 25.352C11.8637 24.042 9.83766 23.7289 9.63522 25.0391C9.25863 27.4782 9.14682 30.0166 9.298 32.6187C8.38996 32.0358 7.31815 31.7028 6.19249 31.7028Z" fill="#060606"/>
<path d="M58.6384 17.0464C61.769 17.0464 64.3159 14.4996 64.3159 11.3689C64.3159 8.23825 61.7691 5.69141 58.6384 5.69141C55.5078 5.69141 52.9609 8.23825 52.9609 11.3689C52.9609 14.4996 55.5079 17.0464 58.6384 17.0464ZM58.6384 7.74192C60.6384 7.74192 62.2656 9.36897 62.2656 11.369C62.2656 13.3691 60.6385 14.9962 58.6384 14.9962C56.6384 14.9962 55.0113 13.3691 55.0113 11.369C55.0113 9.36897 56.6385 7.74192 58.6384 7.74192Z" fill="#060606"/>
<path d="M58.6346 4.48557C59.2007 4.48557 59.6598 4.02656 59.6598 3.46038V1.033C59.6598 0.466824 59.2007 0.0078125 58.6346 0.0078125C58.0684 0.0078125 57.6094 0.466824 57.6094 1.033V3.46038C57.6094 4.02656 58.0684 4.48557 58.6346 4.48557Z" fill="#060606"/>
<path d="M57.6094 19.2791V21.7065C57.6094 22.2727 58.0684 22.7317 58.6346 22.7317C59.2007 22.7317 59.6598 22.2727 59.6598 21.7065V19.2791C59.6598 18.7129 59.2007 18.2539 58.6346 18.2539C58.0684 18.2539 57.6094 18.7129 57.6094 19.2791Z" fill="#060606"/>
<path d="M64.2283 6.80195C64.4906 6.80195 64.753 6.70189 64.9532 6.50163L66.6696 4.78519C67.07 4.38482 67.07 3.73567 66.6696 3.33543C66.2692 2.93506 65.6201 2.93506 65.2198 3.33543L63.5034 5.05188C63.103 5.45225 63.103 6.1014 63.5034 6.50163C63.7035 6.70189 63.966 6.80195 64.2283 6.80195Z" fill="#060606"/>
<path d="M52.3214 16.2378L50.605 17.9542C50.2046 18.3546 50.2046 19.0037 50.605 19.404C50.8051 19.6041 51.0675 19.7043 51.3298 19.7043C51.5922 19.7043 51.8546 19.6042 52.0547 19.404L53.7712 17.6875C54.1715 17.2872 54.1715 16.638 53.7712 16.2378C53.3709 15.8374 52.7218 15.8374 52.3214 16.2378Z" fill="#060606"/>
<path d="M65.5234 11.3689C65.5234 11.9351 65.9824 12.3941 66.5486 12.3941H68.976C69.5422 12.3941 70.0012 11.9351 70.0012 11.3689C70.0012 10.8028 69.5422 10.3438 68.976 10.3438H66.5486C65.9824 10.3438 65.5234 10.8028 65.5234 11.3689Z" fill="#060606"/>
<path d="M48.2986 12.3941H50.726C51.2922 12.3941 51.7512 11.9351 51.7512 11.3689C51.7512 10.8028 51.2922 10.3438 50.726 10.3438H48.2986C47.7324 10.3438 47.2734 10.8028 47.2734 11.3689C47.2734 11.9351 47.7324 12.3941 48.2986 12.3941Z" fill="#060606"/>
<path d="M63.5034 16.2378C63.103 16.6381 63.103 17.2872 63.5034 17.6875L65.2198 19.404C65.42 19.6042 65.6824 19.7043 65.9447 19.7043C66.207 19.7043 66.4695 19.6042 66.6696 19.404C67.07 19.0036 67.07 18.3546 66.6696 17.9542L64.9532 16.2378C64.5529 15.8374 63.9038 15.8374 63.5034 16.2378Z" fill="#060606"/>
<path d="M52.3214 6.50168C52.5215 6.70194 52.784 6.802 53.0463 6.802C53.3086 6.802 53.571 6.70194 53.7712 6.50168C54.1715 6.10131 54.1715 5.45216 53.7712 5.05193L52.0547 3.33549C51.6544 2.93498 51.0052 2.93511 50.605 3.33549C50.2046 3.73586 50.2046 4.38501 50.605 4.78524L52.3214 6.50168Z" fill="#060606"/>
<path d="M4.69346 58.1914C3.37411 58.1914 3.37192 60.2418 4.69346 60.2418C6.01281 60.2418 6.015 58.1914 4.69346 58.1914Z" fill="#060606"/>
<path d="M18.8497 63.9141C17.5304 63.9141 17.5282 65.9644 18.8497 65.9644C20.1691 65.9644 20.1712 63.9141 18.8497 63.9141Z" fill="#060606"/>
<path d="M22.42 56.1562C21.1007 56.1562 21.0985 58.2066 22.42 58.2066C23.7394 58.2066 23.7416 56.1562 22.42 56.1562Z" fill="#060606"/>
<path d="M49.5919 67.9453C48.2725 67.9453 48.2704 69.9957 49.5919 69.9957C50.9112 69.9957 50.9134 67.9453 49.5919 67.9453Z" fill="#060606"/>
<path d="M61.7481 62.2422C60.4288 62.2422 60.4266 64.2926 61.7481 64.2926C63.0675 64.2926 63.0697 62.2422 61.7481 62.2422Z" fill="#060606"/>
<path d="M39.7674 52.8047C39.2012 52.8047 38.7422 53.2637 38.7422 53.8299C38.7422 54.3961 39.2012 54.8551 39.7674 54.8551H47.6568C48.223 54.8551 48.682 54.3961 48.682 53.8299C48.682 53.2637 48.223 52.8047 47.6568 52.8047H39.7674Z" fill="#060606"/>
<path d="M64.3161 49.6346C64.3161 49.0684 63.857 48.6094 63.2909 48.6094H45.658C45.0918 48.6094 44.6328 49.0684 44.6328 49.6346C44.6328 50.2007 45.0918 50.6598 45.658 50.6598H63.2909C63.857 50.6598 64.3161 50.2009 64.3161 49.6346Z" fill="#060606"/>
<path d="M69.6124 59.2539C65.7018 55.972 61.114 55.0341 55.5864 56.3868C55.0365 56.5215 54.6997 57.0763 54.8343 57.6264C54.969 58.1764 55.5241 58.5132 56.0738 58.3784C60.922 57.1918 64.9193 57.9921 68.2944 60.8245C68.4864 60.9857 68.7203 61.0644 68.9528 61.0644C69.2454 61.0644 69.536 60.9399 69.7387 60.6982C70.1026 60.2646 70.0461 59.618 69.6124 59.2539Z" fill="#060606"/>
</g>
<defs>
<clipPath id="clip0_0_3625">
<rect width="70" height="70" fill="white"/>
</clipPath>
</defs>
</svg>
