<svg width="70" height="70" viewBox="0 0 70 70" fill="none" xmlns="http://www.w3.org/2000/svg">
<path d="M36.3125 21.3404L41.166 26.2076C41.0673 26.5124 41.0165 26.8306 41.0156 27.151V32.401L31.0625 22.4479C31.2553 21.9531 31.5682 21.514 31.9731 21.1704C32.3779 20.8267 32.8619 20.5893 33.3815 20.4794C33.901 20.3695 34.4397 20.3907 34.949 20.541C35.4583 20.6913 35.9222 20.9661 36.2988 21.3404H36.3125Z" fill="#43CFC8"/>
<path d="M54.6855 27.5631C56.2715 33.1686 57.8027 39.0885 57.4199 44.9264C57.2968 47.2598 56.3242 49.4676 54.6855 51.1334L50.4336 55.3853C48.4935 57.0824 46.0694 58.1273 43.5034 58.3726C40.9375 58.6179 38.3594 58.0512 36.1328 56.7525C38.5055 56.409 40.7305 55.3938 42.5449 53.8268L46.7969 49.5748C48.4355 47.909 49.4081 45.7012 49.5312 43.3678C49.6761 40.2404 49.4235 37.1073 48.7793 34.0436L48.9023 28.7115C48.9022 27.9232 49.2116 27.1663 49.7639 26.6038C50.3162 26.0413 51.0673 25.718 51.8555 25.7037C52.4597 25.6918 53.0535 25.863 53.5586 26.1949C54.0637 26.5268 54.4566 27.0037 54.6855 27.5631Z" fill="#43CFC8"/>
<path d="M23.909 24.3211C23.6128 24.0249 23.3778 23.6732 23.2175 23.2861C23.0571 22.8991 22.9746 22.4842 22.9746 22.0653C22.9746 21.6463 23.0571 21.2315 23.2175 20.8444C23.3778 20.4573 23.6128 20.1057 23.909 19.8094C24.2053 19.5132 24.557 19.2782 24.944 19.1178C25.3311 18.9575 25.7459 18.875 26.1649 18.875C26.5838 18.875 26.9987 18.9575 27.3857 19.1178C27.7728 19.2782 28.1245 19.5132 28.4207 19.8094L31.0731 22.4481L41.0125 32.4012V27.1512C41.0135 26.8309 41.0642 26.5126 41.1629 26.2078C41.3569 25.6109 41.7327 25.0896 42.2377 24.7169C42.7428 24.3443 43.3517 24.1389 43.9793 24.1297C44.5824 24.1232 45.174 24.2948 45.6799 24.6232C46.1858 24.9515 46.5835 25.4219 46.8231 25.9754C47.5614 28.6004 48.286 31.2938 48.8192 34.0145C49.4633 37.0782 49.716 40.2113 49.5711 43.3387C49.448 45.6721 48.4754 47.8799 46.8368 49.5457L42.5848 53.7977C40.7703 55.3647 38.5454 56.3799 36.1727 56.7235C34.3375 57.0288 32.4561 56.8943 30.6831 56.331C28.91 55.7677 27.2959 54.7917 25.9735 53.4832L13.3953 40.8914C12.7971 40.2931 12.4609 39.4817 12.4609 38.6356C12.4609 37.7895 12.7971 36.978 13.3953 36.3797C13.9936 35.7814 14.8051 35.4453 15.6512 35.4453C16.4973 35.4453 17.3088 35.7814 17.9071 36.3797L14.8856 33.3446C14.5871 33.0496 14.3502 32.6983 14.1885 32.311C14.0267 31.9238 13.9435 31.5083 13.9435 31.0887C13.9435 30.6691 14.0267 30.2536 14.1885 29.8664C14.3502 29.4791 14.5871 29.1278 14.8856 28.8328C15.485 28.2367 16.2961 27.9021 17.1414 27.9021C17.9868 27.9021 18.7978 28.2367 19.3973 28.8328L16.6629 26.0985C16.0668 25.499 15.7322 24.688 15.7322 23.8426C15.7322 22.9972 16.0668 22.1862 16.6629 21.5868C17.2624 20.9906 18.0734 20.656 18.9188 20.656C19.7642 20.656 20.5752 20.9906 21.1746 21.5868L23.909 24.3211Z" fill="#FDDE59"/>
<path d="M25.9779 54.5769C25.6919 54.5736 25.418 54.4611 25.2123 54.2625L12.6341 41.6707C11.8326 40.8638 11.3828 39.7728 11.3828 38.6355C11.3828 37.4983 11.8326 36.4072 12.6341 35.6003C13.4535 34.8284 14.5367 34.3984 15.6625 34.3984C16.7882 34.3984 17.8714 34.8284 18.6908 35.6003C18.8962 35.8077 19.0114 36.0878 19.0114 36.3796C19.0114 36.6715 18.8962 36.9516 18.6908 37.1589C18.4857 37.3635 18.2079 37.4784 17.9183 37.4784C17.6287 37.4784 17.3509 37.3635 17.1459 37.1589C16.7464 36.777 16.2151 36.5639 15.6625 36.5639C15.1098 36.5639 14.5785 36.777 14.1791 37.1589C13.9839 37.3522 13.8291 37.5821 13.7234 37.8356C13.6177 38.089 13.5632 38.3609 13.5632 38.6355C13.5632 38.9101 13.6177 39.182 13.7234 39.4354C13.8291 39.6889 13.9839 39.9188 14.1791 40.1121L26.7709 52.7039C26.9762 52.9112 27.0915 53.1913 27.0915 53.4832C27.0915 53.775 26.9762 54.0551 26.7709 54.2625C26.5575 54.4664 26.273 54.5792 25.9779 54.5769Z" fill="#003442"/>
<path d="M29.2433 39.7572C28.9528 39.756 28.6739 39.6434 28.464 39.4427L15.8585 26.8373C15.0537 26.0322 14.6016 24.9405 14.6016 23.8021C14.6016 22.6638 15.0537 21.572 15.8585 20.767C16.6786 19.991 17.7647 19.5586 18.8937 19.5586C20.0227 19.5586 21.1088 19.991 21.9288 20.767L34.5206 33.3588C34.726 33.5661 34.8412 33.8462 34.8412 34.1381C34.8412 34.4299 34.726 34.71 34.5206 34.9173C34.3156 35.1219 34.0378 35.2368 33.7482 35.2368C33.4585 35.2368 33.1807 35.1219 32.9757 34.9173L20.3702 22.3256C19.9715 21.9476 19.443 21.737 18.8937 21.737C18.3443 21.737 17.8158 21.9476 17.4171 22.3256C17.2199 22.519 17.0633 22.7498 16.9564 23.0045C16.8494 23.2592 16.7944 23.5327 16.7944 23.809C16.7944 24.0852 16.8494 24.3587 16.9564 24.6134C17.0633 24.8681 17.2199 25.0989 17.4171 25.2923L30.0773 37.8841C30.2318 38.0363 30.3376 38.231 30.3812 38.4435C30.4248 38.6559 30.4043 38.8765 30.3222 39.0773C30.2402 39.278 30.1003 39.4499 29.9203 39.5709C29.7404 39.692 29.5285 39.7568 29.3116 39.7572H29.2433Z" fill="#003442"/>
<path d="M24.7087 44.2704C24.4227 44.2671 24.1488 44.1546 23.943 43.956L14.1266 34.1806C13.7253 33.785 13.4065 33.3135 13.189 32.7937C12.9714 32.2738 12.8594 31.7158 12.8594 31.1523C12.8594 30.5887 12.9714 30.0308 13.189 29.5109C13.4065 28.991 13.7253 28.5195 14.1266 28.1239C14.9288 27.3241 16.0154 26.875 17.1481 26.875C18.2809 26.875 19.3674 27.3241 20.1696 28.1239C20.375 28.3313 20.4902 28.6114 20.4902 28.9032C20.4902 29.1951 20.375 29.4752 20.1696 29.6825C19.9646 29.8871 19.6868 30.002 19.3971 30.002C19.1075 30.002 18.8297 29.8871 18.6247 29.6825C18.4303 29.487 18.1992 29.3319 17.9446 29.226C17.69 29.1201 17.417 29.0656 17.1413 29.0656C16.8656 29.0656 16.5926 29.1201 16.338 29.226C16.0834 29.3319 15.8523 29.487 15.6579 29.6825C15.2756 30.0528 15.0546 30.5587 15.0427 31.0907C15.0418 31.3654 15.0958 31.6375 15.2014 31.891C15.3071 32.1446 15.4623 32.3745 15.6579 32.5673L25.488 42.3837C25.6933 42.5911 25.8086 42.8711 25.8086 43.163C25.8086 43.4549 25.6933 43.7349 25.488 43.9423C25.2802 44.148 25.001 44.2655 24.7087 44.2704Z" fill="#003442"/>
<path d="M34.2745 57.9962C32.5943 58.0015 30.9297 57.6745 29.3764 57.0339C27.8231 56.3934 26.4118 55.4519 25.2237 54.2638C25.0184 54.0564 24.9031 53.7764 24.9031 53.4845C24.9031 53.1926 25.0184 52.9126 25.2237 52.7052C25.4288 52.5007 25.7066 52.3858 25.9962 52.3858C26.2858 52.3858 26.5636 52.5007 26.7687 52.7052C27.9557 53.8966 29.4094 54.7883 31.0093 55.3065C32.6093 55.8248 34.3097 55.9548 35.9698 55.6857C38.1431 55.3573 40.1752 54.4077 41.8214 52.9513L46.0187 48.754C47.4915 47.2999 48.3732 45.3515 48.4933 43.2853C48.6289 40.2493 48.3808 37.2084 47.755 34.2345C47.2628 31.7052 46.6066 29.2306 45.7726 26.2911C45.6088 25.9434 45.3441 25.653 45.013 25.4578C44.6819 25.2626 44.2996 25.1716 43.9161 25.1967C43.5325 25.2218 43.1654 25.3618 42.8625 25.5984C42.5596 25.8351 42.335 26.1575 42.2179 26.5236C42.1485 26.7167 42.1115 26.9199 42.1085 27.1251V32.4025C42.111 32.6188 42.0485 32.8309 41.9291 33.0113C41.8096 33.1917 41.6387 33.332 41.4386 33.4142C41.2395 33.497 41.0204 33.5191 40.8087 33.4778C40.5971 33.4364 40.4024 33.3334 40.2491 33.1818L27.6437 20.59C27.2475 20.2017 26.715 19.9842 26.1603 19.9842C25.6056 19.9842 25.073 20.2017 24.6769 20.59C24.4818 20.7832 24.3269 21.0132 24.2212 21.2666C24.1155 21.5201 24.0611 21.7919 24.0611 22.0665C24.0611 22.3411 24.1155 22.613 24.2212 22.8664C24.3269 23.1199 24.4818 23.3499 24.6769 23.5431C24.8823 23.7505 24.9975 24.0305 24.9975 24.3224C24.9975 24.6143 24.8823 24.8943 24.6769 25.1017C24.4718 25.3062 24.194 25.4211 23.9044 25.4211C23.6148 25.4211 23.337 25.3062 23.1319 25.1017C22.3271 24.2966 21.875 23.2049 21.875 22.0665C21.875 20.9282 22.3271 19.8364 23.1319 19.0314C23.9449 18.247 25.0306 17.8086 26.1603 17.8086C27.29 17.8086 28.3756 18.247 29.1886 19.0314L39.921 29.7501V27.1525C39.922 26.7205 39.9912 26.2914 40.1261 25.881C40.3798 25.0727 40.8776 24.3628 41.551 23.8489C42.2244 23.3349 43.0405 23.0421 43.887 23.0106C44.7336 22.9792 45.5692 23.2106 46.2789 23.6732C46.9886 24.1357 47.5377 24.8067 47.8507 25.5939C48.63 28.3283 49.3683 31.0626 49.9151 33.797C50.5761 36.9416 50.8334 40.1576 50.6808 43.3673C50.5325 45.9766 49.4275 48.4396 47.5773 50.2853L43.3116 54.6876C41.3285 56.417 38.8884 57.5373 36.2843 57.9142C35.6176 57.9953 34.9456 58.0227 34.2745 57.9962Z" fill="#003442"/>
<path d="M42.22 59.553C39.8686 59.5631 37.56 58.9245 35.5481 57.7073C35.424 57.6356 35.3157 57.5395 35.2296 57.425C35.1435 57.3104 35.0814 57.1797 35.0469 57.0406C35.0125 56.9015 35.0064 56.7569 35.0291 56.6154C35.0518 56.4739 35.1027 56.3384 35.1789 56.2171C35.3294 55.9689 35.5714 55.7898 35.8526 55.7182C36.1339 55.6466 36.432 55.6883 36.6828 55.8343C38.7103 57.0213 41.0614 57.5363 43.3994 57.3054C45.7374 57.0746 47.9423 56.1097 49.6985 54.5491L53.8957 50.3518C55.359 48.8911 56.2389 46.9465 56.3703 44.8831C56.7121 39.2776 55.2766 33.6448 53.636 27.889C53.447 27.497 53.1309 27.1805 52.7391 26.9909C52.3474 26.8014 51.9031 26.75 51.4784 26.8451C51.0537 26.9402 50.6737 27.1761 50.4002 27.5146C50.1267 27.8531 49.9757 28.2741 49.9719 28.7093L49.8899 34.096C49.8881 34.2396 49.858 34.3815 49.8014 34.5135C49.7448 34.6455 49.6627 34.7651 49.5599 34.8654C49.457 34.9657 49.3355 35.0448 49.2021 35.0981C49.0687 35.1514 48.9261 35.1779 48.7825 35.1761C48.6394 35.1743 48.4982 35.1441 48.3669 35.0874C48.2357 35.0306 48.117 34.9483 48.0178 34.8453C47.9186 34.7422 47.8408 34.6205 47.789 34.4872C47.7372 34.3539 47.7124 34.2116 47.716 34.0686L47.8528 28.7093C47.8504 27.7537 48.1818 26.8274 48.7896 26.0901C49.3975 25.3528 50.2436 24.8509 51.1821 24.671C52.1205 24.4911 53.0923 24.6445 53.9297 25.1047C54.7671 25.5649 55.4176 26.303 55.7688 27.1917C57.4231 33.0159 58.968 39.0862 58.5989 44.9651C58.4549 47.6037 57.3339 50.0941 55.4543 51.9515L51.2024 56.2171C48.7024 58.3655 45.5163 59.5488 42.22 59.553Z" fill="#003442"/>
<path d="M41.1828 27.3433C41.0374 27.3446 40.8932 27.3162 40.7592 27.2598C40.6252 27.2034 40.5041 27.1201 40.4035 27.0152L35.55 22.107C35.149 21.7282 34.6182 21.5171 34.0666 21.5171C33.5149 21.5171 32.9842 21.7282 32.5832 22.107C32.3794 22.311 32.217 22.5524 32.1047 22.8179C32.0742 22.9736 32.0103 23.1208 31.9173 23.2493C31.8242 23.3777 31.7044 23.4845 31.5661 23.562C31.4277 23.6396 31.2741 23.6861 31.116 23.6984C30.9578 23.7107 30.7989 23.6884 30.6502 23.6332C30.5016 23.5779 30.3667 23.491 30.255 23.3784C30.1432 23.2658 30.0573 23.1303 30.0032 22.9812C29.949 22.8321 29.928 22.673 29.9415 22.515C29.9549 22.357 30.0026 22.2037 30.0812 22.066C30.33 21.3964 30.7425 20.7998 31.281 20.3305C31.8195 19.8612 32.4669 19.5342 33.1642 19.3792C33.8615 19.2243 34.5864 19.2463 35.273 19.4434C35.9596 19.6405 36.5859 20.0062 37.0949 20.5074L41.9484 25.3746C42.1423 25.517 42.2838 25.7194 42.351 25.9504C42.4182 26.1814 42.4073 26.4282 42.3201 26.6524C42.2329 26.8766 42.0742 27.0658 41.8686 27.1907C41.663 27.3156 41.422 27.3693 41.1828 27.3433Z" fill="#003442"/>
<path d="M29.0788 16.2849C28.7859 16.2829 28.5056 16.1649 28.2995 15.9567L25.9753 13.5505C25.8747 13.4472 25.7955 13.3252 25.7421 13.1914C25.6887 13.0575 25.6623 12.9144 25.6642 12.7704C25.6661 12.6263 25.6963 12.484 25.7532 12.3516C25.8101 12.2192 25.8926 12.0993 25.9958 11.9987C26.099 11.8982 26.2211 11.819 26.3549 11.7656C26.4888 11.7122 26.6318 11.6857 26.7759 11.6876C26.92 11.6895 27.0623 11.7198 27.1947 11.7767C27.3271 11.8336 27.447 11.916 27.5475 12.0192L29.8718 14.4255C30.0772 14.6328 30.1924 14.9129 30.1924 15.2048C30.1924 15.4966 30.0772 15.7767 29.8718 15.9841C29.7667 16.0851 29.6423 16.1639 29.506 16.2155C29.3698 16.2672 29.2244 16.2908 29.0788 16.2849Z" fill="#43CFC8"/>
<path d="M33.7119 15.3252C33.5689 15.3252 33.4273 15.2968 33.2954 15.2417C33.1635 15.1866 33.0438 15.1058 32.9433 15.0041C32.8428 14.9023 32.7636 14.7816 32.7101 14.649C32.6566 14.5164 32.63 14.3745 32.6318 14.2315V11.4971C32.6147 11.3441 32.63 11.1892 32.6767 11.0426C32.7235 10.8959 32.8007 10.7608 32.9033 10.646C33.0059 10.5313 33.1316 10.4395 33.2721 10.3766C33.4126 10.3137 33.5648 10.2813 33.7188 10.2812C33.8727 10.2813 34.0249 10.3137 34.1654 10.3766C34.3059 10.4395 34.4316 10.5313 34.5342 10.646C34.6368 10.7608 34.714 10.8959 34.7608 11.0426C34.8075 11.1892 34.8228 11.3441 34.8057 11.4971V14.2315C34.8057 14.3751 34.7774 14.5173 34.7224 14.65C34.6674 14.7827 34.5869 14.9033 34.4853 15.0049C34.3837 15.1064 34.2632 15.187 34.1305 15.242C33.9978 15.2969 33.8555 15.3252 33.7119 15.3252Z" fill="#43CFC8"/>
<path d="M38.2842 16.2823C37.9912 16.2803 37.711 16.1623 37.5049 15.9542C37.4019 15.8536 37.3201 15.7334 37.2643 15.6008C37.2085 15.4681 37.1797 15.3256 37.1797 15.1817C37.1797 15.0378 37.2085 14.8953 37.2643 14.7627C37.3201 14.63 37.4019 14.5099 37.5049 14.4093L39.8291 12.1397C40.0341 11.9352 40.3119 11.8203 40.6015 11.8203C40.8912 11.8203 41.169 11.9352 41.374 12.1397C41.4769 12.2403 41.5587 12.3605 41.6146 12.4931C41.6704 12.6258 41.6992 12.7683 41.6992 12.9122C41.6992 13.0561 41.6704 13.1986 41.6146 13.3312C41.5587 13.4639 41.4769 13.5841 41.374 13.6847L39.0498 15.9542C38.9502 16.0568 38.8313 16.1387 38.6999 16.195C38.5685 16.2513 38.4271 16.281 38.2842 16.2823Z" fill="#43CFC8"/>
</svg>
