<svg width="70" height="70" viewBox="0 0 70 70" fill="none" xmlns="http://www.w3.org/2000/svg">
<path fill-rule="evenodd" clip-rule="evenodd" d="M6.00781 4.23828H36.7516V60.2078H6.00781V4.23828Z" fill="#60B7FF"/>
<path fill-rule="evenodd" clip-rule="evenodd" d="M17.2734 48.4531H25.482V60.2067H17.2734V48.4531Z" fill="#C49E6C"/>
<path fill-rule="evenodd" clip-rule="evenodd" d="M10.7891 10.3477H14.842V17.8181H10.7891V10.3477ZM10.7891 33.9869H14.842V41.4573H10.7891V33.9869ZM27.911 33.9869H31.9639V41.4573H27.911V33.9869ZM19.3501 33.9869H23.403V41.4573H19.3501V33.9869ZM10.7891 22.1673H14.842V29.6377H10.7891V22.1673ZM27.911 22.1673H31.9639V29.6377H27.911V22.1673ZM19.3501 22.1673H23.403V29.6377H19.3501V22.1673ZM27.911 10.3477H31.9639V17.8181H27.911V10.3477ZM19.3501 10.3477H23.403V17.8181H19.3501V10.3477Z" fill="#615260"/>
<path fill-rule="evenodd" clip-rule="evenodd" d="M35.9954 42.6836H59.1798C61.8243 42.6836 63.9877 44.8472 63.9877 47.4914V60.9532C63.9877 63.5976 61.8241 65.7612 59.1798 65.7612H35.9954C33.3509 65.7612 31.1875 63.5976 31.1875 60.9532V47.4914C31.1875 44.847 33.3509 42.6836 35.9954 42.6836Z" fill="#615260"/>
<path d="M58.5169 24.6603C60.344 18.6311 56.9374 12.2624 50.9082 10.4353C44.879 8.60827 38.5102 12.0148 36.6831 18.0441C34.8561 24.0733 38.2627 30.442 44.2919 32.2691C50.3211 34.0961 56.6899 30.6896 58.5169 24.6603Z" fill="#FFD266"/>
<path fill-rule="evenodd" clip-rule="evenodd" d="M42.3159 18.7805C42.3159 16.8606 43.8784 15.2987 45.7977 15.2987H46.4954V13.8074C46.4954 13.2032 46.9861 12.7139 47.589 12.7139C48.1932 12.7139 48.6832 13.2033 48.6832 13.8074V15.2987H51.2694C51.8741 15.2987 52.363 15.7881 52.363 16.3923C52.363 16.9965 51.8742 17.4859 51.2694 17.4859H45.7977C45.0841 17.4859 44.5037 18.067 44.5037 18.7806C44.5037 19.4943 45.0841 20.0747 45.7977 20.0747H49.3814C51.3007 20.0747 52.8638 21.6371 52.8638 23.5572C52.8638 25.4771 51.3007 27.039 49.3814 27.039H48.6831V28.5298C48.6831 29.1339 48.1929 29.6239 47.5889 29.6239C46.9861 29.6239 46.4953 29.1339 46.4953 28.5298V27.039H43.9097C43.3055 27.039 42.8161 26.549 42.8161 25.9448C42.8161 25.3407 43.3055 24.8512 43.9097 24.8512H49.3813C50.095 24.8512 50.676 24.2709 50.676 23.5572C50.676 22.8435 50.095 22.2625 49.3813 22.2625H45.7976C43.8785 22.2623 42.3159 20.7004 42.3159 18.7805ZM59.1812 64.6681H35.998C33.95 64.6681 32.2837 63.0018 32.2837 60.9537V51.1874H62.8962V60.9537C62.8962 63.0019 61.2293 64.6681 59.1812 64.6681ZM24.3905 59.1139H18.3686V49.5481H24.3905V59.1139ZM7.10129 5.33244V59.1139H16.1809V48.4545C16.1809 47.8503 16.6716 47.3609 17.2744 47.3609H25.4846C26.0874 47.3609 26.5782 47.8503 26.5782 48.4545V59.1139H30.096V47.4923C30.096 44.3525 32.5612 41.7778 35.658 41.6011V25.0727C35.289 23.8934 35.0891 22.6402 35.0891 21.341C35.0891 20.0417 35.289 18.7887 35.658 17.6094V5.33244H7.10129ZM47.589 11.0276C41.9028 11.0276 37.2762 15.6542 37.2762 21.3411C37.2762 27.0281 41.9029 31.6546 47.589 31.6546C53.2765 31.6546 57.9031 27.0279 57.9031 21.3411C57.9031 15.6543 53.2765 11.0276 47.589 11.0276ZM42.3801 39.5414C42.3801 38.6963 43.0682 38.0084 43.9125 38.0084H51.2669C52.112 38.0084 52.7993 38.6963 52.7993 39.5414V41.5908H42.3801V39.5414ZM62.8962 47.4923V48.9997H32.2838V47.4923C32.2838 45.4442 33.9501 43.7779 35.9982 43.7779H59.1813C61.2293 43.7779 62.8962 45.4442 62.8962 47.4923ZM59.1812 41.5908H54.987V39.5414C54.987 37.4894 53.3188 35.8206 51.2669 35.8206H43.9125C41.8619 35.8206 40.193 37.4894 40.193 39.5414V41.5908H37.8451V29.162C40.1379 32.0134 43.6543 33.8424 47.589 33.8424C54.4828 33.8424 60.0909 28.2343 60.0909 21.3411C60.0909 14.4479 54.4828 8.83982 47.589 8.83982C43.6543 8.83982 40.1379 10.6688 37.8451 13.5203V4.23814C37.8451 3.63398 37.3556 3.14453 36.7515 3.14453H6.00768C5.40352 3.14453 4.91406 3.63398 4.91406 4.23814V60.2081C4.91406 60.8122 5.40352 61.3017 6.00768 61.3017H30.1068C30.2874 64.3947 32.8609 66.8559 35.998 66.8559H59.1812C62.4368 66.8559 65.0838 64.2082 65.0838 60.9537V47.4923C65.084 44.2378 62.4368 41.5908 59.1812 41.5908ZM20.4461 11.4421H22.313V16.7254H20.4461V11.4421ZM19.3527 18.9124C18.7485 18.9124 18.259 18.423 18.259 17.8188V10.3485C18.259 9.74436 18.7485 9.25504 19.3527 9.25504H23.4065C24.0107 9.25504 24.5001 9.74449 24.5001 10.3485V17.819C24.5001 18.4231 24.0107 18.9126 23.4065 18.9126H19.3527V18.9124ZM20.4461 23.2617H22.313V28.545H20.4461V23.2617ZM19.3527 30.7321C18.7485 30.7321 18.259 30.2426 18.259 29.6384V22.1681C18.259 21.564 18.7485 21.0745 19.3527 21.0745H23.4065C24.0107 21.0745 24.5001 21.564 24.5001 22.1681V29.6384C24.5001 30.2426 24.0107 30.7321 23.4065 30.7321H19.3527ZM29.0076 35.0813H30.8724V40.3646H29.0076V35.0813ZM27.914 42.5517C27.3098 42.5517 26.8205 42.0622 26.8205 41.458V33.9876C26.8205 33.3834 27.31 32.894 27.914 32.894H31.9659C32.5706 32.894 33.0601 33.3834 33.0601 33.9876V41.458C33.0601 42.0622 32.5706 42.5517 31.9659 42.5517H27.914ZM13.7516 16.7254H11.8867V11.4421H13.7516V16.7254ZM14.8452 9.25504C15.4493 9.25504 15.9387 9.74449 15.9387 10.3485V17.819C15.9387 18.4231 15.4492 18.9126 14.8452 18.9126H10.7926C10.1884 18.9126 9.69908 18.4231 9.69908 17.819V10.3485C9.69908 9.74436 10.1885 9.25504 10.7926 9.25504H14.8452ZM13.7516 28.545H11.8867V23.2617H13.7516V28.545ZM14.8452 21.0746C15.4493 21.0746 15.9387 21.5641 15.9387 22.1683V29.6386C15.9387 30.2427 15.4492 30.7322 14.8452 30.7322H10.7926C10.1884 30.7322 9.69908 30.2427 9.69908 29.6386V22.1683C9.69908 21.5641 10.1885 21.0746 10.7926 21.0746H14.8452ZM20.4461 35.0813H22.313V40.3646H20.4461V35.0813ZM19.3527 42.5517C18.7485 42.5517 18.259 42.0622 18.259 41.458V33.9876C18.259 33.3834 18.7485 32.894 19.3527 32.894H23.4065C24.0107 32.894 24.5001 33.3834 24.5001 33.9876V41.458C24.5001 42.0622 24.0107 42.5517 23.4065 42.5517H19.3527ZM13.7516 40.3646H11.8867V35.0813H13.7516V40.3646ZM14.8452 32.8943C15.4493 32.8943 15.9387 33.3837 15.9387 33.9879V41.4583C15.9387 42.0625 15.4492 42.5519 14.8452 42.5519H10.7926C10.1884 42.5519 9.69908 42.0625 9.69908 41.4583V33.9879C9.69908 33.3837 10.1885 32.8943 10.7926 32.8943H14.8452ZM29.0076 23.2617H30.8724V28.545H29.0076V23.2617ZM27.914 30.7321C27.3098 30.7321 26.8205 30.2426 26.8205 29.6384V22.1681C26.8205 21.564 27.31 21.0745 27.914 21.0745H31.9659C32.5706 21.0745 33.0601 21.564 33.0601 22.1681V29.6384C33.0601 30.2426 32.5706 30.7321 31.9659 30.7321H27.914ZM29.0076 11.4421H30.8724V16.7254H29.0076V11.4421ZM27.914 18.9124C27.3098 18.9124 26.8205 18.423 26.8205 17.8188V10.3485C26.8205 9.74436 27.31 9.25504 27.914 9.25504H31.9659C32.5706 9.25504 33.0601 9.74449 33.0601 10.3485V17.819C33.0601 18.4231 32.5706 18.9126 31.9659 18.9126H27.914V18.9124Z" fill="black"/>
</svg>
