<svg width="70" height="70" viewBox="0 0 70 70" fill="none" xmlns="http://www.w3.org/2000/svg">
<g clip-path="url(#clip0_0_3692)">
<path d="M21.9002 46.3953C21.7763 46.719 21.8953 47.0851 22.1858 47.2742L25.9803 49.744C26.1321 49.8428 26.2421 49.9942 26.2892 50.1691L26.9021 52.4472H47.5335L48.1464 50.1691C48.1934 49.9942 48.3035 49.8428 48.4552 49.744L52.2497 47.2742C52.5401 47.0851 52.6591 46.719 52.5353 46.3953L50.9171 42.1669C50.8523 41.9976 50.8523 41.8106 50.9171 41.6415L52.5353 37.4131C52.6592 37.0894 52.5402 36.7233 52.2497 36.5342L48.4552 34.0644C48.3035 33.9656 48.1934 33.8142 48.1464 33.6393L46.9701 29.2673C46.8801 28.9328 46.5685 28.7064 46.2225 28.7243L41.7009 28.9566C41.52 28.9659 41.342 28.9081 41.2012 28.7942L37.6797 25.9485C37.4103 25.7307 37.0253 25.7307 36.7558 25.9485L33.2343 28.7942C33.0935 28.9081 32.9155 28.9659 32.7346 28.9566L28.2131 28.7243C27.867 28.7065 27.5556 28.9328 27.4655 29.2673L26.2892 33.6393C26.2421 33.8142 26.1321 33.9657 25.9803 34.0644L22.1858 36.5342C21.8954 36.7233 21.7765 37.0894 21.9002 37.4131L23.5184 41.6415C23.5831 41.8106 23.5831 41.9978 23.5184 42.1669L21.9002 46.3953Z" fill="#FEDF30"/>
<path d="M21.9003 46.3953C21.7764 46.719 21.8953 47.0851 22.1859 47.2742L25.9804 49.744C26.1321 49.8428 26.2422 49.9942 26.2892 50.1691L26.9021 52.4472H29.9332C29.3167 50.5248 28.9834 48.4757 28.9834 46.3484C28.9834 38.3333 33.7083 31.4227 40.524 28.2469L37.6798 25.9485C37.4103 25.7307 37.0253 25.7307 36.7557 25.9485L33.2342 28.794C33.0934 28.9079 32.9154 28.9656 32.7345 28.9565L28.213 28.7242C27.8669 28.7064 27.5555 28.9327 27.4654 29.2673L26.2891 33.6393C26.242 33.8142 26.132 33.9657 25.9802 34.0644L22.1857 36.5341C21.8953 36.7232 21.7764 37.0893 21.9001 37.4129L23.5183 41.6414C23.583 41.8105 23.583 41.9976 23.5183 42.1668L21.9003 46.3953Z" fill="#FAC600"/>
<path d="M55.8679 68.9734H18.5735C18.1834 68.9734 17.8672 68.6571 17.8672 68.2671V53.1516C17.8672 52.7615 18.1834 52.4453 18.5735 52.4453H55.8679C56.2579 52.4453 56.5742 52.7615 56.5742 53.1516V68.2671C56.5742 68.6571 56.2579 68.9734 55.8679 68.9734Z" fill="#FE7AB6"/>
<path d="M24.748 68.2671V53.1516C24.748 52.7615 25.0642 52.4453 25.4543 52.4453H18.5735C18.1834 52.4453 17.8672 52.7615 17.8672 53.1516V68.2671C17.8672 68.6571 18.1834 68.9734 18.5735 68.9734H25.4543C25.0642 68.9734 24.748 68.6571 24.748 68.2671Z" fill="#FE3D97"/>
<path d="M33.6641 52.4453H40.7778V68.9735H33.6641V52.4453Z" fill="#8AC9FE"/>
<path d="M33.6641 52.4453H37.1853V68.9735H33.6641V52.4453Z" fill="#60B7FF"/>
<path d="M26.3149 10.7909L26.5662 11.226L36.9638 5.223L35.2049 2.17649C34.3663 0.723993 32.307 0.624188 31.3318 1.9885L25.6406 9.95059C25.9007 10.1885 26.1293 10.4694 26.3149 10.7909Z" fill="#60B7FF"/>
<path d="M10.0547 20.7587L20.4523 14.7556L20.201 14.3205C20.0155 13.999 19.8866 13.6605 19.8104 13.3164L10.0696 14.264C8.40043 14.4264 7.45721 16.2597 8.29584 17.7122L10.0547 20.7587Z" fill="#60B7FF"/>
<path d="M20.4515 14.756L26.5677 11.2248L26.3165 10.7897C25.3414 9.10063 23.1816 8.52203 21.4927 9.49711C19.8039 10.4722 19.2251 12.6318 20.2002 14.3208L20.4515 14.756Z" fill="#8AC9FE"/>
<path d="M40.2692 3.31944L6.75714 22.6676C6.38418 22.8829 6.25648 23.3597 6.47181 23.7326L10.724 31.0978C10.9394 31.4708 11.4161 31.5985 11.7891 31.3832L45.3012 12.035C45.6741 11.8197 45.8018 11.3429 45.5865 10.9699L41.3343 3.60477C41.1189 3.23194 40.6421 3.10411 40.2692 3.31944Z" fill="#FE7AB6"/>
<path d="M12.0465 24.756C11.8312 24.383 11.959 23.9063 12.3319 23.691L42.7812 6.11113L41.3343 3.6048C41.1189 3.23183 40.6422 3.10414 40.2692 3.31947L6.75714 22.6676C6.38418 22.883 6.25648 23.3597 6.47181 23.7327L10.724 31.0978C10.9394 31.4708 11.4161 31.5985 11.7891 31.3832L14.8519 29.6149L12.0465 24.756Z" fill="#FE3D97"/>
<path d="M19.5391 15.2852L27.4899 10.6946L32.5218 19.4099L24.571 24.0005L19.5391 15.2852Z" fill="#8AC9FE"/>
<path d="M19.5391 15.2852L27.4899 10.6946L29.3267 13.876L21.3759 18.4665L19.5391 15.2852Z" fill="#60B7FF"/>
<path d="M43.9457 24.6564L49.8431 19.0971C49.9807 18.9674 49.9543 18.7415 49.7906 18.6469L45.759 16.3193C45.5951 16.2247 45.3863 16.3148 45.3428 16.4989L43.477 24.3858C43.4124 24.6586 43.7417 24.8488 43.9457 24.6564Z" fill="#FE7D43"/>
<path d="M55.4983 42.1739L63.2614 44.5015C63.4427 44.5559 63.6251 44.4201 63.6251 44.2309V39.5756C63.6251 39.3864 63.4427 39.2507 63.2614 39.3051L55.4983 41.6327C55.2297 41.7131 55.2297 42.0933 55.4983 42.1739Z" fill="#00F2A6"/>
<path d="M18.9315 41.6327L11.1684 39.3051C10.9871 39.2507 10.8047 39.3864 10.8047 39.5756V44.2309C10.8047 44.4201 10.9871 44.5559 11.1684 44.5015L18.9315 42.1738C19.2 42.0935 19.2 41.7132 18.9315 41.6327Z" fill="#FE7D43"/>
<path d="M53.9154 27.2702L51.739 29.4467C51.6287 29.557 51.6287 29.7358 51.739 29.8463L53.9154 32.0227C54.0258 32.1331 54.2046 32.1331 54.3151 32.0227L56.4915 29.8463C56.6018 29.736 56.6018 29.5571 56.4915 29.4467L54.3151 27.2702C54.2046 27.1599 54.0258 27.1599 53.9154 27.2702Z" fill="#C4E2FF"/>
<path d="M12.2435 49.282L10.0671 51.4584C9.95679 51.5687 9.95679 51.7476 10.0671 51.858L12.2435 54.0344C12.3539 54.1448 12.5327 54.1448 12.6432 54.0344L14.8196 51.858C14.9299 51.7477 14.9299 51.5687 14.8196 51.4584L12.6432 49.282C12.5327 49.1716 12.3539 49.1716 12.2435 49.282Z" fill="#00F2A6"/>
<path d="M33.1859 40.3719C35.0676 40.3719 36.5984 38.841 36.5984 36.9594C36.5984 35.0777 35.0676 33.5469 33.1859 33.5469C31.3043 33.5469 29.7734 35.0777 29.7734 36.9594C29.7734 38.841 31.3043 40.3719 33.1859 40.3719ZM33.1859 35.5977C33.9368 35.5977 34.5477 36.2085 34.5477 36.9594C34.5477 37.7102 33.9368 38.3211 33.1859 38.3211C32.4351 38.3211 31.8242 37.7102 31.8242 36.9594C31.8242 36.2085 32.4351 35.5977 33.1859 35.5977Z" fill="black"/>
<path d="M41.2563 43.4336C39.3746 43.4336 37.8438 44.9644 37.8438 46.8461C37.8438 48.7278 39.3746 50.2586 41.2563 50.2586C43.1379 50.2586 44.6688 48.7278 44.6688 46.8461C44.6688 44.9644 43.1379 43.4336 41.2563 43.4336ZM41.2563 48.2078C40.5054 48.2078 39.8945 47.597 39.8945 46.8461C39.8945 46.0952 40.5054 45.4844 41.2563 45.4844C42.0071 45.4844 42.618 46.0952 42.618 46.8461C42.618 47.597 42.0071 48.2078 41.2563 48.2078Z" fill="black"/>
<path d="M43.3475 33.7529C42.8948 33.4124 42.2519 33.5034 41.9116 33.9561L30.8855 48.6197C30.5452 49.0724 30.6363 49.7153 31.0888 50.0556C31.2735 50.1945 31.4898 50.2614 31.7042 50.2614C32.0155 50.2614 32.323 50.1204 32.5245 49.8524L43.5506 35.1888C43.891 34.7362 43.8 34.0934 43.3475 33.7529Z" fill="black"/>
<path d="M55.862 51.4214H48.8683L49.1048 50.5423L52.8064 48.1331C53.4973 47.6833 53.7849 46.798 53.4901 46.0284L51.9117 41.9036L53.4901 37.7791C53.7847 37.0092 53.4972 36.1242 52.8064 35.6742L49.105 33.265L47.9575 29.0002C47.7433 28.2045 46.9894 27.6588 46.1672 27.6995L41.7565 27.926L38.3214 25.1502C37.6802 24.6321 36.7496 24.6323 36.1085 25.1502L32.6734 27.926L28.2628 27.6995C27.4394 27.6599 26.6868 28.2043 26.4724 29.0004L25.3249 33.265L21.6234 35.6743C20.9327 36.124 20.6451 37.0091 20.9397 37.779L22.5181 41.9036L20.9397 46.0283C20.6451 46.7981 20.9326 47.6833 21.6234 48.1332L25.3248 50.5423L25.5613 51.4214H18.5676C17.6128 51.4214 16.8359 52.1983 16.8359 53.1531V68.2687C16.8359 69.2236 17.6128 70.0004 18.5676 70.0004H55.862C56.8169 70.0004 57.5938 69.2236 57.5938 68.2687V53.1531C57.5938 52.1981 56.8169 51.4214 55.862 51.4214ZM27.2763 49.9021C27.1634 49.4826 26.9008 49.121 26.5367 48.8841L22.9388 46.5423L24.473 42.5331C24.6284 42.1272 24.6284 41.6804 24.473 41.2746L22.9387 37.2652L26.5365 34.9234C26.9006 34.6865 27.1633 34.3249 27.2762 33.9053L28.3915 29.7598L32.6785 29.9801C33.1126 30.0033 33.5379 29.8643 33.8756 29.5913L37.2147 26.8931L40.5535 29.591C40.8915 29.8642 41.3161 30.0027 41.7505 29.9801L46.0377 29.7598L47.1532 33.9054C47.2661 34.3249 47.5287 34.6865 47.8928 34.9234L51.4907 37.2652L49.9565 41.2744C49.8012 41.6804 49.8012 42.1272 49.9565 42.5329L51.4909 46.5423L47.893 48.8841C47.5289 49.121 47.2663 49.4826 47.1533 49.9022L46.7445 51.4213H27.6851L27.2763 49.9021ZM32.6326 67.9495H18.8867V53.4722H32.6326V67.9495ZM55.5431 67.9495H41.7971V63.4378C41.7971 62.8714 41.338 62.4124 40.7717 62.4124C40.2054 62.4124 39.7463 62.8714 39.7463 63.4378V67.9495H34.6833V53.4722H39.7463V58.6526C39.7463 59.219 40.2054 59.678 40.7717 59.678C41.338 59.678 41.7971 59.219 41.7971 58.6526V53.4721H55.5431V67.9495Z" fill="black"/>
<path d="M10.9345 32.4516C11.09 32.4933 11.2479 32.5138 11.4046 32.5138C11.7174 32.5138 12.0261 32.4318 12.3042 32.2713L18.0265 28.9675C18.517 28.6843 18.685 28.0572 18.4018 27.5668C18.1187 27.0763 17.4916 26.9086 17.0012 27.1915L11.4917 30.3726L7.48512 23.4328L19.1647 16.6896L23.1713 23.6292L21.1452 24.7989C20.6548 25.0821 20.4868 25.7092 20.7699 26.1996C21.0531 26.6902 21.6802 26.8578 22.1706 26.5749L45.8164 12.9231C46.6781 12.4253 46.9746 11.3194 46.477 10.4574L42.2247 3.0921C41.727 2.23036 40.6211 1.93423 39.7589 2.43148L37.3465 3.82423L36.1004 1.66571C35.5315 0.680382 34.5133 0.0591317 33.3768 0.00403403C32.2413 -0.0514738 31.1667 0.468604 30.5051 1.39419L29.9255 2.20521C29.5961 2.66595 29.7027 3.30648 30.1633 3.63569C30.6241 3.96478 31.2646 3.85841 31.5938 3.3978L32.1735 2.58679C32.4316 2.22571 32.8328 2.03144 33.2774 2.05249C33.7208 2.07396 34.1025 2.30679 34.3244 2.69124L35.5706 4.84976L27.0328 9.77901L28.8087 7.29429C29.1381 6.83355 29.0314 6.19302 28.5708 5.8638C28.1101 5.53458 27.4697 5.64109 27.1404 6.10169L25.4003 8.53611C24.0594 7.82681 22.3939 7.79933 20.9861 8.61226C19.5783 9.42505 18.7692 10.8811 18.713 12.397L9.97559 13.2469C8.84301 13.3572 7.85617 14.027 7.33569 15.0389C6.8152 16.0506 6.84418 17.243 7.41307 18.2284L8.65926 20.3868L6.24713 21.7794C5.82946 22.0205 5.53073 22.4096 5.40604 22.8756C5.28121 23.3412 5.34534 23.8278 5.58637 24.2454L9.83873 31.6105C10.0796 32.0281 10.4689 32.3268 10.9345 32.4516ZM24.9472 22.6036L20.9407 15.6641L27.1159 12.0989L31.1224 19.0384L27.3756 21.2016L24.9472 22.6036ZM40.5715 4.33023L44.578 11.2699L32.8984 18.0132L28.8919 11.0736L40.5715 4.33023ZM22.0115 10.3882C23.0526 9.78722 24.3501 10.0213 25.1247 10.8806L20.8811 13.3306C20.5244 12.2301 20.9702 10.9894 22.0115 10.3882ZM9.18905 17.203C8.96701 16.8185 8.95621 16.3716 9.15924 15.9769C9.36227 15.582 9.73223 15.3309 10.1741 15.288L18.973 14.4321L10.4352 19.3614L9.18905 17.203Z" fill="black"/>
<path d="M45.1015 15.3642C44.7237 15.5271 44.4417 15.8636 44.3471 16.2639L42.4813 24.1508C42.3472 24.7175 42.5958 25.2937 43.1001 25.5847C43.3061 25.7035 43.5318 25.7618 43.7559 25.7618C44.0802 25.7618 44.4007 25.6398 44.6511 25.4036L50.5484 19.8446C50.8478 19.5625 50.9982 19.1501 50.9505 18.7415C50.9029 18.3329 50.6617 17.9659 50.3053 17.76L46.2739 15.4327C45.9177 15.2266 45.4794 15.2012 45.1015 15.3642ZM45.0473 22.2119L46.1129 17.7075L48.4154 19.037L45.0473 22.2119Z" fill="black"/>
<path d="M64.1253 38.5277C63.7951 38.2822 63.3628 38.2059 62.9688 38.3243L55.2056 40.6518C54.6481 40.819 54.2734 41.3224 54.2734 41.9045C54.2734 42.4867 54.6481 42.9901 55.2056 43.1573L62.9688 45.4849C63.091 45.5217 63.2169 45.5396 63.3423 45.5396C63.6212 45.5396 63.8975 45.4509 64.1251 45.2813C64.4552 45.0357 64.6522 44.6434 64.6522 44.232V39.5768C64.6523 39.1656 64.4553 38.7734 64.1253 38.5277ZM62.6015 43.234L58.1677 41.9045L62.6015 40.5752V43.234Z" fill="black"/>
<path d="M11.4648 38.3241C11.0708 38.206 10.6383 38.282 10.3083 38.5276C9.97826 38.7733 9.78125 39.1655 9.78125 39.5769V44.2322C9.78125 44.6436 9.97826 45.0358 10.3083 45.2815C10.5359 45.4509 10.8122 45.5396 11.0912 45.5396C11.2165 45.5396 11.3424 45.5217 11.4648 45.4851L19.228 43.1574C19.7855 42.9902 20.1601 42.4868 20.1601 41.9047C20.1601 41.3225 19.7855 40.8191 19.228 40.6519L11.4648 38.3241ZM11.832 43.2339V40.5752L16.2658 41.9045L11.832 43.2339Z" fill="black"/>
<path d="M51.0079 30.5693L53.1845 32.746C53.4395 33.0007 53.7742 33.1283 54.1091 33.1282C54.444 33.1282 54.7791 33.0007 55.034 32.7458L57.2102 30.5696C57.4574 30.3226 57.5936 29.994 57.5936 29.6446C57.5936 29.2953 57.4575 28.9669 57.2105 28.7195L55.0343 26.5435C54.7873 26.2962 54.4587 26.1602 54.1093 26.1602C53.7598 26.1602 53.4313 26.2962 53.1842 26.5435L51.0079 28.7198C50.761 28.9669 50.625 29.2953 50.625 29.6446C50.6249 29.994 50.7609 30.3226 51.0079 30.5693ZM54.1091 28.5188L55.235 29.6446L54.1091 30.7703L52.9833 29.6446L54.1091 28.5188Z" fill="black"/>
<path d="M13.3698 48.5542C12.8599 48.0444 12.0303 48.0445 11.5204 48.5543L9.3443 50.7306C9.09711 50.9776 8.96094 51.3061 8.96094 51.6556C8.96094 52.0052 9.09711 52.3336 9.34402 52.5805L11.52 54.7564C11.7671 55.0039 12.0956 55.1401 12.4454 55.1401C12.7948 55.1401 13.1233 55.004 13.3703 54.757L15.5464 52.5807C15.7936 52.3336 15.9298 52.0052 15.9298 51.6556C15.9298 51.3061 15.7936 50.9777 15.5467 50.7309L13.3698 48.5542ZM12.4452 52.7814L11.3195 51.6556L12.4452 50.5299L13.571 51.6556L12.4452 52.7814Z" fill="black"/>
</g>
<defs>
<clipPath id="clip0_0_3692">
<rect width="70" height="70" fill="white"/>
</clipPath>
</defs>
</svg>
