<svg width="70" height="70" viewBox="0 0 70 70" fill="none" xmlns="http://www.w3.org/2000/svg">
<path fill-rule="evenodd" clip-rule="evenodd" d="M64.2107 47.2127C64.8762 47.7918 64.9467 48.8102 64.3674 49.4756L59.5157 55.3614C58.9424 56.0569 58.6641 56.8318 58.6641 57.7331V62.5028C58.6641 63.1638 58.1233 63.7047 57.4623 63.7047H50.7203C50.0594 63.7047 49.5186 63.1638 49.5186 62.5028V57.7331C49.5186 56.8318 49.255 56.0444 48.667 55.3614L44.3828 50.3846L46.4871 47.8317L51.2789 53.1635C52.8002 54.8561 55.4095 54.88 56.9038 53.1635L61.9479 47.3692C62.5271 46.7039 63.5455 46.6333 64.2107 47.2127Z" fill="#19CFBA"/>
<path fill-rule="evenodd" clip-rule="evenodd" d="M54.0877 45.0625C55.8362 45.0625 57.2534 46.4799 57.2534 48.2283C57.2534 49.9768 55.836 51.3941 54.0877 51.3941C52.3392 51.3941 50.9219 49.9768 50.9219 48.2283C50.9219 46.4799 52.3392 45.0625 54.0877 45.0625Z" fill="#F0B16E"/>
<path fill-rule="evenodd" clip-rule="evenodd" d="M25.5182 50.1676L21.327 55.3613C20.761 56.0627 20.4755 56.8318 20.4755 57.7331V62.5027C20.4755 63.1638 19.9347 63.7046 19.2736 63.7046H12.5318C11.8707 63.7046 11.3299 63.1638 11.3299 62.5027V57.7331C11.3299 56.8318 11.0517 56.0569 10.4784 55.3613L5.62671 49.4756C5.04739 48.8102 5.11795 47.7918 5.78337 47.2126C6.44879 46.6333 7.46701 46.7039 8.04633 47.3693L13.0904 53.1636C14.5847 54.8802 17.2446 54.9003 18.7153 53.1636L23.4141 47.6149L25.5182 50.1676Z" fill="#FFE177"/>
<path d="M17.6974 50.8052C19.1294 49.8033 19.478 47.8303 18.4762 46.3984C17.4743 44.9664 15.5013 44.6177 14.0694 45.6196C12.6374 46.6214 12.2887 48.5944 13.2906 50.0264C14.2924 51.4584 16.2654 51.807 17.6974 50.8052Z" fill="#F0B16E"/>
<path fill-rule="evenodd" clip-rule="evenodd" d="M50.5891 38.042C51.6145 38.9347 51.7231 40.5039 50.8305 41.5293L43.3539 50.5994C42.4704 51.6712 42.0417 52.8653 42.0417 54.2543V61.6045C42.0417 62.6231 41.2083 63.4565 40.1896 63.4565H29.8001C28.7814 63.4565 27.948 62.6231 27.948 61.6045V54.2543C27.948 52.8653 27.5192 51.6712 26.6358 50.5994L19.1592 41.5293C18.2666 40.5039 18.3752 38.9347 19.4006 38.042C20.426 37.1494 21.9952 37.258 22.8879 38.2834L30.6608 47.2126C31.7913 48.5111 33.2732 49.1859 34.9948 49.1859C36.7165 49.1859 38.1984 48.5112 39.3288 47.2126L47.1017 38.2834C47.9945 37.258 49.5637 37.1494 50.5891 38.042Z" fill="#60B7FE"/>
<path d="M36.8484 45.4019C39.3487 44.3942 40.5588 41.5504 39.5511 39.05C38.5434 36.5497 35.6996 35.3396 33.1992 36.3473C30.6988 37.355 29.4888 40.1988 30.4965 42.6992C31.5042 45.1996 34.348 46.4096 36.8484 45.4019Z" fill="#F0B16E"/>
<path fill-rule="evenodd" clip-rule="evenodd" d="M20.6016 33.4657L30.8449 11.6562L42.4109 23.2224L20.6016 33.4657Z" fill="#FA6E85"/>
<path fill-rule="evenodd" clip-rule="evenodd" d="M25.7266 22.5578L28.2873 17.1055L36.9618 25.7799L31.5095 28.3407L25.7266 22.5578Z" fill="#FFBF31"/>
<path fill-rule="evenodd" clip-rule="evenodd" d="M20.6016 33.464L23.1623 28.0117L26.0539 30.9033L20.6016 33.464Z" fill="#FFBF31"/>
<path d="M11.0118 34.5664C12.1186 33.4597 12.1186 31.6653 11.0118 30.5586C9.9051 29.4518 8.1107 29.4518 7.00395 30.5586C5.8972 31.6653 5.8972 33.4597 7.00395 34.5664C8.1107 35.6732 9.9051 35.6732 11.0118 34.5664Z" fill="#60B7FE"/>
<path d="M57.9677 21.8407C58.3293 20.3176 57.3877 18.7897 55.8644 18.428C54.3412 18.0664 52.8132 19.008 52.4516 20.5312C52.09 22.0543 53.0317 23.5822 54.5549 23.9439C56.0781 24.3055 57.6061 23.3639 57.9677 21.8407Z" fill="#E33F65"/>
<path fill-rule="evenodd" clip-rule="evenodd" d="M59.3567 33.1394V30.8887C59.3567 30.4097 59.7447 30.021 60.2245 30.021C60.7027 30.021 61.093 30.4098 61.093 30.8887V33.1394H63.3421C63.8219 33.1394 64.2098 33.5273 64.2098 34.0079C64.2098 34.4862 63.8219 34.8757 63.3421 34.8757H61.093V37.1256C61.093 37.6047 60.7027 37.9933 60.2245 37.9933C59.7447 37.9933 59.3567 37.6047 59.3567 37.1256V34.8757H57.1068C56.627 34.8757 56.2391 34.4862 56.2391 34.0079C56.2391 33.5273 56.627 33.1394 57.1068 33.1394H59.3567ZM13.4373 18.7006C13.4373 18.2208 13.8259 17.8329 14.305 17.8329H16.5557V15.5838C16.5557 15.1032 16.9436 14.7152 17.4242 14.7152C17.9025 14.7152 18.2919 15.1032 18.2919 15.5838V17.8329H20.541C21.0201 17.8329 21.4096 18.2208 21.4096 18.7006C21.4096 19.1797 21.0201 19.5692 20.541 19.5692H18.2919V21.8183C18.2919 22.2981 17.9025 22.6868 17.4242 22.6868C16.9436 22.6868 16.5557 22.2982 16.5557 21.8183V19.5692H14.305C13.8259 19.5692 13.4373 19.1797 13.4373 18.7006ZM55.1812 19.2032C56.2658 19.2032 57.1477 20.0859 57.1477 21.1697C57.1477 22.2534 56.2658 23.1368 55.1812 23.1368C54.0975 23.1368 53.2156 22.2534 53.2156 21.1697C53.2156 20.0859 54.0975 19.2032 55.1812 19.2032ZM55.1812 24.8732C57.2238 24.8732 58.884 23.2116 58.884 21.1697C58.884 19.1286 57.2238 17.4669 55.1812 17.4669C53.1402 17.4669 51.4792 19.1287 51.4792 21.1697C51.4794 23.2116 53.1403 24.8732 55.1812 24.8732ZM9.01442 30.5974C10.099 30.5974 10.98 31.4793 10.98 32.5638C10.98 33.6476 10.0989 34.5294 9.01442 34.5294C7.92984 34.5294 7.04798 33.6476 7.04798 32.5638C7.04798 31.4793 7.92984 30.5974 9.01442 30.5974ZM9.01442 36.2657C11.0562 36.2657 12.7164 34.6056 12.7164 32.5638C12.7164 30.5221 11.0563 28.8611 9.01442 28.8611C6.97266 28.8611 5.3117 30.5221 5.3117 32.5638C5.3117 34.6056 6.97266 36.2657 9.01442 36.2657ZM36.7084 12.0491C36.3692 11.7107 36.3692 11.1609 36.7084 10.8224L39.1209 8.41076C39.5347 7.99608 39.5347 7.32156 39.1209 6.90772C38.7808 6.56934 38.7808 6.01872 39.1209 5.6802C39.4592 5.34098 40.0083 5.34098 40.3482 5.6802C41.4383 6.76912 41.44 8.54516 40.3482 9.63744L37.9359 12.0491C37.5963 12.3886 37.0491 12.3883 36.7084 12.0491ZM48.3907 13.7233L47.1625 14.9507C46.7486 14.5353 46.0748 14.5369 45.661 14.9507L43.2492 17.3617C42.9094 17.7007 42.3599 17.701 42.021 17.3617C41.6817 17.0231 41.6817 16.4735 42.021 16.135L44.4326 13.7233C45.5235 12.6318 47.2991 12.6318 48.3907 13.7233ZM41.3614 11.4821C41.0214 11.8205 41.0214 12.3702 41.3614 12.7103C41.6999 13.0488 42.2501 13.0483 42.5881 12.7103L46.5948 8.70364C46.9348 8.36358 46.9348 7.81394 46.5948 7.47542C46.2564 7.1362 45.7066 7.1362 45.3674 7.47542L41.3614 11.4821ZM37.1466 24.7366L29.3336 16.925L31.1092 13.1429L40.9271 22.9608L37.1466 24.7366ZM23.4273 29.4995L24.5707 30.6429L22.4142 31.6559L23.4273 29.4995ZM30.0231 28.082L25.9882 24.0471L24.2125 27.8292L26.241 29.8585L30.0231 28.082ZM26.7727 22.3767L31.6934 27.2975L35.4762 25.521L28.549 18.5953L26.7727 22.3767ZM29.8047 11.8387L19.821 33.0947C19.4752 33.8294 20.2416 34.5917 20.9755 34.2507L42.2331 24.2655L44.0314 26.0646C44.3699 26.404 44.9206 26.4043 45.2589 26.0646C45.5989 25.7261 45.5989 25.1772 45.2589 24.8372L29.2331 8.8113C28.8947 8.47278 28.3441 8.47278 28.0057 8.8113C27.6656 9.14968 27.6656 9.69946 28.0057 10.0387L29.8047 11.8387ZM39.0077 40.8677C39.0077 43.0791 37.2086 44.8782 34.9972 44.8782C32.7866 44.8782 30.9866 43.0791 30.9866 40.8677C30.9866 38.6554 32.7866 36.8571 34.9972 36.8571C37.2086 36.8571 39.0077 38.6554 39.0077 40.8677ZM29.2503 40.8677C29.2503 44.0364 31.8285 46.6145 34.9972 46.6145C38.1659 46.6145 40.744 44.0364 40.744 40.8677C40.744 37.6989 38.1658 35.1215 34.9972 35.1215C31.8285 35.1215 29.2503 37.6989 29.2503 40.8677ZM15.904 45.9298C17.1707 45.9298 18.2018 46.96 18.2018 48.2276C18.2018 49.495 17.1707 50.5254 15.904 50.5254C14.6364 50.5254 13.6053 49.495 13.6053 48.2276C13.6053 46.96 14.6365 45.9298 15.904 45.9298ZM15.904 52.2617C18.1272 52.2617 19.9374 50.4515 19.9374 48.2276C19.9374 46.0029 18.1272 44.1935 15.904 44.1935C13.6784 44.1935 11.869 46.0029 11.869 48.2276C11.869 50.4516 13.6784 52.2617 15.904 52.2617ZM54.0913 50.5254C52.8238 50.5254 51.7935 49.495 51.7935 48.2276C51.7935 46.96 52.8239 45.9298 54.0913 45.9298C55.3588 45.9298 56.3892 46.96 56.3892 48.2276C56.3892 49.495 55.3588 50.5254 54.0913 50.5254ZM54.0913 44.1935C51.8673 44.1935 50.0572 46.0029 50.0572 48.2276C50.0572 50.4516 51.8674 52.2617 54.0913 52.2617C56.3161 52.2617 58.1254 50.4515 58.1254 48.2276C58.1254 46.0027 56.3161 44.1935 54.0913 44.1935ZM63.713 48.906C63.8409 48.7583 63.903 48.5684 63.8904 48.3712C63.8458 47.7135 63.0263 47.4528 62.6017 47.9402L57.5584 53.7334C55.7188 55.8471 52.4638 55.847 50.6241 53.7334L46.1423 48.5864L45.1747 49.7605L49.3361 54.8084C50.0334 55.6542 50.3868 56.6382 50.3868 57.7329V62.5021C50.3868 62.6836 50.5391 62.8359 50.7206 62.8359H57.4617C57.6423 62.8359 57.7963 62.6836 57.7963 62.5021V57.7329C57.7963 56.6381 58.1488 55.6542 58.8455 54.8084L63.6972 48.9234C63.7019 48.9171 63.7082 48.9108 63.713 48.906ZM42.6854 50.0479L50.1624 40.9791C50.4509 40.6362 50.5965 40.2542 50.5652 39.7972C50.4665 38.3582 48.6806 37.7948 47.7593 38.8549L39.9863 47.7839C38.6929 49.2705 36.9677 50.0559 34.9972 50.0559C33.0268 50.0559 31.3016 49.2706 30.009 47.7839L22.2352 38.8549C21.9564 38.5337 21.5661 38.3405 21.1365 38.3107C19.7443 38.2197 18.8637 39.8286 19.8321 40.9792L27.3091 50.048C28.3245 51.2817 28.8192 52.6576 28.8192 54.2557V61.6063C28.8192 62.1489 29.2605 62.5903 29.8025 62.5903H40.1921C40.7339 62.5903 41.1754 62.1491 41.1754 61.6063V54.2557C41.1752 52.6575 41.6708 51.2817 42.6854 50.0479ZM20.6582 54.8084L24.8196 49.7605L23.852 48.5849L19.3711 53.7334C17.5316 55.8472 14.2751 55.8468 12.436 53.7334L7.3928 47.9386C7.264 47.7926 7.08494 47.7047 6.88782 47.6904C6.26412 47.647 5.83096 48.3722 6.298 48.9234L11.1489 54.8084C11.8455 55.6542 12.198 56.6382 12.198 57.7329V62.5021C12.198 62.6836 12.352 62.8359 12.5326 62.8359H19.2738C19.4552 62.8359 19.6075 62.6836 19.6075 62.5021V57.7329C19.6075 56.6382 19.9609 55.6543 20.6582 54.8084ZM65.6212 48.2527C65.4691 46.0457 62.7239 45.1554 61.2934 46.799L56.2493 52.5939C55.0995 53.9127 53.0822 53.9126 51.9332 52.5939L47.2614 47.2272L51.4959 42.092C53.4179 39.8149 51.693 36.3745 48.7379 36.5799C47.8458 36.6404 47.0337 37.0448 46.4494 37.7154L38.6765 46.6445C37.7098 47.755 36.4705 48.3196 34.9973 48.3196C33.5241 48.3196 32.2856 47.755 31.3181 46.6445L23.5452 37.7154C21.6078 35.4908 17.903 36.7014 17.6969 39.6771C17.6358 40.5653 17.92 41.4221 18.4996 42.092L22.7332 47.2272L18.0614 52.5939C16.9121 53.9129 14.895 53.9124 13.7461 52.5939L8.7011 46.799C7.27114 45.1561 4.52602 46.0444 4.37328 48.2527C4.32778 48.9076 4.5382 49.5405 4.96464 50.0353L9.81004 55.9142C10.2554 56.4544 10.4619 57.0325 10.4619 57.7329V62.5021C10.4619 63.6448 11.3909 64.5722 12.5328 64.5722H19.2739C20.4166 64.5722 21.3439 63.6448 21.3439 62.5021V57.7329C21.3439 57.0323 21.552 56.4544 21.9973 55.9142L25.945 51.1245C26.7204 52.0549 27.083 53.0439 27.083 54.2554V61.606C27.083 63.106 28.3033 64.3263 29.8025 64.3263H40.1921C41.6913 64.3263 42.9116 63.106 42.9116 61.606V54.2554C42.9116 53.0439 43.2749 52.0548 44.0503 51.1245L47.9973 55.9142C48.4426 56.4544 48.6507 57.0325 48.6507 57.7329V62.5021C48.6507 63.6448 49.5782 64.5722 50.7207 64.5722H57.4618C58.6037 64.5722 59.5327 63.6448 59.5327 62.5021V57.7329C59.5327 57.0323 59.7392 56.4544 60.1853 55.9142L65.0298 50.0353C65.4563 49.5407 65.6675 48.9077 65.6212 48.2527Z" fill="#1E2F3F"/>
</svg>
