<svg width="70" height="70" viewBox="0 0 70 70" fill="none" xmlns="http://www.w3.org/2000/svg">
<g clip-path="url(#clip0_0_3744)">
<path d="M38.002 17.6953L36.1777 17.8093L28.043 19.7596L19.4297 31.9924V44.7543L28.0771 55.2816L36.1436 57.6571L38.002 57.714C47.8628 56.3806 55.4646 47.9309 55.4646 37.7046C55.4646 27.4784 47.8628 19.0287 38.002 17.6953Z" fill="#DBEDFF"/>
<path d="M5.28688 37.9644H9.06127C9.0975 37.9644 9.13305 37.9665 9.16832 37.9697V24.0664H5.17969V37.9697C5.2151 37.9665 5.25078 37.9644 5.28688 37.9644Z" fill="#8BCAFF"/>
<path d="M62.9922 35.1406V40.6322C63.0276 40.6285 63.0633 40.6263 63.0994 40.6263H66.8738C66.91 40.6263 66.9455 40.6285 66.9808 40.6322V35.1406H62.9922Z" fill="#8BCAFF"/>
<path d="M20.5406 37.7056C20.5406 27.4793 28.1424 19.0297 38.0033 17.6963C37.1099 17.5754 36.1986 17.5117 35.272 17.5117C24.1193 17.5117 15.0781 26.5528 15.0781 37.7056C15.0781 48.8583 24.1192 57.8995 35.272 57.8995C36.1984 57.8995 37.1099 57.8358 38.0033 57.715C28.1424 56.3815 20.5406 47.9319 20.5406 37.7056Z" fill="#B5DCFF"/>
<path d="M11.1592 59.2565L10.2065 38.7636C10.1741 38.1559 9.67194 37.6797 9.06354 37.6797H5.28901C4.68047 37.6797 4.1783 38.1559 4.14604 38.7635L3.19324 59.2564C3.07184 61.5393 4.8902 63.4568 7.17627 63.4568C9.46235 63.4569 11.2807 61.5393 11.1592 59.2565Z" fill="#FFAA5B"/>
<path d="M6.20693 19.7617L5.92188 20.0189V21.915L6.68203 24.0684H10.2695C11.9584 24.0684 13.3274 22.6994 13.3274 21.0105V19.7617H6.20693Z" fill="#DBEDFF"/>
<path d="M6.2059 20.9595V19.7617H1.02344V21.0105C1.02344 22.6994 2.39254 24.0684 4.08129 24.0684H7.38455C6.6516 23.2404 6.2059 22.1522 6.2059 20.9595Z" fill="#B5DCFF"/>
<path d="M68.9637 59.2591L68.0111 41.3456C67.9787 40.7379 67.4765 40.2617 66.8681 40.2617H63.0937C62.4852 40.2617 61.983 40.7379 61.9507 41.3455L60.9979 59.2589C60.8765 61.5419 62.6949 63.4593 64.981 63.4593C67.2668 63.4595 69.0851 61.5419 68.9637 59.2591Z" fill="#FFAA5B"/>
<path d="M6.55147 59.2565L7.50426 38.7636C7.53653 38.1559 8.03869 37.6797 8.64723 37.6797H5.28901C4.68047 37.6797 4.1783 38.1559 4.14604 38.7636L3.19324 59.2565C3.07184 61.5394 4.8902 63.4569 7.17627 63.4569C7.77742 63.4569 8.34576 63.3232 8.85545 63.0861C7.42688 62.422 6.46205 60.939 6.55147 59.2565Z" fill="#FF9838"/>
<path d="M64.3563 59.2589L65.3091 41.3455C65.3414 40.7378 65.8435 40.2617 66.4521 40.2617H63.0937C62.4852 40.2617 61.983 40.7379 61.9507 41.3455L60.9979 59.2589C60.8765 61.5419 62.6949 63.4593 64.981 63.4593C65.5821 63.4593 66.1505 63.3256 66.6601 63.0886C65.2317 62.4244 64.2669 60.9414 64.3563 59.2589Z" fill="#FF9838"/>
<path d="M68.1699 7.51953L64.524 10.1892L62.0859 15.7263V32.3377L64.0342 33.3915L64.9833 35.0321L65.8185 35.4443H67.4377C68.1341 35.4443 68.6986 34.8798 68.6986 34.1835V8.07434C68.6986 7.87664 68.662 7.69002 68.5961 7.51953H68.1699Z" fill="#DBEDFF"/>
<path d="M65.1178 34.5916C64.7742 33.553 64.0494 32.6884 63.1089 32.1634C62.7088 31.94 62.459 31.5199 62.459 31.0618V18.0505C62.459 13.6369 64.8536 9.63861 68.6003 7.5181C68.3138 6.77818 67.4733 6.34273 66.6632 6.62656C61.8108 8.32761 58.5625 12.9084 58.5625 18.0504V31.0616C58.5625 31.5199 58.8123 31.9399 59.2125 32.1633C60.1529 32.6883 60.8777 33.553 61.2213 34.5914C61.3904 35.1025 61.8744 35.4428 62.4128 35.4428H66.3093C65.771 35.4428 65.2869 35.1026 65.1178 34.5916Z" fill="#B5DCFF"/>
<path d="M37.9999 23.0781H34.9795L28.8955 27.6295L24.8281 35.1377V42.5433L29.196 49.4427L35.2688 52.3869L38 52.3294C44.9116 51.0468 50.1456 44.9869 50.1456 37.7037C50.1454 30.4206 44.9114 24.3608 37.9999 23.0781Z" fill="#B5DCFF"/>
<path d="M25.8609 37.7048C25.8609 30.4216 31.0949 24.3617 38.0064 23.0791C37.1211 22.9148 36.2083 22.8281 35.2752 22.8281C27.059 22.8281 20.3984 29.4887 20.3984 37.7049C20.3984 45.921 27.059 52.5815 35.2752 52.5815C36.2083 52.5815 37.1209 52.4947 38.0064 52.3305C31.0949 51.0477 25.8609 44.9879 25.8609 37.7048Z" fill="#8BCAFF"/>
<path d="M14.0547 37.7037C14.0547 49.4041 23.5736 58.923 35.274 58.923C46.9744 58.923 56.4933 49.4041 56.4933 37.7037C56.4933 26.0033 46.9744 16.4844 35.274 16.4844C23.5736 16.4844 14.0547 26.0033 14.0547 37.7037ZM35.274 18.5352C45.8436 18.5352 54.4425 27.1342 54.4425 37.7037C54.4425 48.2731 45.8436 56.872 35.274 56.872C24.7044 56.872 16.1055 48.2731 16.1055 37.7035C16.1055 27.1339 24.7044 18.5352 35.274 18.5352Z" fill="black"/>
<path d="M12.1841 59.2061L11.2312 38.7096C11.1917 37.9715 10.7859 37.3374 10.1968 36.9758V25.0909H10.2706C12.5222 25.0909 14.3538 23.2592 14.3538 21.0077C14.3538 19.5955 14.3538 9.45209 14.3538 8.04102C14.3538 7.47473 13.8949 7.01562 13.3284 7.01562C12.762 7.01562 12.303 7.47473 12.303 8.04102V18.7335H10.1968V8.04102C10.1968 7.47473 9.73779 7.01562 9.17137 7.01562C8.60494 7.01562 8.14598 7.47473 8.14598 8.04102V18.7335H6.20799V8.04102C6.20799 7.47473 5.74902 7.01562 5.1826 7.01562C4.61617 7.01562 4.15721 7.47473 4.15721 8.04102V18.7335H2.05078V8.04102C2.05078 7.47473 1.59182 7.01562 1.02539 7.01562C0.458965 7.01562 0 7.47473 0 8.04102V21.0077C0 23.2592 1.83162 25.0909 4.08324 25.0909H4.15721V36.9762C3.56781 37.3382 3.16203 37.9741 3.12252 38.7167L2.17 59.2028C2.01715 62.0773 4.30076 64.4832 7.17705 64.4832C10.0529 64.483 12.3349 62.0783 12.1841 59.2061ZM2.05078 21.0077V20.7843H12.303V21.0077C12.303 22.1284 11.3913 23.0402 10.2706 23.0402C8.8833 23.0402 5.39164 23.0402 4.08324 23.0402C2.96256 23.0402 2.05078 22.1284 2.05078 21.0077ZM8.14598 25.0909V36.655H6.20799V25.0909H8.14598ZM7.17705 62.4322C5.48365 62.4322 4.12713 61.0198 4.21818 59.3048L5.1707 38.8189C5.17398 38.7556 5.22635 38.7059 5.28965 38.7059H5.2902L9.06869 38.7068C9.12994 38.7092 9.17998 38.7571 9.18285 38.812L10.1355 59.3049C10.1356 59.3073 10.1358 59.3096 10.1359 59.3118C10.2264 61.0106 8.87687 62.4322 7.17705 62.4322Z" fill="black"/>
<path d="M32.4285 53.354C32.9856 53.4547 33.5192 53.0848 33.62 52.5276C33.7209 51.9703 33.3508 51.4368 32.7935 51.3359C26.2066 50.1442 21.4258 44.4122 21.4258 37.7069C21.4258 30.0692 27.6394 23.8555 35.277 23.8555C42.9147 23.8555 49.1283 30.0692 49.1283 37.7069C49.1283 44.5574 44.0222 50.4518 37.2514 51.4176C36.6906 51.4975 36.3011 52.0168 36.381 52.5775C36.4539 53.0891 36.8926 53.4582 37.3948 53.4582C37.4431 53.4582 37.4919 53.4548 37.5408 53.4478C41.2944 52.9124 44.743 51.0382 47.2513 48.1704C49.784 45.2744 51.1791 41.5585 51.1791 37.7069C51.1791 28.9384 44.0454 21.8047 35.277 21.8047C26.5087 21.8047 19.375 28.9384 19.375 37.7069C19.375 45.4049 24.8648 51.9855 32.4285 53.354Z" fill="black"/>
<path d="M69.6618 52.9087C69.6316 52.3431 69.1462 51.9087 68.5833 51.9392C68.0179 51.9693 67.5838 52.452 67.6139 53.0176L67.9487 59.3131C68.0391 61.012 66.6895 62.4337 64.9897 62.4337C63.2884 62.4337 61.9404 61.0108 62.0304 59.3131L62.9833 41.3997C62.9866 41.3364 63.039 41.2868 63.1024 41.2868L66.8809 41.2876C66.9423 41.2898 66.9926 41.3379 66.9959 41.3997L67.3592 48.2324C67.3894 48.7981 67.8727 49.2335 68.4376 49.2018C69.0031 49.1717 69.4371 48.689 69.4071 48.1234L69.0438 41.2905C69.0043 40.5523 68.5985 39.9182 68.0094 39.5566V36.3947C68.9969 36.142 69.7303 35.2474 69.7303 34.1822V8.07313C69.7303 7.24544 69.3272 6.46546 68.652 5.98667C67.9767 5.50788 67.1072 5.38538 66.326 5.65923C61.0704 7.50165 57.5391 12.4814 57.5391 18.0507V31.062C57.5391 31.889 57.9895 32.6542 58.7146 33.0589C59.4436 33.4659 59.9887 34.1246 60.2498 34.9139C60.5102 35.7007 61.1737 36.2673 61.9697 36.4235V39.5567C61.3804 39.9184 60.9747 40.5524 60.9354 41.2907L59.9825 59.2042C59.8295 62.079 62.1134 64.4844 64.9896 64.4844C67.8682 64.4844 70.1492 62.0762 69.9963 59.204L69.6618 52.9087ZM64.0208 36.4685H65.9587V39.236H64.0208V36.4685ZM59.7144 31.2684C59.6377 31.2256 59.5901 31.1465 59.5901 31.0621V18.0509C59.5901 13.3514 62.5698 9.14938 67.0046 7.59476C67.2196 7.5197 67.386 7.6031 67.4658 7.6597C67.5456 7.7163 67.6796 7.84509 67.6796 8.07313V34.1823C67.6796 34.3122 67.5741 34.4177 67.4441 34.4177H66.9841H62.9954H62.4151C62.3155 34.4177 62.2258 34.3569 62.1969 34.2698C61.7745 32.992 60.8926 31.9262 59.7144 31.2684Z" fill="black"/>
</g>
<defs>
<clipPath id="clip0_0_3744">
<rect width="70" height="70" fill="white"/>
</clipPath>
</defs>
</svg>
