<svg width="70" height="70" viewBox="0 0 70 70" fill="none" xmlns="http://www.w3.org/2000/svg">
<path d="M13.1772 43.2027C18.8367 43.2027 23.4246 40.9082 23.4246 38.0779C23.4246 35.2476 18.8367 32.9531 13.1772 32.9531C7.51764 32.9531 2.92969 35.2476 2.92969 38.0779C2.92969 40.9082 7.51764 43.2027 13.1772 43.2027Z" fill="#66D4F1"/>
<path fill-rule="evenodd" clip-rule="evenodd" d="M12.8422 35.105C7.86114 26.3359 -2.85569 13.5936 5.287 5.45086C9.63808 1.09978 16.7581 1.09965 21.1092 5.45086C29.3228 13.6645 18.0735 27.2337 13.5549 35.1067C13.4795 35.2379 13.3494 35.3131 13.1981 35.3126C13.0467 35.3123 12.917 35.2365 12.8422 35.105Z" fill="#F76C82"/>
<path d="M13.1785 16.818C15.4604 16.818 17.3102 14.9682 17.3102 12.6863C17.3102 10.4045 15.4604 8.55469 13.1785 8.55469C10.8967 8.55469 9.04688 10.4045 9.04688 12.6863C9.04688 14.9682 10.8967 16.818 13.1785 16.818Z" fill="#F4F6F8"/>
<path fill-rule="evenodd" clip-rule="evenodd" d="M44.3879 47.4444H41.4453V36.7231C41.4453 36.4216 41.6911 36.1758 41.9926 36.1758H43.8408C44.1422 36.1758 44.388 36.4216 44.388 36.7231V47.4444H44.3879Z" fill="#E4E8EB"/>
<path fill-rule="evenodd" clip-rule="evenodd" d="M62.7648 47.3192V66.2817C62.7648 67.1262 62.0803 67.8108 61.2358 67.8108H41.4978C40.6533 67.8108 39.9688 67.1262 39.9688 66.2817C39.9688 66.2817 39.9688 51.4867 39.9688 47.3192L51.3667 38.0781L62.7648 47.3192Z" fill="#E4E8EB"/>
<path fill-rule="evenodd" clip-rule="evenodd" d="M43.8672 53.1456V67.8126H51.7363V53.1456C51.7363 52.5899 51.2831 52.1367 50.7275 52.1367H44.876C44.3204 52.1367 43.8672 52.5899 43.8672 53.1456Z" fill="#D5A889"/>
<path fill-rule="evenodd" clip-rule="evenodd" d="M67.4242 47.4929L52.519 35.4083C51.8306 34.8486 50.8571 34.8744 50.2014 35.4236L35.3152 47.4929C35.0226 47.7301 34.9775 48.1623 35.2147 48.4549L36.6478 50.2225C36.885 50.5151 37.3171 50.5603 37.6097 50.323L51.3696 39.167L65.1295 50.323C65.4221 50.5602 65.8543 50.5151 66.0915 50.2224L67.5247 48.4547C67.7621 48.1623 67.7168 47.7301 67.4242 47.4929Z" fill="#F76C82"/>
<path fill-rule="evenodd" clip-rule="evenodd" d="M66.4702 48.0638L51.7751 36.1512C51.4522 35.8894 50.9902 35.892 50.6744 36.157C50.6699 36.1603 50.6661 36.1635 50.6621 36.1668L35.9878 48.0638L37.0776 49.4077L50.6249 38.4234C50.9768 38.1384 51.4799 38.1384 51.8312 38.4234L65.3766 49.4077L66.4702 48.0638ZM61.671 48.8634V66.2829C61.671 66.5987 61.4137 66.8541 61.0984 66.8541H52.5555V53.1453C52.5555 52.0613 51.6735 51.1793 50.5895 51.1793H44.7378C43.6538 51.1793 42.7723 52.0613 42.7723 53.1453V66.8541H41.3596C41.0437 66.8541 40.787 66.5987 40.787 66.2829V48.8634L51.2283 40.399L61.671 48.8634ZM50.6416 53.1455C50.6416 53.1184 50.6171 53.0934 50.5895 53.0934H44.7378C44.7107 53.0934 44.6864 53.1184 44.6864 53.1455V66.8542H50.6417V53.1455H50.6416ZM42.261 40.515V37.1329H43.289V39.6812L42.261 40.515ZM68.5546 48.5257L66.2643 51.3557C66.1035 51.5532 65.8719 51.6786 65.6209 51.7044C65.5824 51.7089 65.5501 51.7102 65.518 51.7102C65.2992 51.7102 65.0869 51.6362 64.9132 51.4966L63.5816 50.4152V66.283C63.5816 67.6539 62.4686 68.7682 61.0984 68.7682H41.3596C39.9887 68.7682 38.8731 67.6539 38.8731 66.283V50.4152L37.5394 51.4966C37.3425 51.6569 37.0898 51.7321 36.837 51.7044C36.5854 51.6787 36.3531 51.5532 36.193 51.3557L33.8989 48.5257C33.5656 48.116 33.63 47.5125 34.0398 47.1792L40.3471 42.0673V36.1763C40.3471 35.6475 40.7743 35.219 41.3037 35.219H44.2463C44.7751 35.219 45.2029 35.6475 45.2029 36.1763V38.1295L49.4521 34.6838C50.4692 33.8371 51.9527 33.8287 52.9809 34.6657L68.4195 47.1792C68.8248 47.5125 68.8892 48.116 68.5546 48.5257ZM13.0401 15.8612C14.79 15.8612 16.2143 14.4375 16.2143 12.687C16.2143 10.9364 14.79 9.51207 13.0401 9.51207C11.2896 9.51207 9.86522 10.9364 9.86522 12.687C9.86522 14.4374 11.2897 15.8612 13.0401 15.8612ZM13.0401 17.7758C10.2345 17.7758 7.9513 15.4926 7.9513 12.687C7.9513 9.8808 10.2345 7.59814 13.0401 7.59814C15.845 7.59814 18.1282 9.88066 18.1282 12.687C18.1282 15.4926 15.845 17.7758 13.0401 17.7758ZM26.6814 15.037C27.252 14.8009 27.8137 14.5945 28.4003 14.4028C29.1382 14.1602 29.2971 13.1901 28.6738 12.7243C28.421 12.5383 28.105 12.4869 27.8066 12.5835C27.1684 12.7918 26.556 13.0177 25.9364 13.2744C25.2544 13.5659 25.1451 14.48 25.7383 14.9246C26.0129 15.1257 26.3675 15.1695 26.6814 15.037ZM41.04 14.2335C41.6247 14.4033 42.2076 14.5971 42.7763 14.817C43.1848 14.9733 43.6428 14.8344 43.8989 14.4787C44.2598 13.9653 44.0463 13.2576 43.4614 13.0298C42.8419 12.7899 42.2076 12.5807 41.5707 12.3949C41.2284 12.2972 40.8676 12.393 40.6186 12.6465C40.1155 13.1687 40.3452 14.0295 41.04 14.2335ZM21.1462 52.3921C21.2665 52.019 21.1583 51.6253 20.863 51.3667C20.3953 50.9608 19.9675 50.5478 19.53 50.1103C19.0514 49.6226 18.2382 49.7745 17.9642 50.4018C17.8143 50.7627 17.8876 51.1648 18.1598 51.4466C18.6359 51.9233 19.1024 52.3718 19.6105 52.815C20.1284 53.2607 20.9286 53.0406 21.1462 52.3921ZM35.6244 13.3804C36.2208 13.392 36.6788 12.8734 36.5939 12.2829C36.5237 11.8217 36.1359 11.4788 35.6694 11.4671C35.0036 11.4491 34.3447 11.4562 33.6789 11.4929C32.8928 11.5423 32.4964 12.4578 33.0008 13.0639C33.1976 13.2962 33.4845 13.4209 33.7895 13.4035C34.4065 13.3727 35.0081 13.3644 35.6244 13.3804ZM13.0401 42.2449C18.5154 42.2449 22.3299 40.0492 22.3299 38.0779C22.3299 36.2111 19.2322 34.4831 15.1754 34.0289C14.7012 34.799 14.2663 35.5298 13.8984 36.2013C13.7305 36.5083 13.4088 36.6993 13.0588 36.6993C12.7088 36.6993 12.3878 36.5081 12.2199 36.2013C11.8385 35.5039 11.4112 34.7751 10.9545 34.0225C6.43249 34.5075 3.7498 36.4234 3.7498 38.0779C3.7498 40.0492 7.56603 42.2449 13.0401 42.2449ZM10.6251 29.8672C8.10579 25.8669 5.2481 21.3321 3.91837 17.0905C2.44249 12.3871 3.04857 8.90354 5.82519 6.12746C7.74868 4.20328 10.3176 3.14426 13.0588 3.14426C15.8 3.14426 18.3689 4.20314 20.2925 6.12746C23.0665 8.90025 23.6436 12.6167 22.059 17.4893C20.6302 21.8833 17.757 26.3911 15.2204 30.3682C14.4509 31.5764 13.7098 32.7383 13.0632 33.8164C12.3234 32.562 11.4923 31.2419 10.6251 29.8672ZM16.2266 45.7298C16.3842 46.0078 16.3964 46.3345 16.2581 46.6227C15.919 47.3163 14.9527 47.3472 14.5667 46.6832C14.236 46.1061 13.9297 45.5154 13.65 44.9127C13.5349 44.6637 13.5349 44.3916 13.632 44.151C13.4351 44.1561 13.2382 44.1593 13.0401 44.1593C10.156 44.1593 7.4315 43.5906 5.36581 42.5581C3.08972 41.4194 1.83587 39.8284 1.83587 38.0779C1.83587 36.4909 2.89161 35.0067 4.80677 33.8989C6.16685 33.1121 7.92245 32.5388 9.85565 32.2377C9.57839 31.7945 9.29333 31.3441 9.00649 30.8874C6.42415 26.788 3.49577 22.1419 2.0914 17.6637C0.403331 12.2797 1.18112 8.06381 4.47167 4.77381C6.7561 2.48883 9.80616 1.23047 13.0588 1.23047C16.3115 1.23047 19.3616 2.48883 21.646 4.77395C23.4197 6.54637 24.4671 8.67508 24.761 11.1024C25.0138 13.1958 24.727 15.479 23.8803 18.0812C22.3761 22.7068 19.4316 27.3239 16.8351 31.3969C16.6518 31.6832 16.473 31.9657 16.2954 32.2455C21.0457 32.9872 24.2438 35.2788 24.2438 38.0779C24.2438 39.8285 22.99 41.4195 20.7139 42.5581C19.2104 43.3102 17.3556 43.8145 15.3466 44.0345C15.3601 44.0564 15.3723 44.0783 15.3846 44.1014C15.6417 44.6567 15.9235 45.1984 16.2266 45.7298ZM24.1183 50.2119L24.8671 54.5196C24.9579 55.0406 24.6091 55.5354 24.0881 55.6268L19.7797 56.375C19.7257 56.3847 19.6696 56.3898 19.6144 56.3898C19.1583 56.3898 18.755 56.0617 18.6739 55.5965C18.5826 55.0761 18.9312 54.58 19.4524 54.4894L22.8163 53.9046L22.2328 50.54C22.1415 50.019 22.4901 49.5242 23.0106 49.4335C23.5316 49.3421 24.0282 49.6908 24.1183 50.2119ZM28.9633 55.7651C28.3786 55.5959 27.7958 55.4029 27.227 55.183C26.8185 55.0253 26.3591 55.1649 26.1051 55.5207C25.7436 56.0347 25.9572 56.741 26.5426 56.9695C27.1615 57.2087 27.7945 57.4179 28.4333 57.6038C28.7749 57.703 29.1359 57.607 29.3848 57.3523C29.8865 56.8306 29.6581 55.9703 28.9633 55.7651ZM36.2137 56.595C35.5967 56.6264 34.9958 56.6349 34.3789 56.6181C33.7818 56.6072 33.3232 57.1257 33.4081 57.7162C33.4782 58.1768 33.8662 58.5197 34.3326 58.532C34.9997 58.5501 35.6584 58.5437 36.3243 58.5063C37.1092 58.4574 37.5074 57.5414 37.001 56.9353C36.8041 56.7031 36.5185 56.579 36.2137 56.595ZM48.8577 17.607C48.7367 17.9796 48.8448 18.3739 49.1388 18.6319C49.6079 19.0385 50.0343 19.4508 50.4737 19.8883C50.9517 20.3767 51.7656 20.2248 52.0371 19.5975C52.1888 19.2359 52.1156 18.8345 51.8435 18.5522C51.3662 18.0755 50.9009 17.6277 50.3915 17.1845C49.8728 16.7393 49.0745 16.9587 48.8577 17.607ZM56.2811 31.121C56.3905 31.7245 56.4754 32.3278 56.5327 32.9377C56.608 33.673 57.4449 34.0487 58.0464 33.6204C58.3237 33.4164 58.4704 33.0941 58.4388 32.7506C58.3744 32.0879 58.2825 31.4318 58.1641 30.7768C58.0857 30.3509 57.7344 30.0318 57.304 29.9951C56.6723 29.945 56.1705 30.4983 56.2811 31.121ZM54.6187 25.8971C54.9102 26.5135 55.7221 26.6402 56.1879 26.1423C56.4523 25.8521 56.5179 25.4443 56.3526 25.0872C56.0734 24.4844 55.7658 23.8938 55.4365 23.3167C55.0505 22.6514 54.0829 22.6837 53.7451 23.3759C53.6068 23.6641 53.6184 23.991 53.7766 24.2688C54.079 24.8002 54.3614 25.3419 54.6187 25.8971ZM45.1361 15.4796C45.046 14.9584 45.3946 14.4631 45.9151 14.3724L50.2235 13.6236C50.744 13.5328 51.2386 13.8823 51.3294 14.4028C51.4195 14.9233 51.0708 15.4193 50.5497 15.5092L47.1857 16.0947L47.7705 19.4593C47.8606 19.9798 47.512 20.4751 46.9915 20.5659C46.9368 20.5755 46.8802 20.58 46.8274 20.58C46.3706 20.58 45.966 20.2526 45.8856 19.7868L45.1361 15.4796Z" fill="black"/>
</svg>
