<svg width="70" height="70" viewBox="0 0 70 70" fill="none" xmlns="http://www.w3.org/2000/svg">
<g clip-path="url(#clip0_0_3569)">
<path d="M18.2291 17.3907C16.4399 16.2985 14.0151 17.0127 12.7431 18.5684V14.184C14.6191 12.32 14.3875 8.40729 11.8039 7.25C9.29998 8.46945 8.98247 12.1532 10.7967 14.0835V18.5523C9.5242 17.0114 7.10373 16.298 5.32374 17.3907C4.91604 20.242 8.18615 22.5455 10.7967 21.8692V26.389H12.7431V21.8657C15.349 22.5501 18.6475 20.2477 18.2291 17.3907Z" fill="#B3E59F"/>
<path d="M23.2559 41.1953H1.78125V51.5758H23.2559V41.1953Z" fill="#FFE09F"/>
<path d="M23.2559 51.5742H1.78125V61.6952H23.2559V51.5742Z" fill="#FFE09F"/>
<path d="M23.2527 41.1953H18.0625V51.5758H23.2527V41.1953Z" fill="#F6D190"/>
<path d="M23.2527 51.5742H18.0625V61.6952H23.2527V51.5742Z" fill="#F6D190"/>
<path d="M24.0234 4.32956C24.0234 3.44202 24.7428 2.72266 25.6302 2.72266H61.9371C62.8247 2.72266 63.5439 3.44202 63.5439 4.32956V28.0159C63.5439 28.9033 62.8247 29.6227 61.9371 29.6227H25.6302C24.7428 29.6227 24.0234 28.9033 24.0234 28.0159V4.32956Z" fill="#857E87"/>
<path d="M61.9402 2.72266H56.75C57.6375 2.72266 58.3568 3.44202 58.3568 4.32956V28.0159C58.3568 28.9033 57.6375 29.6227 56.75 29.6227H61.9402C62.8278 29.6227 63.547 28.9033 63.547 28.0159V4.32956C63.547 3.44202 62.8278 2.72266 61.9402 2.72266Z" fill="#5D5360"/>
<path d="M47.8953 29.3633H39.6797V35.113H47.8953V29.3633Z" fill="#DFDDE0"/>
<path d="M47.892 29.3633H45.2969V35.113H47.892V29.3633Z" fill="#C8C5C9"/>
<path d="M24.0234 28.0149C24.0234 28.9023 24.7428 29.6216 25.6302 29.6216H61.9371C62.8247 29.6216 63.5439 28.9023 63.5439 28.0149V24.1719H24.0234V28.0149Z" fill="#F0EEF0"/>
<path d="M58.3568 24.1719V28.0149C58.3568 28.9023 57.6375 29.6216 56.75 29.6216H61.9402C62.8278 29.6216 63.547 28.9023 63.547 28.0149V24.1719H58.3568Z" fill="#DFDDE0"/>
<path d="M17.342 25.6758C17.7041 25.6758 17.9978 25.9725 17.991 26.3346C17.9051 30.9327 16.8385 34.9533 11.5741 34.9533C6.18518 34.9533 5.2316 30.9319 5.15634 26.3334C5.15037 25.9718 5.44362 25.6758 5.80538 25.6758H17.342Z" fill="#FF8086"/>
<path d="M17.3427 25.6758H13.45C13.8122 25.6758 14.1058 25.9725 14.0991 26.3347C14.0248 30.3051 13.217 33.8424 9.60938 34.735C10.1887 34.8761 10.8392 34.9535 11.5748 34.9535C16.8394 34.9535 17.9058 30.9328 17.9917 26.3347C17.9985 25.9725 17.7049 25.6758 17.3427 25.6758Z" fill="#E5646E"/>
<path d="M67.2432 34.1055H2.75442C2.21684 34.1055 1.78125 34.5412 1.78125 35.0786V42.4287H68.2164V35.0786C68.2164 34.5412 67.7808 34.1055 67.2432 34.1055Z" fill="#E2A975"/>
<path d="M16.2515 47.4893H8.85541C7.60028 47.4893 7.60028 45.543 8.85541 45.543H16.2515C17.5066 45.543 17.5066 47.4893 16.2515 47.4893Z" fill="#C38C66"/>
<path d="M16.2515 57.6104H8.85541C7.60028 57.6104 7.60028 55.6641 8.85541 55.6641H16.2515C17.5066 55.6641 17.5066 57.6104 16.2515 57.6104Z" fill="#C38C66"/>
<path d="M58.6237 12.832V40.7945C58.6237 40.7945 52.2656 38.1345 52.2656 26.7159C52.2656 15.2974 58.6237 12.832 58.6237 12.832Z" fill="#B3E59F"/>
<path d="M58.6809 46.147C58.6304 50.5733 57.8785 53.3796 52.9171 53.3796H31.8967C31.8967 53.3796 31.1181 46.1133 41.2391 46.1133C48.7649 46.1133 58.6264 46.1133 58.6264 46.1133" fill="#B3E59F"/>
<path d="M67.2466 56.0547C66.709 56.0547 66.2734 56.4904 66.2734 57.0279V67.2137C66.2734 68.4688 68.2198 68.4688 68.2198 67.2137V57.0279C68.2198 56.4904 67.7842 56.0547 67.2466 56.0547Z" fill="black"/>
<path d="M67.2432 34.1053H59.6013V30.5963H61.9384C63.361 30.5963 64.5183 29.439 64.5183 28.0164V4.33007C64.5183 2.90742 63.361 1.75 61.9384 1.75H25.6316C24.2089 1.75 23.0516 2.90742 23.0516 4.33007V7.82427C23.0516 9.0794 24.998 9.0794 24.998 7.82427V4.33007C24.998 3.98064 25.2822 3.69634 25.6316 3.69634H61.9385C62.2878 3.69634 62.5721 3.98064 62.5721 4.33007V23.2004H59.6015V12.8319C59.6015 12.5108 59.443 12.2104 59.1781 12.029C58.9133 11.8476 58.5759 11.8086 58.2764 11.9246C58.0218 12.0233 52.6528 14.2159 51.5101 23.2002H24.998V12.8846C24.998 11.6295 23.0516 11.6295 23.0516 12.8846V28.0164C23.0516 29.439 24.2089 30.5963 25.6316 30.5963H38.704V34.1053H16.608C18.7635 31.9522 18.9739 28.5426 18.9739 25.6778C18.9739 25.1404 18.5383 24.7046 18.0008 24.7046H12.7456V22.8674C15.8676 23.531 19.2708 20.9709 19.2292 17.7232C19.2236 17.2883 19.1696 16.8463 18.7678 16.581C16.9192 15.3609 14.3734 15.8693 12.7456 17.2016V15.4461C15.5267 13.5267 15.7333 9.00648 13.0608 6.89665C12.7916 6.68411 12.4937 6.48182 12.1741 6.35154C10.8024 5.79151 9.29465 8.23469 8.96779 9.17776C8.19561 11.4062 8.89409 13.9691 10.7992 15.3832V17.1908C9.55001 16.1745 7.91858 15.6732 6.32479 15.9924C5.66615 16.1244 4.51197 16.4224 4.36833 17.2208C3.75095 20.6562 7.64272 23.5325 10.7993 22.8703V24.7046H5.15491C4.61733 24.7046 4.18174 25.1404 4.18174 25.6778C4.18174 28.5385 4.33693 31.9524 6.49218 34.1053H2.75442C2.21684 34.1053 1.78125 34.5411 1.78125 35.0785V67.212C1.78125 68.4671 3.72759 68.4671 3.72759 67.212V62.6705H21.3095V67.212C21.3095 68.4671 23.2559 68.4671 23.2559 67.212V42.4285H57.6692C57.6742 42.7676 57.7067 44.5939 57.7107 45.1412H41.2409C37.3935 45.1412 34.5429 46.1427 32.768 48.1177C30.6372 50.4889 30.9177 53.3632 30.9308 53.4843C30.9838 53.9788 31.4011 54.3538 31.8984 54.3538H44.471V56.1055H40.6432C39.3881 56.1055 39.3881 58.0518 40.6432 58.0518H44.471V66.2388H32.0144C30.7593 66.2388 30.7593 68.1851 32.0144 68.1851H45.0971C45.205 68.2264 45.3217 68.25 45.4442 68.25C45.5667 68.25 45.6833 68.2264 45.7913 68.1851H58.8739C60.1291 68.1851 60.1291 66.2388 58.8739 66.2388H46.4174V54.3539H52.9189C55.153 54.3539 56.768 53.8153 57.8564 52.7073C59.7637 50.7655 59.7055 47.5142 59.632 43.3977C59.6263 43.0793 59.6207 42.7554 59.6158 42.4284H66.27V51.5763C66.27 52.8315 68.2164 52.8315 68.2164 51.5763V35.0785C68.2164 34.5411 67.7808 34.1053 67.2432 34.1053ZM14.371 18.4231C15.6234 17.6285 16.7129 17.8158 17.2802 18.0161C17.1089 20.0334 14.6564 21.5013 12.7818 20.8659C12.8605 20.2417 13.1773 19.1804 14.371 18.4231ZM7.90236 20.4475C7.07556 19.9229 6.37228 19.0195 6.28132 18.0156C8.23026 17.3305 10.5221 18.8484 10.7761 20.8659C9.8308 21.1864 8.73099 20.9731 7.90236 20.4475ZM11.8227 8.38949C13.4524 9.62918 13.3794 12.4585 11.817 13.7165C11.3349 13.3201 10.6078 12.4863 10.6078 11.0642C10.6076 9.58104 11.3496 8.76137 11.8227 8.38949ZM6.14183 26.651H17.0129C16.8481 31.908 15.2791 33.9822 11.5777 33.9822C7.82555 33.9823 6.29962 31.9749 6.14183 26.651ZM56.4679 51.3434C55.7645 52.0596 54.6037 52.4076 52.9189 52.4076H32.892C32.982 51.6306 33.282 50.4578 34.2159 49.4186C35.6058 47.8718 37.9693 47.0876 41.241 47.0876H57.6858C57.6053 48.9948 57.317 50.479 56.4679 51.3434ZM62.572 25.1467V28.0165C62.572 28.366 62.2878 28.6501 61.9384 28.6501H59.6013V25.1467H62.572ZM56.133 16.1994C56.6629 15.4993 57.1957 14.9784 57.655 14.6005V38.9769C57.1972 38.5846 56.6683 38.0497 56.1422 37.3391C54.2458 34.7779 53.2433 31.1045 53.2433 26.7157C53.2433 22.3335 54.2427 18.6969 56.133 16.1994ZM51.5587 30.5965C51.7445 31.9064 52.0197 33.0718 52.3551 34.1055H48.866V30.5965H51.5587ZM24.998 28.0164V25.1466H51.3376C51.2767 26.3133 51.2837 27.4841 51.3595 28.65H25.6316C25.2822 28.6501 24.998 28.3658 24.998 28.0164ZM40.6503 30.5965H46.9196V34.1055H40.6503V30.5965ZM53.1194 36.0517C54.1334 38.2186 55.3922 39.6184 56.4106 40.4822H3.72759V36.0517H53.1194ZM3.72759 60.7241V52.5495H21.3095V60.7241H3.72759ZM21.3095 50.6032H3.72759V42.4285H21.3095V50.6032ZM59.6013 40.4822V36.0517H66.27V40.4822H59.6013Z" fill="black"/>
<path d="M8.85541 47.4893H16.2515C17.5066 47.4893 17.5066 45.543 16.2515 45.543H8.85541C7.60028 45.543 7.60028 47.4893 8.85541 47.4893Z" fill="black"/>
<path d="M16.2515 55.6641H8.85541C7.60028 55.6641 7.60028 57.6104 8.85541 57.6104H16.2515C17.5066 57.6104 17.5066 55.6641 16.2515 55.6641Z" fill="black"/>
</g>
<defs>
<clipPath id="clip0_0_3569">
<rect width="66.5" height="66.5" fill="white" transform="translate(1.75 1.75)"/>
</clipPath>
</defs>
</svg>
