<svg width="44" height="44" viewBox="0 0 44 44" fill="none" xmlns="http://www.w3.org/2000/svg">
<path d="M32.7881 40.7002C32.5349 40.7002 32.2921 40.5996 32.1131 40.4205L24.4789 32.7866C24.3813 32.689 24.306 32.5714 24.2583 32.4419C24.2105 32.3125 24.1913 32.1742 24.2022 32.0366C24.213 31.899 24.2535 31.7654 24.3209 31.6449C24.3883 31.5245 24.4811 31.4201 24.5927 31.339L32.6518 25.4832C32.8357 25.3495 33.0613 25.2859 33.2879 25.3037C33.5146 25.3216 33.7274 25.4197 33.8882 25.5805L40.4196 32.1133C40.5318 32.2254 40.6142 32.3638 40.6595 32.5158C40.7048 32.6678 40.7115 32.8287 40.679 32.9839C40.6465 33.1391 40.5759 33.2839 40.4734 33.405C40.371 33.526 40.24 33.6197 40.0924 33.6775L35.4809 35.4821L33.6764 40.0938C33.6064 40.2727 33.4842 40.4263 33.3255 40.5346C33.1669 40.6429 32.9793 40.7008 32.7873 40.7008L32.7881 40.7002Z" fill="url(#paint0_linear_0_7669)"/>
<path d="M11.212 40.7008C11.02 40.7008 10.8324 40.6429 10.6737 40.5346C10.5151 40.4263 10.3928 40.2727 10.3229 40.0938L8.51846 35.4821L3.90763 33.6775C3.75994 33.6197 3.62897 33.526 3.52656 33.405C3.42414 33.2839 3.3535 33.1391 3.32102 32.9839C3.28854 32.8287 3.29524 32.6678 3.34052 32.5158C3.38579 32.3637 3.46822 32.2254 3.58035 32.1133L10.1116 25.5805C10.2723 25.4197 10.4852 25.3216 10.7118 25.3037C10.9385 25.2859 11.164 25.3495 11.348 25.4832L19.4068 31.339C19.5185 31.4201 19.6114 31.5245 19.6789 31.6449C19.7464 31.7654 19.787 31.8991 19.7978 32.0367C19.8087 32.1744 19.7895 32.3128 19.7417 32.4423C19.6939 32.5719 19.6186 32.6895 19.5209 32.7872L11.887 40.4208C11.7984 40.5095 11.6932 40.5799 11.5773 40.6279C11.4615 40.676 11.3374 40.7007 11.212 40.7008Z" fill="url(#paint1_linear_0_7669)"/>
<path d="M21.9996 34.1008C21.3 34.1006 20.6184 33.8871 20.0531 33.491L17.9264 32.006C17.7034 31.8495 17.4343 31.7655 17.1582 31.766H14.5297C13.83 31.7673 13.148 31.555 12.5819 31.1597C12.0158 30.7644 11.595 30.2066 11.3799 29.5667L10.568 27.1637C10.4832 26.9112 10.3169 26.6912 10.0933 26.5357L7.96607 25.0506C7.3993 24.6563 6.97742 24.0992 6.76124 23.4597C6.54506 22.8201 6.54575 22.1311 6.7632 21.4919L7.57514 19.089C7.66104 18.8368 7.66104 18.5649 7.57514 18.3128L6.7632 15.9098C6.54576 15.2707 6.54508 14.5816 6.76126 13.942C6.97743 13.3025 7.39931 12.7454 7.96607 12.3511L10.0927 10.866C10.3163 10.7105 10.4826 10.4905 10.5674 10.238L11.3793 7.83506C11.5943 7.1951 12.0152 6.63728 12.5813 6.242C13.1473 5.84671 13.8294 5.63438 14.5291 5.6356H17.158C17.4341 5.63616 17.7031 5.55213 17.9261 5.3957L20.0529 3.91064C20.6181 3.51433 21.2997 3.30078 21.9994 3.30078C22.6991 3.30078 23.3807 3.51433 23.946 3.91064L26.0726 5.3957C26.2956 5.55212 26.5647 5.63615 26.8408 5.6356H29.4694C30.169 5.63431 30.8511 5.84657 31.4172 6.24178C31.9833 6.637 32.4042 7.19476 32.6193 7.83468L33.4312 10.2376C33.5159 10.4901 33.6822 10.7101 33.9059 10.8656L36.0331 12.3511C36.5999 12.7454 37.0218 13.3024 37.2379 13.942C37.4541 14.5816 37.4535 15.2706 37.236 15.9098L36.4241 18.3127C36.3382 18.5648 36.3382 18.8367 36.4241 19.0889L37.236 21.4919C37.4535 22.1311 37.4542 22.8201 37.238 23.4597C37.0218 24.0992 36.5999 24.6563 36.0331 25.0506L33.9064 26.5353C33.6827 26.6908 33.5164 26.9108 33.4316 27.1633L32.6197 29.5662C32.4047 30.2062 31.9838 30.764 31.4177 31.1593C30.8517 31.5546 30.1696 31.7669 29.47 31.7657H26.8412C26.5651 31.7651 26.296 31.8491 26.073 32.0056L23.9462 33.4914C23.3807 33.8874 22.6992 34.1007 21.9996 34.1008Z" fill="url(#paint2_linear_0_7669)"/>
<path d="M26.1981 25.2999C26.051 25.3 25.906 25.2653 25.7758 25.1988L22.0005 23.2727L18.2252 25.1988C18.0752 25.2753 17.9063 25.3096 17.7373 25.2977C17.5684 25.2859 17.4063 25.2284 17.2692 25.1318C17.1322 25.0351 17.0258 24.9032 16.962 24.751C16.8982 24.5987 16.8795 24.4322 16.9082 24.2701L17.6293 20.1903L14.575 17.3008C14.4537 17.1861 14.3679 17.0407 14.3272 16.8811C14.2866 16.7216 14.2929 16.5541 14.3452 16.3978C14.3975 16.2415 14.4939 16.1025 14.6234 15.9965C14.7529 15.8906 14.9103 15.8219 15.0779 15.7983L19.2992 15.2031L21.1868 11.491C21.2618 11.3436 21.3778 11.2195 21.5216 11.1328C21.6654 11.046 21.8314 11 22.0008 11C22.1701 11 22.3361 11.046 22.48 11.1328C22.6238 11.2195 22.7398 11.3436 22.8147 11.491L24.7023 15.2031L28.9236 15.7983C29.0912 15.8219 29.2487 15.8906 29.3782 15.9965C29.5077 16.1025 29.604 16.2415 29.6564 16.3978C29.7087 16.5541 29.7149 16.7216 29.6743 16.8811C29.6337 17.0407 29.5479 17.1861 29.4266 17.3008L26.3717 20.1901L27.0928 24.27C27.1151 24.3964 27.1088 24.5261 27.0741 24.6499C27.0395 24.7737 26.9773 24.8886 26.8921 24.9867C26.8069 25.0848 26.7007 25.1636 26.5808 25.2177C26.4609 25.2718 26.3303 25.2998 26.1981 25.2997V25.2999Z" fill="url(#paint3_linear_0_7669)"/>
<defs>
<linearGradient id="paint0_linear_0_7669" x1="38.4435" y1="38.4444" x2="27.0463" y2="27.0478" gradientUnits="userSpaceOnUse">
<stop stop-color="#C21500"/>
<stop offset="1" stop-color="#F85032"/>
</linearGradient>
<linearGradient id="paint1_linear_0_7669" x1="16.9396" y1="37.8398" x2="4.00224" y2="24.9036" gradientUnits="userSpaceOnUse">
<stop stop-color="#C21500"/>
<stop offset="1" stop-color="#F85032"/>
</linearGradient>
<linearGradient id="paint2_linear_0_7669" x1="34.7749" y1="30.9799" x2="8.4351" y2="3.57535" gradientUnits="userSpaceOnUse">
<stop stop-color="#F2994A"/>
<stop offset="1" stop-color="#F2C94C"/>
</linearGradient>
<linearGradient id="paint3_linear_0_7669" x1="38.1335" y1="34.943" x2="13.6461" y2="9.71182" gradientUnits="userSpaceOnUse">
<stop stop-color="#F2C94E"/>
<stop offset="1" stop-color="white"/>
</linearGradient>
</defs>
</svg>
