<svg width="235" height="220" viewBox="0 0 235 220" fill="none" xmlns="http://www.w3.org/2000/svg">
<g clip-path="url(#clip0_0_497)">
<path d="M6.8201 3.38579C6.82516 4.06153 6.62874 4.72355 6.25573 5.28787C5.88271 5.85218 5.34987 6.29337 4.7249 6.55547C4.09992 6.81756 3.41101 6.88876 2.74537 6.76002C2.07973 6.63129 1.46739 6.30842 0.986138 5.83238C0.504888 5.35634 0.176443 4.74857 0.0422889 4.08617C-0.0918652 3.42377 -0.0256492 2.73658 0.232649 2.11177C0.490947 1.48696 0.929564 0.952684 1.49299 0.576713C2.05641 0.200743 2.71915 1.88187e-05 3.39721 1.32445e-09C4.30059 -2.50694e-05 5.16742 0.355877 5.80859 0.990115C6.44977 1.62435 6.81336 2.48549 6.8201 3.38579Z" fill="#A8BDC8" fill-opacity="0.3"/>
<path d="M27.5612 3.38579C27.5612 4.05544 27.362 4.71005 26.9887 5.26684C26.6154 5.82363 26.0847 6.25759 25.464 6.51385C24.8432 6.77012 24.1601 6.83717 23.5011 6.70653C22.8421 6.57588 22.2368 6.25342 21.7617 5.77991C21.2866 5.3064 20.963 4.7031 20.8319 4.04633C20.7008 3.38955 20.7681 2.70878 21.0252 2.09011C21.2823 1.47143 21.7178 0.942645 22.2765 0.57061C22.8352 0.198574 23.492 0 24.1639 0C24.61 0 25.0518 0.0875759 25.464 0.257728C25.8762 0.42788 26.2508 0.677279 26.5662 0.991678C26.8817 1.30608 27.1318 1.67932 27.3026 2.09011C27.4733 2.50089 27.5612 2.94116 27.5612 3.38579Z" fill="#A8BDC8" fill-opacity="0.3"/>
<path d="M48.3279 3.38579C48.333 4.06153 48.1366 4.72355 47.7635 5.28787C47.3905 5.85218 46.8577 6.29337 46.2327 6.55547C45.6077 6.81756 44.9188 6.88876 44.2532 6.76002C43.5875 6.63129 42.9752 6.30842 42.494 5.83238C42.0127 5.35634 41.6843 4.74857 41.5501 4.08617C41.4159 3.42377 41.4822 2.73658 41.7405 2.11177C41.9988 1.48696 42.4374 0.952684 43.0008 0.576713C43.5642 0.200743 44.227 1.88187e-05 44.905 1.32445e-09C45.8084 -2.50694e-05 46.6752 0.355877 47.3164 0.990115C47.9576 1.62435 48.3212 2.48549 48.3279 3.38579Z" fill="#A8BDC8" fill-opacity="0.3"/>
<path d="M69.069 3.38579C69.069 4.05544 68.8698 4.71005 68.4965 5.26684C68.1232 5.82363 67.5926 6.25759 66.9718 6.51385C66.351 6.77012 65.668 6.83717 65.0089 6.70653C64.3499 6.57588 63.7446 6.25342 63.2695 5.77991C62.7944 5.3064 62.4708 4.7031 62.3397 4.04633C62.2086 3.38955 62.2759 2.70878 62.533 2.09011C62.7901 1.47143 63.2256 0.942645 63.7843 0.57061C64.343 0.198574 64.9998 0 65.6717 0C66.1178 0 66.5596 0.0875759 66.9718 0.257728C67.384 0.42788 67.7586 0.677279 68.074 0.991678C68.3895 1.30608 68.6396 1.67932 68.8104 2.09011C68.9811 2.50089 69.069 2.94116 69.069 3.38579Z" fill="#A8BDC8" fill-opacity="0.3"/>
<path d="M89.8367 3.38579C89.8418 4.06153 89.6453 4.72355 89.2723 5.28787C88.8993 5.85218 88.3665 6.29337 87.7415 6.55547C87.1165 6.81756 86.4276 6.88876 85.762 6.76002C85.0963 6.63129 84.484 6.30842 84.0027 5.83238C83.5215 5.35634 83.193 4.74857 83.0589 4.08617C82.9247 3.42377 82.991 2.73658 83.2493 2.11177C83.5075 1.48696 83.9462 0.952684 84.5096 0.576713C85.073 0.200743 85.7358 1.88187e-05 86.4138 1.32445e-09C87.3172 -2.50694e-05 88.184 0.355877 88.8252 0.990115C89.4664 1.62435 89.83 2.48549 89.8367 3.38579Z" fill="#A8BDC8" fill-opacity="0.3"/>
<path d="M110.579 3.38579C110.579 4.05544 110.38 4.71005 110.006 5.26684C109.633 5.82363 109.102 6.25759 108.482 6.51385C107.861 6.77012 107.178 6.83717 106.519 6.70653C105.86 6.57588 105.254 6.25342 104.779 5.77991C104.304 5.3064 103.981 4.7031 103.849 4.04633C103.718 3.38955 103.786 2.70878 104.043 2.09011C104.3 1.47143 104.735 0.942645 105.294 0.57061C105.853 0.198574 106.51 0 107.181 0C108.082 0 108.947 0.356719 109.584 0.991678C110.221 1.62664 110.579 2.48782 110.579 3.38579Z" fill="#A8BDC8" fill-opacity="0.3"/>
<path d="M6.82024 23.0133C6.82024 23.688 6.61949 24.3475 6.24339 24.9085C5.86728 25.4695 5.33269 25.9067 4.70725 26.1649C4.08182 26.4231 3.39356 26.4906 2.7296 26.359C2.06564 26.2274 1.45576 25.9025 0.977071 25.4254C0.49838 24.9483 0.172464 24.3405 0.0403933 23.6788C-0.0916772 23.0171 -0.0239469 22.3312 0.235119 21.7079C0.494184 21.0846 0.932886 20.5518 1.49577 20.177C2.05865 19.8021 2.72037 19.6021 3.39734 19.6021C4.30513 19.6021 5.17586 19.9615 5.81777 20.6012C6.45967 21.2409 6.82024 22.1086 6.82024 23.0133Z" fill="#A8BDC8" fill-opacity="0.3"/>
<path d="M27.5611 23.0133C27.556 23.6818 27.3525 24.3339 26.9761 24.8874C26.5997 25.4408 26.0674 25.8708 25.4462 26.1232C24.825 26.3755 24.1429 26.439 23.4855 26.3054C22.8282 26.1719 22.2252 25.8475 21.7527 25.373C21.2801 24.8985 20.959 24.2951 20.83 23.6391C20.701 22.983 20.7698 22.3035 21.0277 21.6863C21.2856 21.0692 21.7209 20.5419 22.279 20.1709C22.8371 19.8 23.4929 19.6021 24.1637 19.6021C24.612 19.602 25.0559 19.6905 25.4697 19.8622C25.8836 20.0339 26.2593 20.2856 26.5751 20.6027C26.8909 20.9198 27.1407 21.2961 27.3099 21.7098C27.4791 22.1235 27.5644 22.5665 27.5611 23.0133Z" fill="#A8BDC8" fill-opacity="0.3"/>
<path d="M48.328 23.0133C48.328 23.688 48.1273 24.3475 47.7512 24.9085C47.3751 25.4695 46.8405 25.9067 46.2151 26.1649C45.5896 26.4231 44.9014 26.4906 44.2374 26.359C43.5734 26.2274 42.9636 25.9025 42.4849 25.4254C42.0062 24.9483 41.6803 24.3405 41.5482 23.6788C41.4161 23.0171 41.4839 22.3312 41.7429 21.7079C42.002 21.0846 42.4407 20.5518 43.0036 20.177C43.5665 19.8021 44.2282 19.6021 44.9052 19.6021C45.8129 19.6021 46.6837 19.9615 47.3256 20.6012C47.9675 21.2409 48.328 22.1086 48.328 23.0133Z" fill="#A8BDC8" fill-opacity="0.3"/>
<path d="M69.0689 23.0133C69.0638 23.6818 68.8603 24.3339 68.4839 24.8874C68.1076 25.4408 67.5752 25.8708 66.954 26.1232C66.3328 26.3755 65.6507 26.439 64.9934 26.3054C64.336 26.1719 63.733 25.8475 63.2605 25.373C62.7879 24.8985 62.4669 24.2951 62.3378 23.6391C62.2088 22.983 62.2776 22.3035 62.5355 21.6863C62.7934 21.0692 63.2287 20.5419 63.7868 20.1709C64.3449 19.8 65.0007 19.6021 65.6715 19.6021C66.1198 19.602 66.5637 19.6905 66.9776 19.8622C67.3914 20.0339 67.7671 20.2856 68.0829 20.6027C68.3987 20.9198 68.6485 21.2961 68.8177 21.7098C68.9869 22.1235 69.0722 22.5665 69.0689 23.0133Z" fill="#A8BDC8" fill-opacity="0.3"/>
<path d="M89.8359 23.0133C89.8359 23.688 89.6351 24.3475 89.259 24.9085C88.8829 25.4695 88.3483 25.9067 87.7229 26.1649C87.0974 26.4231 86.4092 26.4906 85.7452 26.359C85.0813 26.2274 84.4714 25.9025 83.9927 25.4254C83.514 24.9483 83.1881 24.3405 83.056 23.6788C82.9239 23.0171 82.9917 22.3312 83.2507 21.7079C83.5098 21.0846 83.9485 20.5518 84.5114 20.177C85.0743 19.8021 85.736 19.6021 86.413 19.6021C87.3208 19.6021 88.1915 19.9615 88.8334 20.6012C89.4753 21.2409 89.8359 22.1086 89.8359 23.0133Z" fill="#A8BDC8" fill-opacity="0.3"/>
<path d="M110.579 23.0133C110.574 23.6818 110.37 24.3339 109.994 24.8874C109.617 25.4408 109.085 25.8708 108.464 26.1232C107.843 26.3755 107.16 26.439 106.503 26.3054C105.846 26.1719 105.243 25.8475 104.77 25.373C104.298 24.8985 103.977 24.2951 103.848 23.6391C103.719 22.983 103.787 22.3035 104.045 21.6863C104.303 21.0692 104.738 20.5419 105.297 20.1709C105.855 19.8 106.51 19.6021 107.181 19.6021C107.63 19.602 108.073 19.6905 108.487 19.8622C108.901 20.0339 109.277 20.2856 109.593 20.6027C109.908 20.9198 110.158 21.2961 110.327 21.7098C110.497 22.1235 110.582 22.5665 110.579 23.0133Z" fill="#A8BDC8" fill-opacity="0.3"/>
<path d="M6.82024 42.6407C6.82024 43.3154 6.61949 43.9749 6.24339 44.5359C5.86728 45.0969 5.33269 45.5341 4.70725 45.7923C4.08182 46.0505 3.39356 46.1181 2.7296 45.9864C2.06564 45.8548 1.45576 45.5299 0.977071 45.0529C0.49838 44.5758 0.172464 43.968 0.0403933 43.3062C-0.0916772 42.6445 -0.0239469 41.9586 0.235119 41.3353C0.494184 40.712 0.932886 40.1792 1.49577 39.8044C2.05865 39.4296 2.72037 39.2295 3.39734 39.2295C4.30513 39.2295 5.17586 39.5889 5.81777 40.2286C6.45967 40.8684 6.82024 41.736 6.82024 42.6407Z" fill="#A8BDC8" fill-opacity="0.3"/>
<path d="M27.5611 42.6407C27.556 43.3093 27.3525 43.9614 26.9761 44.5148C26.5997 45.0682 26.0674 45.4982 25.4462 45.7506C24.825 46.003 24.1429 46.0664 23.4855 45.9329C22.8282 45.7994 22.2252 45.4749 21.7527 45.0004C21.2801 44.5259 20.959 43.9226 20.83 43.2665C20.701 42.6104 20.7698 41.931 21.0277 41.3138C21.2856 40.6966 21.7209 40.1693 22.279 39.7984C22.8371 39.4275 23.4929 39.2295 24.1637 39.2295C24.612 39.2295 25.0559 39.3179 25.4697 39.4896C25.8836 39.6614 26.2593 39.913 26.5751 40.2301C26.8909 40.5472 27.1407 40.9235 27.3099 41.3372C27.4791 41.751 27.5644 42.194 27.5611 42.6407Z" fill="#A8BDC8" fill-opacity="0.3"/>
<path d="M48.328 42.6407C48.328 43.3154 48.1273 43.9749 47.7512 44.5359C47.3751 45.0969 46.8405 45.5341 46.2151 45.7923C45.5896 46.0505 44.9014 46.1181 44.2374 45.9864C43.5734 45.8548 42.9636 45.5299 42.4849 45.0529C42.0062 44.5758 41.6803 43.968 41.5482 43.3062C41.4161 42.6445 41.4839 41.9586 41.7429 41.3353C42.002 40.712 42.4407 40.1792 43.0036 39.8044C43.5665 39.4296 44.2282 39.2295 44.9052 39.2295C45.8129 39.2295 46.6837 39.5889 47.3256 40.2286C47.9675 40.8684 48.328 41.736 48.328 42.6407Z" fill="#A8BDC8" fill-opacity="0.3"/>
<path d="M69.0689 42.6407C69.0638 43.3093 68.8603 43.9614 68.4839 44.5148C68.1076 45.0682 67.5752 45.4982 66.954 45.7506C66.3328 46.003 65.6507 46.0664 64.9934 45.9329C64.336 45.7994 63.733 45.4749 63.2605 45.0004C62.7879 44.5259 62.4669 43.9226 62.3378 43.2665C62.2088 42.6104 62.2776 41.931 62.5355 41.3138C62.7934 40.6966 63.2287 40.1693 63.7868 39.7984C64.3449 39.4275 65.0007 39.2295 65.6715 39.2295C66.1198 39.2295 66.5637 39.3179 66.9776 39.4896C67.3914 39.6614 67.7671 39.913 68.0829 40.2301C68.3987 40.5472 68.6485 40.9235 68.8177 41.3372C68.9869 41.751 69.0722 42.194 69.0689 42.6407Z" fill="#A8BDC8" fill-opacity="0.3"/>
<path d="M89.8359 42.6407C89.8359 43.3154 89.6351 43.9749 89.259 44.5359C88.8829 45.0969 88.3483 45.5341 87.7229 45.7923C87.0974 46.0505 86.4092 46.1181 85.7452 45.9864C85.0813 45.8548 84.4714 45.5299 83.9927 45.0529C83.514 44.5758 83.1881 43.968 83.056 43.3062C82.9239 42.6445 82.9917 41.9586 83.2507 41.3353C83.5098 40.712 83.9485 40.1792 84.5114 39.8044C85.0743 39.4296 85.736 39.2295 86.413 39.2295C87.3208 39.2295 88.1915 39.5889 88.8334 40.2286C89.4753 40.8684 89.8359 41.736 89.8359 42.6407Z" fill="#A8BDC8" fill-opacity="0.3"/>
<path d="M110.579 42.6407C110.574 43.3093 110.37 43.9614 109.994 44.5148C109.617 45.0682 109.085 45.4982 108.464 45.7506C107.843 46.003 107.16 46.0664 106.503 45.9329C105.846 45.7994 105.243 45.4749 104.77 45.0004C104.298 44.5259 103.977 43.9226 103.848 43.2665C103.719 42.6104 103.787 41.931 104.045 41.3138C104.303 40.6966 104.738 40.1693 105.297 39.7984C105.855 39.4275 106.51 39.2295 107.181 39.2295C107.63 39.2295 108.073 39.3179 108.487 39.4896C108.901 39.6614 109.277 39.913 109.593 40.2301C109.908 40.5472 110.158 40.9235 110.327 41.3372C110.497 41.751 110.582 42.194 110.579 42.6407Z" fill="#A8BDC8" fill-opacity="0.3"/>
<path d="M6.8201 61.3771C6.82516 62.0528 6.62874 62.7149 6.25573 63.2792C5.88271 63.8435 5.34987 64.2847 4.7249 64.5468C4.09992 64.8089 3.41101 64.8801 2.74537 64.7513C2.07973 64.6226 1.46739 64.2997 0.986138 63.8237C0.504888 63.3476 0.176443 62.7399 0.0422889 62.0775C-0.0918652 61.4151 -0.0256492 60.7279 0.232649 60.1031C0.490947 59.4783 0.929564 58.944 1.49299 58.568C2.05641 58.192 2.71915 57.9913 3.39721 57.9913C3.84549 57.9879 4.29012 58.073 4.70525 58.2417C5.12038 58.4103 5.4979 58.6592 5.81608 58.9739C6.13425 59.2887 6.38679 59.6631 6.55912 60.0755C6.73144 60.488 6.82012 60.9303 6.8201 61.3771Z" fill="#A8BDC8" fill-opacity="0.3"/>
<path d="M27.5612 61.3771C27.5612 62.0467 27.362 62.7014 26.9887 63.2581C26.6154 63.8149 26.0847 64.2489 25.464 64.5052C24.8432 64.7614 24.1601 64.8285 23.5011 64.6978C22.8421 64.5672 22.2368 64.2447 21.7617 63.7712C21.2866 63.2977 20.963 62.6944 20.8319 62.0376C20.7008 61.3809 20.7681 60.7001 21.0252 60.0814C21.2823 59.4627 21.7178 58.9339 22.2765 58.5619C22.8352 58.1899 23.492 57.9913 24.1639 57.9913C24.611 57.9879 25.0543 58.0732 25.468 58.2421C25.8817 58.4111 26.2576 58.6604 26.5737 58.9754C26.8899 59.2905 27.1401 59.6651 27.3096 60.0774C27.4791 60.4897 27.5646 60.9315 27.5612 61.3771Z" fill="#A8BDC8" fill-opacity="0.3"/>
<path d="M48.3279 61.3771C48.333 62.0528 48.1366 62.7149 47.7635 63.2792C47.3905 63.8435 46.8577 64.2847 46.2327 64.5468C45.6077 64.8089 44.9188 64.8801 44.2532 64.7513C43.5875 64.6226 42.9752 64.2997 42.494 63.8237C42.0127 63.3476 41.6843 62.7399 41.5501 62.0775C41.4159 61.4151 41.4822 60.7279 41.7405 60.1031C41.9988 59.4783 42.4374 58.944 43.0008 58.568C43.5642 58.192 44.227 57.9913 44.905 57.9913C45.3533 57.9879 45.7979 58.073 46.2131 58.2417C46.6282 58.4103 47.0057 58.6592 47.3239 58.9739C47.6421 59.2887 47.8946 59.6631 48.0669 60.0755C48.2393 60.488 48.3279 60.9303 48.3279 61.3771Z" fill="#A8BDC8" fill-opacity="0.3"/>
<path d="M69.069 61.3771C69.069 62.0467 68.8698 62.7014 68.4965 63.2581C68.1232 63.8149 67.5926 64.2489 66.9718 64.5052C66.351 64.7614 65.668 64.8285 65.0089 64.6978C64.3499 64.5672 63.7446 64.2447 63.2695 63.7712C62.7944 63.2977 62.4708 62.6944 62.3397 62.0376C62.2086 61.3809 62.2759 60.7001 62.533 60.0814C62.7901 59.4627 63.2256 58.9339 63.7843 58.5619C64.343 58.1899 64.9998 57.9913 65.6717 57.9913C66.1188 57.9879 66.5621 58.0732 66.9758 58.2421C67.3896 58.4111 67.7654 58.6604 68.0815 58.9754C68.3977 59.2905 68.6479 59.6651 68.8174 60.0774C68.9869 60.4897 69.0724 60.9315 69.069 61.3771Z" fill="#A8BDC8" fill-opacity="0.3"/>
<path d="M89.8367 61.3771C89.8418 62.0528 89.6453 62.7149 89.2723 63.2792C88.8993 63.8435 88.3665 64.2847 87.7415 64.5468C87.1165 64.8089 86.4276 64.8801 85.762 64.7513C85.0963 64.6226 84.484 64.2997 84.0027 63.8237C83.5215 63.3476 83.193 62.7399 83.0589 62.0775C82.9247 61.4151 82.991 60.7279 83.2493 60.1031C83.5075 59.4783 83.9462 58.944 84.5096 58.568C85.073 58.192 85.7358 57.9913 86.4138 57.9913C86.8621 57.9879 87.3067 58.073 87.7219 58.2417C88.137 58.4103 88.5145 58.6592 88.8327 58.9739C89.1509 59.2887 89.4034 59.6631 89.5757 60.0755C89.748 60.488 89.8367 60.9303 89.8367 61.3771Z" fill="#A8BDC8" fill-opacity="0.3"/>
<path d="M110.579 61.3771C110.579 62.0467 110.38 62.7014 110.006 63.2581C109.633 63.8149 109.102 64.2489 108.482 64.5052C107.861 64.7614 107.178 64.8285 106.519 64.6978C105.86 64.5672 105.254 64.2447 104.779 63.7712C104.304 63.2977 103.981 62.6944 103.849 62.0376C103.718 61.3809 103.786 60.7001 104.043 60.0814C104.3 59.4627 104.735 58.9339 105.294 58.5619C105.853 58.1899 106.51 57.9913 107.181 57.9913C107.629 57.9879 108.072 58.0732 108.486 58.2421C108.899 58.4111 109.275 58.6604 109.591 58.9754C109.907 59.2905 110.158 59.6651 110.327 60.0774C110.497 60.4897 110.582 60.9315 110.579 61.3771Z" fill="#A8BDC8" fill-opacity="0.3"/>
<path d="M6.82024 81.004C6.82024 81.6787 6.61949 82.3382 6.24339 82.8992C5.86728 83.4602 5.33269 83.8974 4.70725 84.1556C4.08182 84.4138 3.39356 84.4813 2.7296 84.3497C2.06564 84.2181 1.45576 83.8932 0.977071 83.4161C0.49838 82.9391 0.172464 82.3312 0.0403933 81.6695C-0.0916772 81.0078 -0.0239469 80.3219 0.235119 79.6986C0.494184 79.0753 0.932886 78.5425 1.49577 78.1677C2.05865 77.7928 2.72037 77.5928 3.39734 77.5928C4.30513 77.5928 5.17586 77.9522 5.81777 78.5919C6.45967 79.2316 6.82024 80.0993 6.82024 81.004Z" fill="#A8BDC8" fill-opacity="0.3"/>
<path d="M27.5611 81.0045C27.556 81.673 27.3525 82.3251 26.9761 82.8786C26.5997 83.432 26.0674 83.862 25.4462 84.1144C24.825 84.3667 24.1429 84.4302 23.4855 84.2967C22.8282 84.1631 22.2252 83.8387 21.7527 83.3642C21.2801 82.8897 20.959 82.2863 20.83 81.6303C20.701 80.9742 20.7698 80.2947 21.0277 79.6776C21.2856 79.0604 21.7209 78.5331 22.279 78.1621C22.8371 77.7912 23.4929 77.5933 24.1637 77.5933C24.612 77.5932 25.0559 77.6817 25.4697 77.8534C25.8836 78.0251 26.2593 78.2768 26.5751 78.5939C26.8909 78.911 27.1407 79.2873 27.3099 79.701C27.4791 80.1147 27.5644 80.5577 27.5611 81.0045Z" fill="#A8BDC8" fill-opacity="0.3"/>
<path d="M48.328 81.0045C48.328 81.6792 48.1273 82.3387 47.7512 82.8997C47.3751 83.4607 46.8405 83.8979 46.2151 84.1561C45.5896 84.4143 44.9014 84.4818 44.2374 84.3502C43.5734 84.2186 42.9636 83.8937 42.4849 83.4166C42.0062 82.9395 41.6803 82.3317 41.5482 81.67C41.4161 81.0083 41.4839 80.3224 41.7429 79.6991C42.002 79.0758 42.4407 78.543 43.0036 78.1682C43.5665 77.7933 44.2282 77.5933 44.9052 77.5933C45.8129 77.5933 46.6837 77.9527 47.3256 78.5924C47.9675 79.2321 48.328 80.0998 48.328 81.0045Z" fill="#A8BDC8" fill-opacity="0.3"/>
<path d="M69.0689 81.004C69.0638 81.6726 68.8603 82.3246 68.4839 82.8781C68.1076 83.4315 67.5752 83.8615 66.954 84.1139C66.3328 84.3662 65.6507 84.4297 64.9934 84.2962C64.336 84.1627 63.733 83.8382 63.2605 83.3637C62.7879 82.8892 62.4669 82.2859 62.3378 81.6298C62.2088 80.9737 62.2776 80.2943 62.5355 79.6771C62.7934 79.0599 63.2287 78.5326 63.7868 78.1617C64.3449 77.7907 65.0007 77.5928 65.6715 77.5928C66.1198 77.5928 66.5637 77.6812 66.9776 77.8529C67.3914 78.0247 67.7671 78.2763 68.0829 78.5934C68.3987 78.9105 68.6485 79.2868 68.8177 79.7005C68.9869 80.1142 69.0722 80.5573 69.0689 81.004Z" fill="#A8BDC8" fill-opacity="0.3"/>
<path d="M89.8359 81.004C89.8359 81.6787 89.6351 82.3382 89.259 82.8992C88.8829 83.4602 88.3483 83.8974 87.7229 84.1556C87.0974 84.4138 86.4092 84.4813 85.7452 84.3497C85.0813 84.2181 84.4714 83.8932 83.9927 83.4161C83.514 82.9391 83.1881 82.3312 83.056 81.6695C82.9239 81.0078 82.9917 80.3219 83.2507 79.6986C83.5098 79.0753 83.9485 78.5425 84.5114 78.1677C85.0743 77.7928 85.736 77.5928 86.413 77.5928C87.3208 77.5928 88.1915 77.9522 88.8334 78.5919C89.4753 79.2316 89.8359 80.0993 89.8359 81.004Z" fill="#A8BDC8" fill-opacity="0.3"/>
<path d="M110.579 81.004C110.574 81.6726 110.37 82.3246 109.994 82.8781C109.617 83.4315 109.085 83.8615 108.464 84.1139C107.843 84.3662 107.16 84.4297 106.503 84.2962C105.846 84.1627 105.243 83.8382 104.77 83.3637C104.298 82.8892 103.977 82.2859 103.848 81.6298C103.719 80.9737 103.787 80.2943 104.045 79.6771C104.303 79.0599 104.738 78.5326 105.297 78.1617C105.855 77.7907 106.51 77.5928 107.181 77.5928C107.63 77.5928 108.073 77.6812 108.487 77.8529C108.901 78.0247 109.277 78.2763 109.593 78.5934C109.908 78.9105 110.158 79.2868 110.327 79.7005C110.497 80.1142 110.582 80.5573 110.579 81.004Z" fill="#A8BDC8" fill-opacity="0.3"/>
<path d="M6.82024 100.631C6.82024 101.306 6.61949 101.966 6.24339 102.527C5.86728 103.088 5.33269 103.525 4.70725 103.783C4.08182 104.041 3.39356 104.109 2.7296 103.977C2.06564 103.846 1.45576 103.521 0.977071 103.044C0.49838 102.567 0.172464 101.959 0.0403933 101.297C-0.0916772 100.635 -0.0239469 99.9494 0.235119 99.326C0.494184 98.7027 0.932886 98.1699 1.49577 97.7951C2.05865 97.4203 2.72037 97.2202 3.39734 97.2202C4.30513 97.2202 5.17586 97.5796 5.81777 98.2194C6.45967 98.8591 6.82024 99.7267 6.82024 100.631Z" fill="#A8BDC8" fill-opacity="0.3"/>
<path d="M27.5611 100.632C27.556 101.3 27.3525 101.953 26.9761 102.506C26.5997 103.059 26.0674 103.489 25.4462 103.742C24.825 103.994 24.1429 104.058 23.4855 103.924C22.8282 103.791 22.2252 103.466 21.7527 102.992C21.2801 102.517 20.959 101.914 20.83 101.258C20.701 100.602 20.7698 99.9222 21.0277 99.305C21.2856 98.6878 21.7209 98.1605 22.279 97.7896C22.8371 97.4187 23.4929 97.2207 24.1637 97.2207C24.612 97.2207 25.0559 97.3091 25.4697 97.4808C25.8836 97.6526 26.2593 97.9043 26.5751 98.2214C26.8909 98.5385 27.1407 98.9147 27.3099 99.3284C27.4791 99.7422 27.5644 100.185 27.5611 100.632Z" fill="#A8BDC8" fill-opacity="0.3"/>
<path d="M48.328 100.632C48.328 101.307 48.1273 101.966 47.7512 102.527C47.3751 103.088 46.8405 103.525 46.2151 103.784C45.5896 104.042 44.9014 104.109 44.2374 103.978C43.5734 103.846 42.9636 103.521 42.4849 103.044C42.0062 102.567 41.6803 101.959 41.5482 101.297C41.4161 100.636 41.4839 99.9498 41.7429 99.3265C42.002 98.7032 42.4407 98.1704 43.0036 97.7956C43.5665 97.4208 44.2282 97.2207 44.9052 97.2207C45.8129 97.2207 46.6837 97.5801 47.3256 98.2198C47.9675 98.8596 48.328 99.7272 48.328 100.632Z" fill="#A8BDC8" fill-opacity="0.3"/>
<path d="M69.0689 100.631C69.0638 101.3 68.8603 101.952 68.4839 102.506C68.1076 103.059 67.5752 103.489 66.954 103.741C66.3328 103.994 65.6507 104.057 64.9934 103.924C64.336 103.79 63.733 103.466 63.2605 102.991C62.7879 102.517 62.4669 101.913 62.3378 101.257C62.2088 100.601 62.2776 99.9217 62.5355 99.3045C62.7934 98.6873 63.2287 98.16 63.7868 97.7891C64.3449 97.4182 65.0007 97.2202 65.6715 97.2202C66.1198 97.2202 66.5637 97.3086 66.9776 97.4804C67.3914 97.6521 67.7671 97.9038 68.0829 98.2209C68.3987 98.538 68.6485 98.9142 68.8177 99.328C68.9869 99.7417 69.0722 100.185 69.0689 100.631Z" fill="#A8BDC8" fill-opacity="0.3"/>
<path d="M89.8359 100.631C89.8359 101.306 89.6351 101.966 89.259 102.527C88.8829 103.088 88.3483 103.525 87.7229 103.783C87.0974 104.041 86.4092 104.109 85.7452 103.977C85.0813 103.846 84.4714 103.521 83.9927 103.044C83.514 102.567 83.1881 101.959 83.056 101.297C82.9239 100.635 82.9917 99.9494 83.2507 99.326C83.5098 98.7027 83.9485 98.1699 84.5114 97.7951C85.0743 97.4203 85.736 97.2202 86.413 97.2202C87.3208 97.2202 88.1915 97.5796 88.8334 98.2194C89.4753 98.8591 89.8359 99.7267 89.8359 100.631Z" fill="#A8BDC8" fill-opacity="0.3"/>
<path d="M110.579 100.631C110.574 101.3 110.37 101.952 109.994 102.506C109.617 103.059 109.085 103.489 108.464 103.741C107.843 103.994 107.16 104.057 106.503 103.924C105.846 103.79 105.243 103.466 104.77 102.991C104.298 102.517 103.977 101.913 103.848 101.257C103.719 100.601 103.787 99.9217 104.045 99.3045C104.303 98.6873 104.738 98.16 105.297 97.7891C105.855 97.4182 106.51 97.2202 107.181 97.2202C107.63 97.2202 108.073 97.3086 108.487 97.4804C108.901 97.6521 109.277 97.9038 109.593 98.2209C109.908 98.538 110.158 98.9142 110.327 99.328C110.497 99.7417 110.582 100.185 110.579 100.631Z" fill="#A8BDC8" fill-opacity="0.3"/>
<path d="M131.243 3.38579C131.248 4.06153 131.052 4.72355 130.679 5.28787C130.306 5.85218 129.773 6.29337 129.148 6.55547C128.523 6.81756 127.834 6.88876 127.168 6.76002C126.503 6.63129 125.89 6.30842 125.409 5.83238C124.928 5.35634 124.599 4.74857 124.465 4.08617C124.331 3.42377 124.397 2.73658 124.656 2.11177C124.914 1.48696 125.353 0.952684 125.916 0.576713C126.479 0.200743 127.142 1.88187e-05 127.82 1.32445e-09C128.724 -2.50694e-05 129.59 0.355877 130.232 0.990115C130.873 1.62435 131.236 2.48549 131.243 3.38579Z" fill="#A8BDC8" fill-opacity="0.3"/>
<path d="M151.984 3.38579C151.984 4.05544 151.785 4.71005 151.411 5.26684C151.038 5.82363 150.508 6.25759 149.887 6.51385C149.266 6.77012 148.583 6.83717 147.924 6.70653C147.265 6.57588 146.66 6.25342 146.185 5.77991C145.709 5.3064 145.386 4.7031 145.255 4.04633C145.124 3.38955 145.191 2.70878 145.448 2.09011C145.705 1.47143 146.141 0.942645 146.699 0.57061C147.258 0.198574 147.915 0 148.587 0C149.033 0 149.475 0.0875759 149.887 0.257728C150.299 0.42788 150.673 0.677279 150.989 0.991678C151.304 1.30608 151.555 1.67932 151.725 2.09011C151.896 2.50089 151.984 2.94116 151.984 3.38579Z" fill="#A8BDC8" fill-opacity="0.3"/>
<path d="M172.751 3.38579C172.756 4.06153 172.56 4.72355 172.187 5.28787C171.813 5.85218 171.281 6.29337 170.656 6.55547C170.031 6.81756 169.342 6.88876 168.676 6.76002C168.01 6.63129 167.398 6.30842 166.917 5.83238C166.436 5.35634 166.107 4.74857 165.973 4.08617C165.839 3.42377 165.905 2.73658 166.163 2.11177C166.422 1.48696 166.86 0.952684 167.424 0.576713C167.987 0.200743 168.65 1.88187e-05 169.328 1.32445e-09C170.231 -2.50694e-05 171.098 0.355877 171.739 0.990115C172.381 1.62435 172.744 2.48549 172.751 3.38579Z" fill="#A8BDC8" fill-opacity="0.3"/>
<path d="M193.492 3.38579C193.492 4.05544 193.293 4.71005 192.919 5.26684C192.546 5.82363 192.015 6.25759 191.395 6.51385C190.774 6.77012 190.091 6.83717 189.432 6.70653C188.773 6.57588 188.167 6.25342 187.692 5.77991C187.217 5.3064 186.894 4.7031 186.763 4.04633C186.631 3.38955 186.699 2.70878 186.956 2.09011C187.213 1.47143 187.648 0.942645 188.207 0.57061C188.766 0.198574 189.423 0 190.095 0C190.541 0 190.982 0.0875759 191.395 0.257728C191.807 0.42788 192.181 0.677279 192.497 0.991678C192.812 1.30608 193.062 1.67932 193.233 2.09011C193.404 2.50089 193.492 2.94116 193.492 3.38579Z" fill="#A8BDC8" fill-opacity="0.3"/>
<path d="M214.258 3.38579C214.263 4.06153 214.066 4.72355 213.693 5.28787C213.32 5.85218 212.787 6.29337 212.163 6.55547C211.538 6.81756 210.848 6.88876 210.183 6.76002C209.517 6.63129 208.905 6.30842 208.424 5.83238C207.943 5.35634 207.614 4.74857 207.48 4.08617C207.346 3.42377 207.412 2.73658 207.67 2.11177C207.929 1.48696 208.367 0.952684 208.931 0.576713C209.494 0.200743 210.157 1.88187e-05 210.835 1.32445e-09C211.738 -2.50694e-05 212.605 0.355877 213.246 0.990115C213.887 1.62435 214.251 2.48549 214.258 3.38579Z" fill="#A8BDC8" fill-opacity="0.3"/>
<path d="M235.001 3.38579C235.001 4.05544 234.801 4.71005 234.428 5.26684C234.055 5.82363 233.524 6.25759 232.903 6.51385C232.283 6.77012 231.6 6.83717 230.941 6.70653C230.282 6.57588 229.676 6.25342 229.201 5.77991C228.726 5.3064 228.402 4.7031 228.271 4.04633C228.14 3.38955 228.208 2.70878 228.465 2.09011C228.722 1.47143 229.157 0.942645 229.716 0.57061C230.275 0.198574 230.931 0 231.603 0C232.049 0 232.491 0.0875759 232.903 0.257728C233.316 0.42788 233.69 0.677279 234.006 0.991678C234.321 1.30608 234.571 1.67932 234.742 2.09011C234.913 2.50089 235.001 2.94116 235.001 3.38579Z" fill="#A8BDC8" fill-opacity="0.3"/>
<path d="M131.243 23.0133C131.243 23.688 131.042 24.3475 130.666 24.9085C130.29 25.4695 129.756 25.9067 129.13 26.1649C128.505 26.4231 127.817 26.4906 127.153 26.359C126.489 26.2274 125.879 25.9025 125.4 25.4254C124.921 24.9483 124.595 24.3405 124.463 23.6788C124.331 23.0171 124.399 22.3312 124.658 21.7079C124.917 21.0846 125.356 20.5518 125.919 20.177C126.482 19.8021 127.143 19.6021 127.82 19.6021C128.728 19.6021 129.599 19.9615 130.241 20.6012C130.882 21.2409 131.243 22.1086 131.243 23.0133Z" fill="#A8BDC8" fill-opacity="0.3"/>
<path d="M151.984 23.0133C151.979 23.6818 151.775 24.3339 151.399 24.8874C151.023 25.4408 150.49 25.8708 149.869 26.1232C149.248 26.3755 148.566 26.439 147.908 26.3054C147.251 26.1719 146.648 25.8475 146.176 25.373C145.703 24.8985 145.382 24.2951 145.253 23.6391C145.124 22.983 145.193 22.3035 145.45 21.6863C145.708 21.0692 146.144 20.5419 146.702 20.1709C147.26 19.8 147.916 19.6021 148.587 19.6021C149.035 19.602 149.479 19.6905 149.893 19.8622C150.306 20.0339 150.682 20.2856 150.998 20.6027C151.314 20.9198 151.563 21.2961 151.733 21.7098C151.902 22.1235 151.987 22.5665 151.984 23.0133Z" fill="#A8BDC8" fill-opacity="0.3"/>
<path d="M172.751 23.0133C172.751 23.688 172.55 24.3475 172.174 24.9085C171.798 25.4695 171.263 25.9067 170.638 26.1649C170.013 26.4231 169.324 26.4906 168.66 26.359C167.996 26.2274 167.387 25.9025 166.908 25.4254C166.429 24.9483 166.103 24.3405 165.971 23.6788C165.839 23.0171 165.907 22.3312 166.166 21.7079C166.425 21.0846 166.864 20.5518 167.427 20.177C167.989 19.8021 168.651 19.6021 169.328 19.6021C170.236 19.6021 171.106 19.9615 171.748 20.6012C172.39 21.2409 172.751 22.1086 172.751 23.0133Z" fill="#A8BDC8" fill-opacity="0.3"/>
<path d="M193.492 23.0133C193.487 23.6818 193.283 24.3339 192.907 24.8874C192.53 25.4408 191.998 25.8708 191.377 26.1232C190.756 26.3755 190.073 26.439 189.416 26.3054C188.759 26.1719 188.156 25.8475 187.683 25.373C187.211 24.8985 186.89 24.2951 186.761 23.6391C186.632 22.983 186.7 22.3035 186.958 21.6863C187.216 21.0692 187.652 20.5419 188.21 20.1709C188.768 19.8 189.424 19.6021 190.094 19.6021C190.543 19.602 190.987 19.6905 191.4 19.8622C191.814 20.0339 192.19 20.2856 192.506 20.6027C192.822 20.9198 193.071 21.2961 193.24 21.7098C193.41 22.1235 193.495 22.5665 193.492 23.0133Z" fill="#A8BDC8" fill-opacity="0.3"/>
<path d="M214.258 23.0133C214.258 23.688 214.057 24.3475 213.681 24.9085C213.305 25.4695 212.77 25.9067 212.145 26.1649C211.519 26.4231 210.831 26.4906 210.167 26.359C209.503 26.2274 208.893 25.9025 208.415 25.4254C207.936 24.9483 207.61 24.3405 207.478 23.6788C207.346 23.0171 207.414 22.3312 207.673 21.7079C207.932 21.0846 208.371 20.5518 208.933 20.177C209.496 19.8021 210.158 19.6021 210.835 19.6021C211.743 19.6021 212.613 19.9615 213.255 20.6012C213.897 21.2409 214.258 22.1086 214.258 23.0133Z" fill="#A8BDC8" fill-opacity="0.3"/>
<path d="M235.001 23.0133C234.996 23.6818 234.792 24.3339 234.416 24.8874C234.039 25.4408 233.507 25.8708 232.886 26.1232C232.264 26.3755 231.582 26.439 230.925 26.3054C230.268 26.1719 229.665 25.8475 229.192 25.373C228.72 24.8985 228.399 24.2951 228.27 23.6391C228.14 22.983 228.209 22.3035 228.467 21.6863C228.725 21.0692 229.16 20.5419 229.718 20.1709C230.277 19.8 230.932 19.6021 231.603 19.6021C232.052 19.602 232.495 19.6905 232.909 19.8622C233.323 20.0339 233.699 20.2856 234.015 20.6027C234.33 20.9198 234.58 21.2961 234.749 21.7098C234.918 22.1235 235.004 22.5665 235.001 23.0133Z" fill="#A8BDC8" fill-opacity="0.3"/>
<path d="M131.243 42.6407C131.243 43.3154 131.042 43.9749 130.666 44.5359C130.29 45.0969 129.756 45.5341 129.13 45.7923C128.505 46.0505 127.817 46.1181 127.153 45.9864C126.489 45.8548 125.879 45.5299 125.4 45.0529C124.921 44.5758 124.595 43.968 124.463 43.3062C124.331 42.6445 124.399 41.9586 124.658 41.3353C124.917 40.712 125.356 40.1792 125.919 39.8044C126.482 39.4296 127.143 39.2295 127.82 39.2295C128.728 39.2295 129.599 39.5889 130.241 40.2286C130.882 40.8684 131.243 41.736 131.243 42.6407Z" fill="#A8BDC8" fill-opacity="0.3"/>
<path d="M151.984 42.6407C151.979 43.3093 151.775 43.9614 151.399 44.5148C151.023 45.0682 150.49 45.4982 149.869 45.7506C149.248 46.003 148.566 46.0664 147.908 45.9329C147.251 45.7994 146.648 45.4749 146.176 45.0004C145.703 44.5259 145.382 43.9226 145.253 43.2665C145.124 42.6104 145.193 41.931 145.45 41.3138C145.708 40.6966 146.144 40.1693 146.702 39.7984C147.26 39.4275 147.916 39.2295 148.587 39.2295C149.035 39.2295 149.479 39.3179 149.893 39.4896C150.306 39.6614 150.682 39.913 150.998 40.2301C151.314 40.5472 151.563 40.9235 151.733 41.3372C151.902 41.751 151.987 42.194 151.984 42.6407Z" fill="#A8BDC8" fill-opacity="0.3"/>
<path d="M172.751 42.6407C172.751 43.3154 172.55 43.9749 172.174 44.5359C171.798 45.0969 171.263 45.5341 170.638 45.7923C170.013 46.0505 169.324 46.1181 168.66 45.9864C167.996 45.8548 167.387 45.5299 166.908 45.0529C166.429 44.5758 166.103 43.968 165.971 43.3062C165.839 42.6445 165.907 41.9586 166.166 41.3353C166.425 40.712 166.864 40.1792 167.427 39.8044C167.989 39.4296 168.651 39.2295 169.328 39.2295C170.236 39.2295 171.106 39.5889 171.748 40.2286C172.39 40.8684 172.751 41.736 172.751 42.6407Z" fill="#A8BDC8" fill-opacity="0.3"/>
<path d="M193.492 42.6407C193.487 43.3093 193.283 43.9614 192.907 44.5148C192.53 45.0682 191.998 45.4982 191.377 45.7506C190.756 46.003 190.073 46.0664 189.416 45.9329C188.759 45.7994 188.156 45.4749 187.683 45.0004C187.211 44.5259 186.89 43.9226 186.761 43.2665C186.632 42.6104 186.7 41.931 186.958 41.3138C187.216 40.6966 187.652 40.1693 188.21 39.7984C188.768 39.4275 189.424 39.2295 190.094 39.2295C190.543 39.2295 190.987 39.3179 191.4 39.4896C191.814 39.6614 192.19 39.913 192.506 40.2301C192.822 40.5472 193.071 40.9235 193.24 41.3372C193.41 41.751 193.495 42.194 193.492 42.6407Z" fill="#A8BDC8" fill-opacity="0.3"/>
<path d="M214.258 42.6407C214.258 43.3154 214.057 43.9749 213.681 44.5359C213.305 45.0969 212.77 45.5341 212.145 45.7923C211.519 46.0505 210.831 46.1181 210.167 45.9864C209.503 45.8548 208.893 45.5299 208.415 45.0529C207.936 44.5758 207.61 43.968 207.478 43.3062C207.346 42.6445 207.414 41.9586 207.673 41.3353C207.932 40.712 208.371 40.1792 208.933 39.8044C209.496 39.4296 210.158 39.2295 210.835 39.2295C211.743 39.2295 212.613 39.5889 213.255 40.2286C213.897 40.8684 214.258 41.736 214.258 42.6407Z" fill="#A8BDC8" fill-opacity="0.3"/>
<path d="M235.001 42.6407C234.996 43.3093 234.792 43.9614 234.416 44.5148C234.039 45.0682 233.507 45.4982 232.886 45.7506C232.264 46.003 231.582 46.0664 230.925 45.9329C230.268 45.7994 229.665 45.4749 229.192 45.0004C228.72 44.5259 228.399 43.9226 228.27 43.2665C228.14 42.6104 228.209 41.931 228.467 41.3138C228.725 40.6966 229.16 40.1693 229.718 39.7984C230.277 39.4275 230.932 39.2295 231.603 39.2295C232.052 39.2295 232.495 39.3179 232.909 39.4896C233.323 39.6614 233.699 39.913 234.015 40.2301C234.33 40.5472 234.58 40.9235 234.749 41.3372C234.918 41.751 235.004 42.194 235.001 42.6407Z" fill="#A8BDC8" fill-opacity="0.3"/>
<path d="M131.243 61.3771C131.248 62.0528 131.052 62.7149 130.679 63.2792C130.306 63.8435 129.773 64.2847 129.148 64.5468C128.523 64.8089 127.834 64.8801 127.168 64.7513C126.503 64.6226 125.89 64.2997 125.409 63.8237C124.928 63.3476 124.599 62.7399 124.465 62.0775C124.331 61.4151 124.397 60.7279 124.656 60.1031C124.914 59.4783 125.353 58.944 125.916 58.568C126.479 58.192 127.142 57.9913 127.82 57.9913C128.268 57.9879 128.713 58.073 129.128 58.2417C129.543 58.4103 129.921 58.6592 130.239 58.9739C130.557 59.2887 130.81 59.6631 130.982 60.0755C131.154 60.488 131.243 60.9303 131.243 61.3771Z" fill="#A8BDC8" fill-opacity="0.3"/>
<path d="M151.984 61.3771C151.984 62.0467 151.785 62.7014 151.411 63.2581C151.038 63.8149 150.508 64.2489 149.887 64.5052C149.266 64.7614 148.583 64.8285 147.924 64.6978C147.265 64.5672 146.66 64.2447 146.185 63.7712C145.709 63.2977 145.386 62.6944 145.255 62.0376C145.124 61.3809 145.191 60.7001 145.448 60.0814C145.705 59.4627 146.141 58.9339 146.699 58.5619C147.258 58.1899 147.915 57.9913 148.587 57.9913C149.034 57.9879 149.477 58.0732 149.891 58.2421C150.305 58.4111 150.68 58.6604 150.997 58.9754C151.313 59.2905 151.563 59.6651 151.732 60.0774C151.902 60.4897 151.987 60.9315 151.984 61.3771Z" fill="#A8BDC8" fill-opacity="0.3"/>
<path d="M172.751 61.3771C172.756 62.0528 172.56 62.7149 172.187 63.2792C171.813 63.8435 171.281 64.2847 170.656 64.5468C170.031 64.8089 169.342 64.8801 168.676 64.7513C168.01 64.6226 167.398 64.2997 166.917 63.8237C166.436 63.3476 166.107 62.7399 165.973 62.0775C165.839 61.4151 165.905 60.7279 166.163 60.1031C166.422 59.4783 166.86 58.944 167.424 58.568C167.987 58.192 168.65 57.9913 169.328 57.9913C169.776 57.9879 170.221 58.073 170.636 58.2417C171.051 58.4103 171.429 58.6592 171.747 58.9739C172.065 59.2887 172.317 59.6631 172.49 60.0755C172.662 60.488 172.751 60.9303 172.751 61.3771Z" fill="#A8BDC8" fill-opacity="0.3"/>
<path d="M193.492 61.3771C193.492 62.0467 193.293 62.7014 192.919 63.2581C192.546 63.8149 192.015 64.2489 191.395 64.5052C190.774 64.7614 190.091 64.8285 189.432 64.6978C188.773 64.5672 188.167 64.2447 187.692 63.7712C187.217 63.2977 186.894 62.6944 186.763 62.0376C186.631 61.3809 186.699 60.7001 186.956 60.0814C187.213 59.4627 187.648 58.9339 188.207 58.5619C188.766 58.1899 189.423 57.9913 190.095 57.9913C190.542 57.9879 190.985 58.0732 191.399 58.2421C191.812 58.4111 192.188 58.6604 192.504 58.9754C192.821 59.2905 193.071 59.6651 193.24 60.0774C193.41 60.4897 193.495 60.9315 193.492 61.3771Z" fill="#A8BDC8" fill-opacity="0.3"/>
<path d="M214.258 61.3771C214.263 62.0528 214.066 62.7149 213.693 63.2792C213.32 63.8435 212.787 64.2847 212.163 64.5468C211.538 64.8089 210.848 64.8801 210.183 64.7513C209.517 64.6226 208.905 64.2997 208.424 63.8237C207.943 63.3476 207.614 62.7399 207.48 62.0775C207.346 61.4151 207.412 60.7279 207.67 60.1031C207.929 59.4783 208.367 58.944 208.931 58.568C209.494 58.192 210.157 57.9913 210.835 57.9913C211.283 57.9879 211.728 58.073 212.143 58.2417C212.558 58.4103 212.936 58.6592 213.254 58.9739C213.572 59.2887 213.824 59.6631 213.997 60.0755C214.169 60.488 214.258 60.9303 214.258 61.3771Z" fill="#A8BDC8" fill-opacity="0.3"/>
<path d="M235.001 61.3771C235.001 62.0467 234.801 62.7014 234.428 63.2581C234.055 63.8149 233.524 64.2489 232.903 64.5052C232.283 64.7614 231.6 64.8285 230.941 64.6978C230.282 64.5672 229.676 64.2447 229.201 63.7712C228.726 63.2977 228.402 62.6944 228.271 62.0376C228.14 61.3809 228.208 60.7001 228.465 60.0814C228.722 59.4627 229.157 58.9339 229.716 58.5619C230.275 58.1899 230.931 57.9913 231.603 57.9913C232.05 57.9879 232.494 58.0732 232.907 58.2421C233.321 58.4111 233.697 58.6604 234.013 58.9754C234.329 59.2905 234.579 59.6651 234.749 60.0774C234.918 60.4897 235.004 60.9315 235.001 61.3771Z" fill="#A8BDC8" fill-opacity="0.3"/>
<path d="M131.243 81.004C131.243 81.6787 131.042 82.3382 130.666 82.8992C130.29 83.4602 129.756 83.8974 129.13 84.1556C128.505 84.4138 127.817 84.4813 127.153 84.3497C126.489 84.2181 125.879 83.8932 125.4 83.4161C124.921 82.9391 124.595 82.3312 124.463 81.6695C124.331 81.0078 124.399 80.3219 124.658 79.6986C124.917 79.0753 125.356 78.5425 125.919 78.1677C126.482 77.7928 127.143 77.5928 127.82 77.5928C128.728 77.5928 129.599 77.9522 130.241 78.5919C130.882 79.2316 131.243 80.0993 131.243 81.004Z" fill="#A8BDC8" fill-opacity="0.3"/>
<path d="M151.984 81.004C151.979 81.6726 151.775 82.3246 151.399 82.8781C151.023 83.4315 150.49 83.8615 149.869 84.1139C149.248 84.3662 148.566 84.4297 147.908 84.2962C147.251 84.1627 146.648 83.8382 146.176 83.3637C145.703 82.8892 145.382 82.2859 145.253 81.6298C145.124 80.9737 145.193 80.2943 145.45 79.6771C145.708 79.0599 146.144 78.5326 146.702 78.1617C147.26 77.7907 147.916 77.5928 148.587 77.5928C149.035 77.5928 149.479 77.6812 149.893 77.8529C150.306 78.0247 150.682 78.2763 150.998 78.5934C151.314 78.9105 151.563 79.2868 151.733 79.7005C151.902 80.1142 151.987 80.5573 151.984 81.004Z" fill="#A8BDC8" fill-opacity="0.3"/>
<path d="M172.751 81.0045C172.751 81.6792 172.55 82.3387 172.174 82.8997C171.798 83.4607 171.263 83.8979 170.638 84.1561C170.013 84.4143 169.324 84.4818 168.66 84.3502C167.996 84.2186 167.387 83.8937 166.908 83.4166C166.429 82.9395 166.103 82.3317 165.971 81.67C165.839 81.0083 165.907 80.3224 166.166 79.6991C166.425 79.0758 166.864 78.543 167.427 78.1682C167.989 77.7933 168.651 77.5933 169.328 77.5933C170.236 77.5933 171.106 77.9527 171.748 78.5924C172.39 79.2321 172.751 80.0998 172.751 81.0045Z" fill="#A8BDC8" fill-opacity="0.3"/>
<path d="M193.492 81.004C193.487 81.6726 193.283 82.3246 192.907 82.8781C192.53 83.4315 191.998 83.8615 191.377 84.1139C190.756 84.3662 190.073 84.4297 189.416 84.2962C188.759 84.1627 188.156 83.8382 187.683 83.3637C187.211 82.8892 186.89 82.2859 186.761 81.6298C186.632 80.9737 186.7 80.2943 186.958 79.6771C187.216 79.0599 187.652 78.5326 188.21 78.1617C188.768 77.7907 189.424 77.5928 190.094 77.5928C190.543 77.5928 190.987 77.6812 191.4 77.8529C191.814 78.0247 192.19 78.2763 192.506 78.5934C192.822 78.9105 193.071 79.2868 193.24 79.7005C193.41 80.1142 193.495 80.5573 193.492 81.004Z" fill="#A8BDC8" fill-opacity="0.3"/>
<path d="M214.258 81.004C214.258 81.6787 214.057 82.3382 213.681 82.8992C213.305 83.4602 212.77 83.8974 212.145 84.1556C211.519 84.4138 210.831 84.4813 210.167 84.3497C209.503 84.2181 208.893 83.8932 208.415 83.4161C207.936 82.9391 207.61 82.3312 207.478 81.6695C207.346 81.0078 207.414 80.3219 207.673 79.6986C207.932 79.0753 208.371 78.5425 208.933 78.1677C209.496 77.7928 210.158 77.5928 210.835 77.5928C211.743 77.5928 212.613 77.9522 213.255 78.5919C213.897 79.2316 214.258 80.0993 214.258 81.004Z" fill="#A8BDC8" fill-opacity="0.3"/>
<path d="M235.001 81.004C234.996 81.6726 234.792 82.3246 234.416 82.8781C234.039 83.4315 233.507 83.8615 232.886 84.1139C232.264 84.3662 231.582 84.4297 230.925 84.2962C230.268 84.1627 229.665 83.8382 229.192 83.3637C228.72 82.8892 228.399 82.2859 228.27 81.6298C228.14 80.9737 228.209 80.2943 228.467 79.6771C228.725 79.0599 229.16 78.5326 229.718 78.1617C230.277 77.7907 230.932 77.5928 231.603 77.5928C232.052 77.5928 232.495 77.6812 232.909 77.8529C233.323 78.0247 233.699 78.2763 234.015 78.5934C234.33 78.9105 234.58 79.2868 234.749 79.7005C234.918 80.1142 235.004 80.5573 235.001 81.004Z" fill="#A8BDC8" fill-opacity="0.3"/>
<path d="M131.243 100.631C131.243 101.306 131.042 101.966 130.666 102.527C130.29 103.088 129.756 103.525 129.13 103.783C128.505 104.041 127.817 104.109 127.153 103.977C126.489 103.846 125.879 103.521 125.4 103.044C124.921 102.567 124.595 101.959 124.463 101.297C124.331 100.635 124.399 99.9494 124.658 99.326C124.917 98.7027 125.356 98.1699 125.919 97.7951C126.482 97.4203 127.143 97.2202 127.82 97.2202C128.728 97.2202 129.599 97.5796 130.241 98.2194C130.882 98.8591 131.243 99.7267 131.243 100.631Z" fill="#A8BDC8" fill-opacity="0.3"/>
<path d="M151.984 100.631C151.979 101.3 151.775 101.952 151.399 102.506C151.023 103.059 150.49 103.489 149.869 103.741C149.248 103.994 148.566 104.057 147.908 103.924C147.251 103.79 146.648 103.466 146.176 102.991C145.703 102.517 145.382 101.913 145.253 101.257C145.124 100.601 145.193 99.9217 145.45 99.3045C145.708 98.6873 146.144 98.16 146.702 97.7891C147.26 97.4182 147.916 97.2202 148.587 97.2202C149.035 97.2202 149.479 97.3086 149.893 97.4804C150.306 97.6521 150.682 97.9038 150.998 98.2209C151.314 98.538 151.563 98.9142 151.733 99.328C151.902 99.7417 151.987 100.185 151.984 100.631Z" fill="#A8BDC8" fill-opacity="0.3"/>
<path d="M172.751 100.632C172.751 101.307 172.55 101.966 172.174 102.527C171.798 103.088 171.263 103.525 170.638 103.784C170.013 104.042 169.324 104.109 168.66 103.978C167.996 103.846 167.387 103.521 166.908 103.044C166.429 102.567 166.103 101.959 165.971 101.297C165.839 100.636 165.907 99.9498 166.166 99.3265C166.425 98.7032 166.864 98.1704 167.427 97.7956C167.989 97.4208 168.651 97.2207 169.328 97.2207C170.236 97.2207 171.106 97.5801 171.748 98.2198C172.39 98.8596 172.751 99.7272 172.751 100.632Z" fill="#A8BDC8" fill-opacity="0.3"/>
<path d="M193.492 100.631C193.487 101.3 193.283 101.952 192.907 102.506C192.53 103.059 191.998 103.489 191.377 103.741C190.756 103.994 190.073 104.057 189.416 103.924C188.759 103.79 188.156 103.466 187.683 102.991C187.211 102.517 186.89 101.913 186.761 101.257C186.632 100.601 186.7 99.9217 186.958 99.3045C187.216 98.6873 187.652 98.16 188.21 97.7891C188.768 97.4182 189.424 97.2202 190.094 97.2202C190.543 97.2202 190.987 97.3086 191.4 97.4804C191.814 97.6521 192.19 97.9038 192.506 98.2209C192.822 98.538 193.071 98.9142 193.24 99.328C193.41 99.7417 193.495 100.185 193.492 100.631Z" fill="#A8BDC8" fill-opacity="0.3"/>
<path d="M214.258 100.631C214.258 101.306 214.057 101.966 213.681 102.527C213.305 103.088 212.77 103.525 212.145 103.783C211.519 104.041 210.831 104.109 210.167 103.977C209.503 103.846 208.893 103.521 208.415 103.044C207.936 102.567 207.61 101.959 207.478 101.297C207.346 100.635 207.414 99.9494 207.673 99.326C207.932 98.7027 208.371 98.1699 208.933 97.7951C209.496 97.4203 210.158 97.2202 210.835 97.2202C211.743 97.2202 212.613 97.5796 213.255 98.2194C213.897 98.8591 214.258 99.7267 214.258 100.631Z" fill="#A8BDC8" fill-opacity="0.3"/>
<path d="M235.001 100.631C234.996 101.3 234.792 101.952 234.416 102.506C234.039 103.059 233.507 103.489 232.886 103.741C232.264 103.994 231.582 104.057 230.925 103.924C230.268 103.79 229.665 103.466 229.192 102.991C228.72 102.517 228.399 101.913 228.27 101.257C228.14 100.601 228.209 99.9217 228.467 99.3045C228.725 98.6873 229.16 98.16 229.718 97.7891C230.277 97.4182 230.932 97.2202 231.603 97.2202C232.052 97.2202 232.495 97.3086 232.909 97.4804C233.323 97.6521 233.699 97.9038 234.015 98.2209C234.33 98.538 234.58 98.9142 234.749 99.328C234.918 99.7417 235.004 100.185 235.001 100.631Z" fill="#A8BDC8" fill-opacity="0.3"/>
<path d="M6.8201 119.495C6.82516 120.171 6.62874 120.833 6.25573 121.397C5.88271 121.962 5.34987 122.403 4.7249 122.665C4.09992 122.927 3.41101 122.998 2.74537 122.87C2.07973 122.741 1.46739 122.418 0.986138 121.942C0.504888 121.466 0.176443 120.858 0.0422889 120.196C-0.0918652 119.533 -0.0256492 118.846 0.232649 118.221C0.490947 117.596 0.929564 117.062 1.49299 116.686C2.05641 116.31 2.71915 116.109 3.39721 116.109C3.84549 116.106 4.29012 116.191 4.70525 116.36C5.12038 116.529 5.4979 116.777 5.81608 117.092C6.13425 117.407 6.38679 117.781 6.55912 118.194C6.73144 118.606 6.82012 119.048 6.8201 119.495Z" fill="#A8BDC8" fill-opacity="0.3"/>
<path d="M27.5612 119.495C27.5612 120.165 27.362 120.82 26.9887 121.376C26.6154 121.933 26.0847 122.367 25.464 122.623C24.8432 122.88 24.1601 122.947 23.5011 122.816C22.8421 122.685 22.2368 122.363 21.7617 121.889C21.2866 121.416 20.963 120.813 20.8319 120.156C20.7008 119.499 20.7681 118.818 21.0252 118.2C21.2823 117.581 21.7178 117.052 22.2765 116.68C22.8352 116.308 23.492 116.109 24.1639 116.109C24.611 116.106 25.0543 116.191 25.468 116.36C25.8817 116.529 26.2576 116.779 26.5737 117.094C26.8899 117.409 27.1401 117.783 27.3096 118.196C27.4791 118.608 27.5646 119.05 27.5612 119.495Z" fill="#A8BDC8" fill-opacity="0.3"/>
<path d="M48.3279 119.495C48.333 120.171 48.1366 120.833 47.7635 121.397C47.3905 121.962 46.8577 122.403 46.2327 122.665C45.6077 122.927 44.9188 122.998 44.2532 122.87C43.5875 122.741 42.9752 122.418 42.494 121.942C42.0127 121.466 41.6843 120.858 41.5501 120.196C41.4159 119.533 41.4822 118.846 41.7405 118.221C41.9988 117.596 42.4374 117.062 43.0008 116.686C43.5642 116.31 44.227 116.109 44.905 116.109C45.3533 116.106 45.7979 116.191 46.2131 116.36C46.6282 116.529 47.0057 116.777 47.3239 117.092C47.6421 117.407 47.8946 117.781 48.0669 118.194C48.2393 118.606 48.3279 119.048 48.3279 119.495Z" fill="#A8BDC8" fill-opacity="0.3"/>
<path d="M69.069 119.495C69.069 120.165 68.8698 120.82 68.4965 121.376C68.1232 121.933 67.5926 122.367 66.9718 122.623C66.351 122.88 65.668 122.947 65.0089 122.816C64.3499 122.685 63.7446 122.363 63.2695 121.889C62.7944 121.416 62.4708 120.813 62.3397 120.156C62.2086 119.499 62.2759 118.818 62.533 118.2C62.7901 117.581 63.2256 117.052 63.7843 116.68C64.343 116.308 64.9998 116.109 65.6717 116.109C66.1188 116.106 66.5621 116.191 66.9758 116.36C67.3896 116.529 67.7654 116.779 68.0815 117.094C68.3977 117.409 68.6479 117.783 68.8174 118.196C68.9869 118.608 69.0724 119.05 69.069 119.495Z" fill="#A8BDC8" fill-opacity="0.3"/>
<path d="M89.8367 119.495C89.8418 120.171 89.6453 120.833 89.2723 121.397C88.8993 121.962 88.3665 122.403 87.7415 122.665C87.1165 122.927 86.4276 122.998 85.762 122.87C85.0963 122.741 84.484 122.418 84.0027 121.942C83.5215 121.466 83.193 120.858 83.0589 120.196C82.9247 119.533 82.991 118.846 83.2493 118.221C83.5075 117.596 83.9462 117.062 84.5096 116.686C85.073 116.31 85.7358 116.109 86.4138 116.109C86.8621 116.106 87.3067 116.191 87.7219 116.36C88.137 116.529 88.5145 116.777 88.8327 117.092C89.1509 117.407 89.4034 117.781 89.5757 118.194C89.748 118.606 89.8367 119.048 89.8367 119.495Z" fill="#A8BDC8" fill-opacity="0.3"/>
<path d="M110.579 119.495C110.579 120.165 110.38 120.82 110.006 121.376C109.633 121.933 109.102 122.367 108.482 122.623C107.861 122.88 107.178 122.947 106.519 122.816C105.86 122.685 105.254 122.363 104.779 121.889C104.304 121.416 103.981 120.813 103.849 120.156C103.718 119.499 103.786 118.818 104.043 118.2C104.3 117.581 104.735 117.052 105.294 116.68C105.853 116.308 106.51 116.109 107.181 116.109C107.629 116.106 108.072 116.191 108.486 116.36C108.899 116.529 109.275 116.779 109.591 117.094C109.907 117.409 110.158 117.783 110.327 118.196C110.497 118.608 110.582 119.05 110.579 119.495Z" fill="#A8BDC8" fill-opacity="0.3"/>
<path d="M6.82024 138.996C6.82024 139.67 6.61949 140.33 6.24339 140.891C5.86728 141.452 5.33269 141.889 4.70725 142.147C4.08182 142.405 3.39356 142.473 2.7296 142.341C2.06564 142.21 1.45576 141.885 0.977071 141.408C0.49838 140.931 0.172464 140.323 0.0403933 139.661C-0.0916772 138.999 -0.0239469 138.314 0.235119 137.69C0.494184 137.067 0.932886 136.534 1.49577 136.159C2.05865 135.785 2.72037 135.584 3.39734 135.584C4.30513 135.584 5.17586 135.944 5.81777 136.584C6.45967 137.223 6.82024 138.091 6.82024 138.996Z" fill="#A8BDC8" fill-opacity="0.3"/>
<path d="M27.5611 138.996C27.556 139.664 27.3525 140.316 26.9761 140.87C26.5997 141.423 26.0674 141.853 25.4462 142.106C24.825 142.358 24.1429 142.421 23.4855 142.288C22.8282 142.154 22.2252 141.83 21.7527 141.355C21.2801 140.881 20.959 140.278 20.83 139.621C20.701 138.965 20.7698 138.286 21.0277 137.669C21.2856 137.052 21.7209 136.524 22.279 136.153C22.8371 135.782 23.4929 135.584 24.1637 135.584C24.612 135.584 25.0559 135.673 25.4697 135.845C25.8836 136.016 26.2593 136.268 26.5751 136.585C26.8909 136.902 27.1407 137.278 27.3099 137.692C27.4791 138.106 27.5644 138.549 27.5611 138.996Z" fill="#A8BDC8" fill-opacity="0.3"/>
<path d="M48.328 138.996C48.328 139.67 48.1273 140.33 47.7512 140.891C47.3751 141.452 46.8405 141.889 46.2151 142.147C45.5896 142.405 44.9014 142.473 44.2374 142.341C43.5734 142.21 42.9636 141.885 42.4849 141.408C42.0062 140.931 41.6803 140.323 41.5482 139.661C41.4161 138.999 41.4839 138.314 41.7429 137.69C42.002 137.067 42.4407 136.534 43.0036 136.159C43.5665 135.785 44.2282 135.584 44.9052 135.584C45.8129 135.584 46.6837 135.944 47.3256 136.584C47.9675 137.223 48.328 138.091 48.328 138.996Z" fill="#A8BDC8" fill-opacity="0.3"/>
<path d="M69.0689 138.996C69.0638 139.664 68.8603 140.316 68.4839 140.87C68.1076 141.423 67.5752 141.853 66.954 142.106C66.3328 142.358 65.6507 142.421 64.9934 142.288C64.336 142.154 63.733 141.83 63.2605 141.355C62.7879 140.881 62.4669 140.278 62.3378 139.621C62.2088 138.965 62.2776 138.286 62.5355 137.669C62.7934 137.052 63.2287 136.524 63.7868 136.153C64.3449 135.782 65.0007 135.584 65.6715 135.584C66.1198 135.584 66.5637 135.673 66.9776 135.845C67.3914 136.016 67.7671 136.268 68.0829 136.585C68.3987 136.902 68.6485 137.278 68.8177 137.692C68.9869 138.106 69.0722 138.549 69.0689 138.996Z" fill="#A8BDC8" fill-opacity="0.3"/>
<path d="M89.8359 138.996C89.8359 139.67 89.6351 140.33 89.259 140.891C88.8829 141.452 88.3483 141.889 87.7229 142.147C87.0974 142.405 86.4092 142.473 85.7452 142.341C85.0813 142.21 84.4714 141.885 83.9927 141.408C83.514 140.931 83.1881 140.323 83.056 139.661C82.9239 138.999 82.9917 138.314 83.2507 137.69C83.5098 137.067 83.9485 136.534 84.5114 136.159C85.0743 135.785 85.736 135.584 86.413 135.584C87.3208 135.584 88.1915 135.944 88.8334 136.584C89.4753 137.223 89.8359 138.091 89.8359 138.996Z" fill="#A8BDC8" fill-opacity="0.3"/>
<path d="M110.579 138.996C110.574 139.664 110.37 140.316 109.994 140.87C109.617 141.423 109.085 141.853 108.464 142.106C107.843 142.358 107.16 142.421 106.503 142.288C105.846 142.154 105.243 141.83 104.77 141.355C104.298 140.881 103.977 140.278 103.848 139.621C103.719 138.965 103.787 138.286 104.045 137.669C104.303 137.052 104.738 136.524 105.297 136.153C105.855 135.782 106.51 135.584 107.181 135.584C107.63 135.584 108.073 135.673 108.487 135.845C108.901 136.016 109.277 136.268 109.593 136.585C109.908 136.902 110.158 137.278 110.327 137.692C110.497 138.106 110.582 138.549 110.579 138.996Z" fill="#A8BDC8" fill-opacity="0.3"/>
<path d="M6.81938 158.623C6.8043 159.294 6.59074 159.946 6.20558 160.497C5.82042 161.048 5.28079 161.473 4.65417 161.719C4.02755 161.966 3.3419 162.023 2.68306 161.883C2.02423 161.743 1.42155 161.412 0.95049 160.932C0.479435 160.452 0.160994 159.844 0.035016 159.184C-0.0909622 158.525 -0.0189521 157.843 0.242214 157.224C0.50338 156.605 0.942073 156.077 1.50317 155.705C2.06427 155.334 2.72281 155.135 3.39648 155.135C3.8525 155.135 4.30398 155.226 4.72433 155.402C5.14468 155.578 5.52549 155.836 5.84435 156.161C6.16321 156.486 6.41372 156.871 6.58116 157.294C6.74859 157.717 6.82959 158.169 6.81938 158.623Z" fill="#A8BDC8" fill-opacity="0.3"/>
<path d="M27.5615 158.623C27.5415 159.288 27.3252 159.932 26.9399 160.475C26.5546 161.019 26.0173 161.437 25.3951 161.677C24.7728 161.918 24.0933 161.971 23.4411 161.829C22.789 161.687 22.1931 161.357 21.7282 160.879C21.2632 160.402 20.9498 159.799 20.8267 159.145C20.7037 158.491 20.7767 157.816 21.0366 157.203C21.2965 156.59 21.7316 156.067 22.2879 155.7C22.8441 155.332 23.4967 155.136 24.1642 155.135C24.6191 155.135 25.0695 155.226 25.4885 155.402C25.9074 155.579 26.2865 155.837 26.6033 156.163C26.9202 156.488 27.1682 156.873 27.3328 157.296C27.4974 157.719 27.5752 158.17 27.5615 158.623Z" fill="#A8BDC8" fill-opacity="0.3"/>
<path d="M48.3291 158.623C48.3141 159.294 48.1005 159.946 47.7153 160.497C47.3302 161.048 46.7906 161.473 46.1639 161.719C45.5373 161.966 44.8517 162.023 44.1928 161.883C43.534 161.743 42.9313 161.412 42.4603 160.932C41.9892 160.452 41.6708 159.844 41.5448 159.184C41.4188 158.525 41.4908 157.843 41.752 157.224C42.0131 156.605 42.4518 156.077 43.0129 155.705C43.574 155.334 44.2326 155.135 44.9062 155.135C45.3623 155.135 45.8137 155.226 46.2341 155.402C46.6544 155.578 47.0353 155.836 47.3541 156.161C47.673 156.486 47.9235 156.871 48.0909 157.294C48.2584 157.717 48.3394 158.169 48.3291 158.623Z" fill="#A8BDC8" fill-opacity="0.3"/>
<path d="M69.0693 158.623C69.0493 159.288 68.833 159.932 68.4477 160.475C68.0625 161.019 67.5252 161.437 66.9029 161.677C66.2806 161.918 65.6011 161.971 64.9489 161.829C64.2968 161.687 63.7009 161.357 63.236 160.879C62.771 160.402 62.4576 159.799 62.3346 159.145C62.2115 158.491 62.2845 157.816 62.5444 157.203C62.8043 156.59 63.2394 156.067 63.7957 155.7C64.3519 155.332 65.0045 155.136 65.672 155.135C66.1269 155.135 66.5773 155.226 66.9963 155.402C67.4153 155.579 67.7943 155.837 68.1111 156.163C68.428 156.488 68.676 156.873 68.8406 157.296C69.0052 157.719 69.083 158.17 69.0693 158.623Z" fill="#A8BDC8" fill-opacity="0.3"/>
<path d="M89.837 158.623C89.8219 159.294 89.6083 159.946 89.2232 160.497C88.838 161.048 88.2984 161.473 87.6717 161.719C87.0451 161.966 86.3595 162.023 85.7006 161.883C85.0418 161.743 84.4391 161.412 83.9681 160.932C83.497 160.452 83.1786 159.844 83.0526 159.184C82.9266 158.525 82.9986 157.843 83.2598 157.224C83.521 156.605 83.9597 156.077 84.5208 155.705C85.0819 155.334 85.7404 155.135 86.4141 155.135C86.8701 155.135 87.3216 155.226 87.7419 155.402C88.1623 155.578 88.5431 155.836 88.8619 156.161C89.1808 156.486 89.4313 156.871 89.5987 157.294C89.7662 157.717 89.8472 158.169 89.837 158.623Z" fill="#A8BDC8" fill-opacity="0.3"/>
<path d="M110.578 158.623C110.558 159.288 110.342 159.932 109.957 160.475C109.571 161.019 109.034 161.437 108.412 161.677C107.789 161.918 107.11 161.971 106.458 161.829C105.806 161.687 105.21 161.357 104.745 160.879C104.28 160.402 103.966 159.799 103.843 159.145C103.72 158.491 103.793 157.816 104.053 157.203C104.313 156.59 104.748 156.067 105.304 155.7C105.861 155.332 106.513 155.136 107.181 155.135C107.636 155.135 108.086 155.226 108.505 155.402C108.924 155.579 109.303 155.837 109.62 156.163C109.937 156.488 110.185 156.873 110.349 157.296C110.514 157.719 110.592 158.17 110.578 158.623Z" fill="#A8BDC8" fill-opacity="0.3"/>
<path d="M6.8201 177.36C6.82516 178.035 6.62874 178.697 6.25573 179.262C5.88271 179.826 5.34987 180.267 4.7249 180.529C4.09992 180.791 3.41101 180.862 2.74537 180.734C2.07973 180.605 1.46739 180.282 0.986138 179.806C0.504888 179.33 0.176443 178.722 0.0422889 178.06C-0.0918652 177.397 -0.0256492 176.71 0.232649 176.085C0.490947 175.461 0.929564 174.926 1.49299 174.55C2.05641 174.174 2.71915 173.974 3.39721 173.974C3.84549 173.97 4.29012 174.055 4.70525 174.224C5.12038 174.393 5.4979 174.642 5.81608 174.956C6.13425 175.271 6.38679 175.645 6.55912 176.058C6.73144 176.47 6.82012 176.913 6.8201 177.36Z" fill="#A8BDC8" fill-opacity="0.3"/>
<path d="M27.5612 177.36C27.5612 178.029 27.362 178.684 26.9887 179.241C26.6154 179.797 26.0847 180.231 25.464 180.488C24.8432 180.744 24.1601 180.811 23.5011 180.68C22.8421 180.55 22.2368 180.227 21.7617 179.754C21.2866 179.28 20.963 178.677 20.8319 178.02C20.7008 177.363 20.7681 176.683 21.0252 176.064C21.2823 175.445 21.7178 174.916 22.2765 174.544C22.8352 174.172 23.492 173.974 24.1639 173.974C24.611 173.97 25.0543 174.056 25.468 174.225C25.8817 174.394 26.2576 174.643 26.5737 174.958C26.8899 175.273 27.1401 175.648 27.3096 176.06C27.4791 176.472 27.5646 176.914 27.5612 177.36Z" fill="#A8BDC8" fill-opacity="0.3"/>
<path d="M48.3279 177.36C48.333 178.035 48.1366 178.697 47.7635 179.262C47.3905 179.826 46.8577 180.267 46.2327 180.529C45.6077 180.791 44.9188 180.862 44.2532 180.734C43.5875 180.605 42.9752 180.282 42.494 179.806C42.0127 179.33 41.6843 178.722 41.5501 178.06C41.4159 177.397 41.4822 176.71 41.7405 176.085C41.9988 175.461 42.4374 174.926 43.0008 174.55C43.5642 174.174 44.227 173.974 44.905 173.974C45.3533 173.97 45.7979 174.055 46.2131 174.224C46.6282 174.393 47.0057 174.642 47.3239 174.956C47.6421 175.271 47.8946 175.645 48.0669 176.058C48.2393 176.47 48.3279 176.913 48.3279 177.36Z" fill="#A8BDC8" fill-opacity="0.3"/>
<path d="M69.069 177.36C69.069 178.029 68.8698 178.684 68.4965 179.241C68.1232 179.797 67.5926 180.231 66.9718 180.488C66.351 180.744 65.668 180.811 65.0089 180.68C64.3499 180.55 63.7446 180.227 63.2695 179.754C62.7944 179.28 62.4708 178.677 62.3397 178.02C62.2086 177.363 62.2759 176.683 62.533 176.064C62.7901 175.445 63.2256 174.916 63.7843 174.544C64.343 174.172 64.9998 173.974 65.6717 173.974C66.1188 173.97 66.5621 174.056 66.9758 174.225C67.3896 174.394 67.7654 174.643 68.0815 174.958C68.3977 175.273 68.6479 175.648 68.8174 176.06C68.9869 176.472 69.0724 176.914 69.069 177.36Z" fill="#A8BDC8" fill-opacity="0.3"/>
<path d="M89.8367 177.36C89.8418 178.035 89.6453 178.697 89.2723 179.262C88.8993 179.826 88.3665 180.267 87.7415 180.529C87.1165 180.791 86.4276 180.862 85.762 180.734C85.0963 180.605 84.484 180.282 84.0027 179.806C83.5215 179.33 83.193 178.722 83.0589 178.06C82.9247 177.397 82.991 176.71 83.2493 176.085C83.5075 175.461 83.9462 174.926 84.5096 174.55C85.073 174.174 85.7358 173.974 86.4138 173.974C86.8621 173.97 87.3067 174.055 87.7219 174.224C88.137 174.393 88.5145 174.642 88.8327 174.956C89.1509 175.271 89.4034 175.645 89.5757 176.058C89.748 176.47 89.8367 176.913 89.8367 177.36Z" fill="#A8BDC8" fill-opacity="0.3"/>
<path d="M110.579 177.36C110.579 178.029 110.38 178.684 110.006 179.241C109.633 179.797 109.102 180.231 108.482 180.488C107.861 180.744 107.178 180.811 106.519 180.68C105.86 180.55 105.254 180.227 104.779 179.754C104.304 179.28 103.981 178.677 103.849 178.02C103.718 177.363 103.786 176.683 104.043 176.064C104.3 175.445 104.735 174.916 105.294 174.544C105.853 174.172 106.51 173.974 107.181 173.974C107.629 173.97 108.072 174.056 108.486 174.225C108.899 174.394 109.275 174.643 109.591 174.958C109.907 175.273 110.158 175.648 110.327 176.06C110.497 176.472 110.582 176.914 110.579 177.36Z" fill="#A8BDC8" fill-opacity="0.3"/>
<path d="M6.82024 196.987C6.82024 197.662 6.61949 198.321 6.24339 198.882C5.86728 199.443 5.33269 199.88 4.70725 200.139C4.08182 200.397 3.39356 200.464 2.7296 200.333C2.06564 200.201 1.45576 199.876 0.977071 199.399C0.49838 198.922 0.172464 198.314 0.0403933 197.652C-0.0916772 196.991 -0.0239469 196.305 0.235119 195.682C0.494184 195.058 0.932886 194.525 1.49577 194.151C2.05865 193.776 2.72037 193.576 3.39734 193.576C4.30513 193.576 5.17586 193.935 5.81777 194.575C6.45967 195.215 6.82024 196.082 6.82024 196.987Z" fill="#A8BDC8" fill-opacity="0.3"/>
<path d="M27.5611 196.987C27.556 197.655 27.3525 198.308 26.9761 198.861C26.5997 199.414 26.0674 199.844 25.4462 200.097C24.825 200.349 24.1429 200.413 23.4855 200.279C22.8282 200.146 22.2252 199.821 21.7527 199.347C21.2801 198.872 20.959 198.269 20.83 197.613C20.701 196.957 20.7698 196.277 21.0277 195.66C21.2856 195.043 21.7209 194.516 22.279 194.145C22.8371 193.774 23.4929 193.576 24.1637 193.576C24.612 193.576 25.0559 193.664 25.4697 193.836C25.8836 194.008 26.2593 194.259 26.5751 194.576C26.8909 194.893 27.1407 195.27 27.3099 195.683C27.4791 196.097 27.5644 196.54 27.5611 196.987Z" fill="#A8BDC8" fill-opacity="0.3"/>
<path d="M48.328 196.987C48.328 197.662 48.1273 198.321 47.7512 198.882C47.3751 199.443 46.8405 199.88 46.2151 200.139C45.5896 200.397 44.9014 200.464 44.2374 200.333C43.5734 200.201 42.9636 199.876 42.4849 199.399C42.0062 198.922 41.6803 198.314 41.5482 197.652C41.4161 196.991 41.4839 196.305 41.7429 195.682C42.002 195.058 42.4407 194.525 43.0036 194.151C43.5665 193.776 44.2282 193.576 44.9052 193.576C45.8129 193.576 46.6837 193.935 47.3256 194.575C47.9675 195.215 48.328 196.082 48.328 196.987Z" fill="#A8BDC8" fill-opacity="0.3"/>
<path d="M69.0689 196.987C69.0638 197.655 68.8603 198.308 68.4839 198.861C68.1076 199.414 67.5752 199.844 66.954 200.097C66.3328 200.349 65.6507 200.413 64.9934 200.279C64.336 200.146 63.733 199.821 63.2605 199.347C62.7879 198.872 62.4669 198.269 62.3378 197.613C62.2088 196.957 62.2776 196.277 62.5355 195.66C62.7934 195.043 63.2287 194.516 63.7868 194.145C64.3449 193.774 65.0007 193.576 65.6715 193.576C66.1198 193.576 66.5637 193.664 66.9776 193.836C67.3914 194.008 67.7671 194.259 68.0829 194.576C68.3987 194.893 68.6485 195.27 68.8177 195.683C68.9869 196.097 69.0722 196.54 69.0689 196.987Z" fill="#A8BDC8" fill-opacity="0.3"/>
<path d="M89.8359 196.987C89.8359 197.662 89.6351 198.321 89.259 198.882C88.8829 199.443 88.3483 199.88 87.7229 200.139C87.0974 200.397 86.4092 200.464 85.7452 200.333C85.0813 200.201 84.4714 199.876 83.9927 199.399C83.514 198.922 83.1881 198.314 83.056 197.652C82.9239 196.991 82.9917 196.305 83.2507 195.682C83.5098 195.058 83.9485 194.525 84.5114 194.151C85.0743 193.776 85.736 193.576 86.413 193.576C87.3208 193.576 88.1915 193.935 88.8334 194.575C89.4753 195.215 89.8359 196.082 89.8359 196.987Z" fill="#A8BDC8" fill-opacity="0.3"/>
<path d="M110.579 196.987C110.574 197.655 110.37 198.308 109.994 198.861C109.617 199.414 109.085 199.844 108.464 200.097C107.843 200.349 107.16 200.413 106.503 200.279C105.846 200.146 105.243 199.821 104.77 199.347C104.298 198.872 103.977 198.269 103.848 197.613C103.719 196.957 103.787 196.277 104.045 195.66C104.303 195.043 104.738 194.516 105.297 194.145C105.855 193.774 106.51 193.576 107.181 193.576C107.63 193.576 108.073 193.664 108.487 193.836C108.901 194.008 109.277 194.259 109.593 194.576C109.908 194.893 110.158 195.27 110.327 195.683C110.497 196.097 110.582 196.54 110.579 196.987Z" fill="#A8BDC8" fill-opacity="0.3"/>
<path d="M6.82024 216.614C6.82024 217.289 6.61949 217.949 6.24339 218.51C5.86728 219.071 5.33269 219.508 4.70725 219.766C4.08182 220.024 3.39356 220.092 2.7296 219.96C2.06564 219.828 1.45576 219.504 0.977071 219.027C0.49838 218.549 0.172464 217.942 0.0403933 217.28C-0.0916772 216.618 -0.0239469 215.932 0.235119 215.309C0.494184 214.686 0.932886 214.153 1.49577 213.778C2.05865 213.403 2.72037 213.203 3.39734 213.203C4.30513 213.203 5.17586 213.563 5.81777 214.202C6.45967 214.842 6.82024 215.71 6.82024 216.614Z" fill="#A8BDC8" fill-opacity="0.3"/>
<path d="M27.5611 216.614C27.556 217.283 27.3525 217.935 26.9761 218.488C26.5997 219.042 26.0674 219.472 25.4462 219.724C24.825 219.977 24.1429 220.04 23.4855 219.907C22.8282 219.773 22.2252 219.449 21.7527 218.974C21.2801 218.5 20.959 217.896 20.83 217.24C20.701 216.584 20.7698 215.905 21.0277 215.287C21.2856 214.67 21.7209 214.143 22.279 213.772C22.8371 213.401 23.4929 213.203 24.1637 213.203C24.612 213.203 25.0559 213.292 25.4697 213.463C25.8836 213.635 26.2593 213.887 26.5751 214.204C26.8909 214.521 27.1407 214.897 27.3099 215.311C27.4791 215.725 27.5644 216.168 27.5611 216.614Z" fill="#A8BDC8" fill-opacity="0.3"/>
<path d="M48.328 216.614C48.328 217.289 48.1273 217.949 47.7512 218.51C47.3751 219.071 46.8405 219.508 46.2151 219.766C45.5896 220.024 44.9014 220.092 44.2374 219.96C43.5734 219.828 42.9636 219.504 42.4849 219.027C42.0062 218.549 41.6803 217.942 41.5482 217.28C41.4161 216.618 41.4839 215.932 41.7429 215.309C42.002 214.686 42.4407 214.153 43.0036 213.778C43.5665 213.403 44.2282 213.203 44.9052 213.203C45.8129 213.203 46.6837 213.563 47.3256 214.202C47.9675 214.842 48.328 215.71 48.328 216.614Z" fill="#A8BDC8" fill-opacity="0.3"/>
<path d="M69.0689 216.614C69.0638 217.283 68.8603 217.935 68.4839 218.488C68.1076 219.042 67.5752 219.472 66.954 219.724C66.3328 219.977 65.6507 220.04 64.9934 219.907C64.336 219.773 63.733 219.449 63.2605 218.974C62.7879 218.5 62.4669 217.896 62.3378 217.24C62.2088 216.584 62.2776 215.905 62.5355 215.287C62.7934 214.67 63.2287 214.143 63.7868 213.772C64.3449 213.401 65.0007 213.203 65.6715 213.203C66.1198 213.203 66.5637 213.292 66.9776 213.463C67.3914 213.635 67.7671 213.887 68.0829 214.204C68.3987 214.521 68.6485 214.897 68.8177 215.311C68.9869 215.725 69.0722 216.168 69.0689 216.614Z" fill="#A8BDC8" fill-opacity="0.3"/>
<path d="M89.8359 216.614C89.8359 217.289 89.6351 217.949 89.259 218.51C88.8829 219.071 88.3483 219.508 87.7229 219.766C87.0974 220.024 86.4092 220.092 85.7452 219.96C85.0813 219.828 84.4714 219.504 83.9927 219.027C83.514 218.549 83.1881 217.942 83.056 217.28C82.9239 216.618 82.9917 215.932 83.2507 215.309C83.5098 214.686 83.9485 214.153 84.5114 213.778C85.0743 213.403 85.736 213.203 86.413 213.203C87.3208 213.203 88.1915 213.563 88.8334 214.202C89.4753 214.842 89.8359 215.71 89.8359 216.614Z" fill="#A8BDC8" fill-opacity="0.3"/>
<path d="M110.579 216.614C110.574 217.283 110.37 217.935 109.994 218.488C109.617 219.042 109.085 219.472 108.464 219.724C107.843 219.977 107.16 220.04 106.503 219.907C105.846 219.773 105.243 219.449 104.77 218.974C104.298 218.5 103.977 217.896 103.848 217.24C103.719 216.584 103.787 215.905 104.045 215.287C104.303 214.67 104.738 214.143 105.297 213.772C105.855 213.401 106.51 213.203 107.181 213.203C107.63 213.203 108.073 213.292 108.487 213.463C108.901 213.635 109.277 213.887 109.593 214.204C109.908 214.521 110.158 214.897 110.327 215.311C110.497 215.725 110.582 216.168 110.579 216.614Z" fill="#A8BDC8" fill-opacity="0.3"/>
<path d="M131.243 119.495C131.248 120.171 131.052 120.833 130.679 121.397C130.306 121.962 129.773 122.403 129.148 122.665C128.523 122.927 127.834 122.998 127.168 122.87C126.503 122.741 125.89 122.418 125.409 121.942C124.928 121.466 124.599 120.858 124.465 120.196C124.331 119.533 124.397 118.846 124.656 118.221C124.914 117.596 125.353 117.062 125.916 116.686C126.479 116.31 127.142 116.109 127.82 116.109C128.268 116.106 128.713 116.191 129.128 116.36C129.543 116.529 129.921 116.777 130.239 117.092C130.557 117.407 130.81 117.781 130.982 118.194C131.154 118.606 131.243 119.048 131.243 119.495Z" fill="#A8BDC8" fill-opacity="0.3"/>
<path d="M151.984 119.495C151.984 120.165 151.785 120.82 151.411 121.376C151.038 121.933 150.508 122.367 149.887 122.623C149.266 122.88 148.583 122.947 147.924 122.816C147.265 122.685 146.66 122.363 146.185 121.889C145.709 121.416 145.386 120.813 145.255 120.156C145.124 119.499 145.191 118.818 145.448 118.2C145.705 117.581 146.141 117.052 146.699 116.68C147.258 116.308 147.915 116.109 148.587 116.109C149.034 116.106 149.477 116.191 149.891 116.36C150.305 116.529 150.68 116.779 150.997 117.094C151.313 117.409 151.563 117.783 151.732 118.196C151.902 118.608 151.987 119.05 151.984 119.495Z" fill="#A8BDC8" fill-opacity="0.3"/>
<path d="M172.751 119.495C172.756 120.171 172.56 120.833 172.187 121.397C171.813 121.962 171.281 122.403 170.656 122.665C170.031 122.927 169.342 122.998 168.676 122.87C168.01 122.741 167.398 122.418 166.917 121.942C166.436 121.466 166.107 120.858 165.973 120.196C165.839 119.533 165.905 118.846 166.163 118.221C166.422 117.596 166.86 117.062 167.424 116.686C167.987 116.31 168.65 116.109 169.328 116.109C169.776 116.106 170.221 116.191 170.636 116.36C171.051 116.529 171.429 116.777 171.747 117.092C172.065 117.407 172.317 117.781 172.49 118.194C172.662 118.606 172.751 119.048 172.751 119.495Z" fill="#A8BDC8" fill-opacity="0.3"/>
<path d="M193.492 119.495C193.492 120.165 193.293 120.82 192.919 121.376C192.546 121.933 192.015 122.367 191.395 122.623C190.774 122.88 190.091 122.947 189.432 122.816C188.773 122.685 188.167 122.363 187.692 121.889C187.217 121.416 186.894 120.813 186.763 120.156C186.631 119.499 186.699 118.818 186.956 118.2C187.213 117.581 187.648 117.052 188.207 116.68C188.766 116.308 189.423 116.109 190.095 116.109C190.542 116.106 190.985 116.191 191.399 116.36C191.812 116.529 192.188 116.779 192.504 117.094C192.821 117.409 193.071 117.783 193.24 118.196C193.41 118.608 193.495 119.05 193.492 119.495Z" fill="#A8BDC8" fill-opacity="0.3"/>
<path d="M214.258 119.495C214.263 120.171 214.066 120.833 213.693 121.397C213.32 121.962 212.787 122.403 212.163 122.665C211.538 122.927 210.848 122.998 210.183 122.87C209.517 122.741 208.905 122.418 208.424 121.942C207.943 121.466 207.614 120.858 207.48 120.196C207.346 119.533 207.412 118.846 207.67 118.221C207.929 117.596 208.367 117.062 208.931 116.686C209.494 116.31 210.157 116.109 210.835 116.109C211.283 116.106 211.728 116.191 212.143 116.36C212.558 116.529 212.936 116.777 213.254 117.092C213.572 117.407 213.824 117.781 213.997 118.194C214.169 118.606 214.258 119.048 214.258 119.495Z" fill="#A8BDC8" fill-opacity="0.3"/>
<path d="M235.001 119.495C235.001 120.165 234.801 120.82 234.428 121.376C234.055 121.933 233.524 122.367 232.903 122.623C232.283 122.88 231.6 122.947 230.941 122.816C230.282 122.685 229.676 122.363 229.201 121.889C228.726 121.416 228.402 120.813 228.271 120.156C228.14 119.499 228.208 118.818 228.465 118.2C228.722 117.581 229.157 117.052 229.716 116.68C230.275 116.308 230.931 116.109 231.603 116.109C232.05 116.106 232.494 116.191 232.907 116.36C233.321 116.529 233.697 116.779 234.013 117.094C234.329 117.409 234.579 117.783 234.749 118.196C234.918 118.608 235.004 119.05 235.001 119.495Z" fill="#A8BDC8" fill-opacity="0.3"/>
<path d="M131.243 138.996C131.243 139.67 131.042 140.33 130.666 140.891C130.29 141.452 129.756 141.889 129.13 142.147C128.505 142.405 127.817 142.473 127.153 142.341C126.489 142.21 125.879 141.885 125.4 141.408C124.921 140.931 124.595 140.323 124.463 139.661C124.331 138.999 124.399 138.314 124.658 137.69C124.917 137.067 125.356 136.534 125.919 136.159C126.482 135.785 127.143 135.584 127.82 135.584C128.728 135.584 129.599 135.944 130.241 136.584C130.882 137.223 131.243 138.091 131.243 138.996Z" fill="#A8BDC8" fill-opacity="0.3"/>
<path d="M151.984 138.996C151.979 139.664 151.775 140.316 151.399 140.87C151.023 141.423 150.49 141.853 149.869 142.106C149.248 142.358 148.566 142.421 147.908 142.288C147.251 142.154 146.648 141.83 146.176 141.355C145.703 140.881 145.382 140.278 145.253 139.621C145.124 138.965 145.193 138.286 145.45 137.669C145.708 137.052 146.144 136.524 146.702 136.153C147.26 135.782 147.916 135.584 148.587 135.584C149.035 135.584 149.479 135.673 149.893 135.845C150.306 136.016 150.682 136.268 150.998 136.585C151.314 136.902 151.563 137.278 151.733 137.692C151.902 138.106 151.987 138.549 151.984 138.996Z" fill="#A8BDC8" fill-opacity="0.3"/>
<path d="M172.751 138.996C172.751 139.67 172.55 140.33 172.174 140.891C171.798 141.452 171.263 141.889 170.638 142.147C170.013 142.405 169.324 142.473 168.66 142.341C167.996 142.21 167.387 141.885 166.908 141.408C166.429 140.931 166.103 140.323 165.971 139.661C165.839 138.999 165.907 138.314 166.166 137.69C166.425 137.067 166.864 136.534 167.427 136.159C167.989 135.785 168.651 135.584 169.328 135.584C170.236 135.584 171.106 135.944 171.748 136.584C172.39 137.223 172.751 138.091 172.751 138.996Z" fill="#A8BDC8" fill-opacity="0.3"/>
<path d="M193.492 138.996C193.487 139.664 193.283 140.316 192.907 140.87C192.53 141.423 191.998 141.853 191.377 142.106C190.756 142.358 190.073 142.421 189.416 142.288C188.759 142.154 188.156 141.83 187.683 141.355C187.211 140.881 186.89 140.278 186.761 139.621C186.632 138.965 186.7 138.286 186.958 137.669C187.216 137.052 187.652 136.524 188.21 136.153C188.768 135.782 189.424 135.584 190.094 135.584C190.543 135.584 190.987 135.673 191.4 135.845C191.814 136.016 192.19 136.268 192.506 136.585C192.822 136.902 193.071 137.278 193.24 137.692C193.41 138.106 193.495 138.549 193.492 138.996Z" fill="#A8BDC8" fill-opacity="0.3"/>
<path d="M214.258 138.996C214.258 139.67 214.057 140.33 213.681 140.891C213.305 141.452 212.77 141.889 212.145 142.147C211.519 142.405 210.831 142.473 210.167 142.341C209.503 142.21 208.893 141.885 208.415 141.408C207.936 140.931 207.61 140.323 207.478 139.661C207.346 138.999 207.414 138.314 207.673 137.69C207.932 137.067 208.371 136.534 208.933 136.159C209.496 135.785 210.158 135.584 210.835 135.584C211.743 135.584 212.613 135.944 213.255 136.584C213.897 137.223 214.258 138.091 214.258 138.996Z" fill="#A8BDC8" fill-opacity="0.3"/>
<path d="M235.001 138.996C234.996 139.664 234.792 140.316 234.416 140.87C234.039 141.423 233.507 141.853 232.886 142.106C232.264 142.358 231.582 142.421 230.925 142.288C230.268 142.154 229.665 141.83 229.192 141.355C228.72 140.881 228.399 140.278 228.27 139.621C228.14 138.965 228.209 138.286 228.467 137.669C228.725 137.052 229.16 136.524 229.718 136.153C230.277 135.782 230.932 135.584 231.603 135.584C232.052 135.584 232.495 135.673 232.909 135.845C233.323 136.016 233.699 136.268 234.015 136.585C234.33 136.902 234.58 137.278 234.749 137.692C234.918 138.106 235.004 138.549 235.001 138.996Z" fill="#A8BDC8" fill-opacity="0.3"/>
<path d="M131.242 158.623C131.227 159.294 131.014 159.946 130.629 160.497C130.243 161.048 129.704 161.473 129.077 161.719C128.451 161.966 127.765 162.023 127.106 161.883C126.447 161.743 125.845 161.412 125.373 160.932C124.902 160.452 124.584 159.844 124.458 159.184C124.332 158.525 124.404 157.843 124.665 157.224C124.926 156.605 125.365 156.077 125.926 155.705C126.487 155.334 127.146 155.135 127.819 155.135C128.275 155.135 128.727 155.226 129.147 155.402C129.568 155.578 129.948 155.836 130.267 156.161C130.586 156.486 130.837 156.871 131.004 157.294C131.172 157.717 131.253 158.169 131.242 158.623Z" fill="#A8BDC8" fill-opacity="0.3"/>
<path d="M151.985 158.623C151.964 159.288 151.748 159.932 151.363 160.475C150.978 161.019 150.44 161.437 149.818 161.677C149.196 161.918 148.516 161.971 147.864 161.829C147.212 161.687 146.616 161.357 146.151 160.879C145.686 160.402 145.373 159.799 145.25 159.145C145.127 158.491 145.2 157.816 145.459 157.203C145.719 156.59 146.155 156.067 146.711 155.7C147.267 155.332 147.92 155.136 148.587 155.135C149.042 155.135 149.492 155.226 149.911 155.402C150.33 155.579 150.71 155.837 151.026 156.163C151.343 156.488 151.591 156.873 151.756 157.296C151.92 157.719 151.998 158.17 151.985 158.623Z" fill="#A8BDC8" fill-opacity="0.3"/>
<path d="M172.751 158.623C172.736 159.294 172.522 159.946 172.137 160.497C171.752 161.048 171.213 161.473 170.586 161.719C169.959 161.966 169.274 162.023 168.615 161.883C167.956 161.743 167.353 161.412 166.882 160.932C166.411 160.452 166.093 159.844 165.967 159.184C165.841 158.525 165.913 157.843 166.174 157.224C166.435 156.605 166.874 156.077 167.435 155.705C167.996 155.334 168.655 155.135 169.328 155.135C169.784 155.135 170.236 155.226 170.656 155.402C171.076 155.578 171.457 155.836 171.776 156.161C172.095 156.486 172.345 156.871 172.513 157.294C172.68 157.717 172.761 158.169 172.751 158.623Z" fill="#A8BDC8" fill-opacity="0.3"/>
<path d="M193.491 158.623C193.471 159.288 193.255 159.932 192.87 160.475C192.484 161.019 191.947 161.437 191.325 161.677C190.703 161.918 190.023 161.971 189.371 161.829C188.719 161.687 188.123 161.357 187.658 160.879C187.193 160.402 186.879 159.799 186.756 159.145C186.633 158.491 186.706 157.816 186.966 157.203C187.226 156.59 187.661 156.067 188.218 155.7C188.774 155.332 189.427 155.136 190.094 155.135C190.549 155.135 190.999 155.226 191.418 155.402C191.837 155.579 192.216 155.837 192.533 156.163C192.85 156.488 193.098 156.873 193.263 157.296C193.427 157.719 193.505 158.17 193.491 158.623Z" fill="#A8BDC8" fill-opacity="0.3"/>
<path d="M214.259 158.623C214.244 159.294 214.03 159.946 213.645 160.497C213.26 161.048 212.72 161.473 212.094 161.719C211.467 161.966 210.781 162.023 210.123 161.883C209.464 161.743 208.861 161.412 208.39 160.932C207.919 160.452 207.6 159.844 207.474 159.184C207.348 158.525 207.421 157.843 207.682 157.224C207.943 156.605 208.381 156.077 208.943 155.705C209.504 155.334 210.162 155.135 210.836 155.135C211.292 155.135 211.744 155.226 212.164 155.402C212.584 155.578 212.965 155.836 213.284 156.161C213.603 156.486 213.853 156.871 214.021 157.294C214.188 157.717 214.269 158.169 214.259 158.623Z" fill="#A8BDC8" fill-opacity="0.3"/>
<path d="M235.001 158.623C234.981 159.288 234.765 159.932 234.38 160.475C233.994 161.019 233.457 161.437 232.835 161.677C232.212 161.918 231.533 161.971 230.881 161.829C230.228 161.687 229.633 161.357 229.168 160.879C228.703 160.402 228.389 159.799 228.266 159.145C228.143 158.491 228.216 157.816 228.476 157.203C228.736 156.59 229.171 156.067 229.727 155.7C230.284 155.332 230.936 155.136 231.604 155.135C232.059 155.135 232.509 155.226 232.928 155.402C233.347 155.579 233.726 155.837 234.043 156.163C234.36 156.488 234.608 156.873 234.772 157.296C234.937 157.719 235.015 158.17 235.001 158.623Z" fill="#A8BDC8" fill-opacity="0.3"/>
<path d="M131.243 177.36C131.248 178.035 131.052 178.697 130.679 179.262C130.306 179.826 129.773 180.267 129.148 180.529C128.523 180.791 127.834 180.862 127.168 180.734C126.503 180.605 125.89 180.282 125.409 179.806C124.928 179.33 124.599 178.722 124.465 178.06C124.331 177.397 124.397 176.71 124.656 176.085C124.914 175.461 125.353 174.926 125.916 174.55C126.479 174.174 127.142 173.974 127.82 173.974C128.268 173.97 128.713 174.055 129.128 174.224C129.543 174.393 129.921 174.642 130.239 174.956C130.557 175.271 130.81 175.645 130.982 176.058C131.154 176.47 131.243 176.913 131.243 177.36Z" fill="#A8BDC8" fill-opacity="0.3"/>
<path d="M151.984 177.36C151.984 178.029 151.785 178.684 151.411 179.241C151.038 179.797 150.508 180.231 149.887 180.488C149.266 180.744 148.583 180.811 147.924 180.68C147.265 180.55 146.66 180.227 146.185 179.754C145.709 179.28 145.386 178.677 145.255 178.02C145.124 177.363 145.191 176.683 145.448 176.064C145.705 175.445 146.141 174.916 146.699 174.544C147.258 174.172 147.915 173.974 148.587 173.974C149.034 173.97 149.477 174.056 149.891 174.225C150.305 174.394 150.68 174.643 150.997 174.958C151.313 175.273 151.563 175.648 151.732 176.06C151.902 176.472 151.987 176.914 151.984 177.36Z" fill="#A8BDC8" fill-opacity="0.3"/>
<path d="M172.751 177.36C172.756 178.035 172.56 178.697 172.187 179.262C171.813 179.826 171.281 180.267 170.656 180.529C170.031 180.791 169.342 180.862 168.676 180.734C168.01 180.605 167.398 180.282 166.917 179.806C166.436 179.33 166.107 178.722 165.973 178.06C165.839 177.397 165.905 176.71 166.163 176.085C166.422 175.461 166.86 174.926 167.424 174.55C167.987 174.174 168.65 173.974 169.328 173.974C169.776 173.97 170.221 174.055 170.636 174.224C171.051 174.393 171.429 174.642 171.747 174.956C172.065 175.271 172.317 175.645 172.49 176.058C172.662 176.47 172.751 176.913 172.751 177.36Z" fill="#A8BDC8" fill-opacity="0.3"/>
<path d="M193.492 177.36C193.492 178.029 193.293 178.684 192.919 179.241C192.546 179.797 192.015 180.231 191.395 180.488C190.774 180.744 190.091 180.811 189.432 180.68C188.773 180.55 188.167 180.227 187.692 179.754C187.217 179.28 186.894 178.677 186.763 178.02C186.631 177.363 186.699 176.683 186.956 176.064C187.213 175.445 187.648 174.916 188.207 174.544C188.766 174.172 189.423 173.974 190.095 173.974C190.542 173.97 190.985 174.056 191.399 174.225C191.812 174.394 192.188 174.643 192.504 174.958C192.821 175.273 193.071 175.648 193.24 176.06C193.41 176.472 193.495 176.914 193.492 177.36Z" fill="#A8BDC8" fill-opacity="0.3"/>
<path d="M214.258 177.36C214.263 178.035 214.066 178.697 213.693 179.262C213.32 179.826 212.787 180.267 212.163 180.529C211.538 180.791 210.848 180.862 210.183 180.734C209.517 180.605 208.905 180.282 208.424 179.806C207.943 179.33 207.614 178.722 207.48 178.06C207.346 177.397 207.412 176.71 207.67 176.085C207.929 175.461 208.367 174.926 208.931 174.55C209.494 174.174 210.157 173.974 210.835 173.974C211.283 173.97 211.728 174.055 212.143 174.224C212.558 174.393 212.936 174.642 213.254 174.956C213.572 175.271 213.824 175.645 213.997 176.058C214.169 176.47 214.258 176.913 214.258 177.36Z" fill="#A8BDC8" fill-opacity="0.3"/>
<path d="M235.001 177.36C235.001 178.029 234.801 178.684 234.428 179.241C234.055 179.797 233.524 180.231 232.903 180.488C232.283 180.744 231.6 180.811 230.941 180.68C230.282 180.55 229.676 180.227 229.201 179.754C228.726 179.28 228.402 178.677 228.271 178.02C228.14 177.363 228.208 176.683 228.465 176.064C228.722 175.445 229.157 174.916 229.716 174.544C230.275 174.172 230.931 173.974 231.603 173.974C232.05 173.97 232.494 174.056 232.907 174.225C233.321 174.394 233.697 174.643 234.013 174.958C234.329 175.273 234.579 175.648 234.749 176.06C234.918 176.472 235.004 176.914 235.001 177.36Z" fill="#A8BDC8" fill-opacity="0.3"/>
<path d="M131.243 196.987C131.243 197.662 131.042 198.321 130.666 198.882C130.29 199.443 129.756 199.88 129.13 200.139C128.505 200.397 127.817 200.464 127.153 200.333C126.489 200.201 125.879 199.876 125.4 199.399C124.921 198.922 124.595 198.314 124.463 197.652C124.331 196.991 124.399 196.305 124.658 195.682C124.917 195.058 125.356 194.525 125.919 194.151C126.482 193.776 127.143 193.576 127.82 193.576C128.728 193.576 129.599 193.935 130.241 194.575C130.882 195.215 131.243 196.082 131.243 196.987Z" fill="#A8BDC8" fill-opacity="0.3"/>
<path d="M151.984 196.987C151.979 197.655 151.775 198.308 151.399 198.861C151.023 199.414 150.49 199.844 149.869 200.097C149.248 200.349 148.566 200.413 147.908 200.279C147.251 200.146 146.648 199.821 146.176 199.347C145.703 198.872 145.382 198.269 145.253 197.613C145.124 196.957 145.193 196.277 145.45 195.66C145.708 195.043 146.144 194.516 146.702 194.145C147.26 193.774 147.916 193.576 148.587 193.576C149.035 193.576 149.479 193.664 149.893 193.836C150.306 194.008 150.682 194.259 150.998 194.576C151.314 194.893 151.563 195.27 151.733 195.683C151.902 196.097 151.987 196.54 151.984 196.987Z" fill="#A8BDC8" fill-opacity="0.3"/>
<path d="M172.751 196.987C172.751 197.662 172.55 198.321 172.174 198.882C171.798 199.443 171.263 199.88 170.638 200.139C170.013 200.397 169.324 200.464 168.66 200.333C167.996 200.201 167.387 199.876 166.908 199.399C166.429 198.922 166.103 198.314 165.971 197.652C165.839 196.991 165.907 196.305 166.166 195.682C166.425 195.058 166.864 194.525 167.427 194.151C167.989 193.776 168.651 193.576 169.328 193.576C170.236 193.576 171.106 193.935 171.748 194.575C172.39 195.215 172.751 196.082 172.751 196.987Z" fill="#A8BDC8" fill-opacity="0.3"/>
<path d="M193.492 196.987C193.487 197.655 193.283 198.308 192.907 198.861C192.53 199.414 191.998 199.844 191.377 200.097C190.756 200.349 190.073 200.413 189.416 200.279C188.759 200.146 188.156 199.821 187.683 199.347C187.211 198.872 186.89 198.269 186.761 197.613C186.632 196.957 186.7 196.277 186.958 195.66C187.216 195.043 187.652 194.516 188.21 194.145C188.768 193.774 189.424 193.576 190.094 193.576C190.543 193.576 190.987 193.664 191.4 193.836C191.814 194.008 192.19 194.259 192.506 194.576C192.822 194.893 193.071 195.27 193.24 195.683C193.41 196.097 193.495 196.54 193.492 196.987Z" fill="#A8BDC8" fill-opacity="0.3"/>
<path d="M214.258 196.987C214.258 197.662 214.057 198.321 213.681 198.882C213.305 199.443 212.77 199.88 212.145 200.139C211.519 200.397 210.831 200.464 210.167 200.333C209.503 200.201 208.893 199.876 208.415 199.399C207.936 198.922 207.61 198.314 207.478 197.652C207.346 196.991 207.414 196.305 207.673 195.682C207.932 195.058 208.371 194.525 208.933 194.151C209.496 193.776 210.158 193.576 210.835 193.576C211.743 193.576 212.613 193.935 213.255 194.575C213.897 195.215 214.258 196.082 214.258 196.987Z" fill="#A8BDC8" fill-opacity="0.3"/>
<path d="M235.001 196.987C234.996 197.655 234.792 198.308 234.416 198.861C234.039 199.414 233.507 199.844 232.886 200.097C232.264 200.349 231.582 200.413 230.925 200.279C230.268 200.146 229.665 199.821 229.192 199.347C228.72 198.872 228.399 198.269 228.27 197.613C228.14 196.957 228.209 196.277 228.467 195.66C228.725 195.043 229.16 194.516 229.718 194.145C230.277 193.774 230.932 193.576 231.603 193.576C232.052 193.576 232.495 193.664 232.909 193.836C233.323 194.008 233.699 194.259 234.015 194.576C234.33 194.893 234.58 195.27 234.749 195.683C234.918 196.097 235.004 196.54 235.001 196.987Z" fill="#A8BDC8" fill-opacity="0.3"/>
<path d="M131.243 216.614C131.243 217.289 131.042 217.949 130.666 218.51C130.29 219.071 129.756 219.508 129.13 219.766C128.505 220.024 127.817 220.092 127.153 219.96C126.489 219.828 125.879 219.504 125.4 219.027C124.921 218.549 124.595 217.942 124.463 217.28C124.331 216.618 124.399 215.932 124.658 215.309C124.917 214.686 125.356 214.153 125.919 213.778C126.482 213.403 127.143 213.203 127.82 213.203C128.728 213.203 129.599 213.563 130.241 214.202C130.882 214.842 131.243 215.71 131.243 216.614Z" fill="#A8BDC8" fill-opacity="0.3"/>
<path d="M151.984 216.614C151.979 217.283 151.775 217.935 151.399 218.488C151.023 219.042 150.49 219.472 149.869 219.724C149.248 219.977 148.566 220.04 147.908 219.907C147.251 219.773 146.648 219.449 146.176 218.974C145.703 218.5 145.382 217.896 145.253 217.24C145.124 216.584 145.193 215.905 145.45 215.287C145.708 214.67 146.144 214.143 146.702 213.772C147.26 213.401 147.916 213.203 148.587 213.203C149.035 213.203 149.479 213.292 149.893 213.463C150.306 213.635 150.682 213.887 150.998 214.204C151.314 214.521 151.563 214.897 151.733 215.311C151.902 215.725 151.987 216.168 151.984 216.614Z" fill="#A8BDC8" fill-opacity="0.3"/>
<path d="M172.751 216.614C172.751 217.289 172.55 217.949 172.174 218.51C171.798 219.071 171.263 219.508 170.638 219.766C170.013 220.024 169.324 220.092 168.66 219.96C167.996 219.828 167.387 219.504 166.908 219.027C166.429 218.549 166.103 217.942 165.971 217.28C165.839 216.618 165.907 215.932 166.166 215.309C166.425 214.686 166.864 214.153 167.427 213.778C167.989 213.403 168.651 213.203 169.328 213.203C170.236 213.203 171.106 213.563 171.748 214.202C172.39 214.842 172.751 215.71 172.751 216.614Z" fill="#A8BDC8" fill-opacity="0.3"/>
<path d="M193.492 216.614C193.487 217.283 193.283 217.935 192.907 218.488C192.53 219.042 191.998 219.472 191.377 219.724C190.756 219.977 190.073 220.04 189.416 219.907C188.759 219.773 188.156 219.449 187.683 218.974C187.211 218.5 186.89 217.896 186.761 217.24C186.632 216.584 186.7 215.905 186.958 215.287C187.216 214.67 187.652 214.143 188.21 213.772C188.768 213.401 189.424 213.203 190.094 213.203C190.543 213.203 190.987 213.292 191.4 213.463C191.814 213.635 192.19 213.887 192.506 214.204C192.822 214.521 193.071 214.897 193.24 215.311C193.41 215.725 193.495 216.168 193.492 216.614Z" fill="#A8BDC8" fill-opacity="0.3"/>
<path d="M214.258 216.614C214.258 217.289 214.057 217.949 213.681 218.51C213.305 219.071 212.77 219.508 212.145 219.766C211.519 220.024 210.831 220.092 210.167 219.96C209.503 219.828 208.893 219.504 208.415 219.027C207.936 218.549 207.61 217.942 207.478 217.28C207.346 216.618 207.414 215.932 207.673 215.309C207.932 214.686 208.371 214.153 208.933 213.778C209.496 213.403 210.158 213.203 210.835 213.203C211.743 213.203 212.613 213.563 213.255 214.202C213.897 214.842 214.258 215.71 214.258 216.614Z" fill="#A8BDC8" fill-opacity="0.3"/>
<path d="M235.001 216.614C234.996 217.283 234.792 217.935 234.416 218.488C234.039 219.042 233.507 219.472 232.886 219.724C232.264 219.977 231.582 220.04 230.925 219.907C230.268 219.773 229.665 219.449 229.192 218.974C228.72 218.5 228.399 217.896 228.27 217.24C228.14 216.584 228.209 215.905 228.467 215.287C228.725 214.67 229.16 214.143 229.718 213.772C230.277 213.401 230.932 213.203 231.603 213.203C232.052 213.203 232.495 213.292 232.909 213.463C233.323 213.635 233.699 213.887 234.015 214.204C234.33 214.521 234.58 214.897 234.749 215.311C234.918 215.725 235.004 216.168 235.001 216.614Z" fill="#A8BDC8" fill-opacity="0.3"/>
</g>
<defs>
<clipPath id="clip0_0_497">
<rect width="235" height="220" fill="white"/>
</clipPath>
</defs>
</svg>
