<svg width="56" height="56" viewBox="0 0 56 56" fill="none" xmlns="http://www.w3.org/2000/svg">
<g clip-path="url(#clip0_0_695)">
<path d="M52.0294 19.8418C50.9822 16.6451 48.7225 14.0546 46.6832 11.5193C44.8643 9.14926 42.9353 6.99973 40.7306 4.96043C35.1639 -3.15905e-05 28.5499 0.385782 22.873 4.96043C18.0227 8.92879 13.5032 13.4483 8.81832 17.6923C6.28298 20.0072 3.19647 22.2669 2.20438 25.7944C1.15717 29.5423 2.75554 33.235 4.35391 36.5971C4.62949 37.2034 4.96019 37.8097 5.29088 38.416C10.0309 43.156 13.889 48.8329 18.8495 53.2973C19.2904 53.2973 19.7313 53.2422 20.1723 53.132C20.8337 53.2973 21.5502 53.4076 22.2667 53.3525C26.0146 53.2422 29.3216 49.8801 32.1325 47.6755C36.652 44.1481 40.9511 40.345 45.0297 36.2664C49.439 31.8571 54.179 26.6211 52.0294 19.8418Z" fill="#7B78CC"/>
<path d="M19.4555 6.00761C19.3453 4.9604 18.5737 3.74784 17.306 3.85808C11.1881 4.40924 6.06231 8.7083 4.46394 14.6609C3.74743 17.3064 7.88114 18.4639 8.59765 15.8183C8.81812 15.1018 9.0937 14.3302 9.4244 13.6688C9.97556 13.6688 10.4716 13.3932 10.8023 12.9523C12.2353 11.2436 14.1644 10.5271 16.1486 9.75551C17.8572 9.14923 19.676 8.10202 19.4555 6.00761Z" fill="#7B78CC"/>
<path d="M34.5575 28.6603C34.5575 27.9989 34.5024 27.2824 34.2819 26.621C33.5654 24.4164 31.5261 22.9282 29.2663 22.9282C27.0617 22.9833 25.1877 24.4715 24.6917 26.621C24.3059 27.2824 24.0303 27.9989 24.0303 28.7705C24.0854 30.4791 24.8019 32.0775 26.1247 33.1798C26.4003 33.5105 26.6759 33.7861 27.0065 34.0066C27.3372 34.227 27.7782 34.3373 28.2191 34.2822C28.5498 34.3924 28.8805 34.3924 29.2112 34.4475C29.8726 34.7231 30.5891 34.7782 31.2505 34.5577C32.7386 34.0617 33.8961 33.0145 34.5024 31.5815C34.8331 30.6996 34.8882 29.6524 34.5575 28.6603Z" fill="#FDB913"/>
<path d="M50.9276 18.9047C48.5576 16.3694 46.1325 13.8892 43.7625 11.3538C43.7074 11.2987 43.6523 11.2436 43.5971 11.1885C43.542 10.9129 43.3216 10.6924 43.046 10.6373C41.1169 8.59801 39.243 6.39336 37.1485 4.40918C36.4871 3.74778 35.7155 3.19662 34.8888 2.75569C34.1171 2.36988 33.2904 2.14941 32.4085 2.14941C30.8653 2.20453 29.3772 2.81081 28.1646 3.85802C26.1253 5.5115 24.086 7.16499 21.9916 8.81848L20.2279 7.16499C20.2279 7.10987 20.2279 7.05476 20.2279 6.99964C20.2279 6.61383 20.0625 6.22801 19.8421 5.95243C19.5665 5.67685 19.2358 5.40127 18.9051 5.23592C18.0783 4.85011 17.1965 4.62964 16.3146 4.68476C14.7162 4.73988 13.1179 5.12569 11.6849 5.8422C10.3621 6.44848 9.09439 7.22011 7.99207 8.15708C7.60625 8.54289 7.22044 8.92871 6.83462 9.31452C6.11811 10.1964 5.45672 11.0782 4.90556 12.0703C4.62998 12.5664 4.3544 13.1175 4.18905 13.6687C4.0237 14.2199 3.91347 14.771 3.85835 15.3222C3.85835 15.8734 4.0237 16.4245 4.29928 16.9206C4.62998 17.4166 5.12602 17.8024 5.7323 18.0229C5.95277 18.1331 6.17323 18.1331 6.3937 18.1331C6.50393 18.1331 6.55904 18.1331 6.66928 18.1331C7.05509 18.7945 7.49602 19.4559 7.99207 20.0071C7.88183 20.1173 7.7716 20.1724 7.66137 20.2826C6.72439 21.1094 5.23625 22.1015 3.96858 23.2589C3.30719 23.8101 2.70091 24.4715 2.20486 25.188C1.6537 25.9045 1.323 26.6761 1.15766 27.558C1.15766 27.7785 1.10254 28.054 1.10254 28.2745C1.15766 29.4319 1.48835 30.5343 1.9844 31.5264C3.14184 34.0066 4.40951 36.3766 5.89765 38.6363C7.11021 40.5654 8.37788 42.4394 9.8109 44.2582C12.0155 47.0691 14.5509 49.6596 17.3067 51.9193C18.2988 52.8012 19.5665 53.4075 20.8341 53.6831C21.1648 53.7382 21.5507 53.7933 21.8814 53.7933C23.149 53.7382 24.4167 53.4075 25.519 52.7461C26.952 51.9193 28.3299 50.9824 29.6527 49.9352C33.7865 46.7935 36.8178 44.2031 40.5657 40.841C42.8255 38.8017 45.1404 36.7624 47.345 34.6129C48.3371 33.6208 49.5497 32.5184 50.5969 31.361C51.6992 30.2036 52.6362 28.8808 53.3527 27.3926C53.7385 26.621 53.9039 25.7392 53.9039 24.8573C53.9039 23.6999 53.5732 22.5975 52.9669 21.6054C52.4157 20.6133 51.6992 19.6764 50.9276 18.9047ZM6.3937 16.5899C6.11811 16.4796 5.89765 16.3143 5.7323 16.0938C5.62207 15.8734 5.56695 15.6529 5.56695 15.3773C5.56695 14.8261 5.7323 14.3301 5.95277 13.8341C6.3937 12.8971 6.88974 12.0152 7.55114 11.1885C7.88183 10.8027 8.15741 10.4168 8.433 10.0861C8.65346 9.86568 8.87393 9.5901 9.09439 9.42475C10.0865 8.59801 11.2439 7.8815 12.4014 7.33034C13.6139 6.72406 14.9918 6.39336 16.3697 6.33825C17.0311 6.33825 17.6374 6.44848 18.2437 6.72406C18.409 6.77918 18.5744 6.88941 18.6846 7.05476C18.6295 7.16499 18.5193 7.27522 18.409 7.33034C18.1886 7.5508 17.913 7.71615 17.6374 7.8815C17.3067 8.04685 17.0311 8.2122 16.7555 8.32243C15.0469 9.14917 13.2281 9.81057 11.5195 11.0231C10.1416 12.0152 8.98416 13.2278 8.1023 14.6608C7.99207 14.8813 7.82672 15.1017 7.71648 15.3222C7.49602 15.6529 7.27555 15.9836 6.99997 16.2592C6.88974 16.3694 6.77951 16.4245 6.66928 16.4796C6.61416 16.5347 6.55904 16.5347 6.50393 16.5347L6.3937 16.5899ZM8.1023 17.3615C8.32276 17.141 8.54323 16.8654 8.70858 16.5899C8.98416 16.1489 9.20462 15.7631 9.36997 15.5427C10.1416 14.275 11.1888 13.2278 12.3462 12.3459C13.8344 11.2987 15.543 10.6373 17.3618 9.81057C17.9681 9.53499 18.5193 9.20429 19.0704 8.87359C19.1807 8.76336 19.2909 8.70824 19.4011 8.59801L20.779 9.86568C16.9209 12.8971 13.0628 15.9285 9.31485 19.0701C8.81881 18.5189 8.433 17.9678 8.1023 17.3615ZM2.70091 28.2745C2.70091 28.1091 2.70091 27.9989 2.75603 27.8336C2.86626 27.2273 3.14184 26.621 3.52765 26.125C4.24416 25.188 5.07091 24.3612 6.00788 23.6447C6.94486 22.8731 7.93695 22.1566 8.76369 21.4952C13.173 17.7473 17.6925 14.2199 22.2672 10.6373C22.3774 10.5822 22.5427 10.5271 22.5979 10.4168C22.653 10.3617 22.653 10.3617 22.653 10.3066C24.8576 8.59801 27.0072 6.83429 29.1567 5.07057L28.6606 4.4643L29.2118 5.12569C30.4244 4.1336 31.4716 3.74778 32.4637 3.74778C33.0699 3.74778 33.6762 3.91313 34.2274 4.18871C34.9439 4.57453 35.5502 5.01546 36.1013 5.56662C38.0855 7.49569 39.9595 9.64522 41.9437 11.7396C40.4555 17.3615 37.5895 22.4873 33.5109 26.621C33.4558 26.5659 33.4006 26.5108 33.3455 26.4005C32.4637 25.2982 31.1409 24.5817 29.763 24.4164C29.5976 24.4164 29.3772 24.3612 29.2118 24.3612C28.1095 24.3612 27.0623 24.6919 26.1804 25.2982C25.2986 25.8494 24.582 26.7312 24.1962 27.7233C23.9758 28.2194 23.9207 28.7705 23.9207 29.3768C23.9758 30.6445 24.3616 31.857 25.1332 32.8491C19.8972 35.5498 14.11 36.9277 8.21253 36.9277C7.71648 36.9277 7.22044 36.9277 6.72439 36.8726C5.45672 34.9436 4.40951 32.9594 3.47254 30.9201C3.03161 30.0933 2.81114 29.2115 2.70091 28.2745ZM33.1251 30.2036C33.1251 30.5894 33.0699 30.9201 32.9597 31.3059C32.6841 32.0224 32.2432 32.6287 31.6369 33.0696C31.0306 33.5105 30.3692 33.731 29.5976 33.7861H29.5425C29.0465 33.7861 28.4953 33.6759 28.0544 33.4003C27.9441 33.3452 27.8339 33.2901 27.6686 33.1798C28.2748 32.794 28.8811 32.4082 29.4874 32.0224C30.6999 31.1957 31.8574 30.2587 33.0148 29.2666C33.0699 29.5422 33.1251 29.8729 33.1251 30.2036ZM26.1804 31.6366C25.7395 30.9201 25.4639 30.1484 25.4088 29.3217C25.4088 28.9359 25.4639 28.6052 25.5741 28.2745C25.8497 27.6131 26.3458 27.0068 26.952 26.621C27.6134 26.1801 28.3299 25.9596 29.1016 25.9596C29.2118 25.9596 29.322 25.9596 29.4874 25.9596C30.4795 26.0698 31.4165 26.621 32.0227 27.3926C32.0779 27.5029 32.1881 27.6131 32.2432 27.6682C31.0858 28.7705 29.8181 29.7626 28.5504 30.6445C27.8339 31.1405 27.1725 31.5815 26.456 31.9673C26.4009 31.9122 26.2906 31.8019 26.1804 31.6366ZM51.9748 26.7312C51.3685 28.054 50.5418 29.2115 49.5497 30.2587C48.5025 31.361 47.345 32.4082 46.3529 33.4554C44.2034 35.605 41.9437 37.5891 39.6288 39.6284C35.8258 42.9354 32.9046 45.5259 28.7709 48.6124C27.5583 49.6045 26.2355 50.4863 24.8576 51.258C23.9758 51.8091 22.9837 52.0847 21.9365 52.1398C21.6609 52.1398 21.4404 52.1398 21.1648 52.0847C20.1176 51.8642 19.1255 51.3682 18.3539 50.6517C15.6532 48.5021 13.2281 46.0219 11.1337 43.2661C9.92113 41.7229 8.76369 40.1245 7.71648 38.471C7.88183 38.471 8.04718 38.471 8.21253 38.471C14.4958 38.471 20.6688 36.9829 26.2355 34.0066C26.6213 34.3373 27.0072 34.5577 27.393 34.7782C28.0544 35.1089 28.826 35.3294 29.5976 35.3294H29.6527C30.6999 35.3294 31.7472 34.9436 32.5739 34.3373C33.4558 33.731 34.1171 32.8491 34.4478 31.8019C34.6132 31.3059 34.7234 30.7547 34.7234 30.2036C34.7234 29.4319 34.5581 28.7154 34.2825 28.054C38.4713 23.9203 41.5027 18.7945 43.2113 13.1175C45.416 15.4324 47.5655 17.7473 49.7702 20.0071C50.4867 20.7236 51.1481 21.5503 51.6992 22.3771C52.1402 23.0936 52.4157 23.9203 52.4157 24.8022C52.4157 25.4636 52.2504 26.125 51.9748 26.7312Z" fill="black"/>
</g>
<defs>
<clipPath id="clip0_0_695">
<rect width="55.1162" height="55.1162" fill="white"/>
</clipPath>
</defs>
</svg>
