<svg width="50" height="52" viewBox="0 0 50 52" fill="none" xmlns="http://www.w3.org/2000/svg">
<path d="M32.7246 38.1306C32.8 36.3443 33.5367 34.6498 34.7916 33.3763C36.062 32.0349 37.0429 30.4464 37.6732 28.7096C38.3034 26.9728 38.5695 25.125 38.455 23.281C38.3404 21.4369 37.8477 19.6362 37.0073 17.9908C36.167 16.3454 34.9971 14.8905 33.5704 13.7166C32.0186 12.4426 30.2031 11.5294 28.2551 11.0431C26.3071 10.5568 24.2754 10.5095 22.3069 10.9047C19.9514 11.3841 17.7671 12.4848 15.9804 14.0928C14.1936 15.7008 12.8696 17.7574 12.1455 20.0495C11.4214 22.3416 11.3236 24.7856 11.8622 27.1283C12.4009 29.4709 13.5564 31.6267 15.209 33.3723C16.4644 34.6474 17.2023 36.3429 17.2798 38.1306C16.6789 38.2005 16.1241 38.4874 15.7198 38.9376C15.3155 39.3877 15.0896 39.97 15.0845 40.575V42.4108C15.0855 43.076 15.3502 43.7137 15.8207 44.1841C16.2911 44.6545 16.9288 44.9193 17.594 44.9203H17.7916C17.9499 46.7262 18.7791 48.4072 20.1157 49.6319C21.4523 50.8565 23.1993 51.5358 25.0121 51.5358C26.8249 51.5358 28.5719 50.8565 29.9085 49.6319C31.2451 48.4072 32.0743 46.7262 32.2326 44.9203H32.4302C33.0954 44.9193 33.7332 44.6545 34.2036 44.1841C34.674 43.7137 34.9387 43.076 34.9398 42.4108V40.575C34.9341 39.967 34.7054 39.3821 34.297 38.9316C33.8887 38.481 33.3292 38.196 32.7246 38.1306Z" fill="#231F20"/>
<path d="M13.6769 22.0437C14.0777 19.7825 15.1514 17.6947 16.7575 16.0533C18.3637 14.4118 20.4277 13.2931 22.6797 12.8433C24.3625 12.5058 26.0991 12.5457 27.7645 12.9602C29.4299 13.3747 30.9827 14.1534 32.311 15.2402C33.5287 16.2418 34.5273 17.4832 35.2446 18.8873C35.9619 20.2913 36.3826 21.828 36.4805 23.4017C36.5783 24.9753 36.3513 26.5523 35.8135 28.0344C35.2757 29.5165 34.4386 30.8721 33.3543 32.0168C31.768 33.6414 30.8407 35.7966 30.7519 38.0655H28.6909V29.5112H29.4082C30.1242 29.5123 30.8114 29.2289 31.3187 28.7235C31.826 28.2181 32.1118 27.532 32.1134 26.8159V26.5669C32.1134 25.8521 31.8294 25.1665 31.3239 24.661C30.8185 24.1556 30.1329 23.8716 29.418 23.8716C28.7032 23.8716 28.0176 24.1556 27.5122 24.661C27.0067 25.1665 26.7227 25.8521 26.7227 26.5669V27.5371H23.2844V26.5669C23.2844 25.8521 23.0004 25.1665 22.495 24.661C21.9895 24.1556 21.3039 23.8716 20.5891 23.8716C19.8742 23.8716 19.1887 24.1556 18.6832 24.661C18.1777 25.1665 17.8938 25.8521 17.8938 26.5669V26.8179C17.8953 27.5326 18.1801 28.2175 18.6856 28.7227C19.1912 29.2279 19.8763 29.5122 20.5911 29.5132H21.3084V38.0675H19.2454C19.1553 35.7973 18.2275 33.641 16.6409 32.0149C15.3963 30.7039 14.479 29.1173 13.9639 27.3845C13.4488 25.6518 13.3505 23.8218 13.6769 22.0437Z" fill="#FFBA50"/>
<path d="M21.3087 27.5352H20.5914C20.4967 27.5355 20.403 27.517 20.3155 27.481C20.228 27.445 20.1485 27.392 20.0815 27.3252C20.0145 27.2584 19.9613 27.179 19.9251 27.0916C19.8888 27.0042 19.8701 26.9105 19.8701 26.8159V26.5669C19.8701 26.3762 19.9459 26.1932 20.0808 26.0583C20.2157 25.9234 20.3986 25.8477 20.5894 25.8477C20.7802 25.8477 20.9631 25.9234 21.098 26.0583C21.2329 26.1932 21.3087 26.3762 21.3087 26.5669V27.5352Z" fill="#FFBA50"/>
<path d="M26.7156 29.5112H23.2852V38.0675H26.7156V29.5112Z" fill="#FFBA50"/>
<path d="M28.6914 27.5352V26.5669C28.6914 26.3762 28.7672 26.1932 28.9021 26.0583C29.037 25.9234 29.2199 25.8477 29.4107 25.8477C29.6015 25.8477 29.7844 25.9234 29.9193 26.0583C30.0542 26.1932 30.13 26.3762 30.13 26.5669V26.8179C30.13 26.9125 30.1113 27.0062 30.075 27.0936C30.0388 27.181 29.9856 27.2604 29.9186 27.3272C29.8516 27.394 29.7721 27.447 29.6846 27.483C29.5971 27.519 29.5033 27.5374 29.4087 27.5372L28.6914 27.5352Z" fill="#FFBA50"/>
<path d="M25.0003 49.5621C23.7112 49.5582 22.4678 49.0848 21.5025 48.2305C20.5373 47.3762 19.9163 46.1994 19.7559 44.9204H30.2447C30.0842 46.1994 29.4633 47.3762 28.498 48.2305C27.5328 49.0848 26.2893 49.5582 25.0003 49.5621Z" fill="#8D7F89"/>
<path d="M32.4085 40.041H17.5902C17.2955 40.041 17.0566 40.2799 17.0566 40.5745V42.4083C17.0566 42.703 17.2955 42.9419 17.5902 42.9419H32.4085C32.7032 42.9419 32.9421 42.703 32.9421 42.4083V40.5745C32.9421 40.2799 32.7032 40.041 32.4085 40.041Z" fill="#8D7F89"/>
<path d="M24.9997 9.02159C25.2618 9.02159 25.5131 8.91749 25.6984 8.7322C25.8837 8.54691 25.9878 8.29561 25.9878 8.03357V1.07591C25.9878 0.813873 25.8837 0.562566 25.6984 0.377276C25.5131 0.191986 25.2618 0.0878906 24.9997 0.0878906C24.7377 0.0878906 24.4864 0.191986 24.3011 0.377276C24.1158 0.562566 24.0117 0.813873 24.0117 1.07591V8.03357C24.0117 8.29561 24.1158 8.54691 24.3011 8.7322C24.4864 8.91749 24.7377 9.02159 24.9997 9.02159Z" fill="#231F20"/>
<path d="M40.8301 24.8523C40.8301 25.1143 40.9342 25.3656 41.1195 25.5509C41.3048 25.7362 41.5561 25.8403 41.8181 25.8403H48.7817C49.0437 25.8403 49.295 25.7362 49.4803 25.5509C49.6656 25.3656 49.7697 25.1143 49.7697 24.8523C49.7697 24.5902 49.6656 24.3389 49.4803 24.1536C49.295 23.9684 49.0437 23.8643 48.7817 23.8643H41.8181C41.5561 23.8643 41.3048 23.9684 41.1195 24.1536C40.9342 24.3389 40.8301 24.5902 40.8301 24.8523Z" fill="#231F20"/>
<path d="M1.21849 25.8403H8.18207C8.44411 25.8403 8.69542 25.7362 8.88071 25.5509C9.066 25.3656 9.1701 25.1143 9.1701 24.8523C9.1701 24.5902 9.066 24.3389 8.88071 24.1536C8.69542 23.9684 8.44411 23.8643 8.18207 23.8643H1.21849C0.956451 23.8643 0.705143 23.9684 0.519853 24.1536C0.334563 24.3389 0.230469 24.5902 0.230469 24.8523C0.230469 25.1143 0.334563 25.3656 0.519853 25.5509C0.705143 25.7362 0.956451 25.8403 1.21849 25.8403Z" fill="#231F20"/>
<path d="M15.7366 10.7804C15.8676 11.0068 16.083 11.172 16.3357 11.2398C16.5883 11.3076 16.8575 11.2724 17.0843 11.142C17.3112 11.011 17.4768 10.7952 17.5446 10.5421C17.6124 10.289 17.5769 10.0193 17.4459 9.79238L13.9641 3.7615C13.9023 3.64342 13.8173 3.53906 13.7142 3.45469C13.611 3.37033 13.4919 3.3077 13.3639 3.27057C13.2359 3.23344 13.1018 3.22259 12.9695 3.23865C12.8372 3.25472 12.7095 3.29738 12.5942 3.36407C12.4788 3.43076 12.3781 3.52009 12.2982 3.6267C12.2182 3.7333 12.1607 3.85498 12.129 3.98441C12.0973 4.11383 12.0921 4.24834 12.1137 4.37982C12.1353 4.51131 12.1833 4.63706 12.2548 4.74952L15.7366 10.7804Z" fill="#231F20"/>
<path d="M39.5651 17.4318C39.7386 17.4318 39.9089 17.3862 40.0591 17.2994L46.09 13.8176C46.2025 13.7528 46.3011 13.6664 46.3802 13.5634C46.4593 13.4604 46.5174 13.3428 46.5511 13.2174C46.5847 13.092 46.5934 12.9612 46.5765 12.8324C46.5596 12.7037 46.5175 12.5795 46.4526 12.467C46.3878 12.3545 46.3014 12.2559 46.1984 12.1768C46.0954 12.0977 45.9778 12.0397 45.8524 12.006C45.727 11.9723 45.5962 11.9637 45.4674 11.9806C45.3387 11.9975 45.2145 12.0395 45.102 12.1044L39.0711 15.5882C38.8828 15.6969 38.7356 15.8648 38.6523 16.0657C38.5691 16.2667 38.5545 16.4894 38.6108 16.6995C38.6671 16.9096 38.7911 17.0952 38.9637 17.2276C39.1362 17.36 39.3476 17.4318 39.5651 17.4318Z" fill="#231F20"/>
<path d="M9.94077 32.4037L3.90989 35.8855C3.6827 36.0165 3.51686 36.2325 3.44886 36.4857C3.38086 36.739 3.41626 37.009 3.54728 37.2362C3.6783 37.4633 3.89421 37.6292 4.1475 37.6972C4.40079 37.7652 4.67072 37.7298 4.89791 37.5988L10.9288 34.115C11.0421 34.0506 11.1415 33.9644 11.2213 33.8614C11.3012 33.7585 11.3598 33.6407 11.394 33.515C11.4281 33.3892 11.437 33.2579 11.4202 33.1287C11.4034 32.9995 11.3613 32.8749 11.2961 32.7621C11.231 32.6492 11.1441 32.5504 11.0406 32.4712C10.9371 32.3921 10.819 32.3342 10.693 32.3009C10.567 32.2676 10.4357 32.2595 10.3066 32.2772C10.1775 32.2948 10.0532 32.3378 9.94077 32.4037Z" fill="#231F20"/>
<path d="M3.90989 13.8176L9.94077 17.2994C10.0532 17.3653 10.1775 17.4083 10.3066 17.426C10.4357 17.4436 10.567 17.4356 10.693 17.4023C10.819 17.369 10.9371 17.3111 11.0406 17.2319C11.1441 17.1528 11.231 17.0539 11.2961 16.9411C11.3613 16.8283 11.4034 16.7036 11.4202 16.5744C11.437 16.4452 11.4281 16.314 11.394 16.1882C11.3598 16.0625 11.3012 15.9447 11.2213 15.8417C11.1415 15.7388 11.0421 15.6526 10.9288 15.5882L4.89791 12.1044C4.67072 11.9734 4.40079 11.938 4.1475 12.006C3.89421 12.074 3.6783 12.2398 3.54728 12.467C3.41626 12.6942 3.38086 12.9641 3.44886 13.2174C3.51686 13.4707 3.6827 13.6866 3.90989 13.8176Z" fill="#231F20"/>
<path d="M39.071 34.115L45.1019 37.5988C45.2521 37.6855 45.4224 37.7311 45.5959 37.7312C45.814 37.7319 46.0262 37.6605 46.1995 37.5279C46.3728 37.3954 46.4973 37.2093 46.5537 36.9986C46.6101 36.7879 46.5952 36.5644 46.5113 36.3631C46.4274 36.1618 46.2792 35.9938 46.0899 35.8855L40.059 32.4037C39.9466 32.3378 39.8223 32.2948 39.6932 32.2772C39.5641 32.2595 39.4327 32.2676 39.3068 32.3009C39.1808 32.3342 39.0627 32.3921 38.9592 32.4712C38.8556 32.5504 38.7688 32.6492 38.7037 32.7621C38.6385 32.8749 38.5963 32.9995 38.5795 33.1287C38.5627 33.2579 38.5717 33.3892 38.6058 33.515C38.6399 33.6407 38.6986 33.7585 38.7785 33.8614C38.8583 33.9644 38.9577 34.0506 39.071 34.115Z" fill="#231F20"/>
<path d="M32.9159 11.142C33.1426 11.2724 33.4118 11.3076 33.6644 11.2398C33.9171 11.172 34.1325 11.0068 34.2635 10.7804L37.7453 4.74952C37.8168 4.63706 37.8648 4.51131 37.8864 4.37982C37.9081 4.24834 37.9029 4.11383 37.8712 3.98441C37.8395 3.85498 37.7819 3.7333 37.702 3.6267C37.622 3.52009 37.5213 3.43076 37.406 3.36407C37.2906 3.29738 37.1629 3.25472 37.0306 3.23865C36.8984 3.22259 36.7642 3.23344 36.6362 3.27057C36.5082 3.3077 36.3891 3.37033 36.286 3.45469C36.1828 3.53906 36.0978 3.64342 36.036 3.7615L32.5542 9.79238C32.4232 10.0193 32.3877 10.289 32.4555 10.5421C32.5234 10.7952 32.6889 11.011 32.9159 11.142Z" fill="#231F20"/>
</svg>
