<svg width="71" height="70" viewBox="0 0 71 70" fill="none" xmlns="http://www.w3.org/2000/svg">
<g clip-path="url(#clip0_0_6238)">
<path d="M44.4816 13.1767C52.9774 21.6725 52.9774 35.4387 44.4815 43.9346C35.9855 52.4304 22.2194 52.4306 13.7236 43.9347C5.22759 35.4387 5.22759 21.6724 13.7234 13.1766C22.2193 4.68071 35.9855 4.68071 44.4816 13.1767Z" fill="#CCE0F1"/>
<path d="M44.4551 27.9171C36.0463 39.258 22.3697 39.258 13.9609 27.9433C18.175 22.2728 23.6965 19.4375 29.1982 19.4375C34.7196 19.4375 40.2412 22.2726 44.4551 27.9171Z" fill="#FFCBC0"/>
<path d="M67.9356 67.3849C65.6479 69.6728 61.9656 69.6364 59.7141 67.3922C59.5979 67.276 59.489 67.1598 59.3874 67.0291L43.2131 47.8843L41.7969 46.2139C42.7411 45.5385 43.6271 44.7831 44.4768 43.9334C45.3193 43.091 46.0819 42.1903 46.7501 41.2461L48.4277 42.6696L67.5725 58.8366C70.1724 61.0374 70.3395 64.981 67.9356 67.3849Z" fill="#D81A60"/>
<path opacity="0.1" d="M48.4279 42.6696C47.7089 43.65 46.9026 44.5942 46.0166 45.4803C45.1377 46.3591 44.2008 47.1653 43.2131 47.8843L41.7969 46.2139C42.7411 45.5385 43.6271 44.7831 44.4768 43.9334C45.3193 43.091 46.0819 42.1903 46.7501 41.2461L48.4279 42.6696Z" fill="black"/>
<path d="M34.6634 27.9372C34.6634 30.9492 32.2186 33.3863 29.2067 33.3863C26.1948 33.3863 23.75 30.9491 23.75 27.9372C23.75 24.9253 26.1948 22.4805 29.2067 22.4805C32.2186 22.4805 34.6634 24.9251 34.6634 27.9372Z" fill="#41B3E7"/>
<path d="M13.207 12.6656C4.42142 21.4505 4.41977 35.6642 13.207 44.4507C20.9241 52.1672 32.9121 53.102 41.6719 47.1852L58.8278 67.493C61.27 70.4054 65.7336 70.6147 68.4504 67.898C71.1394 65.2082 70.9776 60.7651 68.0425 58.2836L47.7316 41.1238C53.628 32.3866 52.7179 20.3916 44.9923 12.6656C36.2288 3.90278 21.9705 3.90347 13.207 12.6656ZM67.1048 59.393C69.3911 61.3271 69.5199 64.7735 67.4232 66.8711C65.3225 68.9706 61.8467 68.8367 59.9398 66.5582L42.8537 46.3334C43.4501 45.8727 44.3322 45.1106 44.9922 44.4507C45.5742 43.8687 46.2594 43.0984 46.8757 42.3023L67.1048 59.393ZM43.9632 43.4219C35.8101 51.5759 22.4684 51.6585 14.234 43.4237C6.01624 35.2059 6.01487 21.9118 14.234 13.6927C22.4323 5.49583 35.7675 5.49624 43.9654 13.6927C52.1863 21.9144 52.1289 35.2553 43.9632 43.4219Z" fill="#25294F"/>
<path d="M29.1975 18.7109C23.2121 18.7109 17.5941 21.8359 13.3775 27.5096C13.1867 27.7671 13.1867 28.1188 13.3775 28.3763C17.5834 34.0357 23.2008 37.152 29.1975 37.152H29.2067C35.2092 37.1488 40.8315 34.0228 45.038 28.3493C45.2289 28.0915 45.2281 27.7394 45.0367 27.4823C40.8137 21.8261 35.1887 18.7109 29.1975 18.7109ZM29.206 35.6995C29.2024 35.6995 29.2003 35.6995 29.1975 35.6995C23.8256 35.6995 18.7566 32.9501 14.8727 27.943C18.7666 22.9211 23.8355 20.1636 29.1975 20.1636C34.5659 20.1636 39.642 22.913 43.5423 27.9183C39.6562 32.9383 34.5837 35.6966 29.206 35.6995Z" fill="#25294F"/>
<path d="M29.2067 21.7539C25.7973 21.7539 23.0234 24.5275 23.0234 27.9369C23.0234 31.342 25.7973 34.1123 29.2067 34.1123C32.616 34.1123 35.3892 31.342 35.3892 27.9369C35.3892 24.5274 32.616 21.7539 29.2067 21.7539ZM29.2067 32.6598C26.5981 32.6598 24.4759 30.5412 24.4759 27.9369C24.4759 25.3286 26.5981 23.2065 29.2067 23.2065C31.8146 23.2065 33.9367 25.3287 33.9367 27.9369C33.9367 30.5412 31.8146 32.6598 29.2067 32.6598Z" fill="#25294F"/>
<path d="M1.36688 57.3261H11.9199C12.3213 57.3261 12.6462 57.0009 12.6462 56.5999C12.6462 56.1989 12.3213 55.8736 11.9199 55.8736H2.09313V46.0387C2.09313 45.6376 1.76828 45.3125 1.36688 45.3125C0.965469 45.3125 0.640625 45.6378 0.640625 46.0387V56.6C0.640488 57.0009 0.965332 57.3261 1.36688 57.3261Z" fill="#25294F"/>
<path d="M1.36688 12.2008C1.76828 12.2008 2.09313 11.8756 2.09313 11.4746V1.64H11.9277C12.3291 1.64 12.654 1.31475 12.654 0.91375C12.654 0.512754 12.3291 0.1875 11.9277 0.1875H1.36688C0.965469 0.1875 0.640625 0.512754 0.640625 0.91375V11.4746C0.640488 11.8757 0.965332 12.2008 1.36688 12.2008Z" fill="#25294F"/>
<path d="M57.0527 12.2008C57.4541 12.2008 57.779 11.8756 57.779 11.4746V0.91375C57.779 0.512617 57.4541 0.1875 57.0527 0.1875H46.4919C46.0905 0.1875 45.7656 0.512754 45.7656 0.91375C45.7656 1.31475 46.0905 1.64 46.4919 1.64H56.3265V11.4746C56.3265 11.8757 56.6513 12.2008 57.0527 12.2008Z" fill="#25294F"/>
</g>
<defs>
<clipPath id="clip0_0_6238">
<rect width="70" height="70" fill="white" transform="translate(0.5)"/>
</clipPath>
</defs>
</svg>
