<svg width="71" height="70" viewBox="0 0 71 70" fill="none" xmlns="http://www.w3.org/2000/svg">
<path d="M55.1096 10.9346H53.326L35.5043 13.5127L17.6825 10.9346H15.6411C13.4403 10.9346 11.6563 9.15054 11.6563 6.94972C11.6561 4.74891 13.4403 2.96484 15.6411 2.96484H55.1096C57.3105 2.96484 59.0945 4.74891 59.0945 6.94972C59.0947 9.15054 57.3105 10.9346 55.1096 10.9346Z" fill="#B98080"/>
<path d="M55.3672 2.96484H51.5C53.7008 2.96484 55.4849 4.74891 55.4849 6.94972C55.4849 9.15054 53.7008 10.9346 51.5 10.9346H55.3672C57.568 10.9346 59.3521 9.15054 59.3521 6.94972C59.3522 4.74891 57.568 2.96484 55.3672 2.96484Z" fill="#AE6C6C"/>
<path d="M53.0655 15.9361V10.9336H17.6797V15.9361C17.6797 23.6962 22.6397 30.297 29.5624 32.7431C30.5178 33.0807 31.1567 33.9837 31.1567 34.9969C31.1567 36.0102 30.5178 36.9132 29.5624 37.2507C22.6399 39.6968 17.6797 46.2976 17.6797 54.0578V59.0602H53.0654V54.0578C53.0654 46.2976 48.1053 39.6968 41.1826 37.2507C40.2272 36.9131 39.5883 36.0101 39.5883 34.9969H39.8462C39.8462 33.9836 40.2272 33.0807 41.1826 32.7431C48.1053 30.2971 53.0655 23.6962 53.0655 15.9361Z" fill="#EFEDEF"/>
<path d="M17.6797 10.9336V13.46H46.9801C48.3475 13.46 49.4561 14.5686 49.4561 15.9361C49.4561 23.6721 44.5267 30.256 37.6379 32.7202C36.7855 33.025 36.1335 33.7527 36.0042 34.6486C35.8383 35.7982 36.5097 36.8748 37.5734 37.2507C44.4959 39.6968 49.4561 46.2977 49.4561 54.0578V59.0602H53.3233V54.0578C53.3233 46.3217 48.3939 39.7378 41.505 37.2737C40.6527 36.9688 40.0007 36.2411 39.8714 35.3451C39.7055 34.1955 40.3769 33.1189 41.4406 32.743C48.3631 30.2969 53.3233 23.696 53.3233 15.9359V13.4602V10.9336H17.6797Z" fill="#D7D0D6"/>
<path d="M55.1096 67.0323H15.6411C13.4403 67.0323 11.6562 65.2482 11.6562 63.0474C11.6562 60.8466 13.4403 59.0625 15.6411 59.0625H17.6826L35.5044 56.4844L53.3262 59.0625H55.1099C57.3107 59.0625 59.0948 60.8466 59.0948 63.0474C59.0947 65.2482 57.3105 67.0323 55.1096 67.0323Z" fill="#B98080"/>
<path d="M55.3672 59.0625H51.5C53.7008 59.0625 55.4849 60.8466 55.4849 63.0474C55.4849 65.2482 53.7008 67.0323 51.5 67.0323H55.3672C57.568 67.0323 59.3521 65.2482 59.3521 63.0474C59.3522 60.8466 57.568 59.0625 55.3672 59.0625Z" fill="#AE6C6C"/>
<path d="M44.0833 45.0813H42.2063C40.3187 45.0813 38.4505 43.7158 38.1417 41.8537L37.3759 37.2346C36.9861 34.8837 38.7996 32.7448 41.1826 32.7448C45.8072 31.1108 49.553 27.6211 51.5324 23.1719H19.2125C21.1917 27.6212 24.9378 31.1108 29.5623 32.7448C31.9454 32.7448 33.7588 34.8837 33.369 37.2346L32.6032 41.8537C32.2944 43.7158 30.6839 45.0813 28.7964 45.0813H26.6616C21.7408 45.0813 17.7065 49.0407 17.6799 53.9614C17.6798 53.9941 17.6797 54.0269 17.6797 54.0596V59.0621H53.0654V54.0596C53.0654 54.0269 53.0652 53.9941 53.0651 53.9614C53.0384 49.0407 49.0042 45.0813 44.0833 45.0813Z" fill="#FED402"/>
<path d="M53.328 53.9614C53.3014 49.0407 49.2672 45.0813 44.3464 45.0813H42.2114C40.3238 45.0813 38.7134 43.7158 38.4047 41.8537L37.6389 37.2346C37.249 34.8837 39.0625 32.7448 41.4456 32.7448C46.0701 31.1108 49.816 27.6211 51.7953 23.1719H47.9281C45.9489 27.6212 42.2029 31.1108 37.5784 32.7448C35.1953 32.7448 33.3819 34.8837 33.7717 37.2346L34.5375 41.8537C34.8462 43.7158 36.4568 45.0813 38.3442 45.0813H40.4792C45.4 45.0813 49.4343 49.0407 49.4608 53.9614C49.461 53.9941 49.4611 54.0269 49.4611 54.0596V59.0621H53.3283V54.0596C53.3283 54.0269 53.3282 53.9941 53.328 53.9614Z" fill="#FAC600"/>
<path d="M55.3656 58.0966H54.2911V54.061L54.2908 53.9575C54.2907 53.9452 54.2898 53.9331 54.2897 53.9209C54.2309 46.0269 49.2126 38.9742 41.7637 36.3422C41.1957 36.1413 40.8141 35.602 40.8141 34.9999C40.8141 34.3978 41.1957 33.8584 41.7637 33.6576C42.0753 33.5475 42.3841 33.4284 42.6894 33.3019C45.8136 32.0086 48.4657 29.9206 50.4421 27.3247C50.5161 27.2271 50.5893 27.129 50.6616 27.0302C51.4491 25.9567 52.1269 24.7969 52.6745 23.566C52.687 23.5379 52.6966 23.5092 52.7063 23.4803C53.7305 21.1488 54.2909 18.5901 54.2909 15.9389V11.9034H55.3655C58.096 11.9034 60.3173 9.68204 60.3173 6.95168C60.3173 4.22131 58.0961 2 55.3656 2H15.6393C12.9089 2 10.6875 4.22131 10.6875 6.95168C10.6875 9.68204 12.9088 11.9034 15.6393 11.9034H16.7139V13.9798C16.7139 14.5138 17.1466 14.9466 17.6807 14.9466C18.2147 14.9466 18.6475 14.5138 18.6475 13.9798V11.9034H52.3575V15.939C52.3575 18.1302 51.9296 20.2504 51.1442 22.2063H45.6263C45.0922 22.2063 44.6595 22.6391 44.6595 23.1731C44.6595 23.7072 45.0922 24.1399 45.6263 24.1399H50.2212C49.8314 24.8388 49.3935 25.5095 48.9096 26.1459C48.5555 26.61 48.1776 27.0555 47.7782 27.4813C46.5068 28.8327 45.0172 29.9732 43.3714 30.8455C42.6887 31.2063 41.9823 31.5197 41.2566 31.7831C39.9051 31.8344 38.6397 32.448 37.7609 33.4843C36.8423 34.5676 36.4488 35.9928 36.6811 37.394L37.4468 42.0131C37.8346 44.3519 39.8367 46.0493 42.2074 46.0493H44.3422C48.6895 46.0493 52.2517 49.524 52.3527 53.8226C52.3537 53.8979 52.3571 53.9728 52.3572 54.0483L52.3573 58.0965H46.5252C45.9912 58.0965 45.5584 58.5294 45.5584 59.0633C45.5584 59.5974 45.9912 60.0301 46.5252 60.0301H55.3655C57.0297 60.0301 58.3837 61.384 58.3837 63.0482C58.3838 64.7125 57.0298 66.0664 55.3656 66.0664H15.6393C13.9751 66.0664 12.6211 64.7125 12.6211 63.0483C12.6211 61.3841 13.9751 60.0302 15.6393 60.0302H42.3051C42.8392 60.0302 43.2719 59.5975 43.2719 59.0634C43.2719 58.5295 42.8392 58.0966 42.3051 58.0966H18.6475V54.061C18.6475 53.9826 18.6509 53.905 18.6521 53.8268C18.7519 49.5255 22.3146 46.0493 26.6627 46.0493H28.7975C31.1681 46.0493 33.1703 44.3519 33.5582 42.0131L34.3239 37.394C34.5562 35.9928 34.1626 34.5676 33.244 33.4843C32.365 32.4477 31.0992 31.8341 29.7471 31.783C28.8001 31.439 27.8793 31.0119 27.0115 30.4991C24.4177 28.9802 22.2523 26.7796 20.7775 24.1398H41.4128C41.9469 24.1398 42.3796 23.707 42.3796 23.173C42.3796 22.6389 41.9469 22.2062 41.4128 22.2062H19.8539C19.3243 20.8853 18.9611 19.4976 18.7811 18.0722C18.7141 17.5424 18.2292 17.1676 17.7008 17.234C17.1711 17.301 16.7957 17.7846 16.8626 18.3144C17.3013 21.7887 18.7052 25.0652 20.9224 27.7898C22.4889 29.7145 24.4091 31.2986 26.5663 32.4666C27.4243 32.9323 28.3207 33.3323 29.2412 33.6577C29.8092 33.8585 30.1909 34.3979 30.1909 35C30.1909 35.6021 29.8092 36.1415 29.2412 36.3423C21.7917 38.9746 16.7732 46.0283 16.7153 53.9232C16.7152 53.9352 16.7143 53.947 16.7141 53.959V54.0358C16.7141 54.0442 16.7139 54.0526 16.7139 54.061V58.0966H15.6393C12.9088 58.0966 10.6875 60.3181 10.6875 63.0483C10.6875 65.7787 12.9088 68 15.6393 68H55.3656C58.0961 68 60.3174 65.7787 60.3174 63.0483C60.3174 60.318 58.0961 58.0966 55.3656 58.0966ZM17.6807 9.96976H15.6393C13.9751 9.96976 12.6211 8.61586 12.6211 6.95168C12.6211 5.2875 13.9751 3.93359 15.6393 3.93359H55.3656C57.0298 3.93359 58.3839 5.2875 58.3839 6.95168C58.3839 8.61586 57.0298 9.96976 55.3656 9.96976H53.3243H17.6807ZM44.3422 44.1159H42.2074C40.7866 44.1159 39.5869 43.0985 39.3544 41.6969L38.5887 37.0778C38.4834 36.443 38.5929 35.8002 38.8901 35.2438C38.9864 36.5639 39.8576 37.7195 41.1194 38.1654C45.1873 39.6029 48.445 42.5114 50.3853 46.1638C48.7072 44.8813 46.6114 44.1159 44.3422 44.1159ZM29.8855 38.1654C31.1475 37.7195 32.0187 36.5639 32.1149 35.2438C32.4123 35.8002 32.5216 36.4431 32.4163 37.078L31.6506 41.6971C31.4182 43.0987 30.2185 44.116 28.7977 44.116H26.6629C24.3936 44.116 22.2978 44.8816 20.6197 46.1641C22.5598 42.5115 25.8175 39.6029 29.8855 38.1654Z" fill="black"/>
</svg>
