<svg width="71" height="70" viewBox="0 0 71 70" fill="none" xmlns="http://www.w3.org/2000/svg">
<g clip-path="url(#clip0_0_6189)">
<path d="M44.2149 21.6797C47.0879 21.6797 49.417 24.0088 49.417 26.8818V34.3737C49.417 36.4072 48.6253 38.3608 47.2098 39.8207C45.7942 41.2805 45.0025 43.2341 45.0025 45.2676V68.9739H26.1837V44.9521C26.1837 43.2609 25.3157 41.688 23.8848 40.7865C22.454 39.8849 21.5859 38.312 21.5859 36.6208V21.6797H44.2149Z" fill="#FED2A4"/>
<path d="M24.552 30.2289C22.9138 30.2289 21.5859 28.901 21.5859 27.2629V19.4934C21.5859 17.8554 22.9138 16.5273 24.552 16.5273C26.19 16.5273 27.518 17.8552 27.518 19.4934V27.2629C27.518 28.901 26.19 30.2289 24.552 30.2289Z" fill="#FED2A4"/>
<path d="M30.4817 28.2992C28.8435 28.2992 27.5156 26.9713 27.5156 25.3332V17.5637C27.5156 15.9257 28.8435 14.5977 30.4817 14.5977C32.1197 14.5977 33.4477 15.9255 33.4477 17.5637V25.3332C33.4477 26.9713 32.1198 28.2992 30.4817 28.2992Z" fill="#FED2A4"/>
<path d="M36.7285 28.2994C34.9195 28.2994 33.4531 26.8329 33.4531 25.024V15.3925C33.4531 13.5836 34.9195 12.1172 36.7285 12.1172C38.5374 12.1172 40.0038 13.5836 40.0038 15.3925V25.024C40.0038 26.8329 38.5374 28.2994 36.7285 28.2994Z" fill="#FED2A4"/>
<path d="M43.2753 26.7329C41.4664 26.7329 40 25.2665 40 23.4576V13.8261C40 12.0172 41.4664 10.5508 43.2753 10.5508C45.0843 10.5508 46.5507 12.0172 46.5507 13.8261V23.4576C46.5507 25.2665 45.0843 26.7329 43.2753 26.7329Z" fill="#FED2A4"/>
<path d="M27.5142 19.4898V27.26C27.5142 28.8971 26.1862 30.225 24.5479 30.225C24.0759 30.225 23.6301 30.1145 23.2344 29.9173C24.2126 29.4322 24.8846 28.4249 24.8846 27.26V19.4898C24.8846 18.6705 24.5532 17.929 24.0154 17.3926C23.7893 17.165 23.5249 16.9744 23.2344 16.8311C23.6301 16.6339 24.0759 16.5234 24.5479 16.5234C25.3671 16.5234 26.1087 16.8548 26.6451 17.3926C27.1829 17.9291 27.5142 18.6707 27.5142 19.4898Z" fill="#FFBD86"/>
<path d="M33.4531 17.564V25.3329C33.4531 26.9712 32.1251 28.2992 30.4868 28.2992C30.0147 28.2992 29.5677 28.1887 29.1719 27.9915C30.1501 27.5076 30.8233 26.4992 30.8233 25.3329V17.564C30.8233 16.7448 30.492 16.0032 29.9542 15.4668C29.7268 15.2394 29.4637 15.0486 29.1719 14.9053C29.5676 14.7081 30.0147 14.5977 30.4868 14.5977C31.306 14.5977 32.0475 14.9303 32.584 15.4668C33.1216 16.0034 33.4531 16.7449 33.4531 17.564Z" fill="#FFBD86"/>
<path d="M40.0044 15.3923V25.0243C40.0044 26.8323 38.5383 28.2996 36.7291 28.2996C36.261 28.2996 35.8166 28.201 35.4142 28.0235C36.5687 27.5187 37.3746 26.3656 37.3746 25.0244V15.3924C37.3746 14.4891 37.0078 13.6699 36.4147 13.077C36.1294 12.7904 35.7902 12.5563 35.4141 12.3933C35.8164 12.2158 36.2608 12.1172 36.729 12.1172C37.6336 12.1172 38.4527 12.4841 39.0444 13.077C39.6376 13.6699 40.0044 14.489 40.0044 15.3923Z" fill="#FFBD86"/>
<path d="M46.5512 13.8259V23.4579C46.5512 25.2671 45.0852 26.7332 43.2758 26.7332C42.8078 26.7332 42.3634 26.6346 41.9609 26.4571C43.1154 25.9523 43.9214 24.7992 43.9214 23.458V13.826C43.9214 12.9227 43.5545 12.1035 42.9615 11.5106C42.6761 11.224 42.337 10.9899 41.9609 10.8269C42.3632 10.6494 42.8076 10.5508 43.2758 10.5508C44.1804 10.5508 44.9996 10.9177 45.5913 11.5106C46.1843 12.1035 46.5512 12.9225 46.5512 13.8259Z" fill="#FFBD86"/>
<path d="M41.0031 35.4571C40.3134 30.7427 43.9001 27.7496 43.9001 27.7496H41.4363C38.8351 27.7496 36.7266 25.6409 36.7266 23.0398C36.7266 22.2886 37.3355 21.6797 38.0867 21.6797H44.2161C47.0892 21.6797 49.4183 24.0088 49.4183 26.8818V34.3737C49.4183 34.7383 49.3929 35.1002 49.3429 35.4571H41.0031Z" fill="#FED2A4"/>
<path d="M41.0006 35.4552H40.3892C38.8356 35.4552 37.7039 33.9926 38.0806 32.4854C38.7202 29.9264 40.5003 28.1961 41.0244 27.7305C41.1598 27.741 41.2967 27.7476 41.4346 27.7476H43.8987C43.8987 27.7476 40.3117 30.7401 41.0006 35.4552Z" fill="#FFBD86"/>
<path d="M49.4079 34.801C49.4159 34.6587 49.42 34.5161 49.42 34.3733C49.42 34.3665 49.42 26.8813 49.42 26.8813C49.42 24.0084 47.0915 21.6797 44.2184 21.6797H41.5888H41.5703C44.4432 21.6797 46.7719 24.0082 46.7719 26.8813V34.3733C46.7719 36.4061 45.9803 38.36 44.5656 39.8208C43.8569 40.5506 43.306 41.4038 42.9313 42.3296C42.5553 43.2539 42.3581 44.2506 42.3581 45.267V68.9738H45.0062V45.2669C45.0062 44.2505 45.2034 43.2538 45.5795 42.3294C45.9542 41.4038 46.5051 40.5504 47.2139 39.8207C48.5139 38.482 49.3022 36.6615 49.4079 34.801Z" fill="#FFBD86"/>
<path d="M45.4846 68.9731C51.5642 68.9731 56.4926 64.0446 56.4926 57.9651C56.4926 51.8855 51.5642 46.957 45.4846 46.957C39.405 46.957 34.4766 51.8855 34.4766 57.9651C34.4766 64.0446 39.405 68.9731 45.4846 68.9731Z" fill="#97DA7B"/>
<path d="M56.493 57.9668C56.493 64.0457 51.5639 68.9748 45.4849 68.9748C43.7895 68.9748 42.1843 68.592 40.75 67.907C41.3982 68.026 42.0667 68.0889 42.7504 68.0889C48.8293 68.0889 53.7584 63.1612 53.7584 57.0809C53.7584 52.6974 51.1948 48.9113 47.4853 47.1406C52.6098 48.0811 56.493 52.5714 56.493 57.9668Z" fill="#80D261"/>
<path d="M35.4942 5.99239C36.0605 5.99239 36.5196 5.53335 36.5196 4.96697V1.02542C36.5196 0.459038 36.0605 0 35.4942 0C34.9278 0 34.4688 0.459038 34.4688 1.02542V4.96683C34.4688 5.53321 34.9278 5.99239 35.4942 5.99239Z" fill="black"/>
<path d="M23.1317 8.55319C23.3218 8.88219 23.6664 9.0661 24.0207 9.0661C24.1946 9.0661 24.371 9.0218 24.5325 8.92854C25.023 8.64535 25.191 8.01812 24.9078 7.52777L22.9371 4.11445C22.6539 3.62383 22.0264 3.45604 21.5364 3.7391C21.0459 4.02229 20.8778 4.64952 21.161 5.13987L23.1317 8.55319Z" fill="black"/>
<path d="M16.1313 15.5536L12.718 13.5828C12.2273 13.2998 11.6003 13.4676 11.3173 13.9582C11.0341 14.4487 11.2021 15.0758 11.6926 15.359L15.1059 17.3297C15.2676 17.4229 15.4437 17.4672 15.6177 17.4672C15.9722 17.4672 16.3169 17.2833 16.5067 16.9543C16.7899 16.464 16.6217 15.8369 16.1313 15.5536Z" fill="black"/>
<path d="M59.3032 40.4794L55.8899 38.5087C55.3991 38.2255 54.7722 38.3934 54.4891 38.884C54.2059 39.3745 54.374 40.0016 54.8645 40.2848L58.2778 42.2555C58.4394 42.3488 58.6156 42.3931 58.7896 42.3931C59.1441 42.3931 59.4888 42.2092 59.6786 41.8802C59.9618 41.3897 59.7936 40.7626 59.3032 40.4794Z" fill="black"/>
<path d="M13.5705 27.92C13.5705 27.3536 13.1115 26.8945 12.5451 26.8945H8.60368C8.0373 26.8945 7.57812 27.3536 7.57812 27.92C7.57812 28.4863 8.03716 28.9454 8.60368 28.9454H12.5451C13.1115 28.9454 13.5705 28.4863 13.5705 27.92Z" fill="black"/>
<path d="M62.3887 26.8945H58.4473C57.8809 26.8945 57.4219 27.3536 57.4219 27.9199C57.4219 28.4863 57.8809 28.9454 58.4473 28.9454H62.3887C62.9551 28.9454 63.4143 28.4863 63.4143 27.9199C63.4143 27.3536 62.9552 26.8945 62.3887 26.8945Z" fill="black"/>
<path d="M15.1059 38.5086L11.6926 40.4793C11.2021 40.7625 11.0341 41.3897 11.3173 41.8801C11.5073 42.2091 11.8519 42.393 12.2062 42.393C12.3801 42.393 12.5565 42.3487 12.718 42.2554L16.1313 40.2847C16.6218 40.0015 16.7899 39.3743 16.5067 38.884C16.2235 38.3935 15.5963 38.2255 15.1059 38.5086Z" fill="black"/>
<path d="M55.3781 17.4672C55.552 17.4672 55.7284 17.4229 55.8899 17.3296L59.3032 15.3589C59.7937 15.0757 59.9618 14.4485 59.6786 13.9581C59.3952 13.4675 58.7679 13.2999 58.2778 13.5828L54.8645 15.5535C54.374 15.8367 54.2059 16.4639 54.4891 16.9543C54.6791 17.2834 55.0236 17.4672 55.3781 17.4672Z" fill="black"/>
<path d="M46.4582 8.9286C46.6198 9.02186 46.7961 9.06616 46.97 9.06616C47.3245 9.06616 47.6692 8.88225 47.859 8.55325L49.8297 5.13993C50.1129 4.64944 49.9448 4.02235 49.4543 3.73916C48.9636 3.45597 48.3366 3.62389 48.0536 4.11451L46.0828 7.52783C45.7997 8.01832 45.9678 8.64541 46.4582 8.9286Z" fill="black"/>
<path d="M26.1818 51.0352C25.6154 51.0352 25.1562 51.4942 25.1562 52.0606V68.9735C25.1562 69.5399 25.6153 69.9989 26.1818 69.9989C26.7482 69.9989 27.2072 69.5399 27.2072 68.9735V52.0607C27.2074 51.4943 26.7482 51.0352 26.1818 51.0352Z" fill="black"/>
<path d="M46.0224 45.9459V45.2683C46.0224 43.4915 46.7035 41.8107 47.9403 40.5353C49.5503 38.8749 50.4368 36.687 50.4368 34.3745V26.8826C50.4368 24.6864 49.2929 22.7536 47.5709 21.6445V13.8281C47.5709 11.4568 45.6417 9.52734 43.2702 9.52734C41.5467 9.52734 40.0576 10.5467 39.3721 12.0138C38.6407 11.4388 37.7199 11.0947 36.7195 11.0947C34.7686 11.0947 33.118 12.4008 32.5936 14.1842C31.9798 13.799 31.2548 13.5751 30.4781 13.5751C28.7712 13.5751 27.3116 14.6525 26.7422 16.1628C26.1117 15.7458 25.357 15.5021 24.5461 15.5021C22.3453 15.5021 20.5547 17.2927 20.5547 19.4936V36.6213C20.5547 38.677 21.5931 40.5586 23.3324 41.6547C24.472 42.3729 25.1525 43.6057 25.1525 44.9528V47.3727C25.1525 47.939 25.6115 48.3981 26.178 48.3981C26.7444 48.3981 27.2034 47.939 27.2034 47.3727V44.9528C27.2034 42.897 26.165 41.0153 24.4257 39.9193C23.2861 39.2012 22.6057 37.9683 22.6057 36.6213V30.7494C23.1805 31.0706 23.8422 31.2546 24.5461 31.2546C26.2531 31.2546 27.7127 30.1772 28.282 28.6669C28.9125 29.084 29.6674 29.3277 30.4782 29.3277C31.7006 29.3277 32.7957 28.7748 33.5284 27.9068C34.316 28.7787 35.4548 29.3277 36.7195 29.3277C37.7258 29.3277 38.6509 28.979 39.3836 28.3973C40.0194 28.641 40.7088 28.7758 41.4294 28.7758H41.6058C40.5866 30.234 39.5507 32.5174 39.9816 35.4623C40.0638 36.0226 40.585 36.4108 41.1447 36.3284C41.705 36.2463 42.0928 35.7256 42.0108 35.1653C41.4186 31.1183 44.4066 28.6537 44.5309 28.5532C44.8725 28.282 45.005 27.8242 44.8613 27.4125C44.7176 27.0008 44.3292 26.7248 43.8932 26.7248H41.4294C39.3978 26.7248 37.745 25.072 37.745 23.0405C37.745 22.8559 37.8953 22.7059 38.0798 22.7059H44.2092C46.5122 22.7059 48.3858 24.5795 48.3858 26.8825V34.3744C48.3858 36.151 47.7047 37.832 46.4679 39.1075C44.858 40.7677 43.9714 42.9555 43.9714 45.2682V46.0282C38.0486 46.7755 33.4528 51.8445 33.4528 57.9666C33.4528 64.6018 38.851 70.0002 45.4863 70.0002C47.4132 70.0002 49.3294 69.5335 51.0282 68.6509C51.5307 68.3897 51.7264 67.7705 51.4652 67.2679C51.204 66.7655 50.5848 66.5698 50.0823 66.8308C48.6545 67.5729 47.1082 67.9492 45.4863 67.9492C39.9818 67.9492 35.5037 63.4711 35.5037 57.9666C35.5037 52.4621 39.9818 47.984 45.4863 47.984C50.9908 47.984 55.469 52.4621 55.469 57.9666C55.469 60.241 54.724 62.3832 53.3147 64.1615C52.963 64.6054 53.0377 65.2504 53.4816 65.6021C53.9253 65.9538 54.5704 65.8791 54.9221 65.4354C56.6217 63.291 57.5198 60.7083 57.5198 57.9666C57.5198 51.5112 52.4098 46.2274 46.0224 45.9459ZM26.4868 27.2632C26.4868 28.3333 25.6163 29.2036 24.5463 29.2036C23.4762 29.2036 22.6058 28.3332 22.6058 27.2632V19.4936C22.6058 18.4234 23.4763 17.5531 24.5463 17.5531C25.6163 17.5531 26.4868 18.4236 26.4868 19.4936V27.2632ZM32.4189 25.3363C32.4189 26.4065 31.5484 27.2768 30.4784 27.2768H30.4782C29.4082 27.2768 28.5377 26.4063 28.5377 25.3363V17.5667C28.5377 16.4966 29.4084 15.6263 30.4784 15.6263C31.5485 15.6263 32.4189 16.4967 32.4189 17.5667V25.3363ZM38.9694 20.655H38.0798C36.7643 20.655 35.6941 21.7252 35.6941 23.0406C35.6941 24.6541 36.3649 26.1132 37.4411 27.1564C37.2143 27.2335 36.972 27.2768 36.7196 27.2768C35.479 27.2768 34.4698 26.2675 34.4698 25.0269V15.3954C34.4698 14.1548 35.479 13.1456 36.7196 13.1456C37.9603 13.1456 38.9696 14.1548 38.9696 15.3954V20.655H38.9694ZM45.5201 20.795C45.0972 20.7041 44.6589 20.655 44.2093 20.655H41.0205V13.8281C41.0205 12.5876 42.0298 11.5783 43.2705 11.5783C44.5111 11.5783 45.5203 12.5875 45.5203 13.8281V20.795H45.5201Z" fill="black"/>
<path d="M49.3951 53.2286L43.9629 60.3644L41.5907 57.0861C41.2587 56.6272 40.6173 56.5245 40.1588 56.8563C39.6999 57.1885 39.5972 57.8295 39.9291 58.2883L43.1113 62.6859C43.3015 62.949 43.6051 63.1062 43.9297 63.11C43.9338 63.1102 43.938 63.1102 43.9421 63.1102C44.2621 63.1102 44.5639 62.9607 44.7581 62.7058L51.0271 54.4708C51.3702 54.0201 51.2829 53.3767 50.8322 53.0336C50.3814 52.6907 49.7382 52.7782 49.3951 53.2286Z" fill="black"/>
</g>
<defs>
<clipPath id="clip0_0_6189">
<rect width="70" height="70" fill="white" transform="translate(0.5)"/>
</clipPath>
</defs>
</svg>
