<svg width="71" height="70" viewBox="0 0 71 70" fill="none" xmlns="http://www.w3.org/2000/svg">
<path d="M26.75 26.25V32.8125H9.67656C9.39219 31.3797 9.25 29.9141 9.25 28.4375C9.25 23.6031 11.2078 19.2281 14.3688 16.0563C17.5406 12.8953 21.9156 10.9375 26.75 10.9375V18.5938V19.6875H23.4688C21.6531 19.6875 20.1875 21.1531 20.1875 22.9688C20.1875 23.8766 20.5594 24.6969 21.15 25.2875C21.7406 25.8781 22.5609 26.25 23.4688 26.25H26.75Z" fill="#FCD770"/>
<path d="M68.3125 18.5938V29.5312C68.3125 30.1328 67.8203 30.625 67.2188 30.625H62.8438C62.2422 30.625 61.75 30.1328 61.75 29.5312V18.5938C61.75 18.2875 61.8703 18.025 62.0672 17.8172C62.275 17.6203 62.5375 17.5 62.8438 17.5H67.2188C67.8203 17.5 68.3125 17.9922 68.3125 18.5938Z" fill="#75B1F2"/>
<path d="M9.25 51.4062V64.5312C9.25 64.7063 9.20625 64.8703 9.12969 65.0234C8.95469 65.3844 8.58281 65.625 8.15625 65.625H3.78125C3.17969 65.625 2.6875 65.1328 2.6875 64.5312V51.4062C2.6875 50.8047 3.17969 50.3125 3.78125 50.3125H8.15625C8.58281 50.3125 8.95469 50.5531 9.12969 50.9141C9.20625 51.0672 9.25 51.2312 9.25 51.4062Z" fill="#B4DD7F"/>
<path d="M36.1453 62.7922C36.5391 63.1969 37.0859 63.4375 37.6875 63.4375C36.4844 63.4375 35.5 64.4219 35.5 65.625C35.5 65.7891 35.5219 65.9422 35.5547 66.0953C34.3844 67.1563 32.8313 67.8125 31.125 67.8125C29.3094 67.8125 27.6688 67.0797 26.4875 65.8875C25.2953 64.7063 24.5625 63.0656 24.5625 61.25H35.5C35.5 61.8516 35.7406 62.3984 36.1453 62.7922Z" fill="#AAB2BD"/>
<path d="M36.1453 58.4172C36.5391 58.8219 37.0859 59.0625 37.6875 59.0625C36.4844 59.0625 35.5 60.0469 35.5 61.25H24.5625V56.875H35.5C35.5 57.4766 35.7406 58.0234 36.1453 58.4172Z" fill="#CCD1D9"/>
<path d="M30.0344 37.1875C31.85 37.1875 33.3156 38.6531 33.3156 40.4688C33.3156 41.3766 32.9438 42.1969 32.3531 42.7875C31.7625 43.3781 30.9422 43.75 30.0344 43.75H26.7531V48.125H19.3156C18.9766 48.125 18.6375 48.1359 18.2984 48.1578V48.1469L13.8469 42.2187C11.7469 39.4187 10.3359 36.2031 9.67969 32.8125H26.7531V37.1875H30.0344Z" fill="#FCD770"/>
<path d="M41.7016 48.125C40.6953 49.4813 39.8641 50.9578 39.2297 52.5C38.9344 53.2109 38.6828 53.9438 38.475 54.6875H37.6875C36.4844 54.6875 35.5 55.6719 35.5 56.875H24.5625V56.2516C24.7156 56.1641 24.8578 56.0656 25 55.9672C25.7984 55.3875 26.4219 54.5781 26.75 53.5938L31.3328 52.8281C32.4703 52.6422 33.3125 51.6469 33.3125 50.4984C33.3125 49.1859 32.2516 48.125 30.9391 48.125H26.75V43.75H30.0312C30.9391 43.75 31.7594 43.3781 32.35 42.7875C32.9406 42.1969 33.3125 41.3766 33.3125 40.4688C33.3125 38.6531 31.8469 37.1875 30.0312 37.1875H26.75V32.8125H48.625L47.5969 37.4391C46.8313 40.8625 45.2125 44.0344 42.8828 46.6484C42.4562 47.1188 42.0625 47.6109 41.7016 48.125Z" fill="#FCD770"/>
<path d="M42.9484 9.40625C45.7703 10.3469 47.8375 12.7641 48.3297 15.6953L48.4172 16.2422C47.9359 15.8375 47.5312 15.3125 47.2359 14.7219C46.7437 13.7375 45.7484 13.125 44.6547 13.125C43.9437 13.125 43.2875 13.4094 42.8172 13.8797C42.3469 14.35 42.0625 15.0062 42.0625 15.7172C42.0625 16.1656 42.1828 16.6141 42.4016 17.0078C43.6484 19.1844 45.4312 20.9563 47.5312 22.1703C48.5812 22.7719 49.7188 23.2531 50.9 23.5703L50.8125 24.0625V28.4375H33.3125V21.875H30.0312C28.2156 21.875 26.75 20.4094 26.75 18.5938C26.75 17.6859 27.1219 16.8656 27.7125 16.275C28.3031 15.6844 29.1234 15.3125 30.0312 15.3125H33.3125V6.5625H37.7094C37.8078 7.2625 38.3 7.86406 38.9891 8.09375L42.9484 9.40625Z" fill="#FCD770"/>
<path d="M47.9766 48.7703C48.3813 49.1641 48.6219 49.7109 48.6219 50.3125C48.6219 51.5156 47.6375 52.5 46.4344 52.5H39.2266C39.8609 50.9578 40.6922 49.4813 41.6984 48.125H46.4344C47.0359 48.125 47.5828 48.3656 47.9766 48.7703Z" fill="#F0D0B4"/>
<path d="M42.0625 59.0625C42.6641 59.0625 43.2109 59.3031 43.6047 59.7078C44.0094 60.1016 44.25 60.6484 44.25 61.25C44.25 62.4531 43.2656 63.4375 42.0625 63.4375H37.6875C37.0859 63.4375 36.5391 63.1969 36.1453 62.7922C35.7406 62.3984 35.5 61.8516 35.5 61.25C35.5 60.0469 36.4844 59.0625 37.6875 59.0625H42.0625Z" fill="#F0D0B4"/>
<path d="M42.0625 63.4375C42.6641 63.4375 43.2109 63.6781 43.6047 64.0828C44.0094 64.4766 44.25 65.0234 44.25 65.625C44.25 66.8281 43.2656 67.8125 42.0625 67.8125H37.6875C37.0859 67.8125 36.5391 67.5719 36.1453 67.1672C35.85 66.8828 35.6422 66.5109 35.5547 66.0953C35.5219 65.9422 35.5 65.7891 35.5 65.625C35.5 64.4219 36.4844 63.4375 37.6875 63.4375H42.0625Z" fill="#F0D0B4"/>
<path d="M43.6047 55.3328C44.0094 55.7266 44.25 56.2734 44.25 56.875C44.25 58.0781 43.2656 59.0625 42.0625 59.0625H37.6875C37.0859 59.0625 36.5391 58.8219 36.1453 58.4172C35.7406 58.0234 35.5 57.4766 35.5 56.875C35.5 55.6719 36.4844 54.6875 37.6875 54.6875H38.475H42.0625C42.6641 54.6875 43.2109 54.9281 43.6047 55.3328Z" fill="#F0D0B4"/>
<path d="M24.5656 56.875V61.25C24.5656 63.0656 25.2984 64.7063 26.4906 65.8875C27.6719 67.0797 29.3125 67.8125 31.1281 67.8125H19.3156C16.2969 67.8125 13.3109 67.1125 10.6094 65.7562L9.13281 65.0234C9.20938 64.8703 9.25313 64.7062 9.25313 64.5312V51.4062C9.25313 51.2313 9.20938 51.0672 9.13281 50.9141L10.6094 50.1813C13.0047 48.9781 15.6297 48.2891 18.2984 48.1578C18.6375 48.1359 18.9766 48.125 19.3156 48.125H26.7531H30.9422C32.2547 48.125 33.3156 49.1859 33.3156 50.4984C33.3156 51.6469 32.4734 52.6422 31.3359 52.8281L26.7531 53.5938C26.425 54.5781 25.8016 55.3875 25.0031 55.9672C24.8609 56.0656 24.7188 56.1641 24.5656 56.2516V56.875Z" fill="#F0D0B4"/>
<path d="M48.4172 16.2422L48.3297 15.6953C47.8375 12.7641 45.7703 10.3469 42.9484 9.40625L38.9891 8.09375C38.3 7.86406 37.8078 7.2625 37.7094 6.5625C37.6984 6.46406 37.6875 6.37656 37.6875 6.27812C37.6875 5.22812 38.5406 4.375 39.5906 4.375H41.9203C48.1547 4.375 53.9844 7.49219 57.4406 12.6766C58.1297 13.7047 58.9062 14.6562 59.7703 15.5203L62.0672 17.8172C61.8703 18.025 61.75 18.2875 61.75 18.5938V29.5312L57.4953 25.2766C56.7188 24.5 55.6688 24.0625 54.5641 24.0625C53.3063 24.0625 52.0813 23.8875 50.9 23.5703C49.7188 23.2531 48.5813 22.7719 47.5312 22.1703C45.4313 20.9563 43.6484 19.1844 42.4016 17.0078C42.1828 16.6141 42.0625 16.1656 42.0625 15.7172C42.0625 15.0062 42.3469 14.35 42.8172 13.8797C43.2875 13.4094 43.9437 13.125 44.6547 13.125C45.7484 13.125 46.7437 13.7375 47.2359 14.7219C47.5312 15.3125 47.9359 15.8375 48.4172 16.2422Z" fill="#F0D0B4"/>
<path d="M67.2188 16.4062H62.8438C62.6491 16.4062 62.4642 16.4402 62.2848 16.4883L60.5491 14.7525C59.7331 13.9355 58.9948 13.0353 58.355 12.0761C54.6833 6.56797 48.5408 3.28125 41.9225 3.28125H39.595C38.2245 3.28125 37.0772 4.21094 36.7206 5.46875H32.2188V14.2188H30.0312C29.2306 14.2188 28.4902 14.4506 27.8438 14.8269V9.84375H26.75C16.4972 9.84375 8.15625 18.1847 8.15625 28.4375C8.15625 33.6098 9.86578 38.7373 12.9688 42.875L16.2642 47.2686C14.1325 47.5902 12.0489 48.2366 10.1217 49.2002L9.35938 49.5819C9.01375 49.3533 8.60031 49.2188 8.15625 49.2188H3.78125C2.57484 49.2188 1.59375 50.1998 1.59375 51.4062V64.5312C1.59375 65.7377 2.57484 66.7188 3.78125 66.7188H8.15625C8.60031 66.7188 9.01375 66.5842 9.35938 66.3556L10.1228 66.7373C12.9611 68.1559 16.1384 68.9062 19.3114 68.9062H31.125C32.5786 68.9062 33.983 68.495 35.1948 67.7337C35.7964 68.4447 36.6845 68.9062 37.6875 68.9062H42.0625C43.8716 68.9062 45.3438 67.4341 45.3438 65.625C45.3438 64.7817 45.0145 64.0194 44.4906 63.4375C45.0156 62.8556 45.3438 62.0933 45.3438 61.25C45.3438 60.4067 45.0145 59.6444 44.4906 59.0625C45.0156 58.4806 45.3438 57.7183 45.3438 56.875C45.3438 55.0659 43.8716 53.5938 42.0625 53.5938H46.4375C48.2466 53.5938 49.7188 52.1216 49.7188 50.3125C49.7188 48.5034 48.2466 47.0312 46.4375 47.0312H43.993C46.2811 44.345 47.8977 41.1239 48.6644 37.6764L49.9889 31.7188H27.8438V25.1562H23.4688C22.2623 25.1562 21.2812 24.1752 21.2812 22.9688C21.2812 21.7623 22.2623 20.7812 23.4688 20.7812H26.2644C27.0234 22.0828 28.4191 22.9688 30.0312 22.9688H32.2188V29.5312H51.9062V24.9112C52.7769 25.0677 53.6661 25.1562 54.5673 25.1562C55.3811 25.1562 56.1456 25.4734 56.7209 26.0477L60.7273 30.0541C60.9625 31.0078 61.8189 31.7188 62.8438 31.7188H67.2188C68.4252 31.7188 69.4062 30.7377 69.4062 29.5312V18.5938C69.4062 17.3873 68.4252 16.4062 67.2188 16.4062ZM14.7188 41.5625C13.0059 39.2788 11.7678 36.6614 11.0536 33.9062H25.6562V38.2812H30.0312C31.2377 38.2812 32.2188 39.2623 32.2188 40.4688C32.2188 41.6752 31.2377 42.6562 30.0312 42.6562H25.6562V47.0312H19.3114C19.1517 47.0312 18.9909 47.0411 18.8313 47.0455L14.7188 41.5625ZM3.78125 64.5312V51.4062H8.15625L8.15734 64.5312H3.78125ZM19.3114 66.7188C16.4764 66.7188 13.637 66.0483 11.1006 64.7806L10.3438 64.4022V51.5353L11.1006 51.1569C13.637 49.8892 16.4753 49.2188 19.3114 49.2188H30.9445C31.6467 49.2188 32.2188 49.7908 32.2188 50.4941C32.2188 51.1197 31.7703 51.6491 31.1534 51.7519L25.9209 52.6236L25.7131 53.2481C25.2067 54.763 23.7947 55.7812 22.1978 55.7812H21.2812V57.9688H22.1978C22.6331 57.9688 23.0564 57.9064 23.4688 57.8156V61.25C23.4688 63.3916 24.3547 65.3275 25.7766 66.7188H19.3114ZM34.6075 57.9688C34.753 58.3778 34.9739 58.7464 35.2594 59.0625C34.9739 59.3786 34.753 59.7472 34.6075 60.1562H25.6562V57.9688H34.6075ZM43.1562 61.25C43.1562 61.8527 42.6652 62.3438 42.0625 62.3438H37.6875C37.0848 62.3438 36.5938 61.8527 36.5938 61.25C36.5938 60.6473 37.0848 60.1562 37.6875 60.1562H42.0625C42.6652 60.1562 43.1562 60.6473 43.1562 61.25ZM25.7667 62.3438H34.6075C34.753 62.7528 34.9739 63.1214 35.2594 63.4375C34.7409 64.0117 34.4172 64.7631 34.4095 65.5933C33.4634 66.3097 32.3237 66.7188 31.125 66.7188C28.4847 66.7188 26.2753 64.8364 25.7667 62.3438ZM42.0625 66.7188H37.6875C37.0848 66.7188 36.5938 66.2277 36.5938 65.625C36.5938 65.0223 37.0848 64.5312 37.6875 64.5312H42.0625C42.6652 64.5312 43.1562 65.0223 43.1562 65.625C43.1562 66.2277 42.6652 66.7188 42.0625 66.7188ZM43.1562 56.875C43.1562 57.4777 42.6652 57.9688 42.0625 57.9688H37.6875C37.0848 57.9688 36.5938 57.4777 36.5938 56.875C36.5938 56.2723 37.0848 55.7812 37.6875 55.7812H42.0625C42.6652 55.7812 43.1562 56.2723 43.1562 56.875ZM47.5312 50.3125C47.5312 50.9152 47.0402 51.4062 46.4375 51.4062H40.9698C41.3592 50.6516 41.7847 49.9166 42.2681 49.2188H46.4375C47.0402 49.2188 47.5312 49.7098 47.5312 50.3125ZM47.2611 33.9062L46.5294 37.2028C45.8108 40.4348 44.2686 43.4503 42.0691 45.9244C40.1014 48.1392 38.5964 50.7784 37.6733 53.5959C36.2558 53.6025 35.0592 54.5158 34.6075 55.7823H26.7653C27.0639 55.4137 27.3297 55.0134 27.5353 54.5727L31.5122 53.9098C33.19 53.6287 34.4062 52.1927 34.4062 50.4941C34.4062 48.5844 32.8531 47.0312 30.9434 47.0312H27.8438V44.8438H30.0312C32.4441 44.8438 34.4062 42.8816 34.4062 40.4688C34.4062 38.0559 32.4441 36.0938 30.0312 36.0938H27.8438V33.9062H47.2611ZM23.4688 18.5938C21.0559 18.5938 19.0938 20.5559 19.0938 22.9688C19.0938 25.3816 21.0559 27.3438 23.4688 27.3438H25.6562V31.7188H10.603C10.4367 30.6338 10.3438 29.5378 10.3438 28.4375C10.3438 19.7586 17.1184 12.6328 25.6562 12.0673V18.5938H23.4688ZM49.7188 27.3438H34.4062V20.7812H30.0312C28.8248 20.7812 27.8438 19.8002 27.8438 18.5938C27.8438 17.3873 28.8248 16.4062 30.0312 16.4062H34.4062V7.65625H36.9273C37.2773 8.33656 37.8833 8.87469 38.6456 9.12844L42.6083 10.4497C43.6255 10.7887 44.5169 11.3575 45.2541 12.0783C45.0572 12.0487 44.8581 12.0312 44.6558 12.0312C42.6225 12.0312 40.9688 13.685 40.9688 15.7183C40.9688 16.3592 41.1372 16.9925 41.4544 17.547C43.3072 20.7889 46.2767 23.1809 49.7188 24.3523V27.3438ZM54.5673 22.9688C49.9441 22.9688 45.6478 20.475 43.3542 16.4598C43.2252 16.2345 43.1573 15.9786 43.1573 15.7172C43.1562 14.8914 43.8289 14.2188 44.6558 14.2188C45.3383 14.2188 45.9519 14.5983 46.2559 15.2086C47.3005 17.2966 49.3994 18.5938 51.7345 18.5938H54.0938V16.4062H51.7345C50.8825 16.4062 50.0841 16.1295 49.4256 15.6516L49.4038 15.517C48.8481 12.1811 46.5086 9.44344 43.2995 8.37375L39.3369 7.0525C39.0044 6.94313 38.7812 6.6325 38.7812 6.2825C38.7812 5.83297 39.1455 5.46875 39.595 5.46875H41.9225C47.8069 5.46875 53.2702 8.39234 56.5339 13.288C57.2536 14.3675 58.0837 15.3803 59.0014 16.298L60.7372 18.0338C60.6902 18.2142 60.6562 18.3991 60.6562 18.5938V26.8909L58.2664 24.5011C57.2787 23.5134 55.9641 22.9688 54.5673 22.9688ZM62.8438 29.5312V18.5938H67.2188L67.2198 29.5312H62.8438Z" fill="black"/>
</svg>
