<svg width="71" height="70" viewBox="0 0 71 70" fill="none" xmlns="http://www.w3.org/2000/svg">
<path fill-rule="evenodd" clip-rule="evenodd" d="M35.9526 58.8555L38.8176 60.4847C42.5155 62.6197 44.7507 58.08 41.8617 56.3978L43.4702 57.3265C44.7551 58.0684 46.4131 57.624 47.1549 56.3392C47.8942 55.0589 47.4526 53.4026 46.176 52.6594L47.0365 53.1561C48.4045 53.9459 50.1701 53.4727 50.96 52.1048C51.7464 50.7426 51.2774 48.98 49.9199 48.188L49.9227 48.1895L50.7776 48.683C52.1456 49.4729 53.9113 48.9997 54.701 47.6318C55.0938 46.9515 55.171 46.1628 54.9835 45.4536C54.7599 44.8749 54.5636 44.366 53.6498 43.7084L45.0193 38.7257C40.4522 35.0612 37.981 32.9538 34.5693 29.4888C28.6416 25.2284 24.3754 30.5283 16.5334 26.1178L10.9552 22.9805C5.97744 27.0361 3.1531 32.1123 4.90351 40.3898L14.8654 45.5251L17.4335 48.2887L35.9526 58.8555Z" fill="#DEA368"/>
<path fill-rule="evenodd" clip-rule="evenodd" d="M54.2199 48.2543C54.4062 48.074 54.5708 47.8652 54.7066 47.6302C55.0993 46.9499 55.1767 46.161 54.9891 45.452C54.7655 44.8733 54.5692 44.3643 53.6554 43.7068L45.0249 38.7239C40.4578 35.0595 37.9866 32.9521 34.575 29.4871C33.8349 28.9551 33.1206 28.5722 32.422 28.3008L24.8817 33.002C22.1808 34.686 22.2473 38.1553 24.5916 40.0966C25.9562 41.2267 27.5413 41.8812 29.3294 41.8116C32.9017 41.6726 35.7186 38.7069 38.9585 38.6876C40.8072 38.6766 42.4075 39.6905 43.952 40.5821L52.4834 45.5077C53.2134 45.9741 54.6657 46.8028 54.22 48.2542L54.2199 48.2543Z" fill="#D19458"/>
<path fill-rule="evenodd" clip-rule="evenodd" d="M43.1089 59.1868C43.3636 58.2072 43.0301 57.0717 41.8706 56.3966L43.4791 57.3253L43.482 57.327L40.9174 55.8463C40.4891 55.5991 39.9372 55.7471 39.6898 56.1753C39.4429 56.6029 39.5911 57.156 40.0188 57.4027L43.1089 59.1868Z" fill="#D19458"/>
<path fill-rule="evenodd" clip-rule="evenodd" d="M47.4784 55.4801C47.6762 54.3927 47.1889 53.2427 46.1844 52.6578L47.045 53.1545L47.0454 53.1548L43.1282 50.8933C42.6999 50.646 42.148 50.7939 41.9008 51.2222C41.6539 51.6499 41.8021 52.2029 42.2297 52.4498L47.4784 55.4801Z" fill="#D19458"/>
<path fill-rule="evenodd" clip-rule="evenodd" d="M51.32 51.0653C51.4734 49.9463 50.956 48.787 49.9272 48.1859L46.2065 46.0378C45.7782 45.7906 45.2262 45.9384 44.9789 46.3667C44.732 46.7944 44.8802 47.3474 45.3078 47.5942L51.32 51.0653Z" fill="#D19458"/>
<path fill-rule="evenodd" clip-rule="evenodd" d="M16.9564 49.1202C16.1755 50.4729 16.6432 52.2188 17.996 52.9998C19.3469 53.7798 21.0956 53.3111 21.8755 51.9602L23.9166 48.425C24.6977 47.0723 24.2298 45.3265 22.8771 44.5454C21.5262 43.7654 19.7774 44.234 18.9976 45.585L16.9565 49.1203L16.9564 49.1202Z" fill="#FDD7AD"/>
<path fill-rule="evenodd" clip-rule="evenodd" d="M18.5234 53.2386C19.7725 53.6497 21.1936 53.143 21.8751 51.9629L23.9163 48.4273C24.5988 47.2451 24.3276 45.7629 23.3455 44.8867L18.5236 53.2386H18.5234Z" fill="#F2C496"/>
<path fill-rule="evenodd" clip-rule="evenodd" d="M31.7142 57.6436C30.9333 58.9963 31.401 60.7422 32.7538 61.5233C34.1047 62.3033 35.8534 61.8346 36.6333 60.4837L38.6744 56.9484C39.4555 55.5957 38.9876 53.8499 37.6349 53.0689C36.284 52.2889 34.5353 52.7574 33.7554 54.1083L31.7143 57.6436H31.7142Z" fill="#FDD7AD"/>
<path fill-rule="evenodd" clip-rule="evenodd" d="M33.2812 61.7581C34.5303 62.1692 35.9515 61.6627 36.633 60.4823L38.6741 56.947C39.3566 55.7648 39.0854 54.2826 38.1033 53.4062L33.2812 61.7581Z" fill="#F2C496"/>
<path fill-rule="evenodd" clip-rule="evenodd" d="M26.1048 55.9934C25.3239 57.3461 25.7916 59.092 27.1444 59.8731C28.4952 60.6531 30.244 60.1844 31.024 58.8335L33.7542 54.1046C34.5353 52.752 34.0675 51.0062 32.7148 50.2251C31.3639 49.4451 29.6151 49.9137 28.8352 51.2646L26.105 55.9934H26.1048Z" fill="#FDD7AD"/>
<path fill-rule="evenodd" clip-rule="evenodd" d="M27.6719 60.1118C28.9209 60.5229 30.342 60.0163 31.0235 58.836L33.7538 54.1071C34.4363 52.9251 34.1651 51.4428 33.183 50.5664L27.6719 60.1118Z" fill="#F2C496"/>
<path fill-rule="evenodd" clip-rule="evenodd" d="M20.6048 54.156C19.8239 55.5087 20.2916 57.2546 21.6444 58.0355C22.9954 58.8155 24.744 58.3468 25.524 56.9959L28.8327 51.2648C29.6138 49.9121 29.1459 48.1663 27.7932 47.3853C26.4423 46.6053 24.6935 47.0738 23.9137 48.4249L20.6048 54.156Z" fill="#FDD7AD"/>
<path fill-rule="evenodd" clip-rule="evenodd" d="M22.172 58.2743C23.4187 58.6848 24.8369 58.1808 25.5198 57.005L28.8324 51.2673C29.5149 50.0851 29.2437 48.6029 28.2616 47.7266L22.172 58.2743Z" fill="#F2C496"/>
<path fill-rule="evenodd" clip-rule="evenodd" d="M65.9309 40.3898L54.9861 45.4536C54.7627 44.8749 54.5664 44.366 53.6524 43.7084L45.0219 38.7257C43.136 37.6369 41.3175 36.5297 38.9428 36.5438C33.7773 36.5743 30.3074 42.0484 25.957 38.4458C24.8616 37.5387 24.4513 35.7988 26.0139 34.8247L35.2423 29.0709C38.3208 27.1515 41.6347 26.2364 44.9987 27.3452C47.8836 28.2961 50.7346 28.0664 53.3891 26.59L59.879 22.9805C65.4726 26.8463 67.9204 33.888 65.9309 40.3898Z" fill="#FDD7AD"/>
<path fill-rule="evenodd" clip-rule="evenodd" d="M67.745 41.231L65.0029 42.3954C64.6566 42.5425 64.2912 42.51 63.9765 42.3039C63.6616 42.0979 63.4856 41.7761 63.4818 41.3998C63.4158 34.8875 60.7507 29.5478 56.0227 25.5672C55.739 25.3284 55.6027 24.9948 55.6384 24.6255C55.6739 24.2564 55.8714 23.955 56.1954 23.7747L59.6925 21.8297C60.2834 21.5011 60.9751 21.5566 61.506 21.9753C67.0366 26.3376 69.9579 33.9488 68.7112 40.0496C68.5997 40.5949 68.2574 41.0136 67.745 41.2311V41.231Z" fill="#2A92FA"/>
<path fill-rule="evenodd" clip-rule="evenodd" d="M67.7451 41.2311L65.8561 42.0334C65.845 42.0265 65.834 42.0197 65.823 42.0124C65.4893 41.794 65.3027 41.4528 65.2986 41.0538C65.2287 34.1491 62.403 28.4877 57.3901 24.2673C57.1076 24.0294 56.9628 23.7029 56.9776 23.3398L59.6926 21.8297C60.2834 21.5011 60.9751 21.5566 61.506 21.9753C67.0367 26.3376 69.9579 33.9488 68.7113 40.0494C68.5999 40.5948 68.2574 41.0136 67.7451 41.2311Z" fill="#5CAEFF"/>
<path fill-rule="evenodd" clip-rule="evenodd" d="M3.25914 41.231L6.00131 42.3954C6.34762 42.5425 6.71293 42.5098 7.0278 42.3039C7.34266 42.0979 7.51862 41.7761 7.52244 41.3998C7.58848 34.8875 10.2535 29.5478 14.9815 25.5672C15.2652 25.3284 15.4015 24.9948 15.366 24.6255C15.3303 24.2564 15.133 23.955 14.8089 23.7747L11.3117 21.8297C10.7208 21.5011 10.0292 21.5566 9.4983 21.9753C3.96748 26.3375 1.04621 33.9486 2.29295 40.0494C2.40438 40.5948 2.74686 41.0134 3.25914 41.231Z" fill="#29B933"/>
<path fill-rule="evenodd" clip-rule="evenodd" d="M3.25914 41.2311L5.14819 42.0334C5.15926 42.0265 5.1702 42.0197 5.18127 42.0124C5.515 41.794 5.70162 41.4528 5.70573 41.0538C5.77559 34.1491 8.60129 28.4877 13.6142 24.2673C13.8967 24.0294 14.0415 23.7029 14.0267 23.3398L11.3117 21.8297C10.7208 21.5011 10.0292 21.5566 9.4983 21.9753C3.96748 26.3376 1.04621 33.9488 2.29295 40.0496C2.40438 40.5949 2.74686 41.0136 3.25914 41.2311Z" fill="#43F043"/>
<path d="M38.3279 32.4273C44.9401 30.8643 49.0333 24.237 47.4703 17.6248C45.9073 11.0126 39.28 6.91941 32.6678 8.48242C26.0556 10.0454 21.9624 16.6728 23.5254 23.285C25.0884 29.8972 31.7157 33.9904 38.3279 32.4273Z" fill="#F9AC00"/>
<path fill-rule="evenodd" clip-rule="evenodd" d="M35.1157 32.7681C28.4979 32.565 23.1953 27.1371 23.1953 20.47C23.1953 13.8029 28.4978 8.37504 35.1157 8.17188C41.7334 8.37504 47.0361 13.8029 47.0361 20.47C47.0361 27.1371 41.7334 32.565 35.1157 32.7681Z" fill="#FCDB35"/>
<path d="M35.4971 30.2871C40.919 30.2871 45.3144 25.8917 45.3144 20.4697C45.3144 15.0477 40.919 10.6523 35.4971 10.6523C30.0751 10.6523 25.6797 15.0477 25.6797 20.4697C25.6797 25.8917 30.0751 30.2871 35.4971 30.2871Z" fill="#F19A00"/>
<path fill-rule="evenodd" clip-rule="evenodd" d="M36.1313 10.6719C41.2589 10.9975 45.3172 15.2587 45.3172 20.4685C45.3172 25.6783 41.2589 29.9394 36.1313 30.265C31.0037 29.9394 26.9453 25.6783 26.9453 20.4685C26.9453 15.2587 31.0037 10.9975 36.1313 10.6719Z" fill="#F9AC00"/>
<path fill-rule="evenodd" clip-rule="evenodd" d="M35.5038 11.3281L38.0972 16.848L44.1484 17.6087L39.7 21.7808L40.8464 27.7709L35.5038 24.8295L30.1613 27.7709L31.3077 21.7808L26.8594 17.6087L32.9105 16.848L35.5038 11.3281Z" fill="#FCDB35"/>
<path fill-rule="evenodd" clip-rule="evenodd" d="M39.4035 26.9761L35.5038 24.8292L34.6914 24.382L30.3527 26.7707L31.3077 21.7805L26.8594 17.6084L32.9105 16.8477L34.8815 12.6523L36.7745 16.6814L42.8257 17.4421L38.3772 21.6143L39.4035 26.9761Z" fill="#FFEB87"/>
<path fill-rule="evenodd" clip-rule="evenodd" d="M28.6918 18.2063L33.0103 17.6636C33.2896 17.628 33.5313 17.4527 33.6507 17.1984L35.5013 13.2587L37.3532 17.1984C37.4717 17.4527 37.7136 17.628 37.9929 17.6636L42.3119 18.2063L39.1365 21.1842C38.9323 21.3772 38.8387 21.6598 38.8921 21.9359L39.7096 26.2115L35.8964 24.1126C35.6507 23.9775 35.3523 23.9775 35.1065 24.1126L31.2934 26.2115L32.111 21.9359C32.1643 21.6598 32.0714 21.3772 31.8665 21.1842L28.6918 18.2063ZM29.3532 27.618C29.2932 27.931 29.4191 28.2498 29.6774 28.4356C29.9343 28.6227 30.2762 28.6451 30.5548 28.4917L35.5012 25.7669L40.4481 28.4917C40.5726 28.5589 40.7077 28.5931 40.8447 28.5931C41.0139 28.5931 41.1833 28.5398 41.3257 28.4356C41.5839 28.2498 41.7097 27.931 41.6498 27.618L40.5892 22.0716L44.7067 18.2091C44.9393 17.9917 45.0243 17.6596 44.9274 17.3573C44.8285 17.0542 44.563 16.8361 44.2488 16.7966L38.645 16.0931L36.2437 10.9807C36.1086 10.6942 35.82 10.5091 35.5012 10.5091C35.1843 10.5091 34.8944 10.6942 34.7593 10.9807L32.358 16.0931L26.7543 16.7966C26.44 16.8361 26.1746 17.0542 26.0777 17.3573C25.9788 17.6597 26.0639 17.9917 26.2964 18.2091L30.4145 22.0716L29.3532 27.618ZM67.909 39.9528C67.8517 40.2335 67.6889 40.4311 67.4254 40.5437L64.6841 41.7086C64.5899 41.7481 64.5134 41.7415 64.4272 41.6849C64.3409 41.6288 64.304 41.5624 64.3026 41.4596C64.2367 34.9091 61.5561 29.2203 56.5518 25.0066C56.4753 24.9427 56.4463 24.8729 56.4562 24.7714C56.4653 24.672 56.5069 24.6074 56.5959 24.5599L60.0929 22.6144C60.224 22.5406 60.3624 22.505 60.4975 22.505C60.6727 22.505 60.8453 22.5651 60.9995 22.6869C66.2086 26.7951 69.114 34.0559 67.909 39.9528ZM54.1512 43.0373C54.1295 43.0209 54.1064 43.0057 54.0814 42.9918L45.2673 37.9033C43.4313 36.8412 41.5339 35.7431 39.0587 35.7431H39.0087C36.7759 35.7557 34.8523 36.6964 33.1559 37.5245C30.3745 38.8837 28.6985 39.5675 26.5969 37.827C26.1582 37.4647 25.896 36.933 25.9276 36.4739C25.9519 36.1069 26.1667 35.794 26.564 35.5462L30.9819 32.7918C32.3911 33.3116 33.9143 33.5942 35.5013 33.5942C39.7236 33.5942 43.486 31.59 45.888 28.4825C46.7589 28.6861 47.6206 28.7901 48.4704 28.7901C50.3111 28.7901 52.0979 28.3124 53.8081 27.3612L55.6085 26.3605C60.1055 30.1941 62.4733 35.116 62.6524 40.9978L55.4036 44.3511C55.1684 43.9465 54.8074 43.5091 54.1512 43.0373ZM54.0089 47.203C53.7389 47.6721 53.2968 48.008 52.769 48.1503C52.2387 48.2913 51.6892 48.2202 51.2201 47.9494L46.654 45.3122C46.2613 45.0869 45.7593 45.2207 45.5326 45.6132C45.3053 46.0052 45.441 46.5072 45.833 46.7345L49.5329 48.8696C49.5329 48.8705 49.5333 48.871 49.5343 48.871C50.5093 49.433 50.844 50.6854 50.2807 51.6598C50.0099 52.1288 49.5698 52.4655 49.0408 52.6078C48.5119 52.7494 47.9624 52.6789 47.4914 52.4068L46.6278 51.9075H46.6264C46.6264 51.9061 46.625 51.9061 46.625 51.9061L43.1551 49.9033C42.7624 49.676 42.2611 49.8117 42.0351 50.2037C41.8084 50.5964 41.9423 51.0984 42.3349 51.3237L45.8062 53.3277C46.6976 53.8436 47.0039 54.9879 46.4894 55.8793C45.9742 56.7707 44.8299 57.0783 43.9385 56.5625L42.3264 55.6316H42.3251L40.9646 54.8456C40.6095 54.6408 40.1648 54.7322 39.9145 55.044C39.7807 53.9417 39.1509 52.9154 38.1185 52.3192C37.1296 51.7486 35.9839 51.6939 34.9918 52.0714C34.9719 51.9496 34.9464 51.8283 34.9134 51.7064C34.6605 50.763 34.0576 49.9757 33.2156 49.4889C32.3743 49.0033 31.3914 48.8749 30.4467 49.1292C30.3249 49.1608 30.2062 49.1991 30.0903 49.2445C30.0711 49.1213 30.0449 48.9981 30.0119 48.8762C29.759 47.9314 29.1562 47.1455 28.3141 46.6586C27.3252 46.0887 26.1797 46.0341 25.1889 46.4115C25.1685 46.2897 25.1421 46.1664 25.1099 46.046C24.8569 45.1012 24.2535 44.314 23.4128 43.8284C21.6696 42.8224 19.4315 43.4212 18.4257 45.1644L17.4276 46.8951L15.6238 44.9556C15.5599 44.8858 15.4835 44.8266 15.3985 44.7843L8.348 41.149C8.49033 35.2099 10.8528 30.2425 15.3741 26.378L16.2833 26.888C19.138 28.4941 21.5314 28.877 23.7027 28.877C24.2745 28.877 24.8305 28.8499 25.3774 28.8131C26.4348 30.0925 27.7273 31.1689 29.1919 31.974L25.6962 34.1533C24.8497 34.6824 24.3509 35.4671 24.289 36.3637C24.2238 37.3472 24.706 38.3915 25.55 39.0898C28.5699 41.5907 31.2677 40.273 33.8746 38.9982C35.4906 38.2096 37.1601 37.3947 39.0192 37.3841H39.0574C41.0931 37.3841 42.7216 38.3263 44.4457 39.3229L53.2257 44.3918C53.889 44.8761 54.0255 45.1916 54.2185 45.6923C54.3431 46.2061 54.2679 46.7543 54.0091 47.2029L54.0089 47.203ZM42.1926 59.3454C42.5878 58.6603 42.5411 57.6509 41.5048 57.0521L40.1443 56.2661C40.0447 56.21 39.9624 56.135 39.8986 56.0487C39.8301 56.4795 39.6852 56.9058 39.4538 57.305L38.3682 59.1853L39.2937 59.7058C40.786 60.5675 41.786 60.049 42.1925 59.3454H42.1926ZM34.7785 60.9404C35.299 60.8013 35.7324 60.4706 35.9992 60.0082L38.0336 56.485C38.587 55.5251 38.2576 54.2952 37.2977 53.7398C36.3398 53.187 35.1104 53.5152 34.5558 54.4711L32.5181 58.0004C31.9647 58.9596 32.294 60.1902 33.2539 60.7436C33.7158 61.0105 34.2559 61.0802 34.7785 60.9406V60.9404ZM29.1891 59.3C29.7103 59.1603 30.1451 58.8297 30.4113 58.3679L31.0977 57.1781L33.1309 53.6575V53.6549C33.399 53.1931 33.4688 52.6515 33.3291 52.1317C33.1894 51.6112 32.8574 51.1777 32.3956 50.9096C31.9344 50.6448 31.3936 50.573 30.8724 50.7146C30.3514 50.8537 29.9178 51.183 29.653 51.6429C29.6517 51.6434 29.651 51.6443 29.651 51.6455L26.9294 56.358C26.3753 57.3179 26.7048 58.5498 27.6646 59.1031C28.1271 59.37 28.668 59.4397 29.189 59.3002L29.1891 59.3ZM24.932 56.5369L25.3721 55.7754L28.2292 50.8246L28.2306 50.8239C28.4961 50.3613 28.566 49.8212 28.4276 49.3021C28.2867 48.7809 27.9559 48.3475 27.4941 48.0792C26.5343 47.5258 25.3024 47.8553 24.7489 48.8151L22.5189 52.6776L21.451 54.5269C21.1841 54.9894 21.1151 55.5303 21.254 56.0501C21.3937 56.5713 21.7244 57.0047 22.1868 57.2729C22.6486 57.5377 23.1902 57.6088 23.7112 57.4679C24.2317 57.3281 24.6665 56.9975 24.932 56.5369ZM20.0714 52.4504C20.5938 52.3107 21.0273 51.9801 21.2934 51.5183L23.3298 47.9917C23.5946 47.5313 23.6645 46.9911 23.5247 46.4718C23.385 45.9508 23.055 45.5173 22.5925 45.2497C21.6313 44.6956 20.4006 45.0251 19.8459 45.985L17.8128 49.5082C17.2588 50.4681 17.5888 51.7001 18.548 52.2534C19.0092 52.5203 19.5502 52.59 20.0714 52.4504ZM6.57572 41.6849C6.66199 41.6288 6.6989 41.5624 6.70027 41.4596C6.76617 34.9091 9.44681 29.2203 14.4511 25.0066C14.5276 24.9427 14.5565 24.8715 14.5467 24.7714C14.5374 24.672 14.496 24.6074 14.4083 24.5599L10.9113 22.6144C10.6063 22.4457 10.277 22.4721 10.0035 22.6869C4.79578 26.7951 1.889 34.0559 3.09404 39.9528C3.15132 40.2335 3.31402 40.4311 3.57761 40.5437L6.32019 41.7086C6.41316 41.7481 6.4915 41.7415 6.57572 41.6849ZM35.5012 8.98506C29.1688 8.98506 24.0169 14.1362 24.0169 20.4693C24.0169 26.8024 29.1688 31.9535 35.5012 31.9535C41.8336 31.9535 46.9861 26.8017 46.9861 20.4693C46.9861 14.1369 41.8343 8.98506 35.5012 8.98506ZM62.0153 21.3988C61.2208 20.7723 60.1792 20.6893 59.2945 21.1801L55.7975 23.1255C55.2395 23.4358 54.8843 23.9786 54.8224 24.6143C54.8126 24.7184 54.8145 24.8191 54.8198 24.9206L53.0107 25.9266C51.068 27.0064 49.0105 27.3673 46.8793 27.0077C47.9907 25.0814 48.6264 22.8474 48.6264 20.469C48.6264 13.2307 42.7393 7.34375 35.5012 7.34375C28.263 7.34375 22.3764 13.2309 22.3764 20.469C22.3764 22.9395 23.0629 25.2513 24.2535 27.2265C22.1578 27.2845 19.8526 27.0136 17.0869 25.4576L16.1803 24.949C16.1883 24.8383 16.1916 24.7277 16.1803 24.6143C16.1191 23.9786 15.7634 23.4357 15.2053 23.1255L11.7083 21.1801C10.8236 20.6893 9.78191 20.7723 8.98744 21.3988C3.31921 25.8696 0.164839 33.8114 1.48705 40.2809C1.65111 41.0859 2.17884 41.7329 2.9364 42.0545L5.67898 43.2179C5.92343 43.3227 6.17964 43.3734 6.43203 43.3734C6.79433 43.3734 7.15404 43.2673 7.47423 43.0578C7.61656 42.9662 7.74111 42.8582 7.85048 42.7376L14.5195 46.1767L16.5684 48.3817L16.3924 48.688C15.3844 50.4312 15.9846 52.6679 17.7277 53.6739C18.3668 54.0435 19.0882 54.2062 19.8116 54.1515C19.5125 54.8854 19.4585 55.6931 19.6693 56.475C19.9223 57.4184 20.5251 58.2064 21.3657 58.6926C22.207 59.1781 23.1899 59.3066 24.136 59.053C24.5287 58.9476 24.8963 58.7823 25.2244 58.5635C25.5017 59.3613 26.0572 60.0682 26.8444 60.5235C27.685 61.0104 28.6699 61.1375 29.6146 60.8845C30.0652 60.7632 30.481 60.5623 30.8459 60.2941C31.1331 61.0556 31.6747 61.7271 32.4336 62.1658C32.9924 62.4865 33.6129 62.6526 34.2447 62.6526C34.5635 62.6526 34.8851 62.6098 35.202 62.5255C36.1468 62.2726 36.934 61.6691 37.4196 60.8284L37.548 60.6071L38.4803 61.1308C39.2978 61.6025 40.0666 61.8021 40.7558 61.8021C42.057 61.8021 43.0774 61.0925 43.613 60.1656C43.9206 59.632 44.082 58.9976 44.0531 58.3552C44.3225 58.4197 44.5946 58.454 44.8653 58.454C46.0795 58.454 47.2608 57.8236 47.9103 56.6996C48.3432 55.9506 48.4663 55.1054 48.3201 54.3142C48.3801 54.3181 48.4406 54.3207 48.5005 54.3207C48.8219 54.3207 49.1461 54.2786 49.4644 54.1922C50.4177 53.9379 51.2115 53.3292 51.7011 52.4806C52.1774 51.6558 52.2973 50.7223 52.1102 49.8592C52.1497 49.8612 52.1892 49.8638 52.2287 49.8638C52.5503 49.8638 52.8744 49.821 53.1926 49.7353C54.1459 49.4791 54.9404 48.8723 55.4298 48.023C55.7935 47.392 55.9569 46.656 55.9081 45.9261L63.0555 42.6188C63.1852 42.7867 63.3427 42.9357 63.5285 43.0576C63.8487 43.267 64.2084 43.3731 64.5707 43.3731C64.8236 43.3731 65.0793 43.3224 65.325 43.2177L68.0663 42.0542C68.824 41.7328 69.3516 41.0858 69.5157 40.2807C70.8379 33.8113 67.6835 25.8693 62.0152 21.3987L62.0153 21.3988Z" fill="#021047"/>
</svg>
