<svg width="70" height="70" viewBox="0 0 70 70" fill="none" xmlns="http://www.w3.org/2000/svg">
<g clip-path="url(#clip0_0_6113)">
<path fill-rule="evenodd" clip-rule="evenodd" d="M35.6172 4.0625H41.5576V7.91811H39.5585V11.8594H41.5576V15.7149H35.6172V4.0625Z" fill="#5D689E"/>
<path fill-rule="evenodd" clip-rule="evenodd" d="M40.0938 4.0625H41.5629V7.91811H40.0938V4.0625ZM40.0938 11.8594H41.5629V15.715H40.0938V11.8594Z" fill="#495586"/>
<path fill-rule="evenodd" clip-rule="evenodd" d="M35.0079 1.5C36.1208 1.5 37.0314 2.41055 37.0314 3.52344V29.102H32.9844V3.52344C32.9844 2.41055 33.8949 1.5 35.0078 1.5H35.0079Z" fill="#A3A3CC"/>
<path fill-rule="evenodd" clip-rule="evenodd" d="M33.4876 2.19123C33.1747 2.5478 32.9844 3.01428 32.9844 3.52315V29.1016H35.6429V3.00293C35.6429 2.48067 35.3348 2.03551 34.8461 1.85149C34.3573 1.66746 33.8322 1.79871 33.4876 2.19123Z" fill="#BCBEE2"/>
<path fill-rule="evenodd" clip-rule="evenodd" d="M37.1829 26.8125H32.834C31.9585 26.8125 31.2422 27.5288 31.2422 28.4043V31.3929H38.7747V28.4043C38.7747 27.5288 38.0583 26.8125 37.1829 26.8125Z" fill="#7986BF"/>
<path fill-rule="evenodd" clip-rule="evenodd" d="M35.7942 26.8125H32.834C31.9585 26.8125 31.2422 27.5288 31.2422 28.4043V31.3929H37.3861V28.4043C37.3861 27.5289 36.6698 26.8125 35.7942 26.8125Z" fill="#909CD1"/>
<path d="M32.9844 8.4375H37.0314V11.4077H32.9844V8.4375Z" fill="#909CD1"/>
<path d="M35.6406 8.4375H37.0291V11.4077H35.6406V8.4375Z" fill="#7986BF"/>
<path d="M43.1882 38.9763C44.1133 34.4659 41.2068 30.0596 36.6965 29.1345C32.1861 28.2094 27.7798 31.1158 26.8547 35.6262C25.9296 40.1366 28.8361 44.5429 33.3464 45.468C37.8568 46.3931 42.2631 43.4866 43.1882 38.9763Z" fill="#F9AC00"/>
<path fill-rule="evenodd" clip-rule="evenodd" d="M34.0312 45.592C29.8878 45.1095 26.6719 41.5883 26.6719 37.3156C26.6719 33.0429 29.8878 29.5215 34.0312 29.0391C38.1746 29.5215 41.3905 33.0427 41.3905 37.3156C41.3905 41.5885 38.1744 45.1095 34.0312 45.592Z" fill="#FDC72E"/>
<path fill-rule="evenodd" clip-rule="evenodd" d="M49.886 63.3741C50.3304 61.0685 51.2877 59.1762 53.3164 57.3344C56.0946 54.8124 59.0116 54.2509 61.2584 48.3329L67.511 31.6474C67.9701 30.3077 68.4139 28.7 68.4978 27.9291C67.5739 25.6985 64.7331 25.5438 62.3724 30.963C60.8142 34.54 58.6051 38.7742 57.4359 40.5381C57.2899 40.1754 57.0467 39.8356 56.6883 39.5265C55.6586 38.6384 54.2344 38.7556 52.5168 40.4414C49.782 43.1256 47.1303 45.3468 44.116 47.7882C42.2722 49.3923 40.7759 51.2601 40.5163 55.1707C40.4303 56.4668 40.0163 61.1084 38.8125 63.3742H49.8862L49.886 63.3741Z" fill="#FDB0A0"/>
<path fill-rule="evenodd" clip-rule="evenodd" d="M66.4804 26.4766C65.2587 26.5623 63.7355 27.8329 62.3724 30.962C60.8142 34.539 58.6051 38.7732 57.4359 40.5371C57.2899 40.1744 57.0467 39.8347 56.6883 39.5255C55.6586 38.6374 54.2344 38.7546 52.5168 40.4405C49.782 43.1247 47.1303 45.3458 44.116 47.7872C42.2722 49.3913 40.7759 51.2592 40.5163 55.1697C40.4303 56.4658 40.0163 61.1074 38.8125 63.3733H47.9297C48.5964 60.155 49.6387 58.2061 51.5938 56.4312C54.3719 53.9092 57.2889 53.3477 59.5358 47.4297L65.7883 30.7442C66.2476 29.4045 66.6912 27.7969 66.7752 27.0259C66.6919 26.8251 66.5929 26.6413 66.4804 26.4767V26.4766Z" fill="#FFCEC0"/>
<path fill-rule="evenodd" clip-rule="evenodd" d="M57.4355 40.539C57.2895 40.1763 57.0463 39.8365 56.6879 39.5274C56.0991 39.0196 55.3812 38.8407 54.5531 39.0957C54.7527 39.1282 54.9343 39.2184 55.0963 39.358C56.3533 40.4421 55.1516 42.441 53.5889 44.253C52.5071 45.5074 51.2173 46.6902 50.2972 47.5339C50.0139 47.7937 49.7661 48.0209 49.5299 48.2473C49.0957 48.665 49.0824 49.3556 49.5 49.7897C49.9176 50.2239 50.6082 50.2373 51.0423 49.8196C51.21 49.659 51.4738 49.417 51.7754 49.1404C52.7275 48.2673 54.0623 47.0433 55.238 45.6799C56.7296 43.9504 57.7263 42.196 57.4355 40.539Z" fill="#FDB0A0"/>
<path fill-rule="evenodd" clip-rule="evenodd" d="M36.7812 68.4931V63.5352C36.7812 62.5619 37.5775 61.7656 38.5508 61.7656H50.7249C51.6982 61.7656 52.4946 62.5619 52.4946 63.5352V68.4931H36.7812Z" fill="#2A93FC"/>
<path fill-rule="evenodd" clip-rule="evenodd" d="M36.7812 68.4931V63.5352C36.7812 62.5619 37.5775 61.7656 38.5508 61.7656H48.3226C49.2959 61.7656 50.0923 62.5619 50.0923 63.5352V68.4931H36.7812Z" fill="#4EB1FC"/>
<path fill-rule="evenodd" clip-rule="evenodd" d="M40.1824 66.8256C41.0574 66.8256 41.771 66.112 41.771 65.237C41.771 64.362 41.0574 63.6484 40.1824 63.6484C39.3074 63.6484 38.5938 64.362 38.5938 65.237C38.5938 66.112 39.3074 66.8256 40.1824 66.8256Z" fill="#0062D9"/>
<path fill-rule="evenodd" clip-rule="evenodd" d="M20.1196 63.3741C19.6753 61.0685 18.718 59.1762 16.6892 57.3344C13.9111 54.8124 10.994 54.2509 8.74721 48.3329L2.49465 31.6474C2.03555 30.3077 1.59176 28.7 1.50781 27.9291C2.43176 25.6985 5.2725 25.5438 7.63322 30.963C9.19141 34.54 11.4005 38.7742 12.5697 40.5381C12.7157 40.1754 12.959 39.8356 13.3173 39.5265C14.3471 38.6384 15.7713 38.7556 17.4889 40.4414C20.2237 43.1256 22.8753 45.3468 25.8897 47.7882C27.7335 49.3923 29.2297 51.2601 29.4894 55.1707C29.5753 56.4668 29.9893 61.1084 31.1931 63.3742H20.1195L20.1196 63.3741Z" fill="#FDB0A0"/>
<path fill-rule="evenodd" clip-rule="evenodd" d="M3.52914 26.4766C4.75086 26.5623 6.27404 27.8329 7.63713 30.962C9.19531 34.539 11.4044 38.7732 12.5736 40.5371C12.7196 40.1744 12.9629 39.8347 13.3212 39.5255C14.351 38.6374 15.7752 38.7546 17.4928 40.4405C20.2276 43.1247 22.8792 45.3458 25.8936 47.7872C27.7374 49.3913 29.2336 51.2592 29.4933 55.1697C29.5793 56.4658 29.9932 61.1074 31.1971 63.3733H22.0798C21.4132 60.155 20.3707 58.2061 18.4158 56.4312C15.6376 53.9092 12.7206 53.3477 10.4738 47.4297L4.22121 30.7441C3.76197 29.4044 3.31832 27.7967 3.23438 27.0258C3.31764 26.8249 3.41662 26.6412 3.52914 26.4766Z" fill="#FFCEC0"/>
<path fill-rule="evenodd" clip-rule="evenodd" d="M12.5661 40.539C12.7121 40.1763 12.9553 39.8365 13.3137 39.5274C13.9025 39.0196 14.6204 38.8407 15.4485 39.0957C15.2489 39.1282 15.0674 39.2184 14.9054 39.358C13.6484 40.4421 14.85 42.441 16.4127 44.253C17.4945 45.5074 18.7843 46.6902 19.7045 47.5339C19.9877 47.7937 20.2355 48.0209 20.4717 48.2473C20.9059 48.665 20.9192 49.3556 20.5017 49.7897C20.084 50.2239 19.3934 50.2373 18.9593 49.8196C18.7917 49.659 18.5279 49.417 18.2262 49.1404C17.2741 48.2673 15.9394 47.0433 14.7636 45.6799C13.272 43.9504 12.2753 42.196 12.5661 40.539Z" fill="#FDB0A0"/>
<path fill-rule="evenodd" clip-rule="evenodd" d="M33.229 68.4931V63.5352C33.229 62.5619 32.4327 61.7656 31.4594 61.7656H19.2853C18.312 61.7656 17.5156 62.5619 17.5156 63.5352V68.4931H33.229Z" fill="#2A93FC"/>
<path fill-rule="evenodd" clip-rule="evenodd" d="M33.2251 68.4931V63.5352C33.2251 62.5619 32.4289 61.7656 31.4556 61.7656H21.6838C20.7104 61.7656 19.9141 62.5619 19.9141 63.5352V68.4931H33.2251Z" fill="#4EB1FC"/>
<path fill-rule="evenodd" clip-rule="evenodd" d="M29.8229 66.8256C30.6979 66.8256 31.4114 66.112 31.4114 65.237C31.4114 64.362 30.6978 63.6484 29.8229 63.6484C28.948 63.6484 28.2344 64.362 28.2344 65.237C28.2344 66.112 28.948 66.8256 29.8229 66.8256Z" fill="#0062D9"/>
<path fill-rule="evenodd" clip-rule="evenodd" d="M50.0687 14.5139L48.1185 15.3229L46.5583 14.2764L44.4014 16.4333L45.4477 17.9937L44.6389 19.9437L42.7969 20.3069V23.3573L44.6389 23.7204L45.4477 25.6705L44.4014 27.2308L46.5583 29.3877L48.1185 28.3413L50.0687 29.1503L50.4319 30.9922H53.4821L53.8454 29.1503L55.7954 28.3413L57.3558 29.3877L59.5127 27.2308L58.4664 25.6705L59.2752 23.7204L61.1172 23.3573V20.3069L59.2752 19.9437L58.4664 17.9937L59.5127 16.4333L57.3558 14.2764L55.7954 15.3229L53.8454 14.5139L53.4821 12.6719H50.4319L50.0687 14.5139Z" fill="#2A93FC"/>
<path fill-rule="evenodd" clip-rule="evenodd" d="M50.0687 14.5139L49.339 14.8166L49.3267 14.8216L48.1187 15.3229L48.1177 15.3222L47.7034 15.4937L46.2894 14.5453L44.4014 16.4333L45.4477 17.9937L44.6389 19.9437L42.7969 20.3069V23.3573L44.6389 23.7204L45.4477 25.6705L44.4014 27.2308L46.2894 29.1189L47.7034 28.1704L48.1177 28.3419L48.1187 28.3413L50.0687 29.1503L50.4319 30.9922H53.0053L53.3857 29.0631L55.5395 28.1696L55.7954 28.3413L56.9548 29.1187L58.8427 27.2309L57.7963 25.6705L58.7689 23.3191L60.4473 22.9881V21.832V20.6759L58.7689 20.3451L57.7963 17.9937L58.8427 16.4333L56.9548 14.5453L55.5395 15.4946L53.3857 14.6011L53.0053 12.6719H50.4319L50.0687 14.5139Z" fill="#4EB1FC"/>
<path d="M52.1115 26.5095C54.6897 26.0916 56.441 23.6627 56.023 21.0845C55.6051 18.5062 53.1762 16.755 50.598 17.1729C48.0198 17.5909 46.2685 20.0198 46.6865 22.598C47.1044 25.1762 49.5333 26.9275 52.1115 26.5095Z" fill="#2A93FC"/>
<path d="M51.9543 26.5454C54.5568 26.5454 56.6665 24.4357 56.6665 21.8332C56.6665 19.2308 54.5568 17.1211 51.9543 17.1211C49.3519 17.1211 47.2422 19.2308 47.2422 21.8332C47.2422 24.4357 49.3519 26.5454 51.9543 26.5454Z" fill="#F3F3FF"/>
<path fill-rule="evenodd" clip-rule="evenodd" d="M16.1702 14.5139L14.2202 15.3229L12.6598 14.2764L10.503 16.4333L11.5494 17.9937L10.7404 19.9437L8.89844 20.3069V23.3573L10.7404 23.7204L11.5494 25.6705L10.503 27.2308L12.6598 29.3877L14.2202 28.3413L16.1702 29.1503L16.5335 30.9922H19.5838L19.947 29.1503L21.8971 28.3413L23.4573 29.3877L25.6142 27.2308L24.5679 25.6705L25.3767 23.7204L27.2188 23.3573V20.3069L25.3767 19.9437L24.5679 17.9937L25.6142 16.4333L23.4573 14.2764L21.8971 15.3229L19.947 14.5139L19.5838 12.6719H16.5335L16.1702 14.5139Z" fill="#F2671F"/>
<path fill-rule="evenodd" clip-rule="evenodd" d="M16.1702 14.5139L15.4406 14.8166L15.4284 14.8216L14.2202 15.3229L14.2193 15.3222L13.805 15.4937L12.3909 14.5453L10.503 16.4333L11.5493 17.9937L10.7404 19.9437L8.89844 20.3069V23.3573L10.7404 23.7204L11.5493 25.6705L10.503 27.2308L12.3909 29.1189L13.805 28.1704L14.2193 28.3419L14.2202 28.3413L16.1702 29.1503L16.5335 30.9922H19.1068L19.4873 29.0631L21.641 28.1696L21.897 28.3413L23.0563 29.1187L24.9443 27.2309L23.8979 25.6705L24.8706 23.3191L26.5488 22.9881V21.832V20.6759L24.8706 20.3451L23.8979 17.9937L24.9443 16.4333L23.0563 14.5453L21.641 15.4946L19.4873 14.6011L19.1068 12.6719H16.5335L16.1702 14.5139Z" fill="#FF8748"/>
<path d="M21.849 23.6472C22.8495 21.2336 21.7039 18.4659 19.2902 17.4654C16.8766 16.4649 14.1089 17.6105 13.1084 20.0242C12.1079 22.4379 13.2535 25.2056 15.6672 26.206C18.0809 27.2065 20.8486 26.0609 21.849 23.6472Z" fill="#F2671F"/>
<path d="M21.3848 25.1635C23.2248 23.3236 23.2248 20.3405 21.3848 18.5005C19.5449 16.6606 16.5618 16.6606 14.7219 18.5005C12.8819 20.3405 12.8819 23.3236 14.7219 25.1635C16.5618 27.0035 19.5449 27.0035 21.3848 25.1635Z" fill="#F3F3FF"/>
<path fill-rule="evenodd" clip-rule="evenodd" d="M33.8286 32.7031C35.5591 32.7031 36.962 34.106 36.962 35.8363C36.962 37.5666 35.5591 38.9696 33.8286 38.9696C32.0982 38.9696 30.6953 37.5668 30.6953 35.8363C30.6953 34.1059 32.0982 32.7031 33.8286 32.7031Z" fill="#F9AC00"/>
<path d="M35.0063 38.8838C36.6883 38.8838 38.0518 37.5203 38.0518 35.8384C38.0518 34.1564 36.6883 32.793 35.0063 32.793C33.3244 32.793 31.9609 34.1564 31.9609 35.8384C31.9609 37.5203 33.3244 38.8838 35.0063 38.8838Z" fill="#F3F3FF"/>
<path fill-rule="evenodd" clip-rule="evenodd" d="M29.8228 65.7635C29.5349 65.7635 29.3009 65.5296 29.3009 65.2411C29.3009 64.9526 29.5349 64.7173 29.8228 64.7173C30.1107 64.7173 30.3466 64.9525 30.3466 65.2411C30.3466 65.5297 30.1114 65.7635 29.8228 65.7635ZM29.8228 63.0768C28.631 63.0768 27.6599 64.0473 27.6599 65.241C27.6599 66.4346 28.631 67.4038 29.8228 67.4038C31.0146 67.4038 31.9869 66.4334 31.9869 65.241C31.9869 64.0485 31.0165 63.0768 29.8228 63.0768ZM32.4086 67.6759V63.5387C32.4086 63.0156 31.9816 62.5886 31.4579 62.5886H19.2852C18.7614 62.5886 18.3346 63.0156 18.3346 63.5387V67.6759H32.4087H32.4086ZM17.2396 56.7319C16.4793 56.0414 15.7164 55.4959 14.9766 54.9675C12.9764 53.538 11.0858 52.1887 9.51445 48.0501L3.2664 31.3746C2.84408 30.1413 2.47261 28.7875 2.35203 28.0589C2.5299 27.717 2.85406 27.3019 3.38302 27.2973H3.39164C4.23888 27.2973 5.59664 28.346 6.8807 31.2949C8.30503 34.5639 10.3888 38.63 11.6709 40.6618C11.6123 40.9023 11.5807 41.1526 11.5767 41.4121C11.5346 44.1989 14.6296 47.2747 17.5363 49.9397C17.8261 50.2059 18.0778 50.4358 18.2735 50.6235C18.6002 50.9365 19.1194 50.9253 19.4323 50.5985C19.7459 50.2718 19.7347 49.752 19.408 49.439C19.2004 49.2394 18.9428 49.0029 18.6451 48.7294C16.8722 47.1041 13.1817 43.7199 13.2158 41.4385C13.2244 40.9285 13.4267 40.5195 13.8529 40.1518C14.6172 39.493 15.6468 39.7882 16.9144 41.0307C19.5693 43.6369 22.115 45.7918 25.3622 48.4205C27.2339 50.0516 28.4395 51.7619 28.6707 55.2292C28.7076 55.7951 28.9111 58.5173 29.4896 60.9483H20.2663C19.6331 59.3744 18.6613 58.0225 17.2396 56.7319ZM31.4579 60.9483H31.1805C30.5613 58.5673 30.3452 55.6924 30.307 55.1212C30.0403 51.0933 28.5625 49.0319 26.4274 47.174C26.4201 47.1667 26.4136 47.1614 26.405 47.1542C23.1907 44.5513 20.674 42.4227 18.0625 39.8606C15.3681 37.2148 13.4714 38.3145 12.7809 38.9093C12.7236 38.9594 12.669 39.0101 12.6155 39.0608C11.373 36.9513 9.6271 33.492 8.38406 30.64C6.50048 26.313 4.45627 25.6568 3.39164 25.6568H3.36798C2.23349 25.668 1.25445 26.4007 0.74982 27.6201C0.6965 27.7472 0.677359 27.8856 0.692535 28.0219C0.790699 28.9297 1.29273 30.6768 1.71765 31.9174C1.72093 31.9253 1.72298 31.9319 1.72627 31.9391L7.97964 48.628C9.72814 53.2343 11.9114 54.7944 14.0241 56.3024C14.7567 56.8262 15.4485 57.321 16.1375 57.9455C17.212 58.9218 17.9861 59.9311 18.525 61.063C17.4663 61.3884 16.6942 62.374 16.6942 63.5388V68.4964C16.6942 68.949 17.0619 69.3172 17.5144 69.3172H33.2289C33.6814 69.3172 34.049 68.9489 34.049 68.4964V63.5388C34.049 62.1105 32.8869 60.9484 31.4579 60.9484V60.9483ZM40.1839 65.7635C39.8953 65.7635 39.6601 65.5296 39.6601 65.2411C39.6601 64.9526 39.8953 64.7173 40.1839 64.7173C40.4725 64.7173 40.7056 64.9525 40.7056 65.2411C40.7056 65.5297 40.4724 65.7635 40.1839 65.7635ZM40.1839 63.0768C38.9901 63.0768 38.0196 64.0473 38.0196 65.241C38.0196 66.4346 38.9901 67.4038 40.1839 67.4038C41.3777 67.4038 42.3466 66.4334 42.3466 65.241C42.3466 64.0485 41.3755 63.0768 40.1839 63.0768ZM66.7403 31.3746L60.4935 48.0456C58.9209 52.1888 57.0301 53.5381 55.03 54.9676C54.2903 55.4961 53.5274 56.0416 52.7677 56.732C51.3455 58.0226 50.3737 59.3745 49.7405 60.9484H40.5172C41.0957 58.5162 41.2992 55.794 41.3361 55.2293C41.5673 51.762 42.7731 50.0518 44.6447 48.4206C47.8919 45.7919 50.4377 43.6371 53.0926 41.0308C54.3601 39.7883 55.3899 39.4931 56.154 40.152C56.5803 40.5196 56.7825 40.9288 56.7911 41.4386C56.8253 43.7201 53.1354 47.1043 51.3619 48.7296C51.0641 49.003 50.8065 49.2395 50.599 49.4391C50.2722 49.7521 50.261 50.2719 50.5746 50.5987C50.8876 50.9254 51.4067 50.9366 51.7335 50.6237C51.9291 50.436 52.1808 50.206 52.4707 49.9398C55.3773 47.2749 58.4723 44.199 58.4302 41.4122C58.4276 41.1526 58.3947 40.9024 58.336 40.6619C59.618 38.6302 61.7019 34.564 63.1268 31.2951C64.4102 28.3462 65.7679 27.2974 66.6152 27.2974H66.6238C67.1527 27.302 67.4769 27.7171 67.6548 28.0591C67.5342 28.7876 67.1626 30.1416 66.7404 31.3748L66.7403 31.3746ZM51.6721 67.6759V63.5387C51.6721 63.0156 51.2458 62.5886 50.722 62.5886H38.5487C38.025 62.5886 37.5987 63.0156 37.5987 63.5387V67.6759H51.6721ZM69.2569 27.6201C68.7522 26.4007 67.7732 25.668 66.6387 25.6568H66.615C65.5504 25.6568 63.5069 26.313 61.6226 30.64C60.3794 33.492 58.6335 36.9514 57.3912 39.0608C57.3378 39.0101 57.2832 38.9594 57.2257 38.9106C56.5353 38.3143 54.6393 37.2148 51.9442 39.8606C49.3313 42.424 46.816 44.5513 43.6017 47.1542C43.5938 47.1614 43.5865 47.1667 43.5793 47.174C41.444 49.0319 39.9664 51.0932 39.6996 55.1212C39.6613 55.691 39.4467 58.5668 38.826 60.9483H38.5487C37.1197 60.9483 35.9576 62.1104 35.9576 63.5387V68.4962C35.9576 68.9489 36.3253 69.3171 36.7778 69.3171H52.4923C52.9449 69.3171 53.3124 68.9488 53.3124 68.4962V63.5387C53.3124 62.374 52.5402 61.3884 51.4823 61.0628C52.0206 59.9309 52.7947 58.9217 53.8692 57.9454C54.5582 57.3208 55.25 56.8261 55.9826 56.3023C58.0954 54.7943 60.2787 53.2342 62.0284 48.6253L68.2804 31.9391C68.2837 31.9319 68.2863 31.9253 68.289 31.9174C68.7139 30.677 69.216 28.9297 69.3155 28.0219C69.3293 27.8856 69.3102 27.7472 69.2569 27.6201ZM35.0029 38.0667C33.7768 38.0667 32.7774 37.0687 32.7774 35.8426C32.7774 34.6165 33.7768 33.6164 35.0029 33.6164C36.229 33.6164 37.229 34.6145 37.229 35.8426C37.229 37.0707 36.2296 38.0667 35.0029 38.0667ZM35.0029 31.9761C37.1348 31.9761 38.8695 33.7107 38.8695 35.8426C38.8695 37.9745 37.1348 39.7071 35.0029 39.7071C32.8711 39.7071 31.1371 37.9738 31.1371 35.8426C31.1371 33.7114 32.8718 31.9761 35.0029 31.9761ZM35.0029 44.8346C39.1462 44.8346 42.5159 41.4642 42.5159 37.3216C42.5159 33.179 39.146 29.8073 35.0029 29.8073C30.8598 29.8073 27.4906 33.179 27.4906 37.3216C27.4906 41.4642 30.861 44.8346 35.0029 44.8346ZM32.0568 27.6035C32.0568 27.1772 32.4027 26.8315 32.8295 26.8315H37.1783C37.6039 26.8315 37.9498 27.1774 37.9498 27.6035V28.6562C37.0242 28.3419 36.0341 28.1667 35.0029 28.1667C33.9718 28.1667 32.9824 28.3419 32.0568 28.6562V27.6035ZM35.0029 2.32463C35.6663 2.32463 36.2066 2.8648 36.2066 3.52762V7.61947H33.7999V3.52762C33.7999 2.8648 34.3402 2.32463 35.0029 2.32463ZM40.7346 7.10158H39.5547C39.1022 7.10158 38.7345 7.46922 38.7345 7.92176V11.8634C38.7345 12.0807 38.8222 12.2883 38.975 12.4432C39.1298 12.596 39.3373 12.6837 39.5547 12.6837H40.7334L40.7347 14.8985H37.8472V4.88674H40.7347V7.10158H40.7346ZM36.2066 12.231V25.1903H33.7999V12.231H36.2066ZM36.2066 10.5906H33.7999V9.25982H36.2066V10.5906ZM44.1564 37.3216C44.1564 33.9445 42.3177 30.9918 39.5903 29.4041V27.6037C39.5903 26.5061 38.8517 25.5791 37.8471 25.2879V16.539H41.5549C41.7723 16.539 41.9805 16.4527 42.1346 16.2985C42.2881 16.1457 42.3751 15.9362 42.3751 15.7188L42.3737 11.8635C42.3737 11.4096 42.0074 11.0433 41.5535 11.0433H40.3749V8.74207H41.5548C42.0074 8.74207 42.3749 8.37443 42.3749 7.92189V4.06588C42.3749 3.61389 42.0073 3.2457 41.5548 3.2457H37.8331C37.6915 1.80879 36.4761 0.683594 35.0029 0.683594C33.435 0.683594 32.1596 1.95973 32.1596 3.52762V25.2879C31.1548 25.5791 30.4164 26.5059 30.4164 27.6037V29.4041C27.689 30.9918 25.8503 33.9445 25.8503 37.3216C25.8503 42.3694 29.956 46.4749 35.0031 46.4749C40.0502 46.4749 44.1564 42.3693 44.1564 37.3216ZM51.954 17.954C54.0931 17.954 55.835 19.696 55.835 21.8358C55.835 23.9755 54.0932 25.718 51.954 25.718C49.8148 25.718 48.0723 23.9768 48.0723 21.8358C48.0723 19.6947 49.8129 17.954 51.954 17.954ZM51.954 27.3591C54.9983 27.3591 57.4754 24.8813 57.4754 21.8356C57.4754 18.7899 54.9983 16.3136 51.954 16.3136C48.9097 16.3136 46.4319 18.7906 46.4319 21.8356C46.4319 24.8806 48.909 27.3591 51.954 27.3591ZM44.7868 20.7513L43.6043 20.9839V22.6889L44.7868 22.9208C45.0563 22.9748 45.2802 23.1592 45.3856 23.4123L46.1953 25.3643C46.3007 25.6173 46.2717 25.9071 46.1195 26.1352L45.4476 27.1359L46.6531 28.3422L47.6539 27.6709C47.8818 27.5181 48.1724 27.4891 48.4254 27.5945L50.3775 28.4035C50.6304 28.5089 50.8149 28.7335 50.8683 29.0023L51.1002 30.1849H52.8052L53.0391 29.0023C53.0912 28.7335 53.2757 28.5089 53.5286 28.4035L55.4813 27.5945C55.7343 27.4891 56.0241 27.5181 56.2522 27.6709L57.2542 28.3422L58.4591 27.1359L57.7878 26.1352C57.6343 25.9072 57.606 25.6173 57.7107 25.3643L58.5203 23.4123C58.6257 23.1593 58.8497 22.9749 59.1192 22.9208L60.3016 22.6889V20.9839L59.1192 20.7513C58.8511 20.698 58.6257 20.5134 58.5203 20.2605L57.7107 18.3077C57.606 18.0554 57.6343 17.7655 57.7878 17.5369L58.4591 16.5349L57.2542 15.3299L56.2522 16.0018C56.0243 16.1547 55.7356 16.1837 55.4813 16.0783L53.5286 15.2686C53.2757 15.1632 53.0911 14.9393 53.0391 14.6698L52.8052 13.4873H51.1002L50.8683 14.6698C50.815 14.9393 50.6306 15.1632 50.3775 15.2686L48.4254 16.0783C48.1725 16.1837 47.882 16.1547 47.6539 16.0018L46.6531 15.3299L45.4476 16.5349L46.1195 17.5369C46.2717 17.7655 46.3007 18.0554 46.1953 18.3077L45.3856 20.2605C45.2802 20.5134 45.0563 20.6979 44.7868 20.7513ZM42.6253 19.5042C42.2412 19.5813 41.9638 19.9172 41.9638 20.3098V23.3628C41.9638 23.7547 42.2412 24.0913 42.6253 24.1678L44.0391 24.4452L44.5121 25.5855L43.7097 26.7833C43.491 27.1089 43.5331 27.5423 43.8105 27.8197L45.9694 29.9786C46.2468 30.256 46.6802 30.2988 47.0057 30.0794L48.2034 29.277L49.3438 29.75L49.6224 31.1638C49.6981 31.5479 50.0354 31.8259 50.4262 31.8259H53.4791C53.8718 31.8259 54.2084 31.548 54.2848 31.1638L54.5634 29.75L55.7038 29.277L56.9002 30.0794C57.2256 30.2988 57.6605 30.256 57.9365 29.9786L60.0968 27.8197C60.3729 27.5423 60.4157 27.1089 60.1976 26.7833L59.3952 25.5855L59.8682 24.4452L61.2807 24.1678C61.6647 24.0913 61.9428 23.7547 61.9428 23.3628V20.3098C61.9428 19.9172 61.6649 19.5811 61.2807 19.5042L59.8682 19.2255L59.3952 18.0852L60.1976 16.8887C60.4157 16.5639 60.3729 16.1291 60.0968 15.8524L57.9365 13.6935C57.6605 13.4161 57.2257 13.374 56.9002 13.5927L55.7038 14.3951L54.5634 13.9221L54.2848 12.5083C54.2084 12.1242 53.8718 11.8468 53.4791 11.8468H50.4262C50.0354 11.8468 49.6981 12.1242 49.6224 12.5083L49.3438 13.9221L48.2034 14.3951L47.0057 13.5927C46.6802 13.374 46.2468 13.4162 45.9694 13.6935L43.8105 15.8524C43.5331 16.1291 43.491 16.5639 43.7097 16.8887L44.5121 18.0852L44.0391 19.2255L42.6253 19.5042ZM18.0532 17.954C20.1937 17.954 21.9343 19.696 21.9343 21.8358C21.9343 23.9755 20.1937 25.718 18.0532 25.718C15.9128 25.718 14.1715 23.9768 14.1715 21.8358C14.1715 19.6947 15.9134 17.954 18.0532 17.954ZM18.0532 27.3591C21.0989 27.3591 23.5753 24.8813 23.5753 21.8356C23.5753 18.7899 21.0989 16.3136 18.0532 16.3136C15.0075 16.3136 12.5311 18.7906 12.5311 21.8356C12.5311 24.8806 15.0082 27.3591 18.0532 27.3591ZM9.7049 20.9839V22.6889L10.8875 22.9208C11.157 22.9748 11.3809 23.1592 11.4863 23.4123L12.296 25.3643C12.4007 25.6173 12.3724 25.9071 12.2196 26.1352L11.5476 27.1359L12.7526 28.3422L13.7546 27.6709C13.9826 27.5181 14.2724 27.4891 14.5255 27.5945L16.4781 28.4035C16.731 28.5089 16.9156 28.7335 16.9689 29.0023L17.2015 30.1849H18.9065L19.1384 29.0023C19.1917 28.7335 19.3762 28.5089 19.6292 28.4035L21.5818 27.5945C21.8349 27.4891 22.1247 27.5181 22.3526 27.6709L23.3533 28.3422L24.5595 27.1359L23.8869 26.1352C23.7347 25.9072 23.7064 25.6173 23.8118 25.3643L24.6208 23.4123C24.7262 23.1593 24.9501 22.9749 25.2196 22.9208L26.4022 22.6889V20.9839L25.2196 20.7513C24.9501 20.698 24.7262 20.5134 24.6208 20.2605L23.8118 18.3077C23.7064 18.0554 23.7347 17.7655 23.8869 17.5369L24.5595 16.5349L23.3533 15.3299L22.3526 16.0018C22.1247 16.1547 21.8347 16.1837 21.5818 16.0783L19.6292 15.2686C19.3762 15.1632 19.1917 14.9393 19.1384 14.6698L18.9065 13.4873H17.2015L16.9689 14.6698C16.9156 14.9393 16.731 15.1632 16.4781 15.2686L14.5255 16.0783C14.2724 16.1837 13.9826 16.1547 13.7546 16.0018L12.7526 15.3299L11.5476 16.5349L12.2196 17.5369C12.3724 17.7655 12.4007 18.0554 12.296 18.3077L11.4863 20.2605C11.3809 20.5134 11.157 20.6979 10.8875 20.7513L9.7049 20.9839ZM8.72585 24.1679L10.1397 24.4453L10.6113 25.5857L9.80894 26.7835C9.59156 27.109 9.63367 27.5424 9.91107 27.8198L12.07 29.9787C12.346 30.2561 12.7809 30.2989 13.1063 30.0795L14.3027 29.2771L15.4431 29.7501L15.7218 31.1639C15.7982 31.548 16.1348 31.8261 16.5274 31.8261H19.5804C19.971 31.8261 20.3089 31.5481 20.3854 31.1639L20.6626 29.7501L21.803 29.2771L23.0007 30.0795C23.3261 30.2989 23.7596 30.2561 24.037 29.9787L26.1959 27.8198C26.4733 27.5424 26.5154 27.109 26.2967 26.7835L25.4943 25.5857L25.9673 24.4453L27.3811 24.1679C27.7652 24.0915 28.0426 23.7549 28.0426 23.3629V20.31C28.0426 19.9173 27.7652 19.5813 27.3811 19.5043L25.9673 19.2257L25.4943 18.0853L26.2967 16.8889C26.5154 16.564 26.4733 16.1293 26.1959 15.8525L24.037 13.6936C23.7596 13.4162 23.3261 13.3741 23.0007 13.5929L21.803 14.3953L20.6626 13.9222L20.3854 12.5084C20.3089 12.1244 19.971 11.847 19.5804 11.847H16.5274C16.1348 11.847 15.7982 12.1244 15.7218 12.5084L15.4431 13.9222L14.3027 14.3953L13.1063 13.5929C12.7809 13.3741 12.346 13.4163 12.07 13.6936L9.91107 15.8525C9.63367 16.1293 9.59156 16.564 9.80894 16.8889L10.6113 18.0853L10.1397 19.2257L8.72585 19.5043C8.34181 19.5814 8.06373 19.9173 8.06373 20.31V23.3629C8.06373 23.7549 8.34181 24.0915 8.72585 24.1679Z" fill="#021047"/>
</g>
<defs>
<clipPath id="clip0_0_6113">
<rect width="70" height="70" fill="white"/>
</clipPath>
</defs>
</svg>
