<svg width="695" height="400" viewBox="0 0 695 400" fill="none" xmlns="http://www.w3.org/2000/svg">
<g clip-path="url(#clip0_0_5798)">
<path d="M665.663 239.092C665.661 245.223 665.334 251.35 664.684 257.447C662.687 276.459 656.873 294.872 647.591 311.584C638.309 328.296 625.75 342.963 610.666 354.706C595.582 366.449 578.283 375.028 559.805 379.928C541.327 384.828 522.05 385.948 503.129 383.222L485.623 380.722C431.069 372.923 375.837 370.981 320.87 374.93L223.353 381.93C174.668 385.42 126.264 372.054 86.2694 344.074C46.2747 316.095 17.1246 275.206 3.71398 228.275C-0.228611 214.454 -0.549505 199.851 2.78215 185.87C6.1138 171.89 12.986 159.001 22.738 148.444L25.903 145.018C28.6869 151.042 32.9128 156.288 38.2067 160.29C43.5007 164.293 49.6995 166.929 56.2548 167.966C62.81 169.002 69.5197 168.407 75.7902 166.233C82.0608 164.059 87.6988 160.373 92.2055 155.501C96.7123 150.629 99.9489 144.721 101.629 138.301C103.309 131.88 103.381 125.145 101.838 118.69C100.295 112.235 97.1849 106.26 92.783 101.293C88.381 96.3262 82.8228 92.521 76.6 90.2138L83.371 82.8878C97.1047 68.0468 115.856 58.8284 135.995 57.0169C156.134 55.2055 176.229 60.9297 192.391 73.0818L195.556 75.4638C220.306 94.0798 252.546 96.9188 279.401 83.3118C280.233 82.8878 281.065 82.4638 281.914 82.0388C323.184 61.121 368.564 49.5725 414.813 48.2178C414.102 51.2167 413.746 54.2888 413.752 57.3708C413.805 68.0455 418.083 78.265 425.65 85.7945C433.217 93.3239 443.458 97.5508 454.132 97.5508C464.807 97.5508 475.048 93.3239 482.615 85.7945C490.182 78.265 494.46 68.0455 494.513 57.3708C494.513 56.9298 494.513 56.5058 494.48 56.0818C523.029 62.6513 550.52 73.1788 576.155 87.3588C603.266 102.351 625.867 124.331 641.607 151.015C657.348 177.699 665.654 208.111 665.661 239.092" fill="white"/>
<path d="M280.916 37.8C280.916 45.2762 278.699 52.5845 274.546 58.8008C270.392 65.017 264.489 69.8619 257.581 72.7228C250.674 75.5838 243.074 76.3322 235.741 74.8735C228.409 73.4148 221.673 69.8146 216.387 64.5279C211.101 59.2413 207.501 52.5058 206.042 45.1732C204.584 37.8406 205.333 30.2402 208.194 23.3332C211.056 16.4262 215.901 10.5228 222.117 6.36948C228.334 2.2162 235.642 -0.000395514 243.118 5.29346e-08C253.144 5.29346e-08 262.758 3.98249 269.847 11.0714C276.936 18.1602 280.918 27.7748 280.918 37.8" fill="white"/>
<path d="M635.235 58.1919C635.235 62.2254 634.039 66.1684 631.798 69.5222C629.557 72.8759 626.372 75.4899 622.646 77.0335C618.919 78.577 614.819 78.9809 610.863 78.194C606.907 77.4071 603.273 75.4647 600.421 72.6126C597.568 69.7604 595.626 66.1266 594.839 62.1705C594.052 58.2145 594.456 54.1139 596 50.3874C597.543 46.6609 600.157 43.4758 603.511 41.2349C606.865 38.9939 610.808 37.7979 614.841 37.7979C617.519 37.7977 620.171 38.3251 622.646 39.35C625.12 40.3748 627.369 41.877 629.262 43.7708C631.156 45.6646 632.658 47.9129 633.683 50.3872C634.708 52.8616 635.235 55.5136 635.235 58.1919Z" fill="white"/>
<path d="M694.788 190.89C694.788 192.342 694.357 193.761 693.55 194.969C692.743 196.176 691.597 197.117 690.255 197.673C688.914 198.229 687.437 198.374 686.013 198.091C684.589 197.807 683.281 197.108 682.254 196.081C681.227 195.055 680.528 193.746 680.245 192.322C679.961 190.898 680.107 189.422 680.662 188.08C681.218 186.739 682.159 185.592 683.367 184.785C684.574 183.978 685.993 183.548 687.446 183.548C689.393 183.548 691.26 184.322 692.637 185.699C694.014 187.075 694.787 188.943 694.788 190.89Z" fill="white"/>
<path d="M656.188 388.175C656.188 394.708 517.399 400.004 346.195 400.004C174.991 400.004 36.2031 394.703 36.2031 388.175C36.2031 381.647 174.992 376.346 346.196 376.346C517.4 376.346 656.188 381.646 656.188 388.175Z" fill="#E1F0EC"/>
<path d="M601.228 294.705V246.371H546.39L546.713 294.705H503.947L567.61 160.518H510.803L456.664 271.671L442.906 299.913V340.073H546.39V389.703H601.228V340.073H630.61V294.705H601.228Z" fill="#3EB896"/>
<g style="mix-blend-mode:multiply" opacity="0.32">
<mask id="mask0_0_5798" style="mask-type:luminance" maskUnits="userSpaceOnUse" x="442" y="271" width="40" height="70">
<path d="M481.939 271.672H442.906V340.074H481.939V271.672Z" fill="white"/>
</mask>
<g mask="url(#mask0_0_5798)">
<path d="M474.075 340.074C474.884 332.176 473.708 324.202 470.655 316.874C470.445 324.79 468.971 332.622 466.289 340.074H442.906V299.914L456.663 271.672C460.572 276.64 464.604 283.2 466.363 289.372C466.763 290.46 467.127 291.562 467.476 292.663C467.489 292.714 467.502 292.753 467.515 292.805C468.124 294.805 468.655 296.82 469.083 298.842C469.096 298.868 469.096 298.907 469.109 298.933C469.148 299.14 469.187 299.333 469.238 299.542C469.357 300.142 469.489 300.742 469.576 301.342C469.692 301.942 469.783 302.548 469.886 303.142C469.899 303.242 469.912 303.362 469.925 303.467C469.938 303.518 469.938 303.567 469.951 303.622C470.056 304.322 470.147 305.022 470.223 305.722C470.235 305.765 470.239 305.809 470.236 305.853C470.247 305.877 470.251 305.904 470.249 305.93V305.879C470.249 305.879 481.856 317.292 481.934 340.079L474.075 340.074Z" fill="#AFE1F5"/>
</g>
</g>
<path d="M171.188 160.517L107.524 294.703H150.295L149.977 246.377H204.815V294.703H234.188V340.078H204.814V389.706H149.976V340.078H46.4922V299.913L114.382 160.513L171.188 160.517Z" fill="#3EB896"/>
<path d="M340.694 135.511C276.659 135.511 241.77 180.853 241.77 263.233C241.77 289.778 245.399 312.514 252.458 331.143C267.292 370.307 297.296 391.293 340.693 391.293C365.127 391.293 385.376 384.493 401.039 371.408C403.778 369.121 406.362 366.654 408.773 364.024C411.204 361.383 413.471 358.597 415.562 355.68C416.598 354.243 417.595 352.766 418.554 351.237C431.676 330.587 438.777 302.253 439.242 266.991C439.255 265.746 439.268 264.491 439.268 263.234C439.268 180.854 404.019 135.511 340.694 135.511ZM305.224 283.224C304.875 277.057 304.718 270.412 304.718 263.234C304.718 205.313 315.147 181.554 340.693 181.554C363.313 181.554 374.027 200.713 375.97 246.548C376.203 251.756 376.315 257.318 376.306 263.234C376.306 320.78 365.89 344.889 340.693 344.889C318.334 344.889 307.555 326.428 305.223 283.223" fill="#3EB896"/>
<g style="mix-blend-mode:multiply">
<mask id="mask1_0_5798" style="mask-type:luminance" maskUnits="userSpaceOnUse" x="359" y="352" width="57" height="17">
<path d="M415.565 352.343H359.949V368.836H415.565V352.343Z" fill="white"/>
</mask>
<g mask="url(#mask1_0_5798)">
<path d="M415.565 355.678C413.475 358.595 411.208 361.381 408.776 364.02C389.292 367.027 362.086 375.62 360.092 358.411C359.893 357.418 359.902 356.395 360.118 355.406C361.608 347.945 396.495 356.573 415.564 355.678" fill="#AFE1F5"/>
</g>
</g>
<g style="mix-blend-mode:multiply">
<mask id="mask2_0_5798" style="mask-type:luminance" maskUnits="userSpaceOnUse" x="251" y="244" width="189" height="110">
<path d="M439.24 244.725H251.98V353.563H439.24V244.725Z" fill="white"/>
</mask>
<g mask="url(#mask2_0_5798)">
<path d="M439.243 266.989C438.778 302.256 431.686 330.589 418.56 351.24C408.06 351.731 385.034 345.848 374.897 351.113C374.738 351.206 374.571 351.283 374.397 351.343C373.964 351.522 373.522 351.677 373.072 351.808C373.021 351.821 372.956 351.841 372.899 351.852C372.842 351.863 372.785 351.885 372.721 351.904C372.579 351.938 372.435 351.974 372.294 352.012C372.153 352.05 372.008 352.076 371.862 352.112C371.741 352.143 371.612 352.169 371.485 352.194C371.348 352.215 371.212 352.243 371.077 352.277C370.849 352.323 370.62 352.362 370.39 352.398C370.377 352.398 370.364 352.405 370.344 352.405C370.102 352.451 369.854 352.488 369.598 352.526H369.587C368.156 352.736 366.715 352.875 365.273 352.973C365.256 352.978 365.239 352.98 365.222 352.98C364.871 353.005 364.507 353.031 364.139 353.05H364.126C348.514 353.95 327.074 354.46 312.7 347.684C310.3 347.736 308.928 347.761 308.928 347.761C308.75 347.761 308.579 347.754 308.399 347.748L308.375 347.73C307.425 347.748 306.908 347.761 306.908 347.761C306.73 347.761 306.559 347.754 306.379 347.748C294.038 347.82 281.763 345.938 270.01 342.173C268.948 341.861 267.918 341.434 266.869 341.085C266.492 340.945 266.117 340.798 265.753 340.658C265.665 340.619 265.582 340.588 265.492 340.558C264.582 340.197 263.692 339.791 262.792 339.411C261.301 338.732 259.849 337.97 258.443 337.129C258.386 337.091 258.322 337.059 258.265 337.021C257.601 336.611 256.965 336.173 256.327 335.721C256.162 335.594 256.002 335.473 255.849 335.346C255.787 335.3 255.722 335.256 255.665 335.206C255.428 335.006 255.193 334.805 254.959 334.601C254.812 334.474 254.678 334.34 254.545 334.206C254.107 333.805 253.716 333.356 253.378 332.868C253.335 332.811 253.294 332.751 253.257 332.689C249.627 328.54 254.714 316.896 256.704 313.517C256.768 313.365 256.825 313.225 256.869 313.117C253.193 301.324 255.193 294.346 255.193 294.346C260.717 295.723 265.178 301.138 265.178 301.138C269.046 296.372 277.423 294.271 283.26 293.997C283.177 284.997 285.141 283.197 285.141 283.197C300.384 288.067 288.694 296.024 305.224 283.225C306.614 308.936 313.778 354.567 350.605 343.398C383.053 333.558 377.026 270.316 375.98 246.556C398.869 241.547 425.43 246.38 439.243 266.996C433.706 258.732 438.778 302.263 439.243 266.996" fill="#AFE1F5"/>
</g>
</g>
<path d="M439.566 316.846C438.396 319.49 436.842 321.947 434.954 324.136C433.269 326.086 431.34 327.81 429.213 329.264C413.418 340.172 388.702 336.457 379.12 337.35C377.794 337.471 375.72 337.598 373.085 337.727C372.556 337.751 372.002 337.778 371.422 337.802C368.784 337.924 365.687 338.045 362.305 338.159C345.572 338.745 321.605 339.312 308.675 339.593C303.1 339.72 299.582 339.793 299.582 339.793C299.404 339.793 299.231 339.786 299.053 339.78C298.9 339.78 298.748 339.773 298.595 339.767C284.095 339.442 271.611 337.142 262.36 334.102C257.609 332.68 253.103 330.54 248.998 327.757C248.073 327.088 247.227 326.316 246.476 325.457C246.235 325.17 246.012 324.87 245.807 324.557C245.724 324.43 245.654 324.309 245.583 324.182C242.008 317.657 249.189 305.843 249.553 305.251L249.56 305.238L249.567 305.231C245.852 293.393 247.867 286.383 247.867 286.383C253.391 287.758 257.852 293.175 257.852 293.175C258.682 292.176 259.664 291.313 260.763 290.62C261.715 289.999 262.719 289.459 263.763 289.008C264.896 288.508 266.06 288.08 267.248 287.727C269.006 287.198 270.796 286.779 272.606 286.472C274.595 286.134 275.939 286.032 275.939 286.032C275.856 277.032 278.639 273.371 278.639 273.371C282.626 274.645 286.048 283.885 287.482 283.801C288.616 283.744 290.414 280.476 304.119 270.618C305.082 269.925 306.1 269.203 307.183 268.44C309.841 266.585 312.874 264.521 316.346 262.234C316.804 261.934 317.269 261.629 317.746 261.317C318.498 260.826 319.257 260.335 320.02 259.85C322.971 257.97 326.003 256.13 329.106 254.358C330.506 253.558 331.922 252.772 333.356 252C335.687 250.745 338.056 249.535 340.461 248.388C341.619 247.833 342.786 247.294 343.961 246.77C346.049 245.834 348.161 244.941 350.293 244.106C353.161 242.985 356.061 241.965 358.993 241.068C362.147 240.099 365.327 239.268 368.538 238.608C368.554 238.602 368.572 238.6 368.589 238.601C368.813 238.55 369.043 238.506 369.264 238.461C374.091 237.483 378.995 236.927 383.919 236.798C384.219 236.785 384.513 236.778 384.811 236.772C388.254 236.719 391.696 236.916 395.111 237.359C399.945 237.967 404.7 239.093 409.294 240.717C419.323 244.259 427.168 251.466 432.773 260.328C434.619 263.256 436.225 266.329 437.573 269.517C438.121 270.798 438.624 272.09 439.089 273.403C441.206 279.325 442.541 285.498 443.059 291.766C443.831 301.049 442.677 309.932 439.581 316.851" fill="#FFEDCA"/>
<path d="M437.318 320.994C436.601 322.093 435.811 323.142 434.954 324.135C420.21 341.235 389.971 336.344 379.119 337.35C377.794 337.471 375.719 337.598 373.086 337.725C372.557 337.751 372.003 337.776 371.423 337.802C368.785 337.923 365.688 338.045 362.304 338.159C345.573 338.745 321.604 339.312 308.675 339.592C303.098 339.721 299.582 339.792 299.582 339.792C299.403 339.792 299.231 339.792 299.053 339.781C298.9 339.781 298.746 339.774 298.593 339.768C284.093 339.443 271.611 337.143 262.358 334.103C257.606 332.681 253.101 330.541 248.997 327.756C248.071 327.087 247.225 326.315 246.473 325.456C246.232 325.169 246.009 324.869 245.804 324.556C243.887 317.872 249.704 304.767 249.704 304.767C245.989 292.929 248.71 288.288 248.71 288.288C254.234 289.665 258.695 295.08 258.695 295.08C259.525 294.081 260.507 293.219 261.606 292.525C262.558 291.904 263.562 291.364 264.606 290.913C265.739 290.413 266.903 289.986 268.091 289.632C269.849 289.103 271.638 288.684 273.449 288.377C275.438 288.039 276.782 287.936 276.782 287.936C276.699 278.936 279.197 275.316 279.197 275.316C283.186 276.59 286.897 285.789 288.327 285.707C289.461 285.648 291.259 282.38 304.964 272.524C305.927 271.824 306.945 271.109 308.028 270.344C310.686 268.489 313.719 266.425 317.191 264.138C317.649 263.838 318.114 263.533 318.591 263.221C319.343 262.73 320.101 262.241 320.865 261.756C323.816 259.876 326.848 258.034 329.951 256.263C331.351 255.463 332.767 254.677 334.201 253.905C337.661 252.045 341.201 250.286 344.801 248.674C346.891 247.741 349.002 246.853 351.135 246.011C354.003 244.889 356.903 243.869 359.835 242.971C363.212 241.93 366.64 241.06 370.106 240.365C375.225 239.327 380.429 238.762 385.653 238.676C389.096 238.623 392.538 238.819 395.953 239.262C400.787 239.87 405.542 240.996 410.136 242.62C420.165 246.162 428.01 253.369 433.616 262.231C435.092 264.567 436.411 266.998 437.566 269.508C445.233 287.489 445.238 308.879 437.324 320.991" fill="#FFE269"/>
<path d="M454.52 323.97C454.52 346.908 432.428 356.47 402.908 361.983C377.053 366.819 365.043 363.353 363.597 356.707C363.399 355.714 363.406 354.691 363.615 353.7C365.315 345.206 396.321 349.456 415.863 347.118C435.405 344.78 445.382 337.771 446.657 323.753C447.932 309.735 443.051 300.179 443.051 300.179L442.851 290.579L442.833 289.561C442.833 289.561 454.518 301.029 454.518 323.967" fill="#F3BE65"/>
<path d="M450.059 318.873C450.059 341.811 427.653 352.605 398.134 358.123C380.918 361.349 364.883 361.423 363.596 356.707C363.399 355.714 363.406 354.691 363.616 353.7C365.316 345.208 396.322 349.456 415.863 347.118C435.404 344.78 445.384 337.771 446.663 323.754C447.942 309.737 443.056 300.178 443.056 300.178L442.856 290.578C443.181 291.126 443.505 291.705 443.838 292.33C448.066 300.528 450.204 309.644 450.062 318.867" fill="#FFD67B"/>
<path d="M451.756 324.074C451.756 347.012 429.879 352.644 400.356 358.162C383.14 361.386 370.156 359.645 364.256 357.013C364.237 356.382 364.29 355.751 364.414 355.133C366.114 346.639 397.12 350.889 416.661 348.551C436.202 346.213 446.182 339.204 447.461 325.186C448.152 316.505 446.707 307.787 443.253 299.794L442.853 289.633C450.2 297.159 451.766 311.858 451.766 324.073" fill="#FFE269"/>
<path d="M315.191 286.16C311.941 277.934 307.591 273.238 304.111 270.613C305.074 269.92 306.092 269.198 307.175 268.435C313.509 275.921 315.191 286.16 315.191 286.16Z" fill="#F3BE65"/>
<path d="M329.128 280.427C325.388 270.946 320.412 265.402 316.34 262.227C316.798 261.927 317.263 261.627 317.74 261.31C318.492 260.818 319.25 260.33 320.014 259.845C327.203 268.701 329.126 280.425 329.126 280.425" fill="#F3BE65"/>
<path d="M343.36 273.635C339.16 262.981 333.395 257.305 329.1 254.355C330.5 253.555 331.916 252.769 333.35 251.997C341.269 260.949 343.36 273.634 343.36 273.634" fill="#F3BE65"/>
<path d="M363.584 272.024C357.709 257.166 349.427 250.042 343.953 246.768C346.043 245.83 348.154 244.942 350.287 244.104C360.647 255.127 363.487 271.432 363.587 272.025" fill="#F3BE65"/>
<path d="M387.122 275.526C378.507 253.726 365.922 244.612 358.984 241.061C362.363 240.021 365.791 239.152 369.256 238.455C383.189 252.912 386.988 274.736 387.121 275.525" fill="#F3BE65"/>
<path d="M403.822 274.346C399.986 253.612 391.034 242.335 384.803 236.773C388.246 236.72 391.688 236.916 395.103 237.359C404.437 254.09 403.825 274.346 403.825 274.346" fill="#F3BE65"/>
<path d="M298.595 339.764C271.764 339.159 251.859 331.818 246.475 325.454L249.405 322.638C249.405 322.638 249.456 324.129 253.28 324.868C257.104 325.607 253.337 317.221 255.51 314.194C257.683 311.167 262.575 308.937 267.086 313.187C271.597 317.437 272.426 334.449 297.594 332.703L298.595 339.764Z" fill="#F3BE65"/>
<path d="M437.317 320.993C436.6 322.092 435.811 323.141 434.953 324.134C420.209 341.234 389.97 336.343 379.118 337.349C377.793 337.47 375.718 337.597 373.085 337.724C372.556 337.75 372.002 337.775 371.422 337.801C368.784 337.922 365.687 338.044 362.303 338.158C345.572 338.744 321.603 339.311 308.674 339.59C303.097 339.719 299.581 339.79 299.581 339.79C299.402 339.79 299.23 339.79 299.052 339.779C298.899 339.779 298.745 339.772 298.592 339.766C284.092 339.441 271.61 337.141 262.357 334.101C265.441 334.382 282.867 335.879 295.598 335.013C309.616 334.057 343.544 303.313 369.03 308.571C394.516 313.829 448.993 295.509 433.384 261.739C433.16 261.261 432.95 260.789 432.759 260.324C444.973 279.61 446.63 306.724 437.314 320.994" fill="#F3BE65"/>
<path d="M364.321 338.16C340.37 339.002 301.6 339.792 301.6 339.792C301.421 339.792 301.249 339.785 301.07 339.779C299.585 338.63 298.403 337.136 297.626 335.427C296.848 333.719 296.5 331.846 296.61 329.972C296.72 328.098 297.285 326.279 298.257 324.672C299.228 323.066 300.577 321.721 302.186 320.754C307.392 317.528 313.493 316.049 319.599 316.535C335.846 317.919 338.714 331.402 352.941 334.268C359.134 335.516 362.486 336.842 364.321 338.16Z" fill="#F3BE65"/>
<path d="M371.42 337.803C368.782 337.924 365.685 338.044 362.301 338.16C345.57 338.746 321.601 339.314 308.672 339.593C306.924 338.597 305.466 337.16 304.445 335.426C303.424 333.691 302.875 331.72 302.852 329.707C302.83 327.695 303.334 325.712 304.316 323.955C305.298 322.198 306.722 320.729 308.448 319.693C313.656 316.47 319.755 314.99 325.861 315.469C342.11 316.853 344.976 330.34 359.205 333.207C366.487 334.674 369.844 336.253 371.419 337.801" fill="#F3BE65"/>
<path d="M368.767 341.703C368.811 342.238 368.392 342.723 367.567 343.15C365.611 344.181 361.38 344.883 355.779 345.131C351.579 345.302 347.374 345.257 343.179 344.997C333.457 344.431 316.144 344.857 305.255 339.657C303.884 339.001 302.656 338.081 301.642 336.948C300.628 335.816 299.849 334.495 299.348 333.06C298.846 331.625 298.634 330.105 298.723 328.588C298.811 327.071 299.199 325.586 299.864 324.219C300.837 322.202 302.384 320.517 304.312 319.377C309.519 316.152 315.619 314.673 321.725 315.153C337.974 316.535 340.84 330.025 355.069 332.891C355.508 332.981 355.929 333.069 356.343 333.152C369.258 335.962 368.563 339.128 368.767 341.703Z" fill="#FFEDCA"/>
<path d="M367.569 343.149C367.442 343.223 367.31 343.287 367.174 343.34C367.034 343.397 366.887 343.461 366.729 343.519C366.499 343.614 366.244 343.697 365.97 343.78C365.786 343.831 365.593 343.888 365.396 343.938C364.97 344.054 364.505 344.162 364.001 344.258C363.841 344.289 363.683 344.322 363.516 344.353C362.369 344.564 361.057 344.735 359.604 344.869C359.062 344.921 358.496 344.969 357.91 345.009C357.546 345.035 357.177 345.061 356.801 345.079C356.47 345.099 356.126 345.118 355.781 345.131C351.581 345.302 347.376 345.257 343.181 344.996C333.457 344.43 316.146 344.857 305.256 339.658C303.354 339.113 301.656 338.016 300.377 336.507C299.098 334.997 298.295 333.142 298.069 331.177C297.844 329.211 298.206 327.223 299.11 325.462C300.013 323.702 301.419 322.25 303.148 321.288C308.355 318.063 314.455 316.583 320.561 317.064C336.808 318.446 339.676 331.935 353.903 334.802C354.344 334.892 354.763 334.98 355.177 335.063C355.898 335.223 356.577 335.383 357.216 335.535C367.34 338.059 367.436 340.811 367.57 343.149" fill="#FFD67B"/>
<path d="M438.088 298.376C438.088 308.819 436.921 317.421 434.954 324.136C420.21 341.236 389.969 336.343 379.119 337.351C377.793 337.472 375.719 337.599 373.084 337.726C373.174 336.383 373.557 335.076 374.206 333.897C375.963 330.552 394.914 329.755 393.806 327.206C392.698 324.657 384.248 323.223 384.248 306.34C384.248 305.989 384.248 305.64 384.261 305.294C384.518 299.026 387.039 293.065 391.357 288.514C395.674 283.964 401.495 281.133 407.74 280.547C419.885 279.356 438.088 280.541 438.088 298.376Z" fill="#F3BE65"/>
<path d="M443.262 298.379C443.262 299.092 443.249 299.792 443.236 300.49C443.223 301.188 443.197 301.864 443.158 302.538C442.158 322.851 434 335.65 427.133 340.223C426.504 340.641 425.841 341.005 425.151 341.311C424.983 341.376 424.828 341.442 424.66 341.505C424.414 341.596 424.167 341.673 423.921 341.751C423.636 341.829 423.365 341.906 423.079 341.958C423.049 341.967 423.019 341.972 422.988 341.971C420.655 342.446 418.299 342.792 415.928 343.007C415.876 343.007 415.828 343.02 415.773 343.02C407.831 343.759 398.555 343.62 388.942 343.62C386.885 343.665 384.833 343.425 382.842 342.907C376.792 341.158 376.999 337.557 379.383 333.907C381.767 330.257 400.099 329.761 398.983 327.207C397.867 324.653 389.422 323.231 389.422 306.336C389.422 305.987 389.435 305.636 389.448 305.3C389.696 299.033 392.211 293.069 396.527 288.517C400.843 283.966 406.665 281.137 412.91 280.556C419.063 279.947 426.746 279.947 432.834 282.409H432.847C434.418 283.029 435.9 283.857 437.252 284.869C437.614 285.154 437.964 285.452 438.301 285.763C438.587 286.022 438.857 286.282 439.117 286.563C439.377 286.844 439.636 287.134 439.869 287.431C440.102 287.728 440.31 288.002 440.504 288.301C440.541 288.35 440.575 288.402 440.604 288.456C440.759 288.689 440.904 288.923 441.045 289.156C441.322 289.633 441.569 290.126 441.784 290.634C441.928 290.941 442.053 291.257 442.159 291.579C442.18 291.605 442.194 291.637 442.198 291.67C442.344 292.063 442.469 292.464 442.573 292.87C442.691 293.286 442.78 293.7 442.873 294.128C442.873 294.152 442.886 294.179 442.886 294.205C442.937 294.451 442.976 294.711 443.015 294.97C443.054 295.229 443.093 295.5 443.115 295.77C443.209 296.634 443.256 297.502 443.257 298.37" fill="#FFEDCA"/>
<path d="M443.263 298.382C443.263 299.095 443.25 299.795 443.237 300.493C443.224 301.191 443.198 301.867 443.159 302.541C442.159 322.854 434.001 335.653 427.134 340.226C426.505 340.643 425.842 341.007 425.152 341.314C424.984 341.379 424.829 341.445 424.661 341.508C424.415 341.599 424.168 341.676 423.922 341.754C423.637 341.832 423.366 341.909 423.08 341.961C423.05 341.97 423.02 341.974 422.989 341.974C422.446 342.129 424.583 342.052 423.676 342.181C421.345 342.545 418.728 342.816 415.929 343.01C415.877 343.01 415.829 343.023 415.774 343.023C407.43 343.623 397.574 343.623 388.943 343.623C386.886 343.668 384.834 343.428 382.843 342.91C378.529 340.875 379.631 336.886 380.9 334.45C382.662 331.12 401.6 330.317 400.5 327.766C399.373 325.213 390.939 323.788 390.939 306.908C390.939 306.557 390.952 306.195 390.965 305.859C391.216 299.591 393.733 293.628 398.048 289.075C402.362 284.522 408.182 281.689 414.427 281.102C420.075 280.557 427.019 280.518 432.836 282.411H432.849C434.42 283.031 435.902 283.858 437.254 284.871C437.616 285.156 437.966 285.454 438.303 285.765C438.589 286.024 438.859 286.284 439.119 286.565C439.379 286.846 439.638 287.136 439.871 287.433C440.104 287.73 440.312 288.004 440.506 288.303C440.544 288.351 440.577 288.403 440.606 288.458C440.761 288.691 440.906 288.925 441.047 289.158C441.324 289.634 441.571 290.128 441.786 290.636C441.93 290.943 442.055 291.258 442.161 291.581C442.183 291.607 442.196 291.638 442.2 291.672C442.346 292.065 442.471 292.465 442.575 292.872C442.693 293.288 442.782 293.702 442.875 294.13C442.875 294.154 442.888 294.181 442.888 294.207C442.939 294.453 442.978 294.713 443.017 294.972C443.056 295.231 443.095 295.502 443.117 295.772C443.211 296.635 443.258 297.503 443.259 298.372" fill="#FFD67B"/>
<path d="M248.997 327.757C248.072 327.088 247.226 326.316 246.475 325.457C246.135 325.063 245.837 324.636 245.583 324.183C242.008 317.658 249.189 305.846 249.553 305.254C249.323 305.84 244.908 317.029 249.406 322.641C250.801 324.387 250.336 326.141 248.998 327.757" fill="#F3BE65"/>
<path d="M250.599 302.198C250.599 302.198 248.767 293.676 249.485 289.376C250.853 289.763 252.126 290.429 253.223 291.334C254.32 292.239 255.216 293.361 255.856 294.631C255.856 294.631 251.237 300.048 250.599 302.198Z" fill="#F3BE65"/>
<path d="M279.272 275.836C279.272 275.836 277.36 282.605 277.76 286.35C277.76 286.35 283.095 285.15 285.804 285.394C285.804 285.394 282.618 278.703 279.273 275.836" fill="#F3BE65"/>
<path d="M249.429 314.875C249.45 314.388 249.557 313.909 249.746 313.459C249.832 313.239 249.932 313.025 250.046 312.818C250.172 312.583 250.318 312.358 250.482 312.147C250.656 311.917 250.848 311.7 251.056 311.498C251.279 311.293 251.519 311.105 251.772 310.937C252.029 310.767 252.305 310.627 252.594 310.519C252.868 310.4 253.158 310.32 253.455 310.281C253.727 310.227 254.005 310.21 254.282 310.23C254.408 310.23 254.534 310.237 254.659 310.251C254.778 310.277 254.894 310.303 255.003 310.329C255.202 310.365 255.397 310.422 255.584 310.499C255.75 310.571 255.889 310.646 256.002 310.705C256.227 310.826 256.345 310.905 256.345 310.905C256.345 310.905 256.195 310.928 255.945 310.952C255.823 310.962 255.676 310.976 255.513 310.98C255.35 310.984 255.164 311.042 254.971 311.06C254.766 311.082 254.563 311.123 254.366 311.184C254.148 311.229 253.934 311.294 253.728 311.377C253.622 311.419 253.514 311.455 253.403 311.493L253.088 311.651C252.871 311.753 252.662 311.871 252.463 312.005C252.253 312.124 252.068 312.292 251.863 312.426C251.684 312.594 251.481 312.726 251.313 312.901C251.145 313.076 250.965 313.222 250.813 313.384C250.661 313.546 250.506 313.702 250.361 313.844L249.426 314.875" fill="#894D16"/>
<path d="M263.344 309.021C263.433 308.878 263.536 308.745 263.651 308.621C263.781 308.477 263.923 308.343 264.074 308.221C264.268 308.056 264.476 307.908 264.696 307.779C265.253 307.446 265.864 307.214 266.502 307.095C266.864 307.024 267.232 306.983 267.602 306.973C267.981 306.978 268.359 307.008 268.734 307.063C269.105 307.124 269.471 307.215 269.827 307.337C270.171 307.447 270.505 307.586 270.827 307.751C271.137 307.911 271.427 308.074 271.695 308.245C271.963 308.416 272.188 308.612 272.401 308.782C272.601 308.93 272.785 309.097 272.951 309.282C273.106 309.439 273.233 309.582 273.339 309.703C273.546 309.943 273.656 310.088 273.656 310.088C273.656 310.088 273.48 310.028 273.188 309.909C272.896 309.79 272.509 309.584 272.02 309.403C271.778 309.308 271.52 309.203 271.255 309.085C270.983 308.985 270.687 308.902 270.398 308.785C270.109 308.668 269.786 308.625 269.483 308.521C269.18 308.417 268.85 308.392 268.535 308.321C268.22 308.25 267.897 308.249 267.582 308.208C267.269 308.221 266.952 308.166 266.652 308.208C266.352 308.224 266.052 308.252 265.778 308.294C265.504 308.336 265.235 308.394 264.99 308.451C264.427 308.591 263.879 308.783 263.354 309.027" fill="#894D16"/>
<path d="M258.043 314.633C257.835 314.811 257.701 315.06 257.665 315.331C257.63 315.603 257.697 315.878 257.852 316.103C258.495 317.039 259.914 318.456 260.914 318.164C261.914 317.872 262.268 314.864 261.906 314.159C261.544 313.454 259.617 313.304 258.042 314.634" fill="#894D16"/>
<path d="M260.982 317.297L260.396 317.548L262.036 321.368L262.622 321.116L260.982 317.297Z" fill="#894D16"/>
<path d="M257.811 319.892C258.209 320.25 258.649 320.559 259.121 320.812C259.612 321.085 260.141 321.284 260.691 321.403C261.016 321.47 261.35 321.487 261.681 321.455C261.736 321.452 261.791 321.444 261.846 321.432L261.959 321.399C262.036 321.378 262.113 321.354 262.189 321.326C262.363 321.247 262.529 321.149 262.683 321.034C262.95 320.827 263.191 320.59 263.402 320.326C263.603 320.084 263.786 319.827 263.95 319.558C264.24 319.092 264.493 318.604 264.707 318.098C264.917 317.609 265.091 317.105 265.227 316.59L264.995 316.96C264.855 317.2 264.633 317.528 264.383 317.926C264.133 318.324 263.827 318.778 263.483 319.241C263.311 319.478 263.127 319.707 262.932 319.926C262.746 320.15 262.534 320.352 262.301 320.526C262.204 320.602 262.101 320.672 261.994 320.733C261.924 320.762 261.852 320.786 261.78 320.806L261.667 320.842C261.706 320.834 261.62 320.842 261.602 320.842C261.327 320.876 261.049 320.876 260.775 320.842C260.261 320.768 259.755 320.645 259.266 320.472C258.827 320.317 258.458 320.178 258.209 320.062L257.809 319.884" fill="#894D16"/>
<g style="mix-blend-mode:multiply" opacity="0.58">
<mask id="mask3_0_5798" style="mask-type:luminance" maskUnits="userSpaceOnUse" x="340" y="236" width="45" height="100">
<path d="M384.642 236.793H340.455V335.107H384.642V236.793Z" fill="white"/>
</mask>
<g mask="url(#mask3_0_5798)">
<path d="M384.642 243.258L381.775 327.044C381.775 327.044 365.647 336.124 363.055 335.009C360.463 333.894 352.993 332.461 352.993 332.461C352.993 332.461 391.51 250.636 340.455 248.381C341.615 247.826 342.782 247.287 343.955 246.763C346.045 245.83 348.156 244.942 350.289 244.1C353.156 242.978 356.055 241.958 358.989 241.06C362.144 240.091 365.323 239.26 368.535 238.6C368.551 238.594 368.569 238.591 368.586 238.593C376.652 237.529 382.786 236.816 383.916 236.793L384.642 243.258Z" fill="#F3BE65"/>
</g>
</g>
<path d="M437.215 230.833C416.444 230.751 395.671 229.875 374.898 231.195C375.916 241.84 376.389 252.531 376.317 263.225C376.317 298.251 371.758 322.654 363.059 335.011C364.248 335.524 365.401 336.118 366.51 336.789C366.968 337.15 367.402 337.54 367.81 337.957C368.483 339.14 368.809 340.49 368.75 341.85C370.218 342.55 371.421 348.962 371.421 348.962C373.539 348.613 375.676 348.383 377.821 348.273C385.321 347.788 393.521 348.022 400.114 347.788C407.867 347.512 414.379 347.276 421.489 346.388C431.889 325.914 439.268 295.518 439.268 263.228C439.31 252.396 438.625 241.574 437.216 230.835" fill="#3EB896"/>
<path d="M247.166 268.152L248.011 270.09L245.66 277.432L250.502 275.322L251.564 277.761L242.721 281.613L241.877 279.676L244.226 272.332L239.726 274.295L238.656 271.838L247.166 268.152Z" fill="#329378"/>
<path d="M260.524 244.076L260.743 246.176L256.282 252.464L261.537 251.916L261.813 254.562L252.213 255.562L251.994 253.462L256.453 247.172L251.578 247.676L251.301 245.01L260.524 244.076Z" fill="#38A687"/>
<g opacity="0.8">
<mask id="mask4_0_5798" style="mask-type:luminance" maskUnits="userSpaceOnUse" x="237" y="221" width="9" height="10">
<path d="M245.07 221.783H237.043V230.553H245.07V221.783Z" fill="white"/>
</mask>
<g mask="url(#mask4_0_5798)">
<path d="M244.087 221.783L244.253 223.388L240.853 228.188L244.863 227.77L245.073 229.791L237.749 230.553L237.583 228.953L240.983 224.153L237.255 224.54L237.043 222.505L244.087 221.783Z" fill="#8BD4C0"/>
</g>
</g>
<g opacity="0.6">
<mask id="mask5_0_5798" style="mask-type:luminance" maskUnits="userSpaceOnUse" x="256" y="198" width="8" height="9">
<path d="M263.015 198.924H256.363V206.054H263.015V198.924Z" fill="white"/>
</mask>
<g mask="url(#mask5_0_5798)">
<path d="M263.016 200.201L262.729 201.368L259.129 203.868L262.043 204.588L261.681 206.055L256.359 204.743L256.648 203.576L260.242 201.076L257.54 200.401L257.905 198.923L263.016 200.201Z" fill="#ECF8F5"/>
</g>
</g>
<g opacity="0.4">
<mask id="mask6_0_5798" style="mask-type:luminance" maskUnits="userSpaceOnUse" x="237" y="188" width="8" height="9">
<path d="M244.699 188.963H237.672V196.372H244.699V188.963Z" fill="white"/>
</mask>
<g mask="url(#mask6_0_5798)">
<path d="M242.668 188.963L243.053 190.1L241.371 194.144L244.213 193.181L244.699 194.613L239.506 196.37L239.121 195.234L240.803 191.188L238.16 192.088L237.672 190.646L242.668 188.963Z" fill="#65C6AB"/>
</g>
</g>
</g>
<defs>
<clipPath id="clip0_0_5798">
<rect width="694.286" height="400" fill="white" transform="translate(0.5)"/>
</clipPath>
</defs>
</svg>
